%FSLAX35Y35*%
%MOIN*%
G04 EasyPC Gerber Version 18.0.9 Build 3640 *
%AMT91*0 Octagon Pad at angle 0*4,1,8,-0.01549,-0.03740,0.01549,-0.03740,0.03740,-0.01549,0.03740,0.01549,0.01549,0.03740,-0.01549,0.03740,-0.03740,0.01549,-0.03740,-0.01549,-0.01549,-0.03740,0*%
%ADD91T91*%
%ADD17R,0.01260X0.04134*%
%ADD86R,0.01575X0.05315*%
%ADD94R,0.03937X0.04291*%
%ADD93R,0.06299X0.08583*%
%ADD87R,0.07087X0.07480*%
%ADD90R,0.07480X0.07480*%
%ADD95C,0.00984*%
%ADD96C,0.01575*%
%ADD18R,0.04134X0.01260*%
%ADD79C,0.02953*%
%ADD23C,0.03937*%
%ADD89C,0.04528*%
%ADD88C,0.07480*%
%ADD92R,0.04291X0.03937*%
X0Y0D02*
D02*
D17*
X70923Y8116D03*
Y41384D03*
X72892Y8116D03*
Y41384D03*
X74860Y8116D03*
Y41384D03*
X76829Y8116D03*
Y41384D03*
X78797Y8116D03*
Y41384D03*
X80766Y8116D03*
Y41384D03*
X82734Y8116D03*
Y41384D03*
X84703Y8116D03*
Y41384D03*
X86671Y8116D03*
Y41384D03*
X88640Y8116D03*
Y41384D03*
X90608Y8116D03*
Y41384D03*
X92577Y8116D03*
Y41384D03*
D02*
D18*
X65116Y13923D03*
Y15892D03*
Y17860D03*
Y19829D03*
Y21797D03*
Y23766D03*
Y25734D03*
Y27703D03*
Y29671D03*
Y31640D03*
Y33608D03*
Y35577D03*
X98384Y13923D03*
Y15892D03*
Y17860D03*
Y19829D03*
Y21797D03*
Y23766D03*
Y25734D03*
Y27703D03*
Y29671D03*
Y31640D03*
Y33608D03*
Y35577D03*
D02*
D23*
X66750Y63250D02*
X74250D01*
Y56250D02*
X77750D01*
X81750*
X87000*
X88000Y57250*
Y62000*
X99125Y73125*
X81750Y63250D02*
X74250D01*
X85500Y83750D02*
Y89500D01*
X91750Y95750*
X123500*
X132250Y87000*
Y24750*
X127250Y19750*
X112750*
X107000Y25500*
Y41750*
X85500Y83750D02*
Y76250D01*
X73000Y63750*
Y63250*
X74250*
X99125Y73125D02*
X105500Y79500D01*
Y83750*
X103500Y65750D02*
Y68750D01*
X99125Y73125*
X107000Y41750D02*
X102000D01*
X112000D02*
X107000D01*
D02*
D79*
X53000Y51000D02*
Y86250D01*
X59250Y92500*
X73000*
X75500Y90000*
Y83750*
X60500Y49750D02*
Y67250D01*
X65500Y72250*
Y83750*
X95500D02*
Y85750D01*
X100500Y90750*
X110500*
X115500Y85750*
Y75000*
X117250Y73250*
Y65750*
X97250Y53171D02*
X92329Y48250D01*
X102000Y48750D02*
Y53000D01*
X102250Y53250*
X109750Y60750*
Y65000*
X110500Y65750*
X102250Y53250D02*
X97250D01*
X110500Y65750D02*
X117250D01*
X124640*
X125250Y66360*
Y30140D02*
Y45250D01*
X123500Y47000*
X113750*
X112000Y48750*
D02*
D86*
X20382Y81750D03*
X22941D03*
X25500D03*
X28059D03*
X30618D03*
D02*
D87*
X20972Y92281D03*
X30028D03*
D02*
D88*
X9063D03*
X41937D03*
D02*
D89*
X16740Y80470D03*
X34260D03*
D02*
D90*
X105500Y83750D03*
D02*
D91*
X65500D03*
X75500D03*
X85500D03*
X95500D03*
D02*
D92*
X103500Y65750D03*
X110500D03*
D02*
D93*
X125250Y30140D03*
Y66360D03*
D02*
D94*
X66750Y56250D03*
Y63250D03*
X74250Y56250D03*
Y63250D03*
X81750Y56250D03*
Y63250D03*
X102000Y41750D03*
Y48750D03*
X112000Y41750D03*
Y48750D03*
D02*
D95*
X70923Y41384D02*
Y44327D01*
X69250Y46000*
X68000*
X66750Y47250*
Y56250*
X74860Y41384D02*
Y37860D01*
X74250Y37250*
X70500*
X68000Y39750*
Y42250*
X60500Y49750*
X76829Y41384D02*
Y37329D01*
X74250Y34750*
X70500*
X65500Y39750*
X64250*
X53000Y51000*
X78797Y41384D02*
Y44297D01*
X79750Y45250*
X80766Y41384D02*
Y44234D01*
X79750Y45250*
X82734Y41384D02*
Y38266D01*
X84750Y36250*
X92250*
X96250Y40250*
X100500*
X102000Y41750*
X92329Y48250D02*
X89079D01*
X86671Y45843*
Y41384*
X97250Y53250D02*
Y53171D01*
D02*
D96*
X79750Y45250D02*
Y48750D01*
X77750Y50750*
Y56250*
X0Y0D02*
M02*
