<?xml version="1.0" encoding="UTF-8" standalone="no"?>
<!-- Created with Inkscape (http://www.inkscape.org/) -->

<svg
   xmlns:dc="http://purl.org/dc/elements/1.1/"
   xmlns:cc="http://creativecommons.org/ns#"
   xmlns:rdf="http://www.w3.org/1999/02/22-rdf-syntax-ns#"
   xmlns:svg="http://www.w3.org/2000/svg"
   xmlns="http://www.w3.org/2000/svg"
   xmlns:sodipodi="http://sodipodi.sourceforge.net/DTD/sodipodi-0.dtd"
   xmlns:inkscape="http://www.inkscape.org/namespaces/inkscape"
   width="47.155556mm"
   height="16.111111mm"
   viewBox="0 0 167.08661 57.086612"
   id="svg2"
   version="1.1"
   inkscape:version="0.91 r13725"
   sodipodi:docname="Logo Imagine copy-02_Inkscape.svg">
  <defs
     id="defs4" />
  <sodipodi:namedview
     id="base"
     pagecolor="#ffffff"
     bordercolor="#666666"
     borderopacity="1.0"
     inkscape:pageopacity="0.0"
     inkscape:pageshadow="2"
     inkscape:zoom="3.959798"
     inkscape:cx="62.368193"
     inkscape:cy="20.69746"
     inkscape:document-units="px"
     inkscape:current-layer="layer1"
     showgrid="false"
     fit-margin-left="1"
     fit-margin-top="1"
     fit-margin-right="1"
     fit-margin-bottom="1"
     inkscape:window-width="1366"
     inkscape:window-height="705"
     inkscape:window-x="-8"
     inkscape:window-y="-8"
     inkscape:window-maximized="1" />
  <metadata
     id="metadata7">
    <rdf:RDF>
      <cc:Work
         rdf:about="">
        <dc:format>image/svg+xml</dc:format>
        <dc:type
           rdf:resource="http://purl.org/dc/dcmitype/StillImage" />
        <dc:title></dc:title>
      </cc:Work>
    </rdf:RDF>
  </metadata>
  <g
     inkscape:label="Capa 1"
     inkscape:groupmode="layer"
     id="layer1"
     transform="translate(-36.456689,-969.53318)">
    <path
       style="fill:#07074e"
       d="m 104.59999,991.87649 2.1,0 2.1,0 0,9.40001 0,9.4 -2.1,0 -2.1,0 0,-9.4 z"
       id="rect4143"
       inkscape:connector-curvature="0"
       sodipodi:nodetypes="ccccccccc" />
    <path
       inkscape:connector-curvature="0"
       id="rect4147"
       d="m 39.999996,991.87649 4.2,0 0,18.80001 -4.2,0 z"
       style="fill:#07074e"
       sodipodi:nodetypes="ccccc" />
    <path
       inkscape:connector-curvature="0"
       id="rect4149"
       d="m 39.999996,985.57649 2.1,0 2.1,0 0,2.1 0,2.1 -2.1,0 -2.1,0 0,-2.1 z"
       style="fill:#07074e"
       sodipodi:nodetypes="ccccccccc" />
    <path
       style="fill:#07074e"
       d="m 104.59999,985.57649 2.1,0 2.1,0 0,2.1 0,2.1 -2.1,0 -2.1,0 0,-2.1 z"
       id="rect4151"
       inkscape:connector-curvature="0"
       sodipodi:nodetypes="ccccccccc" />
    <path
       style="fill:#07074e"
       d="m 115,994.57649 4.15,8.00001 4.15,8 2.1,0 2.1,0 0,-12.5 0,-12.50001 -2.1,0 -2.1,0 0,8.00001 0,8 -4.15,-8 -4.15,-8.00001 0,0 0,0 -2.1,0 -2.1,0 0,12.50001 0,12.5 2.1,0 2.1,0 0,-8 z"
       id="polygon4153"
       inkscape:connector-curvature="0"
       sodipodi:nodetypes="ccccccccccccccccccccccc" />
    <path
       style="fill:#07074e"
       d="m 129.6,1000.1765 0,3.1 0,3.1 0,2.1 0,2.1 0,0 0,0 2.1,0 2.1,0 0,0 0,0 6.25,0 6.25,0 0,-2.1 0,-2.1 -6.25,0 -6.25,0 0,-3.1 0,-3.1 4.15,0 4.15,0 0,-2.05001 0,-2.05 -4.15,0 -4.15,0 0,-3.15 0,-3.15 6.25,0 6.25,0 0,-2.1 0,-2.1 -6.25,0 -6.25,0 -2.1,0 -2.1,0 0,2.1 0,2.1 0,3.15 0,3.15 0,2.05 z"
       id="polygon4155"
       inkscape:connector-curvature="0"
       sodipodi:nodetypes="ccccccccccccccccccccccccccccccccccccccccc" />
    <path
       style="fill:#07074e"
       d="m 54.199996,998.67649 1.25,1.90001 1.25,1.9 1.25,-1.9 1.25,-1.90001 1.85,-2.8 1.85,-2.8 0,8.75001 0,8.75 2.1,0 2.1,0 0,-12.50001 0,-12.5 -2.1,0 -2.1,0 -3.1,4.7 -3.1,4.7 -3.15,-4.7 -3.15,-4.7 -2.05,0 -2.05,0 0,12.5 0,12.50001 2.05,0 2.05,0 0,-8.75 0,-8.75001 1.9,2.8 z"
       id="polygon4157"
       inkscape:connector-curvature="0"
       sodipodi:nodetypes="ccccccccccccccccccccccccccccc" />
    <path
       id="path4159"
       d="m 172,973.07649 -5.4,3.125 -5.4,3.125 -5.4,3.125 -5.4,3.125 0,6.25 0,6.25001 0,6.25 0,6.25 5.4,3.125 5.4,3.125 5.4,3.125 5.4,3.125 5.425,-3.125 5.425,-3.125 5.425,-3.125 5.425,-3.125 0,-6.25 0,-6.25 0,-6.25001 0,-6.25 -5.425,-3.125 -5.425,-3.125 -5.425,-3.125 z m -15,37.50001 -0.25,0 -0.25,0 -0.25,0 -0.25,0 0.2,0.125 0.2,0.125 0.2,0.125 0.2,0.125 4.125,2.375 4.125,2.375 4.125,2.375 4.125,2.375 -0.35,0.2 -0.35,0.2 -0.35,0.2 -0.35,0.2 -5,-2.875 -5,-2.875 -5,-2.875 -5,-2.875 0.3,-0.175 0.3,-0.175 0.3,-0.175 0.3,-0.175 8.475,0 8.475,0 8.475,0 8.475,0 0.25,0 0.25,0 0.25,0 0.25,0 -0.225,-0.125 -0.225,-0.125 -0.225,-0.125 -0.225,-0.125 -4.125,-2.375 -4.125,-2.375 -4.125,-2.375 -4.125,-2.37501 0.35,-0.2 0.35,-0.2 0.35,-0.2 0.35,-0.2 5,2.87501 5,2.875 5,2.875 5,2.875 -0.3,0.175 -0.3,0.175 -0.3,0.175 -0.3,0.175 -8.45,0 -8.45,0 -8.45,0 z m -5.2,-2.5 2.1,-3.65 2.1,-3.65 2.1,-3.65001 2.1,-3.65 0.025,-0.05 0.025,-0.05 0.025,-0.05 0.025,-0.05 -0.05,-0.025 -0.05,-0.025 -0.05,-0.025 -0.05,-0.025 -2.075,-1.2 -2.075,-1.2 -2.075,-1.2 -2.075,-1.2 0,-0.4 0,-0.4 0,-0.4 0,-0.4 2.25,1.3 2.25,1.3 2.25,1.3 2.25,1.3 0.05,0.025 0.05,0.025 0.05,0.025 0.05,0.025 0.025,-0.05 0.025,-0.05 0.025,-0.05 0.025,-0.05 2.35,-4.075 2.35,-4.075 2.35,-4.075 2.35,-4.075 0.3,-0.175 0.3,-0.175 0.3,-0.175 0.3,-0.175 0,0.35 0,0.35 0,0.35 0,0.35 -2.35,4.075 -2.35,4.075 -2.35,4.075 -2.35,4.075 -0.025,0.05 -0.025,0.05 -0.025,0.05 -0.025,0.05 0.05,0.025 0.05,0.025 0.05,0.025 0.05,0.025 2.25,1.3 2.25,1.3 2.25,1.3 2.25,1.3 -0.35,0.2 -0.35,0.2 -0.35,0.2 -0.35,0.2 -2.075,-1.2 -2.075,-1.2 -2.075,-1.2 -2.075,-1.2 -0.05,-0.025 -0.05,-0.025 -0.05,-0.025 -0.05,-0.025 -0.025,0.05 -0.025,0.05 -0.025,0.05 -0.025,0.05 -2.1,3.65 -2.1,3.65001 -2.1,3.65 -2.1,3.65 -0.3,0.175 -0.3,0.175 -0.3,0.175 -0.3,0.175 0,-0.35 0,-0.35 0,-0.35 z m 40.5,-19.80001 -4.575,2.65 -4.575,2.65 -4.575,2.65 -4.575,2.65 -0.35,-0.2 -0.35,-0.2 -0.35,-0.2 -0.35,-0.2 2.25,-1.3 2.25,-1.3 2.25,-1.3 2.25,-1.3 0.05,-0.025 0.05,-0.025 0.05,-0.025 0.05,-0.025 -0.025,-0.05 -0.025,-0.05 -0.025,-0.05 -0.025,-0.05 -2.35,-4.075 -2.35,-4.075 -2.35,-4.075 -2.35,-4.075 0,-0.35 0,-0.35 0,-0.35 0,-0.35 0.3,0.175 0.3,0.175 0.3,0.175 0.3,0.175 2.35,4.075 2.35,4.075 2.35,4.075 2.35,4.075 0.025,0.05 0.025,0.05 0.025,0.05 0.025,0.05 0.05,-0.025 0.05,-0.025 0.05,-0.025 0.05,-0.025 2.25,-1.3 2.25,-1.3 2.25,-1.3 2.25,-1.3 0,0.375 0,0.375 0,0.375 0,0.375 0.025,0 0.025,0 0.025,0 z"
       class="st0"
       inkscape:connector-curvature="0"
       style="fill:#07074e"
       sodipodi:nodetypes="cccccccccccccccccccccccccccccccccccccccccccccccccccccccccccccccccccccccccccccccccccccccccccccccccccccccccccccccccccccccccccccccccccccccccccccccccccccccccccccccccccccccccccccccccccccccccccccccccccccccccccccccccccccccccccccccccccc" />
    <path
       id="path4161"
       d="m 83.799996,1002.2765 0,0 0,0 -2.1,-8.35 -2.1,-8.35001 -2.1,0 -2.1,0 -3.1,12.50001 -3.1,12.5 2.1,0 2.1,0 0.5,-2.1 0.5,-2.1 3.15,0 3.15,0 0.5,2.1 0.5,2.1 2.1,0 2.1,0 -1.05,-4.15 -1.05,-4.15 0,0 z m -8.4,0 1.05,-4.15001 1.05,-4.15 1.05,4.15 1.05,4.15001 -2.1,0 z"
       class="st0"
       inkscape:connector-curvature="0"
       style="fill:#07074e"
       sodipodi:nodetypes="cccccccccccccccccccccccccccccc" />
    <path
       id="path4163"
       d="m 98.199996,994.97649 -0.458984,-0.24395 -0.475391,-0.20761 -0.489453,-0.17246 -0.501172,-0.13848 -0.510547,-0.10566 -0.517578,-0.074 -0.522266,-0.0435 -0.524609,-0.0143 -0.524609,0.0184 -0.522266,0.0535 -0.517578,0.0863 -0.510547,0.1168 -0.501172,0.14492 -0.489453,0.17071 -0.475391,0.19414 -0.458984,0.21523 -0.0043,2e-4 -0.01133,0.001 -0.01602,0.004 -0.01836,0.007 -0.01836,0.0119 -0.01602,0.0178 -0.01133,0.0248 -0.0043,0.033 0,-0.1375 0,-0.1375 0,-0.1375 0,-0.1375 0,-0.1375 0,-0.1375 0,-0.1375 0,-0.1375 0.08613,-0.84082 0.24668,-0.78574 0.389648,-0.71309 0.515039,-0.62285 0.622852,-0.51504 0.713086,-0.38965 0.785742,-0.24668 0.84082,-0.0861 0.44043,0.0229 0.420508,0.0662 0.399414,0.10606 0.377148,0.14238 0.353711,0.1752 0.329102,0.20449 0.30332,0.23027 0.276367,0.25254 0,0 0,0 0,0 0,0 0,0 0,0 0,0 0,0 0,0 0,0 0,0 0,0 0,0 0,0 0,0 0,0 0.321484,0.2625 0.356641,0.1875 0.380078,0.1125 0.391798,0.0375 0.391797,-0.0375 0.380079,-0.1125 0.356641,-0.1875 0.321486,-0.2625 0.2625,-0.32148 0.1875,-0.35664 0.1125,-0.38008 0.0375,-0.3918 -0.0375,-0.3918 -0.1125,-0.38007 -0.1875,-0.35665 -0.2625,-0.32148 0,0 0,0 0,0 0,0 0,0 0,0 0,0 0,0 -0.589845,-0.53379 -0.641407,-0.47402 -0.688282,-0.41074 -0.730469,-0.34395 -0.76797,-0.27363 -0.800781,-0.19981 -0.828906,-0.12246 -0.852344,-0.0416 -1.677344,0.16797 -1.560156,0.48203 -1.410156,0.76328 -1.227344,1.01172 -1.011719,1.22734 -0.763281,1.41016 -0.482031,1.56016 -0.167969,1.67734 0,1.0375 0,1.0375 0,1.0375 0,1.0375 0,1.03751 0,1.0375 0,1.0375 0,1.0375 0.01855,0.5578 0.05488,0.5485 0.09004,0.539 0.124023,0.5297 0.156836,0.5203 0.188477,0.511 0.218945,0.5015 0.248242,0.4922 0.280664,0.4734 0.314648,0.4454 0.345118,0.4171 0.37207,0.3891 0.395508,0.3609 0.41543,0.3329 0.431835,0.3046 0.444727,0.2766 0.459375,0.2482 0.478125,0.219 0.496875,0.1885 0.515625,0.1568 0.534375,0.124 0.553125,0.09 0.571875,0.055 0.590625,0.019 0.557813,-0.019 0.548437,-0.055 0.539063,-0.09 0.529687,-0.124 0.520313,-0.1568 0.510937,-0.1885 0.501563,-0.219 0.492187,-0.2482 0.473438,-0.2807 0.445313,-0.3146 0.417188,-0.3451 0.389065,-0.3721 0.36094,-0.3955 0.33281,-0.4154 0.30469,-0.4319 0.27656,-0.4447 0.24824,-0.4635 0.21895,-0.4881 0.18847,-0.5091 0.15684,-0.5268 0.12402,-0.5408 0.09,-0.5514 0.0549,-0.5584 0.0186,-0.5619 -0.0186,-0.5578 -0.0549,-0.5485 -0.09,-0.539 -0.12402,-0.5297 -0.15684,-0.52032 -0.18847,-0.51094 -0.21895,-0.50156 -0.24824,-0.49219 -0.31387,-0.47363 -0.34082,-0.44668 -0.3666,-0.4209 -0.391212,-0.39629 -0.414649,-0.37285 -0.436915,-0.35059 -0.458008,-0.32949 z m -4,11.50001 -0.84082,-0.086 -0.785743,-0.2467 -0.713085,-0.3897 -0.622852,-0.515 -0.515039,-0.6229 -0.389649,-0.713 -0.246679,-0.7858 -0.08613,-0.8408 1.95e-4,-0.1455 0.0014,-0.1373 0.0037,-0.1303 0.0072,-0.1244 0.01191,-0.1197 0.01777,-0.1162 0.02481,-0.1139 0.03301,-0.1127 0.2375,-0.65 0.33125,-0.5938 0.415625,-0.52808 0.490625,-0.45313 0.55625,-0.36875 0.6125,-0.275 0.659375,-0.17187 0.696875,-0.0594 0.700977,0.0594 0.669335,0.17187 0.624805,0.275 0.567383,0.36875 0.49707,0.45313 0.413867,0.52808 0.317774,0.5938 0.208789,0.65 0.03301,0.1168 0.0248,0.1238 0.01777,0.1285 0.01191,0.1309 0.0072,0.1309 0.0037,0.1285 0.0014,0.1238 1.95e-4,0.1168 -0.04883,0.8408 -0.210547,0.7858 -0.355859,0.713 -0.484766,0.6229 -0.597266,0.515 -0.693359,0.3897 -0.773047,0.2467 z"
       class="st0"
       inkscape:connector-curvature="0"
       style="fill:#07074e"
       sodipodi:nodetypes="cccccccccccccccccccccccccccccccccccccccccccccccccccccccccccccccccccccccccccccccccccccccccccccccccccccccccccccccccccccccccccccccccccccccccccccccccccccccccccccccccccccccccccccccccccccccccccccccccccccccccccccccccccccccccccccccccc" />
    <path
       id="path4167"
       d="m 200,988.07649 -0.0188,0.35781 -0.0562,0.32969 -0.0937,0.31094 -0.13125,0.30156 -0.16875,0.28125 -0.20625,0.24375 -0.24375,0.20625 -0.28125,0.16875 -0.30156,0.13125 -0.31094,0.0937 -0.32969,0.0562 -0.35781,0.0188 -0.35781,-0.0188 -0.32969,-0.0562 -0.31094,-0.0937 -0.30156,-0.13125 -0.28125,-0.16875 -0.24375,-0.20625 -0.20625,-0.24375 -0.16875,-0.28125 -0.13125,-0.30156 -0.0937,-0.31094 -0.0562,-0.32969 -0.0188,-0.35781 0.0188,-0.35781 0.0562,-0.32969 0.0937,-0.31094 0.13125,-0.30156 0.16875,-0.28125 0.20625,-0.24375 0.24375,-0.20625 0.28125,-0.16875 0.30156,-0.13125 0.31094,-0.0937 0.32969,-0.0562 0.35781,-0.0187 0.35781,0.0187 0.32969,0.0562 0.31094,0.0937 0.30156,0.13125 0.28125,0.16875 0.24375,0.20625 0.20625,0.24375 0.16875,0.28125 0.13125,0.30156 0.0937,0.31094 0.0562,0.32969 z m -0.5,0 -0.0375,-0.41562 -0.1125,-0.35938 -0.1875,-0.32187 -0.2625,-0.30313 -0.31719,-0.2625 -0.34531,-0.1875 -0.36406,-0.1125 -0.37344,-0.0375 -0.37344,0.0375 -0.36406,0.1125 -0.34531,0.1875 -0.31719,0.2625 -0.2625,0.31719 -0.1875,0.34531 -0.1125,0.36406 -0.0375,0.37344 0.0375,0.41562 0.1125,0.35938 0.1875,0.32187 0.2625,0.30313 0.31719,0.2625 0.34531,0.1875 0.36406,0.1125 0.37344,0.0375 0.37344,-0.0375 0.36406,-0.1125 0.34531,-0.1875 0.31719,-0.2625 0.2625,-0.30313 0.1875,-0.32187 0.1125,-0.35938 z m -3.2,-1.4 0.3,0 0.3,0 0.3,0 0.3,0 0.22187,0.0172 0.20313,0.0453 0.16562,0.0641 0.10938,0.0734 0.11562,0.0937 0.0594,0.13125 0.0219,0.16875 0.003,0.20625 -0.0172,0.13438 -0.0453,0.11562 -0.0641,0.11563 -0.0734,0.13437 -0.0937,0.075 -0.13125,0.075 -0.16875,0.075 -0.20625,0.075 0.0734,0.0156 0.0641,0.0344 0.0453,0.0344 0.0172,0.0156 0.0594,0.075 0.0406,0.075 0.0406,0.075 0.0594,0.075 0.0344,0.0547 0.0906,0.15781 0.12812,0.25156 0.14688,0.33594 -0.2,0 -0.2,0 -0.2,0 -0.2,0 -0.19063,-0.3375 -0.13437,-0.2625 -0.0969,-0.1875 -0.0781,-0.1125 -0.075,-0.0734 -0.075,-0.0641 -0.075,-0.0453 -0.075,-0.0172 -0.025,0 -0.025,0 -0.025,0 -0.025,0 0,0.275 0,0.275 0,0.275 0,0.275 -0.175,0 -0.175,0 -0.175,0 -0.175,0 0,-0.7 0,-0.7 0,-0.7 0,-0.7 0.075,0 0.075,0 0.075,0 z m 0.7,1.2 0.075,0 0.075,0 0.075,0 0.075,0 0.13281,-0.002 0.10469,-0.0109 0.0859,-0.0297 0.0766,-0.0578 0.0578,-0.0594 0.0297,-0.0406 0.0109,-0.0406 0.002,-0.0594 -0.002,-0.0734 -0.0109,-0.0641 -0.0297,-0.0453 -0.0578,-0.0172 -0.0766,-0.0578 -0.0859,-0.0297 -0.10469,-0.0109 -0.13281,-0.002 -0.075,0 -0.075,0 -0.075,0 -0.075,0 0,0.15 0,0.15 0,0.15 z"
       class="st0"
       inkscape:connector-curvature="0"
       style="fill:#07074e"
       sodipodi:nodetypes="cccccccccccccccccccccccccccccccccccccccccccccccccccccccccccccccccccccccccccccccccccccccccccccccccccccccccccccccccccccccccccccccccccccccccccccccccccccccccccccccccccccccccccccccc" />
  </g>
  <style
     id="style4137"
     type="text/css">
	.st0{fill:#07074E;}
	.st1{fill:#1E1F5B;}
	.st2{fill:#32336A;}
	.st3{fill:#47477A;}
	.st4{fill:#5D5C8C;}
	.st5{fill:#7675A0;}
	.st6{fill:#9291B5;}
	.st7{fill:#B2B2CD;}
	.st8{fill:#B2D235;}
	.st9{fill:#BBD64B;}
	.st10{fill:#C3DB65;}
	.st11{fill:#CBDF7D;}
	.st12{fill:#D4E493;}
	.st13{fill:#DCE9A8;}
	.st14{fill:#E4EEBF;}
	.st15{fill:#EDF4D5;}
	.st16{fill:#FFFFFF;stroke:#C7C8CA;stroke-miterlimit:10;}
	.st17{fill:#007FBC;}
	.st18{fill:#0389C2;}
	.st19{fill:#4093C8;}
	.st20{fill:#5E9FCF;}
	.st21{fill:#79ABD5;}
	.st22{fill:#92B9DD;}
	.st23{fill:#ACC8E4;}
	.st24{fill:#C7D9EC;}
	.st25{fill:#FFFFFF;}
	.st26{fill:none;stroke:#C7C8CA;stroke-miterlimit:10;}
</style>
</svg>
