  0
SECTION
  2
HEADER
  9
$ACADVER
  1
AC1014
  9
$HANDSEED
  5
FFFF
  9
$MEASUREMENT
 70
     1
  0
ENDSEC
  0
SECTION
  2
TABLES
  0
TABLE
  2
VPORT
  5
8
330
0
100
AcDbSymbolTable
 70
     4
  0
VPORT
  5
2E
330
8
100
AcDbSymbolTableRecord
100
AcDbViewportTableRecord
  2
*ACTIVE
 70
     0
 10
0.0
 20
0.0
 11
1.0
 21
1.0
 12
210.0
 22
148.5
 13
0.0
 23
0.0
 14
10.0
 24
10.0
 15
10.0
 25
10.0
 16
0.0
 26
0.0
 36
1.0
 17
0.0
 27
0.0
 37
0.0
 40
341.0
 41
1.24
 42
50.0
 43
0.0
 44
0.0
 50
0.0
 51
0.0
 71
     0
 72
   100
 73
     1
 74
     3
 75
     0
 76
     0
 77
     0
 78
     0
  0
ENDTAB
  0
TABLE
  2
LTYPE
  5
5
330
0
100
AcDbSymbolTable
 70
     1
  0
LTYPE
  5
14
330
5
100
AcDbSymbolTableRecord
100
AcDbLinetypeTableRecord
  2
BYBLOCK
 70
     0
  3

 72
    65
 73
     0
 40
0.0
  0
LTYPE
  5
15
330
5
100
AcDbSymbolTableRecord
100
AcDbLinetypeTableRecord
  2
BYLAYER
 70
     0
  3

 72
    65
 73
     0
 40
0.0
  0
LTYPE
  5
16
330
5
100
AcDbSymbolTableRecord
100
AcDbLinetypeTableRecord
  2
CONTINUOUS
 70
     0
  3
Solid line
 72
    65
 73
     0
 40
0.0
  0
ENDTAB
  0
TABLE
  2
LAYER
  5
2
100
AcDbSymbolTable
 70
2
  0
LAYER
  5
50
100
AcDbSymbolTableRecord
100
AcDbLayerTableRecord
  2
0
 70
0
  6
CONTINUOUS
  0
LAYER
  5
51
100
AcDbSymbolTableRecord
100
AcDbLayerTableRecord
  2
Capa_1
 70
0
  6
CONTINUOUS
  0
ENDTAB
  0
TABLE
  2
STYLE
  5
3
330
0
100
AcDbSymbolTable
 70
     1
  0
STYLE
  5
11
330
3
100
AcDbSymbolTableRecord
100
AcDbTextStyleTableRecord
  2
STANDARD
 70
     0
 40
0.0
 41
1.0
 50
0.0
 71
     0
 42
2.5
  3
txt
  4

  0
ENDTAB
  0
TABLE
  2
VIEW
  5
6
330
0
100
AcDbSymbolTable
 70
     0
  0
ENDTAB
  0
TABLE
  2
UCS
  5
7
330
0
100
AcDbSymbolTable
 70
     0
  0
ENDTAB
  0
TABLE
  2
APPID
  5
9
330
0
100
AcDbSymbolTable
 70
     2
  0
APPID
  5
12
330
9
100
AcDbSymbolTableRecord
100
AcDbRegAppTableRecord
  2
ACAD
 70
     0
  0
ENDTAB
  0
TABLE
  2
DIMSTYLE
  5
A
330
0
100
AcDbSymbolTable
 70
     1
  0
DIMSTYLE
105
27
330
A
100
AcDbSymbolTableRecord
100
AcDbDimStyleTableRecord
  2
ISO-25
 70
     0
  3

  4

  5

  6

  7

 40
1.0
 41
2.5
 42
0.625
 43
3.75
 44
1.25
 45
0.0
 46
0.0
 47
0.0
 48
0.0
140
2.5
141
2.5
142
0.0
143
0.03937007874016
144
1.0
145
0.0
146
1.0
147
0.625
 71
     0
 72
     0
 73
     0
 74
     0
 75
     0
 76
     0
 77
     1
 78
     8
170
     0
171
     3
172
     1
173
     0
174
     0
175
     0
176
     0
177
     0
178
     0
270
     2
271
     2
272
     2
273
     2
274
     3
340
11
275
     0
280
     0
281
     0
282
     0
283
     0
284
     8
285
     0
286
     0
287
     3
288
     0
  0
ENDTAB
  0
TABLE
  2
BLOCK_RECORD
  5
1
330
0
100
AcDbSymbolTable
 70
     1
  0
BLOCK_RECORD
  5
1F
330
1
100
AcDbSymbolTableRecord
100
AcDbBlockTableRecord
  2
*MODEL_SPACE
  0
BLOCK_RECORD
  5
1B
330
1
100
AcDbSymbolTableRecord
100
AcDbBlockTableRecord
  2
*PAPER_SPACE
  0
ENDTAB
  0
ENDSEC
  0
SECTION
  2
BLOCKS
  0
BLOCK
  5
20
330
1F
100
AcDbEntity
  8
0
100
AcDbBlockBegin
  2
*MODEL_SPACE
 70
     0
 10
0.0
 20
0.0
 30
0.0
  3
*MODEL_SPACE
  1

  0
ENDBLK
  5
21
330
1F
100
AcDbEntity
  8
0
100
AcDbBlockEnd
  0
BLOCK
  5
1C
330
1B
100
AcDbEntity
 67
     1
  8
0
100
AcDbBlockBegin
  2
*PAPER_SPACE
  1

  0
ENDBLK
  5
1D
330
1B
100
AcDbEntity
 67
     1
  8
0
100
AcDbBlockEnd
  0
ENDSEC
  0
SECTION
  2
ENTITIES
  0
LWPOLYLINE
  5
100
100
AcDbEntity
  8
Capa_1
 62
7
100
AcDbPolyline
 90
9
 70
1
 10
19.231554
 20
9.805332
 30
0.0
 10
19.824221
 20
9.805332
 30
0.0
 10
20.416887
 20
9.805332
 30
0.0
 10
20.416887
 20
7.152441
 30
0.0
 10
20.416887
 20
4.499552
 30
0.0
 10
19.824221
 20
4.499552
 30
0.0
 10
19.231554
 20
4.499552
 30
0.0
 10
19.231554
 20
7.152441
 30
0.0
 10
19.231554
 20
9.805332
 30
0.0
  0
LWPOLYLINE
  5
101
100
AcDbEntity
  8
Capa_1
 62
7
100
AcDbPolyline
 90
5
 70
1
 10
1.000000
 20
9.805332
 30
0.0
 10
2.185333
 20
9.805332
 30
0.0
 10
2.185333
 20
4.499552
 30
0.0
 10
1.000000
 20
4.499552
 30
0.0
 10
1.000000
 20
9.805332
 30
0.0
  0
LWPOLYLINE
  5
102
100
AcDbEntity
  8
Capa_1
 62
7
100
AcDbPolyline
 90
9
 70
1
 10
1.000000
 20
11.583332
 30
0.0
 10
1.592667
 20
11.583332
 30
0.0
 10
2.185333
 20
11.583332
 30
0.0
 10
2.185333
 20
10.990666
 30
0.0
 10
2.185333
 20
10.397999
 30
0.0
 10
1.592667
 20
10.397999
 30
0.0
 10
1.000000
 20
10.397999
 30
0.0
 10
1.000000
 20
10.990666
 30
0.0
 10
1.000000
 20
11.583332
 30
0.0
  0
LWPOLYLINE
  5
103
100
AcDbEntity
  8
Capa_1
 62
7
100
AcDbPolyline
 90
9
 70
1
 10
19.231554
 20
11.583332
 30
0.0
 10
19.824221
 20
11.583332
 30
0.0
 10
20.416887
 20
11.583332
 30
0.0
 10
20.416887
 20
10.990666
 30
0.0
 10
20.416887
 20
10.397999
 30
0.0
 10
19.824221
 20
10.397999
 30
0.0
 10
19.231554
 20
10.397999
 30
0.0
 10
19.231554
 20
10.990666
 30
0.0
 10
19.231554
 20
11.583332
 30
0.0
  0
LWPOLYLINE
  5
104
100
AcDbEntity
  8
Capa_1
 62
7
100
AcDbPolyline
 90
23
 70
1
 10
22.166668
 20
9.043332
 30
0.0
 10
23.337890
 20
6.785552
 30
0.0
 10
24.509112
 20
4.527774
 30
0.0
 10
25.101779
 20
4.527774
 30
0.0
 10
25.694446
 20
4.527774
 30
0.0
 10
25.694446
 20
8.055552
 30
0.0
 10
25.694446
 20
11.583332
 30
0.0
 10
25.101779
 20
11.583332
 30
0.0
 10
24.509112
 20
11.583332
 30
0.0
 10
24.509112
 20
9.325552
 30
0.0
 10
24.509112
 20
7.067774
 30
0.0
 10
23.337890
 20
9.325552
 30
0.0
 10
22.166668
 20
11.583332
 30
0.0
 10
22.166668
 20
11.583332
 30
0.0
 10
22.166668
 20
11.583332
 30
0.0
 10
21.574001
 20
11.583332
 30
0.0
 10
20.981334
 20
11.583332
 30
0.0
 10
20.981334
 20
8.055552
 30
0.0
 10
20.981334
 20
4.527774
 30
0.0
 10
21.574001
 20
4.527774
 30
0.0
 10
22.166668
 20
4.527774
 30
0.0
 10
22.166668
 20
6.785552
 30
0.0
 10
22.166668
 20
9.043332
 30
0.0
  0
LWPOLYLINE
  5
105
100
AcDbEntity
  8
Capa_1
 62
7
100
AcDbPolyline
 90
41
 70
1
 10
26.287112
 20
7.462885
 30
0.0
 10
26.287112
 20
6.587996
 30
0.0
 10
26.287112
 20
5.713107
 30
0.0
 10
26.287112
 20
5.120441
 30
0.0
 10
26.287112
 20
4.527774
 30
0.0
 10
26.287112
 20
4.527774
 30
0.0
 10
26.287112
 20
4.527774
 30
0.0
 10
26.879779
 20
4.527774
 30
0.0
 10
27.472446
 20
4.527774
 30
0.0
 10
27.472446
 20
4.527774
 30
0.0
 10
27.472446
 20
4.527774
 30
0.0
 10
29.236334
 20
4.527774
 30
0.0
 10
31.000223
 20
4.527774
 30
0.0
 10
31.000223
 20
5.120441
 30
0.0
 10
31.000223
 20
5.713107
 30
0.0
 10
29.236334
 20
5.713107
 30
0.0
 10
27.472446
 20
5.713107
 30
0.0
 10
27.472446
 20
6.587996
 30
0.0
 10
27.472446
 20
7.462885
 30
0.0
 10
28.643668
 20
7.462885
 30
0.0
 10
29.814890
 20
7.462885
 30
0.0
 10
29.814890
 20
8.041444
 30
0.0
 10
29.814890
 20
8.619999
 30
0.0
 10
28.643668
 20
8.619999
 30
0.0
 10
27.472446
 20
8.619999
 30
0.0
 10
27.472446
 20
9.508999
 30
0.0
 10
27.472446
 20
10.397999
 30
0.0
 10
29.236334
 20
10.397999
 30
0.0
 10
31.000223
 20
10.397999
 30
0.0
 10
31.000223
 20
10.990666
 30
0.0
 10
31.000223
 20
11.583332
 30
0.0
 10
29.236334
 20
11.583332
 30
0.0
 10
27.472446
 20
11.583332
 30
0.0
 10
26.879779
 20
11.583332
 30
0.0
 10
26.287112
 20
11.583332
 30
0.0
 10
26.287112
 20
10.990666
 30
0.0
 10
26.287112
 20
10.397999
 30
0.0
 10
26.287112
 20
9.508999
 30
0.0
 10
26.287112
 20
8.619999
 30
0.0
 10
26.287112
 20
8.041444
 30
0.0
 10
26.287112
 20
7.462885
 30
0.0
  0
LWPOLYLINE
  5
106
100
AcDbEntity
  8
Capa_1
 62
7
100
AcDbPolyline
 90
29
 70
1
 10
5.007556
 20
7.886221
 30
0.0
 10
5.360333
 20
7.349996
 30
0.0
 10
5.713111
 20
6.813774
 30
0.0
 10
6.065889
 20
7.349996
 30
0.0
 10
6.418667
 20
7.886221
 30
0.0
 10
6.940778
 20
8.676444
 30
0.0
 10
7.462889
 20
9.466666
 30
0.0
 10
7.462889
 20
6.997218
 30
0.0
 10
7.462889
 20
4.527774
 30
0.0
 10
8.055556
 20
4.527774
 30
0.0
 10
8.648222
 20
4.527774
 30
0.0
 10
8.648222
 20
8.055555
 30
0.0
 10
8.648222
 20
11.583332
 30
0.0
 10
8.055556
 20
11.583332
 30
0.0
 10
7.462889
 20
11.583332
 30
0.0
 10
6.588000
 20
10.256888
 30
0.0
 10
5.713111
 20
8.930444
 30
0.0
 10
4.824111
 20
10.256888
 30
0.0
 10
3.935111
 20
11.583332
 30
0.0
 10
3.356556
 20
11.583332
 30
0.0
 10
2.778000
 20
11.583332
 30
0.0
 10
2.778000
 20
8.055555
 30
0.0
 10
2.778000
 20
4.527774
 30
0.0
 10
3.356556
 20
4.527774
 30
0.0
 10
3.935111
 20
4.527774
 30
0.0
 10
3.935111
 20
6.997218
 30
0.0
 10
3.935111
 20
9.466666
 30
0.0
 10
4.471333
 20
8.676444
 30
0.0
 10
5.007556
 20
7.886221
 30
0.0
  0
LWPOLYLINE
  5
107
100
AcDbEntity
  8
Capa_1
 62
7
100
AcDbPolyline
 90
25
 70
1
 10
38.253334
 20
15.111110
 30
0.0
 10
36.729334
 20
14.229166
 30
0.0
 10
35.205334
 20
13.347221
 30
0.0
 10
33.681334
 20
12.465277
 30
0.0
 10
32.157334
 20
11.583332
 30
0.0
 10
32.157334
 20
9.819444
 30
0.0
 10
32.157334
 20
8.055552
 30
0.0
 10
32.157334
 20
6.291663
 30
0.0
 10
32.157334
 20
4.527774
 30
0.0
 10
33.681334
 20
3.645830
 30
0.0
 10
35.205334
 20
2.763885
 30
0.0
 10
36.729334
 20
1.881941
 30
0.0
 10
38.253334
 20
0.999996
 30
0.0
 10
39.784390
 20
1.881941
 30
0.0
 10
41.315446
 20
2.763885
 30
0.0
 10
42.846501
 20
3.645830
 30
0.0
 10
44.377557
 20
4.527774
 30
0.0
 10
44.377557
 20
6.291663
 30
0.0
 10
44.377557
 20
8.055552
 30
0.0
 10
44.377557
 20
9.819444
 30
0.0
 10
44.377557
 20
11.583332
 30
0.0
 10
42.846501
 20
12.465277
 30
0.0
 10
41.315446
 20
13.347221
 30
0.0
 10
39.784390
 20
14.229166
 30
0.0
 10
38.253334
 20
15.111110
 30
0.0
  0
LWPOLYLINE
  5
108
100
AcDbEntity
  8
Capa_1
 62
7
100
AcDbPolyline
 90
57
 70
1
 10
34.020001
 20
4.527774
 30
0.0
 10
33.949446
 20
4.527774
 30
0.0
 10
33.878890
 20
4.527774
 30
0.0
 10
33.808334
 20
4.527774
 30
0.0
 10
33.737779
 20
4.527774
 30
0.0
 10
33.794223
 20
4.492496
 30
0.0
 10
33.850668
 20
4.457218
 30
0.0
 10
33.907112
 20
4.421941
 30
0.0
 10
33.963557
 20
4.386663
 30
0.0
 10
35.127723
 20
3.716385
 30
0.0
 10
36.291890
 20
3.046107
 30
0.0
 10
37.456057
 20
2.375830
 30
0.0
 10
38.620223
 20
1.705552
 30
0.0
 10
38.521446
 20
1.649107
 30
0.0
 10
38.422668
 20
1.592663
 30
0.0
 10
38.323890
 20
1.536218
 30
0.0
 10
38.225112
 20
1.479774
 30
0.0
 10
36.814001
 20
2.291163
 30
0.0
 10
35.402890
 20
3.102552
 30
0.0
 10
33.991779
 20
3.913941
 30
0.0
 10
32.580668
 20
4.725330
 30
0.0
 10
32.665334
 20
4.774718
 30
0.0
 10
32.750001
 20
4.824107
 30
0.0
 10
32.834668
 20
4.873496
 30
0.0
 10
32.919334
 20
4.922885
 30
0.0
 10
35.311168
 20
4.922885
 30
0.0
 10
37.703001
 20
4.922885
 30
0.0
 10
40.094834
 20
4.922885
 30
0.0
 10
42.486668
 20
4.922885
 30
0.0
 10
42.557223
 20
4.922885
 30
0.0
 10
42.627779
 20
4.922885
 30
0.0
 10
42.698334
 20
4.922885
 30
0.0
 10
42.768890
 20
4.922885
 30
0.0
 10
42.705390
 20
4.958163
 30
0.0
 10
42.641890
 20
4.993441
 30
0.0
 10
42.578390
 20
5.028718
 30
0.0
 10
42.514890
 20
5.063996
 30
0.0
 10
41.350723
 20
5.734274
 30
0.0
 10
40.186557
 20
6.404552
 30
0.0
 10
39.022390
 20
7.074830
 30
0.0
 10
37.858223
 20
7.745110
 30
0.0
 10
37.957001
 20
7.801555
 30
0.0
 10
38.055779
 20
7.857999
 30
0.0
 10
38.154557
 20
7.914444
 30
0.0
 10
38.253334
 20
7.970888
 30
0.0
 10
39.664446
 20
7.159496
 30
0.0
 10
41.075557
 20
6.348107
 30
0.0
 10
42.486668
 20
5.536718
 30
0.0
 10
43.897779
 20
4.725330
 30
0.0
 10
43.813112
 20
4.675941
 30
0.0
 10
43.728446
 20
4.626552
 30
0.0
 10
43.643779
 20
4.577163
 30
0.0
 10
43.559112
 20
4.527774
 30
0.0
 10
41.174334
 20
4.527774
 30
0.0
 10
38.789557
 20
4.527774
 30
0.0
 10
36.404779
 20
4.527774
 30
0.0
 10
34.020001
 20
4.527774
 30
0.0
  0
LWPOLYLINE
  5
109
100
AcDbEntity
  8
Capa_1
 62
7
100
AcDbPolyline
 90
89
 70
1
 10
32.552446
 20
5.233330
 30
0.0
 10
33.145112
 20
6.263441
 30
0.0
 10
33.737779
 20
7.293552
 30
0.0
 10
34.330446
 20
8.323666
 30
0.0
 10
34.923112
 20
9.353777
 30
0.0
 10
34.930168
 20
9.367888
 30
0.0
 10
34.937223
 20
9.381999
 30
0.0
 10
34.944279
 20
9.396110
 30
0.0
 10
34.951334
 20
9.410221
 30
0.0
 10
34.937223
 20
9.417277
 30
0.0
 10
34.923112
 20
9.424332
 30
0.0
 10
34.909001
 20
9.431388
 30
0.0
 10
34.894890
 20
9.438444
 30
0.0
 10
34.309279
 20
9.777110
 30
0.0
 10
33.723668
 20
10.115777
 30
0.0
 10
33.138057
 20
10.454444
 30
0.0
 10
32.552446
 20
10.793110
 30
0.0
 10
32.552446
 20
10.905999
 30
0.0
 10
32.552446
 20
11.018888
 30
0.0
 10
32.552446
 20
11.131777
 30
0.0
 10
32.552446
 20
11.244666
 30
0.0
 10
33.187446
 20
10.877777
 30
0.0
 10
33.822446
 20
10.510888
 30
0.0
 10
34.457446
 20
10.143999
 30
0.0
 10
35.092446
 20
9.777110
 30
0.0
 10
35.106557
 20
9.770055
 30
0.0
 10
35.120668
 20
9.762999
 30
0.0
 10
35.134779
 20
9.755944
 30
0.0
 10
35.148890
 20
9.748888
 30
0.0
 10
35.155946
 20
9.762999
 30
0.0
 10
35.163001
 20
9.777110
 30
0.0
 10
35.170057
 20
9.791221
 30
0.0
 10
35.177112
 20
9.805332
 30
0.0
 10
35.840334
 20
10.955388
 30
0.0
 10
36.503557
 20
12.105444
 30
0.0
 10
37.166779
 20
13.255499
 30
0.0
 10
37.830001
 20
14.405555
 30
0.0
 10
37.914668
 20
14.454944
 30
0.0
 10
37.999334
 20
14.504332
 30
0.0
 10
38.084001
 20
14.553721
 30
0.0
 10
38.168668
 20
14.603110
 30
0.0
 10
38.168668
 20
14.504332
 30
0.0
 10
38.168668
 20
14.405555
 30
0.0
 10
38.168668
 20
14.306777
 30
0.0
 10
38.168668
 20
14.207999
 30
0.0
 10
37.505446
 20
13.057944
 30
0.0
 10
36.842223
 20
11.907888
 30
0.0
 10
36.179001
 20
10.757832
 30
0.0
 10
35.515779
 20
9.607777
 30
0.0
 10
35.508723
 20
9.593666
 30
0.0
 10
35.501668
 20
9.579555
 30
0.0
 10
35.494612
 20
9.565444
 30
0.0
 10
35.487557
 20
9.551332
 30
0.0
 10
35.501668
 20
9.544277
 30
0.0
 10
35.515779
 20
9.537221
 30
0.0
 10
35.529890
 20
9.530166
 30
0.0
 10
35.544001
 20
9.523110
 30
0.0
 10
36.179001
 20
9.156221
 30
0.0
 10
36.814001
 20
8.789332
 30
0.0
 10
37.449001
 20
8.422444
 30
0.0
 10
38.084001
 20
8.055555
 30
0.0
 10
37.985223
 20
7.999110
 30
0.0
 10
37.886446
 20
7.942666
 30
0.0
 10
37.787668
 20
7.886221
 30
0.0
 10
37.688890
 20
7.829777
 30
0.0
 10
37.103279
 20
8.168444
 30
0.0
 10
36.517668
 20
8.507110
 30
0.0
 10
35.932057
 20
8.845777
 30
0.0
 10
35.346446
 20
9.184444
 30
0.0
 10
35.332334
 20
9.191499
 30
0.0
 10
35.318223
 20
9.198555
 30
0.0
 10
35.304112
 20
9.205610
 30
0.0
 10
35.290001
 20
9.212666
 30
0.0
 10
35.282946
 20
9.198555
 30
0.0
 10
35.275890
 20
9.184444
 30
0.0
 10
35.268834
 20
9.170332
 30
0.0
 10
35.261779
 20
9.156221
 30
0.0
 10
34.669112
 20
8.126110
 30
0.0
 10
34.076446
 20
7.095996
 30
0.0
 10
33.483779
 20
6.065885
 30
0.0
 10
32.891112
 20
5.035774
 30
0.0
 10
32.806446
 20
4.986385
 30
0.0
 10
32.721779
 20
4.936996
 30
0.0
 10
32.637112
 20
4.887607
 30
0.0
 10
32.552446
 20
4.838218
 30
0.0
 10
32.552446
 20
4.936996
 30
0.0
 10
32.552446
 20
5.035774
 30
0.0
 10
32.552446
 20
5.134552
 30
0.0
 10
32.552446
 20
5.233330
 30
0.0
  0
LWPOLYLINE
  5
10a
100
AcDbEntity
  8
Capa_1
 62
7
100
AcDbPolyline
 90
57
 70
1
 10
43.982446
 20
10.821332
 30
0.0
 10
42.691279
 20
10.073444
 30
0.0
 10
41.400112
 20
9.325555
 30
0.0
 10
40.108946
 20
8.577666
 30
0.0
 10
38.817779
 20
7.829777
 30
0.0
 10
38.719001
 20
7.886221
 30
0.0
 10
38.620223
 20
7.942666
 30
0.0
 10
38.521446
 20
7.999110
 30
0.0
 10
38.422668
 20
8.055555
 30
0.0
 10
39.057668
 20
8.422444
 30
0.0
 10
39.692668
 20
8.789332
 30
0.0
 10
40.327668
 20
9.156221
 30
0.0
 10
40.962668
 20
9.523110
 30
0.0
 10
40.976779
 20
9.530166
 30
0.0
 10
40.990890
 20
9.537221
 30
0.0
 10
41.005001
 20
9.544277
 30
0.0
 10
41.019112
 20
9.551332
 30
0.0
 10
41.012057
 20
9.565444
 30
0.0
 10
41.005001
 20
9.579555
 30
0.0
 10
40.997946
 20
9.593666
 30
0.0
 10
40.990890
 20
9.607777
 30
0.0
 10
40.327668
 20
10.757832
 30
0.0
 10
39.664446
 20
11.907888
 30
0.0
 10
39.001223
 20
13.057944
 30
0.0
 10
38.338001
 20
14.207999
 30
0.0
 10
38.338001
 20
14.306777
 30
0.0
 10
38.338001
 20
14.405555
 30
0.0
 10
38.338001
 20
14.504332
 30
0.0
 10
38.338001
 20
14.603110
 30
0.0
 10
38.422668
 20
14.553721
 30
0.0
 10
38.507334
 20
14.504332
 30
0.0
 10
38.592001
 20
14.454944
 30
0.0
 10
38.676668
 20
14.405555
 30
0.0
 10
39.339890
 20
13.255499
 30
0.0
 10
40.003112
 20
12.105444
 30
0.0
 10
40.666334
 20
10.955388
 30
0.0
 10
41.329557
 20
9.805332
 30
0.0
 10
41.336612
 20
9.791221
 30
0.0
 10
41.343668
 20
9.777110
 30
0.0
 10
41.350723
 20
9.762999
 30
0.0
 10
41.357779
 20
9.748888
 30
0.0
 10
41.371890
 20
9.755944
 30
0.0
 10
41.386001
 20
9.762999
 30
0.0
 10
41.400112
 20
9.770055
 30
0.0
 10
41.414223
 20
9.777110
 30
0.0
 10
42.049223
 20
10.143999
 30
0.0
 10
42.684223
 20
10.510888
 30
0.0
 10
43.319223
 20
10.877777
 30
0.0
 10
43.954223
 20
11.244666
 30
0.0
 10
43.954223
 20
11.138832
 30
0.0
 10
43.954223
 20
11.032999
 30
0.0
 10
43.954223
 20
10.927166
 30
0.0
 10
43.954223
 20
10.821332
 30
0.0
 10
43.961279
 20
10.821332
 30
0.0
 10
43.968334
 20
10.821332
 30
0.0
 10
43.975390
 20
10.821332
 30
0.0
 10
43.982446
 20
10.821332
 30
0.0
  0
LWPOLYLINE
  5
10b
100
AcDbEntity
  8
Capa_1
 62
7
100
AcDbPolyline
 90
23
 70
1
 10
13.361333
 20
6.870218
 30
0.0
 10
13.361333
 20
6.870218
 30
0.0
 10
13.361333
 20
6.870218
 30
0.0
 10
12.768667
 20
9.226774
 30
0.0
 10
12.176000
 20
11.583332
 30
0.0
 10
11.583333
 20
11.583332
 30
0.0
 10
10.990667
 20
11.583332
 30
0.0
 10
10.115778
 20
8.055552
 30
0.0
 10
9.240889
 20
4.527774
 30
0.0
 10
9.833556
 20
4.527774
 30
0.0
 10
10.426222
 20
4.527774
 30
0.0
 10
10.567333
 20
5.120441
 30
0.0
 10
10.708444
 20
5.713107
 30
0.0
 10
11.597444
 20
5.713107
 30
0.0
 10
12.486444
 20
5.713107
 30
0.0
 10
12.627556
 20
5.120441
 30
0.0
 10
12.768667
 20
4.527774
 30
0.0
 10
13.361333
 20
4.527774
 30
0.0
 10
13.954000
 20
4.527774
 30
0.0
 10
13.657667
 20
5.698996
 30
0.0
 10
13.361333
 20
6.870218
 30
0.0
 10
13.361333
 20
6.870218
 30
0.0
 10
13.361333
 20
6.870218
 30
0.0
  0
LWPOLYLINE
  5
10c
100
AcDbEntity
  8
Capa_1
 62
7
100
AcDbPolyline
 90
7
 70
1
 10
10.990667
 20
6.870218
 30
0.0
 10
11.287000
 20
8.041444
 30
0.0
 10
11.583333
 20
9.212666
 30
0.0
 10
11.879667
 20
8.041444
 30
0.0
 10
12.176000
 20
6.870218
 30
0.0
 10
11.583333
 20
6.870218
 30
0.0
 10
10.990667
 20
6.870218
 30
0.0
  0
LWPOLYLINE
  5
10d
100
AcDbEntity
  8
Capa_1
 62
7
100
AcDbPolyline
 90
177
 70
1
 10
17.425333
 20
8.930444
 30
0.0
 10
17.295798
 20
8.999292
 30
0.0
 10
17.161632
 20
9.057884
 30
0.0
 10
17.023497
 20
9.106556
 30
0.0
 10
16.882056
 20
9.145638
 30
0.0
 10
16.737968
 20
9.175458
 30
0.0
 10
16.591896
 20
9.196342
 30
0.0
 10
16.444501
 20
9.208619
 30
0.0
 10
16.296444
 20
9.212654
 30
0.0
 10
16.148388
 20
9.207462
 30
0.0
 10
16.000993
 20
9.192363
 30
0.0
 10
15.854921
 20
9.168007
 30
0.0
 10
15.710833
 20
9.135043
 30
0.0
 10
15.569391
 20
9.094144
 30
0.0
 10
15.431257
 20
9.045966
 30
0.0
 10
15.297091
 20
8.991175
 30
0.0
 10
15.167556
 20
8.930432
 30
0.0
 10
15.166342
 20
8.930376
 30
0.0
 10
15.163144
 20
8.930094
 30
0.0
 10
15.158623
 20
8.928965
 30
0.0
 10
15.153442
 20
8.926989
 30
0.0
 10
15.148260
 20
8.923631
 30
0.0
 10
15.143739
 20
8.918607
 30
0.0
 10
15.140541
 20
8.911608
 30
0.0
 10
15.139328
 20
8.902295
 30
0.0
 10
15.139328
 20
8.941100
 30
0.0
 10
15.139328
 20
8.979906
 30
0.0
 10
15.139328
 20
9.018711
 30
0.0
 10
15.139328
 20
9.057517
 30
0.0
 10
15.139328
 20
9.096322
 30
0.0
 10
15.139328
 20
9.135128
 30
0.0
 10
15.139328
 20
9.173934
 30
0.0
 10
15.139328
 20
9.212739
 30
0.0
 10
15.163635
 20
9.450037
 30
0.0
 10
15.233254
 20
9.671790
 30
0.0
 10
15.343221
 20
9.873040
 30
0.0
 10
15.488577
 20
10.048822
 30
0.0
 10
15.664359
 20
10.194178
 30
0.0
 10
15.865608
 20
10.304146
 30
0.0
 10
16.087362
 20
10.373765
 30
0.0
 10
16.324660
 20
10.398064
 30
0.0
 10
16.448959
 20
10.391601
 30
0.0
 10
16.567636
 20
10.372918
 30
0.0
 10
16.680359
 20
10.342985
 30
0.0
 10
16.786799
 20
10.302803
 30
0.0
 10
16.886624
 20
10.253357
 30
0.0
 10
16.979504
 20
10.195646
 30
0.0
 10
17.065108
 20
10.130658
 30
0.0
 10
17.143105
 20
10.059386
 30
0.0
 10
17.143105
 20
10.059386
 30
0.0
 10
17.143105
 20
10.059386
 30
0.0
 10
17.143105
 20
10.059386
 30
0.0
 10
17.143105
 20
10.059386
 30
0.0
 10
17.143105
 20
10.059386
 30
0.0
 10
17.143105
 20
10.059386
 30
0.0
 10
17.143105
 20
10.059386
 30
0.0
 10
17.143105
 20
10.059386
 30
0.0
 10
17.143105
 20
10.059386
 30
0.0
 10
17.143105
 20
10.059386
 30
0.0
 10
17.143105
 20
10.059386
 30
0.0
 10
17.143105
 20
10.059386
 30
0.0
 10
17.143105
 20
10.059386
 30
0.0
 10
17.143105
 20
10.059386
 30
0.0
 10
17.143105
 20
10.059386
 30
0.0
 10
17.143105
 20
10.059386
 30
0.0
 10
17.233835
 20
9.985303
 30
0.0
 10
17.334487
 20
9.932386
 30
0.0
 10
17.441753
 20
9.900636
 30
0.0
 10
17.552327
 20
9.890053
 30
0.0
 10
17.662901
 20
9.900636
 30
0.0
 10
17.770168
 20
9.932386
 30
0.0
 10
17.870820
 20
9.985303
 30
0.0
 10
17.961550
 20
10.059386
 30
0.0
 10
18.035634
 20
10.150115
 30
0.0
 10
18.088550
 20
10.250767
 30
0.0
 10
18.120300
 20
10.358034
 30
0.0
 10
18.130884
 20
10.468608
 30
0.0
 10
18.120300
 20
10.579183
 30
0.0
 10
18.088550
 20
10.686447
 30
0.0
 10
18.035634
 20
10.787102
 30
0.0
 10
17.961550
 20
10.877830
 30
0.0
 10
17.961550
 20
10.877830
 30
0.0
 10
17.961550
 20
10.877830
 30
0.0
 10
17.961550
 20
10.877830
 30
0.0
 10
17.961550
 20
10.877830
 30
0.0
 10
17.961550
 20
10.877830
 30
0.0
 10
17.961550
 20
10.877830
 30
0.0
 10
17.961550
 20
10.877830
 30
0.0
 10
17.961550
 20
10.877830
 30
0.0
 10
17.795083
 20
11.028478
 30
0.0
 10
17.614063
 20
11.162257
 30
0.0
 10
17.419815
 20
11.278177
 30
0.0
 10
17.213660
 20
11.375247
 30
0.0
 10
16.996922
 20
11.452472
 30
0.0
 10
16.770924
 20
11.508862
 30
0.0
 10
16.536988
 20
11.543423
 30
0.0
 10
16.296438
 20
11.555164
 30
0.0
 10
15.823054
 20
11.507759
 30
0.0
 10
15.382743
 20
11.371719
 30
0.0
 10
14.984766
 20
11.156305
 30
0.0
 10
14.638382
 20
10.870775
 30
0.0
 10
14.352853
 20
10.524392
 30
0.0
 10
14.137438
 20
10.126414
 30
0.0
 10
14.001398
 20
9.686102
 30
0.0
 10
13.953993
 20
9.212719
 30
0.0
 10
13.953993
 20
8.919914
 30
0.0
 10
13.953993
 20
8.627108
 30
0.0
 10
13.953993
 20
8.334303
 30
0.0
 10
13.953993
 20
8.041497
 30
0.0
 10
13.953993
 20
7.748689
 30
0.0
 10
13.953993
 20
7.455883
 30
0.0
 10
13.953993
 20
7.163078
 30
0.0
 10
13.953993
 20
6.870272
 30
0.0
 10
13.959229
 20
6.712849
 30
0.0
 10
13.974717
 20
6.558050
 30
0.0
 10
14.000128
 20
6.405932
 30
0.0
 10
14.035130
 20
6.256439
 30
0.0
 10
14.079393
 20
6.109599
 30
0.0
 10
14.132585
 20
5.965383
 30
0.0
 10
14.194377
 20
5.823849
 30
0.0
 10
14.264436
 20
5.684939
 30
0.0
 10
14.343646
 20
5.551335
 30
0.0
 10
14.432446
 20
5.425633
 30
0.0
 10
14.529846
 20
5.307918
 30
0.0
 10
14.634853
 20
5.198105
 30
0.0
 10
14.746474
 20
5.096251
 30
0.0
 10
14.863717
 20
5.002300
 30
0.0
 10
14.985591
 20
4.916335
 30
0.0
 10
15.111103
 20
4.838272
 30
0.0
 10
15.240748
 20
4.768225
 30
0.0
 10
15.375686
 20
4.706418
 30
0.0
 10
15.515915
 20
4.653219
 30
0.0
 10
15.661436
 20
4.608967
 30
0.0
 10
15.812248
 20
4.573971
 30
0.0
 10
15.968353
 20
4.548571
 30
0.0
 10
16.129748
 20
4.533049
 30
0.0
 10
16.296436
 20
4.527687
 30
0.0
 10
16.453863
 20
4.533049
 30
0.0
 10
16.608644
 20
4.548571
 30
0.0
 10
16.760780
 20
4.573971
 30
0.0
 10
16.910269
 20
4.608967
 30
0.0
 10
17.057113
 20
4.653219
 30
0.0
 10
17.201311
 20
4.706418
 30
0.0
 10
17.342863
 20
4.768225
 30
0.0
 10
17.481769
 20
4.838272
 30
0.0
 10
17.615384
 20
4.917492
 30
0.0
 10
17.741061
 20
5.006279
 30
0.0
 10
17.858801
 20
5.103674
 30
0.0
 10
17.968604
 20
5.208689
 30
0.0
 10
18.070469
 20
5.320308
 30
0.0
 10
18.164395
 20
5.437543
 30
0.0
 10
18.250386
 20
5.559435
 30
0.0
 10
18.328437
 20
5.684939
 30
0.0
 10
18.398496
 20
5.815749
 30
0.0
 10
18.460288
 20
5.953501
 30
0.0
 10
18.513479
 20
6.097181
 30
0.0
 10
18.557743
 20
6.245855
 30
0.0
 10
18.592744
 20
6.398481
 30
0.0
 10
18.618144
 20
6.554099
 30
0.0
 10
18.633638
 20
6.711691
 30
0.0
 10
18.638887
 20
6.870272
 30
0.0
 10
18.633638
 20
7.027696
 30
0.0
 10
18.618144
 20
7.182495
 30
0.0
 10
18.592744
 20
7.334612
 30
0.0
 10
18.557743
 20
7.484105
 30
0.0
 10
18.513479
 20
7.630951
 30
0.0
 10
18.460288
 20
7.775150
 30
0.0
 10
18.398496
 20
7.916701
 30
0.0
 10
18.328437
 20
8.055608
 30
0.0
 10
18.239856
 20
8.189277
 30
0.0
 10
18.143669
 20
8.315340
 30
0.0
 10
18.040206
 20
8.434128
 30
0.0
 10
17.929798
 20
8.545969
 30
0.0
 10
17.812774
 20
8.651196
 30
0.0
 10
17.689467
 20
8.750140
 30
0.0
 10
17.560207
 20
8.843130
 30
0.0
 10
17.425333
 20
8.930444
 30
0.0
  0
LWPOLYLINE
  5
10e
100
AcDbEntity
  8
Capa_1
 62
7
100
AcDbPolyline
 90
49
 70
1
 10
16.296444
 20
5.684885
 30
0.0
 10
16.059146
 20
5.709156
 30
0.0
 10
15.837392
 20
5.778780
 30
0.0
 10
15.636144
 20
5.888762
 30
0.0
 10
15.460361
 20
6.034107
 30
0.0
 10
15.315006
 20
6.209903
 30
0.0
 10
15.205038
 20
6.411128
 30
0.0
 10
15.135420
 20
6.632898
 30
0.0
 10
15.111112
 20
6.870190
 30
0.0
 10
15.111167
 20
6.911254
 30
0.0
 10
15.111562
 20
6.950003
 30
0.0
 10
15.112606
 20
6.986776
 30
0.0
 10
15.114638
 20
7.021885
 30
0.0
 10
15.118000
 20
7.055667
 30
0.0
 10
15.123015
 20
7.088461
 30
0.0
 10
15.130017
 20
7.120606
 30
0.0
 10
15.139333
 20
7.152412
 30
0.0
 10
15.206361
 20
7.335857
 30
0.0
 10
15.299847
 20
7.503440
 30
0.0
 10
15.417145
 20
7.652476
 30
0.0
 10
15.555611
 20
7.780360
 30
0.0
 10
15.712597
 20
7.884429
 30
0.0
 10
15.885458
 20
7.962040
 30
0.0
 10
16.071548
 20
8.010546
 30
0.0
 10
16.268222
 20
8.027310
 30
0.0
 10
16.466053
 20
8.010546
 30
0.0
 10
16.654954
 20
7.962040
 30
0.0
 10
16.831288
 20
7.884429
 30
0.0
 10
16.991416
 20
7.780360
 30
0.0
 10
17.131700
 20
7.652476
 30
0.0
 10
17.248503
 20
7.503440
 30
0.0
 10
17.338186
 20
7.335857
 30
0.0
 10
17.397111
 20
7.152412
 30
0.0
 10
17.406427
 20
7.119449
 30
0.0
 10
17.413426
 20
7.084510
 30
0.0
 10
17.418441
 20
7.048244
 30
0.0
 10
17.421802
 20
7.011301
 30
0.0
 10
17.423834
 20
6.974358
 30
0.0
 10
17.424878
 20
6.938093
 30
0.0
 10
17.425273
 20
6.903154
 30
0.0
 10
17.425329
 20
6.870190
 30
0.0
 10
17.411548
 20
6.632898
 30
0.0
 10
17.352127
 20
6.411128
 30
0.0
 10
17.251695
 20
6.209903
 30
0.0
 10
17.114884
 20
6.034107
 30
0.0
 10
16.946322
 20
5.888762
 30
0.0
 10
16.750640
 20
5.778780
 30
0.0
 10
16.532469
 20
5.709156
 30
0.0
 10
16.296444
 20
5.684885
 30
0.0
  0
LWPOLYLINE
  5
10f
100
AcDbEntity
  8
Capa_1
 62
7
100
AcDbPolyline
 90
49
 70
1
 10
46.155557
 20
10.877777
 30
0.0
 10
46.150251
 20
10.776795
 30
0.0
 10
46.134390
 20
10.683749
 30
0.0
 10
46.107946
 20
10.595995
 30
0.0
 10
46.070904
 20
10.510888
 30
0.0
 10
46.023279
 20
10.431513
 30
0.0
 10
45.965071
 20
10.362721
 30
0.0
 10
45.896279
 20
10.304513
 30
0.0
 10
45.816904
 20
10.256888
 30
0.0
 10
45.731797
 20
10.219846
 30
0.0
 10
45.644043
 20
10.193402
 30
0.0
 10
45.550997
 20
10.177541
 30
0.0
 10
45.450015
 20
10.172235
 30
0.0
 10
45.349033
 20
10.177541
 30
0.0
 10
45.255987
 20
10.193402
 30
0.0
 10
45.168233
 20
10.219846
 30
0.0
 10
45.083126
 20
10.256888
 30
0.0
 10
45.003751
 20
10.304513
 30
0.0
 10
44.934960
 20
10.362721
 30
0.0
 10
44.876751
 20
10.431513
 30
0.0
 10
44.829126
 20
10.510888
 30
0.0
 10
44.792085
 20
10.595995
 30
0.0
 10
44.765640
 20
10.683749
 30
0.0
 10
44.749780
 20
10.776795
 30
0.0
 10
44.744474
 20
10.877777
 30
0.0
 10
44.749780
 20
10.978759
 30
0.0
 10
44.765640
 20
11.071805
 30
0.0
 10
44.792085
 20
11.159559
 30
0.0
 10
44.829126
 20
11.244666
 30
0.0
 10
44.876751
 20
11.324041
 30
0.0
 10
44.934960
 20
11.392832
 30
0.0
 10
45.003751
 20
11.451041
 30
0.0
 10
45.083126
 20
11.498666
 30
0.0
 10
45.168233
 20
11.535707
 30
0.0
 10
45.255987
 20
11.562152
 30
0.0
 10
45.349033
 20
11.578013
 30
0.0
 10
45.450015
 20
11.583290
 30
0.0
 10
45.550997
 20
11.578013
 30
0.0
 10
45.644043
 20
11.562152
 30
0.0
 10
45.731797
 20
11.535707
 30
0.0
 10
45.816904
 20
11.498666
 30
0.0
 10
45.896279
 20
11.451041
 30
0.0
 10
45.965071
 20
11.392832
 30
0.0
 10
46.023279
 20
11.324041
 30
0.0
 10
46.070904
 20
11.244666
 30
0.0
 10
46.107946
 20
11.159559
 30
0.0
 10
46.134390
 20
11.071805
 30
0.0
 10
46.150251
 20
10.978759
 30
0.0
 10
46.155557
 20
10.877777
 30
0.0
  0
LWPOLYLINE
  5
110
100
AcDbEntity
  8
Capa_1
 62
7
100
AcDbPolyline
 90
33
 70
1
 10
46.014446
 20
10.877777
 30
0.0
 10
46.003862
 20
10.995074
 30
0.0
 10
45.972112
 20
11.096499
 30
0.0
 10
45.919196
 20
11.187338
 30
0.0
 10
45.845112
 20
11.272888
 30
0.0
 10
45.755594
 20
11.346971
 30
0.0
 10
45.658140
 20
11.399888
 30
0.0
 10
45.555394
 20
11.431638
 30
0.0
 10
45.450001
 20
11.442221
 30
0.0
 10
45.344608
 20
11.431638
 30
0.0
 10
45.241862
 20
11.399888
 30
0.0
 10
45.144408
 20
11.346971
 30
0.0
 10
45.054890
 20
11.272888
 30
0.0
 10
44.980807
 20
11.183370
 30
0.0
 10
44.927890
 20
11.085916
 30
0.0
 10
44.896140
 20
10.983170
 30
0.0
 10
44.885557
 20
10.877777
 30
0.0
 10
44.896140
 20
10.760480
 30
0.0
 10
44.927890
 20
10.659055
 30
0.0
 10
44.980807
 20
10.568216
 30
0.0
 10
45.054890
 20
10.482666
 30
0.0
 10
45.144408
 20
10.408582
 30
0.0
 10
45.241862
 20
10.355666
 30
0.0
 10
45.344608
 20
10.323916
 30
0.0
 10
45.450001
 20
10.313332
 30
0.0
 10
45.555394
 20
10.323916
 30
0.0
 10
45.658140
 20
10.355666
 30
0.0
 10
45.755594
 20
10.408582
 30
0.0
 10
45.845112
 20
10.482666
 30
0.0
 10
45.919196
 20
10.568216
 30
0.0
 10
45.972112
 20
10.659055
 30
0.0
 10
46.003862
 20
10.760480
 30
0.0
 10
46.014446
 20
10.877777
 30
0.0
  0
LWPOLYLINE
  5
111
100
AcDbEntity
  8
Capa_1
 62
7
100
AcDbPolyline
 90
65
 70
1
 10
45.111334
 20
11.272888
 30
0.0
 10
45.196001
 20
11.272888
 30
0.0
 10
45.280668
 20
11.272888
 30
0.0
 10
45.365334
 20
11.272888
 30
0.0
 10
45.450001
 20
11.272888
 30
0.0
 10
45.512618
 20
11.268034
 30
0.0
 10
45.569946
 20
11.255249
 30
0.0
 10
45.616687
 20
11.237159
 30
0.0
 10
45.647557
 20
11.216444
 30
0.0
 10
45.680187
 20
11.189999
 30
0.0
 10
45.696951
 20
11.152958
 30
0.0
 10
45.703132
 20
11.105333
 30
0.0
 10
45.703979
 20
11.047124
 30
0.0
 10
45.699124
 20
11.009199
 30
0.0
 10
45.686340
 20
10.976569
 30
0.0
 10
45.668249
 20
10.943935
 30
0.0
 10
45.647534
 20
10.906013
 30
0.0
 10
45.621090
 20
10.884847
 30
0.0
 10
45.584048
 20
10.863680
 30
0.0
 10
45.536423
 20
10.842513
 30
0.0
 10
45.478215
 20
10.821347
 30
0.0
 10
45.498930
 20
10.816944
 30
0.0
 10
45.517020
 20
10.807235
 30
0.0
 10
45.529805
 20
10.797527
 30
0.0
 10
45.534659
 20
10.793124
 30
0.0
 10
45.551423
 20
10.771958
 30
0.0
 10
45.562882
 20
10.750791
 30
0.0
 10
45.574340
 20
10.729624
 30
0.0
 10
45.591104
 20
10.708458
 30
0.0
 10
45.600812
 20
10.693020
 30
0.0
 10
45.626382
 20
10.648483
 30
0.0
 10
45.662540
 20
10.577487
 30
0.0
 10
45.703993
 20
10.482677
 30
0.0
 10
45.647548
 20
10.482677
 30
0.0
 10
45.591104
 20
10.482677
 30
0.0
 10
45.534659
 20
10.482677
 30
0.0
 10
45.478215
 20
10.482677
 30
0.0
 10
45.424415
 20
10.577927
 30
0.0
 10
45.386493
 20
10.652010
 30
0.0
 10
45.359145
 20
10.704927
 30
0.0
 10
45.337104
 20
10.736677
 30
0.0
 10
45.315937
 20
10.757392
 30
0.0
 10
45.294770
 20
10.775483
 30
0.0
 10
45.273604
 20
10.788267
 30
0.0
 10
45.252437
 20
10.793121
 30
0.0
 10
45.245382
 20
10.793121
 30
0.0
 10
45.238326
 20
10.793121
 30
0.0
 10
45.231270
 20
10.793121
 30
0.0
 10
45.224215
 20
10.793121
 30
0.0
 10
45.224215
 20
10.715510
 30
0.0
 10
45.224215
 20
10.637899
 30
0.0
 10
45.224215
 20
10.560288
 30
0.0
 10
45.224215
 20
10.482677
 30
0.0
 10
45.174826
 20
10.482677
 30
0.0
 10
45.125437
 20
10.482677
 30
0.0
 10
45.076048
 20
10.482677
 30
0.0
 10
45.026659
 20
10.482677
 30
0.0
 10
45.026659
 20
10.680233
 30
0.0
 10
45.026659
 20
10.877788
 30
0.0
 10
45.026659
 20
11.075344
 30
0.0
 10
45.026659
 20
11.272899
 30
0.0
 10
45.047826
 20
11.272899
 30
0.0
 10
45.068993
 20
11.272899
 30
0.0
 10
45.090159
 20
11.272899
 30
0.0
 10
45.111334
 20
11.272888
 30
0.0
  0
LWPOLYLINE
  5
112
100
AcDbEntity
  8
Capa_1
 62
7
100
AcDbPolyline
 90
29
 70
1
 10
45.308890
 20
10.934221
 30
0.0
 10
45.330057
 20
10.934221
 30
0.0
 10
45.351223
 20
10.934221
 30
0.0
 10
45.372390
 20
10.934221
 30
0.0
 10
45.393557
 20
10.934221
 30
0.0
 10
45.431039
 20
10.934786
 30
0.0
 10
45.460584
 20
10.937862
 30
0.0
 10
45.484827
 20
10.946244
 30
0.0
 10
45.506446
 20
10.962556
 30
0.0
 10
45.522758
 20
10.979320
 30
0.0
 10
45.531140
 20
10.990779
 30
0.0
 10
45.534216
 20
11.002237
 30
0.0
 10
45.534781
 20
11.019001
 30
0.0
 10
45.534216
 20
11.039716
 30
0.0
 10
45.531140
 20
11.057806
 30
0.0
 10
45.522758
 20
11.070591
 30
0.0
 10
45.506446
 20
11.075445
 30
0.0
 10
45.484827
 20
11.091758
 30
0.0
 10
45.460584
 20
11.100140
 30
0.0
 10
45.431039
 20
11.103216
 30
0.0
 10
45.393557
 20
11.103780
 30
0.0
 10
45.372390
 20
11.103780
 30
0.0
 10
45.351223
 20
11.103780
 30
0.0
 10
45.330057
 20
11.103780
 30
0.0
 10
45.308890
 20
11.103780
 30
0.0
 10
45.308890
 20
11.061447
 30
0.0
 10
45.308890
 20
11.019114
 30
0.0
 10
45.308890
 20
10.976780
 30
0.0
 10
45.308890
 20
10.934221
 30
0.0
  0
ENDSEC
  0
SECTION
  2
OBJECTS
  0
DICTIONARY
  5
C
330
0
100
AcDbDictionary
  3
ACAD_GROUP
350
D
  3
ACAD_MLINESTYLE
350
17
  0
DICTIONARY
  5
D
330
C
100
AcDbDictionary
  0
DICTIONARY
  5
1A
330
C
100
AcDbDictionary
  0
DICTIONARY
  5
17
330
C
100
AcDbDictionary
  3
STANDARD
350
18
  0
DICTIONARY
  5
19
330
C
100
AcDbDictionary
  0
ENDSEC
  0
EOF
