  0
SECTION
  2
HEADER
  9
$ACADVER
  1
AC1014
  9
$HANDSEED
  5
FFFF
  9
$MEASUREMENT
 70
     1
  0
ENDSEC
  0
SECTION
  2
TABLES
  0
TABLE
  2
VPORT
  5
8
330
0
100
AcDbSymbolTable
 70
     4
  0
VPORT
  5
2E
330
8
100
AcDbSymbolTableRecord
100
AcDbViewportTableRecord
  2
*ACTIVE
 70
     0
 10
0.0
 20
0.0
 11
1.0
 21
1.0
 12
210.0
 22
148.5
 13
0.0
 23
0.0
 14
10.0
 24
10.0
 15
10.0
 25
10.0
 16
0.0
 26
0.0
 36
1.0
 17
0.0
 27
0.0
 37
0.0
 40
341.0
 41
1.24
 42
50.0
 43
0.0
 44
0.0
 50
0.0
 51
0.0
 71
     0
 72
   100
 73
     1
 74
     3
 75
     0
 76
     0
 77
     0
 78
     0
  0
ENDTAB
  0
TABLE
  2
LTYPE
  5
5
330
0
100
AcDbSymbolTable
 70
     1
  0
LTYPE
  5
14
330
5
100
AcDbSymbolTableRecord
100
AcDbLinetypeTableRecord
  2
BYBLOCK
 70
     0
  3

 72
    65
 73
     0
 40
0.0
  0
LTYPE
  5
15
330
5
100
AcDbSymbolTableRecord
100
AcDbLinetypeTableRecord
  2
BYLAYER
 70
     0
  3

 72
    65
 73
     0
 40
0.0
  0
LTYPE
  5
16
330
5
100
AcDbSymbolTableRecord
100
AcDbLinetypeTableRecord
  2
CONTINUOUS
 70
     0
  3
Solid line
 72
    65
 73
     0
 40
0.0
  0
ENDTAB
  0
TABLE
  2
LAYER
  5
2
100
AcDbSymbolTable
 70
2
  0
LAYER
  5
50
100
AcDbSymbolTableRecord
100
AcDbLayerTableRecord
  2
0
 70
0
  6
CONTINUOUS
  0
LAYER
  5
51
100
AcDbSymbolTableRecord
100
AcDbLayerTableRecord
  2
Capa_1
 70
0
  6
CONTINUOUS
  0
ENDTAB
  0
TABLE
  2
STYLE
  5
3
330
0
100
AcDbSymbolTable
 70
     1
  0
STYLE
  5
11
330
3
100
AcDbSymbolTableRecord
100
AcDbTextStyleTableRecord
  2
STANDARD
 70
     0
 40
0.0
 41
1.0
 50
0.0
 71
     0
 42
2.5
  3
txt
  4

  0
ENDTAB
  0
TABLE
  2
VIEW
  5
6
330
0
100
AcDbSymbolTable
 70
     0
  0
ENDTAB
  0
TABLE
  2
UCS
  5
7
330
0
100
AcDbSymbolTable
 70
     0
  0
ENDTAB
  0
TABLE
  2
APPID
  5
9
330
0
100
AcDbSymbolTable
 70
     2
  0
APPID
  5
12
330
9
100
AcDbSymbolTableRecord
100
AcDbRegAppTableRecord
  2
ACAD
 70
     0
  0
ENDTAB
  0
TABLE
  2
DIMSTYLE
  5
A
330
0
100
AcDbSymbolTable
 70
     1
  0
DIMSTYLE
105
27
330
A
100
AcDbSymbolTableRecord
100
AcDbDimStyleTableRecord
  2
ISO-25
 70
     0
  3

  4

  5

  6

  7

 40
1.0
 41
2.5
 42
0.625
 43
3.75
 44
1.25
 45
0.0
 46
0.0
 47
0.0
 48
0.0
140
2.5
141
2.5
142
0.0
143
0.03937007874016
144
1.0
145
0.0
146
1.0
147
0.625
 71
     0
 72
     0
 73
     0
 74
     0
 75
     0
 76
     0
 77
     1
 78
     8
170
     0
171
     3
172
     1
173
     0
174
     0
175
     0
176
     0
177
     0
178
     0
270
     2
271
     2
272
     2
273
     2
274
     3
340
11
275
     0
280
     0
281
     0
282
     0
283
     0
284
     8
285
     0
286
     0
287
     3
288
     0
  0
ENDTAB
  0
TABLE
  2
BLOCK_RECORD
  5
1
330
0
100
AcDbSymbolTable
 70
     1
  0
BLOCK_RECORD
  5
1F
330
1
100
AcDbSymbolTableRecord
100
AcDbBlockTableRecord
  2
*MODEL_SPACE
  0
BLOCK_RECORD
  5
1B
330
1
100
AcDbSymbolTableRecord
100
AcDbBlockTableRecord
  2
*PAPER_SPACE
  0
ENDTAB
  0
ENDSEC
  0
SECTION
  2
BLOCKS
  0
BLOCK
  5
20
330
1F
100
AcDbEntity
  8
0
100
AcDbBlockBegin
  2
*MODEL_SPACE
 70
     0
 10
0.0
 20
0.0
 30
0.0
  3
*MODEL_SPACE
  1

  0
ENDBLK
  5
21
330
1F
100
AcDbEntity
  8
0
100
AcDbBlockEnd
  0
BLOCK
  5
1C
330
1B
100
AcDbEntity
 67
     1
  8
0
100
AcDbBlockBegin
  2
*PAPER_SPACE
  1

  0
ENDBLK
  5
1D
330
1B
100
AcDbEntity
 67
     1
  8
0
100
AcDbBlockEnd
  0
ENDSEC
  0
SECTION
  2
ENTITIES
  0
LWPOLYLINE
  5
100
100
AcDbEntity
  8
Capa_1
 62
7
100
AcDbPolyline
 90
37
 70
1
 10
27.782890
 20
23.690667
 30
0.0
 10
35.600446
 20
23.690667
 30
0.0
 10
36.764336
 20
23.597457
 30
0.0
 10
37.778408
 20
23.331274
 30
0.0
 10
38.641003
 20
22.912295
 30
0.0
 10
39.350473
 20
22.360695
 30
0.0
 10
39.905161
 20
21.696645
 30
0.0
 10
40.303414
 20
20.940324
 30
0.0
 10
40.543579
 20
20.111903
 30
0.0
 10
40.624001
 20
19.231556
 30
0.0
 10
40.602016
 20
18.777519
 30
0.0
 10
40.527436
 20
18.292727
 30
0.0
 10
40.387372
 20
17.791395
 30
0.0
 10
40.168926
 20
17.287750
 30
0.0
 10
39.859199
 20
16.796012
 30
0.0
 10
39.445292
 20
16.330399
 30
0.0
 10
38.914305
 20
15.905138
 30
0.0
 10
38.253343
 20
15.534445
 30
0.0
 10
38.820649
 20
15.291389
 30
0.0
 10
39.449412
 20
14.966340
 30
0.0
 10
40.080895
 20
14.522379
 30
0.0
 10
40.656358
 20
13.922583
 30
0.0
 10
40.985090
 20
13.408033
 30
0.0
 10
41.242624
 20
12.793186
 30
0.0
 10
41.410605
 20
12.066504
 30
0.0
 10
41.470676
 20
11.216445
 30
0.0
 10
41.432356
 20
10.555974
 30
0.0
 10
41.317830
 20
9.917734
 30
0.0
 10
40.932642
 20
8.864475
 30
0.0
 10
40.235102
 20
7.834223
 30
0.0
 10
39.592216
 20
7.230634
 30
0.0
 10
38.818482
 20
6.728900
 30
0.0
 10
37.512710
 20
6.222141
 30
0.0
 10
35.431121
 20
5.967097
 30
0.0
 10
27.811121
 20
5.967097
 30
0.0
 10
27.811121
 20
23.690667
 30
0.0
 10
27.782890
 20
23.690667
 30
0.0
  0
LWPOLYLINE
  5
101
100
AcDbEntity
  8
Capa_1
 62
7
100
AcDbPolyline
 90
20
 70
1
 10
30.181779
 20
16.183556
 30
0.0
 10
34.499779
 20
16.183556
 30
0.0
 10
35.314972
 20
16.218117
 30
0.0
 10
36.041858
 20
16.327754
 30
0.0
 10
36.674157
 20
16.521395
 30
0.0
 10
37.205584
 20
16.807972
 30
0.0
 10
37.629855
 20
17.196415
 30
0.0
 10
37.940686
 20
17.695649
 30
0.0
 10
38.131793
 20
18.314610
 30
0.0
 10
38.196890
 20
19.062222
 30
0.0
 10
38.148051
 20
19.651858
 30
0.0
 10
37.996690
 20
20.170385
 30
0.0
 10
37.735522
 20
20.615492
 30
0.0
 10
37.357279
 20
20.984861
 30
0.0
 10
36.854681
 20
21.276180
 30
0.0
 10
36.220451
 20
21.487129
 30
0.0
 10
35.447317
 20
21.615397
 30
0.0
 10
34.528001
 20
21.658667
 30
0.0
 10
30.181779
 20
21.658667
 30
0.0
 10
30.181779
 20
16.183556
 30
0.0
  0
LWPOLYLINE
  5
102
100
AcDbEntity
  8
Capa_1
 62
7
100
AcDbPolyline
 90
20
 70
1
 10
30.181779
 20
7.999097
 30
0.0
 10
35.290001
 20
7.999097
 30
0.0
 10
36.164340
 20
8.057517
 30
0.0
 10
36.924246
 20
8.228403
 30
0.0
 10
37.569056
 20
8.505122
 30
0.0
 10
38.098112
 20
8.881042
 30
0.0
 10
38.510752
 20
9.349584
 30
0.0
 10
38.806315
 20
9.904108
 30
0.0
 10
38.984135
 20
10.538008
 30
0.0
 10
39.043557
 20
11.244667
 30
0.0
 10
38.945166
 20
12.086262
 30
0.0
 10
38.669172
 20
12.759847
 30
0.0
 10
38.244348
 20
13.282619
 30
0.0
 10
37.699473
 20
13.671778
 30
0.0
 10
37.063316
 20
13.944520
 30
0.0
 10
36.364650
 20
14.118042
 30
0.0
 10
35.632252
 20
14.209544
 30
0.0
 10
34.894890
 20
14.236214
 30
0.0
 10
30.181779
 20
14.236214
 30
0.0
 10
30.181779
 20
7.999097
 30
0.0
  0
LWPOLYLINE
  5
103
100
AcDbEntity
  8
Capa_1
 62
7
100
AcDbPolyline
 90
65
 70
1
 10
52.054001
 20
5.487319
 30
0.0
 10
50.864059
 20
5.550057
 30
0.0
 10
49.778751
 20
5.731301
 30
0.0
 10
48.794233
 20
6.020522
 30
0.0
 10
47.906658
 20
6.407195
 30
0.0
 10
47.112186
 20
6.880876
 30
0.0
 10
46.406966
 20
7.431012
 30
0.0
 10
45.787152
 20
8.047160
 30
0.0
 10
45.248918
 20
8.718764
 30
0.0
 10
44.788393
 20
9.435363
 30
0.0
 10
44.401754
 20
10.186438
 30
0.0
 10
44.085143
 20
10.961491
 30
0.0
 10
43.834719
 20
11.750020
 30
0.0
 10
43.646638
 20
12.541523
 30
0.0
 10
43.517055
 20
13.325503
 30
0.0
 10
43.442123
 20
14.091459
 30
0.0
 10
43.417993
 20
14.828889
 30
0.0
 10
43.442433
 20
15.566319
 30
0.0
 10
43.518213
 20
16.332273
 30
0.0
 10
43.649056
 20
17.116252
 30
0.0
 10
43.838687
 20
17.907756
 30
0.0
 10
44.090827
 20
18.696285
 30
0.0
 10
44.409197
 20
19.471335
 30
0.0
 10
44.797515
 20
20.222407
 30
0.0
 10
45.259501
 20
20.939000
 30
0.0
 10
45.798879
 20
21.610616
 30
0.0
 10
46.419370
 20
22.226749
 30
0.0
 10
47.124691
 20
22.776902
 30
0.0
 10
47.918562
 20
23.250578
 30
0.0
 10
48.804712
 20
23.637270
 30
0.0
 10
49.786854
 20
23.926478
 30
0.0
 10
50.868707
 20
24.107704
 30
0.0
 10
52.054001
 20
24.170445
 30
0.0
 10
53.243943
 20
24.107704
 30
0.0
 10
54.329251
 20
23.926478
 30
0.0
 10
55.313772
 20
23.637270
 30
0.0
 10
56.201344
 20
23.250578
 30
0.0
 10
56.995819
 20
22.776905
 30
0.0
 10
57.701036
 20
22.226749
 30
0.0
 10
58.320844
 20
21.610616
 30
0.0
 10
58.859084
 20
20.939000
 30
0.0
 10
59.319603
 20
20.222407
 30
0.0
 10
59.706248
 20
19.471335
 30
0.0
 10
60.022859
 20
18.696285
 30
0.0
 10
60.273283
 20
17.907756
 30
0.0
 10
60.461364
 20
17.116252
 30
0.0
 10
60.590947
 20
16.332273
 30
0.0
 10
60.665877
 20
15.566319
 30
0.0
 10
60.690007
 20
14.828889
 30
0.0
 10
60.665566
 20
14.091459
 30
0.0
 10
60.589787
 20
13.325503
 30
0.0
 10
60.458943
 20
12.541523
 30
0.0
 10
60.269309
 20
11.750020
 30
0.0
 10
60.017169
 20
10.961491
 30
0.0
 10
59.698803
 20
10.186438
 30
0.0
 10
59.310488
 20
9.435366
 30
0.0
 10
58.848498
 20
8.718764
 30
0.0
 10
58.309124
 20
8.047160
 30
0.0
 10
57.688630
 20
7.431012
 30
0.0
 10
56.983314
 20
6.880848
 30
0.0
 10
56.189434
 20
6.407195
 30
0.0
 10
55.303288
 20
6.020494
 30
0.0
 10
54.321146
 20
5.731301
 30
0.0
 10
53.239286
 20
5.550086
 30
0.0
 10
52.054001
 20
5.487319
 30
0.0
  0
LWPOLYLINE
  5
104
100
AcDbEntity
  8
Capa_1
 62
7
100
AcDbPolyline
 90
65
 70
1
 10
52.054001
 20
22.025556
 30
0.0
 10
51.347418
 20
21.990306
 30
0.0
 10
50.678334
 20
21.886429
 30
0.0
 10
50.047858
 20
21.716737
 30
0.0
 10
49.457116
 20
21.484042
 30
0.0
 10
48.907218
 20
21.191152
 30
0.0
 10
48.399280
 20
20.840883
 30
0.0
 10
47.934417
 20
20.436043
 30
0.0
 10
47.513751
 20
19.979445
 30
0.0
 10
47.138393
 20
19.473897
 30
0.0
 10
46.809463
 20
18.922215
 30
0.0
 10
46.528073
 20
18.327206
 30
0.0
 10
46.295344
 20
17.691681
 30
0.0
 10
46.112388
 20
17.018454
 30
0.0
 10
45.980325
 20
16.310336
 30
0.0
 10
45.900267
 20
15.570137
 30
0.0
 10
45.873343
 20
14.800667
 30
0.0
 10
45.900267
 20
14.031199
 30
0.0
 10
45.980325
 20
13.290998
 30
0.0
 10
46.112391
 20
12.582880
 30
0.0
 10
46.295344
 20
11.909650
 30
0.0
 10
46.528073
 20
11.274125
 30
0.0
 10
46.809463
 20
10.679116
 30
0.0
 10
47.138393
 20
10.127431
 30
0.0
 10
47.513751
 20
9.621883
 30
0.0
 10
47.934417
 20
9.165279
 30
0.0
 10
48.399280
 20
8.760448
 30
0.0
 10
48.907223
 20
8.410182
 30
0.0
 10
49.457116
 20
8.117292
 30
0.0
 10
50.047864
 20
7.884600
 30
0.0
 10
50.678334
 20
7.714899
 30
0.0
 10
51.347418
 20
7.611013
 30
0.0
 10
52.054001
 20
7.575764
 30
0.0
 10
52.760584
 20
7.611013
 30
0.0
 10
53.429668
 20
7.714899
 30
0.0
 10
54.060144
 20
7.884600
 30
0.0
 10
54.650886
 20
8.117292
 30
0.0
 10
55.200782
 20
8.410182
 30
0.0
 10
55.708722
 20
8.760448
 30
0.0
 10
56.173579
 20
9.165285
 30
0.0
 10
56.594251
 20
9.621883
 30
0.0
 10
56.969607
 20
10.127431
 30
0.0
 10
57.298539
 20
10.679116
 30
0.0
 10
57.579926
 20
11.274125
 30
0.0
 10
57.812658
 20
11.909650
 30
0.0
 10
57.995614
 20
12.582877
 30
0.0
 10
58.127677
 20
13.290998
 30
0.0
 10
58.207735
 20
14.031196
 30
0.0
 10
58.234659
 20
14.800667
 30
0.0
 10
58.207425
 20
15.574785
 30
0.0
 10
58.126520
 20
16.318438
 30
0.0
 10
57.993196
 20
17.028933
 30
0.0
 10
57.808687
 20
17.703588
 30
0.0
 10
57.574242
 20
18.339711
 30
0.0
 10
57.291097
 20
18.934616
 30
0.0
 10
56.960491
 20
19.485618
 30
0.0
 10
56.583668
 20
19.990028
 30
0.0
 10
56.161864
 20
20.445159
 30
0.0
 10
55.696322
 20
20.848325
 30
0.0
 10
55.188279
 20
21.196838
 30
0.0
 10
54.638979
 20
21.488010
 30
0.0
 10
54.049662
 20
21.719156
 30
0.0
 10
53.421565
 20
21.887586
 30
0.0
 10
52.755933
 20
21.990614
 30
0.0
 10
52.054001
 20
22.025556
 30
0.0
  0
LWPOLYLINE
  5
105
100
AcDbEntity
  8
Capa_1
 62
7
100
AcDbPolyline
 90
9
 70
1
 10
65.826446
 20
11.103556
 30
0.0
 10
63.963779
 20
5.938875
 30
0.0
 10
61.480223
 20
5.938875
 30
0.0
 10
68.140668
 20
23.662445
 30
0.0
 10
70.850001
 20
23.662445
 30
0.0
 10
77.284668
 20
5.938875
 30
0.0
 10
74.660001
 20
5.938875
 30
0.0
 10
72.910223
 20
11.103556
 30
0.0
 10
65.826446
 20
11.103556
 30
0.0
  0
LWPOLYLINE
  5
106
100
AcDbEntity
  8
Capa_1
 62
7
100
AcDbPolyline
 90
5
 70
1
 10
72.091779
 20
13.248445
 30
0.0
 10
69.467112
 20
21.066000
 30
0.0
 10
69.410668
 20
21.066000
 30
0.0
 10
66.560223
 20
13.248445
 30
0.0
 10
72.091779
 20
13.248445
 30
0.0
  0
LWPOLYLINE
  5
107
100
AcDbEntity
  8
Capa_1
 62
7
100
AcDbPolyline
 90
113
 70
1
 10
82.195334
 20
5.967097
 30
0.0
 10
81.895473
 20
5.967097
 30
0.0
 10
81.595612
 20
5.967097
 30
0.0
 10
81.295751
 20
5.967097
 30
0.0
 10
80.995890
 20
5.967097
 30
0.0
 10
80.696029
 20
5.967097
 30
0.0
 10
80.396168
 20
5.967097
 30
0.0
 10
80.096307
 20
5.967097
 30
0.0
 10
79.796446
 20
5.967097
 30
0.0
 10
79.796446
 20
8.182542
 30
0.0
 10
79.796446
 20
10.397989
 30
0.0
 10
79.796446
 20
12.613436
 30
0.0
 10
79.796446
 20
14.828883
 30
0.0
 10
79.796446
 20
17.044328
 30
0.0
 10
79.796446
 20
19.259775
 30
0.0
 10
79.796446
 20
21.475220
 30
0.0
 10
79.796446
 20
23.690667
 30
0.0
 10
80.823029
 20
23.690667
 30
0.0
 10
81.849612
 20
23.690667
 30
0.0
 10
82.876196
 20
23.690667
 30
0.0
 10
83.902779
 20
23.690667
 30
0.0
 10
84.929362
 20
23.690667
 30
0.0
 10
85.955946
 20
23.690667
 30
0.0
 10
86.982529
 20
23.690667
 30
0.0
 10
88.009112
 20
23.690667
 30
0.0
 10
89.094731
 20
23.639681
 30
0.0
 10
90.148269
 20
23.473268
 30
0.0
 10
91.135000
 20
23.171257
 30
0.0
 10
92.020196
 20
22.713472
 30
0.0
 10
92.769131
 20
22.079740
 30
0.0
 10
93.347080
 20
21.249885
 30
0.0
 10
93.719317
 20
20.203735
 30
0.0
 10
93.851112
 20
18.921111
 30
0.0
 10
93.791857
 20
18.012212
 30
0.0
 10
93.625775
 20
17.243213
 30
0.0
 10
93.370397
 20
16.597903
 30
0.0
 10
93.043251
 20
16.060084
 30
0.0
 10
92.661864
 20
15.613543
 30
0.0
 10
92.243769
 20
15.242079
 30
0.0
 10
91.806488
 20
14.929487
 30
0.0
 10
91.367557
 20
14.659556
 30
0.0
 10
91.746736
 20
14.495624
 30
0.0
 10
92.115005
 20
14.305897
 30
0.0
 10
92.461444
 20
14.067219
 30
0.0
 10
92.775140
 20
13.756445
 30
0.0
 10
93.045182
 20
13.350420
 30
0.0
 10
93.260650
 20
12.825995
 30
0.0
 10
93.410637
 20
12.160015
 30
0.0
 10
93.484223
 20
11.329334
 30
0.0
 10
93.501862
 20
10.927164
 30
0.0
 10
93.519501
 20
10.524997
 30
0.0
 10
93.537140
 20
10.122828
 30
0.0
 10
93.554779
 20
9.720661
 30
0.0
 10
93.572418
 20
9.318492
 30
0.0
 10
93.590057
 20
8.916319
 30
0.0
 10
93.607696
 20
8.514153
 30
0.0
 10
93.625334
 20
8.111986
 30
0.0
 10
93.640998
 20
7.769340
 30
0.0
 10
93.671204
 20
7.476986
 30
0.0
 10
93.722577
 20
7.226965
 30
0.0
 10
93.801732
 20
7.011319
 30
0.0
 10
93.915281
 20
6.822146
 30
0.0
 10
94.069843
 20
6.651486
 30
0.0
 10
94.272030
 20
6.491410
 30
0.0
 10
94.528454
 20
6.333986
 30
0.0
 10
94.528454
 20
6.284597
 30
0.0
 10
94.528454
 20
6.235208
 30
0.0
 10
94.528454
 20
6.185819
 30
0.0
 10
94.528454
 20
6.136431
 30
0.0
 10
94.528454
 20
6.087042
 30
0.0
 10
94.528454
 20
6.037653
 30
0.0
 10
94.528454
 20
5.988264
 30
0.0
 10
94.528454
 20
5.938875
 30
0.0
 10
94.161565
 20
5.938875
 30
0.0
 10
93.794676
 20
5.938875
 30
0.0
 10
93.427787
 20
5.938875
 30
0.0
 10
93.060898
 20
5.938875
 30
0.0
 10
92.694010
 20
5.938875
 30
0.0
 10
92.327121
 20
5.938875
 30
0.0
 10
91.960232
 20
5.938875
 30
0.0
 10
91.593343
 20
5.938875
 30
0.0
 10
91.477920
 20
6.418709
 30
0.0
 10
91.384323
 20
7.004715
 30
0.0
 10
91.310570
 20
7.654871
 30
0.0
 10
91.254676
 20
8.327181
 30
0.0
 10
91.214657
 20
8.979650
 30
0.0
 10
91.188523
 20
9.570293
 30
0.0
 10
91.174299
 20
10.057073
 30
0.0
 10
91.170010
 20
10.398000
 30
0.0
 10
91.151101
 20
10.955169
 30
0.0
 10
91.076961
 20
11.511014
 30
0.0
 10
90.921465
 20
12.043048
 30
0.0
 10
90.658479
 20
12.528778
 30
0.0
 10
90.261881
 20
12.945716
 30
0.0
 10
89.705539
 20
13.271375
 30
0.0
 10
88.963325
 20
13.483262
 30
0.0
 10
88.009118
 20
13.558889
 30
0.0
 10
87.282396
 20
13.558889
 30
0.0
 10
86.555673
 20
13.558889
 30
0.0
 10
85.828951
 20
13.558889
 30
0.0
 10
85.102229
 20
13.558889
 30
0.0
 10
84.375507
 20
13.558889
 30
0.0
 10
83.648785
 20
13.558889
 30
0.0
 10
82.922062
 20
13.558889
 30
0.0
 10
82.195340
 20
13.558889
 30
0.0
 10
82.195340
 20
12.609914
 30
0.0
 10
82.195340
 20
11.660942
 30
0.0
 10
82.195340
 20
10.711967
 30
0.0
 10
82.195340
 20
9.762995
 30
0.0
 10
82.195340
 20
8.814014
 30
0.0
 10
82.195340
 20
7.865042
 30
0.0
 10
82.195340
 20
6.916069
 30
0.0
 10
82.195334
 20
5.967097
 30
0.0
  0
LWPOLYLINE
  5
108
100
AcDbEntity
  8
Capa_1
 62
7
100
AcDbPolyline
 90
41
 70
1
 10
82.195334
 20
15.619111
 30
0.0
 10
82.890307
 20
15.619111
 30
0.0
 10
83.585279
 20
15.619111
 30
0.0
 10
84.280251
 20
15.619111
 30
0.0
 10
84.975223
 20
15.619111
 30
0.0
 10
85.670196
 20
15.619111
 30
0.0
 10
86.365168
 20
15.619111
 30
0.0
 10
87.060140
 20
15.619111
 30
0.0
 10
87.755112
 20
15.619111
 30
0.0
 10
88.412713
 20
15.643636
 30
0.0
 10
89.057746
 20
15.730674
 30
0.0
 10
89.667058
 20
15.900394
 30
0.0
 10
90.217501
 20
16.172970
 30
0.0
 10
90.685925
 20
16.568577
 30
0.0
 10
91.049176
 20
17.107390
 30
0.0
 10
91.284104
 20
17.809582
 30
0.0
 10
91.367557
 20
18.695331
 30
0.0
 10
91.279142
 20
19.608638
 30
0.0
 10
91.035946
 20
20.313257
 30
0.0
 10
90.671041
 20
20.835975
 30
0.0
 10
90.217501
 20
21.203581
 30
0.0
 10
89.708398
 20
21.442863
 30
0.0
 10
89.176807
 20
21.580613
 30
0.0
 10
88.655799
 20
21.643616
 30
0.0
 10
88.178446
 20
21.658658
 30
0.0
 10
87.430557
 20
21.658658
 30
0.0
 10
86.682668
 20
21.658658
 30
0.0
 10
85.934779
 20
21.658658
 30
0.0
 10
85.186890
 20
21.658658
 30
0.0
 10
84.439001
 20
21.658658
 30
0.0
 10
83.691112
 20
21.658658
 30
0.0
 10
82.943223
 20
21.658658
 30
0.0
 10
82.195334
 20
21.658658
 30
0.0
 10
82.195334
 20
20.903714
 30
0.0
 10
82.195334
 20
20.148769
 30
0.0
 10
82.195334
 20
19.393825
 30
0.0
 10
82.195334
 20
18.638881
 30
0.0
 10
82.195334
 20
17.883936
 30
0.0
 10
82.195334
 20
17.128992
 30
0.0
 10
82.195334
 20
16.374047
 30
0.0
 10
82.195334
 20
15.619111
 30
0.0
  0
LWPOLYLINE
  5
109
100
AcDbEntity
  8
Capa_1
 62
7
100
AcDbPolyline
 90
41
 70
1
 10
97.463557
 20
23.690667
 30
0.0
 10
98.363140
 20
23.690667
 30
0.0
 10
99.262723
 20
23.690667
 30
0.0
 10
100.162307
 20
23.690667
 30
0.0
 10
101.061890
 20
23.690667
 30
0.0
 10
101.961473
 20
23.690667
 30
0.0
 10
102.861057
 20
23.690667
 30
0.0
 10
103.760640
 20
23.690667
 30
0.0
 10
104.660223
 20
23.690667
 30
0.0
 10
106.309239
 20
23.530319
 30
0.0
 10
107.777015
 20
23.064046
 30
0.0
 10
109.051646
 20
22.314007
 30
0.0
 10
110.121223
 20
21.302361
 30
0.0
 10
110.973842
 20
20.051267
 30
0.0
 10
111.597598
 20
18.582885
 30
0.0
 10
111.980582
 20
16.919374
 30
0.0
 10
112.110890
 20
15.082889
 30
0.0
 10
112.025506
 20
13.548692
 30
0.0
 10
111.750616
 20
11.979765
 30
0.0
 10
111.258105
 20
10.449864
 30
0.0
 10
110.519862
 20
9.032736
 30
0.0
 10
109.507777
 20
7.802163
 30
0.0
 10
108.193733
 20
6.831854
 30
0.0
 10
106.549625
 20
6.195584
 30
0.0
 10
104.547334
 20
5.967097
 30
0.0
 10
103.661862
 20
5.967097
 30
0.0
 10
102.776390
 20
5.967097
 30
0.0
 10
101.890918
 20
5.967097
 30
0.0
 10
101.005446
 20
5.967097
 30
0.0
 10
100.119973
 20
5.967097
 30
0.0
 10
99.234501
 20
5.967097
 30
0.0
 10
98.349029
 20
5.967097
 30
0.0
 10
97.463557
 20
5.967097
 30
0.0
 10
97.463557
 20
8.182542
 30
0.0
 10
97.463557
 20
10.397989
 30
0.0
 10
97.463557
 20
12.613436
 30
0.0
 10
97.463557
 20
14.828881
 30
0.0
 10
97.463557
 20
17.044328
 30
0.0
 10
97.463557
 20
19.259775
 30
0.0
 10
97.463557
 20
21.475220
 30
0.0
 10
97.463557
 20
23.690667
 30
0.0
  0
LWPOLYLINE
  5
10a
100
AcDbEntity
  8
Capa_1
 62
7
100
AcDbPolyline
 90
49
 70
1
 10
99.862446
 20
7.999097
 30
0.0
 10
100.444529
 20
7.999097
 30
0.0
 10
101.026612
 20
7.999097
 30
0.0
 10
101.608696
 20
7.999097
 30
0.0
 10
102.190779
 20
7.999097
 30
0.0
 10
102.772862
 20
7.999097
 30
0.0
 10
103.354946
 20
7.999097
 30
0.0
 10
103.937029
 20
7.999097
 30
0.0
 10
104.519112
 20
7.999097
 30
0.0
 10
105.631133
 20
8.113313
 30
0.0
 10
106.631368
 20
8.452431
 30
0.0
 10
107.508574
 20
9.011146
 30
0.0
 10
108.251501
 20
9.784158
 30
0.0
 10
108.848909
 20
10.766207
 30
0.0
 10
109.289548
 20
11.951983
 30
0.0
 10
109.562181
 20
13.336199
 30
0.0
 10
109.655557
 20
14.913556
 30
0.0
 10
109.560693
 20
16.482423
 30
0.0
 10
109.282936
 20
17.844256
 30
0.0
 10
108.832537
 20
18.998392
 30
0.0
 10
108.219751
 20
19.944167
 30
0.0
 10
107.454830
 20
20.680922
 30
0.0
 10
106.548025
 20
21.207992
 30
0.0
 10
105.509591
 20
21.524721
 30
0.0
 10
104.349779
 20
21.630445
 30
0.0
 10
103.792390
 20
21.630445
 30
0.0
 10
103.235001
 20
21.630445
 30
0.0
 10
102.677612
 20
21.630445
 30
0.0
 10
102.120223
 20
21.630445
 30
0.0
 10
101.562834
 20
21.630445
 30
0.0
 10
101.005446
 20
21.630445
 30
0.0
 10
100.448057
 20
21.630445
 30
0.0
 10
99.890668
 20
21.630445
 30
0.0
 10
99.890668
 20
19.926525
 30
0.0
 10
99.890668
 20
18.222608
 30
0.0
 10
99.890668
 20
16.518689
 30
0.0
 10
99.890668
 20
14.814769
 30
0.0
 10
99.890668
 20
13.110853
 30
0.0
 10
99.890668
 20
11.406933
 30
0.0
 10
99.890668
 20
9.703017
 30
0.0
 10
99.890668
 20
7.999097
 30
0.0
 10
99.887140
 20
7.999097
 30
0.0
 10
99.883612
 20
7.999097
 30
0.0
 10
99.880084
 20
7.999097
 30
0.0
 10
99.876557
 20
7.999097
 30
0.0
 10
99.873029
 20
7.999097
 30
0.0
 10
99.869501
 20
7.999097
 30
0.0
 10
99.865973
 20
7.999097
 30
0.0
 10
99.862446
 20
7.999097
 30
0.0
  0
LWPOLYLINE
  5
10b
100
AcDbEntity
  8
Capa_1
 62
7
100
AcDbPolyline
 90
27
 70
1
 10
45.450001
 20
26.428222
 30
0.0
 10
36.122557
 20
26.428222
 30
0.0
 10
26.795112
 20
26.428222
 30
0.0
 10
26.795112
 20
28.544889
 30
0.0
 10
26.795112
 20
30.661556
 30
0.0
 10
29.564133
 20
34.127583
 30
0.0
 10
32.333153
 20
37.593614
 30
0.0
 10
35.730688
 20
41.846361
 30
0.0
 10
39.128223
 20
46.099111
 30
0.0
 10
35.600285
 20
46.099111
 30
0.0
 10
32.072343
 20
46.099111
 30
0.0
 10
29.603062
 20
46.099111
 30
0.0
 10
27.133779
 20
46.099111
 30
0.0
 10
27.133779
 20
48.215778
 30
0.0
 10
27.133779
 20
50.332445
 30
0.0
 10
36.263668
 20
50.332445
 30
0.0
 10
45.393557
 20
50.332445
 30
0.0
 10
45.393557
 20
48.371000
 30
0.0
 10
45.393557
 20
46.409556
 30
0.0
 10
41.651665
 20
41.696295
 30
0.0
 10
37.909774
 20
36.983032
 30
0.0
 10
35.400443
 20
33.822295
 30
0.0
 10
32.891112
 20
30.661556
 30
0.0
 10
39.170557
 20
30.661556
 30
0.0
 10
45.450001
 20
30.661556
 30
0.0
 10
45.450001
 20
28.544889
 30
0.0
 10
45.450001
 20
26.428222
 30
0.0
  0
LWPOLYLINE
  5
10c
100
AcDbEntity
  8
Capa_1
 62
7
100
AcDbPolyline
 90
25
 70
1
 10
66.362668
 20
46.099111
 30
0.0
 10
60.026779
 20
46.099111
 30
0.0
 10
53.690890
 20
46.099111
 30
0.0
 10
53.690890
 20
43.587334
 30
0.0
 10
53.690890
 20
41.075556
 30
0.0
 10
59.504668
 20
41.075556
 30
0.0
 10
65.318446
 20
41.075556
 30
0.0
 10
65.318446
 20
38.958889
 30
0.0
 10
65.318446
 20
36.842222
 30
0.0
 10
59.504668
 20
36.842222
 30
0.0
 10
53.690890
 20
36.842222
 30
0.0
 10
53.690890
 20
33.751889
 30
0.0
 10
53.690890
 20
30.661556
 30
0.0
 10
60.309001
 20
30.661556
 30
0.0
 10
66.927112
 20
30.661556
 30
0.0
 10
66.927112
 20
28.544889
 30
0.0
 10
66.927112
 20
26.428222
 30
0.0
 10
57.867779
 20
26.428222
 30
0.0
 10
48.808446
 20
26.428222
 30
0.0
 10
48.808446
 20
38.366222
 30
0.0
 10
48.808446
 20
50.304222
 30
0.0
 10
57.585557
 20
50.304222
 30
0.0
 10
66.362668
 20
50.304222
 30
0.0
 10
66.362668
 20
48.201667
 30
0.0
 10
66.362668
 20
46.099111
 30
0.0
  0
LWPOLYLINE
  5
10d
100
AcDbEntity
  8
Capa_1
 62
7
100
AcDbPolyline
 90
97
 70
1
 10
90.097557
 20
34.782000
 30
0.0
 10
89.923262
 20
32.589430
 30
0.0
 10
89.412284
 20
30.724615
 30
0.0
 10
88.582486
 20
29.176638
 30
0.0
 10
87.451723
 20
27.934584
 30
0.0
 10
86.037855
 20
26.987542
 30
0.0
 10
84.358746
 20
26.324593
 30
0.0
 10
82.432246
 20
25.934830
 30
0.0
 10
80.276223
 20
25.807334
 30
0.0
 10
79.405966
 20
25.835020
 30
0.0
 10
78.462946
 20
25.928175
 30
0.0
 10
77.472300
 20
26.102027
 30
0.0
 10
76.459168
 20
26.371792
 30
0.0
 10
75.448680
 20
26.752682
 30
0.0
 10
74.465973
 20
27.259912
 30
0.0
 10
73.536184
 20
27.908690
 30
0.0
 10
72.684446
 20
28.714237
 30
0.0
 10
72.233993
 20
29.285793
 30
0.0
 10
71.853654
 20
29.900010
 30
0.0
 10
71.539462
 20
30.557224
 30
0.0
 10
71.287446
 20
31.257764
 30
0.0
 10
71.093638
 20
32.001959
 30
0.0
 10
70.954071
 20
32.790143
 30
0.0
 10
70.864773
 20
33.622643
 30
0.0
 10
70.821779
 20
34.499792
 30
0.0
 10
70.821779
 20
36.475348
 30
0.0
 10
70.821779
 20
38.450903
 30
0.0
 10
70.821779
 20
40.426459
 30
0.0
 10
70.821779
 20
42.402014
 30
0.0
 10
70.821779
 20
44.377570
 30
0.0
 10
70.821779
 20
46.353125
 30
0.0
 10
70.821779
 20
48.328681
 30
0.0
 10
70.821779
 20
50.304237
 30
0.0
 10
71.456779
 20
50.304237
 30
0.0
 10
72.091779
 20
50.304237
 30
0.0
 10
72.726779
 20
50.304237
 30
0.0
 10
73.361779
 20
50.304237
 30
0.0
 10
73.996779
 20
50.304237
 30
0.0
 10
74.631779
 20
50.304237
 30
0.0
 10
75.266779
 20
50.304237
 30
0.0
 10
75.901779
 20
50.304237
 30
0.0
 10
75.901779
 20
48.367487
 30
0.0
 10
75.901779
 20
46.430737
 30
0.0
 10
75.901779
 20
44.493987
 30
0.0
 10
75.901779
 20
42.557237
 30
0.0
 10
75.901779
 20
40.620487
 30
0.0
 10
75.901779
 20
38.683737
 30
0.0
 10
75.901779
 20
36.746987
 30
0.0
 10
75.901779
 20
34.810237
 30
0.0
 10
75.988816
 20
33.647944
 30
0.0
 10
76.238241
 20
32.655648
 30
0.0
 10
76.632526
 20
31.828714
 30
0.0
 10
77.154140
 20
31.162514
 30
0.0
 10
77.785556
 20
30.652420
 30
0.0
 10
78.509247
 20
30.293800
 30
0.0
 10
79.307682
 20
30.082021
 30
0.0
 10
80.163334
 20
30.012459
 30
0.0
 10
81.351149
 20
30.089630
 30
0.0
 10
82.358052
 20
30.317612
 30
0.0
 10
83.190995
 20
30.691116
 30
0.0
 10
83.856918
 20
31.204848
 30
0.0
 10
84.362767
 20
31.853518
 30
0.0
 10
84.715491
 20
32.631834
 30
0.0
 10
84.922030
 20
33.534505
 30
0.0
 10
84.989334
 20
34.556237
 30
0.0
 10
84.989334
 20
36.524737
 30
0.0
 10
84.989334
 20
38.493237
 30
0.0
 10
84.989334
 20
40.461737
 30
0.0
 10
84.989334
 20
42.430237
 30
0.0
 10
84.989334
 20
44.398737
 30
0.0
 10
84.989334
 20
46.367237
 30
0.0
 10
84.989334
 20
48.335737
 30
0.0
 10
84.989334
 20
50.304237
 30
0.0
 10
85.624334
 20
50.304237
 30
0.0
 10
86.259334
 20
50.304237
 30
0.0
 10
86.894334
 20
50.304237
 30
0.0
 10
87.529334
 20
50.304237
 30
0.0
 10
88.164334
 20
50.304237
 30
0.0
 10
88.799334
 20
50.304237
 30
0.0
 10
89.434334
 20
50.304237
 30
0.0
 10
90.069334
 20
50.304237
 30
0.0
 10
90.069334
 20
48.363959
 30
0.0
 10
90.069334
 20
46.423681
 30
0.0
 10
90.069334
 20
44.483403
 30
0.0
 10
90.069334
 20
42.543125
 30
0.0
 10
90.069334
 20
40.602848
 30
0.0
 10
90.069334
 20
38.662570
 30
0.0
 10
90.069334
 20
36.722292
 30
0.0
 10
90.069334
 20
34.782014
 30
0.0
 10
90.072862
 20
34.782014
 30
0.0
 10
90.076390
 20
34.782014
 30
0.0
 10
90.079918
 20
34.782014
 30
0.0
 10
90.083446
 20
34.782014
 30
0.0
 10
90.086973
 20
34.782014
 30
0.0
 10
90.090501
 20
34.782014
 30
0.0
 10
90.094029
 20
34.782014
 30
0.0
 10
90.097557
 20
34.782000
 30
0.0
  0
LWPOLYLINE
  5
10e
100
AcDbEntity
  8
Capa_1
 62
7
100
AcDbPolyline
 90
129
 70
1
 10
98.536001
 20
33.794222
 30
0.0
 10
98.582909
 20
33.247250
 30
0.0
 10
98.726061
 20
32.630496
 30
0.0
 10
99.000841
 20
31.987944
 30
0.0
 10
99.442640
 20
31.363584
 30
0.0
 10
100.086846
 20
30.801400
 30
0.0
 10
100.968844
 20
30.345379
 30
0.0
 10
102.124028
 20
30.039510
 30
0.0
 10
103.587779
 20
29.927778
 30
0.0
 10
104.483064
 20
29.956994
 30
0.0
 10
105.368423
 20
30.055658
 30
0.0
 10
106.210131
 20
30.240316
 30
0.0
 10
106.974446
 20
30.527500
 30
0.0
 10
107.627635
 20
30.933745
 30
0.0
 10
108.135965
 20
31.475589
 30
0.0
 10
108.465702
 20
32.169571
 30
0.0
 10
108.583112
 20
33.032222
 30
0.0
 10
108.500596
 20
33.670033
 30
0.0
 10
108.261644
 20
34.197713
 30
0.0
 10
107.879154
 20
34.632126
 30
0.0
 10
107.366029
 20
34.990139
 30
0.0
 10
106.735163
 20
35.288623
 30
0.0
 10
105.999455
 20
35.544440
 30
0.0
 10
105.171808
 20
35.774463
 30
0.0
 10
104.265112
 20
35.995556
 30
0.0
 10
103.944084
 20
36.069639
 30
0.0
 10
103.623057
 20
36.143722
 30
0.0
 10
103.302029
 20
36.217806
 30
0.0
 10
102.981001
 20
36.291889
 30
0.0
 10
102.659973
 20
36.365972
 30
0.0
 10
102.338946
 20
36.440056
 30
0.0
 10
102.017918
 20
36.514139
 30
0.0
 10
101.696890
 20
36.588222
 30
0.0
 10
100.269904
 20
36.924849
 30
0.0
 10
98.895834
 20
37.312740
 30
0.0
 10
97.617015
 20
37.803155
 30
0.0
 10
96.475779
 20
38.447361
 30
0.0
 10
95.514459
 20
39.296619
 30
0.0
 10
94.775390
 20
40.402190
 30
0.0
 10
94.300904
 20
41.815342
 30
0.0
 10
94.133334
 20
43.587334
 30
0.0
 10
94.210285
 20
44.664299
 30
0.0
 10
94.479057
 20
45.853047
 30
0.0
 10
94.996537
 20
47.074872
 30
0.0
 10
95.819612
 20
48.251056
 30
0.0
 10
97.005166
 20
49.302884
 30
0.0
 10
98.610084
 20
50.151645
 30
0.0
 10
100.691253
 20
50.718626
 30
0.0
 10
103.305557
 20
50.925111
 30
0.0
 10
105.803223
 20
50.713278
 30
0.0
 10
107.840515
 20
50.130038
 30
0.0
 10
109.457118
 20
49.253772
 30
0.0
 10
110.692723
 20
48.162861
 30
0.0
 10
111.587015
 20
46.935691
 30
0.0
 10
112.179682
 20
45.650643
 30
0.0
 10
112.510409
 20
44.386099
 30
0.0
 10
112.618890
 20
43.220445
 30
0.0
 10
112.019168
 20
43.220445
 30
0.0
 10
111.419446
 20
43.220445
 30
0.0
 10
110.819723
 20
43.220445
 30
0.0
 10
110.220001
 20
43.220445
 30
0.0
 10
109.620279
 20
43.220445
 30
0.0
 10
109.020557
 20
43.220445
 30
0.0
 10
108.420834
 20
43.220445
 30
0.0
 10
107.821112
 20
43.220445
 30
0.0
 10
107.749069
 20
43.682363
 30
0.0
 10
107.609886
 20
44.232917
 30
0.0
 10
107.360241
 20
44.825804
 30
0.0
 10
106.956807
 20
45.414722
 30
0.0
 10
106.356258
 20
45.953369
 30
0.0
 10
105.515269
 20
46.395445
 30
0.0
 10
104.390515
 20
46.694645
 30
0.0
 10
102.938668
 20
46.804667
 30
0.0
 10
102.217514
 20
46.770160
 30
0.0
 10
101.492719
 20
46.660911
 30
0.0
 10
100.795046
 20
46.468314
 30
0.0
 10
100.155251
 20
46.183778
 30
0.0
 10
99.604091
 20
45.798700
 30
0.0
 10
99.172325
 20
45.304481
 30
0.0
 10
98.890709
 20
44.692521
 30
0.0
 10
98.790001
 20
43.954222
 30
0.0
 10
98.857469
 20
43.321980
 30
0.0
 10
99.044001
 20
42.812103
 30
0.0
 10
99.325783
 20
42.409386
 30
0.0
 10
99.679001
 20
42.098611
 30
0.0
 10
100.079844
 20
41.864564
 30
0.0
 10
100.504501
 20
41.692033
 30
0.0
 10
100.929158
 20
41.565807
 30
0.0
 10
101.330001
 20
41.470667
 30
0.0
 10
102.056723
 20
41.290750
 30
0.0
 10
102.783446
 20
41.110834
 30
0.0
 10
103.510168
 20
40.930917
 30
0.0
 10
104.236890
 20
40.751000
 30
0.0
 10
104.963612
 20
40.571084
 30
0.0
 10
105.690334
 20
40.391167
 30
0.0
 10
106.417057
 20
40.211250
 30
0.0
 10
107.143779
 20
40.031334
 30
0.0
 10
108.343610
 20
39.705124
 30
0.0
 10
109.487547
 20
39.300200
 30
0.0
 10
110.543510
 20
38.788122
 30
0.0
 10
111.479418
 20
38.140445
 30
0.0
 10
112.263191
 20
37.328726
 30
0.0
 10
112.862747
 20
36.324520
 30
0.0
 10
113.246008
 20
35.099390
 30
0.0
 10
113.380890
 20
33.624889
 30
0.0
 10
113.062730
 20
31.230852
 30
0.0
 10
112.206140
 20
29.379209
 30
0.0
 10
110.957967
 20
28.001171
 30
0.0
 10
109.465057
 20
27.027945
 30
0.0
 10
107.874249
 20
26.390740
 30
0.0
 10
106.332390
 20
26.020764
 30
0.0
 10
104.986323
 20
25.849227
 30
0.0
 10
103.982890
 20
25.807334
 30
0.0
 10
101.040117
 20
26.028977
 30
0.0
 10
98.707539
 20
26.638565
 30
0.0
 10
96.918018
 20
27.553087
 30
0.0
 10
95.604418
 20
28.689528
 30
0.0
 10
94.699599
 20
29.964876
 30
0.0
 10
94.136422
 20
31.296115
 30
0.0
 10
93.847751
 20
32.600236
 30
0.0
 10
93.766446
 20
33.794222
 30
0.0
 10
94.362640
 20
33.794222
 30
0.0
 10
94.958834
 20
33.794222
 30
0.0
 10
95.555029
 20
33.794222
 30
0.0
 10
96.151223
 20
33.794222
 30
0.0
 10
96.747418
 20
33.794222
 30
0.0
 10
97.343612
 20
33.794222
 30
0.0
 10
97.939807
 20
33.794222
 30
0.0
 10
98.536001
 20
33.794222
 30
0.0
  0
LWPOLYLINE
  5
10f
100
AcDbEntity
  8
Capa_1
 62
7
100
AcDbPolyline
 90
13
 70
1
 10
11.301111
 20
31.621111
 30
0.0
 10
14.038667
 20
42.726556
 30
0.0
 10
16.776222
 20
53.832000
 30
0.0
 10
8.888111
 20
39.184667
 30
0.0
 10
1.000000
 20
24.537334
 30
0.0
 10
7.928556
 20
23.888222
 30
0.0
 10
14.857111
 20
23.239111
 30
0.0
 10
12.133667
 20
12.119550
 30
0.0
 10
9.410222
 20
0.999986
 30
0.0
 10
17.284223
 20
15.647328
 30
0.0
 10
25.158223
 20
30.294667
 30
0.0
 10
18.229667
 20
30.957889
 30
0.0
 10
11.301111
 20
31.621111
 30
0.0
  0
ENDSEC
  0
SECTION
  2
OBJECTS
  0
DICTIONARY
  5
C
330
0
100
AcDbDictionary
  3
ACAD_GROUP
350
D
  3
ACAD_MLINESTYLE
350
17
  0
DICTIONARY
  5
D
330
C
100
AcDbDictionary
  0
DICTIONARY
  5
1A
330
C
100
AcDbDictionary
  0
DICTIONARY
  5
17
330
C
100
AcDbDictionary
  3
STANDARD
350
18
  0
DICTIONARY
  5
19
330
C
100
AcDbDictionary
  0
ENDSEC
  0
EOF
