<?xml version="1.0" encoding="utf-8"?>
<!-- Generator: Adobe Illustrator 19.1.0, SVG Export Plug-In . SVG Version: 6.00 Build 0)  -->
<svg version="1.1" id="Layer_1" xmlns="http://www.w3.org/2000/svg" xmlns:xlink="http://www.w3.org/1999/xlink" x="0px" y="0px"
	 viewBox="0 0 398.2 187.2" style="enable-background:new 0 0 398.2 187.2;" xml:space="preserve">
<g>
	<g>
		<g>
			<path d="M94.9,106.8h27.7c11.7,0,17.8,7.3,17.8,15.8c0,4.1-1.5,9.9-8.4,13.1c4.1,1.7,11.4,4.6,11.4,15.3
				c0,10.1-7.4,18.6-21.4,18.6h-27V106.8z M103.4,133.4h15.3c8.1,0,13.1-2.5,13.1-10.2c0-5.9-3.6-9.2-13-9.2h-15.4V133.4z
				 M103.4,162.4h18.1c8.8,0,13.3-4.5,13.3-11.5c0-8.8-7.8-10.6-14.7-10.6h-16.7V162.4z"/>
			<path d="M180.9,171.3c-23.5,0-30.6-19.5-30.6-33.1c0-13.6,7.2-33.1,30.6-33.1c23.5,0,30.6,19.5,30.6,33.1
				C211.5,151.8,204.3,171.3,180.9,171.3z M180.9,112.7c-13.7,0-21.9,10.8-21.9,25.6c0,14.8,8.2,25.6,21.9,25.6
				c13.7,0,21.9-10.8,21.9-25.6C202.8,123.4,194.5,112.7,180.9,112.7z"/>
			<path d="M229.7,151.4l-6.6,18.3h-8.8l23.6-62.8h9.6l22.8,62.8h-9.3l-6.2-18.3H229.7z M251.9,143.8l-9.3-27.7h-0.2l-10.1,27.7
				H251.9z"/>
			<path d="M287.7,169.6h-8.5v-62.8h29.1c10.3,0,20.7,3.6,20.7,16.9c0,9.3-4.7,12.7-8.8,15.1c3.6,1.5,7.2,3.1,7.5,11.8l0.5,11.4
				c0.1,3.5,0.5,4.8,3.2,6.3v1.4H321c-1.2-3.9-1.5-13.4-1.5-15.8c0-5.2-1.1-11.2-11.2-11.2h-20.6V169.6z M287.7,135.4h19.7
				c6.2,0,12.8-1.6,12.8-10.9c0-9.7-7.1-10.5-11.3-10.5h-21.2V135.4z"/>
			<path d="M341.8,106.8h25.5c16.4,0,26.4,12.4,26.4,30.5c0,14.1-6.1,32.3-26.8,32.3h-25.1V106.8z M350.3,162.4h16.5
				c11,0,18.2-8.7,18.2-24.5s-7.3-23.8-18.8-23.8h-15.8V162.4z"/>
		</g>
	</g>
	<g>
		<path d="M157.5,97.1H91.4v-15l43.7-54.7H92.6v-15h64.7v13.9L113,82.1h44.5V97.1z"/>
		<path d="M231.6,27.4h-44.9v17.8h41.2v15h-41.2v21.9h46.9v15h-64.2V12.5h62.2V27.4z"/>
		<path d="M315.7,67.5c0,22.3-13.4,31.8-34.8,31.8c-7.8,0-19.3-1.9-26.9-10.3c-4.6-5.2-6.4-12-6.6-20.5V12.5h18v54.9
			c0,11.8,6.8,17,15.1,17c12.1,0,17.1-5.9,17.1-16.1V12.5h18V67.5z"/>
		<path d="M345.6,71c0.1,4.7,2.5,13.7,17.9,13.7c8.4,0,17.7-2,17.7-11c0-6.6-6.4-8.4-15.3-10.5l-9.1-2.1C343.2,58,330,54.9,330,36.3
			c0-9.4,5.1-26,32.5-26c25.9,0,32.9,17,33,27.3h-17c-0.5-3.8-1.9-12.7-17.3-12.7c-6.7,0-14.7,2.5-14.7,10.1c0,6.6,5.4,8,9,8.8
			l20.6,5.1c11.5,2.8,22.1,7.5,22.1,22.7c0,25.4-25.9,27.7-33.3,27.7c-30.9,0-36.2-17.8-36.2-28.3H345.6z"/>
	</g>
	<polygon points="36.5,78.7 55.9,0 0,103.8 49.1,108.4 29.8,187.2 85.6,83.4 	"/>
</g>
</svg>
