%FSLAX35Y35*%
%MOMM*%
G04 EasyPC Gerber Version 18.0.9 Build 3640 *
%ADD11C,0.12700*%
%ADD12C,0.30480*%
%ADD13C,0.35000*%
X0Y0D02*
D02*
D11*
X301250Y7031420D02*
Y5736020D01*
X580650*
Y7031420*
X301250*
X434190Y7454080D02*
X426250Y7446140D01*
X410370Y7438200*
X386560*
X370690Y7446140*
X362750Y7454080*
X354810Y7469950*
Y7501700*
X362750Y7517580*
X370690Y7525520*
X386560Y7533450*
X410370*
X426250Y7525520*
X434190Y7517580*
X481810Y7469950D02*
Y7501700D01*
X489750Y7517580*
X497690Y7525520*
X513560Y7533450*
X529440*
X545310Y7525520*
X553250Y7517580*
X561190Y7501700*
Y7469950*
X553250Y7454080*
X545310Y7446140*
X529440Y7438200*
X513560*
X497690Y7446140*
X489750Y7454080*
X481810Y7469950*
X608810Y7438200D02*
Y7533450D01*
X688190Y7438200*
Y7533450*
X759620Y7438200D02*
X775500Y7446140D01*
X791370Y7462020*
X799310Y7485830*
Y7509640*
X791370Y7525520*
X775500Y7533450*
X759620*
X743750Y7525520*
X735810Y7509640*
X743750Y7493770*
X759620Y7485830*
X775500*
X791370Y7493770*
X799310Y7509640*
X445560Y1696090D02*
X477310D01*
X493190Y1688150*
X501130Y1680210*
X509060Y1664340*
Y1648460*
X501130Y1632590*
X493190Y1624650*
X477310Y1616710*
X445560*
X429690Y1624650*
X421750Y1632590*
X413810Y1648460*
Y1664340*
X421750Y1680210*
X429690Y1688150*
X445560Y1696090*
X437630Y1640530D02*
X413810Y1616710D01*
Y1569090D02*
X509060D01*
Y1513530*
X501130Y1497650*
X485250Y1489710*
X469380Y1497650*
X461440Y1513530*
Y1569090*
Y1513530D02*
X413810Y1489710D01*
Y1426210D02*
Y1394460D01*
Y1410340D02*
X509060D01*
X493190Y1426210*
X405110Y2917420D02*
X539730D01*
Y2605000*
X405110*
Y2917420*
X497580Y3740400D02*
Y4172200D01*
X846830*
Y3740400*
X497580*
X546950Y1626350D02*
X642200D01*
Y1578720*
X634270Y1562850*
X626330Y1554910*
X610450Y1546970*
X578700*
X562830Y1554910*
X554890Y1562850*
X546950Y1578720*
Y1626350*
Y1499350D02*
X642200D01*
Y1443790*
X634270Y1427910*
X618390Y1419970*
X602520Y1427910*
X594580Y1443790*
Y1499350*
Y1443790D02*
X546950Y1419970D01*
Y1372350D02*
X642200Y1308850D01*
Y1372350*
X581820Y2954580D02*
X677070D01*
Y2899020*
X669140Y2883140*
X653260Y2875200*
X637390Y2883140*
X629450Y2899020*
Y2954580*
Y2899020D02*
X581820Y2875200D01*
Y2827580D02*
X677070D01*
Y2772020*
X669140Y2756140*
X653260Y2748200*
X637390Y2756140*
X629450Y2772020*
Y2827580*
Y2772020D02*
X581820Y2748200D01*
Y2700580D02*
X677070Y2637080D01*
Y2700580*
X670130Y1615440D02*
Y1364640D01*
X805380*
Y1581790*
X771730Y1615440*
X670130*
X721940Y6990140D02*
X714000Y6998080D01*
X706060Y7013960*
Y7037770*
X714000Y7053640*
X721940Y7061580*
X737810Y7069520*
X769560*
X785440Y7061580*
X793380Y7053640*
X801310Y7037770*
Y7013960*
X793380Y6998080*
X785440Y6990140*
X737810Y6942520D02*
X769560D01*
X785440Y6934580*
X793380Y6926640*
X801310Y6910770*
Y6894890*
X793380Y6879020*
X785440Y6871080*
X769560Y6863140*
X737810*
X721940Y6871080*
X714000Y6879020*
X706060Y6894890*
Y6910770*
X714000Y6926640*
X721940Y6934580*
X737810Y6942520*
X706060Y6815520D02*
X801310D01*
X706060Y6736140*
X801310*
X753690Y6664710D02*
Y6648830D01*
X761630Y6632960*
X777500Y6625020*
X793380Y6632960*
X801310Y6648830*
Y6664710*
X793380Y6680580*
X777500Y6688520*
X761630Y6680580*
X753690Y6664710*
X745750Y6680580*
X729880Y6688520*
X714000Y6680580*
X706060Y6664710*
Y6648830*
X714000Y6632960*
X729880Y6625020*
X745750Y6632960*
X753690Y6648830*
X748090Y2545460D02*
X492840D01*
Y2377510*
X722690*
X748090Y2402910*
Y2545460*
X721430Y3271710D02*
X729370Y3263770D01*
X737310Y3247890*
Y3224080*
X729370Y3208210*
X721430Y3200270*
X705560Y3192330*
X673810*
X657930Y3200270*
X649990Y3208210*
X642060Y3224080*
Y3247890*
X649990Y3263770*
X657930Y3271710*
X705560Y3319330D02*
X673810D01*
X657930Y3327270*
X649990Y3335210*
X642060Y3351080*
Y3366960*
X649990Y3382830*
X657930Y3390770*
X673810Y3398710*
X705560*
X721430Y3390770*
X729370Y3382830*
X737310Y3366960*
Y3351080*
X729370Y3335210*
X721430Y3327270*
X705560Y3319330*
X737310Y3446330D02*
X642060D01*
X737310Y3525710*
X642060*
X737310Y3636830D02*
Y3573330D01*
X681740Y3628890*
X665870Y3636830*
X649990Y3628890*
X642060Y3613020*
Y3589210*
X649990Y3573330*
X764060Y2357000D02*
Y2261750D01*
X716430*
X700560Y2269680*
X692620Y2277620*
X684680Y2293500*
Y2325250*
X692620Y2341120*
X700560Y2349060*
X716430Y2357000*
X764060*
X637060D02*
Y2261750D01*
X581500*
X565620Y2269680*
X557680Y2285560*
X565620Y2301430*
X581500Y2309370*
X637060*
X581500D02*
X557680Y2357000D01*
X510060Y2333180D02*
X502120Y2317310D01*
X486250Y2309370*
X470370*
X454500Y2317310*
X446560Y2333180*
X454500Y2349060*
X470370Y2357000*
X486250*
X502120Y2349060*
X510060Y2333180*
Y2309370*
X502120Y2285560*
X486250Y2269680*
X470370Y2261750*
X790560Y2082140D02*
Y1722140D01*
X420560*
Y2082140*
X790560*
X824710Y8700090D02*
Y7607890D01*
X316710*
Y8700090*
X824710*
X829890Y1620890D02*
X964510D01*
Y1308470*
X829890*
Y1620890*
X849880Y4529990D02*
X841940Y4545870D01*
X826070Y4553810*
X794320*
X778440Y4545870*
X770500Y4529990*
X778440Y4514120*
X794320Y4506180*
X826070*
X841940Y4498240*
X849880Y4482370*
X841940Y4466490*
X826070Y4458560*
X794320*
X778440Y4466490*
X770500Y4482370*
X722880Y4458560D02*
X714940Y4553810D01*
X683190Y4506180*
X651440Y4553810*
X643500Y4458560*
X587940Y4545870D02*
X572070Y4553810D01*
X556190*
X540320Y4545870*
X532380Y4529990*
X540320Y4514120*
X556190Y4506180*
X572070*
X556190D02*
X540320Y4498240D01*
X532380Y4482370*
X540320Y4466490*
X556190Y4458560*
X572070*
X587940Y4466490*
X885430Y1867950D02*
Y4427950D01*
X3445430*
Y2067950*
X3245430Y1867950*
X885430*
X1012940Y1626350D02*
X1108190D01*
Y1570790*
X1100260Y1554910*
X1084380Y1546970*
X1068510Y1554910*
X1060570Y1570790*
Y1626350*
Y1570790D02*
X1012940Y1546970D01*
Y1499350D02*
X1108190D01*
Y1443790*
X1100260Y1427910*
X1084380Y1419970*
X1068510Y1427910*
X1060570Y1443790*
Y1499350*
Y1443790D02*
X1012940Y1419970D01*
X1036760Y1372350D02*
X1052630Y1364410D01*
X1060570Y1348540*
Y1332660*
X1052630Y1316790*
X1036760Y1308850*
X1020880Y1316790*
X1012940Y1332660*
Y1348540*
X1020880Y1364410*
X1036760Y1372350*
X1060570*
X1084380Y1364410*
X1100260Y1348540*
X1108190Y1332660*
X1087630Y5519030D02*
X1079690Y5534910D01*
X1063820Y5542850*
X1032070*
X1016190Y5534910*
X1008250Y5519030*
X1016190Y5503160*
X1032070Y5495220*
X1063820*
X1079690Y5487280*
X1087630Y5471410*
X1079690Y5455530*
X1063820Y5447600*
X1032070*
X1016190Y5455530*
X1008250Y5471410*
X960630Y5447600D02*
X952690Y5542850D01*
X920940Y5495220*
X889190Y5542850*
X881250Y5447600*
X770130Y5542850D02*
X833630D01*
X778070Y5487280*
X770130Y5471410*
X778070Y5455530*
X793940Y5447600*
X817750*
X833630Y5455530*
X1473350Y256690D02*
X2768750D01*
Y536090*
X1473350*
Y256690*
X1631320Y8229460D02*
X1726570D01*
Y8173900*
X1718640Y8158020*
X1702760Y8150080*
X1686890Y8158020*
X1678950Y8173900*
Y8229460*
Y8173900D02*
X1631320Y8150080D01*
Y8102460D02*
X1726570D01*
Y8046900*
X1718640Y8031020*
X1702760Y8023080*
X1686890Y8031020*
X1678950Y8046900*
Y8102460*
X1726570Y7975460D02*
X1631320Y7967520D01*
X1678950Y7935770*
X1631320Y7904020*
X1726570Y7896080*
X1631320Y7848460D02*
X1726570D01*
Y7792900*
X1718640Y7777020*
X1702760Y7769080*
X1686890Y7777020*
X1678950Y7792900*
Y7848460*
Y7792900D02*
X1631320Y7769080D01*
X1639260Y7713520D02*
X1631320Y7697650D01*
Y7681770*
X1639260Y7665900*
X1655140Y7657960*
X1671010Y7665900*
X1678950Y7681770*
Y7697650*
Y7681770D02*
X1686890Y7665900D01*
X1702760Y7657960*
X1718640Y7665900*
X1726570Y7681770*
Y7697650*
X1718640Y7713520*
X1613050Y269390D02*
Y205890D01*
X1666730Y8570550D02*
X1801350D01*
Y8258130*
X1666730*
Y8570550*
X1676640Y1483270D02*
X1244840D01*
Y1832520*
X1676640*
Y1483270*
X1784210Y1574110D02*
X1776270Y1566170D01*
X1760390Y1558230*
X1736580*
X1720710Y1566170*
X1712770Y1574110*
X1704830Y1589980*
Y1621730*
X1712770Y1637610*
X1720710Y1645550*
X1736580Y1653480*
X1760390*
X1776270Y1645550*
X1784210Y1637610*
X1831830Y1589980D02*
Y1621730D01*
X1839770Y1637610*
X1847710Y1645550*
X1863580Y1653480*
X1879460*
X1895330Y1645550*
X1903270Y1637610*
X1911210Y1621730*
Y1589980*
X1903270Y1574110*
X1895330Y1566170*
X1879460Y1558230*
X1863580*
X1847710Y1566170*
X1839770Y1574110*
X1831830Y1589980*
X1958830Y1558230D02*
Y1653480D01*
X2038210Y1558230*
Y1653480*
X2093770Y1566170D02*
X2109640Y1558230D01*
X2125520*
X2141390Y1566170*
X2149330Y1582050*
X2141390Y1597920*
X2125520Y1605860*
X2109640*
X2125520D02*
X2141390Y1613800D01*
X2149330Y1629670*
X2141390Y1645550*
X2125520Y1653480*
X2109640*
X2093770Y1645550*
X1736910Y931810D02*
X2949760D01*
Y1325510*
X1736910*
Y931810*
X1934150Y632620D02*
X1926210Y624680D01*
X1910330Y616740*
X1886520*
X1870650Y624680*
X1862710Y632620*
X1854770Y648490*
Y680240*
X1862710Y696120*
X1870650Y704060*
X1886520Y711990*
X1910330*
X1926210Y704060*
X1934150Y696120*
X1981770Y648490D02*
Y680240D01*
X1989710Y696120*
X1997650Y704060*
X2013520Y711990*
X2029400*
X2045270Y704060*
X2053210Y696120*
X2061150Y680240*
Y648490*
X2053210Y632620*
X2045270Y624680*
X2029400Y616740*
X2013520*
X1997650Y624680*
X1989710Y632620*
X1981770Y648490*
X2108770Y616740D02*
Y711990D01*
X2188150Y616740*
Y711990*
X2235770Y640560D02*
X2243710Y656430D01*
X2259580Y664370*
X2275460*
X2291330Y656430*
X2299270Y640560*
X2291330Y624680*
X2275460Y616740*
X2259580*
X2243710Y624680*
X2235770Y640560*
Y664370*
X2243710Y688180*
X2259580Y704060*
X2275460Y711990*
X1864280Y8107450D02*
Y8202700D01*
X1919840*
X1935720Y8194770*
X1943660Y8178890*
X1935720Y8163020*
X1919840Y8155080*
X1864280*
X1919840D02*
X1943660Y8107450D01*
X1991280D02*
Y8202700D01*
X2046840*
X2062720Y8194770*
X2070660Y8178890*
X2062720Y8163020*
X2046840Y8155080*
X1991280*
X2118280Y8202700D02*
X2126220Y8107450D01*
X2157970Y8155080*
X2189720Y8107450*
X2197660Y8202700*
X2245280Y8107450D02*
Y8202700D01*
X2300840*
X2316720Y8194770*
X2324660Y8178890*
X2316720Y8163020*
X2300840Y8155080*
X2245280*
X2300840D02*
X2324660Y8107450D01*
X2411970D02*
Y8202700D01*
X2372280Y8139200*
X2435780*
X1867050Y269390D02*
Y205890D01*
X1927540Y8675490D02*
Y8826290D01*
X1616740*
Y8719140*
X1660390Y8675490*
X1927540*
X1933430Y8251780D02*
Y8386400D01*
X2245850*
Y8251780*
X1933430*
X1975800Y4974180D02*
X762950D01*
Y4580480*
X1975800*
Y4974180*
Y5383110D02*
X762950D01*
Y4989410*
X1975800*
Y5383110*
X2086180Y818080D02*
X2094120Y802200D01*
X2109990Y794260*
X2141740*
X2157620Y802200*
X2165560Y818080*
X2157620Y833950*
X2141740Y841890*
X2109990*
X2094120Y849830*
X2086180Y865700*
X2094120Y881580*
X2109990Y889510*
X2141740*
X2157620Y881580*
X2165560Y865700*
X2213180Y889510D02*
X2221120Y794260D01*
X2252870Y841890*
X2284620Y794260*
X2292560Y889510*
X2395740Y841890D02*
X2411620Y833950D01*
X2419560Y818080*
X2411620Y802200*
X2395740Y794260*
X2340180*
Y889510*
X2395740*
X2411620Y881580*
X2419560Y865700*
X2411620Y849830*
X2395740Y841890*
X2340180*
X2483060Y794260D02*
X2514810D01*
X2498930D02*
Y889510D01*
X2483060Y873640*
X2121050Y269390D02*
Y205890D01*
X2220450Y8576900D02*
Y8442280D01*
X1908030*
Y8576900*
X2220450*
X2165300Y4607670D02*
X2173240Y4615610D01*
X2189120Y4623550*
X2212930*
X2228800Y4615610*
X2236740Y4607670*
X2244680Y4591800*
Y4560050*
X2236740Y4544170*
X2228800Y4536230*
X2212930Y4528300*
X2189120*
X2173240Y4536230*
X2165300Y4544170*
X2117680Y4623550D02*
Y4528300D01*
X2062120*
X2046240Y4536230*
X2038300Y4552110*
X2046240Y4567980*
X2062120Y4575920*
X2117680*
X2062120D02*
X2038300Y4623550D01*
X1974800D02*
X1943050D01*
X1958930D02*
Y4528300D01*
X1974800Y4544170*
X2250600Y7588900D02*
X2784000D01*
Y7868300*
X2250600*
Y7588900*
X2306340Y8271640D02*
X2457140D01*
Y8582440*
X2349990*
X2306340Y8538790*
Y8271640*
X2254060Y4931010D02*
X2262000Y4938950D01*
X2277880Y4946890*
X2301690*
X2317560Y4938950*
X2325500Y4931010*
X2333440Y4915140*
Y4883390*
X2325500Y4867510*
X2317560Y4859570*
X2301690Y4851640*
X2277880*
X2262000Y4859570*
X2254060Y4867510*
X2206440Y4946890D02*
Y4851640D01*
X2150880*
X2135000Y4859570*
X2127060Y4875450*
X2135000Y4891320*
X2150880Y4899260*
X2206440*
X2150880D02*
X2127060Y4946890D01*
X2015940D02*
X2079440D01*
X2023880Y4891320*
X2015940Y4875450*
X2023880Y4859570*
X2039750Y4851640*
X2063560*
X2079440Y4859570*
X2260400Y5159250D02*
X2268340Y5167190D01*
X2284220Y5175130*
X2308030*
X2323900Y5167190*
X2331840Y5159250*
X2339780Y5143380*
Y5111630*
X2331840Y5095750*
X2323900Y5087810*
X2308030Y5079880*
X2284220*
X2268340Y5087810*
X2260400Y5095750*
X2212780Y5175130D02*
Y5079880D01*
X2157220*
X2141340Y5087810*
X2133400Y5103690*
X2141340Y5119560*
X2157220Y5127500*
X2212780*
X2157220D02*
X2133400Y5175130D01*
X2077840Y5167190D02*
X2061970Y5175130D01*
X2046090*
X2030220Y5167190*
X2022280Y5151310*
X2030220Y5135440*
X2046090Y5127500*
X2061970*
X2046090D02*
X2030220Y5119560D01*
X2022280Y5103690*
X2030220Y5087810*
X2046090Y5079880*
X2061970*
X2077840Y5087810*
X2224580Y9042990D02*
X2296010D01*
X2311890Y9050930*
X2319830Y9066800*
Y9098550*
X2311890Y9114430*
X2296010Y9122370*
X2224580*
X2319830Y9169990D02*
X2224580Y9233490D01*
Y9169990*
X2375050Y269390D02*
Y205890D01*
X2378460Y4821760D02*
Y4956380D01*
X2690880*
Y4821760*
X2378460*
Y5043660D02*
Y5178280D01*
X2690880*
Y5043660*
X2378460*
X2378660Y9025840D02*
X2516460D01*
Y9123640*
X2378660*
Y9025840*
X2407210Y9033190D02*
X2407570Y9030920D01*
X2408610Y9028870*
X2410240Y9027240*
X2412290Y9026200*
X2414560Y9025840*
X2416830Y9026200*
X2418880Y9027240*
X2420510Y9028870*
X2421550Y9030920*
X2421910Y9033190*
X2421550Y9035460*
X2420510Y9037510*
X2418880Y9039140*
X2416830Y9040180*
X2414560Y9040540*
X2412290Y9040180*
X2410240Y9039140*
X2408610Y9037510*
X2407570Y9035460*
X2407210Y9033190*
G36*
X2407570Y9030920*
X2408610Y9028870*
X2410240Y9027240*
X2412290Y9026200*
X2414560Y9025840*
X2416830Y9026200*
X2418880Y9027240*
X2420510Y9028870*
X2421550Y9030920*
X2421910Y9033190*
X2421550Y9035460*
X2420510Y9037510*
X2418880Y9039140*
X2416830Y9040180*
X2414560Y9040540*
X2412290Y9040180*
X2410240Y9039140*
X2408610Y9037510*
X2407570Y9035460*
X2407210Y9033190*
G37*
X2419030Y7473480D02*
X2426970Y7465540D01*
X2442840Y7457600*
X2458720Y7465540*
X2466660Y7473480*
Y7552850*
X2482530*
X2466660D02*
X2434910D01*
X2546030Y7457600D02*
Y7552850D01*
X2593660*
X2609530Y7544920*
X2617470Y7536980*
X2625410Y7521100*
Y7489350*
X2617470Y7473480*
X2609530Y7465540*
X2593660Y7457600*
X2546030*
X2688910D02*
X2720660D01*
X2704780D02*
Y7552850D01*
X2688910Y7536980*
X2487220Y8746170D02*
X2582470D01*
Y8698540*
X2574540Y8682670*
X2566600Y8674730*
X2550720Y8666790*
X2518970*
X2503100Y8674730*
X2495160Y8682670*
X2487220Y8698540*
Y8746170*
Y8619170D02*
X2582470D01*
Y8563610*
X2574540Y8547730*
X2558660Y8539790*
X2542790Y8547730*
X2534850Y8563610*
Y8619170*
X2582470Y8492170D02*
X2487220Y8484230D01*
X2534850Y8452480*
X2487220Y8420730*
X2582470Y8412790*
X2487220Y8365170D02*
X2582470D01*
Y8309610*
X2574540Y8293730*
X2558660Y8285790*
X2542790Y8293730*
X2534850Y8309610*
Y8365170*
Y8309610D02*
X2487220Y8285790D01*
X2495160Y8230230D02*
X2487220Y8214360D01*
Y8198480*
X2495160Y8182610*
X2511040Y8174670*
X2526910Y8182610*
X2534850Y8198480*
Y8214360*
Y8198480D02*
X2542790Y8182610D01*
X2558660Y8174670*
X2574540Y8182610*
X2582470Y8198480*
Y8214360*
X2574540Y8230230*
X2433800Y1786370D02*
X2441740Y1794310D01*
X2457620Y1802250*
X2481430*
X2497300Y1794310*
X2505240Y1786370*
X2513180Y1770500*
Y1738750*
X2505240Y1722870*
X2497300Y1714930*
X2481430Y1707000*
X2457620*
X2441740Y1714930*
X2433800Y1722870*
X2386180Y1770500D02*
Y1738750D01*
X2378240Y1722870*
X2370300Y1714930*
X2354430Y1707000*
X2338550*
X2322680Y1714930*
X2314740Y1722870*
X2306800Y1738750*
Y1770500*
X2314740Y1786370*
X2322680Y1794310*
X2338550Y1802250*
X2354430*
X2370300Y1794310*
X2378240Y1786370*
X2386180Y1770500*
X2259180Y1802250D02*
Y1707000D01*
X2179800Y1802250*
Y1707000*
X2116300Y1802250D02*
X2084550D01*
X2100430D02*
Y1707000D01*
X2116300Y1722870*
X2575980Y9269220D02*
X2671230D01*
Y9221590*
X2663300Y9205720*
X2655360Y9197780*
X2639480Y9189840*
X2607730*
X2591860Y9197780*
X2583920Y9205720*
X2575980Y9221590*
Y9269220*
Y9142220D02*
X2671230D01*
Y9086660*
X2663300Y9070780*
X2647420Y9062840*
X2631550Y9070780*
X2623610Y9086660*
Y9142220*
X2671230Y9015220D02*
X2575980Y9007280D01*
X2623610Y8975530*
X2575980Y8943780*
X2671230Y8935840*
X2575980Y8888220D02*
X2671230D01*
Y8832660*
X2663300Y8816780*
X2647420Y8808840*
X2631550Y8816780*
X2623610Y8832660*
Y8888220*
Y8832660D02*
X2575980Y8808840D01*
Y8721530D02*
X2671230D01*
X2607730Y8761220*
Y8697720*
X2629050Y269390D02*
Y205890D01*
X2607610Y5408160D02*
X2512360D01*
Y5455790*
X2520290Y5471660*
X2528230Y5479600*
X2544110Y5487540*
X2575860*
X2591730Y5479600*
X2599670Y5471660*
X2607610Y5455790*
Y5408160*
X2512360Y5535160D02*
Y5614540D01*
X2607610Y5535160*
Y5614540*
Y5662160D02*
X2512360D01*
Y5717720*
X2520290Y5733600*
X2536170Y5741540*
X2552040Y5733600*
X2559980Y5717720*
Y5662160*
Y5717720D02*
X2607610Y5741540D01*
Y5805040D02*
Y5836790D01*
Y5820910D02*
X2512360D01*
X2528230Y5805040*
X2690880Y5367690D02*
Y5233070D01*
X2378460*
Y5367690*
X2690880*
X2694490Y9271590D02*
X3291390D01*
Y8496890*
X2757990*
X2694490Y8560390*
Y9271590*
X2746290Y4734330D02*
X2269290D01*
Y4503330*
X2746290*
Y4734330*
X2862750Y8061670D02*
X2958000D01*
Y8014040*
X2950070Y7998170*
X2942130Y7990230*
X2926250Y7982290*
X2894500*
X2878630Y7990230*
X2870690Y7998170*
X2862750Y8014040*
Y8061670*
X2878630Y7855290D02*
X2870690Y7863230D01*
X2862750Y7879110*
Y7902920*
X2870690Y7918790*
X2878630Y7926730*
X2894500Y7934670*
X2926250*
X2942130Y7926730*
X2950070Y7918790*
X2958000Y7902920*
Y7879110*
X2950070Y7863230*
X2942130Y7855290*
X2862750Y7791790D02*
Y7760040D01*
Y7775920D02*
X2958000D01*
X2942130Y7791790*
X2976200Y6221670D02*
X2968260Y6213730D01*
X2952380Y6205790*
X2928570*
X2912700Y6213730*
X2904760Y6221670*
X2896820Y6237540*
Y6269290*
X2904760Y6285170*
X2912700Y6293110*
X2928570Y6301040*
X2952380*
X2968260Y6293110*
X2976200Y6285170*
X3103200Y6221670D02*
X3095260Y6213730D01*
X3079380Y6205790*
X3055570*
X3039700Y6213730*
X3031760Y6221670*
X3023820Y6237540*
Y6269290*
X3031760Y6285170*
X3039700Y6293110*
X3055570Y6301040*
X3079380*
X3095260Y6293110*
X3103200Y6285170*
X3174630Y6253420D02*
X3190510D01*
X3206380Y6261360*
X3214320Y6277230*
X3206380Y6293110*
X3190510Y6301040*
X3174630*
X3158760Y6293110*
X3150820Y6277230*
X3158760Y6261360*
X3174630Y6253420*
X3158760Y6245480*
X3150820Y6229610*
X3158760Y6213730*
X3174630Y6205790*
X3190510*
X3206380Y6213730*
X3214320Y6229610*
X3206380Y6245480*
X3190510Y6253420*
X2862020Y5791860D02*
X2869960Y5783920D01*
X2877900Y5768040*
Y5744230*
X2869960Y5728360*
X2862020Y5720420*
X2846150Y5712480*
X2814400*
X2798520Y5720420*
X2790580Y5728360*
X2782650Y5744230*
Y5768040*
X2790580Y5783920*
X2798520Y5791860*
X2862020Y5918860D02*
X2869960Y5910920D01*
X2877900Y5895040*
Y5871230*
X2869960Y5855360*
X2862020Y5847420*
X2846150Y5839480*
X2814400*
X2798520Y5847420*
X2790580Y5855360*
X2782650Y5871230*
Y5895040*
X2790580Y5910920*
X2798520Y5918860*
X2877900Y5966480D02*
X2782650Y6029980D01*
Y5966480*
X2931110Y5767960D02*
Y5902580D01*
X3243530*
Y5767960*
X2931110*
Y6025770D02*
Y6160390D01*
X3243530*
Y6025770*
X2931110*
X2911900Y5180050D02*
X2919840Y5172110D01*
X2927780Y5156230*
Y5132420*
X2919840Y5116550*
X2911900Y5108610*
X2896030Y5100670*
X2864280*
X2848400Y5108610*
X2840460Y5116550*
X2832530Y5132420*
Y5156230*
X2840460Y5172110*
X2848400Y5180050*
X2911900Y5307050D02*
X2919840Y5299110D01*
X2927780Y5283230*
Y5259420*
X2919840Y5243550*
X2911900Y5235610*
X2896030Y5227670*
X2864280*
X2848400Y5235610*
X2840460Y5243550*
X2832530Y5259420*
Y5283230*
X2840460Y5299110*
X2848400Y5307050*
X2927780Y5370550D02*
Y5402300D01*
Y5386420D02*
X2832530D01*
X2848400Y5370550*
X2924580Y288610D02*
X2932520Y296550D01*
X2940460Y312420*
X2932520Y328300*
X2924580Y336240*
X2845210*
Y352110*
Y336240D02*
Y304490D01*
X2892830Y471170D02*
X2900770Y487050D01*
X2916640Y494990*
X2932520Y487050*
X2940460Y471170*
Y415610*
X2845210*
Y471170*
X2853140Y487050*
X2869020Y494990*
X2884890Y487050*
X2892830Y471170*
Y415610*
X2940460Y582300D02*
X2845210D01*
Y542610D02*
Y621990D01*
X2940460Y669610D02*
X2845210Y748990D01*
Y669610D02*
X2940460Y748990D01*
X2966340Y4916070D02*
Y5050690D01*
X3278760*
Y4916070*
X2966340*
Y5140280D02*
Y5274900D01*
X3278760*
Y5140280*
X2966340*
Y5330780D02*
Y5465400D01*
X3278760*
Y5330780*
X2966340*
X2982680Y1492780D02*
X2550880D01*
Y1842030*
X2982680*
Y1492780*
X3011840Y8067370D02*
X3424690D01*
Y7820370*
X3425040*
X3367890Y7763220*
X3011840*
Y8067370*
X3116750Y7418200D02*
X3212000D01*
Y7362640*
X3204070Y7346760*
X3188190Y7338820*
X3172320Y7346760*
X3164380Y7362640*
Y7418200*
Y7362640D02*
X3116750Y7338820D01*
X3132630Y7211820D02*
X3124690Y7219760D01*
X3116750Y7235640*
Y7259450*
X3124690Y7275320*
X3132630Y7283260*
X3148500Y7291200*
X3180250*
X3196130Y7283260*
X3204070Y7275320*
X3212000Y7259450*
Y7235640*
X3204070Y7219760*
X3196130Y7211820*
X3116750Y7100700D02*
Y7164200D01*
X3172320Y7108640*
X3188190Y7100700*
X3204070Y7108640*
X3212000Y7124510*
Y7148320*
X3204070Y7164200*
X3094690Y1627260D02*
X3166120D01*
X3182000Y1635200*
X3189940Y1651070*
Y1682820*
X3182000Y1698700*
X3166120Y1706640*
X3094690*
X3189940Y1817760D02*
Y1754260D01*
X3134370Y1809820*
X3118500Y1817760*
X3102620Y1809820*
X3094690Y1793950*
Y1770140*
X3102620Y1754260*
X3256130Y259660D02*
Y793060D01*
X2976730*
Y259660*
X3256130*
X3272640Y5694000D02*
Y5559380D01*
X2960220*
Y5694000*
X3272640*
X3308840Y9184280D02*
X3316780Y9176340D01*
X3332650Y9168400*
X3348530Y9176340*
X3356470Y9184280*
Y9263650*
X3372340*
X3356470D02*
X3324720D01*
X3435840Y9192220D02*
X3443780Y9176340D01*
X3459650Y9168400*
X3491400*
X3507280Y9176340*
X3515220Y9192220*
X3507280Y9208090*
X3491400Y9216030*
X3459650*
X3443780Y9223970*
X3435840Y9239840*
X3443780Y9255720*
X3459650Y9263650*
X3491400*
X3507280Y9255720*
X3515220Y9239840*
X3602530Y9168400D02*
Y9263650D01*
X3562840D02*
X3642220D01*
X3705720Y9168400D02*
X3737470D01*
X3721590D02*
Y9263650D01*
X3705720Y9247780*
X3312970Y5033880D02*
Y4938630D01*
X3392350*
X3519350Y4954510D02*
X3511410Y4946570D01*
X3495530Y4938630*
X3471720*
X3455850Y4946570*
X3447910Y4954510*
X3439970Y4970380*
Y5002130*
X3447910Y5018010*
X3455850Y5025950*
X3471720Y5033880*
X3495530*
X3511410Y5025950*
X3519350Y5018010*
X3582850Y4938630D02*
X3614600D01*
X3598720D02*
Y5033880D01*
X3582850Y5018010*
X3414540Y5606350D02*
X3406600Y5598410D01*
X3390720Y5590470*
X3366910*
X3351040Y5598410*
X3343100Y5606350*
X3335160Y5622220*
Y5653970*
X3343100Y5669850*
X3351040Y5677790*
X3366910Y5685720*
X3390720*
X3406600Y5677790*
X3414540Y5669850*
X3541540Y5606350D02*
X3533600Y5598410D01*
X3517720Y5590470*
X3493910*
X3478040Y5598410*
X3470100Y5606350*
X3462160Y5622220*
Y5653970*
X3470100Y5669850*
X3478040Y5677790*
X3493910Y5685720*
X3517720*
X3533600Y5677790*
X3541540Y5669850*
X3612970Y5590470D02*
X3628850Y5598410D01*
X3644720Y5614290*
X3652660Y5638100*
Y5661910*
X3644720Y5677790*
X3628850Y5685720*
X3612970*
X3597100Y5677790*
X3589160Y5661910*
X3597100Y5646040*
X3612970Y5638100*
X3628850*
X3644720Y5646040*
X3652660Y5661910*
X3342720Y6186480D02*
Y5745680D01*
X3568520*
Y6186480*
X3342720*
X3372340Y8661990D02*
X3905740D01*
Y8941390*
X3372340*
Y8661990*
X3385040Y9006480D02*
X3392980Y8998540D01*
X3408850Y8990600*
X3424730Y8998540*
X3432670Y9006480*
Y9085850*
X3448540*
X3432670D02*
X3400920D01*
X3512040Y8990600D02*
Y9085850D01*
X3567600*
X3583480Y9077920*
X3591420Y9062040*
X3583480Y9046170*
X3567600Y9038230*
X3512040*
X3639040Y9085850D02*
X3646980Y8990600D01*
X3678730Y9038230*
X3710480Y8990600*
X3718420Y9085850*
X3766040Y8990600D02*
Y9085850D01*
X3821600*
X3837480Y9077920*
X3845420Y9062040*
X3837480Y9046170*
X3821600Y9038230*
X3766040*
X3821600D02*
X3845420Y8990600D01*
X3956540D02*
X3893040D01*
X3948600Y9046170*
X3956540Y9062040*
X3948600Y9077920*
X3932730Y9085850*
X3908920*
X3893040Y9077920*
X3388850Y7096890D02*
X3254230D01*
Y7409310*
X3388850*
Y7096890*
X3395390Y7622440D02*
Y7717690D01*
X3450950*
X3466830Y7709760*
X3474770Y7693880*
X3466830Y7678010*
X3450950Y7670070*
X3395390*
X3450950D02*
X3474770Y7622440D01*
X3601770Y7638320D02*
X3593830Y7630380D01*
X3577950Y7622440*
X3554140*
X3538270Y7630380*
X3530330Y7638320*
X3522390Y7654190*
Y7685940*
X3530330Y7701820*
X3538270Y7709760*
X3554140Y7717690*
X3577950*
X3593830Y7709760*
X3601770Y7701820*
X3657330Y7630380D02*
X3673200Y7622440D01*
X3689080*
X3704950Y7630380*
X3712890Y7646260*
X3704950Y7662130*
X3689080Y7670070*
X3673200*
X3689080D02*
X3704950Y7678010D01*
X3712890Y7693880*
X3704950Y7709760*
X3689080Y7717690*
X3673200*
X3657330Y7709760*
X3489800Y4326730D02*
X3481860Y4318790D01*
X3465980Y4310850*
X3442170*
X3426300Y4318790*
X3418360Y4326730*
X3410420Y4342600*
Y4374350*
X3418360Y4390230*
X3426300Y4398170*
X3442170Y4406100*
X3465980*
X3481860Y4398170*
X3489800Y4390230*
X3537420Y4310850D02*
Y4406100D01*
X3592980*
X3608860Y4398170*
X3616800Y4382290*
X3608860Y4366420*
X3592980Y4358480*
X3537420*
X3592980D02*
X3616800Y4310850D01*
X3664420Y4318790D02*
X3680300Y4310850D01*
X3704110*
X3719980Y4318790*
X3727920Y4334670*
Y4342600*
X3719980Y4358480*
X3704110Y4366420*
X3664420*
Y4406100*
X3727920*
X3409590Y5329040D02*
X3417530Y5321100D01*
X3425470Y5305220*
Y5281410*
X3417530Y5265540*
X3409590Y5257600*
X3393720Y5249660*
X3361970*
X3346090Y5257600*
X3338150Y5265540*
X3330220Y5281410*
Y5305220*
X3338150Y5321100*
X3346090Y5329040*
X3409590Y5456040D02*
X3417530Y5448100D01*
X3425470Y5432220*
Y5408410*
X3417530Y5392540*
X3409590Y5384600*
X3393720Y5376660*
X3361970*
X3346090Y5384600*
X3338150Y5392540*
X3330220Y5408410*
Y5432220*
X3338150Y5448100*
X3346090Y5456040*
X3425470Y5567160D02*
Y5503660D01*
X3369900Y5559220*
X3354030Y5567160*
X3338150Y5559220*
X3330220Y5543350*
Y5519540*
X3338150Y5503660*
X3461220Y4172740D02*
X3595840D01*
Y3860320*
X3461220*
Y4172740*
X3470130Y8429580D02*
Y8564200D01*
X3782550*
Y8429580*
X3470130*
X3498930Y2347950D02*
X3499330Y2340840D01*
X3500520Y2333820*
X3502490Y2326980*
X3505210Y2320400*
X3508650Y2314170*
X3512770Y2308360*
X3517510Y2303050*
X3522820Y2298300*
X3528630Y2294180*
X3534860Y2290730*
X3541440Y2288000*
X3548280Y2286030*
X3555300Y2284840*
X3562410Y2284440*
X3569520Y2284840*
X3576540Y2286030*
X3583380Y2288000*
X3589960Y2290720*
X3596190Y2294160*
X3602000Y2298280*
X3607310Y2303020*
X3612060Y2308330*
X3616180Y2314140*
X3619630Y2320370*
X3622360Y2326950*
X3624330Y2333790*
X3625530Y2340810*
X3625930Y2347950*
X3625530Y2355060*
X3624340Y2362080*
X3622370Y2368920*
X3619650Y2375500*
X3616210Y2381730*
X3612090Y2387540*
X3607350Y2392850*
X3602040Y2397600*
X3596230Y2401720*
X3590000Y2405170*
X3583420Y2407900*
X3576580Y2409870*
X3569560Y2411060*
X3562450Y2411460*
X3555340Y2411060*
X3548320Y2409870*
X3541480Y2407900*
X3534900Y2405180*
X3528670Y2401740*
X3522860Y2397620*
X3517550Y2392880*
X3512800Y2387570*
X3508680Y2381760*
X3505230Y2375530*
X3502500Y2368950*
X3500530Y2362110*
X3499330Y2355090*
X3498930Y2347950*
G36*
X3499330Y2340840*
X3500520Y2333820*
X3502490Y2326980*
X3505210Y2320400*
X3508650Y2314170*
X3512770Y2308360*
X3517510Y2303050*
X3522820Y2298300*
X3528630Y2294180*
X3534860Y2290730*
X3541440Y2288000*
X3548280Y2286030*
X3555300Y2284840*
X3562410Y2284440*
X3569520Y2284840*
X3576540Y2286030*
X3583380Y2288000*
X3589960Y2290720*
X3596190Y2294160*
X3602000Y2298280*
X3607310Y2303020*
X3612060Y2308330*
X3616180Y2314140*
X3619630Y2320370*
X3622360Y2326950*
X3624330Y2333790*
X3625530Y2340810*
X3625930Y2347950*
X3625530Y2355060*
X3624340Y2362080*
X3622370Y2368920*
X3619650Y2375500*
X3616210Y2381730*
X3612090Y2387540*
X3607350Y2392850*
X3602040Y2397600*
X3596230Y2401720*
X3590000Y2405170*
X3583420Y2407900*
X3576580Y2409870*
X3569560Y2411060*
X3562450Y2411460*
X3555340Y2411060*
X3548320Y2409870*
X3541480Y2407900*
X3534900Y2405180*
X3528670Y2401740*
X3522860Y2397620*
X3517550Y2392880*
X3512800Y2387570*
X3508680Y2381760*
X3505230Y2375530*
X3502500Y2368950*
X3500530Y2362110*
X3499330Y2355090*
X3498930Y2347950*
G37*
X3503360Y3198550D02*
Y2943300D01*
X3671310*
Y3173150*
X3645910Y3198550*
X3503360*
X3561850Y2193780D02*
X3657100D01*
Y2138220*
X3649170Y2122340*
X3633290Y2114400*
X3617420Y2122340*
X3609480Y2138220*
Y2193780*
Y2138220D02*
X3561850Y2114400D01*
Y2066780D02*
X3657100D01*
Y2011220*
X3649170Y1995340*
X3633290Y1987400*
X3617420Y1995340*
X3609480Y2011220*
Y2066780*
Y2011220D02*
X3561850Y1987400D01*
Y1900090D02*
X3657100D01*
X3593600Y1939780*
Y1876280*
X3505010Y7049090D02*
X3520890Y7057030D01*
X3528830Y7072900*
Y7104650*
X3520890Y7120530*
X3505010Y7128470*
X3489140Y7120530*
X3481200Y7104650*
Y7072900*
X3473260Y7057030*
X3457390Y7049090*
X3441510Y7057030*
X3433580Y7072900*
Y7104650*
X3441510Y7120530*
X3457390Y7128470*
X3433580Y7176090D02*
X3528830Y7184030D01*
X3481200Y7215780*
X3528830Y7247530*
X3433580Y7255470*
X3512950Y7382470D02*
X3520890Y7374530D01*
X3528830Y7358650*
Y7334840*
X3520890Y7318970*
X3512950Y7311030*
X3497080Y7303090*
X3465330*
X3449450Y7311030*
X3441510Y7318970*
X3433580Y7334840*
Y7358650*
X3441510Y7374530*
X3449450Y7382470*
X3528830Y7445970D02*
Y7477720D01*
Y7461840D02*
X3433580D01*
X3449450Y7445970*
X3572740Y7042740D02*
X4785590D01*
Y7436440*
X3572740*
Y7042740*
X3576300Y259660D02*
Y793060D01*
X3296900*
Y259660*
X3576300*
X3579350Y7749910D02*
X3444730D01*
Y8062330*
X3579350*
Y7749910*
X3561780Y3220860D02*
X3466530D01*
Y3268490*
X3474460Y3284360*
X3482400Y3292300*
X3498280Y3300240*
X3530030*
X3545900Y3292300*
X3553840Y3284360*
X3561780Y3268490*
Y3220860*
Y3347860D02*
X3466530D01*
Y3403420*
X3474460Y3419300*
X3490340Y3427240*
X3506210Y3419300*
X3514150Y3403420*
Y3347860*
Y3403420D02*
X3561780Y3427240D01*
X3553840Y3474860D02*
X3561780Y3490740D01*
Y3514550*
X3553840Y3530420*
X3537960Y3538360*
X3530030*
X3514150Y3530420*
X3506210Y3514550*
Y3474860*
X3466530*
Y3538360*
X3604730Y3709230D02*
X3859980D01*
Y3877180*
X3630130*
X3604730Y3851780*
Y3709230*
X3631830Y6211880D02*
X3727080Y6132500D01*
Y6211880D02*
X3631830Y6132500D01*
Y6045190D02*
X3727080D01*
Y6084880D02*
Y6005500D01*
X3647710Y5878500D02*
X3639770Y5886440D01*
X3631830Y5902320*
Y5926130*
X3639770Y5942000*
X3647710Y5949940*
X3663580Y5957880*
X3695330*
X3711210Y5949940*
X3719150Y5942000*
X3727080Y5926130*
Y5902320*
X3719150Y5886440*
X3711210Y5878500*
X3631830Y5815000D02*
Y5783250D01*
Y5799130D02*
X3727080D01*
X3711210Y5815000*
X3656980Y8314920D02*
X3649040Y8322860D01*
X3641100Y8338740*
Y8362550*
X3649040Y8378420*
X3656980Y8386360*
X3672850Y8394300*
X3704600*
X3720480Y8386360*
X3728420Y8378420*
X3736350Y8362550*
Y8338740*
X3728420Y8322860*
X3720480Y8314920*
X3641100Y8267300D02*
X3736350D01*
Y8211740*
X3728420Y8195860*
X3712540Y8187920*
X3696670Y8195860*
X3688730Y8211740*
Y8267300*
X3736350Y8140300D02*
X3641100Y8132360D01*
X3688730Y8100610*
X3641100Y8068860*
X3736350Y8060920*
X3641100Y8013300D02*
X3736350D01*
Y7957740*
X3728420Y7941860*
X3712540Y7933920*
X3696670Y7941860*
X3688730Y7957740*
Y8013300*
Y7957740D02*
X3641100Y7933920D01*
Y7870420D02*
Y7838670D01*
Y7854550D02*
X3736350D01*
X3720480Y7870420*
X3648990Y3907200D02*
Y4002450D01*
X3696620*
X3712490Y3994520*
X3720430Y3986580*
X3728370Y3970700*
Y3938950*
X3720430Y3923080*
X3712490Y3915140*
X3696620Y3907200*
X3648990*
X3775990D02*
Y4002450D01*
X3831550*
X3847430Y3994520*
X3855370Y3978640*
X3847430Y3962770*
X3831550Y3954830*
X3775990*
X3831550D02*
X3855370Y3907200D01*
X3910930Y3915140D02*
X3926800Y3907200D01*
X3942680*
X3958550Y3915140*
X3966490Y3931020*
X3958550Y3946890*
X3942680Y3954830*
X3926800*
X3942680D02*
X3958550Y3962770D01*
X3966490Y3978640*
X3958550Y3994520*
X3942680Y4002450*
X3926800*
X3910930Y3994520*
X3714010Y2707320D02*
X3809260D01*
Y2651760*
X3801330Y2635880*
X3785450Y2627940*
X3769580Y2635880*
X3761640Y2651760*
Y2707320*
Y2651760D02*
X3714010Y2627940D01*
Y2580320D02*
X3809260D01*
Y2524760*
X3801330Y2508880*
X3785450Y2500940*
X3769580Y2508880*
X3761640Y2524760*
Y2580320*
Y2524760D02*
X3714010Y2500940D01*
X3721950Y2445380D02*
X3714010Y2429510D01*
Y2413630*
X3721950Y2397760*
X3737830Y2389820*
X3753700Y2397760*
X3761640Y2413630*
Y2429510*
Y2413630D02*
X3769580Y2397760D01*
X3785450Y2389820*
X3801330Y2397760*
X3809260Y2413630*
Y2429510*
X3801330Y2445380*
X3697280Y2528920D02*
X3562660D01*
Y2841340*
X3697280*
Y2528920*
X3708480Y3668710D02*
X3843100D01*
Y3356290*
X3708480*
Y3668710*
X3708940Y6408360D02*
X3716880Y6400420D01*
X3732750Y6392480*
X3748630Y6400420*
X3756570Y6408360*
Y6487730*
X3772440*
X3756570D02*
X3724820D01*
X3915320Y6408360D02*
X3907380Y6400420D01*
X3891500Y6392480*
X3867690*
X3851820Y6400420*
X3843880Y6408360*
X3835940Y6424230*
Y6455980*
X3843880Y6471860*
X3851820Y6479800*
X3867690Y6487730*
X3891500*
X3907380Y6479800*
X3915320Y6471860*
X3970880Y6400420D02*
X3986750Y6392480D01*
X4002630*
X4018500Y6400420*
X4026440Y6416300*
X4018500Y6432170*
X4002630Y6440110*
X3986750*
X4002630D02*
X4018500Y6448050D01*
X4026440Y6463920*
X4018500Y6479800*
X4002630Y6487730*
X3986750*
X3970880Y6479800*
X3688580Y3296940D02*
X3593330D01*
Y3352500*
X3601260Y3368380*
X3617140Y3376320*
X3633010Y3368380*
X3640950Y3352500*
Y3296940*
Y3352500D02*
X3688580Y3376320D01*
Y3423940D02*
X3593330D01*
Y3479500*
X3601260Y3495380*
X3617140Y3503320*
X3633010Y3495380*
X3640950Y3479500*
Y3423940*
Y3479500D02*
X3688580Y3503320D01*
Y3566820D02*
Y3598570D01*
Y3582690D02*
X3593330D01*
X3609200Y3566820*
X3679040Y291780D02*
X3686980Y299720D01*
X3694920Y315590*
X3686980Y331470*
X3679040Y339410*
X3599670*
Y355280*
Y339410D02*
Y307660D01*
X3647290Y474340D02*
X3655230Y490220D01*
X3671100Y498160*
X3686980Y490220*
X3694920Y474340*
Y418780*
X3599670*
Y474340*
X3607600Y490220*
X3623480Y498160*
X3639350Y490220*
X3647290Y474340*
Y418780*
X3694920Y545780D02*
X3599670D01*
Y601340*
X3607600Y617220*
X3623480Y625160*
X3639350Y617220*
X3647290Y601340*
Y545780*
Y601340D02*
X3694920Y625160D01*
Y672780D02*
X3599670Y752160D01*
Y672780D02*
X3694920Y752160D01*
X3747040Y6539630D02*
X4020090D01*
Y6819030*
X3747040*
Y6539630*
X3756170Y580250D02*
X4835170D01*
Y263250*
X3819670*
X3756170Y326750*
Y580250*
X3826140Y5939790D02*
X3823240Y5939410D01*
X3820540Y5938290*
X3818220Y5936510*
X3816440Y5934190*
X3815320Y5931490*
X3814940Y5928590*
X3815320Y5925690*
X3816440Y5922990*
X3818220Y5920670*
X3820540Y5918890*
X3823240Y5917770*
X3826140Y5917390*
X3829040Y5917770*
X3831740Y5918890*
X3834060Y5920670*
X3835840Y5922990*
X3836960Y5925690*
X3837340Y5928590*
X3836960Y5931490*
X3835840Y5934190*
X3834060Y5936510*
X3831740Y5938290*
X3829040Y5939410*
X3826140Y5939790*
G36*
X3823240Y5939410*
X3820540Y5938290*
X3818220Y5936510*
X3816440Y5934190*
X3815320Y5931490*
X3814940Y5928590*
X3815320Y5925690*
X3816440Y5922990*
X3818220Y5920670*
X3820540Y5918890*
X3823240Y5917770*
X3826140Y5917390*
X3829040Y5917770*
X3831740Y5918890*
X3834060Y5920670*
X3835840Y5922990*
X3836960Y5925690*
X3837340Y5928590*
X3836960Y5931490*
X3835840Y5934190*
X3834060Y5936510*
X3831740Y5938290*
X3829040Y5939410*
X3826140Y5939790*
G37*
X3863000Y2288880D02*
X3958250D01*
Y2241250*
X3950320Y2225380*
X3942380Y2217440*
X3926500Y2209500*
X3894750*
X3878880Y2217440*
X3870940Y2225380*
X3863000Y2241250*
Y2288880*
Y2161880D02*
X3958250D01*
Y2106320*
X3950320Y2090440*
X3934440Y2082500*
X3918570Y2090440*
X3910630Y2106320*
Y2161880*
Y2106320D02*
X3863000Y2082500D01*
Y1995190D02*
X3958250D01*
X3894750Y2034880*
Y1971380*
X3879660Y3535570D02*
X4014280D01*
Y3223150*
X3879660*
Y3535570*
X3881140Y2750820D02*
X3746520D01*
Y3063240*
X3881140*
Y2750820*
X3997500Y2323870D02*
Y2579120D01*
X3829550*
Y2349270*
X3854950Y2323870*
X3997500*
X4045440Y7831730D02*
Y7903160D01*
X4037500Y7919040*
X4021630Y7926980*
X3989880*
X3974000Y7919040*
X3966060Y7903160*
Y7831730*
X3894630Y7879350D02*
X3878750D01*
X3862880Y7871410*
X3854940Y7855540*
X3862880Y7839660*
X3878750Y7831730*
X3894630*
X3910500Y7839660*
X3918440Y7855540*
X3910500Y7871410*
X3894630Y7879350*
X3910500Y7887290*
X3918440Y7903160*
X3910500Y7919040*
X3894630Y7926980*
X3878750*
X3862880Y7919040*
X3854940Y7903160*
X3862880Y7887290*
X3878750Y7879350*
X4088100Y2628070D02*
X4080160Y2620130D01*
X4072220Y2604260*
X4080160Y2588380*
X4088100Y2580440*
X4167470*
Y2564570*
Y2580440D02*
Y2612190D01*
X4072220Y2501070D02*
X4167470D01*
Y2445510*
X4159540Y2429630*
X4143660Y2421690*
X4127790Y2429630*
X4119850Y2445510*
Y2501070*
Y2445510D02*
X4072220Y2421690D01*
Y2310570D02*
Y2374070D01*
X4127790Y2318510*
X4143660Y2310570*
X4159540Y2318510*
X4167470Y2334380*
Y2358190*
X4159540Y2374070*
X4054750Y3263690D02*
Y3358940D01*
X4110310*
X4126190Y3351010*
X4134130Y3335130*
X4126190Y3319260*
X4110310Y3311320*
X4054750*
X4110310D02*
X4134130Y3263690D01*
X4181750D02*
Y3358940D01*
X4237310*
X4253190Y3351010*
X4261130Y3335130*
X4253190Y3319260*
X4237310Y3311320*
X4181750*
X4237310D02*
X4261130Y3263690D01*
X4372250D02*
X4308750D01*
X4364310Y3319260*
X4372250Y3335130*
X4364310Y3351010*
X4348440Y3358940*
X4324630*
X4308750Y3351010*
X4070840Y8661990D02*
X4604240D01*
Y8941390*
X4070840*
Y8661990*
X4083540Y8549280D02*
X4091480Y8541340D01*
X4107350Y8533400*
X4123230Y8541340*
X4131170Y8549280*
Y8628650*
X4147040*
X4131170D02*
X4099420D01*
X4210540Y8533400D02*
Y8628650D01*
X4266100*
X4281980Y8620720*
X4289920Y8604840*
X4281980Y8588970*
X4266100Y8581030*
X4210540*
X4337540Y8628650D02*
X4345480Y8533400D01*
X4377230Y8581030*
X4408980Y8533400*
X4416920Y8628650*
X4464540Y8533400D02*
Y8628650D01*
X4520100*
X4535980Y8620720*
X4543920Y8604840*
X4535980Y8588970*
X4520100Y8581030*
X4464540*
X4520100D02*
X4543920Y8533400D01*
X4607420D02*
X4639170D01*
X4623290D02*
Y8628650D01*
X4607420Y8612780*
X4198000Y2653010D02*
Y3186410D01*
X3918600*
Y2653010*
X4198000*
X4206730Y6711910D02*
X4341350D01*
Y6399490*
X4206730*
Y6711910*
X4239750Y4538700D02*
X4105130D01*
Y4851120*
X4239750*
Y4538700*
X4181960Y4477420D02*
X4189900Y4485360D01*
X4205780Y4493300*
X4229590*
X4245460Y4485360*
X4253400Y4477420*
X4261340Y4461550*
Y4429800*
X4253400Y4413920*
X4245460Y4405980*
X4229590Y4398050*
X4205780*
X4189900Y4405980*
X4181960Y4413920*
X4054960Y4477420D02*
X4062900Y4485360D01*
X4078780Y4493300*
X4102590*
X4118460Y4485360*
X4126400Y4477420*
X4134340Y4461550*
Y4429800*
X4126400Y4413920*
X4118460Y4405980*
X4102590Y4398050*
X4078780*
X4062900Y4405980*
X4054960Y4413920*
X4007340Y4469480D02*
X3999400Y4453610D01*
X3983530Y4445670*
X3967650*
X3951780Y4453610*
X3943840Y4469480*
X3951780Y4485360*
X3967650Y4493300*
X3983530*
X3999400Y4485360*
X4007340Y4469480*
Y4445670*
X3999400Y4421860*
X3983530Y4405980*
X3967650Y4398050*
X4325850Y2634410D02*
X4317910Y2626470D01*
X4309970Y2610600*
X4317910Y2594720*
X4325850Y2586780*
X4405220*
Y2570910*
Y2586780D02*
Y2618530D01*
X4309970Y2507410D02*
X4405220D01*
Y2451850*
X4397290Y2435970*
X4381410Y2428030*
X4365540Y2435970*
X4357600Y2451850*
Y2507410*
Y2451850D02*
X4309970Y2428030D01*
Y2364530D02*
Y2332780D01*
Y2348660D02*
X4405220D01*
X4389350Y2364530*
X4371830Y6711910D02*
X4506450D01*
Y6399490*
X4371830*
Y6711910*
X4492810Y2653010D02*
Y3186410D01*
X4213410*
Y2653010*
X4492810*
X4568640Y5921290D02*
Y5281290D01*
X3928640*
Y5801290*
X4048640Y5921290*
X4568640*
X4587730Y6711910D02*
X4722350D01*
Y6399490*
X4587730*
Y6711910*
X4604240Y6037850D02*
Y5966420D01*
X4612180Y5950540*
X4628050Y5942600*
X4659800*
X4675680Y5950540*
X4683620Y5966420*
Y6037850*
X4747120Y5942600D02*
X4778870D01*
X4762990D02*
Y6037850D01*
X4747120Y6021980*
X4736860Y2075130D02*
Y2122760D01*
X4697170Y2170380*
X4736860Y2122760D02*
X4776550Y2170380D01*
X4726040Y7662790D02*
X4076040D01*
Y8492790*
X4726040*
Y8090290*
X4713540*
Y8065290*
X4726040*
Y7662790*
X4762990Y9031880D02*
X4770930Y9023940D01*
X4786800Y9016000*
X4802680Y9023940*
X4810620Y9031880*
Y9111250*
X4826490*
X4810620D02*
X4778870D01*
X4889990Y9016000D02*
Y9111250D01*
X4945550*
X4961430Y9103320*
X4969370Y9087440*
X4961430Y9071570*
X4945550Y9063630*
X4889990*
X5016990Y9111250D02*
X5024930Y9016000D01*
X5056680Y9063630*
X5088430Y9016000*
X5096370Y9111250*
X5143990Y9016000D02*
Y9111250D01*
X5199550*
X5215430Y9103320*
X5223370Y9087440*
X5215430Y9071570*
X5199550Y9063630*
X5143990*
X5199550D02*
X5223370Y9016000D01*
X5278930Y9023940D02*
X5294800Y9016000D01*
X5310680*
X5326550Y9023940*
X5334490Y9039820*
X5326550Y9055690*
X5310680Y9063630*
X5294800*
X5310680D02*
X5326550Y9071570D01*
X5334490Y9087440*
X5326550Y9103320*
X5310680Y9111250*
X5294800*
X5278930Y9103320*
X4844910Y8479430D02*
X4836970Y8471490D01*
X4821090Y8463550*
X4797280*
X4781410Y8471490*
X4773470Y8479430*
X4765530Y8495300*
Y8527050*
X4773470Y8542930*
X4781410Y8550870*
X4797280Y8558800*
X4821090*
X4836970Y8550870*
X4844910Y8542930*
X4892530Y8463550D02*
Y8558800D01*
X4948090*
X4963970Y8550870*
X4971910Y8534990*
X4963970Y8519120*
X4948090Y8511180*
X4892530*
X5019530Y8558800D02*
X5027470Y8463550D01*
X5059220Y8511180*
X5090970Y8463550*
X5098910Y8558800*
X5146530Y8463550D02*
Y8558800D01*
X5202090*
X5217970Y8550870*
X5225910Y8534990*
X5217970Y8519120*
X5202090Y8511180*
X5146530*
X5202090D02*
X5225910Y8463550D01*
X5337030D02*
X5273530D01*
X5329090Y8519120*
X5337030Y8534990*
X5329090Y8550870*
X5313220Y8558800*
X5289410*
X5273530Y8550870*
X4801090Y8661990D02*
X5334490D01*
Y8941390*
X4801090*
Y8661990*
X4816330Y8373700D02*
X4950950D01*
Y8061280*
X4816330*
Y8373700*
X4828010Y3674590D02*
Y3141190D01*
X5107410*
Y3674590*
X4828010*
X4942480Y6164270D02*
X4934540Y6156330D01*
X4918660Y6148390*
X4894850*
X4878980Y6156330*
X4871040Y6164270*
X4863100Y6180140*
Y6211890*
X4871040Y6227770*
X4878980Y6235710*
X4894850Y6243640*
X4918660*
X4934540Y6235710*
X4942480Y6227770*
X5069480Y6164270D02*
X5061540Y6156330D01*
X5045660Y6148390*
X5021850*
X5005980Y6156330*
X4998040Y6164270*
X4990100Y6180140*
Y6211890*
X4998040Y6227770*
X5005980Y6235710*
X5021850Y6243640*
X5045660*
X5061540Y6235710*
X5069480Y6227770*
X5132980Y6148390D02*
X5164730D01*
X5148850D02*
Y6243640D01*
X5132980Y6227770*
X5252040Y6156330D02*
X5267910Y6148390D01*
X5283790*
X5299660Y6156330*
X5307600Y6172210*
Y6219830*
X5299660Y6235710*
X5283790Y6243640*
X5267910*
X5252040Y6235710*
X5244100Y6219830*
Y6172210*
X5252040Y6156330*
X5299660Y6235710*
X4887670Y2392630D02*
X4967050Y2487880D01*
X4887670D02*
X4967050Y2392630D01*
X4993200Y366340D02*
X4985260Y358400D01*
X4969380Y350460*
X4945570*
X4929700Y358400*
X4921760Y366340*
X4913820Y382210*
Y413960*
X4921760Y429840*
X4929700Y437780*
X4945570Y445710*
X4969380*
X4985260Y437780*
X4993200Y429840*
X5040820Y382210D02*
Y413960D01*
X5048760Y429840*
X5056700Y437780*
X5072570Y445710*
X5088450*
X5104320Y437780*
X5112260Y429840*
X5120200Y413960*
Y382210*
X5112260Y366340*
X5104320Y358400*
X5088450Y350460*
X5072570*
X5056700Y358400*
X5048760Y366340*
X5040820Y382210*
X5167820Y350460D02*
Y445710D01*
X5247200Y350460*
Y445710*
X5310700Y350460D02*
X5342450D01*
X5326570D02*
Y445710D01*
X5310700Y429840*
X5429760Y358400D02*
X5445630Y350460D01*
X5461510*
X5477380Y358400*
X5485320Y374280*
Y421900*
X5477380Y437780*
X5461510Y445710*
X5445630*
X5429760Y437780*
X5421820Y421900*
Y374280*
X5429760Y358400*
X5477380Y437780*
X4950950Y7017640D02*
X4816330D01*
Y7330060*
X4950950*
Y7017640*
X4955030Y5549290D02*
X4962970Y5541350D01*
X4978840Y5533410*
X4994720Y5541350*
X5002660Y5549290*
Y5628660*
X5018530*
X5002660D02*
X4970910D01*
X5161410Y5549290D02*
X5153470Y5541350D01*
X5137590Y5533410*
X5113780*
X5097910Y5541350*
X5089970Y5549290*
X5082030Y5565160*
Y5596910*
X5089970Y5612790*
X5097910Y5620730*
X5113780Y5628660*
X5137590*
X5153470Y5620730*
X5161410Y5612790*
X5272530Y5533410D02*
X5209030D01*
X5264590Y5588980*
X5272530Y5604850*
X5264590Y5620730*
X5248720Y5628660*
X5224910*
X5209030Y5620730*
X4988350Y7408430D02*
X5083600D01*
Y7352870*
X5075670Y7336990*
X5059790Y7329050*
X5043920Y7336990*
X5035980Y7352870*
Y7408430*
Y7352870D02*
X4988350Y7329050D01*
X5004230Y7202050D02*
X4996290Y7209990D01*
X4988350Y7225870*
Y7249680*
X4996290Y7265550*
X5004230Y7273490*
X5020100Y7281430*
X5051850*
X5067730Y7273490*
X5075670Y7265550*
X5083600Y7249680*
Y7225870*
X5075670Y7209990*
X5067730Y7202050*
X4988350Y7138550D02*
Y7106800D01*
Y7122680D02*
X5083600D01*
X5067730Y7138550*
X4980170Y5211400D02*
X5253220D01*
Y5490800*
X4980170*
Y5211400*
X5032230Y8373700D02*
X5166850D01*
Y8061280*
X5032230*
Y8373700*
X5035800Y3981660D02*
X5043740Y3989600D01*
X5051680Y4005470*
X5043740Y4021350*
X5035800Y4029290*
X4956430*
Y4045160*
Y4029290D02*
Y3997540D01*
X5035800Y4188040D02*
X5043740Y4180100D01*
X5051680Y4164220*
Y4140410*
X5043740Y4124540*
X5035800Y4116600*
X5019930Y4108660*
X4988180*
X4972300Y4116600*
X4964360Y4124540*
X4956430Y4140410*
Y4164220*
X4964360Y4180100*
X4972300Y4188040*
X5051680Y4235660D02*
X4956430D01*
X5004050Y4275350*
X4956430Y4315040*
X5051680*
X5019930Y4362660D02*
X4988180D01*
X4972300Y4370600*
X4964360Y4378540*
X4956430Y4394410*
Y4410290*
X4964360Y4426160*
X4972300Y4434100*
X4988180Y4442040*
X5019930*
X5035800Y4434100*
X5043740Y4426160*
X5051680Y4410290*
Y4394410*
X5043740Y4378540*
X5035800Y4370600*
X5019930Y4362660*
X5027860Y4489660D02*
X5043740Y4497600D01*
X5051680Y4513470*
Y4545220*
X5043740Y4561100*
X5027860Y4569040*
X5011990Y4561100*
X5004050Y4545220*
Y4513470*
X4996110Y4497600*
X4980240Y4489660*
X4964360Y4497600*
X4956430Y4513470*
Y4545220*
X4964360Y4561100*
X4980240Y4569040*
X5051680Y4640470D02*
Y4672220D01*
Y4656350D02*
X4956430D01*
Y4640470D02*
Y4672220D01*
X5103670Y2227570D02*
X5104030Y2224640D01*
X5105080Y2221880*
X5106760Y2219450*
X5108970Y2217490*
X5111580Y2216120*
X5114450Y2215410*
X5117400*
X5120270Y2216120*
X5122880Y2217490*
X5125090Y2219450*
X5126770Y2221880*
X5127820Y2224640*
X5128170Y2227570*
X5127810Y2230500*
X5126760Y2233260*
X5125080Y2235690*
X5122870Y2237650*
X5120260Y2239020*
X5117390Y2239730*
X5114440*
X5111570Y2239020*
X5108960Y2237650*
X5106750Y2235690*
X5105070Y2233260*
X5104020Y2230500*
X5103670Y2227570*
G36*
X5104030Y2224640*
X5105080Y2221880*
X5106760Y2219450*
X5108970Y2217490*
X5111580Y2216120*
X5114450Y2215410*
X5117400*
X5120270Y2216120*
X5122880Y2217490*
X5125090Y2219450*
X5126770Y2221880*
X5127820Y2224640*
X5128170Y2227570*
X5127810Y2230500*
X5126760Y2233260*
X5125080Y2235690*
X5122870Y2237650*
X5120260Y2239020*
X5117390Y2239730*
X5114440*
X5111570Y2239020*
X5108960Y2237650*
X5106750Y2235690*
X5105070Y2233260*
X5104020Y2230500*
X5103670Y2227570*
G37*
X5123670Y2342570D02*
X5533670D01*
Y1962570*
X5103670*
Y2322570*
X5123670Y2342570*
X5134980Y1833280D02*
X5269600D01*
Y1520860*
X5134980*
Y1833280*
X5145010Y3674590D02*
Y3141190D01*
X5424410*
Y3674590*
X5145010*
X5234120Y1402930D02*
X5226180Y1394990D01*
X5210300Y1387050*
X5186490*
X5170620Y1394990*
X5162680Y1402930*
X5154740Y1418800*
Y1450550*
X5162680Y1466430*
X5170620Y1474370*
X5186490Y1482300*
X5210300*
X5226180Y1474370*
X5234120Y1466430*
X5305550Y1387050D02*
X5337300D01*
X5321430D02*
Y1482300D01*
X5305550D02*
X5337300D01*
X5424620Y1387050D02*
X5456370D01*
X5440490D02*
Y1482300D01*
X5424620Y1466430*
X5260830Y8373700D02*
X5395450D01*
Y8061280*
X5260830*
Y8373700*
X5335430Y6893340D02*
Y6988590D01*
X5383060*
X5398930Y6980660*
X5406870Y6972720*
X5414810Y6956840*
Y6925090*
X5406870Y6909220*
X5398930Y6901280*
X5383060Y6893340*
X5335430*
X5517990Y6933030D02*
X5541810D01*
Y6925090*
X5533870Y6909220*
X5525930Y6901280*
X5510060Y6893340*
X5494180*
X5478310Y6901280*
X5470370Y6909220*
X5462430Y6925090*
Y6956840*
X5470370Y6972720*
X5478310Y6980660*
X5494180Y6988590*
X5510060*
X5525930Y6980660*
X5533870Y6972720*
X5541810Y6956840*
X5652930Y6893340D02*
X5589430D01*
X5644990Y6948910*
X5652930Y6964780*
X5644990Y6980660*
X5629120Y6988590*
X5605310*
X5589430Y6980660*
X5327440Y3984830D02*
X5335380Y3992770D01*
X5343320Y4008640*
X5335380Y4024520*
X5327440Y4032460*
X5248070*
Y4048330*
Y4032460D02*
Y4000710D01*
X5327440Y4191210D02*
X5335380Y4183270D01*
X5343320Y4167390*
Y4143580*
X5335380Y4127710*
X5327440Y4119770*
X5311570Y4111830*
X5279820*
X5263940Y4119770*
X5256000Y4127710*
X5248070Y4143580*
Y4167390*
X5256000Y4183270*
X5263940Y4191210*
X5319500Y4238830D02*
X5335380Y4246770D01*
X5343320Y4262640*
Y4294390*
X5335380Y4310270*
X5319500Y4318210*
X5303630Y4310270*
X5295690Y4294390*
Y4262640*
X5287750Y4246770*
X5271880Y4238830*
X5256000Y4246770*
X5248070Y4262640*
Y4294390*
X5256000Y4310270*
X5271880Y4318210*
X5327440Y4445210D02*
X5335380Y4437270D01*
X5343320Y4421390*
Y4397580*
X5335380Y4381710*
X5327440Y4373770*
X5311570Y4365830*
X5279820*
X5263940Y4373770*
X5256000Y4381710*
X5248070Y4397580*
Y4421390*
X5256000Y4437270*
X5263940Y4445210*
X5343320Y4492830D02*
X5248070D01*
X5295690D02*
Y4516640D01*
X5248070Y4572210*
X5295690Y4516640D02*
X5343320Y4572210D01*
X5406050Y6118980D02*
Y5984360D01*
X5093630*
Y6118980*
X5406050*
X5465180Y3674590D02*
Y3141190D01*
X5744580*
Y3674590*
X5465180*
X5487710Y6318140D02*
X5742960D01*
Y6486090*
X5513110*
X5487710Y6460690*
Y6318140*
X5496880Y5234230D02*
Y4700830D01*
X5776280*
Y5234230*
X5496880*
X5500390Y6552720D02*
X5755640D01*
Y6720670*
X5525790*
X5500390Y6695270*
Y6552720*
X5506190Y5293820D02*
X6039590D01*
Y5573220*
X5506190*
Y5293820*
X5526580Y8065090D02*
X5431330D01*
Y8120650*
X5439260Y8136530*
X5455140Y8144470*
X5471010Y8136530*
X5478950Y8120650*
Y8065090*
Y8120650D02*
X5526580Y8144470D01*
Y8192090D02*
X5431330D01*
Y8247650*
X5439260Y8263530*
X5455140Y8271470*
X5471010Y8263530*
X5478950Y8247650*
Y8192090*
X5431330Y8319090D02*
X5526580Y8327030D01*
X5478950Y8358780*
X5526580Y8390530*
X5431330Y8398470*
X5526580Y8446090D02*
X5431330D01*
Y8501650*
X5439260Y8517530*
X5455140Y8525470*
X5471010Y8517530*
X5478950Y8501650*
Y8446090*
Y8501650D02*
X5526580Y8525470D01*
Y8588970D02*
Y8620720D01*
Y8604840D02*
X5431330D01*
X5447200Y8588970*
X5573180Y2201890D02*
Y2130460D01*
X5581120Y2114580*
X5596990Y2106640*
X5628740*
X5644620Y2114580*
X5652560Y2130460*
Y2201890*
X5739870Y2106640D02*
Y2201890D01*
X5700180Y2138390*
X5763680*
X5594800Y5620240D02*
X6807650D01*
Y6013940*
X5594800*
Y5620240*
X5632940Y8685490D02*
Y8942640D01*
X5455140*
Y8719140*
X5488790Y8685490*
X5632940*
X5719130Y1501200D02*
X5711190Y1493260D01*
X5695310Y1485320*
X5671500*
X5655630Y1493260*
X5647690Y1501200*
X5639750Y1517070*
Y1548820*
X5647690Y1564700*
X5655630Y1572640*
X5671500Y1580570*
X5695310*
X5711190Y1572640*
X5719130Y1564700*
X5790560Y1485320D02*
X5822310D01*
X5806440D02*
Y1580570D01*
X5790560D02*
X5822310D01*
X5957250Y1485320D02*
X5893750D01*
X5949310Y1540890*
X5957250Y1556760*
X5949310Y1572640*
X5933440Y1580570*
X5909630*
X5893750Y1572640*
X5644440Y3994340D02*
X5652380Y4002280D01*
X5660320Y4018150*
X5652380Y4034030*
X5644440Y4041970*
X5565070*
Y4057840*
Y4041970D02*
Y4010220D01*
X5660320Y4121340D02*
X5565070D01*
X5612690Y4161030*
X5565070Y4200720*
X5660320*
Y4272150D02*
Y4303900D01*
Y4288030D02*
X5565070D01*
Y4272150D02*
Y4303900D01*
X5636500Y4375340D02*
X5652380Y4383280D01*
X5660320Y4399150*
Y4430900*
X5652380Y4446780*
X5636500Y4454720*
X5620630Y4446780*
X5612690Y4430900*
Y4399150*
X5604750Y4383280*
X5588880Y4375340*
X5573000Y4383280*
X5565070Y4399150*
Y4430900*
X5573000Y4446780*
X5588880Y4454720*
X5628570Y4502340D02*
X5596820D01*
X5580940Y4510280*
X5573000Y4518220*
X5565070Y4534090*
Y4549970*
X5573000Y4565840*
X5580940Y4573780*
X5596820Y4581720*
X5628570*
X5644440Y4573780*
X5652380Y4565840*
X5660320Y4549970*
Y4534090*
X5652380Y4518220*
X5644440Y4510280*
X5628570Y4502340*
X5718260Y1934720D02*
X5852880D01*
Y1622300*
X5718260*
Y1934720*
X5760210Y4585580D02*
Y4680830D01*
X5815770*
X5831650Y4672900*
X5839590Y4657020*
X5831650Y4641150*
X5815770Y4633210*
X5760210*
X5815770D02*
X5839590Y4585580D01*
X5942770Y4625270D02*
X5966590D01*
Y4617330*
X5958650Y4601460*
X5950710Y4593520*
X5934840Y4585580*
X5918960*
X5903090Y4593520*
X5895150Y4601460*
X5887210Y4617330*
Y4649080*
X5895150Y4664960*
X5903090Y4672900*
X5918960Y4680830*
X5934840*
X5950710Y4672900*
X5958650Y4664960*
X5966590Y4649080*
X6030090Y4585580D02*
X6061840D01*
X6045960D02*
Y4680830D01*
X6030090Y4664960*
X5782400Y6357610D02*
Y6452860D01*
X5830030*
X5845900Y6444930*
X5853840Y6436990*
X5861780Y6421110*
Y6389360*
X5853840Y6373490*
X5845900Y6365550*
X5830030Y6357610*
X5782400*
X5964960Y6397300D02*
X5988780D01*
Y6389360*
X5980840Y6373490*
X5972900Y6365550*
X5957030Y6357610*
X5941150*
X5925280Y6365550*
X5917340Y6373490*
X5909400Y6389360*
Y6421110*
X5917340Y6436990*
X5925280Y6444930*
X5941150Y6452860*
X5957030*
X5972900Y6444930*
X5980840Y6436990*
X5988780Y6421110*
X6052280Y6357610D02*
X6084030D01*
X6068150D02*
Y6452860D01*
X6052280Y6436990*
X5774230Y8573090D02*
X5678980D01*
Y8620720*
X5686910Y8636590*
X5694850Y8644530*
X5710730Y8652470*
X5742480*
X5758350Y8644530*
X5766290Y8636590*
X5774230Y8620720*
Y8573090*
Y8700090D02*
X5678980D01*
Y8755650*
X5686910Y8771530*
X5702790Y8779470*
X5718660Y8771530*
X5726600Y8755650*
Y8700090*
X5678980Y8827090D02*
X5774230Y8835030D01*
X5726600Y8866780*
X5774230Y8898530*
X5678980Y8906470*
X5774230Y8954090D02*
X5678980D01*
Y9009650*
X5686910Y9025530*
X5702790Y9033470*
X5718660Y9025530*
X5726600Y9009650*
Y8954090*
Y9009650D02*
X5774230Y9033470D01*
Y9096970D02*
Y9128720D01*
Y9112840D02*
X5678980D01*
X5694850Y9096970*
X5804590Y4794830D02*
X5812530Y4786890D01*
X5828400Y4778950*
X5844280Y4786890*
X5852220Y4794830*
Y4874200*
X5868090*
X5852220D02*
X5820470D01*
X5987150Y4818640D02*
X6010970D01*
Y4810700*
X6003030Y4794830*
X5995090Y4786890*
X5979220Y4778950*
X5963340*
X5947470Y4786890*
X5939530Y4794830*
X5931590Y4810700*
Y4842450*
X5939530Y4858330*
X5947470Y4866270*
X5963340Y4874200*
X5979220*
X5995090Y4866270*
X6003030Y4858330*
X6010970Y4842450*
X6074470Y4778950D02*
X6106220D01*
X6090340D02*
Y4874200D01*
X6074470Y4858330*
X5876760Y4527780D02*
X6011380D01*
Y4215360*
X5876760*
Y4527780*
X6055020Y5403470D02*
X6062960Y5395530D01*
X6078830Y5387590*
X6094710Y5395530*
X6102650Y5403470*
Y5482840*
X6118520*
X6102650D02*
X6070900D01*
X6237580Y5427280D02*
X6261400D01*
Y5419340*
X6253460Y5403470*
X6245520Y5395530*
X6229650Y5387590*
X6213770*
X6197900Y5395530*
X6189960Y5403470*
X6182020Y5419340*
Y5451090*
X6189960Y5466970*
X6197900Y5474910*
X6213770Y5482840*
X6229650*
X6245520Y5474910*
X6253460Y5466970*
X6261400Y5451090*
X6372520Y5387590D02*
X6309020D01*
X6364580Y5443160*
X6372520Y5459030*
X6364580Y5474910*
X6348710Y5482840*
X6324900*
X6309020Y5474910*
X6085620Y5171280D02*
X6086010Y5166350D01*
X6087160Y5161540*
X6089050Y5156970*
X6091630Y5152760*
X6094840Y5149000*
X6098600Y5145790*
X6102820Y5143210*
X6107390Y5141320*
X6112200Y5140170*
X6117130Y5139780*
X6122060Y5140170*
X6126870Y5141330*
X6131440Y5143220*
X6135650Y5145810*
X6139410Y5149020*
X6142620Y5152780*
X6145200Y5157000*
X6147090Y5161570*
X6148240Y5166380*
X6148620Y5171280*
X6148230Y5176210*
X6147080Y5181020*
X6145190Y5185590*
X6142610Y5189800*
X6139400Y5193560*
X6135640Y5196770*
X6131420Y5199350*
X6126850Y5201240*
X6122040Y5202390*
X6117110Y5202780*
X6112180Y5202390*
X6107370Y5201230*
X6102800Y5199340*
X6098590Y5196750*
X6094830Y5193540*
X6091620Y5189780*
X6089040Y5185560*
X6087150Y5180990*
X6086000Y5176180*
X6085620Y5171280*
G36*
X6086010Y5166350*
X6087160Y5161540*
X6089050Y5156970*
X6091630Y5152760*
X6094840Y5149000*
X6098600Y5145790*
X6102820Y5143210*
X6107390Y5141320*
X6112200Y5140170*
X6117130Y5139780*
X6122060Y5140170*
X6126870Y5141330*
X6131440Y5143220*
X6135650Y5145810*
X6139410Y5149020*
X6142620Y5152780*
X6145200Y5157000*
X6147090Y5161570*
X6148240Y5166380*
X6148620Y5171280*
X6148230Y5176210*
X6147080Y5181020*
X6145190Y5185590*
X6142610Y5189800*
X6139400Y5193560*
X6135640Y5196770*
X6131420Y5199350*
X6126850Y5201240*
X6122040Y5202390*
X6117110Y5202780*
X6112180Y5202390*
X6107370Y5201230*
X6102800Y5199340*
X6098590Y5196750*
X6094830Y5193540*
X6091620Y5189780*
X6089040Y5185560*
X6087150Y5180990*
X6086000Y5176180*
X6085620Y5171280*
G37*
X6093340Y8985840D02*
X7122040D01*
Y8534990*
X6156840*
X6093340Y8598490*
Y8985840*
X6105120Y5351780D02*
X8117120D01*
Y3473780*
X6085120*
Y5331780*
X6105120Y5351780*
X6118740Y9090620D02*
X6126680Y9074740D01*
X6142550Y9066800*
X6174300*
X6190180Y9074740*
X6198120Y9090620*
X6190180Y9106490*
X6174300Y9114430*
X6142550*
X6126680Y9122370*
X6118740Y9138240*
X6126680Y9154120*
X6142550Y9162050*
X6174300*
X6190180Y9154120*
X6198120Y9138240*
X6245740Y9162050D02*
X6253680Y9066800D01*
X6285430Y9114430*
X6317180Y9066800*
X6325120Y9162050*
X6388620Y9066800D02*
X6420370D01*
X6404490D02*
Y9162050D01*
X6388620Y9146180*
X6161920Y6066780D02*
Y6201400D01*
X6474340*
Y6066780*
X6161920*
X6387870Y5503340D02*
X6395810Y5487460D01*
X6411680Y5479520*
X6443430*
X6459310Y5487460*
X6467250Y5503340*
X6459310Y5519210*
X6443430Y5527150*
X6411680*
X6395810Y5535090*
X6387870Y5550960*
X6395810Y5566840*
X6411680Y5574770*
X6443430*
X6459310Y5566840*
X6467250Y5550960*
X6514870Y5574770D02*
X6522810Y5479520D01*
X6554560Y5527150*
X6586310Y5479520*
X6594250Y5574770*
X6697430Y5519210D02*
X6721250D01*
Y5511270*
X6713310Y5495400*
X6705370Y5487460*
X6689500Y5479520*
X6673620*
X6657750Y5487460*
X6649810Y5495400*
X6641870Y5511270*
Y5543020*
X6649810Y5558900*
X6657750Y5566840*
X6673620Y5574770*
X6689500*
X6705370Y5566840*
X6713310Y5558900*
X6721250Y5543020*
X6784750Y5479520D02*
X6816500D01*
X6800620D02*
Y5574770D01*
X6784750Y5558900*
X6511500Y6081820D02*
Y6177070D01*
X6567060*
X6582940Y6169140*
X6590880Y6153260*
X6582940Y6137390*
X6567060Y6129450*
X6511500*
X6567060D02*
X6590880Y6081820D01*
X6694060Y6121510D02*
X6717880D01*
Y6113570*
X6709940Y6097700*
X6702000Y6089760*
X6686130Y6081820*
X6670250*
X6654380Y6089760*
X6646440Y6097700*
X6638500Y6113570*
Y6145320*
X6646440Y6161200*
X6654380Y6169140*
X6670250Y6177070*
X6686130*
X6702000Y6169140*
X6709940Y6161200*
X6717880Y6145320*
X6789310Y6129450D02*
X6805190D01*
X6821060Y6137390*
X6829000Y6153260*
X6821060Y6169140*
X6805190Y6177070*
X6789310*
X6773440Y6169140*
X6765500Y6153260*
X6773440Y6137390*
X6789310Y6129450*
X6773440Y6121510*
X6765500Y6105640*
X6773440Y6089760*
X6789310Y6081820*
X6805190*
X6821060Y6089760*
X6829000Y6105640*
X6821060Y6121510*
X6805190Y6129450*
X6959210Y1903370D02*
X6824590D01*
Y2215790*
X6959210*
Y1903370*
Y2975890D02*
X6824590D01*
Y3288310*
X6959210*
Y2975890*
X6965550Y2454950D02*
X6830930D01*
Y2767370*
X6965550*
Y2454950*
X6994960Y2763320D02*
X7090210D01*
Y2707760*
X7082280Y2691880*
X7066400Y2683940*
X7050530Y2691880*
X7042590Y2707760*
Y2763320*
Y2707760D02*
X6994960Y2683940D01*
Y2636320D02*
X7090210Y2556940D01*
Y2636320D02*
X6994960Y2556940D01*
X7002900Y2501380D02*
X6994960Y2485510D01*
Y2469630*
X7002900Y2453760*
X7018780Y2445820*
X7034650Y2453760*
X7042590Y2469630*
Y2485510*
Y2469630D02*
X7050530Y2453760D01*
X7066400Y2445820*
X7082280Y2453760*
X7090210Y2469630*
Y2485510*
X7082280Y2501380*
X6998130Y3293770D02*
X7093380D01*
Y3238210*
X7085450Y3222330*
X7069570Y3214390*
X7053700Y3222330*
X7045760Y3238210*
Y3293770*
Y3238210D02*
X6998130Y3214390D01*
Y3166770D02*
X7093380Y3087390D01*
Y3166770D02*
X6998130Y3087390D01*
X7006070Y3039770D02*
X6998130Y3023890D01*
Y3000080*
X7006070Y2984210*
X7021950Y2976270*
X7029880*
X7045760Y2984210*
X7053700Y3000080*
Y3039770*
X7093380*
Y2976270*
X6974320Y5492350D02*
Y5420920D01*
X6982260Y5405040*
X6998130Y5397100*
X7029880*
X7045760Y5405040*
X7053700Y5420920*
Y5492350*
X7101320Y5420920D02*
X7109260Y5436790D01*
X7125130Y5444730*
X7141010*
X7156880Y5436790*
X7164820Y5420920*
X7156880Y5405040*
X7141010Y5397100*
X7125130*
X7109260Y5405040*
X7101320Y5420920*
Y5444730*
X7109260Y5468540*
X7125130Y5484420*
X7141010Y5492350*
X7004470Y2214910D02*
X7099720D01*
Y2159350*
X7091790Y2143470*
X7075910Y2135530*
X7060040Y2143470*
X7052100Y2159350*
Y2214910*
Y2159350D02*
X7004470Y2135530D01*
Y2087910D02*
X7099720Y2008530D01*
Y2087910D02*
X7004470Y2008530D01*
Y1945030D02*
Y1913280D01*
Y1929160D02*
X7099720D01*
X7083850Y1945030*
X7183930Y7541210D02*
X7175990Y7549150D01*
X7168050Y7565030*
Y7588840*
X7175990Y7604710*
X7183930Y7612650*
X7199800Y7620590*
X7231550*
X7247430Y7612650*
X7255370Y7604710*
X7263300Y7588840*
Y7565030*
X7255370Y7549150*
X7247430Y7541210*
X7168050Y7493590D02*
X7263300D01*
Y7438030*
X7255370Y7422150*
X7239490Y7414210*
X7223620Y7422150*
X7215680Y7438030*
Y7493590*
X7263300Y7366590D02*
X7168050Y7358650D01*
X7215680Y7326900*
X7168050Y7295150*
X7263300Y7287210*
X7168050Y7239590D02*
X7263300D01*
Y7184030*
X7255370Y7168150*
X7239490Y7160210*
X7223620Y7168150*
X7215680Y7184030*
Y7239590*
Y7184030D02*
X7168050Y7160210D01*
Y7072900D02*
X7263300D01*
X7199800Y7112590*
Y7049090*
X7169200Y2250920D02*
X7529200D01*
Y1880920*
X7169200*
Y2250920*
Y2796160D02*
X7529200D01*
Y2426160*
X7169200*
Y2796160*
Y3339290D02*
X7529200D01*
Y2969290*
X7169200*
Y3339290*
X7180370Y2864320D02*
Y2896070D01*
X7188310Y2911950*
X7196250Y2919890*
X7212120Y2927820*
X7228000*
X7243870Y2919890*
X7251810Y2911950*
X7259750Y2896070*
Y2864320*
X7251810Y2848450*
X7243870Y2840510*
X7228000Y2832570*
X7212120*
X7196250Y2840510*
X7188310Y2848450*
X7180370Y2864320*
X7235930Y2856390D02*
X7259750Y2832570D01*
X7307370D02*
X7386750Y2927820D01*
X7307370D02*
X7386750Y2832570D01*
X7497870D02*
X7434370D01*
X7489930Y2888140*
X7497870Y2904010*
X7489930Y2919890*
X7474060Y2927820*
X7450250*
X7434370Y2919890*
X7186710Y3429640D02*
Y3461390D01*
X7194650Y3477270*
X7202590Y3485210*
X7218460Y3493140*
X7234340*
X7250210Y3485210*
X7258150Y3477270*
X7266090Y3461390*
Y3429640*
X7258150Y3413770*
X7250210Y3405830*
X7234340Y3397890*
X7218460*
X7202590Y3405830*
X7194650Y3413770*
X7186710Y3429640*
X7242270Y3421710D02*
X7266090Y3397890D01*
X7313710D02*
X7393090Y3493140D01*
X7313710D02*
X7393090Y3397890D01*
X7448650Y3405830D02*
X7464520Y3397890D01*
X7480400*
X7496270Y3405830*
X7504210Y3421710*
X7496270Y3437580*
X7480400Y3445520*
X7464520*
X7480400D02*
X7496270Y3453460D01*
X7504210Y3469330*
X7496270Y3485210*
X7480400Y3493140*
X7464520*
X7448650Y3485210*
X7199390Y2311680D02*
Y2343430D01*
X7207330Y2359310*
X7215270Y2367250*
X7231140Y2375180*
X7247020*
X7262890Y2367250*
X7270830Y2359310*
X7278770Y2343430*
Y2311680*
X7270830Y2295810*
X7262890Y2287870*
X7247020Y2279930*
X7231140*
X7215270Y2287870*
X7207330Y2295810*
X7199390Y2311680*
X7254950Y2303750D02*
X7278770Y2279930D01*
X7326390D02*
X7405770Y2375180D01*
X7326390D02*
X7405770Y2279930D01*
X7469270D02*
X7501020D01*
X7485140D02*
Y2375180D01*
X7469270Y2359310*
X7446650Y5484320D02*
X7454590Y5468440D01*
X7470460Y5460500*
X7502210*
X7518090Y5468440*
X7526030Y5484320*
X7518090Y5500190*
X7502210Y5508130*
X7470460*
X7454590Y5516070*
X7446650Y5531940*
X7454590Y5547820*
X7470460Y5555750*
X7502210*
X7518090Y5547820*
X7526030Y5531940*
X7573650Y5555750D02*
X7581590Y5460500D01*
X7613340Y5508130*
X7645090Y5460500*
X7653030Y5555750*
X7756210Y5500190D02*
X7780030D01*
Y5492250*
X7772090Y5476380*
X7764150Y5468440*
X7748280Y5460500*
X7732400*
X7716530Y5468440*
X7708590Y5476380*
X7700650Y5492250*
Y5524000*
X7708590Y5539880*
X7716530Y5547820*
X7732400Y5555750*
X7748280*
X7764150Y5547820*
X7772090Y5539880*
X7780030Y5524000*
X7891150Y5460500D02*
X7827650D01*
X7883210Y5516070*
X7891150Y5531940*
X7883210Y5547820*
X7867340Y5555750*
X7843530*
X7827650Y5547820*
X7484690Y6230810D02*
Y6326060D01*
X7540250*
X7556130Y6318130*
X7564070Y6302250*
X7556130Y6286380*
X7540250Y6278440*
X7484690*
X7540250D02*
X7564070Y6230810D01*
X7667250Y6270500D02*
X7691070D01*
Y6262560*
X7683130Y6246690*
X7675190Y6238750*
X7659320Y6230810*
X7643440*
X7627570Y6238750*
X7619630Y6246690*
X7611690Y6262560*
Y6294310*
X7619630Y6310190*
X7627570Y6318130*
X7643440Y6326060*
X7659320*
X7675190Y6318130*
X7683130Y6310190*
X7691070Y6294310*
X7762500Y6230810D02*
X7778380Y6238750D01*
X7794250Y6254630*
X7802190Y6278440*
Y6302250*
X7794250Y6318130*
X7778380Y6326060*
X7762500*
X7746630Y6318130*
X7738690Y6302250*
X7746630Y6286380*
X7762500Y6278440*
X7778380*
X7794250Y6286380*
X7802190Y6302250*
X7625790Y2776000D02*
X7721040D01*
Y2720440*
X7713110Y2704560*
X7697230Y2696620*
X7681360Y2704560*
X7673420Y2720440*
Y2776000*
Y2720440D02*
X7625790Y2696620D01*
Y2649000D02*
X7721040Y2569620D01*
Y2649000D02*
X7625790Y2569620D01*
Y2482310D02*
X7721040D01*
X7657540Y2522000*
Y2458500*
X7647980Y3265240D02*
X7743230D01*
Y3209680*
X7735300Y3193800*
X7719420Y3185860*
X7703550Y3193800*
X7695610Y3209680*
Y3265240*
Y3209680D02*
X7647980Y3185860D01*
Y3138240D02*
X7743230Y3058860D01*
Y3138240D02*
X7647980Y3058860D01*
X7671800Y3011240D02*
X7687670Y3003300D01*
X7695610Y2987430*
Y2971550*
X7687670Y2955680*
X7671800Y2947740*
X7655920Y2955680*
X7647980Y2971550*
Y2987430*
X7655920Y3003300*
X7671800Y3011240*
X7695610*
X7719420Y3003300*
X7735300Y2987430*
X7743230Y2971550*
X7757020Y8625480D02*
X7749080Y8617540D01*
X7733200Y8609600*
X7709390*
X7693520Y8617540*
X7685580Y8625480*
X7677640Y8641350*
Y8673100*
X7685580Y8688980*
X7693520Y8696920*
X7709390Y8704850*
X7733200*
X7749080Y8696920*
X7757020Y8688980*
X7804640Y8641350D02*
Y8673100D01*
X7812580Y8688980*
X7820520Y8696920*
X7836390Y8704850*
X7852270*
X7868140Y8696920*
X7876080Y8688980*
X7884020Y8673100*
Y8641350*
X7876080Y8625480*
X7868140Y8617540*
X7852270Y8609600*
X7836390*
X7820520Y8617540*
X7812580Y8625480*
X7804640Y8641350*
X7931640Y8609600D02*
Y8704850D01*
X8011020Y8609600*
Y8704850*
X8074520Y8609600D02*
X8106270D01*
X8090390D02*
Y8704850D01*
X8074520Y8688980*
X8201520Y8609600D02*
X8233270D01*
X8217390D02*
Y8704850D01*
X8201520Y8688980*
X7922890Y2454950D02*
X7788270D01*
Y2767370*
X7922890*
Y2454950*
Y2966380D02*
X7788270D01*
Y3278800*
X7922890*
Y2966380*
X7935570Y1903370D02*
X7800950D01*
Y2215790*
X7935570*
Y1903370*
X7990340Y2205400D02*
X8085590D01*
Y2149840*
X8077660Y2133960*
X8061780Y2126020*
X8045910Y2133960*
X8037970Y2149840*
Y2205400*
Y2149840D02*
X7990340Y2126020D01*
Y2078400D02*
X8085590Y1999020D01*
Y2078400D02*
X7990340Y1999020D01*
Y1887900D02*
Y1951400D01*
X8045910Y1895840*
X8061780Y1887900*
X8077660Y1895840*
X8085590Y1911710*
Y1935520*
X8077660Y1951400*
X8084700Y6207740D02*
Y6073120D01*
X7772280*
Y6207740*
X8084700*
X8157300Y6007600D02*
X6944450D01*
Y5613900*
X8157300*
Y6007600*
X8458440Y8502990D02*
Y6407990D01*
X7887440*
Y8502990*
X8458440*
D02*
D12*
X2324590Y8681290D02*
Y8960690D01*
X2203940*
Y8681290*
X2324590*
X4824170Y2114820D02*
X4887670Y2178320D01*
X4824170Y2114820D02*
X4887670Y2051320D01*
X4951170Y2178320D02*
Y2368820D01*
X4887670Y2305320*
X4951170Y2368820D02*
X5014670Y2305320D01*
Y2114820D02*
X4824170D01*
X6591790Y6633990D02*
X6845790D01*
X6718790Y6760990D02*
Y6506990D01*
Y8475490D02*
X6689570Y8475090D01*
X6660370Y8473900*
X6631220Y8471920*
X6602130Y8469160*
X6573130Y8465610*
X6544230Y8461280*
X6515460Y8456160*
X6486840Y8450270*
X6458390Y8443610*
X6430130Y8436180*
X6402080Y8427990*
X6374260Y8419040*
X6346700Y8409340*
X6319410Y8398900*
X6292410Y8387720*
X6265720Y8375820*
X6239370Y8363200*
X6213370Y8349870*
X6187740Y8335840*
X6162500Y8321120*
X6137660Y8305720*
X6113250Y8289660*
X6089280Y8272940*
X6065770Y8255580*
X6042740Y8237590*
X6020210Y8218980*
X5998190Y8199770*
X5976700Y8179970*
X5955750Y8159600*
X5935360Y8138670*
X5915550Y8117190*
X5896320Y8095180*
X5877700Y8072660*
X5859690Y8049650*
X5842310Y8026160*
X5825570Y8002210*
X5809490Y7977810*
X5794080Y7952990*
X5779340Y7927760*
X5765290Y7902140*
X5751940Y7876150*
X5739300Y7849800*
X5727380Y7823120*
X5716180Y7796130*
X5705720Y7768850*
X5696000Y7741290*
X5687030Y7713480*
X5678810Y7685440*
X5671360Y7657190*
X5664670Y7628740*
X5658760Y7600120*
X5653620Y7571350*
X5649260Y7542460*
X5645690Y7513460*
X5642900Y7484370*
X5640900Y7455220*
X5639690Y7426020*
X5639270Y7396800*
X5639640Y7367580*
X5640800Y7338380*
X5642750Y7309220*
X5645490Y7280130*
X5649020Y7251120*
X5653330Y7222220*
X5658420Y7193450*
X5664290Y7164820*
X5670930Y7136360*
X5678340Y7108090*
X5686510Y7080030*
X5695440Y7052210*
X5705120Y7024640*
X5715540Y6997340*
X5726700Y6970330*
X5738580Y6943630*
X5751180Y6917260*
X5764490Y6891250*
X5778500Y6865610*
X5793200Y6840350*
X5808580Y6815500*
X5824630Y6791080*
X5841330Y6767100*
X5858670Y6743580*
X5876640Y6720540*
X5895230Y6697990*
X5914420Y6675950*
X5934200Y6654440*
X5954560Y6633480*
X5975480Y6613070*
X5996940Y6593240*
X6018930Y6574000*
X6041440Y6555360*
X6064440Y6537330*
X6087920Y6519930*
X6111860Y6503180*
X6136250Y6487080*
X6161060Y6471650*
X6186280Y6456890*
X6211890Y6442820*
X6237870Y6429450*
X6264210Y6416790*
X6290880Y6404840*
X6317860Y6393620*
X6345140Y6383140*
X6372690Y6373400*
X6400490Y6364410*
X6428530Y6356170*
X6456780Y6348690*
X6485220Y6341980*
X6513830Y6336040*
X6542590Y6330880*
X6571480Y6326500*
X6600480Y6322900*
X6629570Y6320090*
X6658720Y6318070*
X6687920Y6316840*
X6718790Y6316490*
X6748010Y6316890*
X6777210Y6318080*
X6806360Y6320060*
X6835450Y6322820*
X6864450Y6326370*
X6893350Y6330700*
X6922120Y6335820*
X6950740Y6341710*
X6979190Y6348370*
X7007450Y6355800*
X7035500Y6363990*
X7063320Y6372940*
X7090880Y6382640*
X7118170Y6393080*
X7145170Y6404260*
X7171860Y6416160*
X7198210Y6428780*
X7224210Y6442110*
X7249840Y6456140*
X7275080Y6470860*
X7299920Y6486260*
X7324330Y6502320*
X7348300Y6519040*
X7371810Y6536400*
X7394840Y6554390*
X7417370Y6573000*
X7439390Y6592210*
X7460880Y6612010*
X7481830Y6632380*
X7502220Y6653310*
X7522030Y6674790*
X7541260Y6696800*
X7559880Y6719320*
X7577890Y6742330*
X7595270Y6765820*
X7612010Y6789770*
X7628090Y6814170*
X7643500Y6838990*
X7658240Y6864220*
X7672290Y6889840*
X7685640Y6915830*
X7698280Y6942180*
X7710200Y6968860*
X7721400Y6995850*
X7731860Y7023130*
X7741580Y7050690*
X7750550Y7078500*
X7758770Y7106540*
X7766220Y7134790*
X7772910Y7163240*
X7778820Y7191860*
X7783960Y7220630*
X7788320Y7249520*
X7791890Y7278520*
X7794680Y7307610*
X7796680Y7336760*
X7797890Y7365960*
X7798310Y7395180*
X7797940Y7424400*
X7796780Y7453600*
X7794830Y7482760*
X7792090Y7511850*
X7788560Y7540860*
X7784250Y7569760*
X7779160Y7598530*
X7773290Y7627160*
X7766650Y7655620*
X7759240Y7683890*
X7751070Y7711950*
X7742140Y7739770*
X7732460Y7767340*
X7722040Y7794640*
X7710880Y7821650*
X7699000Y7848350*
X7686400Y7874720*
X7673090Y7900730*
X7659080Y7926370*
X7644380Y7951630*
X7629000Y7976480*
X7612950Y8000900*
X7596250Y8024880*
X7578910Y8048400*
X7560940Y8071440*
X7542350Y8093990*
X7523160Y8116030*
X7503380Y8137540*
X7483020Y8158500*
X7462100Y8178910*
X7440640Y8198740*
X7418650Y8217980*
X7396140Y8236620*
X7373140Y8254650*
X7349660Y8272050*
X7325720Y8288800*
X7301330Y8304900*
X7276520Y8320330*
X7251300Y8335090*
X7225690Y8349160*
X7199710Y8362530*
X7173370Y8375190*
X7146700Y8387140*
X7119720Y8398360*
X7092440Y8408840*
X7064890Y8418580*
X7037090Y8427570*
X7009050Y8435810*
X6980800Y8443290*
X6952360Y8450000*
X6923750Y8455940*
X6894990Y8461100*
X6866100Y8465480*
X6837100Y8469080*
X6808010Y8471890*
X6778860Y8473910*
X6749660Y8475140*
X6718790Y8475490*
D02*
D13*
X6250050Y1031930D02*
X6699250Y253930D01*
X7597680*
X8046880Y1031930*
X7597680Y1809960*
X6699250*
X6250050Y1031930*
X6797220Y1759560D02*
X7177450Y1101030D01*
X7148460Y1050840*
X6961110Y1375330*
X6956380Y1383540*
X6948230Y1378800*
X6363860Y1041410*
X6313690*
X6338800Y1084890*
X6923150Y1422260*
X6931340Y1426970*
X6926610Y1435130*
X6739260Y1759560*
X6797220*
X7507460Y304320D02*
X6982950Y607070D01*
X6974780Y611820*
X6970060Y603650*
X6797220Y304320*
X6739260*
X6926610Y628750*
X6931340Y636920*
X6923150Y641630*
X6338800Y979000*
X6313690Y1022490*
X6363860*
X6948230Y685090*
X6956380Y680350*
X6961110Y688570*
X7148460Y1013050*
X7177450Y962840*
X7004610Y663500*
X6999890Y655310*
X7008060Y650590*
X7532570Y347780*
X7557630Y304320*
X7507460*
X7599130Y1706700D02*
Y457620D01*
X7616770Y488150*
X7959680Y1082110*
X7988680Y1031930*
X7574010Y313800*
X7548920Y357210*
Y1606320*
X7531300Y1575750*
X7188370Y981780*
X7159390Y1031930*
X7574010Y1750130*
X7599130Y1706700*
X0Y0D02*
M02*
