%FSLAX35Y35*%
%MOMM*%
G04 EasyPC Gerber Version 18.0.9 Build 3640 *
%ADD122C,0.05000*%
%ADD10C,0.12700*%
%ADD120C,0.20000*%
%ADD121C,0.30480*%
X0Y0D02*
D02*
D10*
X761440Y5292260D02*
X753500Y5300200D01*
X737620Y5308140*
X713810*
X697940Y5300200*
X690000Y5292260*
X682060Y5276390*
Y5244640*
X690000Y5228760*
X697940Y5220820*
X713810Y5212890*
X737620*
X753500Y5220820*
X761440Y5228760*
X809060Y5276390D02*
Y5244640D01*
X817000Y5228760*
X824940Y5220820*
X840810Y5212890*
X856690*
X872560Y5220820*
X880500Y5228760*
X888440Y5244640*
Y5276390*
X880500Y5292260*
X872560Y5300200*
X856690Y5308140*
X840810*
X824940Y5300200*
X817000Y5292260*
X809060Y5276390*
X936060Y5308140D02*
Y5212890D01*
X1015440Y5308140*
Y5212890*
X1102750Y5308140D02*
Y5212890D01*
X1063060Y5276390*
X1126560*
X963070Y2190850D02*
Y1259850D01*
X1096070Y2211850D02*
X634070D01*
Y1231850*
X1103070*
X1124070Y1735850D02*
G75*
G02X1201070Y1574850I38500J-80500D01*
G01*
G75*
G02X1124070Y1735850I-38500J80500*
G01*
X1206160Y8860160D02*
X1110910D01*
Y8804600*
X1118840Y8788720*
X1134720Y8780780*
X1150590Y8788720*
X1158530Y8804600*
Y8860160*
Y8804600D02*
X1206160Y8780780D01*
Y8733160D02*
X1110910D01*
Y8685530*
X1118840Y8669660*
X1126780Y8661720*
X1142660Y8653780*
X1174410*
X1190280Y8661720*
X1198220Y8669660*
X1206160Y8685530*
Y8733160*
Y8590280D02*
Y8558530D01*
Y8574410D02*
X1110910D01*
X1126780Y8590280*
X1251420Y8535940D02*
X1386040D01*
Y8848360*
X1251420*
Y8535940*
X1463810Y8450350D02*
X1598430D01*
Y8762770*
X1463810*
Y8450350*
X1465430Y950270D02*
Y1084890D01*
X1153010*
Y950270*
X1465430*
X1496250Y1000110D02*
Y904860D01*
X1551810*
X1567690Y912790*
X1575630Y928670*
X1567690Y944540*
X1551810Y952480*
X1496250*
X1551810D02*
X1575630Y1000110D01*
X1678810Y952480D02*
X1694690Y960420D01*
X1702630Y976290*
X1694690Y992170*
X1678810Y1000110*
X1623250*
Y904860*
X1678810*
X1694690Y912790*
X1702630Y928670*
X1694690Y944540*
X1678810Y952480*
X1623250*
X1789940Y1000110D02*
Y904860D01*
X1750250Y968360*
X1813750*
X1627870Y8020240D02*
X1619930Y8012300D01*
X1611990Y7996420*
Y7972610*
X1619930Y7956740*
X1627870Y7948800*
X1643740Y7940860*
X1675490*
X1691370Y7948800*
X1699310Y7956740*
X1707240Y7972610*
Y7996420*
X1699310Y8012300*
X1691370Y8020240*
X1611990Y8067860D02*
X1707240D01*
Y8115490*
X1699310Y8131360*
X1691370Y8139300*
X1675490Y8147240*
X1643740*
X1627870Y8139300*
X1619930Y8131360*
X1611990Y8115490*
Y8067860*
Y8258360D02*
Y8194860D01*
X1667560Y8250420*
X1683430Y8258360*
X1699310Y8250420*
X1707240Y8234550*
Y8210740*
X1699310Y8194860*
X1593070Y2211850D02*
X1264070D01*
X1586560Y8400510D02*
X1491310D01*
Y8344950*
X1499240Y8329070*
X1515120Y8321130*
X1530990Y8329070*
X1538930Y8344950*
Y8400510*
Y8344950D02*
X1586560Y8321130D01*
Y8273510D02*
X1491310D01*
Y8225880*
X1499240Y8210010*
X1507180Y8202070*
X1523060Y8194130*
X1554810*
X1570680Y8202070*
X1578620Y8210010*
X1586560Y8225880*
Y8273510*
Y8083010D02*
Y8146510D01*
X1530990Y8090950*
X1515120Y8083010*
X1499240Y8090950*
X1491310Y8106820*
Y8130630*
X1499240Y8146510*
X1682540Y8326720D02*
X1817160D01*
Y8639140*
X1682540*
Y8326720*
X1835440Y2458380D02*
X1756060Y2553630D01*
X1835440D02*
X1756060Y2458380D01*
X1652880Y2506010D02*
X1637000Y2498070D01*
X1629060Y2482200*
X1637000Y2466320*
X1652880Y2458380*
X1708440*
Y2553630*
X1652880*
X1637000Y2545700*
X1629060Y2529820*
X1637000Y2513950*
X1652880Y2506010*
X1708440*
X1541750Y2458380D02*
Y2553630D01*
X1581440D02*
X1502060D01*
X1438560Y2458380D02*
X1406810D01*
X1422690D02*
Y2553630D01*
X1438560Y2537760*
X1795750Y3017720D02*
X1803690Y3025660D01*
X1811630Y3041540*
Y3065350*
X1803690Y3081220*
X1795750Y3089160*
X1779880Y3097100*
X1748130*
X1732250Y3089160*
X1724310Y3081220*
X1716380Y3065350*
Y3041540*
X1724310Y3025660*
X1732250Y3017720*
X1764000Y2914540D02*
X1771940Y2898660D01*
X1787810Y2890720*
X1803690Y2898660*
X1811630Y2914540*
Y2970100*
X1716380*
Y2914540*
X1724310Y2898660*
X1740190Y2890720*
X1756060Y2898660*
X1764000Y2914540*
Y2970100*
X1811630Y2843100D02*
X1716380Y2763720D01*
Y2843100D02*
X1811630Y2763720D01*
Y2652600D02*
Y2716100D01*
X1756060Y2660540*
X1740190Y2652600*
X1724310Y2660540*
X1716380Y2676410*
Y2700220*
X1724310Y2716100*
X1857480Y8947780D02*
X2333280D01*
Y8556980*
X1857480*
Y8947780*
X1986200Y8029620D02*
X1914770D01*
X1898890Y8037560*
X1890950Y8053430*
Y8085180*
X1898890Y8101060*
X1914770Y8109000*
X1986200*
X1890950Y8180430D02*
X1898890Y8196310D01*
X1914770Y8212180*
X1938580Y8220120*
X1962390*
X1978270Y8212180*
X1986200Y8196310*
Y8180430*
X1978270Y8164560*
X1962390Y8156620*
X1946520Y8164560*
X1938580Y8180430*
Y8196310*
X1946520Y8212180*
X1962390Y8220120*
X1965220Y8277890D02*
G75*
G02X1914420I-25400D01*
G01*
G75*
G02X1965220I25400*
G01*
G36*
G75*
G02X1914420I-25400*
G01*
G75*
G02X1965220I25400*
G01*
G37*
X1968580Y8978850D02*
Y9074100D01*
X2047960*
X2095580D02*
Y8978850D01*
X2143210*
X2159080Y8986780*
X2167020Y8994720*
X2174960Y9010600*
Y9042350*
X2167020Y9058220*
X2159080Y9066160*
X2143210Y9074100*
X2095580*
X2238460D02*
X2270210D01*
X2254330D02*
Y8978850D01*
X2238460Y8994720*
X2032720Y2974350D02*
X1898100D01*
Y2661930*
X2032720*
Y2974350*
X2226370Y8279940D02*
Y8525540D01*
X1945570*
Y8279940*
X2226370*
X2283150Y2977520D02*
X2148530D01*
Y2665100*
X2283150*
Y2977520*
X2309440Y2394580D02*
X1868640D01*
Y2620380*
X2309440*
Y2394580*
X2368880Y8019370D02*
Y8153990D01*
X2056460*
Y8019370*
X2368880*
X2301300Y7907640D02*
X2309240Y7899700D01*
X2325120Y7891760*
X2348930*
X2364800Y7899700*
X2372740Y7907640*
X2380680Y7923510*
Y7955260*
X2372740Y7971140*
X2364800Y7979080*
X2348930Y7987010*
X2325120*
X2309240Y7979080*
X2301300Y7971140*
X2253680Y7891760D02*
Y7987010D01*
X2206050*
X2190180Y7979080*
X2182240Y7971140*
X2174300Y7955260*
Y7923510*
X2182240Y7907640*
X2190180Y7899700*
X2206050Y7891760*
X2253680*
X2118740Y7899700D02*
X2102870Y7891760D01*
X2086990*
X2071120Y7899700*
X2063180Y7915580*
X2071120Y7931450*
X2086990Y7939390*
X2102870*
X2086990D02*
X2071120Y7947330D01*
X2063180Y7963200*
X2071120Y7979080*
X2086990Y7987010*
X2102870*
X2118740Y7979080*
X2472740Y8795110D02*
X2464800Y8803050D01*
X2448920Y8810990*
X2425110*
X2409240Y8803050*
X2401300Y8795110*
X2393360Y8779240*
Y8747490*
X2401300Y8731610*
X2409240Y8723670*
X2425110Y8715740*
X2448920*
X2464800Y8723670*
X2472740Y8731610*
X2520360Y8810990D02*
Y8715740D01*
X2567990*
X2583860Y8723670*
X2591800Y8731610*
X2599740Y8747490*
Y8779240*
X2591800Y8795110*
X2583860Y8803050*
X2567990Y8810990*
X2520360*
X2663240D02*
X2694990D01*
X2679110D02*
Y8715740D01*
X2663240Y8731610*
X2398960Y8342570D02*
X2533580D01*
Y8654990*
X2398960*
Y8342570*
X2518760Y2295090D02*
X2447330D01*
X2431450Y2303030*
X2423510Y2318900*
Y2350650*
X2431450Y2366530*
X2447330Y2374470*
X2518760*
X2431450Y2430030D02*
X2423510Y2445900D01*
Y2461780*
X2431450Y2477650*
X2447330Y2485590*
X2463200Y2477650*
X2471140Y2461780*
Y2445900*
Y2461780D02*
X2479080Y2477650D01*
X2494950Y2485590*
X2510830Y2477650*
X2518760Y2461780*
Y2445900*
X2510830Y2430030*
X2440070Y1266850D02*
Y1231850D01*
X2307070*
X2440070Y2183850D02*
Y2211850D01*
X2314070*
X2407560Y3020890D02*
X2415500Y3028830D01*
X2423440Y3044710*
Y3068520*
X2415500Y3084390*
X2407560Y3092330*
X2391690Y3100270*
X2359940*
X2344060Y3092330*
X2336120Y3084390*
X2328190Y3068520*
Y3044710*
X2336120Y3028830*
X2344060Y3020890*
X2375810Y2917710D02*
X2383750Y2901830D01*
X2399620Y2893890*
X2415500Y2901830*
X2423440Y2917710*
Y2973270*
X2328190*
Y2917710*
X2336120Y2901830*
X2352000Y2893890*
X2367870Y2901830*
X2375810Y2917710*
Y2973270*
X2423440Y2846270D02*
X2328190Y2766890D01*
Y2846270D02*
X2423440Y2766890D01*
Y2703390D02*
Y2671640D01*
Y2687520D02*
X2328190D01*
X2344060Y2703390*
X2671580Y1539750D02*
X2806200D01*
Y1852170*
X2671580*
Y1539750*
X2838780Y1537460D02*
X2934030D01*
Y1593020*
X2926100Y1608900*
X2910220Y1616840*
X2894350Y1608900*
X2886410Y1593020*
Y1537460*
Y1593020D02*
X2838780Y1616840D01*
X2886410Y1720020D02*
X2878470Y1735900D01*
X2862600Y1743840*
X2846720Y1735900*
X2838780Y1720020*
Y1664460*
X2934030*
Y1720020*
X2926100Y1735900*
X2910220Y1743840*
X2894350Y1735900*
X2886410Y1720020*
Y1664460*
X2846720Y1799400D02*
X2838780Y1815270D01*
Y1831150*
X2846720Y1847020*
X2862600Y1854960*
X2878470Y1847020*
X2886410Y1831150*
Y1815270*
Y1831150D02*
X2894350Y1847020D01*
X2910220Y1854960*
X2926100Y1847020*
X2934030Y1831150*
Y1815270*
X2926100Y1799400*
X2897260Y1906830D02*
X2905200Y1898890D01*
X2921080Y1890950*
X2944890*
X2960760Y1898890*
X2968700Y1906830*
X2976640Y1922700*
Y1954450*
X2968700Y1970330*
X2960760Y1978270*
X2944890Y1986200*
X2921080*
X2905200Y1978270*
X2897260Y1970330*
X2794080Y1938580D02*
X2778200Y1930640D01*
X2770260Y1914770*
X2778200Y1898890*
X2794080Y1890950*
X2849640*
Y1986200*
X2794080*
X2778200Y1978270*
X2770260Y1962390*
X2778200Y1946520*
X2794080Y1938580*
X2849640*
X2706760Y1890950D02*
X2675010D01*
X2690890D02*
Y1986200D01*
X2706760Y1970330*
X2987030Y2009050D02*
Y2143670D01*
X2674610*
Y2009050*
X2987030*
X2990200Y2192910D02*
Y2327530D01*
X2677780*
Y2192910*
X2990200*
X2928960Y2391840D02*
X2936900Y2383900D01*
X2952780Y2375960*
X2976590*
X2992460Y2383900*
X3000400Y2391840*
X3008340Y2407710*
Y2439460*
X3000400Y2455340*
X2992460Y2463280*
X2976590Y2471210*
X2952780*
X2936900Y2463280*
X2928960Y2455340*
X2825780Y2423590D02*
X2809900Y2415650D01*
X2801960Y2399780*
X2809900Y2383900*
X2825780Y2375960*
X2881340*
Y2471210*
X2825780*
X2809900Y2463280*
X2801960Y2447400*
X2809900Y2431530*
X2825780Y2423590*
X2881340*
X2690840Y2375960D02*
X2754340D01*
X2698780Y2431530*
X2690840Y2447400*
X2698780Y2463280*
X2714650Y2471210*
X2738460*
X2754340Y2463280*
X3376300Y2130740D02*
Y1514790D01*
X3084200*
Y2130740*
X3376300*
X3498040Y2079530D02*
X3505980Y2071590D01*
X3513920Y2055720*
X3505980Y2039840*
X3498040Y2031900*
X3418670*
Y2016030*
Y2031900D02*
Y2063650D01*
X3466290Y1896970D02*
X3474230Y1881090D01*
X3490100Y1873150*
X3505980Y1881090*
X3513920Y1896970*
Y1952530*
X3418670*
Y1896970*
X3426600Y1881090*
X3442480Y1873150*
X3458350Y1881090*
X3466290Y1896970*
Y1952530*
X3513920Y1809650D02*
Y1777900D01*
Y1793780D02*
X3418670D01*
X3434540Y1809650*
X3743970Y5151380D02*
Y5406630D01*
X3911920*
Y5176780*
X3886520Y5151380*
X3743970*
X3753410Y5693140D02*
X4008660D01*
Y5525190*
X3778810*
X3753410Y5550590*
Y5693140*
X3951450Y5130430D02*
X4046700D01*
Y5178060*
X4038770Y5193930*
X4030830Y5201870*
X4014950Y5209810*
X3983200*
X3967330Y5201870*
X3959390Y5193930*
X3951450Y5178060*
Y5130430*
Y5257430D02*
X4046700D01*
Y5312990*
X4038770Y5328870*
X4022890Y5336810*
X4007020Y5328870*
X3999080Y5312990*
Y5257430*
Y5312990D02*
X3951450Y5336810D01*
Y5447930D02*
Y5384430D01*
X4007020Y5439990*
X4022890Y5447930*
X4038770Y5439990*
X4046700Y5424120*
Y5400310*
X4038770Y5384430*
X4054440Y5675860D02*
Y5580610D01*
X4102070*
X4117940Y5588540*
X4125880Y5596480*
X4133820Y5612360*
Y5644110*
X4125880Y5659980*
X4117940Y5667920*
X4102070Y5675860*
X4054440*
X4181440D02*
Y5580610D01*
X4237000*
X4252880Y5588540*
X4260820Y5604420*
X4252880Y5620290*
X4237000Y5628230*
X4181440*
X4237000D02*
X4260820Y5675860D01*
X4324320D02*
X4356070D01*
X4340190D02*
Y5580610D01*
X4324320Y5596480*
X4268480Y4571280D02*
X4260540Y4563340D01*
X4252600Y4547460*
Y4523650*
X4260540Y4507780*
X4268480Y4499840*
X4284350Y4491900*
X4316100*
X4331980Y4499840*
X4339920Y4507780*
X4347850Y4523650*
Y4547460*
X4339920Y4563340*
X4331980Y4571280*
X4252600Y4618900D02*
X4347850D01*
Y4674460*
X4339920Y4690340*
X4324040Y4698280*
X4308170Y4690340*
X4300230Y4674460*
Y4618900*
Y4674460D02*
X4252600Y4698280D01*
Y4785590D02*
X4347850D01*
X4284350Y4745900*
Y4809400*
X4232840Y4522860D02*
Y4657480D01*
X3920420*
Y4522860*
X4232840*
X4293090Y4117190D02*
Y4467190D01*
X3827490*
Y4117190*
X4054990*
Y4120990*
X4079990*
Y4117190*
X4293090*
X4540050Y4067190D02*
X4468620D01*
X4452740Y4075130*
X4444800Y4091000*
Y4122750*
X4452740Y4138630*
X4468620Y4146570*
X4540050*
X4444800Y4194190D02*
X4540050D01*
Y4249750*
X4532120Y4265630*
X4516240Y4273570*
X4500370Y4265630*
X4492430Y4249750*
Y4194190*
Y4249750D02*
X4444800Y4273570D01*
Y4337070D02*
Y4368820D01*
Y4352940D02*
X4540050D01*
X4524180Y4337070*
X6113640Y284110D02*
X7701140D01*
Y1808110*
X6113640*
Y284110*
X6451090Y1960590D02*
X6443150Y1968530D01*
X6427270Y1976470*
X6403460*
X6387590Y1968530*
X6379650Y1960590*
X6371710Y1944720*
Y1912970*
X6379650Y1897090*
X6387590Y1889150*
X6403460Y1881220*
X6427270*
X6443150Y1889150*
X6451090Y1897090*
X6498710Y1944720D02*
Y1912970D01*
X6506650Y1897090*
X6514590Y1889150*
X6530460Y1881220*
X6546340*
X6562210Y1889150*
X6570150Y1897090*
X6578090Y1912970*
Y1944720*
X6570150Y1960590*
X6562210Y1968530*
X6546340Y1976470*
X6530460*
X6514590Y1968530*
X6506650Y1960590*
X6498710Y1944720*
X6625710Y1976470D02*
Y1881220D01*
X6705090Y1976470*
Y1881220*
X6752710Y1968530D02*
X6768590Y1976470D01*
X6792400*
X6808270Y1968530*
X6816210Y1952650*
Y1944720*
X6808270Y1928840*
X6792400Y1920900*
X6752710*
Y1881220*
X6816210*
X6401650Y4327840D02*
X6473080D01*
X6488960Y4319900*
X6496900Y4304030*
Y4272280*
X6488960Y4256400*
X6473080Y4248460*
X6401650*
X6488960Y4200840D02*
X6496900Y4184960D01*
Y4161150*
X6488960Y4145280*
X6473080Y4137340*
X6465150*
X6449270Y4145280*
X6441330Y4161150*
Y4200840*
X6401650*
Y4137340*
X6623590Y4378900D02*
X6609210Y3229520D01*
X7719210*
X7733590Y4378900*
X7216090*
Y4341400*
X7141090*
Y4378900*
X6623590*
X6647500Y5472980D02*
Y5377730D01*
X6703060*
X6718940Y5385660*
X6726880Y5401540*
X6718940Y5417410*
X6703060Y5425350*
X6647500*
X6703060D02*
X6726880Y5472980D01*
X6830060Y5433290D02*
X6853880D01*
Y5441230*
X6845940Y5457100*
X6838000Y5465040*
X6822130Y5472980*
X6806250*
X6790380Y5465040*
X6782440Y5457100*
X6774500Y5441230*
Y5409480*
X6782440Y5393600*
X6790380Y5385660*
X6806250Y5377730*
X6822130*
X6838000Y5385660*
X6845940Y5393600*
X6853880Y5409480*
X6901500Y5465040D02*
X6917380Y5472980D01*
X6941190*
X6957060Y5465040*
X6965000Y5449160*
Y5441230*
X6957060Y5425350*
X6941190Y5417410*
X6901500*
Y5377730*
X6965000*
X6676030Y5707560D02*
Y5612310D01*
X6731590*
X6747470Y5620240*
X6755410Y5636120*
X6747470Y5651990*
X6731590Y5659930*
X6676030*
X6731590D02*
X6755410Y5707560D01*
X6858590Y5667870D02*
X6882410D01*
Y5675810*
X6874470Y5691680*
X6866530Y5699620*
X6850660Y5707560*
X6834780*
X6818910Y5699620*
X6810970Y5691680*
X6803030Y5675810*
Y5644060*
X6810970Y5628180*
X6818910Y5620240*
X6834780Y5612310*
X6850660*
X6866530Y5620240*
X6874470Y5628180*
X6882410Y5644060*
X6969720Y5707560D02*
Y5612310D01*
X6930030Y5675810*
X6993530*
X6989860Y4794670D02*
Y4889920D01*
X6934300*
X6918420Y4881990*
X6910480Y4866110*
X6918420Y4850240*
X6934300Y4842300*
X6989860*
X6934300D02*
X6910480Y4794670D01*
X6807300Y4834360D02*
X6783480D01*
Y4826420*
X6791420Y4810550*
X6799360Y4802610*
X6815230Y4794670*
X6831110*
X6846980Y4802610*
X6854920Y4810550*
X6862860Y4826420*
Y4858170*
X6854920Y4874050*
X6846980Y4881990*
X6831110Y4889920*
X6815230*
X6799360Y4881990*
X6791420Y4874050*
X6783480Y4858170*
X6735860Y4794670D02*
X6672360Y4889920D01*
X6735860*
X6993030Y5048270D02*
Y5143520D01*
X6937470*
X6921590Y5135590*
X6913650Y5119710*
X6921590Y5103840*
X6937470Y5095900*
X6993030*
X6937470D02*
X6913650Y5048270D01*
X6810470Y5087960D02*
X6786650D01*
Y5080020*
X6794590Y5064150*
X6802530Y5056210*
X6818400Y5048270*
X6834280*
X6850150Y5056210*
X6858090Y5064150*
X6866030Y5080020*
Y5111770*
X6858090Y5127650*
X6850150Y5135590*
X6834280Y5143520*
X6818400*
X6802530Y5135590*
X6794590Y5127650*
X6786650Y5111770*
X6739030Y5072090D02*
X6731090Y5087960D01*
X6715220Y5095900*
X6699340*
X6683470Y5087960*
X6675530Y5072090*
X6683470Y5056210*
X6699340Y5048270*
X6715220*
X6731090Y5056210*
X6739030Y5072090*
Y5095900*
X6731090Y5119710*
X6715220Y5135590*
X6699340Y5143520*
X7065060Y4926930D02*
Y4792310D01*
X7377480*
Y4926930*
X7065060*
Y5167850D02*
Y5033230D01*
X7377480*
Y5167850*
X7065060*
Y5494360D02*
Y5359740D01*
X7377480*
Y5494360*
X7065060*
X7068230Y5725770D02*
Y5591150D01*
X7380650*
Y5725770*
X7068230*
X7565920Y5231250D02*
Y5096630D01*
X7878340*
Y5231250*
X7565920*
X7581770Y4904740D02*
Y4770120D01*
X7894190*
Y4904740*
X7581770*
X7943340Y3661820D02*
X7935400Y3669760D01*
X7919520Y3677700*
X7895710*
X7879840Y3669760*
X7871900Y3661820*
X7863960Y3645950*
Y3614200*
X7871900Y3598320*
X7879840Y3590380*
X7895710Y3582450*
X7919520*
X7935400Y3590380*
X7943340Y3598320*
X7990960Y3677700D02*
Y3582450D01*
X8030650Y3630070*
X8070340Y3582450*
Y3677700*
X8133840D02*
X8165590D01*
X8149710D02*
Y3582450D01*
X8133840Y3598320*
X7874290Y5276510D02*
Y5371760D01*
X7818730*
X7802850Y5363830*
X7794910Y5347950*
X7802850Y5332080*
X7818730Y5324140*
X7874290*
X7818730D02*
X7794910Y5276510D01*
X7691730Y5316200D02*
X7667910D01*
Y5308260*
X7675850Y5292390*
X7683790Y5284450*
X7699660Y5276510*
X7715540*
X7731410Y5284450*
X7739350Y5292390*
X7747290Y5308260*
Y5340010*
X7739350Y5355890*
X7731410Y5363830*
X7715540Y5371760*
X7699660*
X7683790Y5363830*
X7675850Y5355890*
X7667910Y5340010*
X7556790Y5276510D02*
X7620290D01*
X7564730Y5332080*
X7556790Y5347950*
X7564730Y5363830*
X7580600Y5371760*
X7604410*
X7620290Y5363830*
X7896480Y4633000D02*
Y4728250D01*
X7840920*
X7825040Y4720320*
X7817100Y4704440*
X7825040Y4688570*
X7840920Y4680630*
X7896480*
X7840920D02*
X7817100Y4633000D01*
X7713920Y4672690D02*
X7690100D01*
Y4664750*
X7698040Y4648880*
X7705980Y4640940*
X7721850Y4633000*
X7737730*
X7753600Y4640940*
X7761540Y4648880*
X7769480Y4664750*
Y4696500*
X7761540Y4712380*
X7753600Y4720320*
X7737730Y4728250*
X7721850*
X7705980Y4720320*
X7698040Y4712380*
X7690100Y4696500*
X7634540Y4640940D02*
X7618670Y4633000D01*
X7602790*
X7586920Y4640940*
X7578980Y4656820*
X7586920Y4672690*
X7602790Y4680630*
X7618670*
X7602790D02*
X7586920Y4688570D01*
X7578980Y4704440*
X7586920Y4720320*
X7602790Y4728250*
X7618670*
X7634540Y4720320*
X7914760Y3815810D02*
X8049380D01*
Y4128230*
X7914760*
Y3815810*
X8199280Y2678790D02*
X8191340Y2670850D01*
X8183400Y2654970*
Y2631160*
X8191340Y2615290*
X8199280Y2607350*
X8215150Y2599410*
X8246900*
X8262780Y2607350*
X8270720Y2615290*
X8278650Y2631160*
Y2654970*
X8270720Y2670850*
X8262780Y2678790*
X8215150Y2726410D02*
X8246900D01*
X8262780Y2734350*
X8270720Y2742290*
X8278650Y2758160*
Y2774040*
X8270720Y2789910*
X8262780Y2797850*
X8246900Y2805790*
X8215150*
X8199280Y2797850*
X8191340Y2789910*
X8183400Y2774040*
Y2758160*
X8191340Y2742290*
X8199280Y2734350*
X8215150Y2726410*
X8183400Y2853410D02*
X8278650D01*
X8183400Y2932790*
X8278650*
X8183400Y2980410D02*
X8278650Y3043910D01*
Y2980410*
X8248550Y1321100D02*
X8312050D01*
X8248550Y1575100D02*
X8312050D01*
X8248550Y1829100D02*
X8312050D01*
X8248550Y2083100D02*
X8312050D01*
X8248550Y2337100D02*
X8312050D01*
X8261250Y2476800D02*
Y1181400D01*
X7981850*
Y2476800*
X8261250*
D02*
D120*
X3191970Y3708990D02*
Y4585290D01*
X3395170*
Y4991690*
X1179020*
Y4940890*
X696420*
Y4991690*
X601170*
Y3143840*
X696420*
Y3207340*
X1179020*
Y3137490*
X3388820*
X3191970Y3708990D02*
Y3213690D01*
X3388820*
Y3137490*
D02*
D121*
X3905740Y4114640D02*
G75*
G02X3969240I31750D01*
G01*
G75*
G02X3905740I-31750*
G01*
X6304140Y982610D02*
Y728610D01*
Y1109610D02*
X6431140Y982610D01*
X6177140*
X6304140Y1109610*
G36*
X6431140Y982610*
X6177140*
X6304140Y1109610*
G37*
X6494640Y1300110D02*
X7510640D01*
Y601610*
X6494640*
Y1300110*
G36*
X7510640*
Y601610*
X6494640*
Y1300110*
G37*
X7637640D02*
Y1554110D01*
Y1427110D02*
X7701140D01*
D02*
D122*
X6935970Y7113490D02*
X6958160D01*
X6964500Y7119830*
X6970840Y7138850*
X7202250Y7271990*
X7126170Y7401960*
X7151530*
X7221270Y7281500*
X7427320Y7401960*
X7446340*
X7433660Y7379770*
X7227610Y7262480*
X7443170Y6888420*
Y7379770*
X7452680Y7398790*
X7617520Y7113490*
X7639710*
X7465360Y7420980*
X7110320*
X6935970Y7113490*
G36*
X6958160*
X6964500Y7119830*
X6970840Y7138850*
X7202250Y7271990*
X7126170Y7401960*
X7151530*
X7221270Y7281500*
X7427320Y7401960*
X7446340*
X7433660Y7379770*
X7227610Y7262480*
X7443170Y6888420*
Y7379770*
X7452680Y7398790*
X7617520Y7113490*
X7639710*
X7465360Y7420980*
X7110320*
X6935970Y7113490*
G37*
X7110320Y6809170*
X7465360*
X7639710Y7113490*
X7614350*
X7604840Y7097640*
X7462190Y7341730*
Y6850380*
X7452680Y6831360*
X7291010Y7113490*
X7303690Y7135680*
X7297350Y7142020*
X7284670Y7123000*
X7211760Y7252970*
X6980350Y7119830*
X6961330*
Y7113490*
X6977180*
X7208590Y6977180*
X7287840Y7107150*
X7300520Y7084960*
X7148360Y6828190*
X7126170*
X7202250Y6958160*
X6970840Y7094470*
X6958160Y7113490*
X6935970*
G36*
X7110320Y6809170*
X7465360*
X7639710Y7113490*
X7614350*
X7604840Y7097640*
X7462190Y7341730*
Y6850380*
X7452680Y6831360*
X7291010Y7113490*
X7303690Y7135680*
X7297350Y7142020*
X7284670Y7123000*
X7211760Y7252970*
X6980350Y7119830*
X6961330*
Y7113490*
X6977180*
X7208590Y6977180*
X7287840Y7107150*
X7300520Y7084960*
X7148360Y6828190*
X7126170*
X7202250Y6958160*
X6970840Y7094470*
X6958160Y7113490*
X6935970*
G37*
X7110760Y7713090D02*
X7463540D01*
Y7477430*
X7404270*
Y7653820*
X7316780*
Y7536700*
X7258930*
Y7653820*
X7170030*
Y7477430*
X7110760*
Y7713090*
G36*
X7463540*
Y7477430*
X7404270*
Y7653820*
X7316780*
Y7536700*
X7258930*
Y7653820*
X7170030*
Y7477430*
X7110760*
Y7713090*
G37*
Y8065870D02*
Y8006600D01*
X7170030*
Y8065870*
X7110760*
G36*
Y8006600*
X7170030*
Y8065870*
X7110760*
G37*
Y8977440D02*
Y8918180D01*
X7170030*
Y8977440*
X7110760*
G36*
Y8918180*
X7170030*
Y8977440*
X7110760*
G37*
X7126280Y6776110D02*
Y6754940D01*
X7126520Y6751810*
X7127160Y6748950*
X7128070Y6746610*
X7129100Y6745070*
X7130430Y6743440*
X7132280Y6742600*
X7134660Y6742290*
X7137570Y6742250*
X7139470Y6742490*
X7141100Y6743130*
X7142730Y6744030*
X7144620Y6745070*
X7145680Y6746390*
X7146740Y6748240*
X7147800Y6750620*
X7148860Y6753530*
X7149080Y6752500*
X7149560Y6751590*
X7150050Y6750950*
X7150270Y6750710*
X7151330Y6749870*
X7152390Y6749300*
X7153440Y6748730*
X7154500Y6747890*
X7155270Y6747400*
X7157500Y6746130*
X7161050Y6744320*
X7165790Y6742250*
Y6753530*
X7161030Y6756220*
X7157320Y6758120*
X7154680Y6759490*
X7153090Y6760590*
X7152060Y6761650*
X7151150Y6762710*
X7150510Y6763760*
X7150270Y6764820*
Y6766230*
X7165790*
Y6776110*
X7126280*
G36*
Y6754940*
X7126520Y6751810*
X7127160Y6748950*
X7128070Y6746610*
X7129100Y6745070*
X7130430Y6743440*
X7132280Y6742600*
X7134660Y6742290*
X7137570Y6742250*
X7139470Y6742490*
X7141100Y6743130*
X7142730Y6744030*
X7144620Y6745070*
X7145680Y6746390*
X7146740Y6748240*
X7147800Y6750620*
X7148860Y6753530*
X7149080Y6752500*
X7149560Y6751590*
X7150050Y6750950*
X7150270Y6750710*
X7151330Y6749870*
X7152390Y6749300*
X7153440Y6748730*
X7154500Y6747890*
X7155270Y6747400*
X7157500Y6746130*
X7161050Y6744320*
X7165790Y6742250*
Y6753530*
X7161030Y6756220*
X7157320Y6758120*
X7154680Y6759490*
X7153090Y6760590*
X7152060Y6761650*
X7151150Y6762710*
X7150510Y6763760*
X7150270Y6764820*
Y6766230*
X7165790*
Y6776110*
X7126280*
G37*
X7146040Y6719670D02*
X7151090Y6719930D01*
X7155740Y6720730*
X7160130Y6722050*
X7164380Y6723900*
X7168350Y6726280*
X7171790Y6729190*
X7174700Y6732630*
X7177080Y6736600*
X7178930Y6740860*
X7180250Y6745240*
X7181050Y6749900*
X7181310Y6754940*
X7181050Y6759990*
X7180250Y6764650*
X7178930Y6769030*
X7177080Y6773290*
X7174700Y6777260*
X7171790Y6780700*
X7168350Y6783610*
X7164380Y6785990*
X7160130Y6787840*
X7155740Y6789160*
X7151090Y6789960*
X7146040Y6790220*
X7140990Y6789960*
X7136330Y6789160*
X7131950Y6787840*
X7127690Y6785990*
X7123720Y6783610*
X7120280Y6780700*
X7117370Y6777260*
X7114990Y6773290*
X7113140Y6769030*
X7111820Y6764650*
X7111020Y6759990*
X7110760Y6754940*
X7111020Y6749900*
X7111820Y6745240*
X7113140Y6740860*
X7114990Y6736600*
X7117370Y6732630*
X7120280Y6729190*
X7123720Y6726280*
X7127690Y6723900*
X7131950Y6722050*
X7136330Y6720730*
X7140990Y6719930*
X7146040Y6719670*
X7148860Y6828320D02*
X7186250Y6892880D01*
X7223650Y6957440*
X7261040Y7022000*
X7298440Y7086560*
X7295610Y7091490*
X7287150Y7106310*
X7268800Y7074560*
X7250460Y7042810*
X7232110Y7011060*
X7213770Y6979310*
X7213420Y6978610*
X7213060Y6977900*
X7212710Y6977190*
X7212360Y6976490*
X7211650Y6976840*
X7210950Y6977190*
X7210240Y6977550*
X7209540Y6977900*
X7152030Y7011060*
X6979530Y7110540*
X6959770*
X6964710Y7102080*
X6967180Y7097840*
X6969650Y7093610*
X7084650Y7027290*
X7142160Y6994130*
X7199660Y6960970*
X7200360Y6960610*
X7201780Y6959910*
X7202480Y6959560*
X7201780Y6958140*
X7201420Y6957440*
X7201070Y6956730*
X7182730Y6924980*
X7164380Y6893230*
X7146040Y6861480*
X7127690Y6829730*
X7148860*
Y6828320*
X7199660Y8065870D02*
Y8006600D01*
X7464950*
Y8065870*
X7199660*
G36*
Y8006600*
X7464950*
Y8065870*
X7199660*
G37*
Y8977440D02*
Y8918180D01*
X7464950*
Y8977440*
X7199660*
G36*
Y8918180*
X7464950*
Y8977440*
X7199660*
G37*
X7237760Y7919110D02*
X7463540Y7801990D01*
Y7742720*
X7110760*
Y7801990*
X7336540*
X7110760Y7919110*
Y7978380*
X7463540*
Y7919110*
X7237760*
G36*
X7463540Y7801990*
Y7742720*
X7110760*
Y7801990*
X7336540*
X7110760Y7919110*
Y7978380*
X7463540*
Y7919110*
X7237760*
G37*
X7295610Y8777070D02*
X7322430Y8759430D01*
X7349240Y8741790*
X7322430Y8724150*
X7295610Y8706510*
X7256100Y8680410*
X7216590Y8654300*
X7463540*
Y8595030*
X7110760*
Y8654300*
X7177080Y8698040*
X7243400Y8741790*
X7110760Y8830690*
Y8888540*
X7463540*
Y8830690*
X7216590*
X7295610Y8777070*
G36*
X7322430Y8759430*
X7349240Y8741790*
X7322430Y8724150*
X7295610Y8706510*
X7256100Y8680410*
X7216590Y8654300*
X7463540*
Y8595030*
X7110760*
Y8654300*
X7177080Y8698040*
X7243400Y8741790*
X7110760Y8830690*
Y8888540*
X7463540*
Y8830690*
X7216590*
X7295610Y8777070*
G37*
X7344900Y8273710D02*
G75*
G03X7310030Y8261030I-2130J-48430D01*
G01*
X7297350Y8248350*
X7246630Y8273710*
X7224440*
G75*
G03X7195910Y8264200I12700J-85660*
G01*
G75*
G03X7180060Y8245180I46010J-54450*
G01*
G75*
G03X7170550Y8219820I67160J-39650*
G01*
Y8200800*
X7176890Y8181780*
X7186400Y8169100*
X7192740Y8159590*
G75*
G02Y8137400I-26790J-11090*
G01*
X7183230Y8124720*
G75*
G02X7148360I-17430J42090*
G01*
G75*
G02X7123000Y8153250I68220J86180*
G01*
X7113490Y8178610*
G75*
G02X7110320Y8200800I61340J20080*
G01*
Y8222990*
X7116660Y8248350*
X7126170Y8267370*
X7138850Y8286390*
X7154700Y8302240*
X7173720Y8314920*
X7195910Y8324430*
G75*
G02X7221270Y8330770I30660J-68740*
G01*
X7344900*
Y8273710*
G36*
G75*
G03X7310030Y8261030I-2130J-48430*
G01*
X7297350Y8248350*
X7246630Y8273710*
X7224440*
G75*
G03X7195910Y8264200I12700J-85660*
G01*
G75*
G03X7180060Y8245180I46010J-54450*
G01*
G75*
G03X7170550Y8219820I67160J-39650*
G01*
Y8200800*
X7176890Y8181780*
X7186400Y8169100*
X7192740Y8159590*
G75*
G02Y8137400I-26790J-11090*
G01*
X7183230Y8124720*
G75*
G02X7148360I-17430J42090*
G01*
G75*
G02X7123000Y8153250I68220J86180*
G01*
X7113490Y8178610*
G75*
G02X7110320Y8200800I61340J20080*
G01*
Y8222990*
X7116660Y8248350*
X7126170Y8267370*
X7138850Y8286390*
X7154700Y8302240*
X7173720Y8314920*
X7195910Y8324430*
G75*
G02X7221270Y8330770I30660J-68740*
G01*
X7344900*
Y8273710*
G37*
Y8330770*
X7379770Y8324430*
X7408300Y8311750*
X7433660Y8292730*
X7452680Y8273710*
G75*
G02X7462190Y8242010I-85130J-42820*
G01*
X7465360Y8216650*
Y8197630*
G75*
G02X7455850Y8162760I-103630J9530*
G01*
G75*
G02X7433660Y8131060I-82590J34200*
G01*
X7405130Y8108870*
X7367090Y8096190*
G75*
G02X7332220I-17430J98880*
G01*
G75*
G02X7294180Y8105700I7950J112620*
G01*
G75*
G02X7268820Y8124720I41250J81420*
G01*
X7249800Y8143740*
X7237120Y8169100*
X7230780Y8194460*
Y8226160*
X7237120Y8257860*
X7246630Y8273710*
X7297350Y8248350*
G75*
G03X7287840Y8222990I25860J-24160*
G01*
Y8200800*
G75*
G03X7300520Y8175440I78250J23280*
G01*
X7316370Y8162760*
X7332220Y8156420*
G75*
G03X7363920I15850J71490*
G01*
X7376600Y8162760*
G75*
G03X7395620Y8178610I-9620J30880*
G01*
X7401960Y8197630*
G75*
G03Y8232500I-42090J17440*
G01*
X7389280Y8254690*
G75*
G03X7351240Y8273710I-41980J-36410*
G01*
X7344900*
G36*
Y8330770*
X7379770Y8324430*
X7408300Y8311750*
X7433660Y8292730*
X7452680Y8273710*
G75*
G02X7462190Y8242010I-85130J-42820*
G01*
X7465360Y8216650*
Y8197630*
G75*
G02X7455850Y8162760I-103630J9530*
G01*
G75*
G02X7433660Y8131060I-82590J34200*
G01*
X7405130Y8108870*
X7367090Y8096190*
G75*
G02X7332220I-17430J98880*
G01*
G75*
G02X7294180Y8105700I7950J112620*
G01*
G75*
G02X7268820Y8124720I41250J81420*
G01*
X7249800Y8143740*
X7237120Y8169100*
X7230780Y8194460*
Y8226160*
X7237120Y8257860*
X7246630Y8273710*
X7297350Y8248350*
G75*
G03X7287840Y8222990I25860J-24160*
G01*
Y8200800*
G75*
G03X7300520Y8175440I78250J23280*
G01*
X7316370Y8162760*
X7332220Y8156420*
G75*
G03X7363920I15850J71490*
G01*
X7376600Y8162760*
G75*
G03X7395620Y8178610I-9620J30880*
G01*
X7401960Y8197630*
G75*
G03Y8232500I-42090J17440*
G01*
X7389280Y8254690*
G75*
G03X7351240Y8273710I-41980J-36410*
G01*
X7344900*
G37*
Y8359300D02*
X7110320Y8419530D01*
Y8476590*
X7344900Y8536820*
Y8479760*
X7227610Y8448060*
X7344900Y8419530*
Y8359300*
G36*
X7110320Y8419530*
Y8476590*
X7344900Y8536820*
Y8479760*
X7227610Y8448060*
X7344900Y8419530*
Y8359300*
G37*
X7346410Y8477910D02*
X7287850Y8463090D01*
X7229290Y8448280*
X7346410Y8418640*
Y8477910*
X7428260Y7399820D02*
X7376750Y7370190D01*
X7325250Y7340560*
X7273740Y7310920*
X7222240Y7281290*
X7221530Y7280940*
X7220830Y7280580*
X7219410Y7279880*
X7219060Y7280580*
X7218710Y7281290*
X7218360Y7281990*
X7218000Y7282700*
X7184140Y7341260*
X7167200Y7370540*
X7150270Y7399820*
X7127690*
X7146040Y7368070*
X7164380Y7336320*
X7182730Y7304570*
X7201070Y7272820*
X7201420Y7272120*
X7201780Y7271410*
X7202130Y7270710*
X7202480Y7270000*
X7201780Y7269650*
X7201070Y7269290*
X7200360Y7268940*
X7199660Y7268590*
X7142160Y7235430*
X7084650Y7202270*
X7027150Y7169110*
X6969650Y7135940*
X6964710Y7127480*
X6962240Y7123240*
X6959770Y7119010*
X6979530*
X7152030Y7218490*
X7209540Y7251660*
X7210240Y7252010*
X7210950Y7252360*
X7211650Y7252710*
X7212360Y7253070*
X7212710Y7252360*
X7213060Y7251660*
X7213420Y7250950*
X7213770Y7250240*
X7232110Y7218490*
X7250460Y7186740*
X7268800Y7154990*
X7287150Y7123240*
X7295610Y7138060*
X7298440Y7143000*
X7281500Y7172280*
X7247640Y7230840*
X7230700Y7260120*
X7230350Y7260830*
X7230000Y7261530*
X7229640Y7262240*
X7229290Y7262940*
X7230000Y7263300*
X7230700Y7263650*
X7231410Y7264000*
X7232110Y7264360*
X7335130Y7323620*
X7386630Y7353260*
X7438140Y7382890*
X7440610Y7387120*
X7443080Y7391360*
X7445540Y7395590*
X7448010Y7399820*
X7428260*
X7462190Y8565350D02*
Y8508290D01*
X7401960Y8492440*
Y8403680*
X7462190Y8387830*
Y8330770*
X7344900Y8359300*
Y8536820*
X7462190Y8565350*
G36*
Y8508290*
X7401960Y8492440*
Y8403680*
X7462190Y8387830*
Y8330770*
X7344900Y8359300*
Y8536820*
X7462190Y8565350*
G37*
X7463540Y6849490D02*
Y7340560D01*
X7465300Y7337730*
X7467060Y7334910*
X7468830Y7332090*
X7470590Y7329270*
X7504110Y7271060*
X7571130Y7154640*
X7604650Y7096430*
X7613110Y7111250*
X7615940Y7116190*
X7575370Y7186740*
X7494230Y7327860*
X7453660Y7398410*
X7451190Y7394180*
X7448720Y7389940*
X7443780Y7381480*
Y6889000*
X7442020Y6892180*
X7440250Y6895350*
X7438490Y6898530*
X7436730Y6901700*
X7403210Y6959910*
X7369700Y7018120*
X7336180Y7076330*
X7302670Y7134530*
X7299850Y7129590*
X7297030Y7124660*
X7294200Y7119720*
X7291380Y7114780*
X7331950Y7044220*
X7372520Y6973670*
X7413090Y6903110*
X7453660Y6832560*
X7458600Y6841020*
X7461070Y6845260*
X7463540Y6849490*
X0Y0D02*
M02*
