%FSLAX35Y35*%
%MOMM*%
G04 EasyPC Gerber Version 18.0.9 Build 3640 *
%AMT100*0 Octagon Pad at angle 0*4,1,8,-0.30300,-0.73200,0.30300,-0.73200,0.73200,-0.30300,0.73200,0.30300,0.30300,0.73200,-0.30300,0.73200,-0.73200,0.30300,-0.73200,-0.30300,-0.30300,-0.73200,0*%
%ADD100T100*%
%AMT105*0 Octagon Pad at angle 0*4,1,8,-0.38090,-0.92000,0.38090,-0.92000,0.92000,-0.38090,0.92000,0.38090,0.38090,0.92000,-0.38090,0.92000,-0.92000,0.38090,-0.92000,-0.38090,-0.38090,-0.92000,0*%
%ADD105T105*%
%AMT126*0 Chamfered Rectangle Pad at angle 90*4,1,8,1.27000,-0.33740,1.27000,0.33740,0.78740,0.82000,-0.78740,0.82000,-1.27000,0.33740,-1.27000,-0.33740,-0.78740,-0.82000,0.78740,-0.82000,1.27000,-0.33740,0*%
%ADD126T126*%
%ADD123R,0.46000X0.22000*%
%ADD120R,0.44000X1.64000*%
%ADD124R,0.64000X1.24000*%
%ADD121R,1.64000X0.44000*%
%ADD107R,2.24000X0.44000*%
%ADD111R,1.14000X0.54000*%
%ADD112R,1.46000X0.59000*%
%ADD127R,0.74000X1.14000*%
%ADD113R,0.74000X1.18000*%
%ADD128R,1.14000X0.74000*%
%ADD114R,0.89000X2.44000*%
%ADD118R,0.94000X1.03000*%
%ADD117R,1.09000X2.14000*%
%ADD119R,1.03000X0.94000*%
%ADD106R,2.24000X0.94000*%
%ADD116R,1.44000X1.09000*%
%ADD109R,2.94000X1.14000*%
%ADD115R,1.24000X2.98000*%
%ADD122R,1.34000X1.69000*%
%ADD125R,1.44000X3.34000*%
%ADD110R,3.94000X1.64000*%
%ADD98R,1.64000X1.64000*%
%ADD99R,1.84000X1.84000*%
%ADD101R,1.94000X1.94000*%
%ADD129C,0.79000*%
%ADD96C,1.09000*%
%ADD104C,1.34000*%
%ADD97C,1.64000*%
%ADD103C,1.74000*%
%ADD95C,1.84000*%
%ADD102C,1.94000*%
%ADD93C,2.04000*%
%ADD94C,3.44000*%
%ADD108R,10.94000X4.34000*%
X0Y0D02*
D02*
D93*
X1433160Y868720D03*
X1454640Y8074790D03*
X1518140Y8331790D03*
X1620190Y5585680D03*
X1734040Y9068390D03*
X1759670Y6045330D03*
X1848430Y5500090D03*
X1895980Y7627160D03*
X1956210Y5728330D03*
X1965720Y7858570D03*
X2225660Y6317950D03*
X2325080Y5633230D03*
X2336610Y5883660D03*
X2476090Y6482790D03*
X2704330Y8013900D03*
X2812110Y8280180D03*
X2885020Y4802690D03*
X2980120Y3052850D03*
X3081560Y1236440D03*
X3103750Y8368940D03*
X3141790Y986010D03*
X3363690Y6692010D03*
X3398560Y979670D03*
X3522190Y1388600D03*
X3877230Y1344220D03*
X3883570Y1077940D03*
X3914670Y729240D03*
X3931140Y8496890D03*
X3943840Y8179390D03*
X3969240Y7557090D03*
X3985010Y4802690D03*
X4168670Y735580D03*
X4362940Y9068390D03*
X4422470Y735580D03*
X4542930Y6831490D03*
X4676670Y735580D03*
X4758490Y1898970D03*
X4787020Y4790010D03*
X4883640Y7760290D03*
X4964540Y3829500D03*
X4970880Y2979940D03*
X4986730Y6825150D03*
X4989900Y1375920D03*
Y1765970D03*
X5005750Y6568380D03*
X5107190Y5008740D03*
X5161080Y5776290D03*
X5284710Y3794630D03*
X5291050Y2948240D03*
X5341770Y6403540D03*
Y6723710D03*
X5367130Y4967530D03*
X5386150Y5347930D03*
X5411510Y5813920D03*
X5487590Y1765830D03*
X5500270Y1188890D03*
X5563670Y6156280D03*
X5573180Y7883930D03*
X5592200Y2849970D03*
X5595370Y3813650D03*
X5671040Y8369890D03*
X5890180Y2609050D03*
X5899690Y3458610D03*
X5937730Y5072140D03*
X6010640Y2970430D03*
X6074040Y1188890D03*
X6321300Y6581060D03*
X6511500Y3328640D03*
X6810840Y7988890D03*
X7044060Y6752240D03*
X7681230Y6524000D03*
X8213790Y3350830D03*
X8277190Y5322570D03*
X8280360Y4377910D03*
Y4875600D03*
Y6267230D03*
D02*
D94*
X475820Y345670D03*
X478990Y9081090D03*
X8366490Y352010D03*
X8378630Y9081090D03*
D02*
D95*
X436560Y7733490D03*
Y8568490D03*
X1867050Y396390D03*
X2121050D03*
X2375050D03*
X2629050D03*
X4168670Y421750D03*
X4422670D03*
X4676670D03*
X8045940Y6566490D03*
Y6820490D03*
Y7074490D03*
Y7328490D03*
Y7582490D03*
Y7836490D03*
Y8090490D03*
X8299940Y6566490D03*
Y6820490D03*
Y7074490D03*
Y7328490D03*
Y7582490D03*
Y7836490D03*
Y8090490D03*
Y8344490D03*
X8318400Y1403650D03*
Y1657650D03*
Y1911650D03*
Y2165650D03*
D02*
D96*
X736560Y7928490D03*
Y8373490D03*
D02*
D97*
X2891340Y8661990D03*
D02*
D98*
X3091340D03*
D02*
D99*
X440950Y6891720D03*
X1613050Y396390D03*
X2390300Y7728600D03*
X3116430Y399360D03*
X3436600D03*
X3512040Y8801690D03*
X3886740Y6679330D03*
X3914670Y421750D03*
X4058300Y2792710D03*
X4210540Y8801690D03*
X4353110Y2792710D03*
X4940790Y8801690D03*
X4967710Y3534890D03*
X5119870Y5351100D03*
X5284710Y3534890D03*
X5604880D03*
X5636580Y5094530D03*
X5645890Y5433520D03*
X8045940Y8344490D03*
X8318400Y2419650D03*
D02*
D100*
X2644300Y7728600D03*
X3116430Y653360D03*
X3436600D03*
X3766040Y8801690D03*
X4058300Y3046710D03*
X4353110D03*
X4464540Y8801690D03*
X4967710Y3280890D03*
X5194790Y8801690D03*
X5284710Y3280890D03*
X5604880D03*
X5636580Y4840530D03*
X5899890Y5433520D03*
D02*
D101*
X6718790Y7141990D03*
D02*
D102*
Y7641990D03*
D02*
D103*
X6410840Y8757240D03*
X6610840D03*
X6810840D03*
D02*
D104*
X6200840D03*
X7020840D03*
D02*
D105*
X440950Y5875720D03*
Y6129720D03*
Y6383720D03*
Y6637720D03*
D02*
D106*
X3534870Y3581990D03*
Y3708990D03*
Y3835990D03*
Y3962990D03*
Y4089990D03*
Y4216990D03*
Y4343990D03*
Y4470990D03*
D02*
D107*
Y3351990D03*
Y3481990D03*
D02*
D108*
X2819870Y3516990D03*
D02*
D109*
X1084870Y3651840D03*
Y3905840D03*
Y4159840D03*
Y4413840D03*
X1846870Y3651840D03*
Y3905840D03*
Y4159840D03*
Y4413840D03*
D02*
D110*
X1134870Y3168840D03*
Y5138840D03*
D02*
D111*
X4134340Y4279740D03*
Y4374740D03*
Y4469740D03*
X4369290Y4279740D03*
Y4374740D03*
Y4469740D03*
D02*
D112*
X6907060Y3438890D03*
Y3565890D03*
Y3692890D03*
Y3819890D03*
Y3946890D03*
Y4073890D03*
Y4200890D03*
Y4327890D03*
X7815060Y3438890D03*
Y3565890D03*
Y3692890D03*
Y3819890D03*
Y3946890D03*
Y4073890D03*
Y4200890D03*
Y4327890D03*
D02*
D113*
X6818490Y557160D03*
X6928490D03*
X7038490D03*
X7148490D03*
X7258490D03*
X7368490D03*
X7478490D03*
X7588490D03*
D02*
D114*
X6383990Y620160D03*
D02*
D115*
Y1732160D03*
D02*
D116*
X6814490Y1769660D03*
X7592490D03*
D02*
D117*
X7822990Y605160D03*
D02*
D118*
X1515580Y8685800D03*
Y8863600D03*
X1727970Y8600210D03*
Y8778010D03*
X1946700Y8476580D03*
Y8654380D03*
X2162260Y2811790D03*
Y2989590D03*
X2412690Y2814960D03*
Y2992760D03*
X2663120Y8492430D03*
Y8670230D03*
X2935740Y1689610D03*
Y1867410D03*
X8128200Y4025900D03*
Y4203700D03*
D02*
D119*
X1417170Y1100130D03*
X1594970D03*
X2320620Y8169230D03*
X2498420D03*
X2938770Y2158910D03*
X2941940Y2342770D03*
X3116570Y2158910D03*
X3119740Y2342770D03*
X4184580Y4672720D03*
X4362380D03*
X7329220Y4942170D03*
Y5183090D03*
Y5509600D03*
X7332390Y5741010D03*
X7507020Y4942170D03*
Y5183090D03*
Y5509600D03*
X7510190Y5741010D03*
X7830080Y5246490D03*
X7845930Y4919980D03*
X8007880Y5246490D03*
X8023730Y4919980D03*
D02*
D120*
X1348920Y1328400D03*
Y2278400D03*
X1418920Y1328400D03*
Y2278400D03*
X1488920Y1328400D03*
X1558920D03*
X1628920D03*
X1698920D03*
X1768920D03*
X1838920D03*
Y2278400D03*
X1908920Y1328400D03*
Y2278400D03*
X1978920Y1328400D03*
Y2278400D03*
X2048920Y1328400D03*
Y2278400D03*
X2118920Y1328400D03*
Y2278400D03*
X2188920Y1328400D03*
Y2278400D03*
X2258920Y1328400D03*
Y2278400D03*
X2328920Y1328400D03*
Y2278400D03*
X2398920Y1328400D03*
Y2278400D03*
X2468920Y1328400D03*
Y2278400D03*
D02*
D121*
X2623920Y1383400D03*
Y1453400D03*
Y1523400D03*
Y1593400D03*
Y1663400D03*
Y1733400D03*
Y1803400D03*
Y1873400D03*
Y1943400D03*
Y2013400D03*
Y2083400D03*
Y2153400D03*
Y2223400D03*
D02*
D122*
X2160890Y2590030D03*
X2410890D03*
D02*
D123*
X2187820Y8404890D03*
Y8454890D03*
Y8504890D03*
Y8554890D03*
X2377820Y8404890D03*
Y8454890D03*
Y8504890D03*
Y8554890D03*
D02*
D124*
X2282820Y8479890D03*
D02*
D125*
X2154730Y8834930D03*
X2429730D03*
D02*
D126*
X3427100Y1705290D03*
Y1908490D03*
Y2111690D03*
D02*
D127*
X4020110Y5690290D03*
X4140110D03*
D02*
D128*
X4026220Y5303780D03*
Y5423780D03*
D02*
D129*
X1655060Y4897790D03*
X1997420Y6032650D03*
X2279550Y4121140D03*
X2501450Y6156280D03*
X2837470Y2919710D03*
X3005480Y2881670D03*
X3065710Y3851690D03*
X3148130Y2891180D03*
X3259080Y4694910D03*
X3312970Y4070420D03*
X3357350Y5138710D03*
X3503170Y2840460D03*
X3572910Y5401820D03*
X3601440Y4590300D03*
X3706050Y5294040D03*
X3766280Y2212800D03*
X3775790Y3192330D03*
X4073640Y6896690D03*
X4099130Y3651980D03*
X4147040Y6782390D03*
X4282990Y3781950D03*
X4321030Y3883390D03*
X4330540Y3480800D03*
X4638030Y4992890D03*
X4653880Y5170410D03*
X5100850Y2526630D03*
X5138890Y4412780D03*
X5389320Y5170410D03*
X6029660Y4054570D03*
X6305450Y3398380D03*
X6324470Y2304730D03*
X6730230Y2139890D03*
Y2704150D03*
Y3173310D03*
X7709760Y2152570D03*
X8001400Y2700980D03*
X8293040Y3078210D03*
X0Y0D02*
M02*
