%FSLAX35Y35*%
%MOMM*%
G04 EasyPC Gerber Version 18.0.9 Build 3640 *
%AMT17*0 Octagon Pad at angle 0*4,1,8,-0.30300,-0.73200,0.30300,-0.73200,0.73200,-0.30300,0.73200,0.30300,0.30300,0.73200,-0.30300,0.73200,-0.73200,0.30300,-0.73200,-0.30300,-0.30300,-0.73200,0*%
%ADD17T17*%
%AMT20*0 Octagon Pad at angle 0*4,1,8,-0.38090,-0.92000,0.38090,-0.92000,0.92000,-0.38090,0.92000,0.38090,0.38090,0.92000,-0.38090,0.92000,-0.92000,0.38090,-0.92000,-0.38090,-0.38090,-0.92000,0*%
%ADD20T20*%
%ADD77R,0.44000X1.64000*%
%ADD81R,0.64000X1.24000*%
%ADD84R,0.74000X1.14000*%
%ADD28R,0.74000X1.18000*%
%ADD29R,0.89000X2.44000*%
%ADD75R,0.94000X1.03000*%
%ADD74R,1.09000X2.14000*%
%ADD72R,1.24000X2.98000*%
%ADD79R,1.34000X1.69000*%
%ADD82R,1.44000X3.34000*%
%ADD15R,1.64000X1.64000*%
%ADD16R,1.84000X1.84000*%
%ADD18R,1.94000X1.94000*%
%ADD86C,0.79000*%
%ADD13C,1.09000*%
%ADD71C,1.34000*%
%ADD14C,1.64000*%
%ADD70C,1.74000*%
%ADD12C,1.84000*%
%ADD19C,1.94000*%
%ADD10C,2.04000*%
%ADD11C,3.44000*%
%AMT83*0 Chamfered Rectangle Pad at angle 90*4,1,8,1.27000,-0.33740,1.27000,0.33740,0.78740,0.82000,-0.78740,0.82000,-1.27000,0.33740,-1.27000,-0.33740,-0.78740,-0.82000,0.78740,-0.82000,1.27000,-0.33740,0*%
%ADD83T83*%
%ADD80R,0.46000X0.22000*%
%ADD78R,1.64000X0.44000*%
%ADD22R,2.24000X0.44000*%
%ADD26R,1.14000X0.54000*%
%ADD27R,1.46000X0.59000*%
%ADD85R,1.14000X0.74000*%
%ADD76R,1.03000X0.94000*%
%ADD21R,2.24000X0.94000*%
%ADD73R,1.44000X1.09000*%
%ADD24R,2.94000X1.14000*%
%ADD25R,3.94000X1.64000*%
%ADD23R,10.94000X4.34000*%
X0Y0D02*
D02*
D10*
X1236310Y786170D03*
X1257790Y7992240D03*
X1321290Y8249240D03*
X1423340Y5503130D03*
X1537190Y8985840D03*
X1562820Y5962780D03*
X1651580Y5417540D03*
X1699130Y7544610D03*
X1759360Y5645780D03*
X1768870Y7776020D03*
X2028810Y6235400D03*
X2128230Y5550680D03*
X2139760Y5801110D03*
X2279240Y6400240D03*
X2507480Y7931350D03*
X2615260Y8197630D03*
X2688170Y4720140D03*
X2783270Y2970300D03*
X2884710Y1153890D03*
X2906900Y8286390D03*
X2944940Y903460D03*
X3166840Y6609460D03*
X3201710Y897120D03*
X3325340Y1306050D03*
X3680380Y1261670D03*
X3686720Y995390D03*
X3717820Y646690D03*
X3734290Y8414340D03*
X3746990Y8096840D03*
X3772390Y7474540D03*
X3788160Y4720140D03*
X3971820Y653030D03*
X4166090Y8985840D03*
X4225620Y653030D03*
X4346080Y6748940D03*
X4479820Y653030D03*
X4561640Y1816420D03*
X4590170Y4707460D03*
X4686790Y7677740D03*
X4767690Y3746950D03*
X4774030Y2897390D03*
X4789880Y6742600D03*
X4793050Y1293370D03*
Y1683420D03*
X4808900Y6485830D03*
X4910340Y4926190D03*
X4964230Y5693740D03*
X5087860Y3712080D03*
X5094200Y2865690D03*
X5144920Y6320990D03*
Y6641160D03*
X5170280Y4884980D03*
X5189300Y5265380D03*
X5214660Y5731370D03*
X5290740Y1683280D03*
X5303420Y1106340D03*
X5366820Y6073730D03*
X5376330Y7801380D03*
X5395350Y2767420D03*
X5398520Y3731100D03*
X5474190Y8287340D03*
X5693330Y2526500D03*
X5702840Y3376060D03*
X5740880Y4989590D03*
X5813790Y2887880D03*
X5877190Y1106340D03*
X6124450Y6498510D03*
X6314650Y3246090D03*
X6613990Y7906340D03*
X6847210Y6669690D03*
X7484380Y6441450D03*
X8016940Y3268280D03*
X8080340Y5240020D03*
X8083510Y4295360D03*
Y4793050D03*
Y6184680D03*
D02*
D11*
X278970Y263120D03*
X282140Y8998540D03*
X8169640Y269460D03*
X8181780Y8998540D03*
D02*
D12*
X239710Y7650940D03*
Y8485940D03*
X1670200Y313840D03*
X1924200D03*
X2178200D03*
X2432200D03*
X3971820Y339200D03*
X4225820D03*
X4479820D03*
X7849090Y6483940D03*
Y6737940D03*
Y6991940D03*
Y7245940D03*
Y7499940D03*
Y7753940D03*
Y8007940D03*
X8103090Y6483940D03*
Y6737940D03*
Y6991940D03*
Y7245940D03*
Y7499940D03*
Y7753940D03*
Y8007940D03*
Y8261940D03*
X8121550Y1321100D03*
Y1575100D03*
Y1829100D03*
Y2083100D03*
D02*
D13*
X539710Y7845940D03*
Y8290940D03*
D02*
D14*
X2694490Y8579440D03*
D02*
D15*
X2894490D03*
D02*
D16*
X244100Y6809170D03*
X1416200Y313840D03*
X2193450Y7646050D03*
X2919580Y316810D03*
X3239750D03*
X3315190Y8719140D03*
X3689890Y6596780D03*
X3717820Y339200D03*
X3861450Y2710160D03*
X4013690Y8719140D03*
X4156260Y2710160D03*
X4743940Y8719140D03*
X4770860Y3452340D03*
X4923020Y5268550D03*
X5087860Y3452340D03*
X5408030D03*
X5439730Y5011980D03*
X5449040Y5350970D03*
X7849090Y8261940D03*
X8121550Y2337100D03*
D02*
D17*
X2447450Y7646050D03*
X2919580Y570810D03*
X3239750D03*
X3569190Y8719140D03*
X3861450Y2964160D03*
X4156260D03*
X4267690Y8719140D03*
X4770860Y3198340D03*
X4997940Y8719140D03*
X5087860Y3198340D03*
X5408030D03*
X5439730Y4757980D03*
X5703040Y5350970D03*
D02*
D18*
X6521940Y7059440D03*
D02*
D19*
Y7559440D03*
D02*
D70*
X6213990Y8674690D03*
X6413990D03*
X6613990D03*
D02*
D71*
X6003990D03*
X6823990D03*
D02*
D20*
X244100Y5793170D03*
Y6047170D03*
Y6301170D03*
Y6555170D03*
D02*
D21*
X3338020Y3499440D03*
Y3626440D03*
Y3753440D03*
Y3880440D03*
Y4007440D03*
Y4134440D03*
Y4261440D03*
Y4388440D03*
D02*
D22*
Y3269440D03*
Y3399440D03*
D02*
D23*
X2623020Y3434440D03*
D02*
D24*
X888020Y3569290D03*
Y3823290D03*
Y4077290D03*
Y4331290D03*
X1650020Y3569290D03*
Y3823290D03*
Y4077290D03*
Y4331290D03*
D02*
D25*
X938020Y3086290D03*
Y5056290D03*
D02*
D26*
X3937490Y4197190D03*
Y4292190D03*
Y4387190D03*
X4172440Y4197190D03*
Y4292190D03*
Y4387190D03*
D02*
D27*
X6710210Y3356340D03*
Y3483340D03*
Y3610340D03*
Y3737340D03*
Y3864340D03*
Y3991340D03*
Y4118340D03*
Y4245340D03*
X7618210Y3356340D03*
Y3483340D03*
Y3610340D03*
Y3737340D03*
Y3864340D03*
Y3991340D03*
Y4118340D03*
Y4245340D03*
D02*
D28*
X6621640Y474610D03*
X6731640D03*
X6841640D03*
X6951640D03*
X7061640D03*
X7171640D03*
X7281640D03*
X7391640D03*
D02*
D29*
X6187140Y537610D03*
D02*
D72*
Y1649610D03*
D02*
D73*
X6617640Y1687110D03*
X7395640D03*
D02*
D74*
X7626140Y522610D03*
D02*
D75*
X1318730Y8603250D03*
Y8781050D03*
X1531120Y8517660D03*
Y8695460D03*
X1749850Y8394030D03*
Y8571830D03*
X1965410Y2729240D03*
Y2907040D03*
X2215840Y2732410D03*
Y2910210D03*
X2466270Y8409880D03*
Y8587680D03*
X2738890Y1607060D03*
Y1784860D03*
X7982070Y3883120D03*
Y4060920D03*
D02*
D76*
X1220320Y1017580D03*
X1398120D03*
X2123770Y8086680D03*
X2301570D03*
X2741920Y2076360D03*
X2745090Y2260220D03*
X2919720Y2076360D03*
X2922890Y2260220D03*
X3987730Y4590170D03*
X4165530D03*
X7132370Y4859620D03*
Y5100540D03*
Y5427050D03*
X7135540Y5658460D03*
X7310170Y4859620D03*
Y5100540D03*
Y5427050D03*
X7313340Y5658460D03*
X7633230Y5163940D03*
X7649080Y4837430D03*
X7811030Y5163940D03*
X7826880Y4837430D03*
D02*
D77*
X1152070Y1245850D03*
Y2195850D03*
X1222070Y1245850D03*
Y2195850D03*
X1292070Y1245850D03*
X1362070D03*
X1432070D03*
X1502070D03*
X1572070D03*
X1642070D03*
Y2195850D03*
X1712070Y1245850D03*
Y2195850D03*
X1782070Y1245850D03*
Y2195850D03*
X1852070Y1245850D03*
Y2195850D03*
X1922070Y1245850D03*
Y2195850D03*
X1992070Y1245850D03*
Y2195850D03*
X2062070Y1245850D03*
Y2195850D03*
X2132070Y1245850D03*
Y2195850D03*
X2202070Y1245850D03*
Y2195850D03*
X2272070Y1245850D03*
Y2195850D03*
D02*
D78*
X2427070Y1300850D03*
Y1370850D03*
Y1440850D03*
Y1510850D03*
Y1580850D03*
Y1650850D03*
Y1720850D03*
Y1790850D03*
Y1860850D03*
Y1930850D03*
Y2000850D03*
Y2070850D03*
Y2140850D03*
D02*
D79*
X1964040Y2507480D03*
X2214040D03*
D02*
D80*
X1990970Y8322340D03*
Y8372340D03*
Y8422340D03*
Y8472340D03*
X2180970Y8322340D03*
Y8372340D03*
Y8422340D03*
Y8472340D03*
D02*
D81*
X2085970Y8397340D03*
D02*
D82*
X1957880Y8752380D03*
X2232880D03*
D02*
D83*
X3230250Y1622740D03*
Y1825940D03*
Y2029140D03*
D02*
D84*
X3823260Y5607740D03*
X3943260D03*
D02*
D85*
X3829370Y5221230D03*
Y5341230D03*
D02*
D86*
X1458210Y4815240D03*
X1800570Y5950100D03*
X2082700Y4038590D03*
X2304600Y6073730D03*
X2640620Y2837160D03*
X2808630Y2799120D03*
X2868860Y3769140D03*
X2951280Y2808630D03*
X3062230Y4612360D03*
X3116120Y3987870D03*
X3160500Y5056160D03*
X3306320Y2757910D03*
X3376060Y5319270D03*
X3404590Y4507750D03*
X3509200Y5211490D03*
X3569430Y2130250D03*
X3578940Y3109780D03*
X3876790Y6814140D03*
X3902280Y3569430D03*
X3950190Y6699840D03*
X4086140Y3699400D03*
X4124180Y3800840D03*
X4133690Y3398250D03*
X4441180Y4910340D03*
X4457030Y5087860D03*
X4904000Y2444080D03*
X4942040Y4330230D03*
X5192470Y5087860D03*
X5832810Y3972020D03*
X6108600Y3315830D03*
X6127620Y2222180D03*
X6533380Y2057340D03*
Y2621600D03*
Y3090760D03*
X7512910Y2070020D03*
X7804550Y2618430D03*
X8096190Y2995660D03*
X0Y0D02*
M02*
