%FSLAX35Y35*%
%MOMM*%
G04 EasyPC Gerber Version 18.0.9 Build 3640 *
%AMT161*0 Octagon Pad at angle 0*4,1,8,-0.30300,-0.73200,0.30300,-0.73200,0.73200,-0.30300,0.73200,0.30300,0.30300,0.73200,-0.30300,0.73200,-0.73200,0.30300,-0.73200,-0.30300,-0.30300,-0.73200,0*%
%ADD161T161*%
%AMT173*0 Octagon Pad at angle 0*4,1,8,-0.38090,-0.92000,0.38090,-0.92000,0.92000,-0.38090,0.92000,0.38090,0.38090,0.92000,-0.38090,0.92000,-0.92000,0.38090,-0.92000,-0.38090,-0.38090,-0.92000,0*%
%ADD173T173*%
%ADD157R,0.15000X0.41000*%
%ADD170R,0.26000X0.99000*%
%ADD180R,0.29000X0.71500*%
%ADD176R,0.66000X1.29000*%
%ADD156R,0.74000X0.74000*%
%ADD177R,0.74000X1.14000*%
%ADD162R,0.84000X0.99000*%
%ADD186R,0.94000X0.94000*%
%ADD154R,0.94000X1.03000*%
%ADD188R,0.94000X1.34000*%
%ADD185R,0.99000X2.14000*%
%ADD187R,1.05400X1.74200*%
%ADD172R,1.15000X2.34000*%
%ADD179R,1.21000X1.21000*%
%ADD159R,1.64000X1.64000*%
%ADD160R,1.84000X1.84000*%
%ADD165R,1.94000X1.94000*%
%ADD189C,0.79000*%
%ADD151C,1.09000*%
%ADD168C,1.34000*%
%ADD158C,1.64000*%
%ADD167C,1.74000*%
%ADD150C,1.84000*%
%ADD166C,1.94000*%
%ADD146C,2.04000*%
%ADD147C,3.44000*%
%ADD169R,0.99000X0.26000*%
%ADD181R,0.71500X0.29000*%
%ADD148R,1.29000X0.34000*%
%ADD152R,0.84000X0.49000*%
%ADD175R,1.29000X0.66000*%
%ADD153R,0.74000X0.74000*%
%ADD164R,1.14000X0.74000*%
%ADD178R,1.14000X0.84000*%
%ADD184R,0.94000X0.94000*%
%ADD155R,1.03000X0.94000*%
%ADD182R,1.34000X0.94000*%
%ADD183R,2.14000X0.99000*%
%ADD174R,1.69000X1.34000*%
%ADD163R,3.04000X1.49000*%
%ADD171R,2.12000X1.54000*%
%ADD149R,1.84000X1.74000*%
X0Y0D02*
D02*
D146*
X1236310Y786170D03*
X1257790Y7992240D03*
X1321290Y8249240D03*
X1423340Y5503130D03*
X1537190Y8985840D03*
X1562820Y5962780D03*
X1651580Y5417540D03*
X1699130Y7544610D03*
X1759360Y5645780D03*
X1768870Y7776020D03*
X2028810Y6235400D03*
X2128230Y5550680D03*
X2139760Y5801110D03*
X2279240Y6400240D03*
X2507480Y7931350D03*
X2615260Y8197630D03*
X2688170Y4720140D03*
X2783270Y2970300D03*
X2884710Y1153890D03*
X2906900Y8286390D03*
X2944940Y903460D03*
X3166840Y6609460D03*
X3201710Y897120D03*
X3325340Y1306050D03*
X3680380Y1261670D03*
X3686720Y995390D03*
X3717820Y646690D03*
X3734290Y8414340D03*
X3746990Y8096840D03*
X3772390Y7474540D03*
X3788160Y4720140D03*
X3971820Y653030D03*
X4166090Y8985840D03*
X4225620Y653030D03*
X4346080Y6748940D03*
X4479820Y653030D03*
X4561640Y1816420D03*
X4590170Y4707460D03*
X4686790Y7677740D03*
X4767690Y3746950D03*
X4774030Y2897390D03*
X4789880Y6742600D03*
X4793050Y1293370D03*
Y1683420D03*
X4808900Y6485830D03*
X4910340Y4926190D03*
X4964230Y5693740D03*
X5087860Y3712080D03*
X5094200Y2865690D03*
X5144920Y6320990D03*
Y6641160D03*
X5170280Y4884980D03*
X5189300Y5265380D03*
X5214660Y5731370D03*
X5290740Y1683280D03*
X5303420Y1106340D03*
X5366820Y6073730D03*
X5376330Y7801380D03*
X5395350Y2767420D03*
X5398520Y3731100D03*
X5474190Y8287340D03*
X5693330Y2526500D03*
X5702840Y3376060D03*
X5740880Y4989590D03*
X5813790Y2887880D03*
X5877190Y1106340D03*
X6124450Y6498510D03*
X6314650Y3246090D03*
X6613990Y7906340D03*
X6847210Y6669690D03*
X7484380Y6441450D03*
X8016940Y3268280D03*
X8080340Y5240020D03*
X8083510Y4295360D03*
Y4793050D03*
Y6184680D03*
D02*
D147*
X278970Y263120D03*
X282140Y8998540D03*
X8169640Y269460D03*
X8181780Y8998540D03*
D02*
D148*
X507210Y7938440D03*
Y8003440D03*
Y8068440D03*
Y8133440D03*
Y8198440D03*
D02*
D149*
X239710Y7953440D03*
Y8183440D03*
D02*
D150*
Y7650940D03*
Y8485940D03*
X1670200Y313840D03*
X1924200D03*
X2178200D03*
X2432200D03*
X3971820Y339200D03*
X4225820D03*
X4479820D03*
X7849090Y6483940D03*
Y6737940D03*
Y6991940D03*
Y7245940D03*
Y7499940D03*
Y7753940D03*
Y8007940D03*
X8103090Y6483940D03*
Y6737940D03*
Y6991940D03*
Y7245940D03*
Y7499940D03*
Y7753940D03*
Y8007940D03*
Y8261940D03*
X8121550Y1321100D03*
Y1575100D03*
Y1829100D03*
Y2083100D03*
D02*
D151*
X539710Y7845940D03*
Y8290940D03*
D02*
D152*
X1924540Y8643190D03*
Y8833190D03*
X2203940Y8643190D03*
Y8738190D03*
Y8833190D03*
D02*
D153*
X389920Y1347490D03*
Y1467490D03*
X1495290Y8668340D03*
X1645290D03*
D02*
D154*
X275570Y2589760D03*
Y2767560D03*
X551590Y1350290D03*
Y1528090D03*
X1537190Y8242890D03*
Y8420690D03*
X3124690Y7081650D03*
Y7259450D03*
X3315190Y7734670D03*
Y7912470D03*
X3331680Y3845080D03*
Y4022880D03*
X3433120Y2513680D03*
Y2691480D03*
X3578940Y3341050D03*
Y3518850D03*
X3616980Y2735580D03*
Y2913380D03*
X3750120Y3207910D03*
Y3385710D03*
X3975590Y4523460D03*
Y4701260D03*
X4077190Y6384250D03*
Y6562050D03*
X4242290Y6384250D03*
Y6562050D03*
X4458190Y6384250D03*
Y6562050D03*
X4686790Y7002400D03*
Y7180200D03*
Y8046040D03*
Y8223840D03*
X4902690Y8046040D03*
Y8223840D03*
X5005440Y1505620D03*
Y1683420D03*
X5131290Y8046040D03*
Y8223840D03*
X5588720Y1607060D03*
Y1784860D03*
X5747220Y4200120D03*
Y4377920D03*
X6695050Y1888130D03*
Y2065930D03*
Y2960650D03*
Y3138450D03*
X6701390Y2439710D03*
Y2617510D03*
X7658730Y2439710D03*
Y2617510D03*
Y2951140D03*
Y3128940D03*
X7671410Y1888130D03*
Y2065930D03*
D02*
D155*
X1778490Y8427040D03*
X1803890Y8236540D03*
X1956290Y8427040D03*
X1981690Y8236540D03*
X2248920Y4806520D03*
Y5028420D03*
Y5217830D03*
X2426720Y4806520D03*
Y5028420D03*
Y5217830D03*
X2801570Y5752720D03*
Y6010530D03*
X2830680Y5544140D03*
X2836800Y4900830D03*
Y5125040D03*
Y5315540D03*
X2979370Y5752720D03*
Y6010530D03*
X3008480Y5544140D03*
X3014600Y4900830D03*
Y5125040D03*
Y5315540D03*
X3340590Y8414340D03*
X3518390D03*
X4964090Y5969120D03*
X5141890D03*
X6032380Y6051540D03*
X6210180D03*
X7642740Y6057880D03*
X7820540D03*
D02*
D156*
X2184890Y8274490D03*
Y8424490D03*
D02*
D157*
X2217710Y8992190D03*
X2283710D03*
D02*
D158*
X2694490Y8579440D03*
D02*
D159*
X2894490D03*
D02*
D160*
X244100Y6809170D03*
X1416200Y313840D03*
X2193450Y7646050D03*
X2919580Y316810D03*
X3239750D03*
X3315190Y8719140D03*
X3689890Y6596780D03*
X3717820Y339200D03*
X3861450Y2710160D03*
X4013690Y8719140D03*
X4156260Y2710160D03*
X4743940Y8719140D03*
X4770860Y3452340D03*
X4923020Y5268550D03*
X5087860Y3452340D03*
X5408030D03*
X5439730Y5011980D03*
X5449040Y5350970D03*
X7849090Y8261940D03*
X8121550Y2337100D03*
D02*
D161*
X2447450Y7646050D03*
X2919580Y570810D03*
X3239750D03*
X3569190Y8719140D03*
X3861450Y2964160D03*
X4156260D03*
X4267690Y8719140D03*
X4770860Y3198340D03*
X4997940Y8719140D03*
X5087860Y3198340D03*
X5408030D03*
X5439730Y4757980D03*
X5703040Y5350970D03*
D02*
D162*
X3974190Y8295240D03*
X4204190D03*
X4434190D03*
D02*
D163*
X4204190Y7695240D03*
D02*
D164*
X3391910Y2926150D03*
Y3046150D03*
X3715250Y2311170D03*
Y2431170D03*
X5347190Y8674690D03*
Y8794690D03*
D02*
D165*
X6521940Y7059440D03*
D02*
D166*
Y7559440D03*
D02*
D167*
X6213990Y8674690D03*
X6413990D03*
X6613990D03*
D02*
D168*
X6003990D03*
X6823990D03*
D02*
D169*
X3629290Y5243740D03*
Y5293740D03*
Y5343740D03*
Y5393740D03*
Y5443740D03*
Y5493740D03*
Y5543740D03*
Y5593740D03*
Y5643740D03*
Y5693740D03*
Y5743740D03*
Y5793740D03*
X4474290Y5243740D03*
Y5293740D03*
Y5343740D03*
Y5393740D03*
Y5443740D03*
Y5493740D03*
Y5543740D03*
Y5593740D03*
Y5643740D03*
Y5693740D03*
Y5743740D03*
Y5793740D03*
D02*
D170*
X3776790Y5096240D03*
Y5941240D03*
X3826790Y5096240D03*
Y5941240D03*
X3876790Y5096240D03*
Y5941240D03*
X3926790Y5096240D03*
Y5941240D03*
X3976790Y5096240D03*
Y5941240D03*
X4026790Y5096240D03*
Y5941240D03*
X4076790Y5096240D03*
Y5941240D03*
X4126790Y5096240D03*
Y5941240D03*
X4176790Y5096240D03*
Y5941240D03*
X4226790Y5096240D03*
Y5941240D03*
X4276790Y5096240D03*
Y5941240D03*
X4326790Y5096240D03*
Y5941240D03*
D02*
D171*
X719250Y4694780D03*
Y5103710D03*
X1639250Y4694780D03*
Y5103710D03*
X1679760Y1046110D03*
X2599760D03*
X3515590Y7157040D03*
X4435590D03*
X5537650Y5734540D03*
X6457650D03*
X6900750Y5728200D03*
X7820750D03*
D02*
D172*
X2900890Y7839420D03*
X3119890D03*
D02*
D173*
X244100Y5793170D03*
Y6047170D03*
Y6301170D03*
Y6555170D03*
D02*
D174*
X3258770Y5758530D03*
Y6008530D03*
D02*
D175*
X806080Y2265400D03*
Y2365400D03*
Y2465400D03*
Y2565400D03*
Y2665400D03*
Y2765400D03*
Y2865400D03*
Y2965400D03*
Y3065400D03*
Y3165400D03*
Y3265400D03*
Y3365400D03*
Y3465400D03*
Y3565400D03*
Y3665400D03*
Y3765400D03*
Y3865400D03*
X3131080Y2265400D03*
Y2365400D03*
Y2465400D03*
Y2565400D03*
Y2665400D03*
Y2765400D03*
Y2865400D03*
Y2965400D03*
Y3065400D03*
Y3165400D03*
Y3265400D03*
Y3365400D03*
Y3465400D03*
Y3565400D03*
Y3665400D03*
Y3765400D03*
Y3865400D03*
D02*
D176*
X1168580Y1902900D03*
Y4227900D03*
X1268580Y1902900D03*
Y4227900D03*
X1368580Y1902900D03*
Y4227900D03*
X1468580Y1902900D03*
Y4227900D03*
X1568580Y1902900D03*
Y4227900D03*
X1668580Y1902900D03*
Y4227900D03*
X1768580Y1902900D03*
Y4227900D03*
X1868580Y1902900D03*
Y4227900D03*
X1968580Y1902900D03*
Y4227900D03*
X2068580Y1902900D03*
Y4227900D03*
X2168580Y1902900D03*
Y4227900D03*
X2268580Y1902900D03*
Y4227900D03*
X2368580Y1902900D03*
Y4227900D03*
X2468580Y1902900D03*
Y4227900D03*
X2568580Y1902900D03*
Y4227900D03*
X2668580Y1902900D03*
Y4227900D03*
X2768580Y1902900D03*
Y4227900D03*
D02*
D177*
X361390Y2377510D03*
X481390D03*
X3477730Y3712080D03*
X3597730D03*
X5360710Y6320990D03*
X5373390Y6555570D03*
X5480710Y6320990D03*
X5493390Y6555570D03*
D02*
D178*
X6078770Y3568230D03*
Y3695230D03*
Y3822230D03*
Y4457230D03*
Y4584230D03*
Y4711230D03*
Y4838230D03*
Y4965230D03*
Y5092230D03*
X7729770Y3568230D03*
Y3695230D03*
Y3822230D03*
Y3949230D03*
Y4076230D03*
Y4203230D03*
Y4330230D03*
Y4457230D03*
Y4584230D03*
Y4711230D03*
Y4838230D03*
Y4965230D03*
Y5092230D03*
D02*
D179*
X6523270Y3759730D03*
Y4900730D03*
X6777270Y3759730D03*
Y4900730D03*
X7031270Y3759730D03*
Y4900730D03*
X7285270Y3759730D03*
Y4900730D03*
D02*
D180*
X5071820Y1968770D03*
Y2171270D03*
X5121820Y1968770D03*
Y2171270D03*
X5171820Y1968770D03*
Y2171270D03*
D02*
D181*
X4995570Y1995020D03*
Y2045020D03*
Y2095020D03*
Y2145020D03*
X5248070Y1995020D03*
Y2045020D03*
Y2095020D03*
Y2145020D03*
D02*
D182*
X303710Y1724590D03*
Y1914590D03*
X513710Y1819590D03*
D02*
D183*
X429280Y3726250D03*
Y4021250D03*
D02*
D184*
X579280Y3873750D03*
D02*
D185*
X1116390Y1529270D03*
X1411390D03*
X2422430Y1538780D03*
X2717430D03*
D02*
D186*
X1263890Y1679270D03*
X2569930Y1688780D03*
D02*
D187*
X2153540Y4536280D03*
X2468340D03*
D02*
D188*
X7057350Y1878370D03*
Y2423610D03*
Y2966740D03*
X7152350Y2088370D03*
Y2633610D03*
Y3176740D03*
X7247350Y1878370D03*
Y2423610D03*
Y2966740D03*
D02*
D189*
X1458210Y4815240D03*
X1800570Y5950100D03*
X2082700Y4038590D03*
X2304600Y6073730D03*
X2640620Y2837160D03*
X2808630Y2799120D03*
X2868860Y3769140D03*
X2951280Y2808630D03*
X3062230Y4612360D03*
X3116120Y3987870D03*
X3160500Y5056160D03*
X3306320Y2757910D03*
X3376060Y5319270D03*
X3404590Y4507750D03*
X3509200Y5211490D03*
X3569430Y2130250D03*
X3578940Y3109780D03*
X3876790Y6814140D03*
X3902280Y3569430D03*
X3950190Y6699840D03*
X4086140Y3699400D03*
X4124180Y3800840D03*
X4133690Y3398250D03*
X4441180Y4910340D03*
X4457030Y5087860D03*
X4904000Y2444080D03*
X4942040Y4330230D03*
X5192470Y5087860D03*
X5832810Y3972020D03*
X6108600Y3315830D03*
X6127620Y2222180D03*
X6533380Y2057340D03*
Y2621600D03*
Y3090760D03*
X7512910Y2070020D03*
X7804550Y2618430D03*
X8096190Y2995660D03*
X0Y0D02*
M02*
