%FSLAX35Y35*%
%MOMM*%
G04 EasyPC Gerber Version 18.0.9 Build 3640 *
%ADD111C,0.12700*%
%ADD110C,2.54000*%
X0Y0D02*
D02*
D110*
X239710Y7650940D03*
Y8485940D03*
X244100Y5793170D03*
Y6047170D03*
Y6301170D03*
Y6555170D03*
Y6809170D03*
X278970Y263120D03*
X282140Y8998540D03*
X539710Y7845940D03*
Y8290940D03*
X1236310Y786170D03*
X1257790Y7992240D03*
X1321290Y8249240D03*
X1416200Y313840D03*
X1423340Y5503130D03*
X1458210Y4815240D03*
X1537190Y8985840D03*
X1562820Y5962780D03*
X1651580Y5417540D03*
X1670200Y313840D03*
X1699130Y7544610D03*
X1759360Y5645780D03*
X1768870Y7776020D03*
X1800570Y5950100D03*
X1924200Y313840D03*
X2028810Y6235400D03*
X2082700Y4038590D03*
X2128230Y5550680D03*
X2139760Y5801110D03*
X2178200Y313840D03*
X2193450Y7646050D03*
X2279240Y6400240D03*
X2304600Y6073730D03*
X2432200Y313840D03*
X2447450Y7646050D03*
X2507480Y7931350D03*
X2615260Y8197630D03*
X2640620Y2837160D03*
X2688170Y4720140D03*
X2694490Y8579440D03*
X2783270Y2970300D03*
X2808630Y2799120D03*
X2868860Y3769140D03*
X2884710Y1153890D03*
X2894490Y8579440D03*
X2906900Y8286390D03*
X2919580Y316810D03*
Y570810D03*
X2944940Y903460D03*
X2951280Y2808630D03*
X3062230Y4612360D03*
X3116120Y3987870D03*
X3160500Y5056160D03*
X3166840Y6609460D03*
X3201710Y897120D03*
X3239750Y316810D03*
Y570810D03*
X3306320Y2757910D03*
X3315190Y8719140D03*
X3325340Y1306050D03*
X3376060Y5319270D03*
X3404590Y4507750D03*
X3509200Y5211490D03*
X3569190Y8719140D03*
X3569430Y2130250D03*
X3578940Y3109780D03*
X3680380Y1261670D03*
X3686720Y995390D03*
X3689890Y6596780D03*
X3717820Y339200D03*
Y646690D03*
X3734290Y8414340D03*
X3746990Y8096840D03*
X3772390Y7474540D03*
X3788160Y4720140D03*
X3861450Y2710160D03*
Y2964160D03*
X3876790Y6814140D03*
X3902280Y3569430D03*
X3950190Y6699840D03*
X3971820Y339200D03*
Y653030D03*
X4013690Y8719140D03*
X4086140Y3699400D03*
X4124180Y3800840D03*
X4133690Y3398250D03*
X4156260Y2710160D03*
Y2964160D03*
X4166090Y8985840D03*
X4225620Y653030D03*
X4225820Y339200D03*
X4267690Y8719140D03*
X4346080Y6748940D03*
X4441180Y4910340D03*
X4457030Y5087860D03*
X4479820Y339200D03*
Y653030D03*
X4561640Y1816420D03*
X4590170Y4707460D03*
X4686790Y7677740D03*
X4743940Y8719140D03*
X4767690Y3746950D03*
X4770860Y3198340D03*
Y3452340D03*
X4774030Y2897390D03*
X4789880Y6742600D03*
X4793050Y1293370D03*
Y1683420D03*
X4808900Y6485830D03*
X4904000Y2444080D03*
X4910340Y4926190D03*
X4923020Y5268550D03*
X4942040Y4330230D03*
X4964230Y5693740D03*
X4997940Y8719140D03*
X5087860Y3198340D03*
Y3452340D03*
Y3712080D03*
X5094200Y2865690D03*
X5144920Y6320990D03*
Y6641160D03*
X5170280Y4884980D03*
X5189300Y5265380D03*
X5192470Y5087860D03*
X5214660Y5731370D03*
X5290740Y1683280D03*
X5303420Y1106340D03*
X5366820Y6073730D03*
X5376330Y7801380D03*
X5395350Y2767420D03*
X5398520Y3731100D03*
X5408030Y3198340D03*
Y3452340D03*
X5439730Y4757980D03*
Y5011980D03*
X5449040Y5350970D03*
X5474190Y8287340D03*
X5693330Y2526500D03*
X5702840Y3376060D03*
X5703040Y5350970D03*
X5740880Y4989590D03*
X5813790Y2887880D03*
X5832810Y3972020D03*
X5877190Y1106340D03*
X6003990Y8674690D03*
X6108600Y3315830D03*
X6124450Y6498510D03*
X6127620Y2222180D03*
X6213990Y8674690D03*
X6314650Y3246090D03*
X6413990Y8674690D03*
X6521940Y7059440D03*
Y7559440D03*
X6533380Y2057340D03*
Y2621600D03*
Y3090760D03*
X6613990Y7906340D03*
Y8674690D03*
X6823990D03*
X6847210Y6669690D03*
X7484380Y6441450D03*
X7512910Y2070020D03*
X7804550Y2618430D03*
X7849090Y6483940D03*
Y6737940D03*
Y6991940D03*
Y7245940D03*
Y7499940D03*
Y7753940D03*
Y8007940D03*
Y8261940D03*
X8016940Y3268280D03*
X8080340Y5240020D03*
X8083510Y4295360D03*
Y4793050D03*
Y6184680D03*
X8096190Y2995660D03*
X8103090Y6483940D03*
Y6737940D03*
Y6991940D03*
Y7245940D03*
Y7499940D03*
Y7753940D03*
Y8007940D03*
Y8261940D03*
X8121550Y1321100D03*
Y1575100D03*
Y1829100D03*
Y2083100D03*
Y2337100D03*
X8169640Y269460D03*
X8181780Y8998540D03*
D02*
D111*
X493710Y7817630D02*
X501650Y7809690D01*
X517520Y7801750*
X533400Y7809690*
X541340Y7817630*
Y7897000*
X557210*
X541340D02*
X509590D01*
X493710Y8652630D02*
X501650Y8644690D01*
X517520Y8636750*
X533400Y8644690*
X541340Y8652630*
Y8732000*
X557210*
X541340D02*
X509590D01*
X498100Y5943980D02*
Y6039230D01*
Y5991610D02*
X577480D01*
Y5943980D02*
Y6039230D01*
X498100Y6197980D02*
Y6293230D01*
Y6245610D02*
X577480D01*
Y6197980D02*
Y6293230D01*
X498100Y6451980D02*
Y6547230D01*
Y6499610D02*
X577480D01*
Y6451980D02*
Y6547230D01*
X498100Y6705980D02*
Y6801230D01*
Y6753610D02*
X577480D01*
Y6705980D02*
Y6801230D01*
X498100Y6959980D02*
Y7055230D01*
Y7007610D02*
X577480D01*
Y6959980D02*
Y7055230D01*
X532970Y413930D02*
Y509180D01*
X612350Y413930*
Y509180*
X536140Y9149350D02*
Y9244600D01*
X615520Y9149350*
Y9244600*
X793710Y7996750D02*
Y8092000D01*
Y8044380D02*
X817520D01*
X873090Y8092000*
X817520Y8044380D02*
X873090Y7996750D01*
X793710Y8441750D02*
Y8537000D01*
Y8489380D02*
X817520D01*
X873090Y8537000*
X817520Y8489380D02*
X873090Y8441750D01*
X1490310Y936980D02*
Y1032230D01*
Y984610D02*
X1569690D01*
Y936980D02*
Y1032230D01*
X1511790Y8143050D02*
Y8238300D01*
Y8190680D02*
X1591170D01*
Y8143050D02*
Y8238300D01*
X1575290Y8400050D02*
Y8495300D01*
Y8447680D02*
X1654670D01*
Y8400050D02*
Y8495300D01*
X1670200Y464650D02*
Y559900D01*
Y512280D02*
X1749580D01*
Y464650D02*
Y559900D01*
X1677340Y5653940D02*
Y5749190D01*
Y5701570D02*
X1756720D01*
Y5653940D02*
Y5749190D01*
X1712210Y4997800D02*
Y5029550D01*
X1720150Y5045430*
X1728090Y5053370*
X1743960Y5061300*
X1759840*
X1775710Y5053370*
X1783650Y5045430*
X1791590Y5029550*
Y4997800*
X1783650Y4981930*
X1775710Y4973990*
X1759840Y4966050*
X1743960*
X1728090Y4973990*
X1720150Y4981930*
X1712210Y4997800*
X1791190Y9136650D02*
Y9231900D01*
Y9184280D02*
X1870570D01*
Y9136650D02*
Y9231900D01*
X1816820Y6113590D02*
Y6208840D01*
Y6161220D02*
X1896200D01*
Y6113590D02*
Y6208840D01*
X1905580Y5568350D02*
Y5663600D01*
Y5615980D02*
X1984960D01*
Y5568350D02*
Y5663600D01*
X1924200Y464650D02*
Y559900D01*
Y512280D02*
X2003580D01*
Y464650D02*
Y559900D01*
X1953130Y7695420D02*
Y7790670D01*
Y7743050D02*
X2032510D01*
Y7695420D02*
Y7790670D01*
X2013360Y5796590D02*
Y5891840D01*
Y5844220D02*
X2092740D01*
Y5796590D02*
Y5891840D01*
X2022870Y7926830D02*
Y8022080D01*
Y7974460D02*
X2102250D01*
Y7926830D02*
Y8022080D01*
X2054570Y6132660D02*
Y6164410D01*
X2062510Y6180290*
X2070450Y6188230*
X2086320Y6196160*
X2102200*
X2118070Y6188230*
X2126010Y6180290*
X2133950Y6164410*
Y6132660*
X2126010Y6116790*
X2118070Y6108850*
X2102200Y6100910*
X2086320*
X2070450Y6108850*
X2062510Y6116790*
X2054570Y6132660*
X2178200Y464650D02*
Y559900D01*
Y512280D02*
X2257580D01*
Y464650D02*
Y559900D01*
X2282810Y6386210D02*
Y6481460D01*
Y6433840D02*
X2362190D01*
Y6386210D02*
Y6481460D01*
X2336700Y4221150D02*
Y4252900D01*
X2344640Y4268780*
X2352580Y4276720*
X2368450Y4284650*
X2384330*
X2400200Y4276720*
X2408140Y4268780*
X2416080Y4252900*
Y4221150*
X2408140Y4205280*
X2400200Y4197340*
X2384330Y4189400*
X2368450*
X2352580Y4197340*
X2344640Y4205280*
X2336700Y4221150*
X2382230Y5701490D02*
Y5796740D01*
Y5749120D02*
X2461610D01*
Y5701490D02*
Y5796740D01*
X2393760Y5951920D02*
Y6047170D01*
Y5999550D02*
X2473140D01*
Y5951920D02*
Y6047170D01*
X2432200Y464650D02*
Y559900D01*
Y512280D02*
X2511580D01*
Y464650D02*
Y559900D01*
X2447450Y7796860D02*
Y7892110D01*
Y7844490D02*
X2526830D01*
Y7796860D02*
Y7892110D01*
X2533240Y6551050D02*
Y6646300D01*
Y6598680D02*
X2612620D01*
Y6551050D02*
Y6646300D01*
X2558600Y6256290D02*
Y6288040D01*
X2566540Y6303920*
X2574480Y6311860*
X2590350Y6319790*
X2606230*
X2622100Y6311860*
X2630040Y6303920*
X2637980Y6288040*
Y6256290*
X2630040Y6240420*
X2622100Y6232480*
X2606230Y6224540*
X2590350*
X2574480Y6232480*
X2566540Y6240420*
X2558600Y6256290*
X2686200Y464650D02*
Y559900D01*
Y512280D02*
X2765580D01*
Y464650D02*
Y559900D01*
X2780830Y7812740D02*
X2772890Y7804800D01*
X2757010Y7796860*
X2733200*
X2717330Y7804800*
X2709390Y7812740*
X2701450Y7828610*
Y7860360*
X2709390Y7876240*
X2717330Y7884180*
X2733200Y7892110*
X2757010*
X2772890Y7884180*
X2780830Y7876240*
X2761480Y8082160D02*
Y8177410D01*
Y8129790D02*
X2840860D01*
Y8082160D02*
Y8177410D01*
X2869260Y8348440D02*
Y8443690D01*
Y8396070D02*
X2948640D01*
Y8348440D02*
Y8443690D01*
X2894620Y3019720D02*
Y3051470D01*
X2902560Y3067350*
X2910500Y3075290*
X2926370Y3083220*
X2942250*
X2958120Y3075290*
X2966060Y3067350*
X2974000Y3051470*
Y3019720*
X2966060Y3003850*
X2958120Y2995910*
X2942250Y2987970*
X2926370*
X2910500Y2995910*
X2902560Y3003850*
X2894620Y3019720*
X2942170Y4870950D02*
Y4966200D01*
Y4918580D02*
X3021550D01*
Y4870950D02*
Y4966200D01*
X2948490Y8825500D02*
Y8730250D01*
X3027870*
X3037270Y3121110D02*
Y3216360D01*
Y3168740D02*
X3116650D01*
Y3121110D02*
Y3216360D01*
X3062630Y2981680D02*
Y3013430D01*
X3070570Y3029310*
X3078510Y3037250*
X3094380Y3045180*
X3110260*
X3126130Y3037250*
X3134070Y3029310*
X3142010Y3013430*
Y2981680*
X3134070Y2965810*
X3126130Y2957870*
X3110260Y2949930*
X3094380*
X3078510Y2957870*
X3070570Y2965810*
X3062630Y2981680*
X3122860Y3951700D02*
Y3983450D01*
X3130800Y3999330*
X3138740Y4007270*
X3154610Y4015200*
X3170490*
X3186360Y4007270*
X3194300Y3999330*
X3202240Y3983450*
Y3951700*
X3194300Y3935830*
X3186360Y3927890*
X3170490Y3919950*
X3154610*
X3138740Y3927890*
X3130800Y3935830*
X3122860Y3951700*
X3138710Y1304700D02*
Y1399950D01*
Y1352330D02*
X3218090D01*
Y1304700D02*
Y1399950D01*
X3148490Y8825500D02*
Y8730250D01*
X3227870*
X3160900Y8437200D02*
Y8532450D01*
Y8484830D02*
X3240280D01*
Y8437200D02*
Y8532450D01*
X3173580Y467620D02*
Y562870D01*
Y515250D02*
X3252960D01*
Y467620D02*
Y562870D01*
Y737500D02*
X3245020Y729560D01*
X3229140Y721620*
X3205330*
X3189460Y729560*
X3181520Y737500*
X3173580Y753370*
Y785120*
X3181520Y801000*
X3189460Y808940*
X3205330Y816870*
X3229140*
X3245020Y808940*
X3252960Y801000*
X3198940Y1054270D02*
Y1149520D01*
Y1101900D02*
X3278320D01*
Y1054270D02*
Y1149520D01*
X3205280Y2991190D02*
Y3022940D01*
X3213220Y3038820*
X3221160Y3046760*
X3237030Y3054690*
X3252910*
X3268780Y3046760*
X3276720Y3038820*
X3284660Y3022940*
Y2991190*
X3276720Y2975320*
X3268780Y2967380*
X3252910Y2959440*
X3237030*
X3221160Y2967380*
X3213220Y2975320*
X3205280Y2991190*
X3316230Y4794920D02*
Y4826670D01*
X3324170Y4842550*
X3332110Y4850490*
X3347980Y4858420*
X3363860*
X3379730Y4850490*
X3387670Y4842550*
X3395610Y4826670*
Y4794920*
X3387670Y4779050*
X3379730Y4771110*
X3363860Y4763170*
X3347980*
X3332110Y4771110*
X3324170Y4779050*
X3316230Y4794920*
X3370120Y4170430D02*
Y4202180D01*
X3378060Y4218060*
X3386000Y4226000*
X3401870Y4233930*
X3417750*
X3433620Y4226000*
X3441560Y4218060*
X3449500Y4202180*
Y4170430*
X3441560Y4154560*
X3433620Y4146620*
X3417750Y4138680*
X3401870*
X3386000Y4146620*
X3378060Y4154560*
X3370120Y4170430*
X3414500Y5238720D02*
Y5270470D01*
X3422440Y5286350*
X3430380Y5294290*
X3446250Y5302220*
X3462130*
X3478000Y5294290*
X3485940Y5286350*
X3493880Y5270470*
Y5238720*
X3485940Y5222850*
X3478000Y5214910*
X3462130Y5206970*
X3446250*
X3430380Y5214910*
X3422440Y5222850*
X3414500Y5238720*
X3420840Y6760270D02*
Y6855520D01*
Y6807900D02*
X3500220D01*
Y6760270D02*
Y6855520D01*
X3455710Y1047930D02*
Y1143180D01*
Y1095560D02*
X3535090D01*
Y1047930D02*
Y1143180D01*
X3493750Y467620D02*
Y562870D01*
Y515250D02*
X3573130D01*
Y467620D02*
Y562870D01*
Y737500D02*
X3565190Y729560D01*
X3549310Y721620*
X3525500*
X3509630Y729560*
X3501690Y737500*
X3493750Y753370*
Y785120*
X3501690Y801000*
X3509630Y808940*
X3525500Y816870*
X3549310*
X3565190Y808940*
X3573130Y801000*
X3560320Y2940470D02*
Y2972220D01*
X3568260Y2988100*
X3576200Y2996040*
X3592070Y3003970*
X3607950*
X3623820Y2996040*
X3631760Y2988100*
X3639700Y2972220*
Y2940470*
X3631760Y2924600*
X3623820Y2916660*
X3607950Y2908720*
X3592070*
X3576200Y2916660*
X3568260Y2924600*
X3560320Y2940470*
X3569190Y8869950D02*
Y8965200D01*
Y8917580D02*
X3648570D01*
Y8869950D02*
Y8965200D01*
X3579340Y1456860D02*
Y1552110D01*
Y1504490D02*
X3658720D01*
Y1456860D02*
Y1552110D01*
X3630060Y5501830D02*
Y5533580D01*
X3638000Y5549460*
X3645940Y5557400*
X3661810Y5565330*
X3677690*
X3693560Y5557400*
X3701500Y5549460*
X3709440Y5533580*
Y5501830*
X3701500Y5485960*
X3693560Y5478020*
X3677690Y5470080*
X3661810*
X3645940Y5478020*
X3638000Y5485960*
X3630060Y5501830*
X3658590Y4690310D02*
Y4722060D01*
X3666530Y4737940*
X3674470Y4745880*
X3690340Y4753810*
X3706220*
X3722090Y4745880*
X3730030Y4737940*
X3737970Y4722060*
Y4690310*
X3730030Y4674440*
X3722090Y4666500*
X3706220Y4658560*
X3690340*
X3674470Y4666500*
X3666530Y4674440*
X3658590Y4690310*
X3763200Y5394050D02*
Y5425800D01*
X3771140Y5441680*
X3779080Y5449620*
X3794950Y5457550*
X3810830*
X3826700Y5449620*
X3834640Y5441680*
X3842580Y5425800*
Y5394050*
X3834640Y5378180*
X3826700Y5370240*
X3810830Y5362300*
X3794950*
X3779080Y5370240*
X3771140Y5378180*
X3763200Y5394050*
X3902570Y8885830D02*
X3894630Y8877890D01*
X3878750Y8869950*
X3854940*
X3839070Y8877890*
X3831130Y8885830*
X3823190Y8901700*
Y8933450*
X3831130Y8949330*
X3839070Y8957270*
X3854940Y8965200*
X3878750*
X3894630Y8957270*
X3902570Y8949330*
X3823430Y2312810D02*
Y2344560D01*
X3831370Y2360440*
X3839310Y2368380*
X3855180Y2376310*
X3871060*
X3886930Y2368380*
X3894870Y2360440*
X3902810Y2344560*
Y2312810*
X3894870Y2296940*
X3886930Y2289000*
X3871060Y2281060*
X3855180*
X3839310Y2289000*
X3831370Y2296940*
X3823430Y2312810*
X3832940Y3292340D02*
Y3324090D01*
X3840880Y3339970*
X3848820Y3347910*
X3864690Y3355840*
X3880570*
X3896440Y3347910*
X3904380Y3339970*
X3912320Y3324090*
Y3292340*
X3904380Y3276470*
X3896440Y3268530*
X3880570Y3260590*
X3864690*
X3848820Y3268530*
X3840880Y3276470*
X3832940Y3292340*
X3934380Y1412480D02*
Y1507730D01*
Y1460110D02*
X4013760D01*
Y1412480D02*
Y1507730D01*
X3940720Y1146200D02*
Y1241450D01*
Y1193830D02*
X4020100D01*
Y1146200D02*
Y1241450D01*
X3943890Y6747590D02*
Y6842840D01*
Y6795220D02*
X4023270D01*
Y6747590D02*
Y6842840D01*
X3971820Y490010D02*
Y585260D01*
Y537640D02*
X4051200D01*
Y490010D02*
Y585260D01*
X3971820Y797500D02*
Y892750D01*
Y845130D02*
X4051200D01*
Y797500D02*
Y892750D01*
X3988290Y8565150D02*
Y8660400D01*
Y8612780D02*
X4067670D01*
Y8565150D02*
Y8660400D01*
X4000990Y8247650D02*
Y8342900D01*
Y8295280D02*
X4080370D01*
Y8247650D02*
Y8342900D01*
X4026390Y7625350D02*
Y7720600D01*
Y7672980D02*
X4105770D01*
Y7625350D02*
Y7720600D01*
X4042160Y4870950D02*
Y4966200D01*
Y4918580D02*
X4121540D01*
Y4870950D02*
Y4966200D01*
X4115450Y2860970D02*
Y2956220D01*
Y2908600D02*
X4194830D01*
Y2860970D02*
Y2956220D01*
Y3130850D02*
X4186890Y3122910D01*
X4171010Y3114970*
X4147200*
X4131330Y3122910*
X4123390Y3130850*
X4115450Y3146720*
Y3178470*
X4123390Y3194350*
X4131330Y3202290*
X4147200Y3210220*
X4171010*
X4186890Y3202290*
X4194830Y3194350*
X4130790Y6996700D02*
Y7028450D01*
X4138730Y7044330*
X4146670Y7052270*
X4162540Y7060200*
X4178420*
X4194290Y7052270*
X4202230Y7044330*
X4210170Y7028450*
Y6996700*
X4202230Y6980830*
X4194290Y6972890*
X4178420Y6964950*
X4162540*
X4146670Y6972890*
X4138730Y6980830*
X4130790Y6996700*
X4156280Y3751990D02*
Y3783740D01*
X4164220Y3799620*
X4172160Y3807560*
X4188030Y3815490*
X4203910*
X4219780Y3807560*
X4227720Y3799620*
X4235660Y3783740*
Y3751990*
X4227720Y3736120*
X4219780Y3728180*
X4203910Y3720240*
X4188030*
X4172160Y3728180*
X4164220Y3736120*
X4156280Y3751990*
X4204190Y6882400D02*
Y6914150D01*
X4212130Y6930030*
X4220070Y6937970*
X4235940Y6945900*
X4251820*
X4267690Y6937970*
X4275630Y6930030*
X4283570Y6914150*
Y6882400*
X4275630Y6866530*
X4267690Y6858590*
X4251820Y6850650*
X4235940*
X4220070Y6858590*
X4212130Y6866530*
X4204190Y6882400*
X4225820Y490010D02*
Y585260D01*
Y537640D02*
X4305200D01*
Y490010D02*
Y585260D01*
X4225820Y803840D02*
Y899090D01*
Y851470D02*
X4305200D01*
Y803840D02*
Y899090D01*
X4267690Y8869950D02*
Y8965200D01*
Y8917580D02*
X4347070D01*
Y8869950D02*
Y8965200D01*
X4340140Y3881960D02*
Y3913710D01*
X4348080Y3929590*
X4356020Y3937530*
X4371890Y3945460*
X4387770*
X4403640Y3937530*
X4411580Y3929590*
X4419520Y3913710*
Y3881960*
X4411580Y3866090*
X4403640Y3858150*
X4387770Y3850210*
X4371890*
X4356020Y3858150*
X4348080Y3866090*
X4340140Y3881960*
X4378180Y3983400D02*
Y4015150D01*
X4386120Y4031030*
X4394060Y4038970*
X4409930Y4046900*
X4425810*
X4441680Y4038970*
X4449620Y4031030*
X4457560Y4015150*
Y3983400*
X4449620Y3967530*
X4441680Y3959590*
X4425810Y3951650*
X4409930*
X4394060Y3959590*
X4386120Y3967530*
X4378180Y3983400*
X4387690Y3580810D02*
Y3612560D01*
X4395630Y3628440*
X4403570Y3636380*
X4419440Y3644310*
X4435320*
X4451190Y3636380*
X4459130Y3628440*
X4467070Y3612560*
Y3580810*
X4459130Y3564940*
X4451190Y3557000*
X4435320Y3549060*
X4419440*
X4403570Y3557000*
X4395630Y3564940*
X4387690Y3580810*
X4410260Y2860970D02*
Y2956220D01*
Y2908600D02*
X4489640D01*
Y2860970D02*
Y2956220D01*
Y3130850D02*
X4481700Y3122910D01*
X4465820Y3114970*
X4442010*
X4426140Y3122910*
X4418200Y3130850*
X4410260Y3146720*
Y3178470*
X4418200Y3194350*
X4426140Y3202290*
X4442010Y3210220*
X4465820*
X4481700Y3202290*
X4489640Y3194350*
X4420090Y9136650D02*
Y9231900D01*
Y9184280D02*
X4499470D01*
Y9136650D02*
Y9231900D01*
X4479620Y803840D02*
Y899090D01*
Y851470D02*
X4559000D01*
Y803840D02*
Y899090D01*
X4479820Y490010D02*
Y585260D01*
Y537640D02*
X4559200D01*
Y490010D02*
Y585260D01*
X4601070Y8885830D02*
X4593130Y8877890D01*
X4577250Y8869950*
X4553440*
X4537570Y8877890*
X4529630Y8885830*
X4521690Y8901700*
Y8933450*
X4529630Y8949330*
X4537570Y8957270*
X4553440Y8965200*
X4577250*
X4593130Y8957270*
X4601070Y8949330*
X4600080Y6899750D02*
Y6995000D01*
Y6947380D02*
X4679460D01*
Y6899750D02*
Y6995000D01*
X4695180Y5092900D02*
Y5124650D01*
X4703120Y5140530*
X4711060Y5148470*
X4726930Y5156400*
X4742810*
X4758680Y5148470*
X4766620Y5140530*
X4774560Y5124650*
Y5092900*
X4766620Y5077030*
X4758680Y5069090*
X4742810Y5061150*
X4726930*
X4711060Y5069090*
X4703120Y5077030*
X4695180Y5092900*
X4711030Y5270420D02*
Y5302170D01*
X4718970Y5318050*
X4726910Y5325990*
X4742780Y5333920*
X4758660*
X4774530Y5325990*
X4782470Y5318050*
X4790410Y5302170*
Y5270420*
X4782470Y5254550*
X4774530Y5246610*
X4758660Y5238670*
X4742780*
X4726910Y5246610*
X4718970Y5254550*
X4711030Y5270420*
X4733820Y490010D02*
Y585260D01*
Y537640D02*
X4813200D01*
Y490010D02*
Y585260D01*
X4733820Y803840D02*
Y899090D01*
Y851470D02*
X4813200D01*
Y803840D02*
Y899090D01*
X4815640Y1967230D02*
Y2062480D01*
Y2014860D02*
X4895020D01*
Y1967230D02*
Y2062480D01*
X4844170Y4858270D02*
Y4953520D01*
Y4905900D02*
X4923550D01*
Y4858270D02*
Y4953520D01*
X4940790Y7828550D02*
Y7923800D01*
Y7876180D02*
X5020170D01*
Y7828550D02*
Y7923800D01*
X4997940Y8869950D02*
Y8965200D01*
Y8917580D02*
X5077320D01*
Y8869950D02*
Y8965200D01*
X5021690Y3897760D02*
Y3993010D01*
Y3945390D02*
X5101070D01*
Y3897760D02*
Y3993010D01*
X5104240Y3365030D02*
X5096300Y3357090D01*
X5080420Y3349150*
X5056610*
X5040740Y3357090*
X5032800Y3365030*
X5024860Y3380900*
Y3412650*
X5032800Y3428530*
X5040740Y3436470*
X5056610Y3444400*
X5080420*
X5096300Y3436470*
X5104240Y3428530*
X5024860Y3603150D02*
Y3698400D01*
Y3650780D02*
X5104240D01*
Y3603150D02*
Y3698400D01*
X5028030Y3048200D02*
Y3143450D01*
Y3095830D02*
X5107410D01*
Y3048200D02*
Y3143450D01*
X5043880Y6893410D02*
Y6988660D01*
Y6941040D02*
X5123260D01*
Y6893410D02*
Y6988660D01*
X5047050Y1444180D02*
Y1539430D01*
Y1491810D02*
X5126430D01*
Y1444180D02*
Y1539430D01*
X5047050Y1834230D02*
Y1929480D01*
Y1881860D02*
X5126430D01*
Y1834230D02*
Y1929480D01*
X5062900Y6636640D02*
Y6731890D01*
Y6684270D02*
X5142280D01*
Y6636640D02*
Y6731890D01*
X5158000Y2626640D02*
Y2658390D01*
X5165940Y2674270*
X5173880Y2682210*
X5189750Y2690140*
X5205630*
X5221500Y2682210*
X5229440Y2674270*
X5237380Y2658390*
Y2626640*
X5229440Y2610770*
X5221500Y2602830*
X5205630Y2594890*
X5189750*
X5173880Y2602830*
X5165940Y2610770*
X5158000Y2626640*
X5164340Y5077000D02*
Y5172250D01*
Y5124630D02*
X5243720D01*
Y5077000D02*
Y5172250D01*
X5177020Y5419360D02*
Y5514610D01*
Y5466990D02*
X5256400D01*
Y5419360D02*
Y5514610D01*
X5196040Y4512790D02*
Y4544540D01*
X5203980Y4560420*
X5211920Y4568360*
X5227790Y4576290*
X5243670*
X5259540Y4568360*
X5267480Y4560420*
X5275420Y4544540*
Y4512790*
X5267480Y4496920*
X5259540Y4488980*
X5243670Y4481040*
X5227790*
X5211920Y4488980*
X5203980Y4496920*
X5196040Y4512790*
X5218230Y5844550D02*
Y5939800D01*
Y5892180D02*
X5297610D01*
Y5844550D02*
Y5939800D01*
X5331320Y8885830D02*
X5323380Y8877890D01*
X5307500Y8869950*
X5283690*
X5267820Y8877890*
X5259880Y8885830*
X5251940Y8901700*
Y8933450*
X5259880Y8949330*
X5267820Y8957270*
X5283690Y8965200*
X5307500*
X5323380Y8957270*
X5331320Y8949330*
X5421240Y3365030D02*
X5413300Y3357090D01*
X5397420Y3349150*
X5373610*
X5357740Y3357090*
X5349800Y3365030*
X5341860Y3380900*
Y3412650*
X5349800Y3428530*
X5357740Y3436470*
X5373610Y3444400*
X5397420*
X5413300Y3436470*
X5421240Y3428530*
X5341860Y3603150D02*
Y3698400D01*
Y3650780D02*
X5421240D01*
Y3603150D02*
Y3698400D01*
X5341860Y3862890D02*
Y3958140D01*
Y3910520D02*
X5421240D01*
Y3862890D02*
Y3958140D01*
X5348200Y3016500D02*
Y3111750D01*
Y3064130D02*
X5427580D01*
Y3016500D02*
Y3111750D01*
X5398920Y6471800D02*
Y6567050D01*
Y6519430D02*
X5478300D01*
Y6471800D02*
Y6567050D01*
X5398920Y6791970D02*
Y6887220D01*
Y6839600D02*
X5478300D01*
Y6791970D02*
Y6887220D01*
X5424280Y5035790D02*
Y5131040D01*
Y5083420D02*
X5503660D01*
Y5035790D02*
Y5131040D01*
X5443300Y5416190D02*
Y5511440D01*
Y5463820D02*
X5522680D01*
Y5416190D02*
Y5511440D01*
X5446470Y5270420D02*
Y5302170D01*
X5454410Y5318050*
X5462350Y5325990*
X5478220Y5333920*
X5494100*
X5509970Y5325990*
X5517910Y5318050*
X5525850Y5302170*
Y5270420*
X5517910Y5254550*
X5509970Y5246610*
X5494100Y5238670*
X5478220*
X5462350Y5246610*
X5454410Y5254550*
X5446470Y5270420*
X5468660Y5882180D02*
Y5977430D01*
Y5929810D02*
X5548040D01*
Y5882180D02*
Y5977430D01*
X5544740Y1834090D02*
Y1929340D01*
Y1881720D02*
X5624120D01*
Y1834090D02*
Y1929340D01*
X5557420Y1257150D02*
Y1352400D01*
Y1304780D02*
X5636800D01*
Y1257150D02*
Y1352400D01*
X5620820Y6224540D02*
Y6319790D01*
Y6272170D02*
X5700200D01*
Y6224540D02*
Y6319790D01*
X5630330Y7952190D02*
Y8047440D01*
Y7999820D02*
X5709710D01*
Y7952190D02*
Y8047440D01*
X5649350Y2918230D02*
Y3013480D01*
Y2965860D02*
X5728730D01*
Y2918230D02*
Y3013480D01*
X5652520Y3881910D02*
Y3977160D01*
Y3929540D02*
X5731900D01*
Y3881910D02*
Y3977160D01*
X5741410Y3365030D02*
X5733470Y3357090D01*
X5717590Y3349150*
X5693780*
X5677910Y3357090*
X5669970Y3365030*
X5662030Y3380900*
Y3412650*
X5669970Y3428530*
X5677910Y3436470*
X5693780Y3444400*
X5717590*
X5733470Y3436470*
X5741410Y3428530*
X5662030Y3603150D02*
Y3698400D01*
Y3650780D02*
X5741410D01*
Y3603150D02*
Y3698400D01*
X5773110Y4924670D02*
X5765170Y4916730D01*
X5749290Y4908790*
X5725480*
X5709610Y4916730*
X5701670Y4924670*
X5693730Y4940540*
Y4972290*
X5701670Y4988170*
X5709610Y4996110*
X5725480Y5004040*
X5749290*
X5765170Y4996110*
X5773110Y4988170*
X5693730Y5162790D02*
Y5258040D01*
Y5210420D02*
X5773110D01*
Y5162790D02*
Y5258040D01*
X5703040Y5501780D02*
Y5597030D01*
Y5549410D02*
X5782420D01*
Y5501780D02*
Y5597030D01*
X5728190Y8438150D02*
Y8533400D01*
Y8485780D02*
X5807570D01*
Y8438150D02*
Y8533400D01*
X5947330Y2677310D02*
Y2772560D01*
Y2724940D02*
X6026710D01*
Y2677310D02*
Y2772560D01*
X5956840Y3526870D02*
Y3622120D01*
Y3574500D02*
X6036220D01*
Y3526870D02*
Y3622120D01*
X6036420Y5517660D02*
X6028480Y5509720D01*
X6012600Y5501780*
X5988790*
X5972920Y5509720*
X5964980Y5517660*
X5957040Y5533530*
Y5565280*
X5964980Y5581160*
X5972920Y5589100*
X5988790Y5597030*
X6012600*
X6028480Y5589100*
X6036420Y5581160*
X5994880Y5140400D02*
Y5235650D01*
Y5188030D02*
X6074260D01*
Y5140400D02*
Y5235650D01*
X6067790Y3038690D02*
Y3133940D01*
Y3086320D02*
X6147170D01*
Y3038690D02*
Y3133940D01*
X6086810Y4154580D02*
Y4186330D01*
X6094750Y4202210*
X6102690Y4210150*
X6118560Y4218080*
X6134440*
X6150310Y4210150*
X6158250Y4202210*
X6166190Y4186330*
Y4154580*
X6158250Y4138710*
X6150310Y4130770*
X6134440Y4122830*
X6118560*
X6102690Y4130770*
X6094750Y4138710*
X6086810Y4154580*
X6131190Y1257150D02*
Y1352400D01*
Y1304780D02*
X6210570D01*
Y1257150D02*
Y1352400D01*
X6257990Y8825500D02*
Y8920750D01*
X6297680Y8873130*
X6337370Y8920750*
Y8825500*
X6362600Y3498390D02*
Y3530140D01*
X6370540Y3546020*
X6378480Y3553960*
X6394350Y3561890*
X6410230*
X6426100Y3553960*
X6434040Y3546020*
X6441980Y3530140*
Y3498390*
X6434040Y3482520*
X6426100Y3474580*
X6410230Y3466640*
X6394350*
X6378480Y3474580*
X6370540Y3482520*
X6362600Y3498390*
X6378450Y6649320D02*
Y6744570D01*
Y6696950D02*
X6457830D01*
Y6649320D02*
Y6744570D01*
X6381620Y2404740D02*
Y2436490D01*
X6389560Y2452370*
X6397500Y2460310*
X6413370Y2468240*
X6429250*
X6445120Y2460310*
X6453060Y2452370*
X6461000Y2436490*
Y2404740*
X6453060Y2388870*
X6445120Y2380930*
X6429250Y2372990*
X6413370*
X6397500Y2380930*
X6389560Y2388870*
X6381620Y2404740*
X6547370Y8841380D02*
X6539430Y8833440D01*
X6523550Y8825500*
X6499740*
X6483870Y8833440*
X6475930Y8841380*
X6467990Y8857250*
Y8889000*
X6475930Y8904880*
X6483870Y8912820*
X6499740Y8920750*
X6523550*
X6539430Y8912820*
X6547370Y8904880*
X6568650Y3396900D02*
Y3492150D01*
Y3444530D02*
X6648030D01*
Y3396900D02*
Y3492150D01*
X6747370Y8841380D02*
X6739430Y8833440D01*
X6723550Y8825500*
X6699740*
X6683870Y8833440*
X6675930Y8841380*
X6667990Y8857250*
Y8889000*
X6675930Y8904880*
X6683870Y8912820*
X6699740Y8920750*
X6723550*
X6739430Y8912820*
X6747370Y8904880*
X6855320Y7226130D02*
X6847380Y7218190D01*
X6831500Y7210250*
X6807690*
X6791820Y7218190*
X6783880Y7226130*
X6775940Y7242000*
Y7273750*
X6783880Y7289630*
X6791820Y7297570*
X6807690Y7305500*
X6831500*
X6847380Y7297570*
X6855320Y7289630*
Y7726130D02*
X6847380Y7718190D01*
X6831500Y7710250*
X6807690*
X6791820Y7718190*
X6783880Y7726130*
X6775940Y7742000*
Y7773750*
X6783880Y7789630*
X6791820Y7797570*
X6807690Y7805500*
X6831500*
X6847380Y7797570*
X6855320Y7789630*
X6787380Y2239900D02*
Y2271650D01*
X6795320Y2287530*
X6803260Y2295470*
X6819130Y2303400*
X6835010*
X6850880Y2295470*
X6858820Y2287530*
X6866760Y2271650*
Y2239900*
X6858820Y2224030*
X6850880Y2216090*
X6835010Y2208150*
X6819130*
X6803260Y2216090*
X6795320Y2224030*
X6787380Y2239900*
Y2804160D02*
Y2835910D01*
X6795320Y2851790*
X6803260Y2859730*
X6819130Y2867660*
X6835010*
X6850880Y2859730*
X6858820Y2851790*
X6866760Y2835910*
Y2804160*
X6858820Y2788290*
X6850880Y2780350*
X6835010Y2772410*
X6819130*
X6803260Y2780350*
X6795320Y2788290*
X6787380Y2804160*
Y3273320D02*
Y3305070D01*
X6795320Y3320950*
X6803260Y3328890*
X6819130Y3336820*
X6835010*
X6850880Y3328890*
X6858820Y3320950*
X6866760Y3305070*
Y3273320*
X6858820Y3257450*
X6850880Y3249510*
X6835010Y3241570*
X6819130*
X6803260Y3249510*
X6795320Y3257450*
X6787380Y3273320*
X6867990Y8057150D02*
Y8152400D01*
Y8104780D02*
X6947370D01*
Y8057150D02*
Y8152400D01*
Y8841380D02*
X6939430Y8833440D01*
X6923550Y8825500*
X6899740*
X6883870Y8833440*
X6875930Y8841380*
X6867990Y8857250*
Y8889000*
X6875930Y8904880*
X6883870Y8912820*
X6899740Y8920750*
X6923550*
X6939430Y8912820*
X6947370Y8904880*
X7077990Y8825500D02*
Y8920750D01*
X7117680Y8873130*
X7157370Y8920750*
Y8825500*
X7101210Y6820500D02*
Y6915750D01*
Y6868130D02*
X7180590D01*
Y6820500D02*
Y6915750D01*
X7738380Y6592260D02*
Y6687510D01*
Y6639890D02*
X7817760D01*
Y6592260D02*
Y6687510D01*
X7766910Y2252580D02*
Y2284330D01*
X7774850Y2300210*
X7782790Y2308150*
X7798660Y2316080*
X7814540*
X7830410Y2308150*
X7838350Y2300210*
X7846290Y2284330*
Y2252580*
X7838350Y2236710*
X7830410Y2228770*
X7814540Y2220830*
X7798660*
X7782790Y2228770*
X7774850Y2236710*
X7766910Y2252580*
X8058550Y2800990D02*
Y2832740D01*
X8066490Y2848620*
X8074430Y2856560*
X8090300Y2864490*
X8106180*
X8122050Y2856560*
X8129990Y2848620*
X8137930Y2832740*
Y2800990*
X8129990Y2785120*
X8122050Y2777180*
X8106180Y2769240*
X8090300*
X8074430Y2777180*
X8066490Y2785120*
X8058550Y2800990*
X8103090Y6634750D02*
Y6730000D01*
Y6682380D02*
X8182470D01*
Y6634750D02*
Y6730000D01*
X8103090Y6888750D02*
Y6984000D01*
Y6936380D02*
X8182470D01*
Y6888750D02*
Y6984000D01*
X8103090Y7142750D02*
Y7238000D01*
Y7190380D02*
X8182470D01*
Y7142750D02*
Y7238000D01*
X8103090Y7396750D02*
Y7492000D01*
Y7444380D02*
X8182470D01*
Y7396750D02*
Y7492000D01*
X8103090Y7650750D02*
Y7746000D01*
Y7698380D02*
X8182470D01*
Y7650750D02*
Y7746000D01*
X8103090Y7904750D02*
Y8000000D01*
Y7952380D02*
X8182470D01*
Y7904750D02*
Y8000000D01*
X8103090Y8158750D02*
Y8254000D01*
Y8206380D02*
X8182470D01*
Y8158750D02*
Y8254000D01*
X8103090Y8412750D02*
Y8508000D01*
Y8460380D02*
X8182470D01*
Y8412750D02*
Y8508000D01*
X8270940Y3419090D02*
Y3514340D01*
Y3466720D02*
X8350320D01*
Y3419090D02*
Y3514340D01*
X8334340Y5390830D02*
Y5486080D01*
Y5438460D02*
X8413720D01*
Y5390830D02*
Y5486080D01*
X8337510Y4446170D02*
Y4541420D01*
Y4493800D02*
X8416890D01*
Y4446170D02*
Y4541420D01*
X8337510Y4943860D02*
Y5039110D01*
Y4991490D02*
X8416890D01*
Y4943860D02*
Y5039110D01*
X8337510Y6335490D02*
Y6430740D01*
Y6383120D02*
X8416890D01*
Y6335490D02*
Y6430740D01*
X8350190Y3178220D02*
Y3209970D01*
X8358130Y3225850*
X8366070Y3233790*
X8381940Y3241720*
X8397820*
X8413690Y3233790*
X8421630Y3225850*
X8429570Y3209970*
Y3178220*
X8421630Y3162350*
X8413690Y3154410*
X8397820Y3146470*
X8381940*
X8366070Y3154410*
X8358130Y3162350*
X8350190Y3178220*
X8357090Y6634750D02*
Y6730000D01*
Y6682380D02*
X8436470D01*
Y6634750D02*
Y6730000D01*
X8357090Y6888750D02*
Y6984000D01*
Y6936380D02*
X8436470D01*
Y6888750D02*
Y6984000D01*
X8357090Y7142750D02*
Y7238000D01*
Y7190380D02*
X8436470D01*
Y7142750D02*
Y7238000D01*
X8357090Y7396750D02*
Y7492000D01*
Y7444380D02*
X8436470D01*
Y7396750D02*
Y7492000D01*
X8357090Y7650750D02*
Y7746000D01*
Y7698380D02*
X8436470D01*
Y7650750D02*
Y7746000D01*
X8357090Y7904750D02*
Y8000000D01*
Y7952380D02*
X8436470D01*
Y7904750D02*
Y8000000D01*
X8357090Y8158750D02*
Y8254000D01*
Y8206380D02*
X8436470D01*
Y8158750D02*
Y8254000D01*
X8357090Y8412750D02*
Y8508000D01*
Y8460380D02*
X8436470D01*
Y8412750D02*
Y8508000D01*
X8375550Y1471910D02*
Y1567160D01*
Y1519540D02*
X8454930D01*
Y1471910D02*
Y1567160D01*
X8375550Y1725910D02*
Y1821160D01*
Y1773540D02*
X8454930D01*
Y1725910D02*
Y1821160D01*
X8375550Y1979910D02*
Y2075160D01*
Y2027540D02*
X8454930D01*
Y1979910D02*
Y2075160D01*
X8375550Y2233910D02*
Y2329160D01*
Y2281540D02*
X8454930D01*
Y2233910D02*
Y2329160D01*
X8375550Y2487910D02*
Y2583160D01*
Y2535540D02*
X8454930D01*
Y2487910D02*
Y2583160D01*
X8423640Y420270D02*
Y515520D01*
X8503020Y420270*
Y515520*
X8435780Y9149350D02*
Y9244600D01*
X8515160Y9149350*
Y9244600*
X0Y0D02*
M02*
