%FSLAX35Y35*%
%MOMM*%
G04 EasyPC Gerber Version 18.0.9 Build 3640 *
%ADD114R,0.46400X0.72400*%
%ADD127R,0.57400X1.30400*%
%ADD137R,0.60400X1.02900*%
%ADD133R,0.97400X1.60400*%
%ADD113R,1.05400X1.05400*%
%ADD134R,1.05400X1.45400*%
%ADD119R,1.15400X1.30400*%
%ADD143R,1.25400X1.25400*%
%ADD111R,1.25400X1.34400*%
%ADD145R,1.25400X1.65400*%
%ADD142R,1.30400X2.45400*%
%ADD144R,1.36800X2.05600*%
%ADD129R,1.46400X2.65400*%
%ADD136R,1.52400X1.52400*%
%ADD116R,1.95400X1.95400*%
%ADD117R,2.15400X2.15400*%
%ADD122R,2.25400X2.25400*%
%ADD105C,1.40400*%
%ADD125C,1.65400*%
%ADD115C,1.95400*%
%ADD124C,2.05400*%
%ADD104C,2.15400*%
%ADD123C,2.25400*%
%ADD100C,2.35400*%
%ADD126R,1.30400X0.57400*%
%ADD138R,1.02900X0.60400*%
%ADD102R,1.60400X0.65400*%
%ADD106R,1.15400X0.80400*%
%ADD132R,1.60400X0.97400*%
%ADD110R,1.05400X1.05400*%
%ADD121R,1.45400X1.05400*%
%ADD135R,1.45400X1.15400*%
%ADD141R,1.25400X1.25400*%
%ADD112R,1.34400X1.25400*%
%ADD139R,1.65400X1.25400*%
%ADD140R,2.45400X1.30400*%
%ADD131R,2.00400X1.65400*%
%ADD101C,3.75400*%
%ADD120R,3.35400X1.80400*%
%ADD128R,2.43400X1.85400*%
%ADD103R,2.15400X2.05400*%
%AMT118*0 Octagon Pad at angle 0*4,1,8,-0.36800,-0.88900,0.36800,-0.88900,0.88900,-0.36800,0.88900,0.36800,0.36800,0.88900,-0.36800,0.88900,-0.88900,0.36800,-0.88900,-0.36800,-0.36800,-0.88900,0*%
%ADD118T118*%
%AMT130*0 Octagon Pad at angle 0*4,1,8,-0.44590,-1.07700,0.44590,-1.07700,1.07700,-0.44590,1.07700,0.44590,0.44590,1.07700,-0.44590,1.07700,-1.07700,0.44590,-1.07700,-0.44590,-0.44590,-1.07700,0*%
%ADD130T130*%
X0Y0D02*
D02*
D100*
X1257790Y7992240D03*
X1321290Y8249240D03*
D02*
D101*
X278970Y263120D03*
X282140Y8998540D03*
X8169640Y269460D03*
X8181780Y8998540D03*
D02*
D102*
X507210Y7938440D03*
Y8003440D03*
Y8068440D03*
Y8133440D03*
Y8198440D03*
D02*
D103*
X239710Y7953440D03*
Y8183440D03*
D02*
D104*
Y7650940D03*
Y8485940D03*
X1670200Y313840D03*
X1924200D03*
X2178200D03*
X2432200D03*
X3971820Y339200D03*
X4225820D03*
X4479820D03*
X7849090Y6483940D03*
Y6737940D03*
Y6991940D03*
Y7245940D03*
Y7499940D03*
Y7753940D03*
Y8007940D03*
X8103090Y6483940D03*
Y6737940D03*
Y6991940D03*
Y7245940D03*
Y7499940D03*
Y7753940D03*
Y8007940D03*
Y8261940D03*
X8121550Y1321100D03*
Y1575100D03*
Y1829100D03*
Y2083100D03*
D02*
D105*
X539710Y7845940D03*
Y8290940D03*
D02*
D106*
X1924540Y8643190D03*
Y8833190D03*
X2203940Y8643190D03*
Y8738190D03*
Y8833190D03*
D02*
D110*
X389920Y1347490D03*
Y1467490D03*
X1495290Y8668340D03*
X1645290D03*
D02*
D111*
X275570Y2589760D03*
Y2767560D03*
X551590Y1350290D03*
Y1528090D03*
X1537190Y8242890D03*
Y8420690D03*
X3124690Y7081650D03*
Y7259450D03*
X3315190Y7734670D03*
Y7912470D03*
X3331680Y3845080D03*
Y4022880D03*
X3433120Y2513680D03*
Y2691480D03*
X3578940Y3341050D03*
Y3518850D03*
X3616980Y2735580D03*
Y2913380D03*
X3750120Y3207910D03*
Y3385710D03*
X3975590Y4523460D03*
Y4701260D03*
X4077190Y6384250D03*
Y6562050D03*
X4242290Y6384250D03*
Y6562050D03*
X4458190Y6384250D03*
Y6562050D03*
X4686790Y7002400D03*
Y7180200D03*
Y8046040D03*
Y8223840D03*
X4902690Y8046040D03*
Y8223840D03*
X5005440Y1505620D03*
Y1683420D03*
X5131290Y8046040D03*
Y8223840D03*
X5588720Y1607060D03*
Y1784860D03*
X5747220Y4200120D03*
Y4377920D03*
X6695050Y1888130D03*
Y2065930D03*
Y2960650D03*
Y3138450D03*
X6701390Y2439710D03*
Y2617510D03*
X7658730Y2439710D03*
Y2617510D03*
Y2951140D03*
Y3128940D03*
X7671410Y1888130D03*
Y2065930D03*
D02*
D112*
X1778490Y8427040D03*
X1803890Y8236540D03*
X1956290Y8427040D03*
X1981690Y8236540D03*
X2248920Y4806520D03*
Y5028420D03*
Y5217830D03*
X2426720Y4806520D03*
Y5028420D03*
Y5217830D03*
X2801570Y5752720D03*
Y6010530D03*
X2830680Y5544140D03*
X2836800Y4900830D03*
Y5125040D03*
Y5315540D03*
X2979370Y5752720D03*
Y6010530D03*
X3008480Y5544140D03*
X3014600Y4900830D03*
Y5125040D03*
Y5315540D03*
X3340590Y8414340D03*
X3518390D03*
X4964090Y5969120D03*
X5141890D03*
X6032380Y6051540D03*
X6210180D03*
X7642740Y6057880D03*
X7820540D03*
D02*
D113*
X2184890Y8274490D03*
Y8424490D03*
D02*
D114*
X2217710Y8992190D03*
X2283710D03*
D02*
D115*
X2694490Y8579440D03*
D02*
D116*
X2894490D03*
D02*
D117*
X244100Y6809170D03*
X1416200Y313840D03*
X2193450Y7646050D03*
X2919580Y316810D03*
X3239750D03*
X3315190Y8719140D03*
X3689890Y6596780D03*
X3717820Y339200D03*
X3861450Y2710160D03*
X4013690Y8719140D03*
X4156260Y2710160D03*
X4743940Y8719140D03*
X4770860Y3452340D03*
X4923020Y5268550D03*
X5087860Y3452340D03*
X5408030D03*
X5439730Y5011980D03*
X5449040Y5350970D03*
X7849090Y8261940D03*
X8121550Y2337100D03*
D02*
D118*
X2447450Y7646050D03*
X2919580Y570810D03*
X3239750D03*
X3569190Y8719140D03*
X3861450Y2964160D03*
X4156260D03*
X4267690Y8719140D03*
X4770860Y3198340D03*
X4997940Y8719140D03*
X5087860Y3198340D03*
X5408030D03*
X5439730Y4757980D03*
X5703040Y5350970D03*
D02*
D119*
X3974190Y8295240D03*
X4204190D03*
X4434190D03*
D02*
D120*
X4204190Y7695240D03*
D02*
D121*
X3391910Y2926150D03*
Y3046150D03*
X3715250Y2311170D03*
Y2431170D03*
X5347190Y8674690D03*
Y8794690D03*
D02*
D122*
X6521940Y7059440D03*
D02*
D123*
Y7559440D03*
D02*
D124*
X6213990Y8674690D03*
X6413990D03*
X6613990D03*
D02*
D125*
X6003990D03*
X6823990D03*
D02*
D126*
X3629290Y5243740D03*
Y5293740D03*
Y5343740D03*
Y5393740D03*
Y5443740D03*
Y5493740D03*
Y5543740D03*
Y5593740D03*
Y5643740D03*
Y5693740D03*
Y5743740D03*
Y5793740D03*
X4474290Y5243740D03*
Y5293740D03*
Y5343740D03*
Y5393740D03*
Y5443740D03*
Y5493740D03*
Y5543740D03*
Y5593740D03*
Y5643740D03*
Y5693740D03*
Y5743740D03*
Y5793740D03*
D02*
D127*
X3776790Y5096240D03*
Y5941240D03*
X3826790Y5096240D03*
Y5941240D03*
X3876790Y5096240D03*
Y5941240D03*
X3926790Y5096240D03*
Y5941240D03*
X3976790Y5096240D03*
Y5941240D03*
X4026790Y5096240D03*
Y5941240D03*
X4076790Y5096240D03*
Y5941240D03*
X4126790Y5096240D03*
Y5941240D03*
X4176790Y5096240D03*
Y5941240D03*
X4226790Y5096240D03*
Y5941240D03*
X4276790Y5096240D03*
Y5941240D03*
X4326790Y5096240D03*
Y5941240D03*
D02*
D128*
X719250Y4694780D03*
Y5103710D03*
X1639250Y4694780D03*
Y5103710D03*
X1679760Y1046110D03*
X2599760D03*
X3515590Y7157040D03*
X4435590D03*
X5537650Y5734540D03*
X6457650D03*
X6900750Y5728200D03*
X7820750D03*
D02*
D129*
X2900890Y7839420D03*
X3119890D03*
D02*
D130*
X244100Y5793170D03*
Y6047170D03*
Y6301170D03*
Y6555170D03*
D02*
D131*
X3258770Y5758530D03*
Y6008530D03*
D02*
D132*
X806080Y2265400D03*
Y2365400D03*
Y2465400D03*
Y2565400D03*
Y2665400D03*
Y2765400D03*
Y2865400D03*
Y2965400D03*
Y3065400D03*
Y3165400D03*
Y3265400D03*
Y3365400D03*
Y3465400D03*
Y3565400D03*
Y3665400D03*
Y3765400D03*
Y3865400D03*
X3131080Y2265400D03*
Y2365400D03*
Y2465400D03*
Y2565400D03*
Y2665400D03*
Y2765400D03*
Y2865400D03*
Y2965400D03*
Y3065400D03*
Y3165400D03*
Y3265400D03*
Y3365400D03*
Y3465400D03*
Y3565400D03*
Y3665400D03*
Y3765400D03*
Y3865400D03*
D02*
D133*
X1168580Y1902900D03*
Y4227900D03*
X1268580Y1902900D03*
Y4227900D03*
X1368580Y1902900D03*
Y4227900D03*
X1468580Y1902900D03*
Y4227900D03*
X1568580Y1902900D03*
Y4227900D03*
X1668580Y1902900D03*
Y4227900D03*
X1768580Y1902900D03*
Y4227900D03*
X1868580Y1902900D03*
Y4227900D03*
X1968580Y1902900D03*
Y4227900D03*
X2068580Y1902900D03*
Y4227900D03*
X2168580Y1902900D03*
Y4227900D03*
X2268580Y1902900D03*
Y4227900D03*
X2368580Y1902900D03*
Y4227900D03*
X2468580Y1902900D03*
Y4227900D03*
X2568580Y1902900D03*
Y4227900D03*
X2668580Y1902900D03*
Y4227900D03*
X2768580Y1902900D03*
Y4227900D03*
D02*
D134*
X361390Y2377510D03*
X481390D03*
X3477730Y3712080D03*
X3597730D03*
X5360710Y6320990D03*
X5373390Y6555570D03*
X5480710Y6320990D03*
X5493390Y6555570D03*
D02*
D135*
X6078770Y3568230D03*
Y3695230D03*
Y3822230D03*
Y4457230D03*
Y4584230D03*
Y4711230D03*
Y4838230D03*
Y4965230D03*
Y5092230D03*
X7729770Y3568230D03*
Y3695230D03*
Y3822230D03*
Y3949230D03*
Y4076230D03*
Y4203230D03*
Y4330230D03*
Y4457230D03*
Y4584230D03*
Y4711230D03*
Y4838230D03*
Y4965230D03*
Y5092230D03*
D02*
D136*
X6523270Y3759730D03*
Y4900730D03*
X6777270Y3759730D03*
Y4900730D03*
X7031270Y3759730D03*
Y4900730D03*
X7285270Y3759730D03*
Y4900730D03*
D02*
D137*
X5071820Y1968770D03*
Y2171270D03*
X5121820Y1968770D03*
Y2171270D03*
X5171820Y1968770D03*
Y2171270D03*
D02*
D138*
X4995570Y1995020D03*
Y2045020D03*
Y2095020D03*
Y2145020D03*
X5248070Y1995020D03*
Y2045020D03*
Y2095020D03*
Y2145020D03*
D02*
D139*
X303710Y1724590D03*
Y1914590D03*
X513710Y1819590D03*
D02*
D140*
X429280Y3726250D03*
Y4021250D03*
D02*
D141*
X579280Y3873750D03*
D02*
D142*
X1116390Y1529270D03*
X1411390D03*
X2422430Y1538780D03*
X2717430D03*
D02*
D143*
X1263890Y1679270D03*
X2569930Y1688780D03*
D02*
D144*
X2153540Y4536280D03*
X2468340D03*
D02*
D145*
X7057350Y1878370D03*
Y2423610D03*
Y2966740D03*
X7152350Y2088370D03*
Y2633610D03*
Y3176740D03*
X7247350Y1878370D03*
Y2423610D03*
Y2966740D03*
X0Y0D02*
M02*
