G05
M48
INCH
FMAT,2
T1C000.01969
T2C000.03150
T3C000.03346
T4C000.03543
T5C000.05118
T6C000.12598
%
T001
X00089813Y00442967
X00097687Y00442967
T002
X00124250Y00448467
X00151750Y00448467
X00180500Y00448467
X00220126Y00446717
X00228000Y00446717
X00235874Y00446717
X00240500Y00383124
X00240500Y00402809
T003
X00023280Y00414089
X00023280Y00431608
T004
X00034250Y00419848
X00034250Y00427848
X00044250Y00458967
X00089813Y00430467
X00097687Y00454904
X00114250Y00448467
X00130750Y00436467
X00131250Y00423967
X00141750Y00448467
X00147750Y00458967
X00170500Y00448467
X00197250Y00415467
X00199250Y00431467
X00292750Y00360467
X00292750Y00370467
X00292750Y00380467
X00292750Y00390467
X00292750Y00400467
X00292750Y00410467
X00292750Y00420467
X00292750Y00430467
X00302750Y00360467
X00302750Y00370467
X00302750Y00380467
X00302750Y00390467
X00302750Y00400467
X00302750Y00410467
X00302750Y00420467
X00302750Y00430467
T005
X00011469Y00406411
X00011469Y00439285
T006
X00013750Y00459467
X00304750Y00459467
M30
