%FSLAX35Y35*%
%MOIN*%
G04 EasyPC Gerber Version 18.0.9 Build 3640 *
%ADD125C,0.00500*%
%ADD10C,0.01200*%
%ADD11C,0.01378*%
X0Y0D02*
D02*
D10*
X86536Y341674D02*
Y352674D01*
X81786*
Y341674*
X86536*
X184945Y83152D02*
X187445Y85652D01*
X184945Y83152D02*
X187445Y80652D01*
X189945Y85652D02*
Y93152D01*
X187445Y90652*
X189945Y93152D02*
X192445Y90652D01*
Y83152D02*
X184945D01*
X254536Y261072D02*
X264536D01*
X259536Y266072D02*
Y256072D01*
Y333572D02*
X258386Y333556D01*
X257236Y333509*
X256089Y333431*
X254943Y333322*
X253802Y333183*
X252664Y333012*
X251531Y332811*
X250404Y332579*
X249284Y332317*
X248172Y332024*
X247067Y331702*
X245972Y331349*
X244887Y330967*
X243813Y330556*
X242750Y330116*
X241699Y329648*
X240661Y329151*
X239638Y328626*
X238629Y328074*
X237635Y327494*
X236657Y326888*
X235696Y326256*
X234752Y325597*
X233827Y324914*
X232920Y324206*
X232033Y323473*
X231166Y322717*
X230320Y321937*
X229495Y321135*
X228693Y320311*
X227913Y319465*
X227156Y318599*
X226422Y317712*
X225713Y316806*
X225029Y315881*
X224370Y314939*
X223737Y313978*
X223130Y313001*
X222550Y312007*
X221997Y310999*
X221471Y309976*
X220974Y308938*
X220504Y307888*
X220063Y306825*
X219652Y305751*
X219269Y304666*
X218916Y303571*
X218592Y302467*
X218299Y301355*
X218035Y300235*
X217803Y299108*
X217600Y297976*
X217429Y296838*
X217288Y295696*
X217178Y294551*
X217100Y293404*
X217052Y292254*
X217035Y291104*
X217050Y289953*
X217096Y288804*
X217172Y287656*
X217280Y286510*
X217419Y285368*
X217589Y284230*
X217789Y283098*
X218020Y281970*
X218282Y280850*
X218574Y279737*
X218895Y278632*
X219247Y277537*
X219628Y276452*
X220038Y275377*
X220478Y274313*
X220945Y273262*
X221441Y272224*
X221965Y271200*
X222517Y270191*
X223096Y269196*
X223701Y268218*
X224333Y267256*
X224991Y266312*
X225673Y265386*
X226381Y264479*
X227113Y263591*
X227868Y262724*
X228647Y261877*
X229448Y261052*
X230272Y260248*
X231117Y259467*
X231983Y258710*
X232869Y257976*
X233774Y257266*
X234699Y256581*
X235641Y255922*
X236602Y255288*
X237578Y254680*
X238571Y254099*
X239580Y253545*
X240602Y253019*
X241639Y252520*
X242689Y252050*
X243752Y251608*
X244826Y251196*
X245910Y250812*
X247005Y250458*
X248109Y250134*
X249221Y249839*
X250341Y249575*
X251467Y249341*
X252599Y249138*
X253737Y248966*
X254878Y248824*
X256024Y248713*
X257171Y248634*
X258321Y248585*
X259536Y248572*
X260687Y248587*
X261836Y248634*
X262984Y248712*
X264129Y248821*
X265271Y248961*
X266409Y249131*
X267541Y249333*
X268668Y249565*
X269788Y249827*
X270901Y250119*
X272005Y250442*
X273100Y250794*
X274185Y251176*
X275260Y251587*
X276323Y252027*
X277374Y252496*
X278411Y252993*
X279435Y253517*
X280444Y254070*
X281437Y254649*
X282415Y255256*
X283376Y255888*
X284320Y256546*
X285246Y257230*
X286152Y257938*
X287039Y258670*
X287906Y259427*
X288752Y260206*
X289577Y261008*
X290380Y261832*
X291160Y262678*
X291917Y263544*
X292650Y264431*
X293359Y265337*
X294043Y266262*
X294702Y267205*
X295335Y268165*
X295942Y269143*
X296522Y270136*
X297076Y271144*
X297601Y272168*
X298099Y273205*
X298568Y274256*
X299009Y275318*
X299421Y276392*
X299804Y277477*
X300157Y278572*
X300480Y279676*
X300774Y280788*
X301037Y281908*
X301270Y283035*
X301472Y284168*
X301644Y285305*
X301784Y286447*
X301894Y287592*
X301973Y288740*
X302020Y289889*
X302037Y291040*
X302022Y292190*
X301977Y293340*
X301900Y294488*
X301792Y295633*
X301653Y296775*
X301483Y297913*
X301283Y299046*
X301052Y300173*
X300791Y301293*
X300499Y302406*
X300177Y303511*
X299826Y304606*
X299444Y305692*
X299034Y306767*
X298595Y307830*
X298127Y308881*
X297631Y309919*
X297107Y310943*
X296556Y311953*
X295977Y312947*
X295371Y313926*
X294739Y314887*
X294082Y315831*
X293399Y316757*
X292692Y317664*
X291960Y318552*
X291204Y319420*
X290426Y320267*
X289624Y321092*
X288800Y321895*
X287956Y322676*
X287090Y323433*
X286204Y324167*
X285298Y324877*
X284374Y325562*
X283431Y326222*
X282471Y326856*
X281494Y327463*
X280501Y328044*
X279493Y328598*
X278470Y329124*
X277433Y329623*
X276383Y330093*
X275321Y330535*
X274247Y330948*
X273162Y331331*
X272068Y331685*
X270964Y332009*
X269852Y332304*
X268732Y332568*
X267606Y332802*
X266473Y333005*
X265336Y333178*
X264194Y333319*
X263049Y333430*
X261901Y333509*
X260752Y333558*
X259536Y333572*
D02*
D11*
X241082Y40518D02*
X258767Y9888D01*
X294138*
X311823Y40518*
X294138Y71149*
X258767*
X241082Y40518*
X262624Y69165D02*
X277594Y43239D01*
X276452Y41263*
X269076Y54038*
X268890Y54361*
X268569Y54174*
X245563Y40891*
X243587*
X244576Y42603*
X267582Y55885*
X267904Y56071*
X267718Y56392*
X260342Y69165*
X262624*
X290586Y11872D02*
X269936Y23791D01*
X269615Y23978*
X269429Y23657*
X262624Y11872*
X260342*
X267718Y24645*
X267904Y24967*
X267582Y25152*
X244576Y38434*
X243587Y40146*
X245563*
X268569Y26863*
X268890Y26676*
X269076Y27000*
X276452Y39775*
X277594Y37798*
X270789Y26013*
X270603Y25691*
X270925Y25505*
X291575Y13583*
X292561Y11872*
X290586*
X294195Y67084D02*
Y17907D01*
X294890Y19109*
X308390Y42494*
X309532Y40518*
X293206Y12245*
X292219Y13954*
Y63132*
X291525Y61928*
X278024Y38544*
X276883Y40518*
X293206Y68794*
X294195Y67084*
D02*
D125*
X6877Y276719D02*
Y225719D01*
X17877*
Y276719*
X6877*
X12111Y293359D02*
X11798Y293046D01*
X11173Y292733*
X10236*
X9611Y293046*
X9298Y293359*
X8986Y293983*
Y295233*
X9298Y295859*
X9611Y296171*
X10236Y296483*
X11173*
X11798Y296171*
X12111Y295859*
X13986Y293983D02*
Y295233D01*
X14298Y295859*
X14611Y296171*
X15236Y296483*
X15861*
X16486Y296171*
X16798Y295859*
X17111Y295233*
Y293983*
X16798Y293359*
X16486Y293046*
X15861Y292733*
X15236*
X14611Y293046*
X14298Y293359*
X13986Y293983*
X18986Y292733D02*
Y296483D01*
X22111Y292733*
Y296483*
X24923Y292733D02*
X25548Y293046D01*
X26173Y293671*
X26486Y294609*
Y295546*
X26173Y296171*
X25548Y296483*
X24923*
X24298Y296171*
X23986Y295546*
X24298Y294921*
X24923Y294609*
X25548*
X26173Y294921*
X26486Y295546*
X12559Y66666D02*
X13809D01*
X14434Y66354*
X14746Y66041*
X15059Y65416*
Y64791*
X14746Y64166*
X14434Y63854*
X13809Y63541*
X12559*
X11934Y63854*
X11621Y64166*
X11309Y64791*
Y65416*
X11621Y66041*
X11934Y66354*
X12559Y66666*
X12246Y64479D02*
X11309Y63541D01*
Y61666D02*
X15059D01*
Y59479*
X14746Y58854*
X14121Y58541*
X13496Y58854*
X13184Y59479*
Y61666*
Y59479D02*
X11309Y58541D01*
Y56041D02*
Y54791D01*
Y55416D02*
X15059D01*
X14434Y56041*
X10966Y114750D02*
X16266D01*
Y102450*
X10966*
Y114750*
X14607Y147151D02*
Y164151D01*
X28357*
Y147151*
X14607*
X16550Y63920D02*
X20300D01*
Y62045*
X19988Y61420*
X19676Y61108*
X19050Y60795*
X17800*
X17176Y61108*
X16863Y61420*
X16550Y62045*
Y63920*
Y58920D02*
X20300D01*
Y56733*
X19988Y56108*
X19363Y55795*
X18738Y56108*
X18426Y56733*
Y58920*
Y56733D02*
X16550Y55795D01*
Y53920D02*
X20300Y51420D01*
Y53920*
X17923Y116213D02*
X21673D01*
Y114026*
X21361Y113400*
X20736Y113088*
X20111Y113400*
X19798Y114026*
Y116213*
Y114026D02*
X17923Y113088D01*
Y111213D02*
X21673D01*
Y109026*
X21361Y108400*
X20736Y108088*
X20111Y108400*
X19798Y109026*
Y111213*
Y109026D02*
X17923Y108088D01*
Y106213D02*
X21673Y103713D01*
Y106213*
X21400Y63491D02*
Y53617D01*
X26725*
Y62166*
X25400Y63491*
X21400*
X23440Y275093D02*
X23127Y275406D01*
X22815Y276031*
Y276969*
X23127Y277593*
X23440Y277906*
X24065Y278219*
X25315*
X25940Y277906*
X26252Y277593*
X26565Y276969*
Y276031*
X26252Y275406*
X25940Y275093*
X24065Y273219D02*
X25315D01*
X25940Y272906*
X26252Y272593*
X26565Y271969*
Y271343*
X26252Y270719*
X25940Y270406*
X25315Y270093*
X24065*
X23440Y270406*
X23127Y270719*
X22815Y271343*
Y271969*
X23127Y272593*
X23440Y272906*
X24065Y273219*
X22815Y268219D02*
X26565D01*
X22815Y265093*
X26565*
X24690Y262281D02*
Y261656D01*
X25002Y261031*
X25627Y260719*
X26252Y261031*
X26565Y261656*
Y262281*
X26252Y262906*
X25627Y263219*
X25002Y262906*
X24690Y262281*
X24377Y262906*
X23752Y263219*
X23127Y262906*
X22815Y262281*
Y261656*
X23127Y261031*
X23752Y260719*
X24377Y261031*
X24690Y261656*
X24469Y100106D02*
X14420D01*
Y93494*
X23469*
X24469Y94494*
Y100106*
X23420Y128698D02*
X23732Y128386D01*
X24045Y127761*
Y126823*
X23732Y126198*
X23420Y125886*
X22795Y125573*
X21545*
X20920Y125886*
X20607Y126198*
X20295Y126823*
Y127761*
X20607Y128386*
X20920Y128698*
X22795Y130573D02*
X21545D01*
X20920Y130886*
X20607Y131198*
X20295Y131823*
Y132448*
X20607Y133073*
X20920Y133386*
X21545Y133698*
X22795*
X23420Y133386*
X23732Y133073*
X24045Y132448*
Y131823*
X23732Y131198*
X23420Y130886*
X22795Y130573*
X24045Y135573D02*
X20295D01*
X24045Y138698*
X20295*
X24045Y143073D02*
Y140573D01*
X21857Y142761*
X21232Y143073*
X20607Y142761*
X20295Y142136*
Y141198*
X20607Y140573*
X25098Y92686D02*
Y88936D01*
X23223*
X22598Y89248*
X22285Y89561*
X21973Y90186*
Y91436*
X22285Y92061*
X22598Y92374*
X23223Y92686*
X25098*
X20098D02*
Y88936D01*
X17911*
X17285Y89248*
X16973Y89874*
X17285Y90498*
X17911Y90811*
X20098*
X17911D02*
X16973Y92686D01*
X15098Y91748D02*
X14785Y91124D01*
X14161Y90811*
X13535*
X12911Y91124*
X12598Y91748*
X12911Y92374*
X13535Y92686*
X14161*
X14785Y92374*
X15098Y91748*
Y90811*
X14785Y89874*
X14161Y89248*
X13535Y88936*
X26141Y81865D02*
Y67692D01*
X11574*
Y81865*
X26141*
X27486Y342414D02*
Y299414D01*
X7486*
Y342414*
X27486*
X27690Y63706D02*
X32990D01*
Y51406*
X27690*
Y63706*
X28477Y178237D02*
X28164Y178862D01*
X27539Y179175*
X26289*
X25664Y178862*
X25352Y178237*
X25664Y177612*
X26289Y177300*
X27539*
X28164Y176987*
X28477Y176362*
X28164Y175737*
X27539Y175425*
X26289*
X25664Y175737*
X25352Y176362*
X23477Y175425D02*
X23164Y179175D01*
X21914Y177300*
X20664Y179175*
X20352Y175425*
X18164Y178862D02*
X17539Y179175D01*
X16914*
X16289Y178862*
X15977Y178237*
X16289Y177612*
X16914Y177300*
X17539*
X16914D02*
X16289Y176987D01*
X15977Y176362*
X16289Y175737*
X16914Y175425*
X17539*
X18164Y175737*
X29876Y73432D02*
Y174220D01*
X130664*
Y81306*
X122790Y73432*
X29876*
X34896Y63920D02*
X38646D01*
Y61733*
X38334Y61108*
X37709Y60795*
X37084Y61108*
X36772Y61733*
Y63920*
Y61733D02*
X34896Y60795D01*
Y58920D02*
X38646D01*
Y56733*
X38334Y56108*
X37709Y55795*
X37084Y56108*
X36772Y56733*
Y58920*
Y56733D02*
X34896Y55795D01*
X35834Y53920D02*
X36459Y53608D01*
X36772Y52983*
Y52358*
X36459Y51733*
X35834Y51420*
X35209Y51733*
X34896Y52358*
Y52983*
X35209Y53608*
X35834Y53920*
X36772*
X37709Y53608*
X38334Y52983*
X38646Y52358*
X37837Y217176D02*
X37524Y217801D01*
X36900Y218113*
X35650*
X35024Y217801*
X34712Y217176*
X35024Y216551*
X35650Y216238*
X36900*
X37524Y215926*
X37837Y215301*
X37524Y214676*
X36900Y214363*
X35650*
X35024Y214676*
X34712Y215301*
X32837Y214363D02*
X32524Y218113D01*
X31274Y216238*
X30024Y218113*
X29712Y214363*
X25337Y218113D02*
X27837D01*
X25650Y215926*
X25337Y215301*
X25650Y214676*
X26274Y214363*
X27212*
X27837Y214676*
X53023Y9997D02*
X104023D01*
Y20997*
X53023*
Y9997*
X59242Y323885D02*
X62992D01*
Y321698*
X62680Y321073*
X62055Y320760*
X61430Y321073*
X61117Y321698*
Y323885*
Y321698D02*
X59242Y320760D01*
Y318885D02*
X62992D01*
Y316698*
X62680Y316073*
X62055Y315760*
X61430Y316073*
X61117Y316698*
Y318885*
X62992Y313885D02*
X59242Y313573D01*
X61117Y312323*
X59242Y311073*
X62992Y310760*
X59242Y308885D02*
X62992D01*
Y306698*
X62680Y306073*
X62055Y305760*
X61430Y306073*
X61117Y306698*
Y308885*
Y306698D02*
X59242Y305760D01*
X59555Y303573D02*
X59242Y302948D01*
Y302323*
X59555Y301698*
X60180Y301385*
X60805Y301698*
X61117Y302323*
Y302948*
Y302323D02*
X61430Y301698D01*
X62055Y301385*
X62680Y301698*
X62992Y302323*
Y302948*
X62680Y303573*
X58523Y10497D02*
Y7997D01*
X60636Y337314D02*
X65936D01*
Y325014*
X60636*
Y337314*
X61026Y58287D02*
X44026D01*
Y72037*
X61026*
Y58287*
X65261Y61864D02*
X64949Y61551D01*
X64324Y61239*
X63386*
X62761Y61551*
X62449Y61864*
X62136Y62489*
Y63739*
X62449Y64364*
X62761Y64676*
X63386Y64989*
X64324*
X64949Y64676*
X65261Y64364*
X67136Y62489D02*
Y63739D01*
X67449Y64364*
X67761Y64676*
X68386Y64989*
X69011*
X69636Y64676*
X69949Y64364*
X70261Y63739*
Y62489*
X69949Y61864*
X69636Y61551*
X69011Y61239*
X68386*
X67761Y61551*
X67449Y61864*
X67136Y62489*
X72136Y61239D02*
Y64989D01*
X75261Y61239*
Y64989*
X77449Y61551D02*
X78074Y61239D01*
X78699*
X79324Y61551*
X79636Y62176*
X79324Y62801*
X78699Y63114*
X78074*
X78699D02*
X79324Y63426D01*
X79636Y64051*
X79324Y64676*
X78699Y64989*
X78074*
X77449Y64676*
X63399Y36576D02*
X111149D01*
Y52076*
X63399*
Y36576*
X71165Y24797D02*
X70852Y24485D01*
X70227Y24172*
X69289*
X68665Y24485*
X68352Y24797*
X68039Y25422*
Y26672*
X68352Y27297*
X68665Y27610*
X69289Y27922*
X70227*
X70852Y27610*
X71165Y27297*
X73039Y25422D02*
Y26672D01*
X73352Y27297*
X73665Y27610*
X74289Y27922*
X74915*
X75539Y27610*
X75852Y27297*
X76165Y26672*
Y25422*
X75852Y24797*
X75539Y24485*
X74915Y24172*
X74289*
X73665Y24485*
X73352Y24797*
X73039Y25422*
X78039Y24172D02*
Y27922D01*
X81165Y24172*
Y27922*
X83039Y25110D02*
X83352Y25735D01*
X83977Y26047*
X84602*
X85227Y25735*
X85539Y25110*
X85227Y24485*
X84602Y24172*
X83977*
X83352Y24485*
X83039Y25110*
Y26047*
X83352Y26985*
X83977Y27610*
X84602Y27922*
X68414Y319082D02*
Y322832D01*
X70601*
X71226Y322520*
X71539Y321894*
X71226Y321270*
X70601Y320957*
X68414*
X70601D02*
X71539Y319082D01*
X73414D02*
Y322832D01*
X75601*
X76226Y322520*
X76539Y321894*
X76226Y321270*
X75601Y320957*
X73414*
X78414Y322832D02*
X78726Y319082D01*
X79976Y320957*
X81226Y319082*
X81539Y322832*
X83414Y319082D02*
Y322832D01*
X85601*
X86226Y322520*
X86539Y321894*
X86226Y321270*
X85601Y320957*
X83414*
X85601D02*
X86539Y319082D01*
X89976D02*
Y322832D01*
X88414Y320332*
X90914*
X68523Y10497D02*
Y7997D01*
X70904Y341446D02*
Y347383D01*
X58668*
Y343164*
X60387Y341446*
X70904*
X71136Y324764D02*
Y330064D01*
X83436*
Y324764*
X71136*
X72804Y195725D02*
X25054D01*
Y180225*
X72804*
Y195725*
Y211824D02*
X25054D01*
Y196324*
X72804*
Y211824*
X77150Y32099D02*
X77463Y31474D01*
X78087Y31161*
X79337*
X79963Y31474*
X80275Y32099*
X79963Y32724*
X79337Y33036*
X78087*
X77463Y33349*
X77150Y33974*
X77463Y34599*
X78087Y34911*
X79337*
X79963Y34599*
X80275Y33974*
X82150Y34911D02*
X82463Y31161D01*
X83713Y33036*
X84963Y31161*
X85275Y34911*
X89337Y33036D02*
X89963Y32724D01*
X90275Y32099*
X89963Y31474*
X89337Y31161*
X87150*
Y34911*
X89337*
X89963Y34599*
X90275Y33974*
X89963Y33349*
X89337Y33036*
X87150*
X92775Y31161D02*
X94025D01*
X93400D02*
Y34911D01*
X92775Y34286*
X78523Y10497D02*
Y7997D01*
X82436Y337564D02*
Y332264D01*
X70136*
Y337564*
X82436*
X80265Y181295D02*
X80578Y181608D01*
X81203Y181920*
X82140*
X82765Y181608*
X83078Y181295*
X83390Y180670*
Y179420*
X83078Y178795*
X82765Y178483*
X82140Y178170*
X81203*
X80578Y178483*
X80265Y178795*
X78390Y181920D02*
Y178170D01*
X76203*
X75578Y178483*
X75265Y179108*
X75578Y179733*
X76203Y180045*
X78390*
X76203D02*
X75265Y181920D01*
X72765D02*
X71515D01*
X72140D02*
Y178170D01*
X72765Y178795*
X83623Y298667D02*
X104623D01*
Y309667*
X83623*
Y298667*
X85818Y325546D02*
X91755D01*
Y337782*
X87536*
X85818Y336064*
Y325546*
X83759Y194025D02*
X84072Y194338D01*
X84697Y194650*
X85635*
X86259Y194338*
X86572Y194025*
X86885Y193400*
Y192150*
X86572Y191525*
X86259Y191213*
X85635Y190900*
X84697*
X84072Y191213*
X83759Y191525*
X81885Y194650D02*
Y190900D01*
X79697*
X79072Y191213*
X78759Y191838*
X79072Y192463*
X79697Y192775*
X81885*
X79697D02*
X78759Y194650D01*
X74385D02*
X76885D01*
X74697Y192463*
X74385Y191838*
X74697Y191213*
X75322Y190900*
X76259*
X76885Y191213*
X84009Y203011D02*
X84322Y203324D01*
X84947Y203636*
X85884*
X86509Y203324*
X86822Y203011*
X87134Y202386*
Y201136*
X86822Y200511*
X86509Y200198*
X85884Y199886*
X84947*
X84322Y200198*
X84009Y200511*
X82134Y203636D02*
Y199886D01*
X79947*
X79322Y200198*
X79009Y200824*
X79322Y201448*
X79947Y201761*
X82134*
X79947D02*
X79009Y203636D01*
X76822Y203324D02*
X76197Y203636D01*
X75572*
X74947Y203324*
X74634Y202698*
X74947Y202074*
X75572Y201761*
X76197*
X75572D02*
X74947Y201448D01*
X74634Y200824*
X74947Y200198*
X75572Y199886*
X76197*
X76822Y200198*
X82599Y355914D02*
X85411D01*
X86036Y356227*
X86349Y356852*
Y358102*
X86036Y358727*
X85411Y359039*
X82599*
X86349Y360914D02*
X82599Y363414D01*
Y360914*
X88523Y10497D02*
Y7997D01*
X88657Y189724D02*
Y195024D01*
X100957*
Y189724*
X88657*
Y198460D02*
Y203760D01*
X100957*
Y198460*
X88657*
X88665Y355239D02*
X94090D01*
Y359089*
X88665*
Y355239*
X89789Y355528D02*
X89803Y355439D01*
X89844Y355358*
X89908Y355294*
X89989Y355253*
X90078Y355239*
X90168Y355253*
X90248Y355294*
X90313Y355358*
X90354Y355439*
X90368Y355528*
X90354Y355618*
X90313Y355698*
X90248Y355763*
X90168Y355804*
X90078Y355818*
X89989Y355804*
X89908Y355763*
X89844Y355698*
X89803Y355618*
X89789Y355528*
G36*
X89803Y355439*
X89844Y355358*
X89908Y355294*
X89989Y355253*
X90078Y355239*
X90168Y355253*
X90248Y355294*
X90313Y355358*
X90354Y355439*
X90368Y355528*
X90354Y355618*
X90313Y355698*
X90248Y355763*
X90168Y355804*
X90078Y355818*
X89989Y355804*
X89908Y355763*
X89844Y355698*
X89803Y355618*
X89789Y355528*
G37*
X90254Y294122D02*
X90567Y293810D01*
X91192Y293497*
X91817Y293810*
X92130Y294122*
Y297247*
X92754*
X92130D02*
X90880D01*
X95254Y293497D02*
Y297247D01*
X97130*
X97754Y296935*
X98067Y296622*
X98380Y295997*
Y294747*
X98067Y294122*
X97754Y293810*
X97130Y293497*
X95254*
X100880D02*
X102130D01*
X101504D02*
Y297247D01*
X100880Y296622*
X92939Y344228D02*
X96689D01*
Y342353*
X96377Y341728*
X96064Y341416*
X95439Y341103*
X94189*
X93564Y341416*
X93252Y341728*
X92939Y342353*
Y344228*
Y339228D02*
X96689D01*
Y337041*
X96377Y336416*
X95752Y336103*
X95127Y336416*
X94814Y337041*
Y339228*
X96689Y334228D02*
X92939Y333916D01*
X94814Y332666*
X92939Y331416*
X96689Y331103*
X92939Y329228D02*
X96689D01*
Y327041*
X96377Y326416*
X95752Y326103*
X95127Y326416*
X94814Y327041*
Y329228*
Y327041D02*
X92939Y326103D01*
X93252Y323916D02*
X92939Y323291D01*
Y322666*
X93252Y322041*
X93877Y321728*
X94502Y322041*
X94814Y322666*
Y323291*
Y322666D02*
X95127Y322041D01*
X95752Y321728*
X96377Y322041*
X96689Y322666*
Y323291*
X96377Y323916*
X90836Y70220D02*
X91148Y70533D01*
X91774Y70846*
X92711*
X93336Y70533*
X93648Y70220*
X93961Y69596*
Y68346*
X93648Y67720*
X93336Y67408*
X92711Y67096*
X91774*
X91148Y67408*
X90836Y67720*
X88961Y69596D02*
Y68346D01*
X88648Y67720*
X88336Y67408*
X87711Y67096*
X87086*
X86461Y67408*
X86148Y67720*
X85836Y68346*
Y69596*
X86148Y70220*
X86461Y70533*
X87086Y70846*
X87711*
X88336Y70533*
X88648Y70220*
X88961Y69596*
X83961Y70846D02*
Y67096D01*
X80836Y70846*
Y67096*
X78336Y70846D02*
X77086D01*
X77711D02*
Y67096D01*
X78336Y67720*
X96433Y364821D02*
X100183D01*
Y362946*
X99871Y362321*
X99559Y362008*
X98933Y361696*
X97683*
X97059Y362008*
X96746Y362321*
X96433Y362946*
Y364821*
Y359821D02*
X100183D01*
Y357633*
X99871Y357008*
X99246Y356696*
X98621Y357008*
X98309Y357633*
Y359821*
X100183Y354821D02*
X96433Y354508D01*
X98309Y353258*
X96433Y352008*
X100183Y351696*
X96433Y349821D02*
X100183D01*
Y347633*
X99871Y347008*
X99246Y346696*
X98621Y347008*
X98309Y347633*
Y349821*
Y347633D02*
X96433Y346696D01*
Y343258D02*
X100183D01*
X97683Y344821*
Y342321*
X98523Y10497D02*
Y7997D01*
X97679Y212811D02*
X93929D01*
Y214686*
X94241Y215311*
X94554Y215623*
X95179Y215936*
X96429*
X97054Y215623*
X97366Y215311*
X97679Y214686*
Y212811*
X93929Y217811D02*
Y220936D01*
X97679Y217811*
Y220936*
Y222811D02*
X93929D01*
Y224998*
X94241Y225623*
X94866Y225936*
X95491Y225623*
X95804Y224998*
Y222811*
Y224998D02*
X97679Y225936D01*
Y228436D02*
Y229686D01*
Y229061D02*
X93929D01*
X94554Y228436*
X100957Y211217D02*
Y205917D01*
X88657*
Y211217*
X100957*
X101099Y364914D02*
X124599D01*
Y334414*
X103599*
X101099Y336914*
Y364914*
X103139Y186282D02*
X84359D01*
Y177187*
X103139*
Y186282*
X107724Y317280D02*
X111474D01*
Y315404*
X111161Y314780*
X110849Y314467*
X110224Y314154*
X108974*
X108349Y314467*
X108036Y314780*
X107724Y315404*
Y317280*
X108349Y309154D02*
X108036Y309467D01*
X107724Y310092*
Y311030*
X108036Y311654*
X108349Y311967*
X108974Y312280*
X110224*
X110849Y311967*
X111161Y311654*
X111474Y311030*
Y310092*
X111161Y309467*
X110849Y309154*
X107724Y306654D02*
Y305404D01*
Y306030D02*
X111474D01*
X110849Y306654*
X112190Y244839D02*
X111878Y244526D01*
X111252Y244213*
X110315*
X109690Y244526*
X109378Y244839*
X109065Y245463*
Y246713*
X109378Y247339*
X109690Y247651*
X110315Y247963*
X111252*
X111878Y247651*
X112190Y247339*
X117190Y244839D02*
X116878Y244526D01*
X116252Y244213*
X115315*
X114690Y244526*
X114378Y244839*
X114065Y245463*
Y246713*
X114378Y247339*
X114690Y247651*
X115315Y247963*
X116252*
X116878Y247651*
X117190Y247339*
X120002Y246089D02*
X120628D01*
X121252Y246401*
X121565Y247026*
X121252Y247651*
X120628Y247963*
X120002*
X119378Y247651*
X119065Y247026*
X119378Y246401*
X120002Y246089*
X119378Y245776*
X119065Y245151*
X119378Y244526*
X120002Y244213*
X120628*
X121252Y244526*
X121565Y245151*
X121252Y245776*
X120628Y246089*
X107695Y227917D02*
X108007Y227604D01*
X108320Y226979*
Y226042*
X108007Y225417*
X107695Y225104*
X107070Y224792*
X105820*
X105195Y225104*
X104882Y225417*
X104570Y226042*
Y226979*
X104882Y227604*
X105195Y227917*
X107695Y232917D02*
X108007Y232604D01*
X108320Y231979*
Y231042*
X108007Y230417*
X107695Y230104*
X107070Y229792*
X105820*
X105195Y230104*
X104882Y230417*
X104570Y231042*
Y231979*
X104882Y232604*
X105195Y232917*
X108320Y234792D02*
X104570Y237292D01*
Y234792*
X110415Y226976D02*
Y232276D01*
X122715*
Y226976*
X110415*
Y237126D02*
Y242426D01*
X122715*
Y237126*
X110415*
X109659Y203830D02*
X109971Y203517D01*
X110284Y202892*
Y201955*
X109971Y201330*
X109659Y201017*
X109034Y200705*
X107784*
X107159Y201017*
X106846Y201330*
X106534Y201955*
Y202892*
X106846Y203517*
X107159Y203830*
X109659Y208830D02*
X109971Y208517D01*
X110284Y207892*
Y206955*
X109971Y206330*
X109659Y206017*
X109034Y205705*
X107784*
X107159Y206017*
X106846Y206330*
X106534Y206955*
Y207892*
X106846Y208517*
X107159Y208830*
X110284Y211330D02*
Y212580D01*
Y211955D02*
X106534D01*
X107159Y211330*
X110158Y11254D02*
X110470Y11566D01*
X110783Y12191*
X110470Y12816*
X110158Y13129*
X107033*
Y13754*
Y13129D02*
Y11879D01*
X108908Y18441D02*
X109220Y19066D01*
X109845Y19379*
X110470Y19066*
X110783Y18441*
Y16254*
X107033*
Y18441*
X107345Y19066*
X107970Y19379*
X108595Y19066*
X108908Y18441*
Y16254*
X110783Y22816D02*
X107033D01*
Y21254D02*
Y24379D01*
X110783Y26254D02*
X107033Y29379D01*
Y26254D02*
X110783Y29379D01*
X111802Y193437D02*
Y198737D01*
X124102*
Y193437*
X111802*
Y202264D02*
Y207564D01*
X124102*
Y202264*
X111802*
Y209764D02*
Y215064D01*
X124102*
Y209764*
X111802*
X112445Y58662D02*
X95445D01*
Y72412*
X112445*
Y58662*
X113593Y317504D02*
X129847D01*
Y307780*
X129861*
X127611Y305530*
X113593*
Y317504*
X117724Y291946D02*
X121474D01*
Y289759*
X121161Y289133*
X120536Y288821*
X119911Y289133*
X119599Y289759*
Y291946*
Y289759D02*
X117724Y288821D01*
X118349Y283821D02*
X118036Y284133D01*
X117724Y284759*
Y285696*
X118036Y286321*
X118349Y286633*
X118974Y286946*
X120224*
X120849Y286633*
X121161Y286321*
X121474Y285696*
Y284759*
X121161Y284133*
X120849Y283821*
X117724Y279446D02*
Y281946D01*
X119911Y279759*
X120536Y279446*
X121161Y279759*
X121474Y280383*
Y281321*
X121161Y281946*
X116855Y63956D02*
X119667D01*
X120293Y64269*
X120605Y64894*
Y66144*
X120293Y66769*
X119667Y67081*
X116855*
X120605Y71456D02*
Y68956D01*
X118417Y71144*
X117793Y71456*
X117167Y71144*
X116855Y70519*
Y69581*
X117167Y68956*
X123211Y10114D02*
Y31114D01*
X112211*
Y10114*
X123211*
X123861Y224064D02*
Y218764D01*
X111561*
Y224064*
X123861*
X125286Y361477D02*
X125599Y361164D01*
X126224Y360852*
X126849Y361164*
X127161Y361477*
Y364602*
X127786*
X127161D02*
X125911D01*
X130286Y361789D02*
X130599Y361164D01*
X131224Y360852*
X132474*
X133099Y361164*
X133411Y361789*
X133099Y362414*
X132474Y362727*
X131224*
X130599Y363039*
X130286Y363664*
X130599Y364289*
X131224Y364602*
X132474*
X133099Y364289*
X133411Y363664*
X136849Y360852D02*
Y364602D01*
X135286D02*
X138411D01*
X140911Y360852D02*
X142161D01*
X141536D02*
Y364602D01*
X140911Y363977*
X125449Y198075D02*
Y194325D01*
X128574*
X133574Y194950D02*
X133261Y194638D01*
X132636Y194325*
X131699*
X131074Y194638*
X130761Y194950*
X130449Y195575*
Y196825*
X130761Y197450*
X131074Y197763*
X131699Y198075*
X132636*
X133261Y197763*
X133574Y197450*
X136074Y194325D02*
X137324D01*
X136699D02*
Y198075D01*
X136074Y197450*
X129448Y220613D02*
X129135Y220301D01*
X128510Y219988*
X127572*
X126948Y220301*
X126635Y220613*
X126322Y221238*
Y222488*
X126635Y223113*
X126948Y223426*
X127572Y223738*
X128510*
X129135Y223426*
X129448Y223113*
X134448Y220613D02*
X134135Y220301D01*
X133510Y219988*
X132572*
X131948Y220301*
X131635Y220613*
X131322Y221238*
Y222488*
X131635Y223113*
X131948Y223426*
X132572Y223738*
X133510*
X134135Y223426*
X134448Y223113*
X137260Y219988D02*
X137885Y220301D01*
X138510Y220926*
X138822Y221863*
Y222801*
X138510Y223426*
X137885Y223738*
X137260*
X136635Y223426*
X136322Y222801*
X136635Y222176*
X137260Y221863*
X137885*
X138510Y222176*
X138822Y222801*
X126620Y243453D02*
Y226099D01*
X135510*
Y243453*
X126620*
X127786Y340914D02*
X148786D01*
Y351914*
X127786*
Y340914*
X128286Y354477D02*
X128599Y354164D01*
X129224Y353852*
X129849Y354164*
X130161Y354477*
Y357602*
X130786*
X130161D02*
X128911D01*
X133286Y353852D02*
Y357602D01*
X135474*
X136099Y357289*
X136411Y356664*
X136099Y356039*
X135474Y355727*
X133286*
X138286Y357602D02*
X138599Y353852D01*
X139849Y355727*
X141099Y353852*
X141411Y357602*
X143286Y353852D02*
Y357602D01*
X145474*
X146099Y357289*
X146411Y356664*
X146099Y356039*
X145474Y355727*
X143286*
X145474D02*
X146411Y353852D01*
X150786D02*
X148286D01*
X150474Y356039*
X150786Y356664*
X150474Y357289*
X149849Y357602*
X148911*
X148286Y357289*
X128436Y279296D02*
X123136D01*
Y291596*
X128436*
Y279296*
X128694Y299987D02*
Y303737D01*
X130881*
X131506Y303425*
X131819Y302800*
X131506Y302175*
X130881Y301862*
X128694*
X130881D02*
X131819Y299987D01*
X136819Y300612D02*
X136506Y300300D01*
X135881Y299987*
X134944*
X134319Y300300*
X134006Y300612*
X133694Y301237*
Y302487*
X134006Y303112*
X134319Y303425*
X134944Y303737*
X135881*
X136506Y303425*
X136819Y303112*
X139006Y300300D02*
X139631Y299987D01*
X140256*
X140881Y300300*
X141194Y300925*
X140881Y301550*
X140256Y301862*
X139631*
X140256D02*
X140881Y302175D01*
X141194Y302800*
X140881Y303425*
X140256Y303737*
X139631*
X139006Y303425*
X132411Y170235D02*
X132098Y169922D01*
X131473Y169609*
X130535*
X129911Y169922*
X129598Y170235*
X129285Y170859*
Y172109*
X129598Y172735*
X129911Y173047*
X130535Y173359*
X131473*
X132098Y173047*
X132411Y172735*
X134285Y169609D02*
Y173359D01*
X136473*
X137098Y173047*
X137411Y172422*
X137098Y171797*
X136473Y171485*
X134285*
X136473D02*
X137411Y169609D01*
X139285Y169922D02*
X139911Y169609D01*
X140848*
X141473Y169922*
X141785Y170547*
Y170859*
X141473Y171485*
X140848Y171797*
X139285*
Y173359*
X141785*
X129253Y209696D02*
X129565Y209383D01*
X129878Y208758*
Y207820*
X129565Y207196*
X129253Y206883*
X128628Y206570*
X127378*
X126753Y206883*
X126440Y207196*
X126128Y207820*
Y208758*
X126440Y209383*
X126753Y209696*
X129253Y214696D02*
X129565Y214383D01*
X129878Y213758*
Y212820*
X129565Y212196*
X129253Y211883*
X128628Y211570*
X127378*
X126753Y211883*
X126440Y212196*
X126128Y212820*
Y213758*
X126440Y214383*
X126753Y214696*
X129878Y219070D02*
Y216570D01*
X127690Y218758*
X127065Y219070*
X126440Y218758*
X126128Y218133*
Y217196*
X126440Y216570*
X131285Y164172D02*
X136585D01*
Y151872*
X131285*
Y164172*
X131636Y331764D02*
Y337064D01*
X143936*
Y331764*
X131636*
X132770Y92330D02*
X132786Y92050D01*
X132833Y91774*
X132910Y91504*
X133017Y91245*
X133153Y91000*
X133315Y90771*
X133502Y90562*
X133711Y90375*
X133939Y90213*
X134185Y90077*
X134444Y89970*
X134713Y89892*
X134989Y89845*
X135269Y89830*
X135549Y89845*
X135826Y89892*
X136095Y89970*
X136354Y90077*
X136599Y90212*
X136828Y90374*
X137037Y90561*
X137224Y90770*
X137386Y90999*
X137522Y91244*
X137630Y91503*
X137707Y91772*
X137754Y92049*
X137770Y92330*
X137754Y92610*
X137707Y92886*
X137630Y93156*
X137523Y93415*
X137387Y93660*
X137225Y93889*
X137039Y94098*
X136830Y94285*
X136601Y94447*
X136356Y94583*
X136096Y94690*
X135827Y94768*
X135551Y94815*
X135271Y94830*
X134991Y94815*
X134715Y94768*
X134445Y94690*
X134186Y94583*
X133941Y94448*
X133712Y94285*
X133503Y94099*
X133316Y93890*
X133154Y93661*
X133018Y93416*
X132911Y93157*
X132833Y92887*
X132786Y92611*
X132770Y92330*
G36*
X132786Y92050*
X132833Y91774*
X132910Y91504*
X133017Y91245*
X133153Y91000*
X133315Y90771*
X133502Y90562*
X133711Y90375*
X133939Y90213*
X134185Y90077*
X134444Y89970*
X134713Y89892*
X134989Y89845*
X135269Y89830*
X135549Y89845*
X135826Y89892*
X136095Y89970*
X136354Y90077*
X136599Y90212*
X136828Y90374*
X137037Y90561*
X137224Y90770*
X137386Y90999*
X137522Y91244*
X137630Y91503*
X137707Y91772*
X137754Y92049*
X137770Y92330*
X137754Y92610*
X137707Y92886*
X137630Y93156*
X137523Y93415*
X137387Y93660*
X137225Y93889*
X137039Y94098*
X136830Y94285*
X136601Y94447*
X136356Y94583*
X136096Y94690*
X135827Y94768*
X135551Y94815*
X135271Y94830*
X134991Y94815*
X134715Y94768*
X134445Y94690*
X134186Y94583*
X133941Y94448*
X133712Y94285*
X133503Y94099*
X133316Y93890*
X133154Y93661*
X133018Y93416*
X132911Y93157*
X132833Y92887*
X132786Y92611*
X132770Y92330*
G37*
X132944Y125818D02*
Y115769D01*
X139557*
Y124818*
X138557Y125818*
X132944*
X135247Y86260D02*
X138997D01*
Y84073*
X138685Y83448*
X138060Y83135*
X137435Y83448*
X137122Y84073*
Y86260*
Y84073D02*
X135247Y83135D01*
Y81260D02*
X138997D01*
Y79073*
X138685Y78448*
X138060Y78135*
X137435Y78448*
X137122Y79073*
Y81260*
Y79073D02*
X135247Y78135D01*
Y74698D02*
X138997D01*
X136497Y76260*
Y73760*
X133009Y277414D02*
X133635Y277727D01*
X133947Y278352*
Y279602*
X133635Y280227*
X133009Y280539*
X132385Y280227*
X132072Y279602*
Y278352*
X131759Y277727*
X131135Y277414*
X130509Y277727*
X130197Y278352*
Y279602*
X130509Y280227*
X131135Y280539*
X130197Y282414D02*
X133947Y282727D01*
X132072Y283977*
X133947Y285227*
X130197Y285539*
X133322Y290539D02*
X133635Y290227D01*
X133947Y289602*
Y288664*
X133635Y288039*
X133322Y287727*
X132697Y287414*
X131447*
X130822Y287727*
X130509Y288039*
X130197Y288664*
Y289602*
X130509Y290227*
X130822Y290539*
X133947Y293039D02*
Y294289D01*
Y293664D02*
X130197D01*
X130822Y293039*
X135676Y277164D02*
X183426D01*
Y292664*
X135676*
Y277164*
X135816Y10114D02*
Y31114D01*
X124816*
Y10114*
X135816*
X135936Y305006D02*
X130636D01*
Y317306*
X135936*
Y305006*
X135244Y126696D02*
X131494D01*
Y128572*
X131807Y129196*
X132119Y129509*
X132744Y129822*
X133994*
X134619Y129509*
X134932Y129196*
X135244Y128572*
Y126696*
Y131696D02*
X131494D01*
Y133884*
X131807Y134509*
X132432Y134822*
X133057Y134509*
X133369Y133884*
Y131696*
Y133884D02*
X135244Y134822D01*
X134932Y136696D02*
X135244Y137322D01*
Y138259*
X134932Y138884*
X134307Y139196*
X133994*
X133369Y138884*
X133057Y138259*
Y136696*
X131494*
Y139196*
X136935Y145924D02*
X146985D01*
Y152536*
X137935*
X136935Y151536*
Y145924*
X138002Y244453D02*
X141752Y241328D01*
Y244453D02*
X138002Y241328D01*
Y237891D02*
X141752D01*
Y239453D02*
Y236328D01*
X138628Y231328D02*
X138315Y231641D01*
X138002Y232266*
Y233203*
X138315Y233828*
X138628Y234141*
X139252Y234453*
X140502*
X141128Y234141*
X141440Y233828*
X141752Y233203*
Y232266*
X141440Y231641*
X141128Y231328*
X138002Y228828D02*
Y227578D01*
Y228203D02*
X141752D01*
X141128Y228828*
X138993Y327250D02*
X138680Y327563D01*
X138367Y328188*
Y329125*
X138680Y329750*
X138993Y330063*
X139617Y330375*
X140867*
X141493Y330063*
X141805Y329750*
X142117Y329125*
Y328188*
X141805Y327563*
X141493Y327250*
X138367Y325375D02*
X142117D01*
Y323188*
X141805Y322563*
X141180Y322250*
X140555Y322563*
X140243Y323188*
Y325375*
X142117Y320375D02*
X138367Y320063D01*
X140243Y318813*
X138367Y317563*
X142117Y317250*
X138367Y315375D02*
X142117D01*
Y313188*
X141805Y312563*
X141180Y312250*
X140555Y312563*
X140243Y313188*
Y315375*
Y313188D02*
X138367Y312250D01*
Y309750D02*
Y308500D01*
Y309125D02*
X142117D01*
X141493Y309750*
X138678Y153718D02*
Y157468D01*
X140553*
X141178Y157156*
X141491Y156843*
X141803Y156218*
Y154968*
X141491Y154343*
X141178Y154030*
X140553Y153718*
X138678*
X143678D02*
Y157468D01*
X145865*
X146491Y157156*
X146803Y156530*
X146491Y155906*
X145865Y155593*
X143678*
X145865D02*
X146803Y153718D01*
X148991Y154030D02*
X149615Y153718D01*
X150241*
X150865Y154030*
X151178Y154656*
X150865Y155280*
X150241Y155593*
X149615*
X150241D02*
X150865Y155906D01*
X151178Y156530*
X150865Y157156*
X150241Y157468*
X149615*
X148991Y157156*
X141238Y106478D02*
X144988D01*
Y104291*
X144676Y103666*
X144050Y103353*
X143426Y103666*
X143113Y104291*
Y106478*
Y104291D02*
X141238Y103353D01*
Y101478D02*
X144988D01*
Y99291*
X144676Y98666*
X144050Y98353*
X143426Y98666*
X143113Y99291*
Y101478*
Y99291D02*
X141238Y98353D01*
X141550Y96166D02*
X141238Y95541D01*
Y94916*
X141550Y94291*
X142176Y93978*
X142800Y94291*
X143113Y94916*
Y95541*
Y94916D02*
X143426Y94291D01*
X144050Y93978*
X144676Y94291*
X144988Y94916*
Y95541*
X144676Y96166*
X140579Y99455D02*
X135279D01*
Y111755*
X140579*
Y99455*
X141020Y144328D02*
X146320D01*
Y132028*
X141020*
Y144328*
X141038Y252189D02*
X141351Y251876D01*
X141976Y251563*
X142601Y251876*
X142913Y252189*
Y255313*
X143538*
X142913D02*
X141663D01*
X149163Y252189D02*
X148851Y251876D01*
X148226Y251563*
X147288*
X146663Y251876*
X146351Y252189*
X146038Y252813*
Y254063*
X146351Y254689*
X146663Y255001*
X147288Y255313*
X148226*
X148851Y255001*
X149163Y254689*
X151351Y251876D02*
X151976Y251563D01*
X152601*
X153226Y251876*
X153538Y252501*
X153226Y253126*
X152601Y253439*
X151976*
X152601D02*
X153226Y253751D01*
X153538Y254376*
X153226Y255001*
X152601Y255313*
X151976*
X151351Y255001*
X140237Y129692D02*
X136487D01*
Y131879*
X136799Y132504*
X137424Y132817*
X138049Y132504*
X138361Y131879*
Y129692*
Y131879D02*
X140237Y132817D01*
Y134692D02*
X136487D01*
Y136879*
X136799Y137504*
X137424Y137817*
X138049Y137504*
X138361Y136879*
Y134692*
Y136879D02*
X140237Y137817D01*
Y140317D02*
Y141567D01*
Y140942D02*
X136487D01*
X137111Y140317*
X139861Y11378D02*
X140174Y11691D01*
X140486Y12316*
X140174Y12941*
X139861Y13254*
X136736*
Y13878*
Y13254D02*
Y12004D01*
X138611Y18566D02*
X138924Y19191D01*
X139548Y19504*
X140174Y19191*
X140486Y18566*
Y16378*
X136736*
Y18566*
X137048Y19191*
X137674Y19504*
X138298Y19191*
X138611Y18566*
Y16378*
X140486Y21378D02*
X136736D01*
Y23566*
X137048Y24191*
X137674Y24504*
X138298Y24191*
X138611Y23566*
Y21378*
Y23566D02*
X140486Y24504D01*
Y26378D02*
X136736Y29504D01*
Y26378D02*
X140486Y29504D01*
X142538Y257357D02*
X153288D01*
Y268357*
X142538*
Y257357*
X142898Y22735D02*
X185378D01*
Y10255*
X145398*
X142898Y12755*
Y22735*
X145652Y233741D02*
X145538Y233726D01*
X145432Y233682*
X145341Y233612*
X145270Y233520*
X145226Y233414*
X145211Y233300*
X145226Y233186*
X145270Y233080*
X145341Y232988*
X145432Y232918*
X145538Y232874*
X145652Y232859*
X145767Y232874*
X145873Y232918*
X145964Y232988*
X146034Y233080*
X146078Y233186*
X146093Y233300*
X146078Y233414*
X146034Y233520*
X145964Y233612*
X145873Y233682*
X145767Y233726*
X145652Y233741*
G36*
X145538Y233726*
X145432Y233682*
X145341Y233612*
X145270Y233520*
X145226Y233414*
X145211Y233300*
X145226Y233186*
X145270Y233080*
X145341Y232988*
X145432Y232918*
X145538Y232874*
X145652Y232859*
X145767Y232874*
X145873Y232918*
X145964Y232988*
X146034Y233080*
X146078Y233186*
X146093Y233300*
X146078Y233414*
X146034Y233520*
X145964Y233612*
X145873Y233682*
X145767Y233726*
X145652Y233741*
G37*
X147104Y90004D02*
X150854D01*
Y88129*
X150541Y87504*
X150229Y87192*
X149604Y86879*
X148354*
X147729Y87192*
X147416Y87504*
X147104Y88129*
Y90004*
Y85004D02*
X150854D01*
Y82817*
X150541Y82192*
X149916Y81879*
X149291Y82192*
X148979Y82817*
Y85004*
Y82817D02*
X147104Y81879D01*
Y78442D02*
X150854D01*
X148354Y80004*
Y77504*
X147759Y139087D02*
X153059D01*
Y126787*
X147759*
Y139087*
X147818Y108191D02*
X142518D01*
Y120491*
X147818*
Y108191*
X152399Y91382D02*
Y101431D01*
X145787*
Y92382*
X146787Y91382*
X152399*
X154286Y308227D02*
Y311039D01*
X153974Y311664*
X153349Y311977*
X152099*
X151474Y311664*
X151161Y311039*
Y308227*
X148349Y310102D02*
X147724D01*
X147099Y309789*
X146786Y309164*
X147099Y308539*
X147724Y308227*
X148349*
X148974Y308539*
X149286Y309164*
X148974Y309789*
X148349Y310102*
X148974Y310414*
X149286Y311039*
X148974Y311664*
X148349Y311977*
X147724*
X147099Y311664*
X146786Y311039*
X147099Y310414*
X147724Y310102*
X155966Y103358D02*
X155653Y103046D01*
X155341Y102421*
X155653Y101796*
X155966Y101483*
X159091*
Y100858*
Y101483D02*
Y102733D01*
X155341Y98358D02*
X159091D01*
Y96171*
X158778Y95546*
X158153Y95233*
X157528Y95546*
X157216Y96171*
Y98358*
Y96171D02*
X155341Y95233D01*
Y90858D02*
Y93358D01*
X157528Y91171*
X158153Y90858*
X158778Y91171*
X159091Y91796*
Y92733*
X158778Y93358*
X154653Y128383D02*
Y132133D01*
X156840*
X157465Y131820*
X157778Y131195*
X157465Y130570*
X156840Y130258*
X154653*
X156840D02*
X157778Y128383D01*
X159653D02*
Y132133D01*
X161840*
X162465Y131820*
X162778Y131195*
X162465Y130570*
X161840Y130258*
X159653*
X161840D02*
X162778Y128383D01*
X167153D02*
X164653D01*
X166840Y130570*
X167153Y131195*
X166840Y131820*
X166215Y132133*
X165278*
X164653Y131820*
X155286Y340914D02*
X176286D01*
Y351914*
X155286*
Y340914*
X155786Y336477D02*
X156099Y336164D01*
X156724Y335852*
X157349Y336164*
X157661Y336477*
Y339602*
X158286*
X157661D02*
X156411D01*
X160786Y335852D02*
Y339602D01*
X162974*
X163599Y339289*
X163911Y338664*
X163599Y338039*
X162974Y337727*
X160786*
X165786Y339602D02*
X166099Y335852D01*
X167349Y337727*
X168599Y335852*
X168911Y339602*
X170786Y335852D02*
Y339602D01*
X172974*
X173599Y339289*
X173911Y338664*
X173599Y338039*
X172974Y337727*
X170786*
X172974D02*
X173911Y335852D01*
X176411D02*
X177661D01*
X177036D02*
Y339602D01*
X176411Y338977*
X160293Y104340D02*
Y125340D01*
X149293*
Y104340*
X160293*
X160636Y264139D02*
X165936D01*
Y251839*
X160636*
Y264139*
X161936Y178580D02*
X156636D01*
Y190880*
X161936*
Y178580*
X159661Y176167D02*
X159974Y176480D01*
X160599Y176793*
X161536*
X162161Y176480*
X162474Y176167*
X162786Y175543*
Y174293*
X162474Y173667*
X162161Y173355*
X161536Y173043*
X160599*
X159974Y173355*
X159661Y173667*
X154661Y176167D02*
X154974Y176480D01*
X155599Y176793*
X156536*
X157161Y176480*
X157474Y176167*
X157786Y175543*
Y174293*
X157474Y173667*
X157161Y173355*
X156536Y173043*
X155599*
X154974Y173355*
X154661Y173667*
X152786Y175855D02*
X152474Y175230D01*
X151849Y174917*
X151224*
X150599Y175230*
X150286Y175855*
X150599Y176480*
X151224Y176793*
X151849*
X152474Y176480*
X152786Y175855*
Y174917*
X152474Y173980*
X151849Y173355*
X151224Y173043*
X165326Y103608D02*
X165013Y103295D01*
X164701Y102670*
X165013Y102045*
X165326Y101733*
X168451*
Y101108*
Y101733D02*
Y102983D01*
X164701Y98608D02*
X168451D01*
Y96420*
X168139Y95795*
X167513Y95483*
X166889Y95795*
X166576Y96420*
Y98608*
Y96420D02*
X164701Y95483D01*
Y92983D02*
Y91733D01*
Y92358D02*
X168451D01*
X167826Y92983*
X167136Y264139D02*
X172436D01*
Y251839*
X167136*
Y264139*
X171899Y104340D02*
Y125340D01*
X160899*
Y104340*
X171899*
X174885Y233013D02*
Y207816D01*
X149688*
Y228288*
X154412Y233013*
X174885*
X175636Y264139D02*
X180936D01*
Y251839*
X175636*
Y264139*
X176286Y237602D02*
Y234789D01*
X176599Y234164*
X177224Y233852*
X178474*
X179099Y234164*
X179411Y234789*
Y237602*
X181911Y233852D02*
X183161D01*
X182536D02*
Y237602D01*
X181911Y236977*
X181507Y81589D02*
Y83464D01*
X179945Y85339*
X181507Y83464D02*
X183070Y85339D01*
X181081Y301576D02*
X155491D01*
Y334253*
X181081*
Y318406*
X180589*
Y317422*
X181081*
Y301576*
X182536Y355477D02*
X182849Y355164D01*
X183474Y354852*
X184099Y355164*
X184411Y355477*
Y358602*
X185036*
X184411D02*
X183161D01*
X187536Y354852D02*
Y358602D01*
X189724*
X190349Y358289*
X190661Y357664*
X190349Y357039*
X189724Y356727*
X187536*
X192536Y358602D02*
X192849Y354852D01*
X194099Y356727*
X195349Y354852*
X195661Y358602*
X197536Y354852D02*
Y358602D01*
X199724*
X200349Y358289*
X200661Y357664*
X200349Y357039*
X199724Y356727*
X197536*
X199724D02*
X200661Y354852D01*
X202849Y355164D02*
X203474Y354852D01*
X204099*
X204724Y355164*
X205036Y355789*
X204724Y356414*
X204099Y356727*
X203474*
X204099D02*
X204724Y357039D01*
X205036Y357664*
X204724Y358289*
X204099Y358602*
X203474*
X202849Y358289*
X185761Y333727D02*
X185449Y333414D01*
X184824Y333102*
X183886*
X183261Y333414*
X182949Y333727*
X182636Y334352*
Y335602*
X182949Y336227*
X183261Y336539*
X183886Y336852*
X184824*
X185449Y336539*
X185761Y336227*
X187636Y333102D02*
Y336852D01*
X189824*
X190449Y336539*
X190761Y335914*
X190449Y335289*
X189824Y334977*
X187636*
X192636Y336852D02*
X192949Y333102D01*
X194199Y334977*
X195449Y333102*
X195761Y336852*
X197636Y333102D02*
Y336852D01*
X199824*
X200449Y336539*
X200761Y335914*
X200449Y335289*
X199824Y334977*
X197636*
X199824D02*
X200761Y333102D01*
X205136D02*
X202636D01*
X204824Y335289*
X205136Y335914*
X204824Y336539*
X204199Y336852*
X203261*
X202636Y336539*
X184036Y340914D02*
X205036D01*
Y351914*
X184036*
Y340914*
X184636Y329564D02*
X189936D01*
Y317264*
X184636*
Y329564*
X185096Y144560D02*
Y123560D01*
X196096*
Y144560*
X185096*
X189603Y242579D02*
X189290Y242266D01*
X188665Y241954*
X187728*
X187103Y242266*
X186790Y242579*
X186478Y243204*
Y244454*
X186790Y245079*
X187103Y245391*
X187728Y245704*
X188665*
X189290Y245391*
X189603Y245079*
X194603Y242579D02*
X194290Y242266D01*
X193665Y241954*
X192728*
X192103Y242266*
X191790Y242579*
X191478Y243204*
Y244454*
X191790Y245079*
X192103Y245391*
X192728Y245704*
X193665*
X194290Y245391*
X194603Y245079*
X197103Y241954D02*
X198353D01*
X197728D02*
Y245704D01*
X197103Y245079*
X201790Y242266D02*
X202415Y241954D01*
X203040*
X203665Y242266*
X203978Y242891*
Y244766*
X203665Y245391*
X203040Y245704*
X202415*
X201790Y245391*
X201478Y244766*
Y242891*
X201790Y242266*
X203665Y245391*
X187445Y94089D02*
X190570Y97839D01*
X187445D02*
X190570Y94089D01*
X191600Y14314D02*
X191287Y14001D01*
X190662Y13689*
X189724*
X189100Y14001*
X188787Y14314*
X188474Y14939*
Y16189*
X188787Y16814*
X189100Y17126*
X189724Y17439*
X190662*
X191287Y17126*
X191600Y16814*
X193474Y14939D02*
Y16189D01*
X193787Y16814*
X194100Y17126*
X194724Y17439*
X195350*
X195974Y17126*
X196287Y16814*
X196600Y16189*
Y14939*
X196287Y14314*
X195974Y14001*
X195350Y13689*
X194724*
X194100Y14001*
X193787Y14314*
X193474Y14939*
X198474Y13689D02*
Y17439D01*
X201600Y13689*
Y17439*
X204100Y13689D02*
X205350D01*
X204724D02*
Y17439D01*
X204100Y16814*
X208787Y14001D02*
X209412Y13689D01*
X210037*
X210662Y14001*
X210974Y14626*
Y16501*
X210662Y17126*
X210037Y17439*
X209412*
X208787Y17126*
X208474Y16501*
Y14626*
X208787Y14001*
X210662Y17126*
X189936Y276176D02*
X184636D01*
Y288476*
X189936*
Y276176*
X190097Y218367D02*
X190409Y218054D01*
X191034Y217742*
X191659Y218054*
X191972Y218367*
Y221492*
X192597*
X191972D02*
X190722D01*
X198222Y218367D02*
X197909Y218054D01*
X197284Y217742*
X196347*
X195722Y218054*
X195409Y218367*
X195097Y218992*
Y220242*
X195409Y220867*
X195722Y221180*
X196347Y221492*
X197284*
X197909Y221180*
X198222Y220867*
X202597Y217742D02*
X200097D01*
X202284Y219930*
X202597Y220554*
X202284Y221180*
X201659Y221492*
X200722*
X200097Y221180*
X191409Y291561D02*
X195159D01*
Y289374*
X194846Y288749*
X194221Y288436*
X193596Y288749*
X193284Y289374*
Y291561*
Y289374D02*
X191409Y288436D01*
X192034Y283436D02*
X191721Y283749D01*
X191409Y284374*
Y285311*
X191721Y285936*
X192034Y286249*
X192659Y286561*
X193909*
X194534Y286249*
X194846Y285936*
X195159Y285311*
Y284374*
X194846Y283749*
X194534Y283436*
X191409Y280936D02*
Y279686D01*
Y280311D02*
X195159D01*
X194534Y280936*
X191087Y205064D02*
X201837D01*
Y216064*
X191087*
Y205064*
X193136Y329564D02*
X198436D01*
Y317264*
X193136*
Y329564*
X193277Y156649D02*
X193589Y156962D01*
X193902Y157587*
X193589Y158212*
X193277Y158524*
X190152*
Y159149*
Y158524D02*
Y157274D01*
X193277Y164774D02*
X193589Y164462D01*
X193902Y163837*
Y162899*
X193589Y162274*
X193277Y161962*
X192652Y161649*
X191402*
X190777Y161962*
X190464Y162274*
X190152Y162899*
Y163837*
X190464Y164462*
X190777Y164774*
X193902Y166649D02*
X190152D01*
X192027Y168212*
X190152Y169774*
X193902*
X192652Y171649D02*
X191402D01*
X190777Y171962*
X190464Y172274*
X190152Y172899*
Y173524*
X190464Y174149*
X190777Y174462*
X191402Y174774*
X192652*
X193277Y174462*
X193589Y174149*
X193902Y173524*
Y172899*
X193589Y172274*
X193277Y171962*
X192652Y171649*
X192964Y176649D02*
X193589Y176962D01*
X193902Y177587*
Y178837*
X193589Y179462*
X192964Y179774*
X192339Y179462*
X192027Y178837*
Y177587*
X191714Y176962*
X191089Y176649*
X190464Y176962*
X190152Y177587*
Y178837*
X190464Y179462*
X191089Y179774*
X193902Y182587D02*
Y183837D01*
Y183212D02*
X190152D01*
Y182587D02*
Y183837D01*
X195949Y87591D02*
X195963Y87475D01*
X196004Y87367*
X196070Y87271*
X196157Y87194*
X196260Y87140*
X196373Y87112*
X196489*
X196602Y87140*
X196705Y87194*
X196792Y87271*
X196858Y87367*
X196900Y87475*
X196913Y87591*
X196899Y87706*
X196858Y87815*
X196792Y87910*
X196705Y87987*
X196602Y88041*
X196489Y88069*
X196373*
X196260Y88041*
X196157Y87987*
X196070Y87910*
X196004Y87815*
X195963Y87706*
X195949Y87591*
G36*
X195963Y87475*
X196004Y87367*
X196070Y87271*
X196157Y87194*
X196260Y87140*
X196373Y87112*
X196489*
X196602Y87140*
X196705Y87194*
X196792Y87271*
X196858Y87367*
X196900Y87475*
X196913Y87591*
X196899Y87706*
X196858Y87815*
X196792Y87910*
X196705Y87987*
X196602Y88041*
X196489Y88069*
X196373*
X196260Y88041*
X196157Y87987*
X196070Y87910*
X196004Y87815*
X195963Y87706*
X195949Y87591*
G37*
X196736Y92118D02*
X212878D01*
Y77157*
X195949*
Y91331*
X196736Y92118*
X197181Y72067D02*
X202481D01*
Y59767*
X197181*
Y72067*
X197576Y144560D02*
Y123560D01*
X208576*
Y144560*
X197576*
X201085Y55124D02*
X200772Y54812D01*
X200147Y54499*
X199209*
X198585Y54812*
X198272Y55124*
X197959Y55749*
Y56999*
X198272Y57624*
X198585Y57937*
X199209Y58249*
X200147*
X200772Y57937*
X201085Y57624*
X203897Y54499D02*
X205147D01*
X204522D02*
Y58249D01*
X203897D02*
X205147D01*
X208585Y54499D02*
X209835D01*
X209209D02*
Y58249D01*
X208585Y57624*
X202136Y329564D02*
X207436D01*
Y317264*
X202136*
Y329564*
X205073Y271282D02*
Y275032D01*
X206948*
X207573Y274720*
X207886Y274407*
X208198Y273782*
Y272532*
X207886Y271907*
X207573Y271595*
X206948Y271282*
X205073*
X212261Y272845D02*
X213198D01*
Y272532*
X212886Y271907*
X212573Y271595*
X211948Y271282*
X211323*
X210698Y271595*
X210386Y271907*
X210073Y272532*
Y273782*
X210386Y274407*
X210698Y274720*
X211323Y275032*
X211948*
X212573Y274720*
X212886Y274407*
X213198Y273782*
X217573Y271282D02*
X215073D01*
X217261Y273470*
X217573Y274095*
X217261Y274720*
X216636Y275032*
X215698*
X215073Y274720*
X204759Y156774D02*
X205071Y157087D01*
X205384Y157711*
X205071Y158337*
X204759Y158649*
X201634*
Y159274*
Y158649D02*
Y157399D01*
X204759Y164899D02*
X205071Y164587D01*
X205384Y163961*
Y163024*
X205071Y162399*
X204759Y162087*
X204134Y161774*
X202884*
X202259Y162087*
X201946Y162399*
X201634Y163024*
Y163961*
X201946Y164587*
X202259Y164899*
X204446Y166774D02*
X205071Y167087D01*
X205384Y167711*
Y168961*
X205071Y169587*
X204446Y169899*
X203821Y169587*
X203509Y168961*
Y167711*
X203196Y167087*
X202571Y166774*
X201946Y167087*
X201634Y167711*
Y168961*
X201946Y169587*
X202571Y169899*
X204759Y174899D02*
X205071Y174587D01*
X205384Y173961*
Y173024*
X205071Y172399*
X204759Y172087*
X204134Y171774*
X202884*
X202259Y172087*
X201946Y172399*
X201634Y173024*
Y173961*
X201946Y174587*
X202259Y174899*
X205384Y176774D02*
X201634D01*
X203509D02*
Y177711D01*
X201634Y179899*
X203509Y177711D02*
X205384Y179899D01*
X207854Y240796D02*
Y235496D01*
X195554*
Y240796*
X207854*
X210181Y144560D02*
Y123560D01*
X221181*
Y144560*
X210181*
X211069Y248637D02*
X221118D01*
Y255249*
X212069*
X211069Y254249*
Y248637*
X211430Y205963D02*
Y184963D01*
X222430*
Y205963*
X211430*
X211568Y257872D02*
X221617D01*
Y264484*
X212568*
X211568Y263484*
Y257872*
X211796Y208309D02*
X232796D01*
Y219309*
X211796*
Y208309*
X212599Y317414D02*
X208849D01*
Y319602*
X209161Y320227*
X209786Y320539*
X210411Y320227*
X210724Y319602*
Y317414*
Y319602D02*
X212599Y320539D01*
Y322414D02*
X208849D01*
Y324602*
X209161Y325227*
X209786Y325539*
X210411Y325227*
X210724Y324602*
Y322414*
X208849Y327414D02*
X212599Y327727D01*
X210724Y328977*
X212599Y330227*
X208849Y330539*
X212599Y332414D02*
X208849D01*
Y334602*
X209161Y335227*
X209786Y335539*
X210411Y335227*
X210724Y334602*
Y332414*
Y334602D02*
X212599Y335539D01*
Y338039D02*
Y339289D01*
Y338664D02*
X208849D01*
X209474Y338039*
X214433Y86580D02*
Y83767D01*
X214746Y83142*
X215371Y82830*
X216621*
X217246Y83142*
X217559Y83767*
Y86580*
X220996Y82830D02*
Y86580D01*
X219433Y84080*
X221933*
X215285Y221160D02*
X263035D01*
Y236660*
X215285*
Y221160*
X216786Y341839D02*
Y351963D01*
X209786*
Y343164*
X211111Y341839*
X216786*
X220180Y58993D02*
X219867Y58681D01*
X219242Y58368*
X218304*
X217680Y58681*
X217367Y58993*
X217054Y59618*
Y60868*
X217367Y61493*
X217680Y61806*
X218304Y62118*
X219242*
X219867Y61806*
X220180Y61493*
X222992Y58368D02*
X224242D01*
X223617D02*
Y62118D01*
X222992D02*
X224242D01*
X229554Y58368D02*
X227054D01*
X229242Y60556*
X229554Y61181*
X229242Y61806*
X228617Y62118*
X227680*
X227054Y61806*
X217239Y157148D02*
X217552Y157461D01*
X217864Y158086*
X217552Y158711*
X217239Y159024*
X214114*
Y159648*
Y159024D02*
Y157774D01*
X217864Y162148D02*
X214114D01*
X215989Y163711*
X214114Y165274*
X217864*
Y168086D02*
Y169336D01*
Y168711D02*
X214114D01*
Y168086D02*
Y169336D01*
X216926Y172148D02*
X217552Y172461D01*
X217864Y173086*
Y174336*
X217552Y174961*
X216926Y175274*
X216302Y174961*
X215989Y174336*
Y173086*
X215676Y172461*
X215052Y172148*
X214426Y172461*
X214114Y173086*
Y174336*
X214426Y174961*
X215052Y175274*
X216614Y177148D02*
X215364D01*
X214739Y177461*
X214426Y177774*
X214114Y178398*
Y179024*
X214426Y179648*
X214739Y179961*
X215364Y180274*
X216614*
X217239Y179961*
X217552Y179648*
X217864Y179024*
Y178398*
X217552Y177774*
X217239Y177461*
X216614Y177148*
X220145Y76061D02*
X225445D01*
Y63761*
X220145*
Y76061*
X221797Y180426D02*
Y184176D01*
X223984*
X224609Y183863*
X224922Y183238*
X224609Y182613*
X223984Y182301*
X221797*
X223984D02*
X224922Y180426D01*
X228984Y181988D02*
X229922D01*
Y181676*
X229609Y181051*
X229297Y180738*
X228672Y180426*
X228047*
X227422Y180738*
X227109Y181051*
X226797Y181676*
Y182926*
X227109Y183551*
X227422Y183863*
X228047Y184176*
X228672*
X229297Y183863*
X229609Y183551*
X229922Y182926*
X232422Y180426D02*
X233672D01*
X233047D02*
Y184176D01*
X232422Y183551*
X222670Y250191D02*
Y253941D01*
X224546*
X225170Y253628*
X225483Y253316*
X225796Y252691*
Y251441*
X225483Y250816*
X225170Y250503*
X224546Y250191*
X222670*
X229858Y251753D02*
X230796D01*
Y251441*
X230483Y250816*
X230170Y250503*
X229546Y250191*
X228920*
X228296Y250503*
X227983Y250816*
X227670Y251441*
Y252691*
X227983Y253316*
X228296Y253628*
X228920Y253941*
X229546*
X230170Y253628*
X230483Y253316*
X230796Y252691*
X233296Y250191D02*
X234546D01*
X233920D02*
Y253941D01*
X233296Y253316*
X222349Y337414D02*
X218599D01*
Y339289*
X218911Y339914*
X219224Y340227*
X219849Y340539*
X221099*
X221724Y340227*
X222036Y339914*
X222349Y339289*
Y337414*
Y342414D02*
X218599D01*
Y344602*
X218911Y345227*
X219536Y345539*
X220161Y345227*
X220474Y344602*
Y342414*
X218599Y347414D02*
X222349Y347727D01*
X220474Y348977*
X222349Y350227*
X218599Y350539*
X222349Y352414D02*
X218599D01*
Y354602*
X218911Y355227*
X219536Y355539*
X220161Y355227*
X220474Y354602*
Y352414*
Y354602D02*
X222349Y355539D01*
Y358039D02*
Y359289D01*
Y358664D02*
X218599D01*
X219224Y358039*
X223544Y188664D02*
X223857Y188351D01*
X224481Y188039*
X225107Y188351*
X225419Y188664*
Y191789*
X226044*
X225419D02*
X224169D01*
X230731Y189601D02*
X231669D01*
Y189289*
X231357Y188664*
X231044Y188351*
X230419Y188039*
X229794*
X229169Y188351*
X228857Y188664*
X228544Y189289*
Y190539*
X228857Y191164*
X229169Y191476*
X229794Y191789*
X230419*
X231044Y191476*
X231357Y191164*
X231669Y190539*
X234169Y188039D02*
X235419D01*
X234794D02*
Y191789D01*
X234169Y191164*
X226385Y178150D02*
X231685D01*
Y165850*
X226385*
Y178150*
X233404Y212626D02*
X233716Y212313D01*
X234341Y212001*
X234966Y212313*
X235279Y212626*
Y215751*
X235904*
X235279D02*
X234029D01*
X240591Y213563D02*
X241529D01*
Y213251*
X241216Y212626*
X240904Y212313*
X240279Y212001*
X239654*
X239029Y212313*
X238716Y212626*
X238404Y213251*
Y214501*
X238716Y215126*
X239029Y215439*
X239654Y215751*
X240279*
X240904Y215439*
X241216Y215126*
X241529Y214501*
X245904Y212001D02*
X243404D01*
X245591Y214189*
X245904Y214813*
X245591Y215439*
X244966Y215751*
X244029*
X243404Y215439*
X234608Y203485D02*
X234624Y203291D01*
X234669Y203101*
X234743Y202921*
X234845Y202756*
X234971Y202607*
X235119Y202481*
X235285Y202380*
X235465Y202305*
X235655Y202260*
X235849Y202244*
X236043Y202260*
X236232Y202306*
X236412Y202380*
X236578Y202482*
X236726Y202608*
X236852Y202756*
X236954Y202922*
X237028Y203102*
X237074Y203292*
X237089Y203485*
X237073Y203679*
X237028Y203868*
X236954Y204048*
X236852Y204214*
X236726Y204362*
X236578Y204488*
X236411Y204590*
X236231Y204664*
X236042Y204709*
X235848Y204725*
X235654Y204709*
X235465Y204664*
X235285Y204589*
X235119Y204487*
X234971Y204361*
X234844Y204213*
X234743Y204047*
X234669Y203867*
X234623Y203678*
X234608Y203485*
G36*
X234624Y203291*
X234669Y203101*
X234743Y202921*
X234845Y202756*
X234971Y202607*
X235119Y202481*
X235285Y202380*
X235465Y202305*
X235655Y202260*
X235849Y202244*
X236043Y202260*
X236232Y202306*
X236412Y202380*
X236578Y202482*
X236726Y202608*
X236852Y202756*
X236954Y202922*
X237028Y203102*
X237074Y203292*
X237089Y203485*
X237073Y203679*
X237028Y203868*
X236954Y204048*
X236852Y204214*
X236726Y204362*
X236578Y204488*
X236411Y204590*
X236231Y204664*
X236042Y204709*
X235848Y204725*
X235654Y204709*
X235465Y204664*
X235285Y204589*
X235119Y204487*
X234971Y204361*
X234844Y204213*
X234743Y204047*
X234669Y203867*
X234623Y203678*
X234608Y203485*
G37*
X234912Y353664D02*
X275412D01*
Y335914*
X237412*
X234912Y338414*
Y353664*
X235376Y210591D02*
X314589D01*
Y136654*
X234589*
Y209804*
X235376Y210591*
X235912Y357789D02*
X236225Y357164D01*
X236850Y356852*
X238100*
X238725Y357164*
X239037Y357789*
X238725Y358414*
X238100Y358727*
X236850*
X236225Y359039*
X235912Y359664*
X236225Y360289*
X236850Y360602*
X238100*
X238725Y360289*
X239037Y359664*
X240912Y360602D02*
X241225Y356852D01*
X242475Y358727*
X243725Y356852*
X244037Y360602*
X246537Y356852D02*
X247787D01*
X247162D02*
Y360602D01*
X246537Y359977*
X237612Y238741D02*
Y244041D01*
X249912*
Y238741*
X237612*
X246508Y216558D02*
X246820Y215933D01*
X247445Y215620*
X248695*
X249320Y215933*
X249633Y216558*
X249320Y217183*
X248695Y217495*
X247445*
X246820Y217808*
X246508Y218433*
X246820Y219058*
X247445Y219370*
X248695*
X249320Y219058*
X249633Y218433*
X251508Y219370D02*
X251820Y215620D01*
X253070Y217495*
X254320Y215620*
X254633Y219370*
X258695Y217183D02*
X259633D01*
Y216870*
X259320Y216245*
X259008Y215933*
X258383Y215620*
X257758*
X257133Y215933*
X256820Y216245*
X256508Y216870*
Y218120*
X256820Y218745*
X257133Y219058*
X257758Y219370*
X258383*
X259008Y219058*
X259320Y218745*
X259633Y218120*
X262133Y215620D02*
X263383D01*
X262758D02*
Y219370D01*
X262133Y218745*
X251375Y239333D02*
Y243083D01*
X253563*
X254188Y242770*
X254500Y242145*
X254188Y241520*
X253563Y241208*
X251375*
X253563D02*
X254500Y239333D01*
X258563Y240895D02*
X259500D01*
Y240583*
X259188Y239958*
X258875Y239645*
X258250Y239333*
X257625*
X257000Y239645*
X256688Y239958*
X256375Y240583*
Y241833*
X256688Y242458*
X257000Y242770*
X257625Y243083*
X258250*
X258875Y242770*
X259188Y242458*
X259500Y241833*
X262313Y241208D02*
X262938D01*
X263563Y241520*
X263875Y242145*
X263563Y242770*
X262938Y243083*
X262313*
X261688Y242770*
X261375Y242145*
X261688Y241520*
X262313Y241208*
X261688Y240895*
X261375Y240270*
X261688Y239645*
X262313Y239333*
X262938*
X263563Y239645*
X263875Y240270*
X263563Y240895*
X262938Y241208*
X269002Y74827D02*
X263702D01*
Y87127*
X269002*
Y74827*
Y117052D02*
X263702D01*
Y129352*
X269002*
Y117052*
X269251Y96543D02*
X263951D01*
Y108843*
X269251*
Y96543*
X270409Y108683D02*
X274159D01*
Y106496*
X273847Y105870*
X273222Y105558*
X272597Y105870*
X272284Y106496*
Y108683*
Y106496D02*
X270409Y105558D01*
Y103683D02*
X274159Y100558D01*
Y103683D02*
X270409Y100558D01*
X270722Y98370D02*
X270409Y97746D01*
Y97120*
X270722Y96496*
X271347Y96183*
X271972Y96496*
X272284Y97120*
Y97746*
Y97120D02*
X272597Y96496D01*
X273222Y96183*
X273847Y96496*
X274159Y97120*
Y97746*
X273847Y98370*
X270534Y129567D02*
X274284D01*
Y127380*
X273972Y126754*
X273346Y126442*
X272722Y126754*
X272409Y127380*
Y129567*
Y127380D02*
X270534Y126442D01*
Y124567D02*
X274284Y121442D01*
Y124567D02*
X270534Y121442D01*
X270846Y119567D02*
X270534Y118942D01*
Y118004*
X270846Y117380*
X271472Y117067*
X271784*
X272409Y117380*
X272722Y118004*
Y119567*
X274284*
Y117067*
X269596Y216125D02*
Y213313D01*
X269909Y212688*
X270534Y212375*
X271784*
X272409Y212688*
X272722Y213313*
Y216125*
X274596Y213313D02*
X274909Y213938D01*
X275534Y214250*
X276159*
X276784Y213938*
X277096Y213313*
X276784Y212688*
X276159Y212375*
X275534*
X274909Y212688*
X274596Y213313*
Y214250*
X274909Y215188*
X275534Y215813*
X276159Y216125*
X270783Y87092D02*
X274533D01*
Y84905*
X274221Y84280*
X273596Y83967*
X272971Y84280*
X272659Y84905*
Y87092*
Y84905D02*
X270783Y83967D01*
Y82092D02*
X274533Y78967D01*
Y82092D02*
X270783Y78967D01*
Y76467D02*
Y75217D01*
Y75842D02*
X274533D01*
X273909Y76467*
X277849Y296789D02*
X277536Y297102D01*
X277224Y297727*
Y298664*
X277536Y299289*
X277849Y299602*
X278474Y299914*
X279724*
X280349Y299602*
X280661Y299289*
X280974Y298664*
Y297727*
X280661Y297102*
X280349Y296789*
X277224Y294914D02*
X280974D01*
Y292727*
X280661Y292102*
X280036Y291789*
X279411Y292102*
X279099Y292727*
Y294914*
X280974Y289914D02*
X277224Y289602D01*
X279099Y288352*
X277224Y287102*
X280974Y286789*
X277224Y284914D02*
X280974D01*
Y282727*
X280661Y282102*
X280036Y281789*
X279411Y282102*
X279099Y282727*
Y284914*
Y282727D02*
X277224Y281789D01*
Y278352D02*
X280974D01*
X278474Y279914*
Y277414*
X277269Y88510D02*
X291442D01*
Y73943*
X277269*
Y88510*
Y109976D02*
X291442D01*
Y95409*
X277269*
Y109976*
Y131359D02*
X291442D01*
Y116792*
X277269*
Y131359*
X277709Y112659D02*
Y113909D01*
X278021Y114535*
X278334Y114847*
X278959Y115159*
X279584*
X280209Y114847*
X280521Y114535*
X280834Y113909*
Y112659*
X280521Y112035*
X280209Y111722*
X279584Y111409*
X278959*
X278334Y111722*
X278021Y112035*
X277709Y112659*
X279896Y112347D02*
X280834Y111409D01*
X282709D02*
X285834Y115159D01*
X282709D02*
X285834Y111409D01*
X290209D02*
X287709D01*
X289896Y113597*
X290209Y114222*
X289896Y114847*
X289271Y115159*
X288334*
X287709Y114847*
X277958Y134916D02*
Y136166D01*
X278271Y136791*
X278583Y137104*
X279208Y137416*
X279833*
X280458Y137104*
X280771Y136791*
X281083Y136166*
Y134916*
X280771Y134291*
X280458Y133979*
X279833Y133666*
X279208*
X278583Y133979*
X278271Y134291*
X277958Y134916*
X280146Y134604D02*
X281083Y133666D01*
X282958D02*
X286083Y137416D01*
X282958D02*
X286083Y133666D01*
X288271Y133979D02*
X288896Y133666D01*
X289521*
X290146Y133979*
X290458Y134604*
X290146Y135229*
X289521Y135541*
X288896*
X289521D02*
X290146Y135854D01*
X290458Y136479*
X290146Y137104*
X289521Y137416*
X288896*
X288271Y137104*
X278457Y90902D02*
Y92152D01*
X278770Y92777*
X279083Y93090*
X279707Y93402*
X280333*
X280957Y93090*
X281270Y92777*
X281583Y92152*
Y90902*
X281270Y90277*
X280957Y89965*
X280333Y89652*
X279707*
X279083Y89965*
X278770Y90277*
X278457Y90902*
X280645Y90590D02*
X281583Y89652D01*
X283457D02*
X286583Y93402D01*
X283457D02*
X286583Y89652D01*
X289083D02*
X290333D01*
X289707D02*
Y93402D01*
X289083Y92777*
X288192Y215809D02*
X288505Y215184D01*
X289130Y214871*
X290380*
X291005Y215184*
X291317Y215809*
X291005Y216434*
X290380Y216746*
X289130*
X288505Y217059*
X288192Y217684*
X288505Y218309*
X289130Y218621*
X290380*
X291005Y218309*
X291317Y217684*
X293192Y218621D02*
X293505Y214871D01*
X294755Y216746*
X296005Y214871*
X296317Y218621*
X300380Y216434D02*
X301317D01*
Y216121*
X301005Y215496*
X300692Y215184*
X300067Y214871*
X299442*
X298817Y215184*
X298505Y215496*
X298192Y216121*
Y217371*
X298505Y217996*
X298817Y218309*
X299442Y218621*
X300067*
X300692Y218309*
X301005Y217996*
X301317Y217371*
X305692Y214871D02*
X303192D01*
X305380Y217059*
X305692Y217684*
X305380Y218309*
X304755Y218621*
X303817*
X303192Y218309*
X289690Y245198D02*
Y248948D01*
X291877*
X292502Y248636*
X292815Y248011*
X292502Y247386*
X291877Y247074*
X289690*
X291877D02*
X292815Y245198D01*
X296877Y246761D02*
X297815D01*
Y246448*
X297502Y245824*
X297190Y245511*
X296565Y245198*
X295940*
X295315Y245511*
X295002Y245824*
X294690Y246448*
Y247698*
X295002Y248324*
X295315Y248636*
X295940Y248948*
X296565*
X297190Y248636*
X297502Y248324*
X297815Y247698*
X300627Y245198D02*
X301252Y245511D01*
X301877Y246136*
X302190Y247074*
Y248011*
X301877Y248636*
X301252Y248948*
X300627*
X300002Y248636*
X299690Y248011*
X300002Y247386*
X300627Y247074*
X301252*
X301877Y247386*
X302190Y248011*
X295245Y109182D02*
X298995D01*
Y106995*
X298683Y106370*
X298057Y106057*
X297433Y106370*
X297120Y106995*
Y109182*
Y106995D02*
X295245Y106057D01*
Y104182D02*
X298995Y101057D01*
Y104182D02*
X295245Y101057D01*
Y97620D02*
X298995D01*
X296495Y99182*
Y96682*
X296119Y128444D02*
X299869D01*
Y126256*
X299556Y125631*
X298931Y125319*
X298306Y125631*
X297994Y126256*
Y128444*
Y126256D02*
X296119Y125319D01*
Y123444D02*
X299869Y120319D01*
Y123444D02*
X296119Y120319D01*
X297056Y118444D02*
X297681Y118131D01*
X297994Y117506*
Y116881*
X297681Y116256*
X297056Y115944*
X296431Y116256*
X296119Y116881*
Y117506*
X296431Y118131*
X297056Y118444*
X297994*
X298931Y118131*
X299556Y117506*
X299869Y116881*
X300411Y339477D02*
X300099Y339164D01*
X299474Y338852*
X298536*
X297911Y339164*
X297599Y339477*
X297286Y340102*
Y341352*
X297599Y341977*
X297911Y342289*
X298536Y342602*
X299474*
X300099Y342289*
X300411Y341977*
X302286Y340102D02*
Y341352D01*
X302599Y341977*
X302911Y342289*
X303536Y342602*
X304161*
X304786Y342289*
X305099Y341977*
X305411Y341352*
Y340102*
X305099Y339477*
X304786Y339164*
X304161Y338852*
X303536*
X302911Y339164*
X302599Y339477*
X302286Y340102*
X307286Y338852D02*
Y342602D01*
X310411Y338852*
Y342602*
X312911Y338852D02*
X314161D01*
X313536D02*
Y342602D01*
X312911Y341977*
X317911Y338852D02*
X319161D01*
X318536D02*
Y342602D01*
X317911Y341977*
X306942Y96543D02*
X301642D01*
Y108843*
X306942*
Y96543*
Y116678D02*
X301642D01*
Y128978*
X306942*
Y116678*
X307441Y74827D02*
X302141D01*
Y87127*
X307441*
Y74827*
X309597Y86718D02*
X313347D01*
Y84530*
X313035Y83905*
X312410Y83593*
X311785Y83905*
X311472Y84530*
Y86718*
Y84530D02*
X309597Y83593D01*
Y81718D02*
X313347Y78593D01*
Y81718D02*
X309597Y78593D01*
Y74218D02*
Y76718D01*
X311785Y74530*
X312410Y74218*
X313035Y74530*
X313347Y75155*
Y76093*
X313035Y76718*
X313312Y244290D02*
Y238990D01*
X301012*
Y244290*
X313312*
X316170Y236411D02*
X268420D01*
Y220911*
X316170*
Y236411*
X328026Y334654D02*
Y252174D01*
X305546*
Y334654*
X328026*
X0Y0D02*
M02*
