G05
M48
INCH
FMAT,2
T1C000.01575
T2C000.01969
T3C000.03150
T4C000.03346
T5C000.03543
T6C000.05118
T7C000.12598
%
T001
X00136360Y00373467
X00139250Y00369467
T002
X00089813Y00442967
X00097687Y00442967
T003
X00124250Y00448467
X00151750Y00448467
X00180500Y00448467
X00228376Y00446717
X00236250Y00446717
X00240500Y00383124
X00240500Y00402809
X00244124Y00446717
T004
X00023280Y00414089
X00023280Y00431608
T005
X00012750Y00325967
X00012750Y00335967
X00012750Y00345967
X00012750Y00355967
X00012750Y00365967
X00034250Y00419848
X00034250Y00427848
X00044250Y00458967
X00089813Y00430467
X00097687Y00454904
X00114250Y00448467
X00130750Y00436467
X00131250Y00423967
X00132250Y00399467
X00141750Y00448467
X00147750Y00458967
X00154750Y00370967
X00168250Y00407467
X00170500Y00448467
X00197250Y00415467
X00199250Y00431467
X00244124Y00416467
X00292750Y00360467
X00292750Y00370467
X00292750Y00380467
X00292750Y00390467
X00292750Y00400467
X00292750Y00410467
X00292750Y00420467
X00292750Y00430467
X00302750Y00360467
X00302750Y00370467
X00302750Y00380467
X00302750Y00390467
X00302750Y00400467
X00302750Y00410467
X00302750Y00420467
X00302750Y00430467
T006
X00011469Y00406411
X00011469Y00439285
T007
X00013750Y00459467
X00304750Y00459467
M30
