%FSLAX35Y35*%
%MOIN*%
G04 EasyPC Gerber Version 18.0.9 Build 3640 *
%ADD111C,0.00500*%
%ADD110C,0.10000*%
X0Y0D02*
D02*
D110*
X12204Y304359D03*
Y337233D03*
X12377Y231219D03*
Y241219D03*
Y251219D03*
Y261219D03*
Y271219D03*
X13750Y13500D03*
X13875Y357414D03*
X24015Y312036D03*
Y329556D03*
X51441Y34093D03*
X52286Y317796D03*
X54786Y327914D03*
X58523Y15497D03*
X58804Y219800D03*
X60177Y192717D03*
X63286Y356914D03*
X64295Y237896D03*
X67790Y216430D03*
X68523Y15497D03*
X69662Y300173D03*
X72033Y225416D03*
X72407Y309283D03*
X73656Y237397D03*
X78523Y15497D03*
X82641Y248629D03*
X84763Y162141D03*
X86556Y221672D03*
X87009Y231531D03*
X88523Y15497D03*
X89123Y304167D03*
X92501Y255119D03*
X93499Y242264D03*
X98523Y15497D03*
X99123Y304167D03*
X101487Y315399D03*
X105730Y325882D03*
X106728Y114840D03*
X108600Y188973D03*
X108849Y340914D03*
X112344Y120082D03*
X113343Y113343D03*
X115714Y151532D03*
X116338Y48570D03*
X116723Y340914D03*
X117212Y329377D03*
X117711Y15614D03*
Y25614D03*
X118709Y38710D03*
X118959Y113717D03*
X123327Y184730D03*
X125449Y160144D03*
X127196Y202202D03*
X127446Y263356D03*
X128819Y38461D03*
X130316Y15614D03*
Y25614D03*
X132937Y111720D03*
X133286Y346414D03*
X133686Y54560D03*
X135683Y212561D03*
X136806Y180611D03*
X140924Y208318D03*
X143286Y346414D03*
X143296Y87009D03*
X143670Y125573D03*
X147664Y52813D03*
X147913Y42330D03*
X148038Y262857D03*
X149138Y16495D03*
Y28601D03*
X149786Y334414D03*
X150286Y321914D03*
X151286Y297414D03*
X151907Y188973D03*
X154793Y109840D03*
Y119840D03*
X155396Y271414D03*
X156400Y143670D03*
X158286Y266914D03*
X159138Y16495D03*
Y28851D03*
X160786Y346414D03*
X163639Y148787D03*
X165136Y152780D03*
X165511Y136930D03*
X166399Y109840D03*
Y119840D03*
X166786Y356914D03*
X169130Y28851D03*
X169138Y16495D03*
X170786Y346414D03*
X173872Y268847D03*
X177617Y196461D03*
X178241Y203450D03*
X179138Y16495D03*
Y28851D03*
X182359Y74654D03*
X183482Y188474D03*
X187286Y305414D03*
X189536Y346414D03*
X190471Y150659D03*
X190596Y129060D03*
Y139060D03*
X190721Y117211D03*
X191345Y268598D03*
X191470Y54061D03*
Y69417D03*
X192094Y258489D03*
X195838Y99365D03*
X196087Y197085D03*
X196587Y210564D03*
X197335Y173622D03*
X198209Y227304D03*
X199536Y346414D03*
X203076Y129060D03*
Y139060D03*
Y149286D03*
X203326Y115963D03*
X205323Y251999D03*
Y264604D03*
X206321Y195463D03*
X207070Y210439D03*
X207195Y203450D03*
X208069Y228785D03*
X211064Y69412D03*
X211563Y46698D03*
X214059Y242264D03*
X214433Y310282D03*
X215182Y112094D03*
X215307Y150035D03*
X215681Y129060D03*
Y139060D03*
X216930Y190463D03*
Y200463D03*
X217296Y213809D03*
X218286Y329414D03*
X226914Y102609D03*
X227288Y136057D03*
X227296Y213809D03*
X228786Y199581D03*
X231656Y116837D03*
X232405Y159520D03*
X234152Y46698D03*
X239144Y344664D03*
X243263Y133685D03*
X243887Y258988D03*
X244012Y90628D03*
X247412Y344664D03*
X251375Y130940D03*
X255286Y344664D03*
X259536Y281072D03*
Y300757D03*
X259987Y84139D03*
Y106354D03*
Y124824D03*
X263160Y314414D03*
Y344664D03*
X271428D03*
X272342Y265727D03*
X297428Y256741D03*
X298551Y84638D03*
X310033Y106229D03*
X311786Y258414D03*
Y268414D03*
Y278414D03*
Y288414D03*
Y298414D03*
Y308414D03*
Y318414D03*
Y328414D03*
X318394Y131813D03*
X320891Y209441D03*
X321015Y172250D03*
Y191844D03*
Y246632D03*
X321515Y121080D03*
X321786Y258414D03*
Y268414D03*
Y278414D03*
Y288414D03*
Y298414D03*
Y308414D03*
Y318414D03*
Y328414D03*
X322513Y55153D03*
Y65153D03*
Y75153D03*
Y85153D03*
Y95153D03*
X324406Y13750D03*
X324884Y357414D03*
D02*
D111*
X22204Y310922D02*
X22517Y310609D01*
X23142Y310296*
X23767Y310609*
X24080Y310922*
Y314046*
X24704*
X24080D02*
X22830D01*
X22204Y343796D02*
X22517Y343483D01*
X23142Y343170*
X23767Y343483*
X24080Y343796*
Y346920*
X24704*
X24080D02*
X22830D01*
X22377Y237156D02*
Y240906D01*
Y239031D02*
X25502D01*
Y237156D02*
Y240906D01*
X22377Y247156D02*
Y250906D01*
Y249031D02*
X25502D01*
Y247156D02*
Y250906D01*
X22377Y257156D02*
Y260906D01*
Y259031D02*
X25502D01*
Y257156D02*
Y260906D01*
X22377Y267156D02*
Y270906D01*
Y269031D02*
X25502D01*
Y267156D02*
Y270906D01*
X22377Y277156D02*
Y280906D01*
Y279031D02*
X25502D01*
Y277156D02*
Y280906D01*
X23750Y19437D02*
Y23187D01*
X26875Y19437*
Y23187*
X23875Y363352D02*
Y367102D01*
X27000Y363352*
Y367102*
X34015Y317974D02*
Y321724D01*
Y319849D02*
X34953D01*
X37141Y321724*
X34953Y319849D02*
X37141Y317974D01*
X34015Y335493D02*
Y339243D01*
Y337369D02*
X34953D01*
X37141Y339243*
X34953Y337369D02*
X37141Y335493D01*
X61441Y40030D02*
Y43780D01*
Y41905D02*
X64566D01*
Y40030D02*
Y43780D01*
X62286Y323733D02*
Y327483D01*
Y325609D02*
X65411D01*
Y323733D02*
Y327483D01*
X64786Y333852D02*
Y337602D01*
Y335727D02*
X67911D01*
Y333852D02*
Y337602D01*
X68523Y21434D02*
Y25184D01*
Y23309D02*
X71648D01*
Y21434D02*
Y25184D01*
X68804Y225737D02*
Y229487D01*
Y227612D02*
X71929D01*
Y225737D02*
Y229487D01*
X70177Y199905D02*
Y201155D01*
X70489Y201780*
X70802Y202093*
X71427Y202405*
X72052*
X72677Y202093*
X72989Y201780*
X73302Y201155*
Y199905*
X72989Y199280*
X72677Y198967*
X72052Y198655*
X71427*
X70802Y198967*
X70489Y199280*
X70177Y199905*
X73286Y362852D02*
Y366602D01*
Y364727D02*
X76411D01*
Y362852D02*
Y366602D01*
X74295Y243833D02*
Y247583D01*
Y245709D02*
X77420D01*
Y243833D02*
Y247583D01*
X77790Y222367D02*
Y226117D01*
Y224243D02*
X80915D01*
Y222367D02*
Y226117D01*
X78523Y21434D02*
Y25184D01*
Y23309D02*
X81648D01*
Y21434D02*
Y25184D01*
X79662Y306110D02*
Y309860D01*
Y307985D02*
X82787D01*
Y306110D02*
Y309860D01*
X82033Y231353D02*
Y235103D01*
Y233228D02*
X85158D01*
Y231353D02*
Y235103D01*
X82407Y315221D02*
Y318971D01*
Y317096D02*
X85533D01*
Y315221D02*
Y318971D01*
X83656Y244584D02*
Y245834D01*
X83968Y246459*
X84281Y246772*
X84906Y247084*
X85531*
X86156Y246772*
X86468Y246459*
X86781Y245834*
Y244584*
X86468Y243959*
X86156Y243647*
X85531Y243334*
X84906*
X84281Y243647*
X83968Y243959*
X83656Y244584*
X88523Y21434D02*
Y25184D01*
Y23309D02*
X91648D01*
Y21434D02*
Y25184D01*
X92641Y254567D02*
Y258317D01*
Y256442D02*
X95767D01*
Y254567D02*
Y258317D01*
X94763Y169328D02*
Y170578D01*
X95076Y171203*
X95388Y171516*
X96013Y171828*
X96638*
X97263Y171516*
X97576Y171203*
X97888Y170578*
Y169328*
X97576Y168703*
X97263Y168391*
X96638Y168078*
X96013*
X95388Y168391*
X95076Y168703*
X94763Y169328*
X96556Y227609D02*
Y231359D01*
Y229484D02*
X99681D01*
Y227609D02*
Y231359D01*
X97009Y237469D02*
Y241219D01*
Y239344D02*
X100135D01*
Y237469D02*
Y241219D01*
X98523Y21434D02*
Y25184D01*
Y23309D02*
X101648D01*
Y21434D02*
Y25184D01*
X99123Y310104D02*
Y313854D01*
Y311979D02*
X102248D01*
Y310104D02*
Y313854D01*
X102501Y261056D02*
Y264806D01*
Y262931D02*
X105626D01*
Y261056D02*
Y264806D01*
X103499Y249452D02*
Y250702D01*
X103812Y251327*
X104124Y251639*
X104749Y251952*
X105374*
X105999Y251639*
X106312Y251327*
X106624Y250702*
Y249452*
X106312Y248827*
X105999Y248514*
X105374Y248202*
X104749*
X104124Y248514*
X103812Y248827*
X103499Y249452*
X108523Y21434D02*
Y25184D01*
Y23309D02*
X111648D01*
Y21434D02*
Y25184D01*
X112248Y310729D02*
X111936Y310417D01*
X111311Y310104*
X110373*
X109748Y310417*
X109436Y310729*
X109123Y311354*
Y312604*
X109436Y313229*
X109748Y313542*
X110373Y313854*
X111311*
X111936Y313542*
X112248Y313229*
X111487Y321336D02*
Y325086D01*
Y323211D02*
X114612D01*
Y321336D02*
Y325086D01*
X115730Y331820D02*
Y335570D01*
Y333695D02*
X118855D01*
Y331820D02*
Y335570D01*
X116728Y122028D02*
Y123278D01*
X117041Y123903*
X117354Y124215*
X117978Y124528*
X118604*
X119228Y124215*
X119541Y123903*
X119854Y123278*
Y122028*
X119541Y121403*
X119228Y121090*
X118604Y120778*
X117978*
X117354Y121090*
X117041Y121403*
X116728Y122028*
X118600Y194911D02*
Y198661D01*
Y196786D02*
X121726D01*
Y194911D02*
Y198661D01*
X118849Y350602D02*
Y346852D01*
X121974*
X122344Y126019D02*
Y129769D01*
Y127894D02*
X125470D01*
Y126019D02*
Y129769D01*
X123343Y120530D02*
Y121780D01*
X123656Y122405*
X123968Y122718*
X124593Y123030*
X125218*
X125843Y122718*
X126156Y122405*
X126468Y121780*
Y120530*
X126156Y119905*
X125843Y119593*
X125218Y119280*
X124593*
X123968Y119593*
X123656Y119905*
X123343Y120530*
X125714Y158720D02*
Y159970D01*
X126027Y160595*
X126339Y160907*
X126964Y161220*
X127589*
X128214Y160907*
X128527Y160595*
X128839Y159970*
Y158720*
X128527Y158095*
X128214Y157782*
X127589Y157470*
X126964*
X126339Y157782*
X126027Y158095*
X125714Y158720*
X126338Y54507D02*
Y58257D01*
Y56382D02*
X129463D01*
Y54507D02*
Y58257D01*
X126723Y350602D02*
Y346852D01*
X129848*
X127212Y335314D02*
Y339064D01*
Y337189D02*
X130337D01*
Y335314D02*
Y339064D01*
X127711Y21551D02*
Y25301D01*
Y23426D02*
X130836D01*
Y21551D02*
Y25301D01*
Y32176D02*
X130524Y31864D01*
X129898Y31551*
X128961*
X128336Y31864*
X128024Y32176*
X127711Y32801*
Y34051*
X128024Y34676*
X128336Y34989*
X128961Y35301*
X129898*
X130524Y34989*
X130836Y34676*
X128709Y44648D02*
Y48398D01*
Y46523D02*
X131835D01*
Y44648D02*
Y48398D01*
X128959Y120904D02*
Y122154D01*
X129272Y122780*
X129584Y123092*
X130209Y123404*
X130834*
X131459Y123092*
X131772Y122780*
X132084Y122154*
Y120904*
X131772Y120280*
X131459Y119967*
X130834Y119654*
X130209*
X129584Y119967*
X129272Y120280*
X128959Y120904*
X133327Y191917D02*
Y193167D01*
X133640Y193793*
X133952Y194105*
X134577Y194417*
X135202*
X135827Y194105*
X136140Y193793*
X136452Y193167*
Y191917*
X136140Y191293*
X135827Y190980*
X135202Y190667*
X134577*
X133952Y190980*
X133640Y191293*
X133327Y191917*
X135449Y167331D02*
Y168581D01*
X135761Y169206*
X136074Y169519*
X136699Y169831*
X137324*
X137949Y169519*
X138261Y169206*
X138574Y168581*
Y167331*
X138261Y166706*
X137949Y166394*
X137324Y166081*
X136699*
X136074Y166394*
X135761Y166706*
X135449Y167331*
X137196Y209390D02*
Y210640D01*
X137509Y211265*
X137821Y211578*
X138446Y211890*
X139071*
X139696Y211578*
X140009Y211265*
X140321Y210640*
Y209390*
X140009Y208765*
X139696Y208452*
X139071Y208140*
X138446*
X137821Y208452*
X137509Y208765*
X137196Y209390*
X137446Y269293D02*
Y273043D01*
Y271169D02*
X140571D01*
Y269293D02*
Y273043D01*
X138819Y44398D02*
Y48148D01*
Y46273D02*
X141944D01*
Y44398D02*
Y48148D01*
X140316Y21551D02*
Y25301D01*
Y23426D02*
X143441D01*
Y21551D02*
Y25301D01*
Y32176D02*
X143129Y31864D01*
X142504Y31551*
X141566*
X140941Y31864*
X140629Y32176*
X140316Y32801*
Y34051*
X140629Y34676*
X140941Y34989*
X141566Y35301*
X142504*
X143129Y34989*
X143441Y34676*
X142937Y118907D02*
Y120157D01*
X143250Y120783*
X143562Y121095*
X144187Y121407*
X144812*
X145437Y121095*
X145750Y120783*
X146062Y120157*
Y118907*
X145750Y118283*
X145437Y117970*
X144812Y117657*
X144187*
X143562Y117970*
X143250Y118283*
X142937Y118907*
X143286Y352352D02*
Y356102D01*
Y354227D02*
X146411D01*
Y352352D02*
Y356102D01*
X143686Y60498D02*
Y64248D01*
Y62373D02*
X146811D01*
Y60498D02*
Y64248D01*
X145683Y219748D02*
Y220998D01*
X145995Y221624*
X146308Y221936*
X146933Y222248*
X147558*
X148183Y221936*
X148495Y221624*
X148808Y220998*
Y219748*
X148495Y219124*
X148183Y218811*
X147558Y218498*
X146933*
X146308Y218811*
X145995Y219124*
X145683Y219748*
X146806Y187799D02*
Y189049D01*
X147119Y189674*
X147431Y189987*
X148056Y190299*
X148681*
X149306Y189987*
X149619Y189674*
X149931Y189049*
Y187799*
X149619Y187174*
X149306Y186861*
X148681Y186549*
X148056*
X147431Y186861*
X147119Y187174*
X146806Y187799*
X150924Y215505D02*
Y216755D01*
X151237Y217380*
X151550Y217693*
X152174Y218005*
X152800*
X153424Y217693*
X153737Y217380*
X154050Y216755*
Y215505*
X153737Y214880*
X153424Y214568*
X152800Y214255*
X152174*
X151550Y214568*
X151237Y214880*
X150924Y215505*
X156411Y352977D02*
X156099Y352664D01*
X155474Y352352*
X154536*
X153911Y352664*
X153599Y352977*
X153286Y353602*
Y354852*
X153599Y355477*
X153911Y355789*
X154536Y356102*
X155474*
X156099Y355789*
X156411Y355477*
X153296Y94196D02*
Y95446D01*
X153608Y96072*
X153921Y96384*
X154546Y96696*
X155171*
X155796Y96384*
X156108Y96072*
X156421Y95446*
Y94196*
X156108Y93572*
X155796Y93259*
X155171Y92946*
X154546*
X153921Y93259*
X153608Y93572*
X153296Y94196*
X153670Y132761D02*
Y134011D01*
X153983Y134636*
X154295Y134948*
X154920Y135261*
X155545*
X156170Y134948*
X156483Y134636*
X156795Y134011*
Y132761*
X156483Y132136*
X156170Y131823*
X155545Y131511*
X154920*
X154295Y131823*
X153983Y132136*
X153670Y132761*
X157664Y58750D02*
Y62500D01*
Y60626D02*
X160789D01*
Y58750D02*
Y62500D01*
X157913Y48267D02*
Y52017D01*
Y50142D02*
X161039D01*
Y48267D02*
Y52017D01*
X158038Y268794D02*
Y272544D01*
Y270669D02*
X161163D01*
Y268794D02*
Y272544D01*
X159138Y22433D02*
Y26183D01*
Y24308D02*
X162263D01*
Y22433D02*
Y26183D01*
X159138Y34539D02*
Y38289D01*
Y36414D02*
X162263D01*
Y34539D02*
Y38289D01*
X159786Y340352D02*
Y344102D01*
Y342227D02*
X162911D01*
Y340352D02*
Y344102D01*
X160286Y327852D02*
Y331602D01*
Y329727D02*
X163411D01*
Y327852D02*
Y331602D01*
X161286Y303352D02*
Y307102D01*
Y305227D02*
X164411D01*
Y303352D02*
Y307102D01*
X161907Y194911D02*
Y198661D01*
Y196786D02*
X165032D01*
Y194911D02*
Y198661D01*
X164793Y115778D02*
Y119528D01*
Y117653D02*
X167918D01*
Y115778D02*
Y119528D01*
Y126403D02*
X167605Y126090D01*
X166980Y125778*
X166043*
X165418Y126090*
X165105Y126403*
X164793Y127028*
Y128278*
X165105Y128903*
X165418Y129215*
X166043Y129528*
X166980*
X167605Y129215*
X167918Y128903*
X165396Y278602D02*
Y279852D01*
X165709Y280477*
X166022Y280789*
X166646Y281102*
X167272*
X167896Y280789*
X168209Y280477*
X168522Y279852*
Y278602*
X168209Y277977*
X167896Y277664*
X167272Y277352*
X166646*
X166022Y277664*
X165709Y277977*
X165396Y278602*
X166400Y150857D02*
Y152107D01*
X166713Y152732*
X167025Y153045*
X167650Y153357*
X168275*
X168900Y153045*
X169213Y152732*
X169525Y152107*
Y150857*
X169213Y150232*
X168900Y149920*
X168275Y149607*
X167650*
X167025Y149920*
X166713Y150232*
X166400Y150857*
X168286Y274102D02*
Y275352D01*
X168599Y275977*
X168911Y276289*
X169536Y276602*
X170161*
X170786Y276289*
X171099Y275977*
X171411Y275352*
Y274102*
X171099Y273477*
X170786Y273164*
X170161Y272852*
X169536*
X168911Y273164*
X168599Y273477*
X168286Y274102*
X169138Y22433D02*
Y26183D01*
Y24308D02*
X172263D01*
Y22433D02*
Y26183D01*
X169138Y34788D02*
Y38538D01*
Y36663D02*
X172263D01*
Y34788D02*
Y38538D01*
X170786Y352352D02*
Y356102D01*
Y354227D02*
X173911D01*
Y352352D02*
Y356102D01*
X173639Y155974D02*
Y157224D01*
X173951Y157849*
X174264Y158162*
X174889Y158474*
X175514*
X176139Y158162*
X176451Y157849*
X176764Y157224*
Y155974*
X176451Y155349*
X176139Y155037*
X175514Y154724*
X174889*
X174264Y155037*
X173951Y155349*
X173639Y155974*
X175136Y159968D02*
Y161218D01*
X175449Y161843*
X175761Y162156*
X176386Y162468*
X177011*
X177636Y162156*
X177949Y161843*
X178261Y161218*
Y159968*
X177949Y159343*
X177636Y159030*
X177011Y158718*
X176386*
X175761Y159030*
X175449Y159343*
X175136Y159968*
X175511Y144118D02*
Y145368D01*
X175823Y145993*
X176136Y146306*
X176761Y146618*
X177386*
X178011Y146306*
X178323Y145993*
X178636Y145368*
Y144118*
X178323Y143493*
X178011Y143180*
X177386Y142868*
X176761*
X176136Y143180*
X175823Y143493*
X175511Y144118*
X176399Y115778D02*
Y119528D01*
Y117653D02*
X179524D01*
Y115778D02*
Y119528D01*
Y126403D02*
X179212Y126090D01*
X178587Y125778*
X177649*
X177024Y126090*
X176712Y126403*
X176399Y127028*
Y128278*
X176712Y128903*
X177024Y129215*
X177649Y129528*
X178587*
X179212Y129215*
X179524Y128903*
X176786Y362852D02*
Y366602D01*
Y364727D02*
X179911D01*
Y362852D02*
Y366602D01*
X179130Y34788D02*
Y38538D01*
Y36663D02*
X182255D01*
Y34788D02*
Y38538D01*
X179138Y22433D02*
Y26183D01*
Y24308D02*
X182263D01*
Y22433D02*
Y26183D01*
X183911Y352977D02*
X183599Y352664D01*
X182974Y352352*
X182036*
X181411Y352664*
X181099Y352977*
X180786Y353602*
Y354852*
X181099Y355477*
X181411Y355789*
X182036Y356102*
X182974*
X183599Y355789*
X183911Y355477*
X183872Y274785D02*
Y278535D01*
Y276660D02*
X186998D01*
Y274785D02*
Y278535D01*
X187617Y203649D02*
Y204899D01*
X187929Y205524*
X188242Y205837*
X188867Y206149*
X189492*
X190117Y205837*
X190429Y205524*
X190742Y204899*
Y203649*
X190429Y203024*
X190117Y202711*
X189492Y202399*
X188867*
X188242Y202711*
X187929Y203024*
X187617Y203649*
X188241Y210638D02*
Y211888D01*
X188553Y212513*
X188866Y212826*
X189491Y213138*
X190116*
X190741Y212826*
X191053Y212513*
X191366Y211888*
Y210638*
X191053Y210013*
X190741Y209700*
X190116Y209388*
X189491*
X188866Y209700*
X188553Y210013*
X188241Y210638*
X189138Y22433D02*
Y26183D01*
Y24308D02*
X192263D01*
Y22433D02*
Y26183D01*
X189138Y34788D02*
Y38538D01*
Y36663D02*
X192263D01*
Y34788D02*
Y38538D01*
X192359Y80591D02*
Y84341D01*
Y82466D02*
X195484D01*
Y80591D02*
Y84341D01*
X193482Y194411D02*
Y198161D01*
Y196287D02*
X196607D01*
Y194411D02*
Y198161D01*
X197286Y311352D02*
Y315102D01*
Y313227D02*
X200411D01*
Y311352D02*
Y315102D01*
X199536Y352352D02*
Y356102D01*
Y354227D02*
X202661D01*
Y352352D02*
Y356102D01*
X200471Y156596D02*
Y160346D01*
Y158471D02*
X203596D01*
Y156596D02*
Y160346D01*
X203721Y135622D02*
X203409Y135310D01*
X202783Y134997*
X201846*
X201221Y135310*
X200909Y135622*
X200596Y136247*
Y137497*
X200909Y138122*
X201221Y138435*
X201846Y138747*
X202783*
X203409Y138435*
X203721Y138122*
X200596Y144997D02*
Y148747D01*
Y146872D02*
X203721D01*
Y144997D02*
Y148747D01*
X200721Y123149D02*
Y126899D01*
Y125024D02*
X203846D01*
Y123149D02*
Y126899D01*
X201345Y274535D02*
Y278285D01*
Y276410D02*
X204470D01*
Y274535D02*
Y278285D01*
X201470Y59998D02*
Y63748D01*
Y61874D02*
X204595D01*
Y59998D02*
Y63748D01*
X201470Y75355D02*
Y79105D01*
Y77230D02*
X204595D01*
Y75355D02*
Y79105D01*
X202094Y264426D02*
Y268176D01*
Y266301D02*
X205219D01*
Y264426D02*
Y268176D01*
X205838Y106552D02*
Y107802D01*
X206150Y108427*
X206463Y108740*
X207088Y109052*
X207713*
X208338Y108740*
X208650Y108427*
X208963Y107802*
Y106552*
X208650Y105927*
X208338Y105615*
X207713Y105302*
X207088*
X206463Y105615*
X206150Y105927*
X205838Y106552*
X206087Y203023D02*
Y206773D01*
Y204898D02*
X209213D01*
Y203023D02*
Y206773D01*
X206587Y216502D02*
Y220252D01*
Y218377D02*
X209712D01*
Y216502D02*
Y220252D01*
X207335Y180810D02*
Y182060D01*
X207648Y182685*
X207961Y182998*
X208585Y183310*
X209211*
X209835Y182998*
X210148Y182685*
X210461Y182060*
Y180810*
X210148Y180185*
X209835Y179872*
X209211Y179560*
X208585*
X207961Y179872*
X207648Y180185*
X207335Y180810*
X208209Y233241D02*
Y236991D01*
Y235117D02*
X211334D01*
Y233241D02*
Y236991D01*
X212661Y352977D02*
X212349Y352664D01*
X211724Y352352*
X210786*
X210161Y352664*
X209849Y352977*
X209536Y353602*
Y354852*
X209849Y355477*
X210161Y355789*
X210786Y356102*
X211724*
X212349Y355789*
X212661Y355477*
X216202Y135622D02*
X215889Y135310D01*
X215264Y134997*
X214326*
X213702Y135310*
X213389Y135622*
X213076Y136247*
Y137497*
X213389Y138122*
X213702Y138435*
X214326Y138747*
X215264*
X215889Y138435*
X216202Y138122*
X213076Y144997D02*
Y148747D01*
Y146872D02*
X216202D01*
Y144997D02*
Y148747D01*
X213076Y155223D02*
Y158973D01*
Y157098D02*
X216202D01*
Y155223D02*
Y158973D01*
X213326Y121901D02*
Y125651D01*
Y123776D02*
X216451D01*
Y121901D02*
Y125651D01*
X215323Y257936D02*
Y261686D01*
Y259811D02*
X218448D01*
Y257936D02*
Y261686D01*
X215323Y270541D02*
Y274291D01*
Y272417D02*
X218448D01*
Y270541D02*
Y274291D01*
X216321Y201400D02*
Y205150D01*
Y203276D02*
X219446D01*
Y201400D02*
Y205150D01*
X217070Y216377D02*
Y220127D01*
Y218252D02*
X220195D01*
Y216377D02*
Y220127D01*
X217195Y210638D02*
Y211888D01*
X217507Y212513*
X217820Y212826*
X218445Y213138*
X219070*
X219695Y212826*
X220007Y212513*
X220320Y211888*
Y210638*
X220007Y210013*
X219695Y209700*
X219070Y209388*
X218445*
X217820Y209700*
X217507Y210013*
X217195Y210638*
X218069Y234723D02*
Y238473D01*
Y236598D02*
X221194D01*
Y234723D02*
Y238473D01*
X221064Y75349D02*
Y79099D01*
Y77224D02*
X224189D01*
Y75349D02*
Y79099D01*
X221563Y52635D02*
Y56385D01*
Y54510D02*
X224688D01*
Y52635D02*
Y56385D01*
X224059Y248202D02*
Y251952D01*
Y250077D02*
X227184D01*
Y248202D02*
Y251952D01*
X224433Y316219D02*
Y319969D01*
Y318094D02*
X227559D01*
Y316219D02*
Y319969D01*
X225182Y118032D02*
Y121782D01*
Y119907D02*
X228307D01*
Y118032D02*
Y121782D01*
X225307Y155972D02*
Y159722D01*
Y157847D02*
X228432D01*
Y155972D02*
Y159722D01*
X228807Y135622D02*
X228494Y135310D01*
X227869Y134997*
X226931*
X226307Y135310*
X225994Y135622*
X225681Y136247*
Y137497*
X225994Y138122*
X226307Y138435*
X226931Y138747*
X227869*
X228494Y138435*
X228807Y138122*
X225681Y144997D02*
Y148747D01*
Y146872D02*
X228807D01*
Y144997D02*
Y148747D01*
X230055Y197026D02*
X229742Y196713D01*
X229117Y196400*
X228180*
X227555Y196713*
X227242Y197026*
X226930Y197650*
Y198900*
X227242Y199526*
X227555Y199838*
X228180Y200150*
X229117*
X229742Y199838*
X230055Y199526*
X226930Y206400D02*
Y210150D01*
Y208276D02*
X230055D01*
Y206400D02*
Y210150D01*
X227296Y219746D02*
Y223496D01*
Y221622D02*
X230421D01*
Y219746D02*
Y223496D01*
X228286Y335352D02*
Y339102D01*
Y337227D02*
X231411D01*
Y335352D02*
Y339102D01*
X236914Y108547D02*
Y112297D01*
Y110422D02*
X240039D01*
Y108547D02*
Y112297D01*
X237288Y141994D02*
Y145744D01*
Y143869D02*
X240413D01*
Y141994D02*
Y145744D01*
X240421Y220372D02*
X240109Y220059D01*
X239483Y219746*
X238546*
X237921Y220059*
X237609Y220372*
X237296Y220996*
Y222246*
X237609Y222872*
X237921Y223184*
X238546Y223496*
X239483*
X240109Y223184*
X240421Y222872*
X238786Y205519D02*
Y209269D01*
Y207394D02*
X241911D01*
Y205519D02*
Y209269D01*
X241656Y122774D02*
Y126524D01*
Y124650D02*
X244781D01*
Y122774D02*
Y126524D01*
X242405Y166707D02*
Y167957D01*
X242718Y168582*
X243030Y168895*
X243655Y169207*
X244280*
X244905Y168895*
X245218Y168582*
X245530Y167957*
Y166707*
X245218Y166082*
X244905Y165770*
X244280Y165457*
X243655*
X243030Y165770*
X242718Y166082*
X242405Y166707*
X244152Y52635D02*
Y56385D01*
Y54510D02*
X247278D01*
Y52635D02*
Y56385D01*
X249144Y350602D02*
Y354352D01*
X250707Y352477*
X252270Y354352*
Y350602*
X253263Y140873D02*
Y142123D01*
X253576Y142748*
X253888Y143061*
X254513Y143373*
X255138*
X255763Y143061*
X256076Y142748*
X256388Y142123*
Y140873*
X256076Y140248*
X255763Y139935*
X255138Y139623*
X254513*
X253888Y139935*
X253576Y140248*
X253263Y140873*
X253887Y264925D02*
Y268675D01*
Y266800D02*
X257012D01*
Y264925D02*
Y268675D01*
X254012Y97816D02*
Y99066D01*
X254324Y99691*
X254637Y100004*
X255262Y100316*
X255887*
X256512Y100004*
X256824Y99691*
X257137Y99066*
Y97816*
X256824Y97191*
X256512Y96878*
X255887Y96566*
X255262*
X254637Y96878*
X254324Y97191*
X254012Y97816*
X260537Y351227D02*
X260225Y350914D01*
X259600Y350602*
X258662*
X258037Y350914*
X257725Y351227*
X257412Y351852*
Y353102*
X257725Y353727*
X258037Y354039*
X258662Y354352*
X259600*
X260225Y354039*
X260537Y353727*
X261375Y136877D02*
Y140627D01*
Y138752D02*
X264500D01*
Y136877D02*
Y140627D01*
X268411Y351227D02*
X268099Y350914D01*
X267474Y350602*
X266536*
X265911Y350914*
X265599Y351227*
X265286Y351852*
Y353102*
X265599Y353727*
X265911Y354039*
X266536Y354352*
X267474*
X268099Y354039*
X268411Y353727*
X272661Y287634D02*
X272349Y287322D01*
X271724Y287009*
X270786*
X270161Y287322*
X269849Y287634*
X269536Y288259*
Y289509*
X269849Y290134*
X270161Y290447*
X270786Y290759*
X271724*
X272349Y290447*
X272661Y290134*
Y307319D02*
X272349Y307007D01*
X271724Y306694*
X270786*
X270161Y307007*
X269849Y307319*
X269536Y307944*
Y309194*
X269849Y309819*
X270161Y310132*
X270786Y310444*
X271724*
X272349Y310132*
X272661Y309819*
X269987Y91326D02*
Y92576D01*
X270299Y93201*
X270612Y93514*
X271237Y93826*
X271862*
X272487Y93514*
X272799Y93201*
X273112Y92576*
Y91326*
X272799Y90701*
X272487Y90389*
X271862Y90076*
X271237*
X270612Y90389*
X270299Y90701*
X269987Y91326*
Y113541D02*
Y114791D01*
X270299Y115416*
X270612Y115729*
X271237Y116041*
X271862*
X272487Y115729*
X272799Y115416*
X273112Y114791*
Y113541*
X272799Y112916*
X272487Y112604*
X271862Y112291*
X271237*
X270612Y112604*
X270299Y112916*
X269987Y113541*
Y132012D02*
Y133262D01*
X270299Y133887*
X270612Y134200*
X271237Y134512*
X271862*
X272487Y134200*
X272799Y133887*
X273112Y133262*
Y132012*
X272799Y131387*
X272487Y131074*
X271862Y130762*
X271237*
X270612Y131074*
X270299Y131387*
X269987Y132012*
X273160Y320352D02*
Y324102D01*
Y322227D02*
X276285D01*
Y320352D02*
Y324102D01*
Y351227D02*
X275973Y350914D01*
X275348Y350602*
X274410*
X273785Y350914*
X273473Y351227*
X273160Y351852*
Y353102*
X273473Y353727*
X273785Y354039*
X274410Y354352*
X275348*
X275973Y354039*
X276285Y353727*
X281428Y350602D02*
Y354352D01*
X282991Y352477*
X284553Y354352*
Y350602*
X282342Y271665D02*
Y275415D01*
Y273540D02*
X285467D01*
Y271665D02*
Y275415D01*
X307428Y262679D02*
Y266429D01*
Y264554D02*
X310553D01*
Y262679D02*
Y266429D01*
X308551Y91825D02*
Y93075D01*
X308863Y93700*
X309176Y94013*
X309801Y94325*
X310426*
X311051Y94013*
X311363Y93700*
X311676Y93075*
Y91825*
X311363Y91200*
X311051Y90888*
X310426Y90575*
X309801*
X309176Y90888*
X308863Y91200*
X308551Y91825*
X320033Y113416D02*
Y114666D01*
X320345Y115291*
X320658Y115604*
X321283Y115916*
X321908*
X322533Y115604*
X322845Y115291*
X323158Y114666*
Y113416*
X322845Y112791*
X322533Y112479*
X321908Y112166*
X321283*
X320658Y112479*
X320345Y112791*
X320033Y113416*
X321786Y264352D02*
Y268102D01*
Y266227D02*
X324911D01*
Y264352D02*
Y268102D01*
X321786Y274352D02*
Y278102D01*
Y276227D02*
X324911D01*
Y274352D02*
Y278102D01*
X321786Y284352D02*
Y288102D01*
Y286227D02*
X324911D01*
Y284352D02*
Y288102D01*
X321786Y294352D02*
Y298102D01*
Y296227D02*
X324911D01*
Y294352D02*
Y298102D01*
X321786Y304352D02*
Y308102D01*
Y306227D02*
X324911D01*
Y304352D02*
Y308102D01*
X321786Y314352D02*
Y318102D01*
Y316227D02*
X324911D01*
Y314352D02*
Y318102D01*
X321786Y324352D02*
Y328102D01*
Y326227D02*
X324911D01*
Y324352D02*
Y328102D01*
X321786Y334352D02*
Y338102D01*
Y336227D02*
X324911D01*
Y334352D02*
Y338102D01*
X328394Y137751D02*
Y141501D01*
Y139626D02*
X331520D01*
Y137751D02*
Y141501D01*
X330891Y215378D02*
Y219128D01*
Y217254D02*
X334016D01*
Y215378D02*
Y219128D01*
X331015Y178187D02*
Y181937D01*
Y180062D02*
X334141D01*
Y178187D02*
Y181937D01*
X331015Y197781D02*
Y201531D01*
Y199656D02*
X334141D01*
Y197781D02*
Y201531D01*
X331015Y252570D02*
Y256320D01*
Y254445D02*
X334141D01*
Y252570D02*
Y256320D01*
X331515Y128268D02*
Y129518D01*
X331827Y130143*
X332140Y130456*
X332765Y130768*
X333390*
X334015Y130456*
X334327Y130143*
X334640Y129518*
Y128268*
X334327Y127643*
X334015Y127330*
X333390Y127018*
X332765*
X332140Y127330*
X331827Y127643*
X331515Y128268*
X331786Y264352D02*
Y268102D01*
Y266227D02*
X334911D01*
Y264352D02*
Y268102D01*
X331786Y274352D02*
Y278102D01*
Y276227D02*
X334911D01*
Y274352D02*
Y278102D01*
X331786Y284352D02*
Y288102D01*
Y286227D02*
X334911D01*
Y284352D02*
Y288102D01*
X331786Y294352D02*
Y298102D01*
Y296227D02*
X334911D01*
Y294352D02*
Y298102D01*
X331786Y304352D02*
Y308102D01*
Y306227D02*
X334911D01*
Y304352D02*
Y308102D01*
X331786Y314352D02*
Y318102D01*
Y316227D02*
X334911D01*
Y314352D02*
Y318102D01*
X331786Y324352D02*
Y328102D01*
Y326227D02*
X334911D01*
Y324352D02*
Y328102D01*
X331786Y334352D02*
Y338102D01*
Y336227D02*
X334911D01*
Y334352D02*
Y338102D01*
X332513Y61090D02*
Y64840D01*
Y62965D02*
X335638D01*
Y61090D02*
Y64840D01*
X332513Y71090D02*
Y74840D01*
Y72965D02*
X335638D01*
Y71090D02*
Y74840D01*
X332513Y81090D02*
Y84840D01*
Y82965D02*
X335638D01*
Y81090D02*
Y84840D01*
X332513Y91090D02*
Y94840D01*
Y92965D02*
X335638D01*
Y91090D02*
Y94840D01*
X332513Y101090D02*
Y104840D01*
Y102965D02*
X335638D01*
Y101090D02*
Y104840D01*
X334406Y19687D02*
Y23437D01*
X337531Y19687*
Y23437*
X334884Y363352D02*
Y367102D01*
X338009Y363352*
Y367102*
X0Y0D02*
M02*
