%FSLAX35Y35*%
%MOMM*%
G04 EasyPC Gerber Version 18.0.9 Build 3640 *
%AMT17*0 Octagon Pad at angle 0*4,1,8,-0.30300,-0.73200,0.30300,-0.73200,0.73200,-0.30300,0.73200,0.30300,0.30300,0.73200,-0.30300,0.73200,-0.73200,0.30300,-0.73200,-0.30300,-0.30300,-0.73200,0*%
%ADD17T17*%
%AMT20*0 Octagon Pad at angle 0*4,1,8,-0.38090,-0.92000,0.38090,-0.92000,0.92000,-0.38090,0.92000,0.38090,0.38090,0.92000,-0.38090,0.92000,-0.92000,0.38090,-0.92000,-0.38090,-0.38090,-0.92000,0*%
%ADD20T20*%
%ADD155R,0.15000X0.41000*%
%ADD159R,0.26000X0.99000*%
%ADD167R,0.29000X0.71500*%
%ADD164R,0.66000X1.29000*%
%ADD154R,0.74000X0.74000*%
%ADD84R,0.74000X1.14000*%
%ADD156R,0.84000X0.99000*%
%ADD173R,0.94000X0.94000*%
%ADD75R,0.94000X1.03000*%
%ADD175R,0.94000X1.34000*%
%ADD172R,0.99000X2.14000*%
%ADD174R,1.05400X1.74200*%
%ADD161R,1.15000X2.34000*%
%ADD166R,1.21000X1.21000*%
%ADD15R,1.64000X1.64000*%
%ADD16R,1.84000X1.84000*%
%ADD18R,1.94000X1.94000*%
%ADD86C,0.79000*%
%ADD13C,1.09000*%
%ADD71C,1.34000*%
%ADD14C,1.64000*%
%ADD70C,1.74000*%
%ADD12C,1.84000*%
%ADD19C,1.94000*%
%ADD10C,2.04000*%
%ADD11C,3.44000*%
%ADD158R,0.99000X0.26000*%
%ADD168R,0.71500X0.29000*%
%ADD148R,1.29000X0.34000*%
%ADD152R,0.84000X0.49000*%
%ADD163R,1.29000X0.66000*%
%ADD153R,0.74000X0.74000*%
%ADD85R,1.14000X0.74000*%
%ADD165R,1.14000X0.84000*%
%ADD171R,0.94000X0.94000*%
%ADD76R,1.03000X0.94000*%
%ADD169R,1.34000X0.94000*%
%ADD170R,2.14000X0.99000*%
%ADD162R,1.69000X1.34000*%
%ADD157R,3.04000X1.49000*%
%ADD160R,2.12000X1.54000*%
%ADD149R,1.84000X1.74000*%
X0Y0D02*
D02*
D10*
X1433160Y868720D03*
X1454640Y8074790D03*
X1518140Y8331790D03*
X1620190Y5585680D03*
X1734040Y9068390D03*
X1759670Y6045330D03*
X1848430Y5500090D03*
X1895980Y7627160D03*
X1956210Y5728330D03*
X1965720Y7858570D03*
X2225660Y6317950D03*
X2325080Y5633230D03*
X2336610Y5883660D03*
X2476090Y6482790D03*
X2704330Y8013900D03*
X2812110Y8280180D03*
X2885020Y4802690D03*
X2980120Y3052850D03*
X3081560Y1236440D03*
X3103750Y8368940D03*
X3141790Y986010D03*
X3363690Y6692010D03*
X3398560Y979670D03*
X3522190Y1388600D03*
X3877230Y1344220D03*
X3883570Y1077940D03*
X3914670Y729240D03*
X3931140Y8496890D03*
X3943840Y8179390D03*
X3969240Y7557090D03*
X3985010Y4802690D03*
X4168670Y735580D03*
X4362940Y9068390D03*
X4422470Y735580D03*
X4542930Y6831490D03*
X4676670Y735580D03*
X4758490Y1898970D03*
X4787020Y4790010D03*
X4883640Y7760290D03*
X4964540Y3829500D03*
X4970880Y2979940D03*
X4986730Y6825150D03*
X4989900Y1375920D03*
Y1765970D03*
X5005750Y6568380D03*
X5107190Y5008740D03*
X5161080Y5776290D03*
X5284710Y3794630D03*
X5291050Y2948240D03*
X5341770Y6403540D03*
Y6723710D03*
X5367130Y4967530D03*
X5386150Y5347930D03*
X5411510Y5813920D03*
X5487590Y1765830D03*
X5500270Y1188890D03*
X5563670Y6156280D03*
X5573180Y7883930D03*
X5592200Y2849970D03*
X5595370Y3813650D03*
X5671040Y8369890D03*
X5890180Y2609050D03*
X5899690Y3458610D03*
X5937730Y5072140D03*
X6010640Y2970430D03*
X6074040Y1188890D03*
X6321300Y6581060D03*
X6511500Y3328640D03*
X6810840Y7988890D03*
X7044060Y6752240D03*
X7681230Y6524000D03*
X8213790Y3350830D03*
X8277190Y5322570D03*
X8280360Y4377910D03*
Y4875600D03*
Y6267230D03*
D02*
D11*
X475820Y345670D03*
X478990Y9081090D03*
X8366490Y352010D03*
X8378630Y9081090D03*
D02*
D12*
X436560Y7733490D03*
Y8568490D03*
X1867050Y396390D03*
X2121050D03*
X2375050D03*
X2629050D03*
X4168670Y421750D03*
X4422670D03*
X4676670D03*
X8045940Y6566490D03*
Y6820490D03*
Y7074490D03*
Y7328490D03*
Y7582490D03*
Y7836490D03*
Y8090490D03*
X8299940Y6566490D03*
Y6820490D03*
Y7074490D03*
Y7328490D03*
Y7582490D03*
Y7836490D03*
Y8090490D03*
Y8344490D03*
X8318400Y1403650D03*
Y1657650D03*
Y1911650D03*
Y2165650D03*
D02*
D13*
X736560Y7928490D03*
Y8373490D03*
D02*
D14*
X2891340Y8661990D03*
D02*
D15*
X3091340D03*
D02*
D16*
X440950Y6891720D03*
X1613050Y396390D03*
X2390300Y7728600D03*
X3116430Y399360D03*
X3436600D03*
X3512040Y8801690D03*
X3886740Y6679330D03*
X3914670Y421750D03*
X4058300Y2792710D03*
X4210540Y8801690D03*
X4353110Y2792710D03*
X4940790Y8801690D03*
X4967710Y3534890D03*
X5119870Y5351100D03*
X5284710Y3534890D03*
X5604880D03*
X5636580Y5094530D03*
X5645890Y5433520D03*
X8045940Y8344490D03*
X8318400Y2419650D03*
D02*
D17*
X2644300Y7728600D03*
X3116430Y653360D03*
X3436600D03*
X3766040Y8801690D03*
X4058300Y3046710D03*
X4353110D03*
X4464540Y8801690D03*
X4967710Y3280890D03*
X5194790Y8801690D03*
X5284710Y3280890D03*
X5604880D03*
X5636580Y4840530D03*
X5899890Y5433520D03*
D02*
D18*
X6718790Y7141990D03*
D02*
D19*
Y7641990D03*
D02*
D70*
X6410840Y8757240D03*
X6610840D03*
X6810840D03*
D02*
D71*
X6200840D03*
X7020840D03*
D02*
D20*
X440950Y5875720D03*
Y6129720D03*
Y6383720D03*
Y6637720D03*
D02*
D75*
X472420Y2672310D03*
Y2850110D03*
X897200Y1375780D03*
Y1553580D03*
X1734040Y8325440D03*
Y8503240D03*
X3321540Y7164200D03*
Y7342000D03*
X3512040Y7817220D03*
Y7995020D03*
X3528530Y3927630D03*
Y4105430D03*
X3629970Y2596230D03*
Y2774030D03*
X3775790Y3423600D03*
Y3601400D03*
X3813830Y2818130D03*
Y2995930D03*
X3946970Y3290460D03*
Y3468260D03*
X4172440Y4606010D03*
Y4783810D03*
X4274040Y6466800D03*
Y6644600D03*
X4439140Y6466800D03*
Y6644600D03*
X4655040Y6466800D03*
Y6644600D03*
X4883640Y7084950D03*
Y7262750D03*
Y8128590D03*
Y8306390D03*
X5099540Y8128590D03*
Y8306390D03*
X5202290Y1588170D03*
Y1765970D03*
X5328140Y8128590D03*
Y8306390D03*
X5785570Y1689610D03*
Y1867410D03*
X5944070Y4282670D03*
Y4460470D03*
X6891900Y1970680D03*
Y2148480D03*
Y3043200D03*
Y3221000D03*
X6898240Y2522260D03*
Y2700060D03*
X7855580Y2522260D03*
Y2700060D03*
Y3033690D03*
Y3211490D03*
X7868260Y1970680D03*
Y2148480D03*
D02*
D76*
X1975340Y8509590D03*
X2000740Y8319090D03*
X2153140Y8509590D03*
X2178540Y8319090D03*
X2445770Y4889070D03*
Y5110970D03*
Y5300380D03*
X2623570Y4889070D03*
Y5110970D03*
Y5300380D03*
X2998420Y5835270D03*
Y6093080D03*
X3027530Y5626690D03*
X3033650Y4983380D03*
Y5207590D03*
Y5398090D03*
X3176220Y5835270D03*
Y6093080D03*
X3205330Y5626690D03*
X3211450Y4983380D03*
Y5207590D03*
Y5398090D03*
X3537440Y8496890D03*
X3715240D03*
X5160940Y6051670D03*
X5338740D03*
X6229230Y6134090D03*
X6407030D03*
X7839590Y6140430D03*
X8017390D03*
D02*
D84*
X558240Y2460060D03*
X678240D03*
X3674580Y3794630D03*
X3794580D03*
X5557560Y6403540D03*
X5570240Y6638120D03*
X5677560Y6403540D03*
X5690240Y6638120D03*
D02*
D85*
X3588760Y3008700D03*
Y3128700D03*
X3912100Y2393720D03*
Y2513720D03*
X5544040Y8757240D03*
Y8877240D03*
D02*
D86*
X1655060Y4897790D03*
X1997420Y6032650D03*
X2279550Y4121140D03*
X2501450Y6156280D03*
X2837470Y2919710D03*
X3005480Y2881670D03*
X3065710Y3851690D03*
X3148130Y2891180D03*
X3259080Y4694910D03*
X3312970Y4070420D03*
X3357350Y5138710D03*
X3503170Y2840460D03*
X3572910Y5401820D03*
X3601440Y4590300D03*
X3706050Y5294040D03*
X3766280Y2212800D03*
X3775790Y3192330D03*
X4073640Y6896690D03*
X4099130Y3651980D03*
X4147040Y6782390D03*
X4282990Y3781950D03*
X4321030Y3883390D03*
X4330540Y3480800D03*
X4638030Y4992890D03*
X4653880Y5170410D03*
X5100850Y2526630D03*
X5138890Y4412780D03*
X5389320Y5170410D03*
X6029660Y4054570D03*
X6305450Y3398380D03*
X6324470Y2304730D03*
X6730230Y2139890D03*
Y2704150D03*
Y3173310D03*
X7709760Y2152570D03*
X8001400Y2700980D03*
X8293040Y3078210D03*
D02*
D148*
X704060Y8020990D03*
Y8085990D03*
Y8150990D03*
Y8215990D03*
Y8280990D03*
D02*
D149*
X436560Y8035990D03*
Y8265990D03*
D02*
D152*
X2121390Y8725740D03*
Y8915740D03*
X2400790Y8725740D03*
Y8820740D03*
Y8915740D03*
D02*
D153*
X735530Y1430040D03*
Y1550040D03*
X1692140Y8750890D03*
X1842140D03*
D02*
D154*
X2381740Y8357040D03*
Y8507040D03*
D02*
D155*
X2414560Y9074740D03*
X2480560D03*
D02*
D156*
X4171040Y8377790D03*
X4401040D03*
X4631040D03*
D02*
D157*
X4401040Y7777790D03*
D02*
D158*
X3826140Y5326290D03*
Y5376290D03*
Y5426290D03*
Y5476290D03*
Y5526290D03*
Y5576290D03*
Y5626290D03*
Y5676290D03*
Y5726290D03*
Y5776290D03*
Y5826290D03*
Y5876290D03*
X4671140Y5326290D03*
Y5376290D03*
Y5426290D03*
Y5476290D03*
Y5526290D03*
Y5576290D03*
Y5626290D03*
Y5676290D03*
Y5726290D03*
Y5776290D03*
Y5826290D03*
Y5876290D03*
D02*
D159*
X3973640Y5178790D03*
Y6023790D03*
X4023640Y5178790D03*
Y6023790D03*
X4073640Y5178790D03*
Y6023790D03*
X4123640Y5178790D03*
Y6023790D03*
X4173640Y5178790D03*
Y6023790D03*
X4223640Y5178790D03*
Y6023790D03*
X4273640Y5178790D03*
Y6023790D03*
X4323640Y5178790D03*
Y6023790D03*
X4373640Y5178790D03*
Y6023790D03*
X4423640Y5178790D03*
Y6023790D03*
X4473640Y5178790D03*
Y6023790D03*
X4523640Y5178790D03*
Y6023790D03*
D02*
D160*
X916100Y4777330D03*
Y5186260D03*
X1836100Y4777330D03*
Y5186260D03*
X1876610Y1128660D03*
X2796610D03*
X3712440Y7239590D03*
X4632440D03*
X5734500Y5817090D03*
X6654500D03*
X7097600Y5810750D03*
X8017600D03*
D02*
D161*
X3097740Y7921970D03*
X3316740D03*
D02*
D162*
X3455620Y5841080D03*
Y6091080D03*
D02*
D163*
X1002930Y2347950D03*
Y2447950D03*
Y2547950D03*
Y2647950D03*
Y2747950D03*
Y2847950D03*
Y2947950D03*
Y3047950D03*
Y3147950D03*
Y3247950D03*
Y3347950D03*
Y3447950D03*
Y3547950D03*
Y3647950D03*
Y3747950D03*
Y3847950D03*
Y3947950D03*
X3327930Y2347950D03*
Y2447950D03*
Y2547950D03*
Y2647950D03*
Y2747950D03*
Y2847950D03*
Y2947950D03*
Y3047950D03*
Y3147950D03*
Y3247950D03*
Y3347950D03*
Y3447950D03*
Y3547950D03*
Y3647950D03*
Y3747950D03*
Y3847950D03*
Y3947950D03*
D02*
D164*
X1365430Y1985450D03*
Y4310450D03*
X1465430Y1985450D03*
Y4310450D03*
X1565430Y1985450D03*
Y4310450D03*
X1665430Y1985450D03*
Y4310450D03*
X1765430Y1985450D03*
Y4310450D03*
X1865430Y1985450D03*
Y4310450D03*
X1965430Y1985450D03*
Y4310450D03*
X2065430Y1985450D03*
Y4310450D03*
X2165430Y1985450D03*
Y4310450D03*
X2265430Y1985450D03*
Y4310450D03*
X2365430Y1985450D03*
Y4310450D03*
X2465430Y1985450D03*
Y4310450D03*
X2565430Y1985450D03*
Y4310450D03*
X2665430Y1985450D03*
Y4310450D03*
X2765430Y1985450D03*
Y4310450D03*
X2865430Y1985450D03*
Y4310450D03*
X2965430Y1985450D03*
Y4310450D03*
D02*
D165*
X6275620Y3650780D03*
Y3777780D03*
Y3904780D03*
Y4539780D03*
Y4666780D03*
Y4793780D03*
Y4920780D03*
Y5047780D03*
Y5174780D03*
X7926620Y3650780D03*
Y3777780D03*
Y3904780D03*
Y4031780D03*
Y4158780D03*
Y4285780D03*
Y4412780D03*
Y4539780D03*
Y4666780D03*
Y4793780D03*
Y4920780D03*
Y5047780D03*
Y5174780D03*
D02*
D166*
X6720120Y3842280D03*
Y4983280D03*
X6974120Y3842280D03*
Y4983280D03*
X7228120Y3842280D03*
Y4983280D03*
X7482120Y3842280D03*
Y4983280D03*
D02*
D167*
X5268670Y2051320D03*
Y2253820D03*
X5318670Y2051320D03*
Y2253820D03*
X5368670Y2051320D03*
Y2253820D03*
D02*
D168*
X5192420Y2077570D03*
Y2127570D03*
Y2177570D03*
Y2227570D03*
X5444920Y2077570D03*
Y2127570D03*
Y2177570D03*
Y2227570D03*
D02*
D169*
X500560Y1807140D03*
Y1997140D03*
X710560Y1902140D03*
D02*
D170*
X626130Y3808800D03*
Y4103800D03*
D02*
D171*
X776130Y3956300D03*
D02*
D172*
X1313240Y1611820D03*
X1608240D03*
X2619280Y1621330D03*
X2914280D03*
D02*
D173*
X1460740Y1761820D03*
X2766780Y1771330D03*
D02*
D174*
X2350390Y4618830D03*
X2665190D03*
D02*
D175*
X7254200Y1960920D03*
Y2506160D03*
Y3049290D03*
X7349200Y2170920D03*
Y2716160D03*
Y3259290D03*
X7444200Y1960920D03*
Y2506160D03*
Y3049290D03*
X0Y0D02*
M02*
