%FSLAX35Y35*%
%MOIN*%
G04 EasyPC Gerber Version 18.0.9 Build 3640 *
%ADD24C,0.00500*%
%ADD23C,0.10000*%
X0Y0D02*
D02*
D23*
X11469Y406411D03*
Y439285D03*
X13750Y459467D03*
X23280Y414089D03*
Y431608D03*
X34250Y419848D03*
Y427848D03*
X44250Y458967D03*
X89813Y430467D03*
Y442967D03*
X97687D03*
Y454904D03*
X114250Y448467D03*
X124250D03*
X130750Y436467D03*
X131250Y423967D03*
X141750Y448467D03*
X147750Y458967D03*
X151750Y448467D03*
X170500D03*
X180500D03*
X197250Y415467D03*
X199250Y431467D03*
X211858Y446717D03*
X220126D03*
X228000D03*
X235874D03*
X240500Y383124D03*
Y402809D03*
X244142Y446717D03*
X292750Y360467D03*
Y370467D03*
Y380467D03*
Y390467D03*
Y400467D03*
Y410467D03*
Y420467D03*
Y430467D03*
X302750Y360467D03*
Y370467D03*
Y380467D03*
Y390467D03*
Y400467D03*
Y410467D03*
Y420467D03*
Y430467D03*
X304750Y459467D03*
D02*
D24*
X21469Y412974D02*
X21781Y412661D01*
X22406Y412349*
X23031Y412661*
X23344Y412974*
Y416099*
X23969*
X23344D02*
X22094D01*
X21469Y445848D02*
X21781Y445535D01*
X22406Y445223*
X23031Y445535*
X23344Y445848*
Y448973*
X23969*
X23344D02*
X22094D01*
X23750Y465404D02*
Y469154D01*
X26875Y465404*
Y469154*
X33280Y420026D02*
Y423776D01*
Y421901D02*
X34217D01*
X36405Y423776*
X34217Y421901D02*
X36405Y420026D01*
X33280Y437546D02*
Y441296D01*
Y439421D02*
X34217D01*
X36405Y441296*
X34217Y439421D02*
X36405Y437546D01*
X44250Y425786D02*
Y429536D01*
Y427661D02*
X47375D01*
Y425786D02*
Y429536D01*
X44250Y433786D02*
Y437536D01*
Y435661D02*
X47375D01*
Y433786D02*
Y437536D01*
X54250Y464904D02*
Y468654D01*
Y466779D02*
X57375D01*
Y464904D02*
Y468654D01*
X99813Y436404D02*
Y440154D01*
Y438279D02*
X102938D01*
Y436404D02*
Y440154D01*
X99813Y452654D02*
Y448904D01*
X102938*
X107687Y452654D02*
Y448904D01*
X110812*
X107687Y460841D02*
Y464591D01*
Y462716D02*
X110812D01*
Y460841D02*
Y464591D01*
X124250Y454404D02*
Y458154D01*
Y456279D02*
X127375D01*
Y454404D02*
Y458154D01*
X137375Y455029D02*
X137063Y454717D01*
X136437Y454404*
X135500*
X134875Y454717*
X134563Y455029*
X134250Y455654*
Y456904*
X134563Y457529*
X134875Y457842*
X135500Y458154*
X136437*
X137063Y457842*
X137375Y457529*
X140750Y442404D02*
Y446154D01*
Y444279D02*
X143875D01*
Y442404D02*
Y446154D01*
X141250Y429904D02*
Y433654D01*
Y431779D02*
X144375D01*
Y429904D02*
Y433654D01*
X151750Y454404D02*
Y458154D01*
Y456279D02*
X154875D01*
Y454404D02*
Y458154D01*
X157750Y464904D02*
Y468654D01*
Y466779D02*
X160875D01*
Y464904D02*
Y468654D01*
X164875Y455029D02*
X164563Y454717D01*
X163937Y454404*
X163000*
X162375Y454717*
X162063Y455029*
X161750Y455654*
Y456904*
X162063Y457529*
X162375Y457842*
X163000Y458154*
X163937*
X164563Y457842*
X164875Y457529*
X180500Y454404D02*
Y458154D01*
Y456279D02*
X183625D01*
Y454404D02*
Y458154D01*
X193625Y455029D02*
X193313Y454717D01*
X192687Y454404*
X191750*
X191125Y454717*
X190813Y455029*
X190500Y455654*
Y456904*
X190813Y457529*
X191125Y457842*
X191750Y458154*
X192687*
X193313Y457842*
X193625Y457529*
X207250Y421404D02*
Y425154D01*
Y423279D02*
X210375D01*
Y421404D02*
Y425154D01*
X209250Y437404D02*
Y441154D01*
Y439279D02*
X212375D01*
Y437404D02*
Y441154D01*
X221858Y452654D02*
Y456404D01*
X223421Y454529*
X224983Y456404*
Y452654*
X233251Y453279D02*
X232939Y452967D01*
X232313Y452654*
X231376*
X230751Y452967*
X230439Y453279*
X230126Y453904*
Y455154*
X230439Y455779*
X230751Y456092*
X231376Y456404*
X232313*
X232939Y456092*
X233251Y455779*
X241125Y453279D02*
X240813Y452967D01*
X240187Y452654*
X239250*
X238625Y452967*
X238313Y453279*
X238000Y453904*
Y455154*
X238313Y455779*
X238625Y456092*
X239250Y456404*
X240187*
X240813Y456092*
X241125Y455779*
X248999Y453279D02*
X248687Y452967D01*
X248061Y452654*
X247124*
X246499Y452967*
X246187Y453279*
X245874Y453904*
Y455154*
X246187Y455779*
X246499Y456092*
X247124Y456404*
X248061*
X248687Y456092*
X248999Y455779*
X253625Y389687D02*
X253313Y389374D01*
X252687Y389061*
X251750*
X251125Y389374*
X250813Y389687*
X250500Y390311*
Y391561*
X250813Y392187*
X251125Y392499*
X251750Y392811*
X252687*
X253313Y392499*
X253625Y392187*
Y409372D02*
X253313Y409059D01*
X252687Y408746*
X251750*
X251125Y409059*
X250813Y409372*
X250500Y409996*
Y411246*
X250813Y411872*
X251125Y412184*
X251750Y412496*
X252687*
X253313Y412184*
X253625Y411872*
X254142Y452654D02*
Y456404D01*
X255704Y454529*
X257267Y456404*
Y452654*
X302750Y366404D02*
Y370154D01*
Y368279D02*
X305875D01*
Y366404D02*
Y370154D01*
X302750Y376404D02*
Y380154D01*
Y378279D02*
X305875D01*
Y376404D02*
Y380154D01*
X302750Y386404D02*
Y390154D01*
Y388279D02*
X305875D01*
Y386404D02*
Y390154D01*
X302750Y396404D02*
Y400154D01*
Y398279D02*
X305875D01*
Y396404D02*
Y400154D01*
X302750Y406404D02*
Y410154D01*
Y408279D02*
X305875D01*
Y406404D02*
Y410154D01*
X302750Y416404D02*
Y420154D01*
Y418279D02*
X305875D01*
Y416404D02*
Y420154D01*
X302750Y426404D02*
Y430154D01*
Y428279D02*
X305875D01*
Y426404D02*
Y430154D01*
X302750Y436404D02*
Y440154D01*
Y438279D02*
X305875D01*
Y436404D02*
Y440154D01*
X312750Y366404D02*
Y370154D01*
Y368279D02*
X315875D01*
Y366404D02*
Y370154D01*
X312750Y376404D02*
Y380154D01*
Y378279D02*
X315875D01*
Y376404D02*
Y380154D01*
X312750Y386404D02*
Y390154D01*
Y388279D02*
X315875D01*
Y386404D02*
Y390154D01*
X312750Y396404D02*
Y400154D01*
Y398279D02*
X315875D01*
Y396404D02*
Y400154D01*
X312750Y406404D02*
Y410154D01*
Y408279D02*
X315875D01*
Y406404D02*
Y410154D01*
X312750Y416404D02*
Y420154D01*
Y418279D02*
X315875D01*
Y416404D02*
Y420154D01*
X312750Y426404D02*
Y430154D01*
Y428279D02*
X315875D01*
Y426404D02*
Y430154D01*
X312750Y436404D02*
Y440154D01*
Y438279D02*
X315875D01*
Y436404D02*
Y440154D01*
X314750Y465404D02*
Y469154D01*
X317875Y465404*
Y469154*
X0Y0D02*
M02*
