%FSLAX35Y35*%
%MOIN*%
G04 EasyPC Gerber Version 18.0.9 Build 3640 *
%AMT17*0 Octagon Pad at angle 0*4,1,8,-0.01193,-0.02882,0.01193,-0.02882,0.02882,-0.01193,0.02882,0.01193,0.01193,0.02882,-0.01193,0.02882,-0.02882,0.01193,-0.02882,-0.01193,-0.01193,-0.02882,0*%
%ADD17T17*%
%AMT21*0 Octagon Pad at angle 0*4,1,8,-0.01500,-0.03622,0.01500,-0.03622,0.03622,-0.01500,0.03622,0.01500,0.01500,0.03622,-0.01500,0.03622,-0.03622,0.01500,-0.03622,-0.01500,-0.01500,-0.03622,0*%
%ADD21T21*%
%ADD15R,0.06457X0.06457*%
%ADD16R,0.07244X0.07244*%
%ADD18R,0.07638X0.07638*%
%ADD23C,0.02913*%
%ADD13C,0.04291*%
%ADD71C,0.05276*%
%ADD10C,0.05764*%
%ADD14C,0.06457*%
%ADD70C,0.06850*%
%ADD20C,0.07244*%
%ADD12C,0.07244*%
%ADD19C,0.07638*%
%ADD22C,0.08031*%
%ADD11C,0.13543*%
X0Y0D02*
D02*
D10*
X34250Y419848D03*
Y427848D03*
D02*
D11*
X13750Y459467D03*
X304750D03*
D02*
D12*
X11469Y406411D03*
Y439285D03*
D02*
D13*
X23280Y414089D03*
Y431608D03*
D02*
D14*
X89813Y442967D03*
D02*
D15*
X97687D03*
D02*
D16*
X12750Y365967D03*
X114250Y448467D03*
X141750D03*
X170500D03*
X292750Y430467D03*
D02*
D17*
X124250Y448467D03*
X151750D03*
X180500D03*
D02*
D18*
X240500Y383124D03*
D02*
D19*
Y402809D03*
D02*
D70*
X228376Y446717D03*
X236250D03*
X244124D03*
D02*
D71*
X220108D03*
X252392D03*
D02*
D20*
X292750Y360467D03*
Y370467D03*
Y380467D03*
Y390467D03*
Y400467D03*
Y410467D03*
Y420467D03*
X302750Y360467D03*
Y370467D03*
Y380467D03*
Y390467D03*
Y400467D03*
Y410467D03*
Y420467D03*
Y430467D03*
D02*
D21*
X12750Y325967D03*
Y335967D03*
Y345967D03*
Y355967D03*
D02*
D22*
X44250Y458967D03*
X89813Y430467D03*
X97687Y454904D03*
X130750Y436467D03*
X131250Y423967D03*
X132250Y399467D03*
X147750Y458967D03*
X154750Y370967D03*
X168250Y407467D03*
X197250Y415467D03*
X199250Y431467D03*
X244124Y416467D03*
D02*
D23*
X136360Y373467D03*
X139250Y369467D03*
X0Y0D02*
M02*
