%FSLAX35Y35*%
%MOIN*%
G04 EasyPC Gerber Version 18.0.9 Build 3640 *
%AMT141*0 Octagon Pad at angle 0*4,1,8,-0.01193,-0.02882,0.01193,-0.02882,0.02882,-0.01193,0.02882,0.01193,0.01193,0.02882,-0.01193,0.02882,-0.02882,0.01193,-0.02882,-0.01193,-0.01193,-0.02882,0*%
%ADD141T141*%
%AMT178*0 Octagon Pad at angle 0*4,1,8,-0.01500,-0.03622,0.01500,-0.03622,0.03622,-0.01500,0.03622,0.01500,0.01500,0.03622,-0.01500,0.03622,-0.03622,0.01500,-0.03622,-0.01500,-0.01500,-0.03622,0*%
%ADD178T178*%
%ADD137R,0.00591X0.01614*%
%ADD175R,0.01024X0.03898*%
%ADD136R,0.02913X0.02913*%
%ADD142R,0.03307X0.03898*%
%ADD134R,0.03701X0.04055*%
%ADD177R,0.04528X0.09213*%
%ADD139R,0.06457X0.06457*%
%ADD140R,0.07244X0.07244*%
%ADD145R,0.07638X0.07638*%
%ADD180C,0.02913*%
%ADD131C,0.04291*%
%ADD148C,0.05276*%
%ADD126C,0.05764*%
%ADD138C,0.06457*%
%ADD174R,0.03898X0.01024*%
%ADD128R,0.05079X0.01339*%
%ADD132R,0.03307X0.01929*%
%ADD133R,0.02913X0.02913*%
%ADD144R,0.04488X0.02913*%
%ADD135R,0.04055X0.03701*%
%ADD143R,0.11969X0.05866*%
%ADD176R,0.08346X0.06063*%
%ADD129R,0.07244X0.06850*%
%ADD147C,0.06850*%
%ADD149C,0.07244*%
%ADD130C,0.07244*%
%ADD146C,0.07638*%
%ADD179C,0.08031*%
%ADD127C,0.13543*%
X0Y0D02*
D02*
D126*
X34250Y419848D03*
Y427848D03*
D02*
D127*
X13750Y459467D03*
X304750D03*
D02*
D128*
X22000Y417730D03*
Y420289D03*
Y422848D03*
Y425407D03*
Y427967D03*
D02*
D129*
X11469Y418321D03*
Y427376D03*
D02*
D130*
Y406411D03*
Y439285D03*
D02*
D131*
X23280Y414089D03*
Y431608D03*
D02*
D132*
X59500Y445476D03*
Y452957D03*
X70500Y445476D03*
Y449217D03*
Y452957D03*
D02*
D133*
X42600Y446467D03*
X48506D03*
D02*
D134*
X42250Y429717D03*
Y436717D03*
X106750Y381467D03*
Y388467D03*
X114250Y411967D03*
Y418967D03*
X144250Y353467D03*
Y360467D03*
X150750Y353467D03*
Y360467D03*
X159250Y353467D03*
Y360467D03*
X168250Y378967D03*
Y385967D03*
Y420717D03*
Y427717D03*
X176750Y420717D03*
Y427717D03*
X185750Y420717D03*
Y427717D03*
D02*
D135*
X53750Y436967D03*
X54750Y429467D03*
X60750Y436967D03*
X61750Y429467D03*
X115250Y436467D03*
X122250D03*
D02*
D136*
X69750Y430961D03*
Y436866D03*
D02*
D137*
X73201Y459217D03*
X75799D03*
D02*
D138*
X89813Y442967D03*
D02*
D139*
X97687D03*
D02*
D140*
X12750Y365967D03*
X114250Y448467D03*
X141750D03*
X170500D03*
X292750Y430467D03*
D02*
D141*
X124250Y448467D03*
X151750D03*
X180500D03*
D02*
D142*
X140195Y431778D03*
X149250D03*
X158305D03*
D02*
D143*
X149250Y408156D03*
D02*
D144*
X194250Y446717D03*
Y451441D03*
D02*
D145*
X240500Y383124D03*
D02*
D146*
Y402809D03*
D02*
D147*
X228376Y446717D03*
X236250D03*
X244124D03*
D02*
D148*
X220108D03*
X252392D03*
D02*
D149*
X292750Y360467D03*
Y370467D03*
Y380467D03*
Y390467D03*
Y400467D03*
Y410467D03*
Y420467D03*
X302750Y360467D03*
Y370467D03*
Y380467D03*
Y390467D03*
Y400467D03*
Y410467D03*
Y420467D03*
Y430467D03*
D02*
D174*
X126616Y311640D03*
Y313608D03*
Y315577D03*
Y317545D03*
Y319514D03*
Y321482D03*
Y323451D03*
Y325419D03*
Y327388D03*
Y329356D03*
Y331325D03*
Y333293D03*
X159884Y311640D03*
Y313608D03*
Y315577D03*
Y317545D03*
Y319514D03*
Y321482D03*
Y323451D03*
Y325419D03*
Y327388D03*
Y329356D03*
Y331325D03*
Y333293D03*
D02*
D175*
X132423Y305833D03*
Y339100D03*
X134392Y305833D03*
Y339100D03*
X136360Y305833D03*
Y339100D03*
X138329Y305833D03*
Y339100D03*
X140297Y305833D03*
Y339100D03*
X142266Y305833D03*
Y339100D03*
X144234Y305833D03*
Y339100D03*
X146203Y305833D03*
Y339100D03*
X148171Y305833D03*
Y339100D03*
X150140Y305833D03*
Y339100D03*
X152108Y305833D03*
Y339100D03*
X154077Y305833D03*
Y339100D03*
D02*
D176*
X122140Y386967D03*
X158360D03*
D02*
D177*
X97939Y415467D03*
X106561D03*
D02*
D178*
X12750Y325967D03*
Y335967D03*
Y345967D03*
Y355967D03*
D02*
D179*
X44250Y458967D03*
X89813Y430467D03*
X97687Y454904D03*
X130750Y436467D03*
X131250Y423967D03*
X132250Y399467D03*
X147750Y458967D03*
X154750Y370967D03*
X168250Y407467D03*
X197250Y415467D03*
X199250Y431467D03*
X244124Y416467D03*
D02*
D180*
X136360Y373467D03*
X139250Y369467D03*
X0Y0D02*
M02*
