%FSLAX35Y35*%
%MOIN*%
G04 EasyPC Gerber Version 18.0.9 Build 3640 *
%AMT16*0 Octagon Pad at angle 0*4,1,8,-0.01243,-0.03000,0.01243,-0.03000,0.03000,-0.01243,0.03000,0.01243,0.01243,0.03000,-0.01243,0.03000,-0.03000,0.01243,-0.03000,-0.01243,-0.01243,-0.03000,0*%
%ADD16T16*%
%ADD76R,0.00827X0.01850*%
%ADD75R,0.03150X0.03150*%
%ADD77R,0.03543X0.04134*%
%ADD73R,0.03937X0.04291*%
%ADD14R,0.06693X0.06693*%
%ADD15R,0.07480X0.07480*%
%ADD17R,0.07874X0.07874*%
%ADD81C,0.01000*%
%ADD80C,0.01575*%
%ADD22C,0.01969*%
%ADD21C,0.02362*%
%ADD12C,0.04528*%
%ADD70C,0.05512*%
%ADD10C,0.06000*%
%ADD27R,0.05315X0.01575*%
%ADD29R,0.03543X0.02165*%
%ADD72R,0.03150X0.03150*%
%ADD79R,0.04724X0.03150*%
%ADD74R,0.04291X0.03937*%
%ADD78R,0.12205X0.06102*%
%ADD28R,0.07480X0.07087*%
%ADD13C,0.06693*%
%ADD19C,0.07087*%
%ADD71C,0.07480*%
%ADD11C,0.07480*%
%ADD18C,0.07874*%
%ADD20C,0.08268*%
%ADD26C,0.13780*%
X0Y0D02*
D02*
D10*
X34250Y419848D03*
Y427848D03*
D02*
D11*
X11469Y406411D03*
Y439285D03*
D02*
D12*
X23280Y414089D03*
Y431608D03*
D02*
D13*
X89813Y442967D03*
D02*
D14*
X97687D03*
D02*
D15*
X114250Y448467D03*
X141750D03*
X170500D03*
X292750Y430467D03*
D02*
D16*
X124250Y448467D03*
X151750D03*
X180500D03*
D02*
D17*
X240500Y383124D03*
D02*
D18*
Y402809D03*
D02*
D19*
X220126Y446717D03*
X228000D03*
X235874D03*
D02*
D70*
X211858D03*
X244142D03*
D02*
D71*
X292750Y360467D03*
Y370467D03*
Y380467D03*
Y390467D03*
Y400467D03*
Y410467D03*
Y420467D03*
X302750Y360467D03*
Y370467D03*
Y380467D03*
Y390467D03*
Y400467D03*
Y410467D03*
Y420467D03*
Y430467D03*
D02*
D20*
X44250Y458967D03*
X89813Y430467D03*
X97687Y454904D03*
X130750Y436467D03*
X131250Y423967D03*
X147750Y458967D03*
X197250Y415467D03*
X199250Y431467D03*
D02*
D21*
X44250Y458967D02*
X50750D01*
X52750Y456967*
X53250*
X55500Y458967D02*
X67750D01*
X60750Y436967D02*
X69650D01*
X69750Y436866*
X70500Y449217D02*
X74500D01*
X76250Y447467*
Y438217*
X75375Y437342*
X74750Y436717*
X77250Y455467D02*
X71250D01*
X70750Y454967*
Y453207*
X89813Y430467D02*
X103750D01*
X89813D02*
X82250D01*
X75375Y437342*
X97687Y454904D02*
X98250Y455467D01*
X77250*
X103750Y430467D02*
X106250D01*
X108250*
X106250Y432967D02*
Y432467D01*
X108250Y430467*
X106250Y432967D02*
X103750Y430467D01*
X106250Y432967D02*
Y430467D01*
X108250D02*
X111750D01*
X115250Y433967*
Y436467*
X140195Y431778D02*
X135439D01*
X130750Y436467*
X147750Y458967D02*
X108750D01*
X106250Y456467*
Y432967*
X148000Y425717D02*
X146750Y424467D01*
X131750*
X149250Y431778D02*
Y426967D01*
X148000Y425717*
X158305Y431778D02*
Y455411D01*
X154750Y458967*
X147750*
X168250Y420717D02*
X153000D01*
X148000Y425717*
X168250Y427717D02*
X160000D01*
X158250Y429467*
Y431722*
X158305Y431778*
X176750Y420717D02*
X168250D01*
X176750Y427717D02*
X168250D01*
X185750Y420717D02*
X176750D01*
X187750Y434967D02*
X179250D01*
X176750Y432467*
Y427717*
X194250Y451441D02*
X189724D01*
X187750Y449467*
Y434967*
X195250Y440467D02*
X202250D01*
X207250Y435467*
Y428467*
X202750Y423967*
X193750*
X190250Y427467*
X186000*
X185750Y427717*
X197250Y415467D02*
X196750D01*
X193750Y412467*
X179250*
X176750Y414967*
Y420717*
X199250Y431467D02*
X194250D01*
X190750Y434967*
X187750*
D02*
D22*
X42250Y429717D02*
X46250D01*
X42600Y446467D02*
Y437067D01*
X42250Y436717*
X46250Y429717D02*
X48250D01*
X50250*
X48250Y431967D02*
Y431717D01*
X50250Y429717*
X48250Y431967D02*
Y431717D01*
X46250Y429717*
X48250Y431967D02*
Y429717D01*
X50250D02*
X54500D01*
X54750Y429467*
X50750Y458967D02*
X55500D01*
X50750D02*
Y454967D01*
X51000Y454717*
X46750Y450467*
X51875Y455592D02*
X51000Y454717D01*
X53250Y456967D02*
X51875Y455592D01*
X53750Y436967D02*
Y439467D01*
X56750Y442467*
X58750*
X59750Y443467*
Y445226*
X59500Y445476*
X54375Y458092D02*
X53250Y456967D01*
X54375Y458092D02*
X54625D01*
X55500Y458967*
X54500Y455717D02*
X52000D01*
X51875Y455592*
X54500Y455717D02*
Y457967D01*
X54375Y458092*
X54500Y455717D02*
X53250Y456967D01*
X59500Y452957D02*
X57260D01*
X54500Y455717*
X61750Y429467D02*
X68256D01*
X69750Y430961*
X70500Y445476D02*
X66740D01*
X65250Y446967*
Y447467*
X63750Y448967*
X56250*
X54250Y446967*
Y444967*
X51250Y441967*
X49750*
X48250Y440467*
Y431967*
X70750Y453207D02*
X70500Y452957D01*
X78250Y458467D02*
Y456467D01*
X77250Y455467*
X122250Y436467D02*
X130750D01*
X131750Y424467D02*
X131250Y423967D01*
X194250Y446717D02*
Y441467D01*
X195250Y440467*
D02*
D26*
X13750Y459467D03*
X304750D03*
D02*
D27*
X22000Y417730D03*
Y420289D03*
Y422848D03*
Y425407D03*
Y427967D03*
D02*
D28*
X11469Y418321D03*
Y427376D03*
D02*
D29*
X59500Y445476D03*
Y452957D03*
X70500Y445476D03*
Y449217D03*
Y452957D03*
D02*
D72*
X42600Y446467D03*
X48506D03*
D02*
D73*
X42250Y429717D03*
Y436717D03*
X168250Y420717D03*
Y427717D03*
X176750Y420717D03*
Y427717D03*
X185750Y420717D03*
Y427717D03*
D02*
D74*
X53750Y436967D03*
X54750Y429467D03*
X60750Y436967D03*
X61750Y429467D03*
X115250Y436467D03*
X122250D03*
D02*
D75*
X69750Y430961D03*
Y436866D03*
D02*
D76*
X73201Y459217D03*
X75799D03*
D02*
D77*
X140195Y431778D03*
X149250D03*
X158305D03*
D02*
D78*
X149250Y408156D03*
D02*
D79*
X194250Y446717D03*
Y451441D03*
D02*
D80*
X22000Y417730D02*
X27250D01*
X29632Y415348*
X72250*
X74750Y417848*
Y436717*
X22000Y427967D02*
X26250D01*
X29632Y431348*
Y448098*
X32000Y450467*
X46750*
X47000*
X48250Y449217*
Y446722*
X48506Y446467*
X74750Y436717D02*
Y436967D01*
X69850*
X69750Y436866*
D02*
D81*
X22000Y422848D02*
X31250D01*
X34250Y419848*
X22000Y425407D02*
X31809D01*
X34250Y427848*
X67750Y458967D02*
X73201D01*
Y459217*
X75799D02*
X77500D01*
X78250Y458467*
X0Y0D02*
M02*
