%FSLAX35Y35*%
%MOIN*%
G04 EasyPC Gerber Version 18.0.9 Build 3640 *
%AMT25*0 Octagon Pad at angle 0*4,1,8,-0.01243,-0.03000,0.01243,-0.03000,0.03000,-0.01243,0.03000,0.01243,0.01243,0.03000,-0.01243,0.03000,-0.03000,0.01243,-0.03000,-0.01243,-0.01243,-0.03000,0*%
%ADD25T25*%
%AMT79*0 Octagon Pad at angle 0*4,1,8,-0.01549,-0.03740,0.01549,-0.03740,0.03740,-0.01549,0.03740,0.01549,0.01549,0.03740,-0.01549,0.03740,-0.03740,0.01549,-0.03740,-0.01549,-0.01549,-0.03740,0*%
%ADD79T79*%
%ADD21R,0.00827X0.01850*%
%ADD76R,0.01260X0.04134*%
%ADD86R,0.01378X0.03051*%
%ADD82R,0.02835X0.05315*%
%ADD20R,0.03150X0.03150*%
%ADD83R,0.03150X0.04724*%
%ADD26R,0.03543X0.04134*%
%ADD92R,0.03937X0.03937*%
%ADD70R,0.03937X0.04291*%
%ADD94R,0.03937X0.05512*%
%ADD91R,0.04134X0.08661*%
%ADD93R,0.04386X0.07094*%
%ADD78R,0.04764X0.09449*%
%ADD85R,0.05000X0.05000*%
%ADD23R,0.06693X0.06693*%
%ADD24R,0.07480X0.07480*%
%ADD29R,0.07874X0.07874*%
%ADD98C,0.01024*%
%ADD96C,0.01575*%
%ADD99C,0.01969*%
%ADD97C,0.02362*%
%ADD95C,0.03346*%
%ADD17C,0.04528*%
%ADD74C,0.05512*%
%ADD22C,0.06693*%
%ADD73C,0.07087*%
%ADD16C,0.07480*%
%ADD72C,0.07874*%
%ADD12C,0.08268*%
%ADD13C,0.13780*%
%ADD75R,0.04134X0.01260*%
%ADD87R,0.03051X0.01378*%
%ADD14R,0.05315X0.01575*%
%ADD18R,0.03543X0.02165*%
%ADD81R,0.05315X0.02835*%
%ADD19R,0.03150X0.03150*%
%ADD28R,0.04724X0.03150*%
%ADD84R,0.04724X0.03543*%
%ADD90R,0.03937X0.03937*%
%ADD71R,0.04291X0.03937*%
%ADD88R,0.05512X0.03937*%
%ADD89R,0.08661X0.04134*%
%ADD80R,0.06890X0.05512*%
%ADD27R,0.12205X0.06102*%
%ADD77R,0.08583X0.06299*%
%ADD15R,0.07480X0.07087*%
X0Y0D02*
D02*
D12*
X51441Y34093D03*
X52286Y317796D03*
X54786Y327914D03*
X58804Y219800D03*
X63286Y356914D03*
X64295Y237896D03*
X67790Y216430D03*
X69662Y300173D03*
X72033Y225416D03*
X72407Y309283D03*
X82641Y248629D03*
X86556Y221672D03*
X87009Y231531D03*
X92501Y255119D03*
X101487Y315399D03*
X105730Y325882D03*
X108600Y188973D03*
X112344Y120082D03*
X116338Y48570D03*
X117212Y329377D03*
X118709Y38710D03*
X127446Y263356D03*
X128819Y38461D03*
X133686Y54560D03*
X147664Y52813D03*
X147913Y42330D03*
X149138Y28601D03*
X149786Y334414D03*
X150286Y321914D03*
X151286Y297414D03*
X151907Y188973D03*
X159138Y28851D03*
X166786Y356914D03*
X169130Y28851D03*
X173872Y268847D03*
X179138Y28851D03*
X182359Y74654D03*
X183482Y188474D03*
X187286Y305414D03*
X190471Y150659D03*
X190721Y117211D03*
X191345Y268598D03*
X191470Y54061D03*
Y69417D03*
X192094Y258489D03*
X196087Y197085D03*
X198209Y227304D03*
X203076Y149286D03*
X203326Y115963D03*
X205323Y251999D03*
Y264604D03*
X206321Y195463D03*
X207070Y210439D03*
X208069Y228785D03*
X211064Y69412D03*
X211563Y46698D03*
X214059Y242264D03*
X214433Y310282D03*
X215182Y112094D03*
X215307Y150035D03*
X218286Y329414D03*
X226914Y102609D03*
X227288Y136057D03*
X228786Y199581D03*
X231656Y116837D03*
X234152Y46698D03*
X243887Y258988D03*
X251375Y130940D03*
X263160Y314414D03*
X272342Y265727D03*
X297428Y256741D03*
X318394Y131813D03*
X320891Y209441D03*
X321015Y172250D03*
Y191844D03*
Y246632D03*
D02*
D13*
X13750Y13500D03*
X13875Y357414D03*
X324406Y13750D03*
X324884Y357414D03*
D02*
D14*
X22736Y315678D03*
Y318237D03*
Y320796D03*
Y323355D03*
Y325914D03*
D02*
D15*
X12204Y316269D03*
Y325324D03*
D02*
D16*
Y304359D03*
Y337233D03*
X68523Y15497D03*
X78523D03*
X88523D03*
X98523D03*
X159138Y16495D03*
X169138D03*
X179138D03*
X311786Y258414D03*
Y268414D03*
Y278414D03*
Y288414D03*
Y298414D03*
Y308414D03*
Y318414D03*
X321786Y258414D03*
Y268414D03*
Y278414D03*
Y288414D03*
Y298414D03*
Y308414D03*
Y318414D03*
Y328414D03*
X322513Y55153D03*
Y65153D03*
Y75153D03*
Y85153D03*
D02*
D17*
X24015Y312036D03*
Y329556D03*
D02*
D18*
X78536Y343424D03*
Y350904D03*
X89536Y343424D03*
Y347164D03*
Y350904D03*
D02*
D19*
X23975Y56192D03*
Y60916D03*
X61637Y344414D03*
X67542D03*
D02*
D70*
X13616Y105100D03*
Y112100D03*
X30340Y54056D03*
Y61056D03*
X63286Y327664D03*
Y334664D03*
X125786Y281946D03*
Y288946D03*
X133286Y307656D03*
Y314656D03*
X133935Y154522D03*
Y161522D03*
X137929Y102105D03*
Y109105D03*
X143670Y134678D03*
Y141678D03*
X145168Y110841D03*
Y117841D03*
X150409Y129437D03*
Y136437D03*
X159286Y181230D03*
Y188230D03*
X163286Y254489D03*
Y261489D03*
X169786Y254489D03*
Y261489D03*
X178286Y254489D03*
Y261489D03*
X187286Y278826D03*
Y285826D03*
Y319914D03*
Y326914D03*
X195786Y319914D03*
Y326914D03*
X199831Y62417D03*
Y69417D03*
X204786Y319914D03*
Y326914D03*
X222795Y66411D03*
Y73411D03*
X229035Y168500D03*
Y175500D03*
X266352Y77477D03*
Y84477D03*
Y119702D03*
Y126702D03*
X266601Y99193D03*
Y106193D03*
X304292Y99193D03*
Y106193D03*
Y119328D03*
Y126328D03*
X304791Y77477D03*
Y84477D03*
D02*
D71*
X72786Y334914D03*
X73786Y327414D03*
X79786Y334914D03*
X80786Y327414D03*
X91307Y192374D03*
Y201110D03*
Y208567D03*
X98307Y192374D03*
Y201110D03*
Y208567D03*
X113065Y229626D03*
Y239776D03*
X114211Y221414D03*
X114452Y196087D03*
Y204914D03*
Y212414D03*
X120065Y229626D03*
Y239776D03*
X121211Y221414D03*
X121452Y196087D03*
Y204914D03*
Y212414D03*
X134286Y334414D03*
X141286D03*
X198204Y238146D03*
X205204D03*
X240262Y241391D03*
X247262D03*
X303662Y241640D03*
X310662D03*
D02*
D20*
X88786Y328908D03*
Y334814D03*
D02*
D21*
X90078Y357164D03*
X92677D03*
D02*
D22*
X108849Y340914D03*
D02*
D23*
X116723D03*
D02*
D24*
X12377Y271219D03*
X58523Y15497D03*
X89123Y304167D03*
X117711Y15614D03*
X130316D03*
X133286Y346414D03*
X148038Y262857D03*
X149138Y16495D03*
X154793Y109840D03*
X160786Y346414D03*
X166399Y109840D03*
X189536Y346414D03*
X190596Y139060D03*
X196587Y210564D03*
X203076Y139060D03*
X215681D03*
X216930Y200463D03*
X217296Y213809D03*
X311786Y328414D03*
X322513Y95153D03*
D02*
D25*
X99123Y304167D03*
X117711Y25614D03*
X130316D03*
X143286Y346414D03*
X154793Y119840D03*
X166399D03*
X170786Y346414D03*
X190596Y129060D03*
X199536Y346414D03*
X203076Y129060D03*
X215681D03*
X216930Y190463D03*
X227296Y213809D03*
D02*
D26*
X159231Y329725D03*
X168286D03*
X177341D03*
D02*
D27*
X168286Y306103D03*
D02*
D28*
X136307Y118344D03*
Y123068D03*
X149037Y94132D03*
Y98856D03*
X213286Y344664D03*
Y349389D03*
D02*
D29*
X259536Y281072D03*
D02*
D72*
Y300757D03*
D02*
D73*
X247412Y344664D03*
X255286D03*
X263160D03*
D02*
D74*
X239144D03*
X271428D03*
D02*
D75*
X145652Y209587D03*
Y211556D03*
Y213524D03*
Y215493D03*
Y217461D03*
Y219430D03*
Y221398D03*
Y223367D03*
Y225335D03*
Y227304D03*
Y229272D03*
Y231241D03*
X178920Y209587D03*
Y211556D03*
Y213524D03*
Y215493D03*
Y217461D03*
Y219430D03*
Y221398D03*
Y223367D03*
Y225335D03*
Y227304D03*
Y229272D03*
Y231241D03*
D02*
D76*
X151459Y203780D03*
Y237048D03*
X153428Y203780D03*
Y237048D03*
X155396Y203780D03*
Y237048D03*
X157365Y203780D03*
Y237048D03*
X159333Y203780D03*
Y237048D03*
X161302Y203780D03*
Y237048D03*
X163270Y203780D03*
Y237048D03*
X165239Y203780D03*
Y237048D03*
X167207Y203780D03*
Y237048D03*
X169176Y203780D03*
Y237048D03*
X171144Y203780D03*
Y237048D03*
X173113Y203780D03*
Y237048D03*
D02*
D77*
X31084Y187975D03*
Y204074D03*
X67304Y187975D03*
Y204074D03*
X68899Y44326D03*
X105120D03*
X141176Y284914D03*
X177396D03*
X220785Y228910D03*
X257005D03*
X274450Y228661D03*
X310670D03*
D02*
D78*
X116975Y311780D03*
X125597D03*
D02*
D79*
X12377Y231219D03*
Y241219D03*
Y251219D03*
Y261219D03*
D02*
D80*
X131065Y229855D03*
Y239697D03*
D02*
D81*
X34502Y92330D03*
Y96267D03*
Y100204D03*
Y104141D03*
Y108078D03*
Y112015D03*
Y115952D03*
Y119889D03*
Y123826D03*
Y127763D03*
Y131700D03*
Y135637D03*
Y139574D03*
Y143511D03*
Y147448D03*
Y151385D03*
Y155322D03*
X126038Y92330D03*
Y96267D03*
Y100204D03*
Y104141D03*
Y108078D03*
Y112015D03*
Y115952D03*
Y119889D03*
Y123826D03*
Y127763D03*
Y131700D03*
Y135637D03*
Y139574D03*
Y143511D03*
Y147448D03*
Y151385D03*
Y155322D03*
D02*
D82*
X48774Y78058D03*
Y169594D03*
X52711Y78058D03*
Y169594D03*
X56648Y78058D03*
Y169594D03*
X60585Y78058D03*
Y169594D03*
X64522Y78058D03*
Y169594D03*
X68459Y78058D03*
Y169594D03*
X72396Y78058D03*
Y169594D03*
X76333Y78058D03*
Y169594D03*
X80270Y78058D03*
Y169594D03*
X84207Y78058D03*
Y169594D03*
X88144Y78058D03*
Y169594D03*
X92081Y78058D03*
Y169594D03*
X96018Y78058D03*
Y169594D03*
X99955Y78058D03*
Y169594D03*
X103892Y78058D03*
Y169594D03*
X107829Y78058D03*
Y169594D03*
X111766Y78058D03*
Y169594D03*
D02*
D83*
X16995Y96744D03*
X21719D03*
X139685Y149286D03*
X144410D03*
X213819Y251999D03*
X214318Y261234D03*
X218543Y251999D03*
X219042Y261234D03*
D02*
D84*
X242089Y143622D03*
Y148622D03*
Y153622D03*
Y178622D03*
Y183622D03*
Y188622D03*
Y193622D03*
Y198622D03*
Y203622D03*
X307089Y143622D03*
Y148622D03*
Y153622D03*
Y158622D03*
Y163622D03*
Y168622D03*
Y173622D03*
Y178622D03*
Y183622D03*
Y188622D03*
Y193622D03*
Y198622D03*
Y203622D03*
D02*
D85*
X259589Y151162D03*
Y196083D03*
X269589Y151162D03*
Y196083D03*
X279589Y151162D03*
Y196083D03*
X289589Y151162D03*
Y196083D03*
D02*
D86*
X202445Y80652D03*
Y88624D03*
X204413Y80652D03*
Y88624D03*
X206382Y80652D03*
Y88624D03*
D02*
D87*
X199443Y81685D03*
Y83654D03*
Y85622D03*
Y87591D03*
X209384Y81685D03*
Y83654D03*
Y85622D03*
Y87591D03*
D02*
D88*
X14724Y71038D03*
Y78519D03*
X22992Y74778D03*
D02*
D89*
X19668Y149844D03*
Y161458D03*
D02*
D90*
X25573Y155651D03*
D02*
D91*
X46719Y63348D03*
X58333D03*
X98138Y63723D03*
X109752D03*
D02*
D92*
X52526Y69254D03*
X103945Y69628D03*
D02*
D93*
X87552Y181735D03*
X99946D03*
D02*
D94*
X280615Y77093D03*
Y98559D03*
Y119942D03*
X284356Y85360D03*
Y106826D03*
Y128209D03*
X288096Y77093D03*
Y98559D03*
Y119942D03*
D02*
D95*
X60177Y192717D03*
X73656Y237397D03*
X84763Y162141D03*
X93499Y242264D03*
X106728Y114840D03*
X113343Y113343D03*
X115714Y151532D03*
X118959Y113717D03*
X123327Y184730D03*
X125449Y160144D03*
X127196Y202202D03*
X132937Y111720D03*
X135683Y212561D03*
X136806Y180611D03*
X140924Y208318D03*
X143296Y87009D03*
X143670Y125573D03*
X155396Y271414D03*
X156400Y143670D03*
X158286Y266914D03*
X163639Y148787D03*
X165136Y152780D03*
X165511Y136930D03*
X177617Y196461D03*
X178241Y203450D03*
X195838Y99365D03*
X197335Y173622D03*
X207195Y203450D03*
X232405Y159520D03*
X243263Y133685D03*
X244012Y90628D03*
X259987Y84139D03*
Y106354D03*
Y124824D03*
X298551Y84638D03*
X310033Y106229D03*
X321515Y121080D03*
D02*
D96*
X22736Y325914D02*
X42942D01*
X46324Y329296*
Y346046*
X48692Y348414*
X65786*
X66036*
X67286Y347164*
Y344670*
X67542Y344414*
X93786Y334664D02*
Y334914D01*
X88887*
X88786Y334814*
X93786Y334664D02*
X93286D01*
Y319914*
X90786Y317414*
X70286*
X63786Y310914*
X49550*
X44786Y315678*
X22736*
D02*
D97*
X13616Y112100D02*
Y143792D01*
X19668Y149844*
X14724Y71038D02*
Y61659D01*
X14615Y61549*
Y47446*
X19981Y42080*
X36714*
X42954Y35840*
Y31846*
X48320Y26480*
X56807*
X58804Y28476*
Y33593*
X63546Y38336*
X68899*
X19668Y161458D02*
X13308D01*
X11120Y159270*
Y152281*
X13491Y149910*
X19602*
X19668Y149844*
X23975Y60916D02*
X20721D01*
X18858Y59053*
Y50691*
X22976Y46573*
X51316*
X31084Y187975D02*
X32346D01*
X40333Y179987*
X31084Y204074D02*
X48196D01*
X40333Y179987D02*
X29777D01*
X19668Y169878*
Y161458*
X46719Y63348D02*
Y71658D01*
X48774Y73713*
Y78058*
X48196Y187850D02*
Y204074D01*
Y187850D02*
X40333Y179987D01*
X48196Y204074D02*
X47197D01*
Y231781*
X53313Y237896*
X64295*
X48774Y162141D02*
Y134684D01*
X48899*
Y97118*
X48774Y169594D02*
Y162141D01*
Y169594D02*
Y175994D01*
X48196Y176572*
Y187850*
X48899Y97118D02*
Y88881D01*
X48774*
Y78058*
X51441Y34093D02*
Y42330D01*
X51316*
Y46573*
X53899Y97118D02*
X48899D01*
X56648Y78058D02*
Y94369D01*
X53899Y97118*
X58333Y63348D02*
Y71658D01*
X56645Y73347*
Y78055*
X56648Y78058*
X63286Y356914D02*
X69786D01*
X64295Y237896D02*
Y237646D01*
X68913Y233029*
X77649*
X83141Y238520*
X89630*
X91627Y237896*
X94498Y235026*
Y220049*
X91307Y216859*
Y208567*
X68899Y38336D02*
X109224D01*
X109599Y38710*
X118709*
X68899Y44326D02*
Y38336D01*
X69786Y356914D02*
X71786Y354914D01*
X72286*
X74536Y356914D02*
X86786D01*
X79786Y334914D02*
X88686D01*
X88786Y334814*
X87552Y181735D02*
Y191263D01*
X88632Y192343*
X91276*
X91307Y192374*
X89536Y347164D02*
X93536D01*
X95286Y345414*
Y336164*
X94411Y335289*
X91307Y192374D02*
Y201110D01*
Y208567*
X93087Y97118D02*
X53899D01*
X94411Y335289D02*
X93786Y334664D01*
X96018Y78058D02*
Y94187D01*
X93087Y97118*
X96018Y78058D02*
X99955D01*
X96286Y353414D02*
X90286D01*
X89786Y352914*
Y351154*
X98138Y63723D02*
Y71159D01*
X99702Y72723*
Y77805*
X99955Y78058*
X104195Y97118D02*
X93087D01*
X105730Y325882D02*
Y323012D01*
X125074*
X105730Y325882D02*
X103819D01*
X94411Y335289*
X106229Y201414D02*
Y218232D01*
X106104Y218357*
Y248414*
X111786Y254096*
Y303850*
X110722Y304914*
Y316023*
X113967Y319268*
X138286*
X142640Y314914*
X177786*
X187286Y305414*
X107829Y78058D02*
Y93484D01*
X104195Y97118*
X108600Y188973D02*
Y199043D01*
X106229Y201414*
X109752Y63723D02*
Y71533D01*
X107939Y73347*
Y77948*
X107829Y78058*
X111766D02*
X107829D01*
X113065Y229626D02*
Y222560D01*
X114211Y221414*
X113065Y229626D02*
Y239776D01*
Y242610*
X118709Y248255*
X127446*
X114211Y221414D02*
Y219731D01*
X116551Y217391*
X114452Y196087D02*
X111556D01*
X106229Y201414*
X114452Y212414D02*
X114217D01*
Y215057*
X116551Y217391*
X114452Y212414D02*
Y204914D01*
X116975Y311780D02*
Y309225D01*
X129036Y297164*
X125074Y323012D02*
X126572D01*
X125786Y288946D02*
Y293914D01*
X129036Y297164*
X126038Y92330D02*
Y96267D01*
X105046*
X104195Y97118*
X126038Y96267D02*
Y100204D01*
X126572Y323012D02*
X128285D01*
X126697Y331212D02*
Y324600D01*
X128285Y323012*
X126697Y331212D02*
Y324634D01*
X125074Y323012*
X126697Y331212D02*
Y327879D01*
X126572*
Y323012*
X127446Y248255D02*
Y263356D01*
Y248255D02*
X132687D01*
X128285Y323012D02*
X129663D01*
X134286Y327635*
Y334414*
X129036Y297164D02*
X129286Y297414D01*
X140286*
X132687Y248255D02*
X141786D01*
X137929Y102105D02*
X140919D01*
X144419Y105605*
Y110092*
X145168Y110841*
X137929Y102105D02*
Y101237D01*
X132937Y96244*
X126060*
X126038Y96267*
X140286Y297414D02*
X148286Y289414D01*
Y280577*
X144669Y276959*
X140675*
X137056Y273340*
Y252623*
X132687Y248255*
X140286Y297414D02*
X151286D01*
X140924Y28601D02*
Y36850D01*
X123214Y54560*
X63422*
X55434Y46573*
X51316*
X149138Y28601D02*
X140924D01*
X150285Y129312D02*
X150409Y129437D01*
X151907Y188973D02*
Y181485D01*
X184106Y149286*
Y102859*
X155901Y74654*
X155838*
X156150Y73031*
Y38835*
X149138Y31822*
Y28601*
X159231Y329725D02*
X154475D01*
X149786Y334414*
X159286Y188230D02*
X152650D01*
X151907Y188973*
X163286Y261489D02*
X169786D01*
X163786Y182730D02*
X162286Y181230D01*
X159286*
X166786Y356914D02*
X128899D01*
X126697Y354712*
Y331212*
X168286Y329725D02*
Y324164D01*
X168786Y323664*
X167536Y322414*
X150786*
X169786Y261489D02*
X173786D01*
X178286*
X177341Y329725D02*
Y353359D01*
X173786Y356914*
X166786*
X187286Y319914D02*
X173786D01*
X170036Y323664*
X168786*
X187286Y326914D02*
X179036D01*
X177286Y328664*
Y329670*
X177341Y329725*
X191470Y54061D02*
Y14374D01*
X187102Y10006*
X143920*
X140924Y13001*
Y28601*
X195786Y319914D02*
X187286D01*
X195786Y326914D02*
X187286D01*
X198204Y238146D02*
Y247909D01*
X198209Y247914*
Y281914*
X188709Y291414*
X187286*
X199831Y62417D02*
X199826Y62423D01*
X184356*
X179138Y57205*
Y28851*
X199831Y69417D02*
X191470D01*
X204786Y319914D02*
X208296D01*
X210939Y317271*
X246930*
X249786Y314414*
X206786Y332914D02*
X198286D01*
X195786Y330414*
Y326914*
X211064Y69412D02*
X211563D01*
X215931Y73780*
X222426*
X222795Y73411*
X213286Y349389D02*
X208761D01*
X206786Y347414*
Y332914*
X214286Y338414D02*
X221286D01*
X226286Y333414*
Y326414*
X221786Y321914*
X212786*
X209286Y325414*
X206286*
X204786Y326914*
X214433Y310282D02*
X212919D01*
X212786Y310414*
X198286*
X195786Y312914*
Y319914*
X218286Y329414D02*
X213286D01*
X209786Y332914*
X206786*
X218543Y251999D02*
Y248139D01*
X221048Y245634*
Y230269*
X220785Y230006*
Y228910*
X219042Y261234D02*
X243887D01*
Y258988*
X220785Y228910D02*
X237896D01*
X222795Y66411D02*
X226908D01*
X230533Y70036*
Y77150*
X222795Y66411D02*
X217554D01*
X213191Y62048*
X200200*
X199831Y62417*
X237896Y228910D02*
Y228785D01*
X240517Y226165*
X237896Y228910D02*
X238146D01*
X240517Y231281*
X237896Y228910D02*
X240517D01*
Y226165D02*
Y228910D01*
Y226165D02*
X241017D01*
Y216430*
X242089Y215358*
Y203622*
X240517Y228910D02*
Y231281D01*
Y241135*
X240262Y241391*
X242089Y143622D02*
Y140226D01*
X251375Y130940*
X242089Y143622D02*
X283902D01*
X287194Y146915*
Y151162*
X242089Y178622D02*
X278465D01*
X287069Y187226*
Y196083*
X242089Y193622D02*
X246633D01*
X253590Y200580*
Y210158*
X265478Y222046*
X247262Y241391D02*
Y247886D01*
X251250Y251874*
X258489*
X272342Y265727*
X251375Y130940D02*
X252374D01*
X257491Y136057*
X316522*
X318394Y134185*
Y131813*
X259589Y196083D02*
X269589D01*
X263107Y228661D02*
X257255D01*
X257005Y228910*
X263160Y314414D02*
X275324D01*
X280579Y309159*
Y252124*
X265603Y237147*
Y230657*
X265478Y222046D02*
Y226165D01*
X267974Y228661*
X265478Y222046D02*
Y226289D01*
X263107Y228661*
X265478Y222046D02*
Y228661D01*
X263107*
X265603Y230657D02*
X265977D01*
X267974Y228661*
X265603Y230657D02*
X264979D01*
Y230533*
X263107Y228661*
X265603Y230657D02*
Y228785D01*
X265478Y228661*
X267974D02*
X265478D01*
X269589Y151162D02*
X259589D01*
X274450Y228661D02*
X267974D01*
X279589Y151162D02*
X287194D01*
X279589Y196083D02*
X287069D01*
X280615Y77093D02*
Y77987D01*
X274214Y84388*
X266440*
X266352Y84477*
X280615Y98559D02*
Y100826D01*
X275088Y106354*
X266762*
X266601Y106193*
X280615Y119942D02*
Y120170D01*
X273965Y126821*
X266471*
X266352Y126702*
X287069Y196083D02*
X269589D01*
X287194Y151162D02*
Y195958D01*
X287069Y196083*
X287194Y151162D02*
X269589D01*
X289589D02*
X279589D01*
X289589Y196083D02*
X279589D01*
X297428Y256741D02*
Y256492D01*
X297552Y256367*
Y251250*
X299549Y249253*
X308410*
X310781Y246882*
Y242769*
X310662Y242650*
Y241640*
X303662D02*
X294931D01*
X287443Y234152*
Y196457*
X287069Y196083*
X307089Y153622D02*
X292049D01*
X289589Y151162*
X307089Y188622D02*
X299775D01*
X295431Y192967*
Y221297*
X302794Y228661*
X310670*
X307089Y198622D02*
X302380D01*
X299924Y201079*
Y216680*
X304791Y221547*
X316647*
X321764Y226664*
Y245883*
X321015Y246632*
X307089Y203622D02*
Y212487D01*
X312154Y217553*
X324635*
X328628Y213559*
Y179863*
X321015Y172250*
X310662Y241640D02*
Y228669D01*
X310670Y228661*
X322513Y85153D02*
X326647D01*
X329377Y87883*
Y120831*
X318394Y131813*
D02*
D98*
X13367Y94248D02*
X13616D01*
X22736Y320796D02*
X46823D01*
X49823Y317796*
X52286*
X22736Y323355D02*
X49319D01*
X53878Y327914*
X54786*
X60177Y192717D02*
X62562D01*
X73656Y237397D02*
Y237646D01*
X73780*
X78648Y242514*
X93499*
Y242264*
X84763Y162141D02*
X48774D01*
X86786Y356914D02*
X90078D01*
Y357164*
X92677D02*
X96536D01*
X97286Y356414*
X106728Y114840D02*
Y137804D01*
X113343Y113343D02*
X113218D01*
X111346Y111470*
X105106*
X101986Y114591*
Y148787*
X107976Y154777*
X114716*
X117586Y157648*
Y160019*
X123327Y165760*
Y184730*
X115861Y151385D02*
X115714Y151532D01*
X118959Y113717D02*
X121330Y116088D01*
X126038Y139574D02*
X131916D01*
X137430Y134060*
Y131564*
X140425Y128569*
Y124200*
X142672Y121954*
X148537*
X150285Y123701*
Y129312*
X127196Y202202D02*
Y198833D01*
X126073Y197709*
Y165136*
X119833Y158896*
Y151385*
X133935Y161522D02*
X126827D01*
X125449Y160144*
X136431Y113717D02*
X134934D01*
X132937Y111720*
X136806Y180611D02*
Y208443D01*
X139919Y211556*
X141786Y248255D02*
X148286Y241755D01*
Y234914*
X150786Y232414*
X162286*
X143670Y134678D02*
Y125573D01*
X145652Y209587D02*
X142194D01*
X140924Y208318*
X145652Y211556D02*
X139919D01*
X145652Y213524D02*
X136646D01*
X135683Y212561*
X145652Y215493D02*
X133686D01*
X132438Y214245*
Y210814*
X134684Y208567*
Y196586*
X132438Y194340*
Y175744*
X174496Y133685*
Y108350*
X149411Y83265*
X147913*
X145652Y217461D02*
X132563D01*
X130533Y215431*
Y209224*
X132563Y207194*
Y197085*
X130566Y195089*
Y174122*
X165511Y139177*
Y136930*
X145652Y219430D02*
X131439D01*
X128689Y216680*
Y207698*
X130316Y206071*
Y197964*
X128689Y196337*
Y171755*
X133686Y166758*
X135308*
X139052Y163014*
Y162011*
X143795Y157269*
Y157153*
X156400Y144548*
Y143670*
X145652Y221398D02*
X130191D01*
X126603Y217810*
Y214436*
X124603Y212436*
X145652Y223367D02*
Y223419D01*
X129318*
X124813Y218914*
Y218860*
X122867Y216914*
X117286*
X116809Y217391*
X116551*
X145652Y225335D02*
X128070D01*
X124148Y221414*
X121211*
X145652Y229272D02*
X138144D01*
X137786Y228914*
X145652Y231241D02*
X140959D01*
X137286Y234914*
X149037Y92750D02*
X143296Y87009D01*
X151459Y203780D02*
Y201755D01*
X150534Y200830*
X144294*
X140550Y197085*
Y171875*
X163639Y148787*
X151459Y237048D02*
Y242837D01*
X140800Y253496*
Y266971*
X151786Y277958*
X153428Y237048D02*
Y247358D01*
X147913Y252872*
Y262732*
X148038Y262857*
X155396Y237048D02*
Y271414D01*
X156650Y86510D02*
X177492Y107352D01*
Y145916*
X144669Y178739*
Y194465*
X147040Y196836*
X152406*
X155402Y199831*
Y203661*
X155396Y203666*
Y203780*
X157365Y237048D02*
Y265993D01*
X158286Y266914*
X159333Y203780D02*
Y188277D01*
X159286Y188230*
X159333Y254489D02*
Y237048D01*
X161286Y283914D02*
Y265977D01*
X159333Y264024*
Y254489*
X161302Y203780D02*
Y231430D01*
X162286Y232414*
X161302Y203780D02*
Y192714D01*
X163786Y190230*
Y182730*
X161302Y237048D02*
Y249005D01*
X162286Y249989*
X167786*
X169286Y251489*
Y253989*
X169786Y254489*
X163270Y203780D02*
Y193959D01*
X167133Y190096*
Y173997*
X163270Y237048D02*
Y245865D01*
X165286Y247880*
X170786*
X173786Y250880*
Y261489*
X163270Y237048D02*
Y233398D01*
X162286Y232414*
X163286Y254489D02*
X159333D01*
X165136Y152780D02*
Y153155D01*
X142422Y175869*
Y195962*
X145293Y198833*
X151657*
X153280Y200455*
Y203632*
X153428Y203780*
X165239D02*
Y195111D01*
X174247Y186103*
Y178115*
X165760Y90254D02*
X180113Y104606D01*
Y148163*
X146541Y181735*
Y192593*
X149037Y195089*
X154403*
X157274Y197959*
Y203689*
X157365Y203780*
X167207D02*
Y196637D01*
X182609Y181235*
X167207Y237048D02*
Y243680D01*
X169286Y245759*
X176786*
X177017Y245989*
X169130Y76540D02*
X176244Y83654D01*
X171144Y237048D02*
Y240784D01*
X173373Y243013*
X179863*
X186478Y249628*
Y264105*
X190970Y268598*
X191345*
X173113Y237048D02*
X181261D01*
X192094Y247880*
Y258489*
X177617Y196461D02*
X173124Y200954D01*
Y203770*
X173113Y203780*
X178241Y203450D02*
Y203825D01*
X174372Y207694*
Y213934*
X175869Y215431*
X178859*
X178920Y215493*
Y217461D02*
X183760D01*
X185729Y215493*
X190346Y210875*
Y205822*
X191844Y204324*
X197835*
X206696Y195463*
X206321*
X178920Y219430D02*
X186977D01*
X195843Y210564*
X196587*
X178920Y221398D02*
Y221422D01*
X188225*
X193217Y216430*
X201080*
X207070Y210439*
X178920Y223367D02*
X190097D01*
X194163Y219300*
X208069*
X214059Y225291*
Y242264*
X178920Y225335D02*
X191969D01*
X195757Y221547*
X200955*
X208193Y228785*
X208069*
X178920Y227304D02*
X198209D01*
X178920Y229272D02*
X182904D01*
X186286Y232654*
X202702*
X205204Y235156*
Y238146*
X178920Y229272D02*
X165428D01*
X162286Y232414*
X178920Y231241D02*
X181613D01*
X184730Y234358*
Y234414*
X188462Y238146*
X198204*
X183482Y188474D02*
X180487D01*
X171127Y197834*
Y203763*
X171144Y203780*
X196087Y197085D02*
X194215D01*
X187975Y203326*
Y209281*
X183732Y213524*
X178920*
X197335Y173622D02*
Y173498D01*
X211563Y159270*
X215182*
X223794Y150659*
Y148163*
X233528Y138428*
Y129941*
X237896Y125573*
Y103483*
X231656Y97243*
X231642*
X218053Y83654*
X209384*
X199443Y81685D02*
X189391D01*
X182359Y74654*
X199443Y83654D02*
X176244D01*
X199443Y85622D02*
X172500D01*
X199443Y87591D02*
X197004D01*
X195713Y88881*
Y99240*
X195838Y99365*
X202445Y80652D02*
Y72031D01*
X199831Y69417*
X202445Y88624D02*
Y105487D01*
X190721Y117211*
X204413Y80652D02*
Y74689D01*
X205448Y73655*
X204413Y88624D02*
Y114876D01*
X203326Y115963*
X205448Y73655D02*
Y63796D01*
X204200Y62548*
X199962*
X199831Y62417*
X206382Y80652D02*
Y74589D01*
X205448Y73655*
X206382Y88624D02*
Y103294D01*
X215182Y112094*
X209384Y81685D02*
Y79703D01*
X209941Y79146*
X217060*
X222795Y73411*
X230533Y77150D02*
X244012Y90628D01*
X232405Y159520D02*
X230907D01*
X211937Y178490*
Y198708*
X207195Y203450*
X259987Y84139D02*
X266013D01*
X259987Y106354D02*
X266440D01*
X266601Y106193*
X259987Y124824D02*
X264474D01*
X266352Y126702*
Y77477D02*
X254917D01*
X247506Y84887*
Y115963*
X240892Y122578*
Y126696*
X236399Y131189*
Y139052*
X230783Y144668*
Y149411*
X215681Y164512*
X211688*
X191345Y184855*
Y189722*
X182858Y198209*
Y207943*
X181111Y209691*
X179023*
X178920Y209587*
X266352Y119702D02*
X251131D01*
X245759Y125074*
Y131189*
X243263Y133685*
X266601Y99193D02*
X254917D01*
X250002Y104107*
Y117087*
X243138Y123951*
Y128444*
X238645Y132937*
Y140425*
X234028Y145043*
Y152031*
X216555Y169504*
X211937*
X193966Y187476*
Y190596*
X185479Y199082*
Y208318*
X182359Y211438*
X179038*
X178920Y211556*
X298551Y84638D02*
X304630D01*
X310033Y106229D02*
X304328D01*
X324135Y110597D02*
Y118459D01*
X321515Y121080*
D02*
D99*
X13616Y94248D02*
Y105100D01*
X14724Y78519D02*
Y83125D01*
X16861Y85262*
X22228*
X25722Y88756*
X16995Y96744D02*
X16112D01*
X13616Y94248*
X23975Y56192D02*
X28204D01*
X30340Y54056*
X25573Y155651D02*
X31151D01*
X31480Y155322*
X34502*
X25722Y88756D02*
Y96855D01*
X21831*
X21719Y96744*
X30340Y61056D02*
Y62298D01*
X22228Y70410*
Y74014*
X22992Y74778*
X34502Y96267D02*
X26310D01*
X25722Y96855*
X52711Y78058D02*
Y69439D01*
X52526Y69254*
X58804Y219800D02*
Y206945D01*
X61799Y203950*
X67180*
X67304Y204074*
X60585Y169594D02*
Y177900D01*
X63921Y181235*
X72532*
X76027Y184730*
Y208193*
X67790Y216430*
X61637Y344414D02*
Y336314D01*
X63286Y334664*
X62562Y192717D02*
X67304Y187975D01*
X63286Y327664D02*
X65286D01*
X64522Y169594D02*
Y174723D01*
X67665Y177866*
X77275*
X80020Y180611*
Y228661*
X82891Y231531*
X87009*
X65286Y327664D02*
X67286D01*
X69286*
X68286Y329914D02*
Y328664D01*
X69286Y327664*
X68286Y329914D02*
X67536D01*
X65286Y327664*
X68286Y329914D02*
Y328914D01*
X67286*
Y327664*
X68459Y169594D02*
Y173543D01*
X69787Y174870*
X79521*
X82891Y178240*
Y216509*
X86556Y220174*
Y221672*
X69286Y327664D02*
X73536D01*
X73786Y327414*
X69786Y356914D02*
X74536D01*
X69786D02*
Y352914D01*
X70036Y352664*
X65786Y348414*
X70911Y353539D02*
X70036Y352664D01*
X72033Y225416D02*
Y227787D01*
X56058*
X52439Y224168*
Y188224*
X56682Y183981*
Y177151*
X56648Y177117*
Y169594*
X72286Y354914D02*
X70911Y353539D01*
X72786Y334914D02*
Y337414D01*
X75786Y340414*
X77786*
X78786Y341414*
Y343174*
X78536Y343424*
X73411Y356039D02*
X72286Y354914D01*
X73411Y356039D02*
X73661D01*
X74536Y356914*
X73536Y353664D02*
X71036D01*
X70911Y353539*
X73536Y353664D02*
Y355915D01*
X73411Y356039*
X73536Y353664D02*
X72286Y354914D01*
X78536Y350904D02*
X76296D01*
X73536Y353664*
X80786Y327414D02*
X87292D01*
X88786Y328908*
X82641Y248629D02*
Y291437D01*
X73905Y300173*
X69662*
X89536Y343424D02*
X85776D01*
X84286Y344914*
Y345414*
X82786Y346914*
X75286*
X73286Y344914*
Y342914*
X70286Y339914*
X69786*
X68286Y338414*
Y329914*
X89786Y351154D02*
X89536Y350904D01*
X92501Y255119D02*
Y289190D01*
X72407Y309283*
X97286Y356414D02*
Y354414D01*
X96286Y353414*
X98307Y192374D02*
Y201110D01*
Y208567*
X99549Y249128D02*
Y209809D01*
X98307Y208567*
X99946Y181735D02*
X100570Y181111D01*
X114341*
X116463Y178989*
Y164262*
X113842Y161641*
X97867*
X93749Y157523*
Y112594*
X98242Y108101*
X116550*
X116573Y108078*
X126038*
X99946Y181735D02*
Y190735D01*
X98307Y192374*
X101487Y315399D02*
X104107D01*
X106104Y313402*
Y258364*
X105980Y258239*
Y255559*
X99549Y249128*
X103892Y78058D02*
Y69681D01*
X103945Y69628*
X105120Y44326D02*
X116338D01*
Y48570*
X106728Y137804D02*
X112594Y143670D01*
X125879*
X126038Y143511*
X112344Y120082D02*
X125845D01*
X126038Y119889*
X117212Y329377D02*
Y329751D01*
X122454Y334993*
Y350469*
X119458Y353464*
X96861*
X96811Y353414*
X96286*
X119833Y151385D02*
X115861D01*
X121330Y116088D02*
X125902D01*
X126038Y115952*
X121452Y196087D02*
Y204914D01*
Y212414*
X124603Y212436D02*
X121452D01*
Y212414*
X125786Y281946D02*
X132818D01*
X135786Y284914*
X141176*
X126038Y104141D02*
Y108078D01*
Y112015D02*
Y108078D01*
Y127763D02*
X133992D01*
X136307Y125448*
Y123068*
X126038Y147448D02*
X132722D01*
X133436Y148163*
X138063*
X139186Y149286*
X139685*
X126038Y151385D02*
X119833D01*
X126038Y155322D02*
X133135D01*
X133935Y154522*
X128819Y38461D02*
X128694D01*
X122828Y32595*
X105980*
X95995Y22611*
X30090*
X9373Y43328*
Y90254*
X13367Y94248*
X131065Y229855D02*
X120294D01*
X120065Y229626*
X131065Y239697D02*
X120144D01*
X120065Y239776*
X133286Y314656D02*
X128473D01*
X125597Y311780*
X136431Y113717D02*
X136307D01*
Y118344*
X137286Y234914D02*
X135848D01*
X131065Y239697*
X137786Y228914D02*
X132006D01*
X131065Y229855*
X137929Y109105D02*
Y113717D01*
X136431*
X139685Y149286D02*
Y146656D01*
X140924Y145417*
Y144424*
X143670Y141678*
X141286Y334414D02*
X149786D01*
X143670Y134678D02*
X148651D01*
X150409Y136437*
X144410Y149286D02*
X145792D01*
X148537Y146540*
Y143295*
X151033Y140799*
X153779*
X155776Y138802*
Y129817*
X160519Y125074*
Y115714*
X162141Y114091*
X162148*
X166399Y109840*
X145168Y117841D02*
X146792D01*
X154793Y109840*
X147664Y52813D02*
Y72157D01*
X165760Y90254*
X147913Y42330D02*
X143171D01*
X140051Y45450*
Y69911*
X156650Y86510*
X147913Y83265D02*
X133686Y69037D01*
Y54560*
X149037Y94132D02*
Y92750D01*
Y98856D02*
Y104084D01*
X154793Y109840*
X150786Y322414D02*
X150286Y321914D01*
X151786Y277958D02*
Y287914D01*
X158286Y294414*
Y301414*
X152045Y307656*
X133286*
X159138Y28851D02*
Y34209D01*
X162890Y37961*
Y76012*
X162959Y76082*
X167133Y173997D02*
X190471Y150659D01*
X169130Y28851D02*
Y76540D01*
X172500Y85622D02*
X162959Y76082D01*
X173872Y268847D02*
Y275711D01*
X174704*
X174247Y178115D02*
X203076Y149286D01*
X174704Y275711D02*
X176079Y277091D01*
X177343Y278567*
X177017Y245989D02*
X177733D01*
X183233Y251489*
X177343Y278567D02*
X177786Y278993D01*
Y284524*
X177396Y284914*
X177741Y275836D02*
X174828D01*
X174704Y275711*
X177741Y275836D02*
Y278576D01*
X177733Y278567*
X177343*
X177741Y275836D02*
X176486Y277091D01*
X176079*
X178286Y254489D02*
X183108D01*
X182609Y181235D02*
X184106D01*
X215307Y150035*
X183108Y254489D02*
Y251614D01*
X183233Y251489*
X183108Y254489D02*
Y256543D01*
X183233Y256668*
Y256989*
X183108Y254489D02*
X182983D01*
Y251414*
X183233*
Y256989*
Y251489D02*
Y251414D01*
Y256989D02*
Y267884D01*
X177741Y273376*
Y275836*
X185286Y291414D02*
X168786D01*
X161286Y283914*
X187286Y278826D02*
Y277269D01*
X183482Y273465*
X177814*
X176079Y275200*
Y277091*
X187286Y285826D02*
Y288914D01*
Y289414*
X189286Y291414*
X187286Y288914D02*
Y289414D01*
X185286Y291414*
X187286Y288914D02*
Y291414D01*
X185286*
X187286Y293414D02*
X189286Y291414D01*
X187286Y293414D02*
X185286Y291414D01*
X187286Y293414D02*
Y291414D01*
Y305414D02*
Y293414D01*
X189286Y291414D02*
X187286D01*
X190721Y117211D02*
Y117336D01*
X196212Y122828*
X223794*
X227101Y126135*
X205323Y251999D02*
X213819D01*
X205323Y264604D02*
X210948D01*
X214318Y261234*
X211563Y46698D02*
X234152D01*
X213286Y344664D02*
Y339414D01*
X214286Y338414*
X226914Y102609D02*
X223669Y105854D01*
Y115714*
X220424Y118959*
X207195*
X204200Y115963*
X203326*
X227101Y126135D02*
X227288Y126322D01*
Y136057*
X229035Y168500D02*
X238401D01*
X242015Y164886*
Y153696*
X242089Y153622*
X229035Y175500D02*
Y175245D01*
X230283*
X238089Y183051*
Y183622*
X242089*
X231656Y116837D02*
Y121580D01*
X227101Y126135*
X242089Y183622D02*
X238520D01*
Y183783*
X233455Y188848*
Y194913*
X228786Y199581*
X249786Y314414D02*
X240286Y304914D01*
X227286*
X213786Y291414*
X189286*
X263160Y314414D02*
X249786D01*
X266013Y84139D02*
X266352Y84477D01*
X288096Y77093D02*
Y73059D01*
X286320Y71284*
X268972*
X266476Y73780*
Y77352*
X266352Y77477*
X288096Y98559D02*
Y95150D01*
X285571Y92625*
X268848*
X266476Y94996*
Y99068*
X266601Y99193*
X288096Y119942D02*
Y116491D01*
X285696Y114091*
X268723*
X266227Y116587*
Y119577*
X266352Y119702*
X304292Y99193D02*
X298848D01*
X291312Y106728*
X284454*
X284356Y106826*
X304292Y119328D02*
X300928D01*
X292186Y128069*
X284496*
X284356Y128209*
X304292Y126328D02*
X308405D01*
X324135Y110597*
X304328Y106229D02*
X304292Y106193D01*
X304630Y84638D02*
X304791Y84477D01*
Y77477D02*
X299222D01*
X291811Y84887*
X284828*
X284356Y85360*
X307089Y178622D02*
X318527D01*
X322014Y182109*
Y191844*
X321015*
X307089Y183622D02*
X311796D01*
X313902Y185728*
Y202452*
X320891Y209441*
X322513Y55153D02*
X316055D01*
X304791Y66417*
Y77477*
X322513Y65153D02*
X315165D01*
X311780Y68538*
Y96369*
X309284Y98865*
X304619*
X304292Y99193*
X322513Y75153D02*
X318644D01*
X316398Y77399*
Y111221*
X308535Y119083*
X304536*
X304292Y119328*
X324135Y110597D02*
Y96775D01*
X322513Y95153*
X0Y0D02*
M02*
