%FSLAX35Y35*%
%MOIN*%
G04 EasyPC Gerber Version 18.0.9 Build 3640 *
%ADD11C,0.00500*%
%ADD24C,0.10000*%
X0Y0D02*
D02*
D11*
X19063Y98844D02*
X19376Y98531D01*
X20000Y98219*
X20626Y98531*
X20938Y98844*
Y101969*
X21563*
X20938D02*
X19688D01*
X26740Y86408D02*
Y90158D01*
Y88283D02*
X27678D01*
X29865Y90158*
X27678Y88283D02*
X29865Y86408D01*
X44260D02*
Y90158D01*
Y88283D02*
X45197D01*
X47385Y90158*
X45197Y88283D02*
X47385Y86408D01*
X51937Y98844D02*
X52250Y98531D01*
X52874Y98219*
X53500Y98531*
X53812Y98844*
Y101969*
X54437*
X53812D02*
X52562D01*
X75500Y89687D02*
Y93437D01*
Y91563D02*
X78625D01*
Y89687D02*
Y93437D01*
X85500Y89687D02*
Y93437D01*
Y91563D02*
X88625D01*
Y89687D02*
Y93437D01*
X95500Y89687D02*
Y93437D01*
Y91563D02*
X98625D01*
Y89687D02*
Y93437D01*
X105500Y89687D02*
Y93437D01*
Y91563D02*
X108625D01*
Y89687D02*
Y93437D01*
X115500Y89687D02*
Y93437D01*
Y91563D02*
X118625D01*
Y89687D02*
Y93437D01*
D02*
D24*
X9063Y92281D03*
X16740Y80470D03*
X34260D03*
X41937Y92281D03*
X65500Y83750D03*
X75500D03*
X85500D03*
X95500D03*
X105500D03*
X0Y0D02*
M02*
