%FSLAX35Y35*%
%MOIN*%
G04 EasyPC Gerber Version 18.0.9 Build 3640 *
%ADD11C,0.00500*%
%ADD10C,0.10000*%
X0Y0D02*
D02*
D10*
X138813Y314719D03*
X140250Y365250D03*
Y405250D03*
X141313Y60250D03*
X146490Y326530D03*
X149187Y60250D03*
X150250Y365250D03*
Y405250D03*
X160250Y365250D03*
Y405250D03*
X164010Y326530D03*
X170250Y365250D03*
Y405250D03*
X171687Y314719D03*
X180250Y365250D03*
Y405250D03*
X190250Y365250D03*
Y405250D03*
X200250Y365250D03*
Y405250D03*
X210250Y365250D03*
X224108Y135250D03*
X232376D03*
X240250D03*
X248124D03*
X256392D03*
X270407Y75250D03*
X290093D03*
X336187Y300250D03*
X346187D03*
X434652Y295250D03*
X435250Y260250D03*
Y325250D03*
Y335250D03*
Y365250D03*
Y400250D03*
X444652Y295250D03*
X445250Y260250D03*
Y325250D03*
Y335250D03*
Y365250D03*
Y400250D03*
X454652Y295250D03*
X455250Y260250D03*
Y325250D03*
Y335250D03*
Y400250D03*
X464652Y295250D03*
X465250Y260250D03*
Y325250D03*
Y335250D03*
Y400250D03*
X475250Y260250D03*
Y325250D03*
Y335250D03*
Y400250D03*
X485250Y325250D03*
Y335250D03*
X495250Y325250D03*
Y335250D03*
X505250Y325250D03*
Y335250D03*
D02*
D11*
X148813Y321281D02*
X149126Y320969D01*
X149750Y320656*
X150376Y320969*
X150688Y321281*
Y324406*
X151313*
X150688D02*
X149438D01*
X150250Y371187D02*
Y374937D01*
Y373063D02*
X153375D01*
Y371187D02*
Y374937D01*
X150250Y411187D02*
Y414937D01*
Y413063D02*
X153375D01*
Y411187D02*
Y414937D01*
X151313Y69937D02*
Y66187D01*
X154438*
X156490Y332467D02*
Y336217D01*
Y334342D02*
X157428D01*
X159615Y336217*
X157428Y334342D02*
X159615Y332467D01*
X159187Y69937D02*
Y66187D01*
X162312*
X160250Y371187D02*
Y374937D01*
Y373063D02*
X163375D01*
Y371187D02*
Y374937D01*
X160250Y411187D02*
Y414937D01*
Y413063D02*
X163375D01*
Y411187D02*
Y414937D01*
X170250Y371187D02*
Y374937D01*
Y373063D02*
X173375D01*
Y371187D02*
Y374937D01*
X170250Y411187D02*
Y414937D01*
Y413063D02*
X173375D01*
Y411187D02*
Y414937D01*
X174010Y332467D02*
Y336217D01*
Y334342D02*
X174947D01*
X177135Y336217*
X174947Y334342D02*
X177135Y332467D01*
X180250Y371187D02*
Y374937D01*
Y373063D02*
X183375D01*
Y371187D02*
Y374937D01*
X180250Y411187D02*
Y414937D01*
Y413063D02*
X183375D01*
Y411187D02*
Y414937D01*
X181687Y321281D02*
X182000Y320969D01*
X182624Y320656*
X183250Y320969*
X183562Y321281*
Y324406*
X184187*
X183562D02*
X182312D01*
X190250Y371187D02*
Y374937D01*
Y373063D02*
X193375D01*
Y371187D02*
Y374937D01*
X190250Y411187D02*
Y414937D01*
Y413063D02*
X193375D01*
Y411187D02*
Y414937D01*
X200250Y371187D02*
Y374937D01*
Y373063D02*
X203375D01*
Y371187D02*
Y374937D01*
X200250Y411187D02*
Y414937D01*
Y413063D02*
X203375D01*
Y411187D02*
Y414937D01*
X210250Y371187D02*
Y374937D01*
Y373063D02*
X213375D01*
Y371187D02*
Y374937D01*
X210250Y411187D02*
Y414937D01*
Y413063D02*
X213375D01*
Y411187D02*
Y414937D01*
X220250Y371187D02*
Y374937D01*
Y373063D02*
X223375D01*
Y371187D02*
Y374937D01*
X234108Y141187D02*
Y144937D01*
X235671Y143063*
X237233Y144937*
Y141187*
X245501Y141813D02*
X245189Y141500D01*
X244563Y141187*
X243626*
X243001Y141500*
X242689Y141813*
X242376Y142437*
Y143687*
X242689Y144313*
X243001Y144625*
X243626Y144937*
X244563*
X245189Y144625*
X245501Y144313*
X253375Y141813D02*
X253063Y141500D01*
X252437Y141187*
X251500*
X250875Y141500*
X250563Y141813*
X250250Y142437*
Y143687*
X250563Y144313*
X250875Y144625*
X251500Y144937*
X252437*
X253063Y144625*
X253375Y144313*
X261249Y141813D02*
X260937Y141500D01*
X260311Y141187*
X259374*
X258749Y141500*
X258437Y141813*
X258124Y142437*
Y143687*
X258437Y144313*
X258749Y144625*
X259374Y144937*
X260311*
X260937Y144625*
X261249Y144313*
X266392Y141187D02*
Y144937D01*
X267954Y143063*
X269517Y144937*
Y141187*
X283533Y81813D02*
X283220Y81500D01*
X282595Y81187*
X281657*
X281033Y81500*
X280720Y81813*
X280407Y82437*
Y83687*
X280720Y84313*
X281033Y84625*
X281657Y84937*
X282595*
X283220Y84625*
X283533Y84313*
X303218Y81813D02*
X302905Y81500D01*
X302280Y81187*
X301343*
X300718Y81500*
X300405Y81813*
X300093Y82437*
Y83687*
X300405Y84313*
X300718Y84625*
X301343Y84937*
X302280*
X302905Y84625*
X303218Y84313*
X346187Y306187D02*
Y309937D01*
Y308063D02*
X349312D01*
Y306187D02*
Y309937D01*
X359312Y306813D02*
X359000Y306500D01*
X358374Y306187*
X357437*
X356812Y306500*
X356500Y306813*
X356187Y307437*
Y308687*
X356500Y309313*
X356812Y309625*
X357437Y309937*
X358374*
X359000Y309625*
X359312Y309313*
X444652Y301187D02*
Y304937D01*
Y303063D02*
X447777D01*
Y301187D02*
Y304937D01*
X445250Y266187D02*
Y269937D01*
Y268063D02*
X448375D01*
Y266187D02*
Y269937D01*
X445250Y331187D02*
Y334937D01*
Y333063D02*
X448375D01*
Y331187D02*
Y334937D01*
X445250Y341187D02*
Y344937D01*
Y343063D02*
X448375D01*
Y341187D02*
Y344937D01*
X445250Y371187D02*
Y374937D01*
Y373063D02*
X448375D01*
Y371187D02*
Y374937D01*
X445250Y406187D02*
Y409937D01*
Y408063D02*
X448375D01*
Y406187D02*
Y409937D01*
X454652Y301187D02*
Y304937D01*
Y303063D02*
X457777D01*
Y301187D02*
Y304937D01*
X455250Y266187D02*
Y269937D01*
Y268063D02*
X458375D01*
Y266187D02*
Y269937D01*
X455250Y331187D02*
Y334937D01*
Y333063D02*
X458375D01*
Y331187D02*
Y334937D01*
X455250Y341187D02*
Y344937D01*
Y343063D02*
X458375D01*
Y341187D02*
Y344937D01*
Y371813D02*
X458063Y371500D01*
X457437Y371187*
X456500*
X455875Y371500*
X455563Y371813*
X455250Y372437*
Y373687*
X455563Y374313*
X455875Y374625*
X456500Y374937*
X457437*
X458063Y374625*
X458375Y374313*
X455250Y406187D02*
Y409937D01*
Y408063D02*
X458375D01*
Y406187D02*
Y409937D01*
X464652Y301187D02*
Y304937D01*
Y303063D02*
X467777D01*
Y301187D02*
Y304937D01*
X465250Y266187D02*
Y269937D01*
Y268063D02*
X468375D01*
Y266187D02*
Y269937D01*
X465250Y331187D02*
Y334937D01*
Y333063D02*
X468375D01*
Y331187D02*
Y334937D01*
X465250Y341187D02*
Y344937D01*
Y343063D02*
X468375D01*
Y341187D02*
Y344937D01*
X465250Y406187D02*
Y409937D01*
Y408063D02*
X468375D01*
Y406187D02*
Y409937D01*
X474652Y301187D02*
Y304937D01*
Y303063D02*
X477777D01*
Y301187D02*
Y304937D01*
X475250Y266187D02*
Y269937D01*
Y268063D02*
X478375D01*
Y266187D02*
Y269937D01*
X475250Y331187D02*
Y334937D01*
Y333063D02*
X478375D01*
Y331187D02*
Y334937D01*
X475250Y341187D02*
Y344937D01*
Y343063D02*
X478375D01*
Y341187D02*
Y344937D01*
X475250Y406187D02*
Y409937D01*
Y408063D02*
X478375D01*
Y406187D02*
Y409937D01*
X485250Y266187D02*
Y269937D01*
Y268063D02*
X488375D01*
Y266187D02*
Y269937D01*
X485250Y331187D02*
Y334937D01*
Y333063D02*
X488375D01*
Y331187D02*
Y334937D01*
X485250Y341187D02*
Y344937D01*
Y343063D02*
X488375D01*
Y341187D02*
Y344937D01*
X485250Y406187D02*
Y409937D01*
Y408063D02*
X488375D01*
Y406187D02*
Y409937D01*
X495250Y331187D02*
Y334937D01*
Y333063D02*
X498375D01*
Y331187D02*
Y334937D01*
X495250Y341187D02*
Y344937D01*
Y343063D02*
X498375D01*
Y341187D02*
Y344937D01*
X505250Y331187D02*
Y334937D01*
Y333063D02*
X508375D01*
Y331187D02*
Y334937D01*
X505250Y341187D02*
Y344937D01*
Y343063D02*
X508375D01*
Y341187D02*
Y344937D01*
X515250Y331187D02*
Y334937D01*
Y333063D02*
X518375D01*
Y331187D02*
Y334937D01*
X515250Y341187D02*
Y344937D01*
Y343063D02*
X518375D01*
Y341187D02*
Y344937D01*
X0Y0D02*
M02*
