%FSLAX35Y35*%
%MOIN*%
G04 EasyPC Gerber Version 18.0.9 Build 3640 *
%ADD128R,0.00427X0.01450*%
%ADD142R,0.00702X0.01647*%
%ADD137R,0.00860X0.03734*%
%ADD124R,0.00978X0.02651*%
%ADD105R,0.01175X0.04915*%
%ADD135R,0.01569X0.06293*%
%ADD113R,0.01569X0.08655*%
%ADD133R,0.01765X0.03143*%
%ADD129R,0.01962X0.04324*%
%ADD136R,0.02159X0.05584*%
%ADD139R,0.02435X0.04915*%
%ADD107R,0.02750X0.02750*%
%ADD121R,0.02750X0.04324*%
%ADD108R,0.02750X0.04482*%
%ADD122R,0.03143X0.03734*%
%ADD109R,0.03340X0.09443*%
%ADD117R,0.03537X0.03891*%
%ADD126R,0.03537X0.05112*%
%ADD112R,0.03537X0.08655*%
%ADD110R,0.04128X0.08261*%
%ADD115R,0.04324X0.11411*%
%ADD127R,0.04364X0.09049*%
%ADD119R,0.04600X0.04600*%
%ADD141R,0.05112X0.06490*%
%ADD132R,0.05506X0.12986*%
%ADD116R,0.06293X0.15348*%
%ADD106R,0.06687X0.07080*%
%ADD114R,0.16923X0.42907*%
%ADD138R,0.03734X0.00860*%
%ADD125R,0.02651X0.00978*%
%ADD134R,0.06293X0.01569*%
%ADD143R,0.04718X0.02356*%
%ADD140R,0.04915X0.02435*%
%ADD120R,0.02750X0.02750*%
%ADD118R,0.04324X0.03143*%
%ADD131R,0.06694X0.03986*%
%ADD111R,0.05506X0.04128*%
%ADD123R,0.11805X0.05702*%
%ADD130R,0.08183X0.05899*%
X0Y0D02*
D02*
D105*
X150132Y325250D03*
X152691D03*
X155250D03*
X157809D03*
X160368D03*
D02*
D106*
X150722Y314719D03*
X159778D03*
D02*
D107*
X333825Y405250D03*
X338549D03*
D02*
D108*
X152750Y292750D03*
X157081D03*
X161411D03*
X165742D03*
X170073D03*
X174404D03*
X178734D03*
X183065D03*
D02*
D109*
X135644Y290270D03*
D02*
D110*
Y248144D03*
X192297Y290860D03*
D02*
D111*
X152593Y245014D03*
X183222D03*
D02*
D112*
X155250Y95250D03*
X160250D03*
X165250D03*
X170250D03*
X175250D03*
X180250D03*
X185250D03*
X190250D03*
D02*
D113*
X194187D03*
X199305D03*
D02*
D114*
X192809Y123400D03*
D02*
D115*
X157500Y161707D03*
Y191707D03*
X167500Y161707D03*
Y191707D03*
X177500Y161707D03*
Y191707D03*
X187500Y161707D03*
Y191707D03*
D02*
D116*
X128957Y189738D03*
X206516D03*
D02*
D117*
X225250Y206750D03*
Y213750D03*
Y226750D03*
Y233750D03*
Y246750D03*
Y253750D03*
Y266750D03*
Y273750D03*
Y286750D03*
Y293750D03*
Y306750D03*
Y313750D03*
Y326750D03*
Y333750D03*
Y346750D03*
Y353750D03*
Y366750D03*
Y373750D03*
Y386750D03*
Y393750D03*
Y406750D03*
Y413750D03*
X340250Y36750D03*
Y43750D03*
Y61750D03*
Y68750D03*
Y81750D03*
Y88750D03*
Y101750D03*
Y108750D03*
Y141750D03*
Y148750D03*
Y161750D03*
Y168750D03*
Y181750D03*
Y188750D03*
Y201750D03*
Y208750D03*
X366187Y296750D03*
Y303750D03*
X460250Y196750D03*
Y203750D03*
D02*
D118*
X17750Y360250D03*
Y365250D03*
Y370250D03*
Y395250D03*
Y400250D03*
Y405250D03*
Y410250D03*
Y415250D03*
Y420250D03*
X82750Y360250D03*
Y365250D03*
Y370250D03*
Y375250D03*
Y380250D03*
Y385250D03*
Y390250D03*
Y395250D03*
Y400250D03*
Y405250D03*
Y410250D03*
Y415250D03*
Y420250D03*
D02*
D119*
X35250Y367789D03*
Y412711D03*
X45250Y367789D03*
Y412711D03*
X55250Y367789D03*
Y412711D03*
X65250Y367789D03*
Y412711D03*
D02*
D120*
X333037Y225250D03*
Y275250D03*
X338943Y225250D03*
Y275250D03*
D02*
D121*
X333687Y380250D03*
X333825Y255250D03*
Y330250D03*
X338411Y380250D03*
X338549Y255250D03*
Y330250D03*
D02*
D122*
X26195Y293439D03*
X35250D03*
X44305D03*
D02*
D123*
X35250Y317061D03*
D02*
D124*
X73370Y301264D03*
Y309236D03*
X75339Y301264D03*
Y309236D03*
X77307Y301264D03*
Y309236D03*
D02*
D125*
X70369Y302297D03*
Y304266D03*
Y306234D03*
Y308203D03*
X80309Y302297D03*
Y304266D03*
Y306234D03*
Y308203D03*
D02*
D126*
X451510Y121116D03*
X455250Y129384D03*
X458990Y121116D03*
D02*
D127*
X336876Y355250D03*
X345498D03*
D02*
D128*
X334888Y240250D03*
X337486D03*
D02*
D129*
X96510Y300750D03*
Y310000D03*
X100250Y300750D03*
Y310000D03*
X103990Y300750D03*
Y310000D03*
D02*
D130*
X227140Y170250D03*
X263360D03*
D02*
D131*
X340250Y119053D03*
Y131447D03*
D02*
D132*
X429837Y200250D03*
X440663D03*
D02*
D133*
X22760Y219250D03*
Y230250D03*
X26500Y219250D03*
X30240D03*
Y230250D03*
D02*
D134*
X57691Y220447D03*
Y223203D03*
Y225959D03*
Y228715D03*
Y231470D03*
Y234226D03*
Y236982D03*
Y239738D03*
Y242494D03*
Y245250D03*
Y261785D03*
Y264541D03*
X95093Y220447D03*
Y223203D03*
Y225959D03*
Y228715D03*
Y231470D03*
Y234226D03*
Y236982D03*
Y239738D03*
Y242494D03*
Y245250D03*
Y248006D03*
Y250762D03*
Y253518D03*
Y256274D03*
Y259030D03*
Y261785D03*
Y264541D03*
D02*
D135*
X59856Y214344D03*
X62612D03*
X65368D03*
X68124D03*
X70880D03*
X73636D03*
X76392D03*
X79148D03*
X81904D03*
X84659D03*
X87415D03*
X90171D03*
X92927D03*
D02*
D136*
X22750Y147376D03*
Y183124D03*
X27750Y147376D03*
Y183124D03*
X32750Y147376D03*
Y183124D03*
X37750Y147376D03*
Y183124D03*
X42750Y147376D03*
Y183124D03*
X47750Y147376D03*
Y183124D03*
X52750Y147376D03*
Y183124D03*
X57750Y147376D03*
Y183124D03*
D02*
D137*
X84423Y138616D03*
Y171884D03*
X86392Y138616D03*
Y171884D03*
X88360Y138616D03*
Y171884D03*
X90329Y138616D03*
Y171884D03*
X92297Y138616D03*
Y171884D03*
X94266Y138616D03*
Y171884D03*
X96234Y138616D03*
Y171884D03*
X98203Y138616D03*
Y171884D03*
X100171Y138616D03*
Y171884D03*
X102140Y138616D03*
Y171884D03*
X104108Y138616D03*
Y171884D03*
X106077Y138616D03*
Y171884D03*
D02*
D138*
X78616Y144423D03*
Y146392D03*
Y148360D03*
Y150329D03*
Y152297D03*
Y154266D03*
Y156234D03*
Y158203D03*
Y160171D03*
Y162140D03*
Y164108D03*
Y166077D03*
X111884Y144423D03*
Y146392D03*
Y148360D03*
Y150329D03*
Y152297D03*
Y154266D03*
Y156234D03*
Y158203D03*
Y160171D03*
Y162140D03*
Y164108D03*
Y166077D03*
D02*
D139*
X33754Y24482D03*
Y116018D03*
X37691Y24482D03*
Y116018D03*
X41628Y24482D03*
Y116018D03*
X45565Y24482D03*
Y116018D03*
X49502Y24482D03*
Y116018D03*
X53439Y24482D03*
Y116018D03*
X57376Y24482D03*
Y116018D03*
X61313Y24482D03*
Y116018D03*
X65250Y24482D03*
Y116018D03*
X69187Y24482D03*
Y116018D03*
X73124Y24482D03*
Y116018D03*
X77061Y24482D03*
Y116018D03*
X80998Y24482D03*
Y116018D03*
X84935Y24482D03*
Y116018D03*
X88872Y24482D03*
Y116018D03*
X92809Y24482D03*
Y116018D03*
X96746Y24482D03*
Y116018D03*
D02*
D140*
X19482Y38754D03*
Y42691D03*
Y46628D03*
Y50565D03*
Y54502D03*
Y58439D03*
Y62376D03*
Y66313D03*
Y70250D03*
Y74187D03*
Y78124D03*
Y82061D03*
Y85998D03*
Y89935D03*
Y93872D03*
Y97809D03*
Y101746D03*
X111018Y38754D03*
Y42691D03*
Y46628D03*
Y50565D03*
Y54502D03*
Y58439D03*
Y62376D03*
Y66313D03*
Y70250D03*
Y74187D03*
Y78124D03*
Y82061D03*
Y85998D03*
Y89935D03*
Y93872D03*
Y97809D03*
Y101746D03*
D02*
D141*
X450329Y45250D03*
X460171D03*
D02*
D142*
X137297Y26514D03*
Y33994D03*
X139266Y26514D03*
Y33994D03*
X141234Y26514D03*
Y33994D03*
X143203Y26514D03*
Y33994D03*
D02*
D143*
X140250Y30254D03*
X0Y0D02*
M02*
