%FSLAX35Y35*%
%MOIN*%
G04 EasyPC Gerber Version 18.0.9 Build 3640 *
%ADD90R,0.07693X0.07693*%
%ADD23R,0.08480X0.08480*%
%ADD14R,0.08874X0.08874*%
%ADD19C,0.05528*%
%ADD101C,0.06512*%
%ADD91C,0.07693*%
%ADD100C,0.08087*%
%ADD26C,0.08480*%
%ADD18C,0.08480*%
%ADD15C,0.08874*%
%AMT25*0 Octagon Pad at angle 0*4,1,8,-0.01449,-0.03500,0.01449,-0.03500,0.03500,-0.01449,0.03500,0.01449,0.01449,0.03500,-0.01449,0.03500,-0.03500,0.01449,-0.03500,-0.01449,-0.01449,-0.03500,0*%
%ADD25T25*%
%AMT24*0 Octagon Pad at angle 0*4,1,8,-0.01756,-0.04240,0.01756,-0.04240,0.04240,-0.01756,0.04240,0.01756,0.01756,0.04240,-0.01756,0.04240,-0.04240,0.01756,-0.04240,-0.01756,-0.01756,-0.04240,0*%
%ADD24T24*%
X0Y0D02*
D02*
D14*
X140250Y365250D03*
Y405250D03*
X290093Y75250D03*
D02*
D15*
X150250Y365250D03*
Y405250D03*
X160250Y365250D03*
Y405250D03*
X170250Y365250D03*
Y405250D03*
X180250Y365250D03*
Y405250D03*
X190250Y365250D03*
Y405250D03*
X200250Y365250D03*
Y405250D03*
X210250Y365250D03*
X270407Y75250D03*
D02*
D18*
X138813Y314719D03*
X171687D03*
D02*
D19*
X146490Y326530D03*
X164010D03*
D02*
D23*
X336187Y300250D03*
X434652Y295250D03*
X435250Y260250D03*
Y325250D03*
Y365250D03*
Y400250D03*
D02*
D24*
X445250Y260250D03*
Y400250D03*
X455250Y260250D03*
Y400250D03*
X465250Y260250D03*
Y400250D03*
X475250Y260250D03*
Y400250D03*
D02*
D25*
X346187Y300250D03*
X445250Y365250D03*
D02*
D26*
X435250Y335250D03*
X444652Y295250D03*
X445250Y325250D03*
Y335250D03*
X454652Y295250D03*
X455250Y325250D03*
Y335250D03*
X464652Y295250D03*
X465250Y325250D03*
Y335250D03*
X475250Y325250D03*
Y335250D03*
X485250Y325250D03*
Y335250D03*
X495250Y325250D03*
Y335250D03*
X505250Y325250D03*
Y335250D03*
D02*
D90*
X141313Y60250D03*
D02*
D91*
X149187D03*
D02*
D100*
X232376Y135250D03*
X240250D03*
X248124D03*
D02*
D101*
X224108D03*
X256392D03*
X0Y0D02*
M02*
