%FSLAX35Y35*%
%MOIN*%
G04 EasyPC Gerber Version 18.0.9 Build 3640 *
%ADD11C,0.00500*%
%ADD13C,0.00787*%
%ADD12C,0.01200*%
X0Y0D02*
D02*
D11*
X10270Y420112D02*
X10285Y419918D01*
X10330Y419729*
X10405Y419549*
X10506Y419383*
X10633Y419235*
X10781Y419109*
X10947Y419007*
X11127Y418933*
X11316Y418887*
X11510Y418872*
X11704Y418887*
X11894Y418933*
X12074Y419007*
X12239Y419109*
X12387Y419236*
X12514Y419384*
X12615Y419550*
X12690Y419730*
X12735Y419919*
X12750Y420112*
X12735Y420306*
X12689Y420496*
X12615Y420676*
X12513Y420841*
X12387Y420989*
X12239Y421116*
X12073Y421217*
X11893Y421292*
X11704Y421337*
X11509Y421352*
X11315Y421337*
X11126Y421291*
X10946Y421217*
X10780Y421115*
X10632Y420989*
X10506Y420841*
X10404Y420674*
X10330Y420494*
X10285Y420305*
X10270Y420112*
G36*
X10285Y419918*
X10330Y419729*
X10405Y419549*
X10506Y419383*
X10633Y419235*
X10781Y419109*
X10947Y419007*
X11127Y418933*
X11316Y418887*
X11510Y418872*
X11704Y418887*
X11894Y418933*
X12074Y419007*
X12239Y419109*
X12387Y419236*
X12514Y419384*
X12615Y419550*
X12690Y419730*
X12735Y419919*
X12750Y420112*
X12735Y420306*
X12689Y420496*
X12615Y420676*
X12513Y420841*
X12387Y420989*
X12239Y421116*
X12073Y421217*
X11893Y421292*
X11704Y421337*
X11509Y421352*
X11315Y421337*
X11126Y421291*
X10946Y421217*
X10780Y421115*
X10632Y420989*
X10506Y420841*
X10404Y420674*
X10330Y420494*
X10285Y420305*
X10270Y420112*
G37*
X11037Y427219D02*
X90250D01*
Y353281*
X10250*
Y426431*
X11037Y427219*
X14856Y120644D02*
X115644D01*
Y19856*
X22730*
X14856Y27730*
Y120644*
X15250Y199937D02*
Y197125D01*
X15563Y196500*
X16187Y196187*
X17437*
X18063Y196500*
X18375Y197125*
Y199937*
X20250Y196187D02*
X22750Y199937D01*
X20250*
X15250Y191125D02*
X15563Y190500D01*
X16187Y190187*
X17437*
X18063Y190500*
X18375Y191125*
X18063Y191750*
X17437Y192063*
X16187*
X15563Y192375*
X15250Y193000*
X15563Y193625*
X16187Y193937*
X17437*
X18063Y193625*
X18375Y193000*
X20250Y190187D02*
X22750Y193937D01*
X20250*
X25563Y190500D02*
X26187Y190187D01*
X26813*
X27437Y190500*
X27750Y191125*
Y193000*
X27437Y193625*
X26813Y193937*
X26187*
X25563Y193625*
X25250Y193000*
Y191125*
X25563Y190500*
X27437Y193625*
X30250Y190187D02*
Y193937D01*
X33375*
X32750Y192063D02*
X30250D01*
X35250Y193937D02*
Y190187D01*
X38375*
X40563Y190500D02*
X41187Y190187D01*
X41813*
X42437Y190500*
X42750Y191125*
Y193000*
X42437Y193625*
X41813Y193937*
X41187*
X40563Y193625*
X40250Y193000*
Y191125*
X40563Y190500*
X42437Y193625*
X45875Y190187D02*
X47125D01*
X46500D02*
Y193937D01*
X45875Y193313*
X52437Y191750D02*
X53375D01*
Y191437*
X53063Y190813*
X52750Y190500*
X52125Y190187*
X51500*
X50875Y190500*
X50563Y190813*
X50250Y191437*
Y192687*
X50563Y193313*
X50875Y193625*
X51500Y193937*
X52125*
X52750Y193625*
X53063Y193313*
X53375Y192687*
X55250Y191125D02*
X55563Y190500D01*
X56187Y190187*
X57437*
X58063Y190500*
X58375Y191125*
X58063Y191750*
X57437Y192063*
X56187*
X55563Y192375*
X55250Y193000*
X55563Y193625*
X56187Y193937*
X57437*
X58063Y193625*
X58375Y193000*
X60250Y190187D02*
X61813Y193937D01*
X63375Y190187*
X60875Y191750D02*
X62750D01*
X67437D02*
X68375D01*
Y191437*
X68063Y190813*
X67750Y190500*
X67125Y190187*
X66500*
X65875Y190500*
X65563Y190813*
X65250Y191437*
Y192687*
X65563Y193313*
X65875Y193625*
X66500Y193937*
X67125*
X67750Y193625*
X68063Y193313*
X68375Y192687*
X70250Y190187D02*
Y193937D01*
X73375*
X72750Y192063D02*
X70250D01*
X76187Y190187D02*
X77437D01*
X76813D02*
Y193937D01*
X76187D02*
X77437D01*
X80563Y190500D02*
X81187Y190187D01*
X81813*
X82437Y190500*
X82750Y191125*
Y193000*
X82437Y193625*
X81813Y193937*
X81187*
X80563Y193625*
X80250Y193000*
Y191125*
X80563Y190500*
X82437Y193625*
X85875Y190187D02*
X87125D01*
X86500D02*
Y193937D01*
X85875Y193313*
X90875Y190187D02*
X92125D01*
X91500D02*
Y193937D01*
X90875Y193313*
X10563Y270250D02*
X13375D01*
X14000Y270563*
X14313Y271187*
Y272437*
X14000Y273063*
X13375Y273375*
X10563*
X14313Y277750D02*
Y275250D01*
X12125Y277437*
X11500Y277750*
X10875Y277437*
X10563Y276813*
Y275875*
X10875Y275250*
X20313Y270250D02*
X16563Y271813D01*
X20313Y273375*
X18750Y270875D02*
Y272750D01*
X16563Y275250D02*
Y278375D01*
X20313Y275250*
Y278375*
Y280875D02*
Y282125D01*
Y281500D02*
X16563D01*
X17187Y280875*
X20313Y285875D02*
Y287125D01*
Y286500D02*
X16563D01*
X17187Y285875*
X20313Y290875D02*
Y292125D01*
Y291500D02*
X16563D01*
X17187Y290875*
X20313Y295250D02*
X16563Y297750D01*
Y295250*
X20313Y301187D02*
Y302437D01*
Y301813D02*
X16563D01*
Y301187D02*
Y302437D01*
X20313Y305250D02*
X16563D01*
X18437D02*
Y308375D01*
X20313D02*
X16563D01*
X19063Y310250D02*
Y312750D01*
X20000Y315563D02*
X20313Y316187D01*
Y316813*
X20000Y317437*
X19375Y317750*
X18750Y317437*
X18437Y316813*
Y316187*
Y316813D02*
X18125Y317437D01*
X17500Y317750*
X16875Y317437*
X16563Y316813*
Y316187*
X16875Y315563*
X20313Y320563D02*
X20000Y320875D01*
X19687Y320563*
X20000Y320250*
X20313Y320563*
X20000Y325563D02*
X20313Y326187D01*
Y326813*
X20000Y327437*
X19375Y327750*
X18750Y327437*
X18437Y326813*
Y326187*
Y326813D02*
X18125Y327437D01*
X17500Y327750*
X16875Y327437*
X16563Y326813*
Y326187*
X16875Y325563*
X20313Y331813D02*
X16563D01*
Y330250D02*
Y333375D01*
X20313Y335250D02*
X16563D01*
Y337437*
X16875Y338063*
X17500Y338375*
X18125Y338063*
X18437Y337437*
Y335250*
Y337437D02*
X20313Y338375D01*
X18750Y342437D02*
Y343375D01*
X19063*
X19687Y343063*
X20000Y342750*
X20313Y342125*
Y341500*
X20000Y340875*
X19687Y340563*
X19063Y340250*
X17813*
X17187Y340563*
X16875Y340875*
X16563Y341500*
Y342125*
X16875Y342750*
X17187Y343063*
X17813Y343375*
X20313Y345875D02*
Y347125D01*
Y346500D02*
X16563D01*
X17187Y345875*
X15644Y134937D02*
Y132125D01*
X15956Y131500*
X16581Y131187*
X17831*
X18456Y131500*
X18769Y132125*
Y134937*
X21581Y131187D02*
X22206Y131500D01*
X22831Y132125*
X23144Y133063*
Y134000*
X22831Y134625*
X22206Y134937*
X21581*
X20956Y134625*
X20644Y134000*
X20956Y133375*
X21581Y133063*
X22206*
X22831Y133375*
X23144Y134000*
X15644Y126125D02*
X15956Y125500D01*
X16581Y125187*
X17831*
X18456Y125500*
X18769Y126125*
X18456Y126750*
X17831Y127063*
X16581*
X15956Y127375*
X15644Y128000*
X15956Y128625*
X16581Y128937*
X17831*
X18456Y128625*
X18769Y128000*
X21581Y125187D02*
X22831D01*
X22206D02*
Y128937D01*
X21581D02*
X22831D01*
X25644Y125187D02*
Y128937D01*
X27206Y127063*
X28769Y128937*
Y125187*
X31581Y127063D02*
X32206D01*
X32831Y127375*
X33144Y128000*
X32831Y128625*
X32206Y128937*
X31581*
X30956Y128625*
X30644Y128000*
X30956Y127375*
X31581Y127063*
X30956Y126750*
X30644Y126125*
X30956Y125500*
X31581Y125187*
X32206*
X32831Y125500*
X33144Y126125*
X32831Y126750*
X32206Y127063*
X35956Y125500D02*
X36581Y125187D01*
X37206*
X37831Y125500*
X38144Y126125*
Y128000*
X37831Y128625*
X37206Y128937*
X36581*
X35956Y128625*
X35644Y128000*
Y126125*
X35956Y125500*
X37831Y128625*
X41581Y127063D02*
X42206D01*
X42831Y127375*
X43144Y128000*
X42831Y128625*
X42206Y128937*
X41581*
X40956Y128625*
X40644Y128000*
X40956Y127375*
X41581Y127063*
X40956Y126750*
X40644Y126125*
X40956Y125500*
X41581Y125187*
X42206*
X42831Y125500*
X43144Y126125*
X42831Y126750*
X42206Y127063*
X17492Y186534D02*
X62743Y187100D01*
Y143400*
X17492Y142833*
Y163207*
X18968*
Y166160*
X17492*
Y186534*
X20250Y439937D02*
Y437125D01*
X20563Y436500*
X21187Y436187*
X22437*
X23063Y436500*
X23375Y437125*
Y439937*
X25875Y436187D02*
X27125D01*
X26500D02*
Y439937D01*
X25875Y439313*
X20250Y430187D02*
X21813Y433937D01*
X23375Y430187*
X20875Y431750D02*
X22750D01*
X27750Y430187D02*
X25250D01*
X27437Y432375*
X27750Y433000*
X27437Y433625*
X26813Y433937*
X25875*
X25250Y433625*
X32750Y430187D02*
X30250D01*
X32437Y432375*
X32750Y433000*
X32437Y433625*
X31813Y433937*
X30875*
X30250Y433625*
X35563Y430500D02*
X36187Y430187D01*
X36813*
X37437Y430500*
X37750Y431125*
X37437Y431750*
X36813Y432063*
X36187*
X36813D02*
X37437Y432375D01*
X37750Y433000*
X37437Y433625*
X36813Y433937*
X36187*
X35563Y433625*
X40250Y430500D02*
X40875Y430187D01*
X41813*
X42437Y430500*
X42750Y431125*
Y431437*
X42437Y432063*
X41813Y432375*
X40250*
Y433937*
X42750*
X45250Y431437D02*
X47750D01*
X50250Y430187D02*
Y433937D01*
Y432063D02*
X53375D01*
Y430187D02*
Y433937D01*
X22455Y321589D02*
X48045D01*
Y288911*
X22455*
Y304758*
X22947*
Y305742*
X22455*
Y321589*
X32624Y20986D02*
X32639Y20800D01*
X32685Y20620*
X32760Y20449*
X32862Y20293*
X32988Y20155*
X33135Y20041*
X33300Y19952*
X33476Y19891*
X33660Y19860*
X33846*
X34031Y19891*
X34207Y19952*
X34371Y20040*
X34519Y20155*
X34645Y20292*
X34747Y20448*
X34822Y20619*
X34868Y20800*
X34884Y20986*
X34869Y21172*
X34823Y21353*
X34748Y21524*
X34646Y21680*
X34520Y21817*
X34372Y21932*
X34208Y22021*
X34032Y22081*
X33848Y22112*
X33661*
X33477Y22081*
X33301Y22021*
X33137Y21932*
X32989Y21818*
X32863Y21681*
X32761Y21524*
X32686Y21354*
X32640Y21173*
X32624Y20986*
G36*
X32639Y20800*
X32685Y20620*
X32760Y20449*
X32862Y20293*
X32988Y20155*
X33135Y20041*
X33300Y19952*
X33476Y19891*
X33660Y19860*
X33846*
X34031Y19891*
X34207Y19952*
X34371Y20040*
X34519Y20155*
X34645Y20292*
X34747Y20448*
X34822Y20619*
X34868Y20800*
X34884Y20986*
X34869Y21172*
X34823Y21353*
X34748Y21524*
X34646Y21680*
X34520Y21817*
X34372Y21932*
X34208Y22021*
X34032Y22081*
X33848Y22112*
X33661*
X33477Y22081*
X33301Y22021*
X33137Y21932*
X32989Y21818*
X32863Y21681*
X32761Y21524*
X32686Y21354*
X32640Y21173*
X32624Y20986*
G37*
X30563Y202750D02*
X33375D01*
X34000Y203063*
X34313Y203687*
Y204937*
X34000Y205563*
X33375Y205875*
X30563*
X34000Y207750D02*
X34313Y208375D01*
Y209313*
X34000Y209937*
X33375Y210250*
X33063*
X32437Y209937*
X32125Y209313*
Y207750*
X30563*
Y210250*
X40313Y202750D02*
X36563D01*
X38437Y204313*
X36563Y205875*
X40313*
X39687Y210875D02*
X40000Y210563D01*
X40313Y209937*
Y209000*
X40000Y208375*
X39687Y208063*
X39063Y207750*
X37813*
X37187Y208063*
X36875Y208375*
X36563Y209000*
Y209937*
X36875Y210563*
X37187Y210875*
X40313Y212750D02*
X36563D01*
Y214937*
X36875Y215563*
X37500Y215875*
X38125Y215563*
X38437Y214937*
Y212750*
X40313Y217750D02*
X36563Y220250D01*
Y217750*
X40000Y223063D02*
X40313Y223687D01*
Y224313*
X40000Y224937*
X39375Y225250*
X38750Y224937*
X38437Y224313*
Y223687*
Y224313D02*
X38125Y224937D01*
X37500Y225250*
X36875Y224937*
X36563Y224313*
Y223687*
X36875Y223063*
X38437Y228687D02*
Y229313D01*
X38125Y229937*
X37500Y230250*
X36875Y229937*
X36563Y229313*
Y228687*
X36875Y228063*
X37500Y227750*
X38125Y228063*
X38437Y228687*
X38750Y228063*
X39375Y227750*
X40000Y228063*
X40313Y228687*
Y229313*
X40000Y229937*
X39375Y230250*
X38750Y229937*
X38437Y229313*
X40000Y233063D02*
X40313Y233687D01*
Y234313*
X40000Y234937*
X39375Y235250*
X38750Y234937*
X38437Y234313*
Y233687*
Y234313D02*
X38125Y234937D01*
X37500Y235250*
X36875Y234937*
X36563Y234313*
Y233687*
X36875Y233063*
X40313Y238375D02*
Y239625D01*
Y239000D02*
X36563D01*
X37187Y238375*
X40313Y244313D02*
X36563D01*
Y242750D02*
Y245875D01*
X39063Y247750D02*
Y250250D01*
X40313Y255250D02*
Y252750D01*
X38125Y254937*
X37500Y255250*
X36875Y254937*
X36563Y254313*
Y253375*
X36875Y252750*
X40313Y257750D02*
X36563Y259313D01*
X40313Y260875*
X38750Y258375D02*
Y260250D01*
X39687Y265875D02*
X40000Y265563D01*
X40313Y264937*
Y264000*
X40000Y263375*
X39687Y263063*
X39063Y262750*
X37813*
X37187Y263063*
X36875Y263375*
X36563Y264000*
Y264937*
X36875Y265563*
X37187Y265875*
X40313Y268687D02*
Y269937D01*
Y269313D02*
X36563D01*
Y268687D02*
Y269937D01*
X40313Y272750D02*
X36563Y275875D01*
X39063Y277750D02*
X37813D01*
X37187Y278063*
X36875Y278375*
X36563Y279000*
Y279625*
X36875Y280250*
X37187Y280563*
X37813Y280875*
X39063*
X39687Y280563*
X40000Y280250*
X40313Y279625*
Y279000*
X40000Y278375*
X39687Y278063*
X39063Y277750*
X40313Y284313D02*
X36563D01*
Y282750D02*
Y285875D01*
X52433Y302201D02*
Y304076D01*
X50870Y305951*
X52433Y304076D02*
X53996Y305951D01*
X57061Y247179D02*
Y260132D01*
Y266746D02*
Y284935D01*
X95644*
Y266470*
X57888Y271982D02*
X94541D01*
X58163Y213833D02*
X57061D01*
Y218793*
X58370Y314701D02*
X61496Y318451D01*
X58370D02*
X61496Y314701D01*
X60250Y329937D02*
Y327125D01*
X60563Y326500*
X61187Y326187*
X62437*
X63063Y326500*
X63375Y327125*
Y329937*
X65563Y326500D02*
X66187Y326187D01*
X66813*
X67437Y326500*
X67750Y327125*
X67437Y327750*
X66813Y328063*
X66187*
X66813D02*
X67437Y328375D01*
X67750Y329000*
X67437Y329625*
X66813Y329937*
X66187*
X65563Y329625*
X62437Y322063D02*
X63063Y321750D01*
X63375Y321125*
X63063Y320500*
X62437Y320187*
X60250*
Y323937*
X62437*
X63063Y323625*
X63375Y323000*
X63063Y322375*
X62437Y322063*
X60250*
X65250Y320187D02*
Y323937D01*
X66813Y322063*
X68375Y323937*
Y320187*
X71187D02*
X72437D01*
X71813D02*
Y323937D01*
X71187D02*
X72437D01*
X75875Y320187D02*
X77125D01*
X76500D02*
Y323937D01*
X75875Y323313*
X80250Y321125D02*
X80563Y321750D01*
X81187Y322063*
X81813*
X82437Y321750*
X82750Y321125*
X82437Y320500*
X81813Y320187*
X81187*
X80563Y320500*
X80250Y321125*
Y322063*
X80563Y323000*
X81187Y323625*
X81813Y323937*
X85563Y320500D02*
X86187Y320187D01*
X86813*
X87437Y320500*
X87750Y321125*
Y323000*
X87437Y323625*
X86813Y323937*
X86187*
X85563Y323625*
X85250Y323000*
Y321125*
X85563Y320500*
X87437Y323625*
X66874Y308203D02*
X66889Y308087D01*
X66930Y307979*
X66996Y307883*
X67083Y307806*
X67186Y307752*
X67299Y307724*
X67415*
X67528Y307752*
X67631Y307806*
X67718Y307883*
X67784Y307979*
X67825Y308087*
X67839Y308203*
X67825Y308318*
X67783Y308427*
X67717Y308522*
X67630Y308600*
X67528Y308654*
X67415Y308681*
X67298*
X67185Y308654*
X67083Y308600*
X66996Y308522*
X66930Y308427*
X66888Y308318*
X66874Y308203*
G36*
X66889Y308087*
X66930Y307979*
X66996Y307883*
X67083Y307806*
X67186Y307752*
X67299Y307724*
X67415*
X67528Y307752*
X67631Y307806*
X67718Y307883*
X67784Y307979*
X67825Y308087*
X67839Y308203*
X67825Y308318*
X67783Y308427*
X67717Y308522*
X67630Y308600*
X67528Y308654*
X67415Y308681*
X67298*
X67185Y308654*
X67083Y308600*
X66996Y308522*
X66930Y308427*
X66888Y308318*
X66874Y308203*
G37*
X67662Y312730D02*
X83804D01*
Y297770*
X66874*
Y311943*
X67662Y312730*
X75368Y184937D02*
Y182125D01*
X75681Y181500*
X76306Y181187*
X77556*
X78181Y181500*
X78493Y182125*
Y184937*
X81306Y183063D02*
X81931D01*
X82556Y183375*
X82868Y184000*
X82556Y184625*
X81931Y184937*
X81306*
X80681Y184625*
X80368Y184000*
X80681Y183375*
X81306Y183063*
X80681Y182750*
X80368Y182125*
X80681Y181500*
X81306Y181187*
X81931*
X82556Y181500*
X82868Y182125*
X82556Y182750*
X81931Y183063*
X75368Y176125D02*
X75681Y175500D01*
X76306Y175187*
X77556*
X78181Y175500*
X78493Y176125*
X78181Y176750*
X77556Y177063*
X76306*
X75681Y177375*
X75368Y178000*
X75681Y178625*
X76306Y178937*
X77556*
X78181Y178625*
X78493Y178000*
X80368Y175187D02*
X81931Y178937D01*
X83493Y175187*
X80993Y176750D02*
X82868D01*
X85368Y175187D02*
Y178937D01*
X86931Y177063*
X88493Y178937*
Y175187*
X90368D02*
Y178937D01*
X92243*
X92868Y178625*
X93181Y178313*
X93493Y177687*
Y176437*
X93181Y175813*
X92868Y175500*
X92243Y175187*
X90368*
X97868D02*
X95368D01*
X97556Y177375*
X97868Y178000*
X97556Y178625*
X96931Y178937*
X95993*
X95368Y178625*
X100993Y175187D02*
X102243D01*
X101618D02*
Y178937D01*
X100993Y178313*
X75801Y265644D02*
X75675Y265345D01*
X75577Y265035*
X75507Y264719*
X75468Y264396*
X75458Y264072*
X75478Y263748*
X75528Y263428*
X75607Y263113*
X75715Y262807*
X75851Y262512*
X76013Y262231*
X76201Y261966*
X76412Y261720*
X76645Y261494*
X76898Y261291*
X77169Y261112*
X77454Y260958*
X77753Y260832*
X78063Y260733*
X78380Y260664*
X78702Y260624*
X79026Y260615*
X79350Y260635*
X79671Y260685*
X79985Y260764*
X80291Y260872*
X80586Y261007*
X80867Y261170*
X81132Y261357*
X81379Y261569*
X81605Y261802*
X81808Y262055*
X81987Y262326*
X82140Y262612*
X82266Y262911*
X82364Y263220*
X82433Y263537*
X82473Y263859*
X82483Y264184*
X82463Y264508*
X82413Y264828*
X82334Y265143*
X82226Y265449*
X82090Y265744*
X81928Y266025*
X81740Y266290*
X81529Y266536*
X81296Y266762*
X81043Y266965*
X80772Y267144*
X80487Y267298*
X80188Y267424*
X79878Y267522*
X79561Y267592*
X79239Y267631*
X78915Y267641*
X78591Y267621*
X78270Y267571*
X77956Y267492*
X77650Y267384*
X77355Y267248*
X77074Y267086*
X76809Y266898*
X76562Y266687*
X76336Y266454*
X76133Y266201*
X75954Y265930*
X75801Y265644*
X81923Y138616D02*
X81938Y138502D01*
X81982Y138396*
X82052Y138304*
X82144Y138234*
X82250Y138190*
X82364Y138175*
X82478Y138190*
X82585Y138234*
X82676Y138304*
X82746Y138396*
X82790Y138502*
X82805Y138616*
X82790Y138730*
X82746Y138837*
X82676Y138928*
X82585Y138998*
X82478Y139042*
X82364Y139057*
X82250Y139042*
X82144Y138998*
X82052Y138928*
X81982Y138837*
X81938Y138730*
X81923Y138616*
G36*
X81938Y138502*
X81982Y138396*
X82052Y138304*
X82144Y138234*
X82250Y138190*
X82364Y138175*
X82478Y138190*
X82585Y138234*
X82676Y138304*
X82746Y138396*
X82790Y138502*
X82805Y138616*
X82790Y138730*
X82746Y138837*
X82676Y138928*
X82585Y138998*
X82478Y139042*
X82364Y139057*
X82250Y139042*
X82144Y138998*
X82052Y138928*
X81982Y138837*
X81938Y138730*
X81923Y138616*
G37*
X82652Y167848D02*
X107848D01*
Y142652*
X87376*
X82652Y147376*
Y167848*
X93360Y314750D02*
X107140D01*
Y296419*
X93360*
Y305376*
X93510*
Y306360*
X93360*
Y314750*
X94266Y213833D02*
X95644D01*
Y219069*
X105563Y285250D02*
X108375D01*
X109000Y285563*
X109313Y286187*
Y287437*
X109000Y288063*
X108375Y288375*
X105563*
X109313Y291813D02*
X105563D01*
X108063Y290250*
Y292750*
X115313Y285250D02*
X111563D01*
Y288375*
X113437Y287750D02*
Y285250D01*
X115313D02*
Y288375D01*
X114375Y290250D02*
X115000Y290563D01*
X115313Y291187*
Y292437*
X115000Y293063*
X114375Y293375*
X113750Y293063*
X113437Y292437*
Y291187*
X113125Y290563*
X112500Y290250*
X111875Y290563*
X111563Y291187*
Y292437*
X111875Y293063*
X112500Y293375*
X115313Y295250D02*
X111563D01*
Y297125*
X111875Y297750*
X112187Y298063*
X112813Y298375*
X114063*
X114687Y298063*
X115000Y297750*
X115313Y297125*
Y295250*
Y300250D02*
X111563Y301813D01*
X115313Y303375*
X113750Y300875D02*
Y302750D01*
X114375Y305250D02*
X113750Y305563D01*
X113437Y306187*
Y306813*
X113750Y307437*
X114375Y307750*
X115000Y307437*
X115313Y306813*
Y306187*
X115000Y305563*
X114375Y305250*
X113437*
X112500Y305563*
X111875Y306187*
X111563Y306813*
Y310250D02*
X115313Y311813D01*
X111563Y313375*
X115313Y315875D02*
Y317125D01*
Y316500D02*
X111563D01*
X112187Y315875*
X114063Y320250D02*
Y322750D01*
X115000Y325250D02*
X115313Y325875D01*
Y326813*
X115000Y327437*
X114375Y327750*
X114063*
X113437Y327437*
X113125Y326813*
Y325250*
X111563*
Y327750*
X114375Y330250D02*
X115000Y330563D01*
X115313Y331187*
Y332437*
X115000Y333063*
X114375Y333375*
X113750Y333063*
X113437Y332437*
Y331187*
X113125Y330563*
X112500Y330250*
X111875Y330563*
X111563Y331187*
Y332437*
X111875Y333063*
X112500Y333375*
X114687Y338375D02*
X115000Y338063D01*
X115313Y337437*
Y336500*
X115000Y335875*
X114687Y335563*
X114063Y335250*
X112813*
X112187Y335563*
X111875Y335875*
X111563Y336500*
Y337437*
X111875Y338063*
X112187Y338375*
X114375Y340250D02*
X113750Y340563D01*
X113437Y341187*
Y341813*
X113750Y342437*
X114375Y342750*
X115000Y342437*
X115313Y341813*
Y341187*
X115000Y340563*
X114375Y340250*
X113437*
X112500Y340563*
X111875Y341187*
X111563Y341813*
X125250Y49937D02*
Y47125D01*
X125563Y46500*
X126187Y46187*
X127437*
X128063Y46500*
X128375Y47125*
Y49937*
X130875Y46187D02*
X132125D01*
X131500D02*
Y49937D01*
X130875Y49313*
X135563Y46500D02*
X136187Y46187D01*
X136813*
X137437Y46500*
X137750Y47125*
Y49000*
X137437Y49625*
X136813Y49937*
X136187*
X135563Y49625*
X135250Y49000*
Y47125*
X135563Y46500*
X137437Y49625*
X126813Y40187D02*
Y43937D01*
X125250D02*
X128375D01*
X130250Y40187D02*
Y43937D01*
X132437*
X133063Y43625*
X133375Y43000*
X133063Y42375*
X132437Y42063*
X130250*
X135250Y41125D02*
X135563Y40500D01*
X136187Y40187*
X137437*
X138063Y40500*
X138375Y41125*
X138063Y41750*
X137437Y42063*
X136187*
X135563Y42375*
X135250Y43000*
X135563Y43625*
X136187Y43937*
X137437*
X138063Y43625*
X138375Y43000*
X140250Y41125D02*
X140563Y41750D01*
X141187Y42063*
X141813*
X142437Y41750*
X142750Y41125*
X142437Y40500*
X141813Y40187*
X141187*
X140563Y40500*
X140250Y41125*
Y42063*
X140563Y43000*
X141187Y43625*
X141813Y43937*
X145875Y40187D02*
X147125D01*
X146500D02*
Y43937D01*
X145875Y43313*
X150563Y40500D02*
X151187Y40187D01*
X151813*
X152437Y40500*
X152750Y41125*
Y43000*
X152437Y43625*
X151813Y43937*
X151187*
X150563Y43625*
X150250Y43000*
Y41125*
X150563Y40500*
X152437Y43625*
X157750Y40187D02*
X155250D01*
X157437Y42375*
X157750Y43000*
X157437Y43625*
X156813Y43937*
X155875*
X155250Y43625*
X160875Y40187D02*
X162125D01*
X161500D02*
Y43937D01*
X160875Y43313*
X165250Y40187D02*
X166813Y43937D01*
X168375Y40187*
X165875Y41750D02*
X167750D01*
X170250Y40187D02*
Y43937D01*
X172125*
X172750Y43625*
X173063Y43313*
X173375Y42687*
Y41437*
X173063Y40813*
X172750Y40500*
X172125Y40187*
X170250*
X175250Y41125D02*
X175563Y40500D01*
X176187Y40187*
X177437*
X178063Y40500*
X178375Y41125*
X178063Y41750*
X177437Y42063*
X176187*
X175563Y42375*
X175250Y43000*
X175563Y43625*
X176187Y43937*
X177437*
X178063Y43625*
X178375Y43000*
X182437Y41750D02*
X183375D01*
Y41437*
X183063Y40813*
X182750Y40500*
X182125Y40187*
X181500*
X180875Y40500*
X180563Y40813*
X180250Y41437*
Y42687*
X180563Y43313*
X180875Y43625*
X181500Y43937*
X182125*
X182750Y43625*
X183063Y43313*
X183375Y42687*
X185250Y40187D02*
Y43937D01*
X187437*
X188063Y43625*
X188375Y43000*
X188063Y42375*
X187437Y42063*
X185250*
X187437D02*
X188375Y40187D01*
X134625Y212063D02*
X134313Y211750D01*
X133687Y211437*
X132750*
X132125Y211750*
X131813Y212063*
X131500Y212687*
Y213937*
X131813Y214563*
X132125Y214875*
X132750Y215187*
X133687*
X134313Y214875*
X134625Y214563*
X136500Y212687D02*
Y213937D01*
X136813Y214563*
X137125Y214875*
X137750Y215187*
X138375*
X139000Y214875*
X139313Y214563*
X139625Y213937*
Y212687*
X139313Y212063*
X139000Y211750*
X138375Y211437*
X137750*
X137125Y211750*
X136813Y212063*
X136500Y212687*
X141500Y211437D02*
Y215187D01*
X144625Y211437*
Y215187*
X146500Y211437D02*
Y215187D01*
X149625Y211437*
Y215187*
X151500Y211750D02*
X152125Y211437D01*
X153063*
X153687Y211750*
X154000Y212375*
Y212687*
X153687Y213313*
X153063Y213625*
X151500*
Y215187*
X154000*
X132125Y205437D02*
X133375D01*
X132750D02*
Y209187D01*
X132125Y208563*
X136813Y205750D02*
X137437Y205437D01*
X138063*
X138687Y205750*
X139000Y206375*
Y208250*
X138687Y208875*
X138063Y209187*
X137437*
X136813Y208875*
X136500Y208250*
Y206375*
X136813Y205750*
X138687Y208875*
X142125Y205437D02*
X143375D01*
X142750D02*
Y209187D01*
X142125Y208563*
X146813Y205750D02*
X147437Y205437D01*
X148063*
X148687Y205750*
X149000Y206375*
Y208250*
X148687Y208875*
X148063Y209187*
X147437*
X146813Y208875*
X146500Y208250*
Y206375*
X146813Y205750*
X148687Y208875*
X151813Y205750D02*
X152437Y205437D01*
X153063*
X153687Y205750*
X154000Y206375*
Y208250*
X153687Y208875*
X153063Y209187*
X152437*
X151813Y208875*
X151500Y208250*
Y206375*
X151813Y205750*
X153687Y208875*
X159000Y205437D02*
X156500D01*
X158687Y207625*
X159000Y208250*
X158687Y208875*
X158063Y209187*
X157125*
X156500Y208875*
X161500Y205437D02*
X164000Y209187D01*
X161500*
X167125Y205437D02*
X168375D01*
X167750D02*
Y209187D01*
X167125Y208563*
X172437Y207313D02*
X173063D01*
X173687Y207625*
X174000Y208250*
X173687Y208875*
X173063Y209187*
X172437*
X171813Y208875*
X171500Y208250*
X171813Y207625*
X172437Y207313*
X171813Y207000*
X171500Y206375*
X171813Y205750*
X172437Y205437*
X173063*
X173687Y205750*
X174000Y206375*
X173687Y207000*
X173063Y207313*
X179000Y205437D02*
X176500D01*
X178687Y207625*
X179000Y208250*
X178687Y208875*
X178063Y209187*
X177125*
X176500Y208875*
X132750Y300250D02*
X195250D01*
Y240250*
X132750*
Y300250*
X133563Y84250D02*
X157063D01*
Y53750*
X136063*
X133563Y56250*
Y84250*
X133632Y330000D02*
X176632D01*
Y310000*
X133632*
Y330000*
X133813Y371687D02*
X216687D01*
Y358813*
X136313*
X133813Y361313*
Y371687*
Y411687D02*
X206687D01*
Y398813*
X136313*
X133813Y401313*
Y411687*
X137125Y234313D02*
X136813Y234000D01*
X136187Y233687*
X135250*
X134625Y234000*
X134313Y234313*
X134000Y234937*
Y236187*
X134313Y236813*
X134625Y237125*
X135250Y237437*
X136187*
X136813Y237125*
X137125Y236813*
X139000Y234937D02*
Y236187D01*
X139313Y236813*
X139625Y237125*
X140250Y237437*
X140875*
X141500Y237125*
X141813Y236813*
X142125Y236187*
Y234937*
X141813Y234313*
X141500Y234000*
X140875Y233687*
X140250*
X139625Y234000*
X139313Y234313*
X139000Y234937*
X144000Y233687D02*
Y237437D01*
X147125Y233687*
Y237437*
X149000Y233687D02*
Y237437D01*
X152125Y233687*
Y237437*
X155563Y233687D02*
Y237437D01*
X154000Y234937*
X156500*
X134000Y228000D02*
X134625Y227687D01*
X135563*
X136187Y228000*
X136500Y228625*
Y228937*
X136187Y229563*
X135563Y229875*
X134000*
Y231437*
X136500*
X139313Y228000D02*
X139937Y227687D01*
X140563*
X141187Y228000*
X141500Y228625*
Y230500*
X141187Y231125*
X140563Y231437*
X139937*
X139313Y231125*
X139000Y230500*
Y228625*
X139313Y228000*
X141187Y231125*
X144313Y228000D02*
X144937Y227687D01*
X145563*
X146187Y228000*
X146500Y228625*
X146187Y229250*
X145563Y229563*
X144937*
X145563D02*
X146187Y229875D01*
X146500Y230500*
X146187Y231125*
X145563Y231437*
X144937*
X144313Y231125*
X149625Y227687D02*
X150875D01*
X150250D02*
Y231437D01*
X149625Y230813*
X154937Y229563D02*
X155563D01*
X156187Y229875*
X156500Y230500*
X156187Y231125*
X155563Y231437*
X154937*
X154313Y231125*
X154000Y230500*
X154313Y229875*
X154937Y229563*
X154313Y229250*
X154000Y228625*
X154313Y228000*
X154937Y227687*
X155563*
X156187Y228000*
X156500Y228625*
X156187Y229250*
X155563Y229563*
X161500Y227687D02*
X159000D01*
X161187Y229875*
X161500Y230500*
X161187Y231125*
X160563Y231437*
X159625*
X159000Y231125*
X164000Y228937D02*
X166500D01*
X169625Y227687D02*
X170875D01*
X170250D02*
Y231437D01*
X169625Y230813*
X174937Y229563D02*
X175563D01*
X176187Y229875*
X176500Y230500*
X176187Y231125*
X175563Y231437*
X174937*
X174313Y231125*
X174000Y230500*
X174313Y229875*
X174937Y229563*
X174313Y229250*
X174000Y228625*
X174313Y228000*
X174937Y227687*
X175563*
X176187Y228000*
X176500Y228625*
X176187Y229250*
X175563Y229563*
X179000Y228000D02*
X179625Y227687D01*
X180563*
X181187Y228000*
X181500Y228625*
Y228937*
X181187Y229563*
X180563Y229875*
X179000*
Y231437*
X181500*
X186500Y227687D02*
X184000D01*
X186187Y229875*
X186500Y230500*
X186187Y231125*
X185563Y231437*
X184625*
X184000Y231125*
X137125Y340563D02*
X136813Y340250D01*
X136187Y339937*
X135250*
X134625Y340250*
X134313Y340563*
X134000Y341187*
Y342437*
X134313Y343063*
X134625Y343375*
X135250Y343687*
X136187*
X136813Y343375*
X137125Y343063*
X139000Y341187D02*
Y342437D01*
X139313Y343063*
X139625Y343375*
X140250Y343687*
X140875*
X141500Y343375*
X141813Y343063*
X142125Y342437*
Y341187*
X141813Y340563*
X141500Y340250*
X140875Y339937*
X140250*
X139625Y340250*
X139313Y340563*
X139000Y341187*
X144000Y339937D02*
Y343687D01*
X147125Y339937*
Y343687*
X149000Y339937D02*
Y343687D01*
X152125Y339937*
Y343687*
X154313Y340250D02*
X154937Y339937D01*
X155563*
X156187Y340250*
X156500Y340875*
X156187Y341500*
X155563Y341813*
X154937*
X155563D02*
X156187Y342125D01*
X156500Y342750*
X156187Y343375*
X155563Y343687*
X154937*
X154313Y343375*
X135563Y333937D02*
Y337687D01*
X134000Y335187*
X136500*
X139000Y333937D02*
X141500Y337687D01*
X139000*
X144000Y334250D02*
X144625Y333937D01*
X145563*
X146187Y334250*
X146500Y334875*
Y335187*
X146187Y335813*
X145563Y336125*
X144000*
Y337687*
X146500*
X149937Y335813D02*
X150563D01*
X151187Y336125*
X151500Y336750*
X151187Y337375*
X150563Y337687*
X149937*
X149313Y337375*
X149000Y336750*
X149313Y336125*
X149937Y335813*
X149313Y335500*
X149000Y334875*
X149313Y334250*
X149937Y333937*
X150563*
X151187Y334250*
X151500Y334875*
X151187Y335500*
X150563Y335813*
X154937Y333937D02*
X155563Y334250D01*
X156187Y334875*
X156500Y335813*
Y336750*
X156187Y337375*
X155563Y337687*
X154937*
X154313Y337375*
X154000Y336750*
X154313Y336125*
X154937Y335813*
X155563*
X156187Y336125*
X156500Y336750*
X159000Y335187D02*
X161500D01*
X164313Y334250D02*
X164937Y333937D01*
X165563*
X166187Y334250*
X166500Y334875*
Y336750*
X166187Y337375*
X165563Y337687*
X164937*
X164313Y337375*
X164000Y336750*
Y334875*
X164313Y334250*
X166187Y337375*
X169313Y334250D02*
X169937Y333937D01*
X170563*
X171187Y334250*
X171500Y334875*
Y336750*
X171187Y337375*
X170563Y337687*
X169937*
X169313Y337375*
X169000Y336750*
Y334875*
X169313Y334250*
X171187Y337375*
X174313Y334250D02*
X174937Y333937D01*
X175563*
X176187Y334250*
X176500Y334875*
Y336750*
X176187Y337375*
X175563Y337687*
X174937*
X174313Y337375*
X174000Y336750*
Y334875*
X174313Y334250*
X176187Y337375*
X179625Y333937D02*
X180875D01*
X180250D02*
Y337687D01*
X179625Y337063*
X138375Y381813D02*
X138063Y381500D01*
X137437Y381187*
X136500*
X135875Y381500*
X135563Y381813*
X135250Y382437*
Y383687*
X135563Y384313*
X135875Y384625*
X136500Y384937*
X137437*
X138063Y384625*
X138375Y384313*
X140250Y382437D02*
Y383687D01*
X140563Y384313*
X140875Y384625*
X141500Y384937*
X142125*
X142750Y384625*
X143063Y384313*
X143375Y383687*
Y382437*
X143063Y381813*
X142750Y381500*
X142125Y381187*
X141500*
X140875Y381500*
X140563Y381813*
X140250Y382437*
X145250Y381187D02*
Y384937D01*
X148375Y381187*
Y384937*
X150250Y381187D02*
Y384937D01*
X153375Y381187*
Y384937*
X157750Y381187D02*
X155250D01*
X157437Y383375*
X157750Y384000*
X157437Y384625*
X156813Y384937*
X155875*
X155250Y384625*
X136187Y377063D02*
X136813D01*
X137437Y377375*
X137750Y378000*
X137437Y378625*
X136813Y378937*
X136187*
X135563Y378625*
X135250Y378000*
X135563Y377375*
X136187Y377063*
X135563Y376750*
X135250Y376125*
X135563Y375500*
X136187Y375187*
X136813*
X137437Y375500*
X137750Y376125*
X137437Y376750*
X136813Y377063*
X140250Y375187D02*
Y378937D01*
X142437*
X143063Y378625*
X143375Y378000*
X143063Y377375*
X142437Y377063*
X140250*
X138375Y421813D02*
X138063Y421500D01*
X137437Y421187*
X136500*
X135875Y421500*
X135563Y421813*
X135250Y422437*
Y423687*
X135563Y424313*
X135875Y424625*
X136500Y424937*
X137437*
X138063Y424625*
X138375Y424313*
X140250Y422437D02*
Y423687D01*
X140563Y424313*
X140875Y424625*
X141500Y424937*
X142125*
X142750Y424625*
X143063Y424313*
X143375Y423687*
Y422437*
X143063Y421813*
X142750Y421500*
X142125Y421187*
X141500*
X140875Y421500*
X140563Y421813*
X140250Y422437*
X145250Y421187D02*
Y424937D01*
X148375Y421187*
Y424937*
X150250Y421187D02*
Y424937D01*
X153375Y421187*
Y424937*
X155875Y421187D02*
X157125D01*
X156500D02*
Y424937D01*
X155875Y424313*
X135250Y415187D02*
X137750Y418937D01*
X135250*
X140250Y415187D02*
Y418937D01*
X142437*
X143063Y418625*
X143375Y418000*
X143063Y417375*
X142437Y417063*
X140250*
X135547Y25500D02*
X135374Y25485D01*
X135205Y25439*
X135047Y25366*
X134904Y25266*
X134781Y25143*
X134681Y25000*
X134607Y24842*
X134563Y24673*
X134548Y24500*
X134563Y24326*
X134608Y24158*
X134682Y24000*
X134782Y23857*
X134905Y23734*
X135048Y23634*
X135206Y23561*
X135374Y23516*
X135547Y23500*
X135721Y23515*
X135889Y23561*
X136047Y23634*
X136190Y23734*
X136313Y23857*
X136413Y24000*
X136487Y24158*
X136532Y24327*
X136547Y24500*
X136531Y24674*
X136486Y24842*
X136413Y25000*
X136313Y25143*
X136189Y25266*
X136046Y25366*
X135889Y25439*
X135720Y25484*
X135547Y25500*
G36*
X135374Y25485*
X135205Y25439*
X135047Y25366*
X134904Y25266*
X134781Y25143*
X134681Y25000*
X134607Y24842*
X134563Y24673*
X134548Y24500*
X134563Y24326*
X134608Y24158*
X134682Y24000*
X134782Y23857*
X134905Y23734*
X135048Y23634*
X135206Y23561*
X135374Y23516*
X135547Y23500*
X135721Y23515*
X135889Y23561*
X136047Y23634*
X136190Y23734*
X136313Y23857*
X136413Y24000*
X136487Y24158*
X136532Y24327*
X136547Y24500*
X136531Y24674*
X136486Y24842*
X136413Y25000*
X136313Y25143*
X136189Y25266*
X136046Y25366*
X135889Y25439*
X135720Y25484*
X135547Y25500*
G37*
X135628Y35781D02*
X145297D01*
Y24726*
X135628*
Y35781*
X168375Y76813D02*
X168063Y76500D01*
X167437Y76187*
X166500*
X165875Y76500*
X165563Y76813*
X165250Y77437*
Y78687*
X165563Y79313*
X165875Y79625*
X166500Y79937*
X167437*
X168063Y79625*
X168375Y79313*
X170250Y77437D02*
Y78687D01*
X170563Y79313*
X170875Y79625*
X171500Y79937*
X172125*
X172750Y79625*
X173063Y79313*
X173375Y78687*
Y77437*
X173063Y76813*
X172750Y76500*
X172125Y76187*
X171500*
X170875Y76500*
X170563Y76813*
X170250Y77437*
X175250Y76187D02*
Y79937D01*
X178375Y76187*
Y79937*
X180250Y76187D02*
Y79937D01*
X183375Y76187*
Y79937*
X185250Y77125D02*
X185563Y77750D01*
X186187Y78063*
X186813*
X187437Y77750*
X187750Y77125*
X187437Y76500*
X186813Y76187*
X186187*
X185563Y76500*
X185250Y77125*
Y78063*
X185563Y79000*
X186187Y79625*
X186813Y79937*
X165250Y70813D02*
X165563Y70500D01*
X166187Y70187*
X166813Y70500*
X167125Y70813*
Y73937*
X167750*
X167125D02*
X165875D01*
X170250Y71125D02*
X170563Y70500D01*
X171187Y70187*
X172437*
X173063Y70500*
X173375Y71125*
X173063Y71750*
X172437Y72063*
X171187*
X170563Y72375*
X170250Y73000*
X170563Y73625*
X171187Y73937*
X172437*
X173063Y73625*
X173375Y73000*
X176813Y70187D02*
Y73937D01*
X175250D02*
X178375D01*
X180250Y70187D02*
X183375D01*
X185250Y71125D02*
X185563Y70500D01*
X186187Y70187*
X187437*
X188063Y70500*
X188375Y71125*
X188063Y71750*
X187437Y72063*
X186187*
X185563Y72375*
X185250Y73000*
X185563Y73625*
X186187Y73937*
X187437*
X188063Y73625*
X188375Y73000*
X192750Y70187D02*
X190250D01*
X192437Y72375*
X192750Y73000*
X192437Y73625*
X191813Y73937*
X190875*
X190250Y73625*
X197437Y72063D02*
X198063Y71750D01*
X198375Y71125*
X198063Y70500*
X197437Y70187*
X195250*
Y73937*
X197437*
X198063Y73625*
X198375Y73000*
X198063Y72375*
X197437Y72063*
X195250*
X200250Y71437D02*
X202750D01*
X205250Y70187D02*
Y73937D01*
X207437*
X208063Y73625*
X208375Y73000*
X208063Y72375*
X207437Y72063*
X205250*
X210250Y70187D02*
Y73937D01*
Y72063D02*
X213375D01*
Y70187D02*
Y73937D01*
X215250Y71437D02*
X217750D01*
X220250Y70187D02*
Y73937D01*
Y72063D02*
X221187D01*
X223375Y73937*
X221187Y72063D02*
X223375Y70187D01*
X225250Y71437D02*
X227750D01*
X230250Y71125D02*
X230563Y70500D01*
X231187Y70187*
X232437*
X233063Y70500*
X233375Y71125*
X233063Y71750*
X232437Y72063*
X231187*
X230563Y72375*
X230250Y73000*
X230563Y73625*
X231187Y73937*
X232437*
X233063Y73625*
X233375Y73000*
X219876Y144250D02*
X260376D01*
Y126500*
X222376*
X219876Y129000*
Y144250*
X220848Y187125D02*
X221161Y186500D01*
X221786Y186187*
X223036*
X223661Y186500*
X223974Y187125*
X223661Y187750*
X223036Y188063*
X221786*
X221161Y188375*
X220848Y189000*
X221161Y189625*
X221786Y189937*
X223036*
X223661Y189625*
X223974Y189000*
X225848Y189937D02*
X226161Y186187D01*
X227411Y188063*
X228661Y186187*
X228974Y189937*
X231474Y186187D02*
X232724D01*
X232098D02*
Y189937D01*
X231474Y189313*
X220848Y180187D02*
Y183937D01*
X223974*
X223348Y182063D02*
X220848D01*
X225848Y181125D02*
X226161Y180500D01*
X226786Y180187*
X228036*
X228661Y180500*
X228974Y181125*
X228661Y181750*
X228036Y182063*
X226786*
X226161Y182375*
X225848Y183000*
X226161Y183625*
X226786Y183937*
X228036*
X228661Y183625*
X228974Y183000*
X230848Y180187D02*
Y183937D01*
X232411Y182063*
X233974Y183937*
Y180187*
X235848Y181125D02*
X236161Y180500D01*
X236786Y180187*
X238036*
X238661Y180500*
X238974Y181125*
X238661Y181750*
X238036Y182063*
X236786*
X236161Y182375*
X235848Y183000*
X236161Y183625*
X236786Y183937*
X238036*
X238661Y183625*
X238974Y183000*
X240848Y180187D02*
Y183937D01*
X242411Y182063*
X243974Y183937*
Y180187*
X220876Y152125D02*
X221189Y151500D01*
X221813Y151187*
X223063*
X223689Y151500*
X224001Y152125*
X223689Y152750*
X223063Y153063*
X221813*
X221189Y153375*
X220876Y154000*
X221189Y154625*
X221813Y154937*
X223063*
X223689Y154625*
X224001Y154000*
X225876Y154937D02*
X226189Y151187D01*
X227439Y153063*
X228689Y151187*
X229001Y154937*
X233376Y151187D02*
X230876D01*
X233063Y153375*
X233376Y154000*
X233063Y154625*
X232439Y154937*
X231501*
X230876Y154625*
X220876Y146125D02*
X221189Y145500D01*
X221813Y145187*
X223063*
X223689Y145500*
X224001Y146125*
X223689Y146750*
X223063Y147063*
X221813*
X221189Y147375*
X220876Y148000*
X221189Y148625*
X221813Y148937*
X223063*
X223689Y148625*
X224001Y148000*
X225876Y146125D02*
X226189Y145500D01*
X226813Y145187*
X228063*
X228689Y145500*
X229001Y146125*
X228689Y146750*
X228063Y147063*
X226813*
X226189Y147375*
X225876Y148000*
X226189Y148625*
X226813Y148937*
X228063*
X228689Y148625*
X229001Y148000*
X230876Y146437D02*
X233376D01*
X236501Y145187D02*
X237751D01*
X237126D02*
Y148937D01*
X236501Y148313*
X243376Y145187D02*
X240876D01*
X243063Y147375*
X243376Y148000*
X243063Y148625*
X242439Y148937*
X241501*
X240876Y148625*
X245876Y145187D02*
Y148937D01*
X247751*
X248376Y148625*
X248689Y148313*
X249001Y147687*
Y146437*
X248689Y145813*
X248376Y145500*
X247751Y145187*
X245876*
X251189Y145500D02*
X251813Y145187D01*
X252439*
X253063Y145500*
X253376Y146125*
Y148000*
X253063Y148625*
X252439Y148937*
X251813*
X251189Y148625*
X250876Y148000*
Y146125*
X251189Y145500*
X253063Y148625*
X255876Y145187D02*
X258376Y148937D01*
X255876*
X260876Y146437D02*
X263376D01*
X265876Y148937D02*
X267439Y145187D01*
X269001Y148937*
X273063Y146750D02*
X274001D01*
Y146437*
X273689Y145813*
X273376Y145500*
X272751Y145187*
X272126*
X271501Y145500*
X271189Y145813*
X270876Y146437*
Y147687*
X271189Y148313*
X271501Y148625*
X272126Y148937*
X272751*
X273376Y148625*
X273689Y148313*
X274001Y147687*
X282439Y145187D02*
Y148937D01*
X280876Y146437*
X283376*
X290876Y145187D02*
Y148937D01*
X294001Y145187*
Y148937*
X295876Y146125D02*
X296189Y145500D01*
X296813Y145187*
X298063*
X298689Y145500*
X299001Y146125*
X298689Y146750*
X298063Y147063*
X296813*
X296189Y147375*
X295876Y148000*
X296189Y148625*
X296813Y148937*
X298063*
X298689Y148625*
X299001Y148000*
X308063Y146750D02*
X309001D01*
Y146437*
X308689Y145813*
X308376Y145500*
X307751Y145187*
X307126*
X306501Y145500*
X306189Y145813*
X305876Y146437*
Y147687*
X306189Y148313*
X306501Y148625*
X307126Y148937*
X307751*
X308376Y148625*
X308689Y148313*
X309001Y147687*
X310876Y145187D02*
X312439Y148937D01*
X314001Y145187*
X311501Y146750D02*
X313376D01*
X320876Y145187D02*
Y148937D01*
X323063*
X323689Y148625*
X324001Y148000*
X323689Y147375*
X323063Y147063*
X320876*
X325876Y145187D02*
X327439Y148937D01*
X329001Y145187*
X326501Y146750D02*
X328376D01*
X221640Y162500D02*
X269390D01*
Y178000*
X221640*
Y162500*
X222600Y216400D02*
X227900D01*
Y204100*
X222600*
Y216400*
Y236400D02*
X227900D01*
Y224100*
X222600*
Y236400*
Y256400D02*
X227900D01*
Y244100*
X222600*
Y256400*
Y276400D02*
X227900D01*
Y264100*
X222600*
Y276400*
Y296400D02*
X227900D01*
Y284100*
X222600*
Y296400*
Y316400D02*
X227900D01*
Y304100*
X222600*
Y316400*
Y336400D02*
X227900D01*
Y324100*
X222600*
Y336400*
Y356400D02*
X227900D01*
Y344100*
X222600*
Y356400*
Y376400D02*
X227900D01*
Y364100*
X222600*
Y376400*
Y396400D02*
X227900D01*
Y384100*
X222600*
Y396400*
Y416400D02*
X227900D01*
Y404100*
X222600*
Y416400*
X230250Y206187D02*
Y209937D01*
X232437*
X233063Y209625*
X233375Y209000*
X233063Y208375*
X232437Y208063*
X230250*
X232437D02*
X233375Y206187D01*
X235875D02*
X237125D01*
X236500D02*
Y209937D01*
X235875Y209313*
X240875Y206187D02*
X242125D01*
X241500D02*
Y209937D01*
X240875Y209313*
X230250Y200187D02*
Y203937D01*
X232437*
X233063Y203625*
X233375Y203000*
X233063Y202375*
X232437Y202063*
X230250*
X232437D02*
X233375Y200187D01*
X235250D02*
Y203937D01*
Y202063D02*
X236187D01*
X238375Y203937*
X236187Y202063D02*
X238375Y200187D01*
X240250D02*
X242750Y203937D01*
X240250*
X245563Y200500D02*
X246187Y200187D01*
X246813*
X247437Y200500*
X247750Y201125*
X247437Y201750*
X246813Y202063*
X246187*
X246813D02*
X247437Y202375D01*
X247750Y203000*
X247437Y203625*
X246813Y203937*
X246187*
X245563Y203625*
X250250Y200187D02*
Y203937D01*
Y202063D02*
X253375D01*
Y200187D02*
Y203937D01*
X255875Y200187D02*
X257125D01*
X256500D02*
Y203937D01*
X255875Y203313*
X260250Y200813D02*
X260563Y200500D01*
X261187Y200187*
X261813Y200500*
X262125Y200813*
Y203937*
X262750*
X262125D02*
X260875D01*
X266813Y200187D02*
Y203937D01*
X265250D02*
X268375D01*
X271813Y200187D02*
Y203937D01*
X270250D02*
X273375D01*
X275250Y200187D02*
Y203937D01*
X277125*
X277750Y203625*
X278063Y203313*
X278375Y202687*
Y201437*
X278063Y200813*
X277750Y200500*
X277125Y200187*
X275250*
X281813D02*
Y203937D01*
X280250Y201437*
X282750*
X285563Y200500D02*
X286187Y200187D01*
X286813*
X287437Y200500*
X287750Y201125*
Y203000*
X287437Y203625*
X286813Y203937*
X286187*
X285563Y203625*
X285250Y203000*
Y201125*
X285563Y200500*
X287437Y203625*
X292750Y200187D02*
X290250D01*
X292437Y202375*
X292750Y203000*
X292437Y203625*
X291813Y203937*
X290875*
X290250Y203625*
X295563Y200500D02*
X296187Y200187D01*
X296813*
X297437Y200500*
X297750Y201125*
X297437Y201750*
X296813Y202063*
X296187*
X296813D02*
X297437Y202375D01*
X297750Y203000*
X297437Y203625*
X296813Y203937*
X296187*
X295563Y203625*
X300250Y200187D02*
Y203937D01*
X303375*
X302750Y202063D02*
X300250D01*
X230250Y226187D02*
Y229937D01*
X232437*
X233063Y229625*
X233375Y229000*
X233063Y228375*
X232437Y228063*
X230250*
X232437D02*
X233375Y226187D01*
X235875D02*
X237125D01*
X236500D02*
Y229937D01*
X235875Y229313*
X240563Y226500D02*
X241187Y226187D01*
X241813*
X242437Y226500*
X242750Y227125*
Y229000*
X242437Y229625*
X241813Y229937*
X241187*
X240563Y229625*
X240250Y229000*
Y227125*
X240563Y226500*
X242437Y229625*
X232437Y221750D02*
X233375D01*
Y221437*
X233063Y220813*
X232750Y220500*
X232125Y220187*
X231500*
X230875Y220500*
X230563Y220813*
X230250Y221437*
Y222687*
X230563Y223313*
X230875Y223625*
X231500Y223937*
X232125*
X232750Y223625*
X233063Y223313*
X233375Y222687*
X235250Y220187D02*
Y223937D01*
X237437*
X238063Y223625*
X238375Y223000*
X238063Y222375*
X237437Y222063*
X235250*
X237437D02*
X238375Y220187D01*
X240250D02*
Y223937D01*
X241813Y222063*
X243375Y223937*
Y220187*
X245875D02*
X247125D01*
X246500D02*
Y223937D01*
X245875Y223313*
X251187Y222063D02*
X251813D01*
X252437Y222375*
X252750Y223000*
X252437Y223625*
X251813Y223937*
X251187*
X250563Y223625*
X250250Y223000*
X250563Y222375*
X251187Y222063*
X250563Y221750*
X250250Y221125*
X250563Y220500*
X251187Y220187*
X251813*
X252437Y220500*
X252750Y221125*
X252437Y221750*
X251813Y222063*
X256187D02*
X256813D01*
X257437Y222375*
X257750Y223000*
X257437Y223625*
X256813Y223937*
X256187*
X255563Y223625*
X255250Y223000*
X255563Y222375*
X256187Y222063*
X255563Y221750*
X255250Y221125*
X255563Y220500*
X256187Y220187*
X256813*
X257437Y220500*
X257750Y221125*
X257437Y221750*
X256813Y222063*
X260250Y220187D02*
Y223937D01*
X262437*
X263063Y223625*
X263375Y223000*
X263063Y222375*
X262437Y222063*
X260250*
X262437D02*
X263375Y220187D01*
X265250Y221125D02*
X265563Y221750D01*
X266187Y222063*
X266813*
X267437Y221750*
X267750Y221125*
X267437Y220500*
X266813Y220187*
X266187*
X265563Y220500*
X265250Y221125*
Y222063*
X265563Y223000*
X266187Y223625*
X266813Y223937*
X270563Y220500D02*
X271187Y220187D01*
X271813*
X272437Y220500*
X272750Y221125*
Y223000*
X272437Y223625*
X271813Y223937*
X271187*
X270563Y223625*
X270250Y223000*
Y221125*
X270563Y220500*
X272437Y223625*
X275250Y220813D02*
X275563Y220500D01*
X276187Y220187*
X276813Y220500*
X277125Y220813*
Y223937*
X277750*
X277125D02*
X275875D01*
X281813Y220187D02*
Y223937D01*
X280250Y221437*
X282750*
X285250Y220187D02*
X287750Y223937D01*
X285250*
X290250Y220500D02*
X290875Y220187D01*
X291813*
X292437Y220500*
X292750Y221125*
Y221437*
X292437Y222063*
X291813Y222375*
X290250*
Y223937*
X292750*
X295250Y220187D02*
Y223937D01*
Y222063D02*
X296187D01*
X298375Y223937*
X296187Y222063D02*
X298375Y220187D01*
X300250D02*
Y223937D01*
X303375*
X302750Y222063D02*
X300250D01*
Y220187D02*
X303375D01*
X305875D02*
X307125D01*
X306500D02*
Y223937D01*
X305875Y223313*
X311187Y220187D02*
X311813Y220500D01*
X312437Y221125*
X312750Y222063*
Y223000*
X312437Y223625*
X311813Y223937*
X311187*
X310563Y223625*
X310250Y223000*
X310563Y222375*
X311187Y222063*
X311813*
X312437Y222375*
X312750Y223000*
X315250Y220187D02*
Y223937D01*
X317125*
X317750Y223625*
X318063Y223313*
X318375Y222687*
Y221437*
X318063Y220813*
X317750Y220500*
X317125Y220187*
X315250*
X230250Y246187D02*
Y249937D01*
X232437*
X233063Y249625*
X233375Y249000*
X233063Y248375*
X232437Y248063*
X230250*
X232437D02*
X233375Y246187D01*
X236187D02*
X236813Y246500D01*
X237437Y247125*
X237750Y248063*
Y249000*
X237437Y249625*
X236813Y249937*
X236187*
X235563Y249625*
X235250Y249000*
X235563Y248375*
X236187Y248063*
X236813*
X237437Y248375*
X237750Y249000*
X232437Y241750D02*
X233375D01*
Y241437*
X233063Y240813*
X232750Y240500*
X232125Y240187*
X231500*
X230875Y240500*
X230563Y240813*
X230250Y241437*
Y242687*
X230563Y243313*
X230875Y243625*
X231500Y243937*
X232125*
X232750Y243625*
X233063Y243313*
X233375Y242687*
X235250Y240187D02*
Y243937D01*
X237437*
X238063Y243625*
X238375Y243000*
X238063Y242375*
X237437Y242063*
X235250*
X237437D02*
X238375Y240187D01*
X240250D02*
Y243937D01*
X241813Y242063*
X243375Y243937*
Y240187*
X245875D02*
X247125D01*
X246500D02*
Y243937D01*
X245875Y243313*
X251187Y242063D02*
X251813D01*
X252437Y242375*
X252750Y243000*
X252437Y243625*
X251813Y243937*
X251187*
X250563Y243625*
X250250Y243000*
X250563Y242375*
X251187Y242063*
X250563Y241750*
X250250Y241125*
X250563Y240500*
X251187Y240187*
X251813*
X252437Y240500*
X252750Y241125*
X252437Y241750*
X251813Y242063*
X256187D02*
X256813D01*
X257437Y242375*
X257750Y243000*
X257437Y243625*
X256813Y243937*
X256187*
X255563Y243625*
X255250Y243000*
X255563Y242375*
X256187Y242063*
X255563Y241750*
X255250Y241125*
X255563Y240500*
X256187Y240187*
X256813*
X257437Y240500*
X257750Y241125*
X257437Y241750*
X256813Y242063*
X260250Y240187D02*
Y243937D01*
X262437*
X263063Y243625*
X263375Y243000*
X263063Y242375*
X262437Y242063*
X260250*
X262437D02*
X263375Y240187D01*
X265250Y241125D02*
X265563Y241750D01*
X266187Y242063*
X266813*
X267437Y241750*
X267750Y241125*
X267437Y240500*
X266813Y240187*
X266187*
X265563Y240500*
X265250Y241125*
Y242063*
X265563Y243000*
X266187Y243625*
X266813Y243937*
X270563Y240500D02*
X271187Y240187D01*
X271813*
X272437Y240500*
X272750Y241125*
Y243000*
X272437Y243625*
X271813Y243937*
X271187*
X270563Y243625*
X270250Y243000*
Y241125*
X270563Y240500*
X272437Y243625*
X275250Y240813D02*
X275563Y240500D01*
X276187Y240187*
X276813Y240500*
X277125Y240813*
Y243937*
X277750*
X277125D02*
X275875D01*
X280875Y240187D02*
X282125D01*
X281500D02*
Y243937D01*
X280875Y243313*
X285563Y240500D02*
X286187Y240187D01*
X286813*
X287437Y240500*
X287750Y241125*
Y243000*
X287437Y243625*
X286813Y243937*
X286187*
X285563Y243625*
X285250Y243000*
Y241125*
X285563Y240500*
X287437Y243625*
X290250Y241125D02*
X290563Y241750D01*
X291187Y242063*
X291813*
X292437Y241750*
X292750Y241125*
X292437Y240500*
X291813Y240187*
X291187*
X290563Y240500*
X290250Y241125*
Y242063*
X290563Y243000*
X291187Y243625*
X291813Y243937*
X295250Y240187D02*
Y243937D01*
X296813Y242063*
X298375Y243937*
Y240187*
X300250D02*
Y243937D01*
X303375*
X302750Y242063D02*
X300250D01*
Y240187D02*
X303375D01*
X306813D02*
Y243937D01*
X305250Y241437*
X307750*
X310250Y240187D02*
X312750Y243937D01*
X310250*
X315250Y240187D02*
Y243937D01*
X317125*
X317750Y243625*
X318063Y243313*
X318375Y242687*
Y241437*
X318063Y240813*
X317750Y240500*
X317125Y240187*
X315250*
X230250Y266187D02*
Y269937D01*
X232437*
X233063Y269625*
X233375Y269000*
X233063Y268375*
X232437Y268063*
X230250*
X232437D02*
X233375Y266187D01*
X236187Y268063D02*
X236813D01*
X237437Y268375*
X237750Y269000*
X237437Y269625*
X236813Y269937*
X236187*
X235563Y269625*
X235250Y269000*
X235563Y268375*
X236187Y268063*
X235563Y267750*
X235250Y267125*
X235563Y266500*
X236187Y266187*
X236813*
X237437Y266500*
X237750Y267125*
X237437Y267750*
X236813Y268063*
X230250Y260187D02*
Y263937D01*
X233375*
X232750Y262063D02*
X230250D01*
Y260187D02*
X233375D01*
X235250Y261125D02*
X235563Y260500D01*
X236187Y260187*
X237437*
X238063Y260500*
X238375Y261125*
X238063Y261750*
X237437Y262063*
X236187*
X235563Y262375*
X235250Y263000*
X235563Y263625*
X236187Y263937*
X237437*
X238063Y263625*
X238375Y263000*
X240250Y260187D02*
Y263937D01*
X242437*
X243063Y263625*
X243375Y263000*
X243063Y262375*
X242437Y262063*
X240250*
X242437D02*
X243375Y260187D01*
X245563Y260500D02*
X246187Y260187D01*
X246813*
X247437Y260500*
X247750Y261125*
Y263000*
X247437Y263625*
X246813Y263937*
X246187*
X245563Y263625*
X245250Y263000*
Y261125*
X245563Y260500*
X247437Y263625*
X250563Y260500D02*
X251187Y260187D01*
X251813*
X252437Y260500*
X252750Y261125*
X252437Y261750*
X251813Y262063*
X251187*
X251813D02*
X252437Y262375D01*
X252750Y263000*
X252437Y263625*
X251813Y263937*
X251187*
X250563Y263625*
X255250Y260187D02*
Y263937D01*
X258375*
X257750Y262063D02*
X255250D01*
Y260187D02*
X258375D01*
X260250Y263937D02*
X263375D01*
X260250Y260187*
X263375*
X265250D02*
Y263937D01*
X267437*
X268063Y263625*
X268375Y263000*
X268063Y262375*
X267437Y262063*
X265250*
X270250Y260813D02*
X270563Y260500D01*
X271187Y260187*
X271813Y260500*
X272125Y260813*
Y263937*
X272750*
X272125D02*
X270875D01*
X276813Y260187D02*
Y263937D01*
X275250Y261437*
X277750*
X280250Y260187D02*
X282750Y263937D01*
X280250*
X287750Y260187D02*
X285250D01*
X287437Y262375*
X287750Y263000*
X287437Y263625*
X286813Y263937*
X285875*
X285250Y263625*
X230250Y286187D02*
Y289937D01*
X232437*
X233063Y289625*
X233375Y289000*
X233063Y288375*
X232437Y288063*
X230250*
X232437D02*
X233375Y286187D01*
X235250D02*
X237750Y289937D01*
X235250*
X230250Y280187D02*
Y283937D01*
X233375*
X232750Y282063D02*
X230250D01*
Y280187D02*
X233375D01*
X235250Y281125D02*
X235563Y280500D01*
X236187Y280187*
X237437*
X238063Y280500*
X238375Y281125*
X238063Y281750*
X237437Y282063*
X236187*
X235563Y282375*
X235250Y283000*
X235563Y283625*
X236187Y283937*
X237437*
X238063Y283625*
X238375Y283000*
X240250Y280187D02*
Y283937D01*
X242437*
X243063Y283625*
X243375Y283000*
X243063Y282375*
X242437Y282063*
X240250*
X242437D02*
X243375Y280187D01*
X245563Y280500D02*
X246187Y280187D01*
X246813*
X247437Y280500*
X247750Y281125*
Y283000*
X247437Y283625*
X246813Y283937*
X246187*
X245563Y283625*
X245250Y283000*
Y281125*
X245563Y280500*
X247437Y283625*
X250563Y280500D02*
X251187Y280187D01*
X251813*
X252437Y280500*
X252750Y281125*
X252437Y281750*
X251813Y282063*
X251187*
X251813D02*
X252437Y282375D01*
X252750Y283000*
X252437Y283625*
X251813Y283937*
X251187*
X250563Y283625*
X255250Y280187D02*
Y283937D01*
X258375*
X257750Y282063D02*
X255250D01*
Y280187D02*
X258375D01*
X260250Y283937D02*
X263375D01*
X260250Y280187*
X263375*
X265250D02*
Y283937D01*
X267437*
X268063Y283625*
X268375Y283000*
X268063Y282375*
X267437Y282063*
X265250*
X270250Y280813D02*
X270563Y280500D01*
X271187Y280187*
X271813Y280500*
X272125Y280813*
Y283937*
X272750*
X272125D02*
X270875D01*
X276813Y280187D02*
Y283937D01*
X275250Y281437*
X277750*
X280250Y280187D02*
X282750Y283937D01*
X280250*
X285875Y280187D02*
X287125D01*
X286500D02*
Y283937D01*
X285875Y283313*
X230250Y306187D02*
Y309937D01*
X232437*
X233063Y309625*
X233375Y309000*
X233063Y308375*
X232437Y308063*
X230250*
X232437D02*
X233375Y306187D01*
X235250Y307125D02*
X235563Y307750D01*
X236187Y308063*
X236813*
X237437Y307750*
X237750Y307125*
X237437Y306500*
X236813Y306187*
X236187*
X235563Y306500*
X235250Y307125*
Y308063*
X235563Y309000*
X236187Y309625*
X236813Y309937*
X230250Y300187D02*
Y303937D01*
X233375*
X232750Y302063D02*
X230250D01*
Y300187D02*
X233375D01*
X235250Y301125D02*
X235563Y300500D01*
X236187Y300187*
X237437*
X238063Y300500*
X238375Y301125*
X238063Y301750*
X237437Y302063*
X236187*
X235563Y302375*
X235250Y303000*
X235563Y303625*
X236187Y303937*
X237437*
X238063Y303625*
X238375Y303000*
X240250Y300187D02*
Y303937D01*
X242437*
X243063Y303625*
X243375Y303000*
X243063Y302375*
X242437Y302063*
X240250*
X242437D02*
X243375Y300187D01*
X245563Y300500D02*
X246187Y300187D01*
X246813*
X247437Y300500*
X247750Y301125*
Y303000*
X247437Y303625*
X246813Y303937*
X246187*
X245563Y303625*
X245250Y303000*
Y301125*
X245563Y300500*
X247437Y303625*
X250563Y300500D02*
X251187Y300187D01*
X251813*
X252437Y300500*
X252750Y301125*
X252437Y301750*
X251813Y302063*
X251187*
X251813D02*
X252437Y302375D01*
X252750Y303000*
X252437Y303625*
X251813Y303937*
X251187*
X250563Y303625*
X255250Y300187D02*
Y303937D01*
X258375*
X257750Y302063D02*
X255250D01*
Y300187D02*
X258375D01*
X260250Y303937D02*
X263375D01*
X260250Y300187*
X263375*
X265250D02*
Y303937D01*
X267437*
X268063Y303625*
X268375Y303000*
X268063Y302375*
X267437Y302063*
X265250*
X270250Y300813D02*
X270563Y300500D01*
X271187Y300187*
X271813Y300500*
X272125Y300813*
Y303937*
X272750*
X272125D02*
X270875D01*
X275563Y300500D02*
X276187Y300187D01*
X276813*
X277437Y300500*
X277750Y301125*
X277437Y301750*
X276813Y302063*
X276187*
X276813D02*
X277437Y302375D01*
X277750Y303000*
X277437Y303625*
X276813Y303937*
X276187*
X275563Y303625*
X280563Y300500D02*
X281187Y300187D01*
X281813*
X282437Y300500*
X282750Y301125*
Y303000*
X282437Y303625*
X281813Y303937*
X281187*
X280563Y303625*
X280250Y303000*
Y301125*
X280563Y300500*
X282437Y303625*
X285875Y300187D02*
X287125D01*
X286500D02*
Y303937D01*
X285875Y303313*
X230250Y326187D02*
Y329937D01*
X232437*
X233063Y329625*
X233375Y329000*
X233063Y328375*
X232437Y328063*
X230250*
X232437D02*
X233375Y326187D01*
X235250Y326500D02*
X235875Y326187D01*
X236813*
X237437Y326500*
X237750Y327125*
Y327437*
X237437Y328063*
X236813Y328375*
X235250*
Y329937*
X237750*
X230250Y320187D02*
Y323937D01*
X233375*
X232750Y322063D02*
X230250D01*
Y320187D02*
X233375D01*
X235250Y321125D02*
X235563Y320500D01*
X236187Y320187*
X237437*
X238063Y320500*
X238375Y321125*
X238063Y321750*
X237437Y322063*
X236187*
X235563Y322375*
X235250Y323000*
X235563Y323625*
X236187Y323937*
X237437*
X238063Y323625*
X238375Y323000*
X240250Y320187D02*
Y323937D01*
X242437*
X243063Y323625*
X243375Y323000*
X243063Y322375*
X242437Y322063*
X240250*
X242437D02*
X243375Y320187D01*
X245563Y320500D02*
X246187Y320187D01*
X246813*
X247437Y320500*
X247750Y321125*
Y323000*
X247437Y323625*
X246813Y323937*
X246187*
X245563Y323625*
X245250Y323000*
Y321125*
X245563Y320500*
X247437Y323625*
X250563Y320500D02*
X251187Y320187D01*
X251813*
X252437Y320500*
X252750Y321125*
X252437Y321750*
X251813Y322063*
X251187*
X251813D02*
X252437Y322375D01*
X252750Y323000*
X252437Y323625*
X251813Y323937*
X251187*
X250563Y323625*
X255250Y320187D02*
Y323937D01*
X258375*
X257750Y322063D02*
X255250D01*
Y320187D02*
X258375D01*
X260250Y323937D02*
X263375D01*
X260250Y320187*
X263375*
X265250D02*
Y323937D01*
X267437*
X268063Y323625*
X268375Y323000*
X268063Y322375*
X267437Y322063*
X265250*
X270250Y320813D02*
X270563Y320500D01*
X271187Y320187*
X271813Y320500*
X272125Y320813*
Y323937*
X272750*
X272125D02*
X270875D01*
X277750Y320187D02*
X275250D01*
X277437Y322375*
X277750Y323000*
X277437Y323625*
X276813Y323937*
X275875*
X275250Y323625*
X282750Y320187D02*
X280250D01*
X282437Y322375*
X282750Y323000*
X282437Y323625*
X281813Y323937*
X280875*
X280250Y323625*
X287750Y320187D02*
X285250D01*
X287437Y322375*
X287750Y323000*
X287437Y323625*
X286813Y323937*
X285875*
X285250Y323625*
X230250Y346187D02*
Y349937D01*
X232437*
X233063Y349625*
X233375Y349000*
X233063Y348375*
X232437Y348063*
X230250*
X232437D02*
X233375Y346187D01*
X236813D02*
Y349937D01*
X235250Y347437*
X237750*
X230250Y340187D02*
Y343937D01*
X233375*
X232750Y342063D02*
X230250D01*
Y340187D02*
X233375D01*
X235250Y341125D02*
X235563Y340500D01*
X236187Y340187*
X237437*
X238063Y340500*
X238375Y341125*
X238063Y341750*
X237437Y342063*
X236187*
X235563Y342375*
X235250Y343000*
X235563Y343625*
X236187Y343937*
X237437*
X238063Y343625*
X238375Y343000*
X240250Y340187D02*
Y343937D01*
X242437*
X243063Y343625*
X243375Y343000*
X243063Y342375*
X242437Y342063*
X240250*
X242437D02*
X243375Y340187D01*
X245563Y340500D02*
X246187Y340187D01*
X246813*
X247437Y340500*
X247750Y341125*
Y343000*
X247437Y343625*
X246813Y343937*
X246187*
X245563Y343625*
X245250Y343000*
Y341125*
X245563Y340500*
X247437Y343625*
X250563Y340500D02*
X251187Y340187D01*
X251813*
X252437Y340500*
X252750Y341125*
X252437Y341750*
X251813Y342063*
X251187*
X251813D02*
X252437Y342375D01*
X252750Y343000*
X252437Y343625*
X251813Y343937*
X251187*
X250563Y343625*
X255250Y340187D02*
Y343937D01*
X258375*
X257750Y342063D02*
X255250D01*
Y340187D02*
X258375D01*
X260250Y343937D02*
X263375D01*
X260250Y340187*
X263375*
X265250D02*
Y343937D01*
X267437*
X268063Y343625*
X268375Y343000*
X268063Y342375*
X267437Y342063*
X265250*
X270250Y340813D02*
X270563Y340500D01*
X271187Y340187*
X271813Y340500*
X272125Y340813*
Y343937*
X272750*
X272125D02*
X270875D01*
X275875Y340187D02*
X277125D01*
X276500D02*
Y343937D01*
X275875Y343313*
X280563Y340500D02*
X281187Y340187D01*
X281813*
X282437Y340500*
X282750Y341125*
Y343000*
X282437Y343625*
X281813Y343937*
X281187*
X280563Y343625*
X280250Y343000*
Y341125*
X280563Y340500*
X282437Y343625*
X287750Y340187D02*
X285250D01*
X287437Y342375*
X287750Y343000*
X287437Y343625*
X286813Y343937*
X285875*
X285250Y343625*
X230250Y366187D02*
Y369937D01*
X232437*
X233063Y369625*
X233375Y369000*
X233063Y368375*
X232437Y368063*
X230250*
X232437D02*
X233375Y366187D01*
X235563Y366500D02*
X236187Y366187D01*
X236813*
X237437Y366500*
X237750Y367125*
X237437Y367750*
X236813Y368063*
X236187*
X236813D02*
X237437Y368375D01*
X237750Y369000*
X237437Y369625*
X236813Y369937*
X236187*
X235563Y369625*
X230250Y360187D02*
Y363937D01*
X233375*
X232750Y362063D02*
X230250D01*
Y360187D02*
X233375D01*
X235250Y361125D02*
X235563Y360500D01*
X236187Y360187*
X237437*
X238063Y360500*
X238375Y361125*
X238063Y361750*
X237437Y362063*
X236187*
X235563Y362375*
X235250Y363000*
X235563Y363625*
X236187Y363937*
X237437*
X238063Y363625*
X238375Y363000*
X240250Y360187D02*
Y363937D01*
X242437*
X243063Y363625*
X243375Y363000*
X243063Y362375*
X242437Y362063*
X240250*
X242437D02*
X243375Y360187D01*
X245563Y360500D02*
X246187Y360187D01*
X246813*
X247437Y360500*
X247750Y361125*
Y363000*
X247437Y363625*
X246813Y363937*
X246187*
X245563Y363625*
X245250Y363000*
Y361125*
X245563Y360500*
X247437Y363625*
X250563Y360500D02*
X251187Y360187D01*
X251813*
X252437Y360500*
X252750Y361125*
X252437Y361750*
X251813Y362063*
X251187*
X251813D02*
X252437Y362375D01*
X252750Y363000*
X252437Y363625*
X251813Y363937*
X251187*
X250563Y363625*
X255250Y360187D02*
Y363937D01*
X258375*
X257750Y362063D02*
X255250D01*
Y360187D02*
X258375D01*
X260250Y363937D02*
X263375D01*
X260250Y360187*
X263375*
X265250D02*
Y363937D01*
X267437*
X268063Y363625*
X268375Y363000*
X268063Y362375*
X267437Y362063*
X265250*
X270250Y360187D02*
Y363937D01*
X273375*
X272750Y362063D02*
X270250D01*
X275875Y360187D02*
X277125D01*
X276500D02*
Y363937D01*
X275875Y363313*
X280563Y360500D02*
X281187Y360187D01*
X281813*
X282437Y360500*
X282750Y361125*
Y363000*
X282437Y363625*
X281813Y363937*
X281187*
X280563Y363625*
X280250Y363000*
Y361125*
X280563Y360500*
X282437Y363625*
X285563Y360500D02*
X286187Y360187D01*
X286813*
X287437Y360500*
X287750Y361125*
Y363000*
X287437Y363625*
X286813Y363937*
X286187*
X285563Y363625*
X285250Y363000*
Y361125*
X285563Y360500*
X287437Y363625*
X292750Y360187D02*
X290250D01*
X292437Y362375*
X292750Y363000*
X292437Y363625*
X291813Y363937*
X290875*
X290250Y363625*
X230250Y386187D02*
Y389937D01*
X232437*
X233063Y389625*
X233375Y389000*
X233063Y388375*
X232437Y388063*
X230250*
X232437D02*
X233375Y386187D01*
X237750D02*
X235250D01*
X237437Y388375*
X237750Y389000*
X237437Y389625*
X236813Y389937*
X235875*
X235250Y389625*
X233375Y380813D02*
X233063Y380500D01*
X232437Y380187*
X231500*
X230875Y380500*
X230563Y380813*
X230250Y381437*
Y382687*
X230563Y383313*
X230875Y383625*
X231500Y383937*
X232437*
X233063Y383625*
X233375Y383313*
X235250Y380187D02*
Y383937D01*
X237437*
X238063Y383625*
X238375Y383000*
X238063Y382375*
X237437Y382063*
X235250*
X237437D02*
X238375Y380187D01*
X243375Y380813D02*
X243063Y380500D01*
X242437Y380187*
X241500*
X240875Y380500*
X240563Y380813*
X240250Y381437*
Y382687*
X240563Y383313*
X240875Y383625*
X241500Y383937*
X242437*
X243063Y383625*
X243375Y383313*
X245250Y383937D02*
X245563Y380187D01*
X246813Y382063*
X248063Y380187*
X248375Y383937*
X250563Y380500D02*
X251187Y380187D01*
X251813*
X252437Y380500*
X252750Y381125*
Y383000*
X252437Y383625*
X251813Y383937*
X251187*
X250563Y383625*
X250250Y383000*
Y381125*
X250563Y380500*
X252437Y383625*
X255250Y381125D02*
X255563Y381750D01*
X256187Y382063*
X256813*
X257437Y381750*
X257750Y381125*
X257437Y380500*
X256813Y380187*
X256187*
X255563Y380500*
X255250Y381125*
Y382063*
X255563Y383000*
X256187Y383625*
X256813Y383937*
X260563Y380500D02*
X261187Y380187D01*
X261813*
X262437Y380500*
X262750Y381125*
Y383000*
X262437Y383625*
X261813Y383937*
X261187*
X260563Y383625*
X260250Y383000*
Y381125*
X260563Y380500*
X262437Y383625*
X265563Y380500D02*
X266187Y380187D01*
X266813*
X267437Y380500*
X267750Y381125*
X267437Y381750*
X266813Y382063*
X266187*
X266813D02*
X267437Y382375D01*
X267750Y383000*
X267437Y383625*
X266813Y383937*
X266187*
X265563Y383625*
X270563Y380500D02*
X271187Y380187D01*
X271813*
X272437Y380500*
X272750Y381125*
Y383000*
X272437Y383625*
X271813Y383937*
X271187*
X270563Y383625*
X270250Y383000*
Y381125*
X270563Y380500*
X272437Y383625*
X275563Y380500D02*
X276187Y380187D01*
X276813*
X277437Y380500*
X277750Y381125*
Y383000*
X277437Y383625*
X276813Y383937*
X276187*
X275563Y383625*
X275250Y383000*
Y381125*
X275563Y380500*
X277437Y383625*
X280563Y380500D02*
X281187Y380187D01*
X281813*
X282437Y380500*
X282750Y381125*
Y383000*
X282437Y383625*
X281813Y383937*
X281187*
X280563Y383625*
X280250Y383000*
Y381125*
X280563Y380500*
X282437Y383625*
X285563Y380500D02*
X286187Y380187D01*
X286813*
X287437Y380500*
X287750Y381125*
Y383000*
X287437Y383625*
X286813Y383937*
X286187*
X285563Y383625*
X285250Y383000*
Y381125*
X285563Y380500*
X287437Y383625*
X290250Y383937D02*
X293375D01*
X290250Y380187*
X293375*
X295563Y380500D02*
X296187Y380187D01*
X296813*
X297437Y380500*
X297750Y381125*
Y383000*
X297437Y383625*
X296813Y383937*
X296187*
X295563Y383625*
X295250Y383000*
Y381125*
X295563Y380500*
X297437Y383625*
X300250Y380187D02*
Y383937D01*
X303375*
X302750Y382063D02*
X300250D01*
Y380187D02*
X303375D01*
X305250D02*
X306813Y383937D01*
X308375Y380187*
X305875Y381750D02*
X307750D01*
X230250Y406187D02*
Y409937D01*
X232437*
X233063Y409625*
X233375Y409000*
X233063Y408375*
X232437Y408063*
X230250*
X232437D02*
X233375Y406187D01*
X235875D02*
X237125D01*
X236500D02*
Y409937D01*
X235875Y409313*
X233375Y400813D02*
X233063Y400500D01*
X232437Y400187*
X231500*
X230875Y400500*
X230563Y400813*
X230250Y401437*
Y402687*
X230563Y403313*
X230875Y403625*
X231500Y403937*
X232437*
X233063Y403625*
X233375Y403313*
X235250Y400187D02*
Y403937D01*
X237437*
X238063Y403625*
X238375Y403000*
X238063Y402375*
X237437Y402063*
X235250*
X237437D02*
X238375Y400187D01*
X243375Y400813D02*
X243063Y400500D01*
X242437Y400187*
X241500*
X240875Y400500*
X240563Y400813*
X240250Y401437*
Y402687*
X240563Y403313*
X240875Y403625*
X241500Y403937*
X242437*
X243063Y403625*
X243375Y403313*
X245250Y403937D02*
X245563Y400187D01*
X246813Y402063*
X248063Y400187*
X248375Y403937*
X250563Y400500D02*
X251187Y400187D01*
X251813*
X252437Y400500*
X252750Y401125*
Y403000*
X252437Y403625*
X251813Y403937*
X251187*
X250563Y403625*
X250250Y403000*
Y401125*
X250563Y400500*
X252437Y403625*
X255250Y401125D02*
X255563Y401750D01*
X256187Y402063*
X256813*
X257437Y401750*
X257750Y401125*
X257437Y400500*
X256813Y400187*
X256187*
X255563Y400500*
X255250Y401125*
Y402063*
X255563Y403000*
X256187Y403625*
X256813Y403937*
X260563Y400500D02*
X261187Y400187D01*
X261813*
X262437Y400500*
X262750Y401125*
Y403000*
X262437Y403625*
X261813Y403937*
X261187*
X260563Y403625*
X260250Y403000*
Y401125*
X260563Y400500*
X262437Y403625*
X265563Y400500D02*
X266187Y400187D01*
X266813*
X267437Y400500*
X267750Y401125*
X267437Y401750*
X266813Y402063*
X266187*
X266813D02*
X267437Y402375D01*
X267750Y403000*
X267437Y403625*
X266813Y403937*
X266187*
X265563Y403625*
X270875Y400187D02*
X272125D01*
X271500D02*
Y403937D01*
X270875Y403313*
X275563Y400500D02*
X276187Y400187D01*
X276813*
X277437Y400500*
X277750Y401125*
Y403000*
X277437Y403625*
X276813Y403937*
X276187*
X275563Y403625*
X275250Y403000*
Y401125*
X275563Y400500*
X277437Y403625*
X280563Y400500D02*
X281187Y400187D01*
X281813*
X282437Y400500*
X282750Y401125*
Y403000*
X282437Y403625*
X281813Y403937*
X281187*
X280563Y403625*
X280250Y403000*
Y401125*
X280563Y400500*
X282437Y403625*
X285250Y400187D02*
Y403937D01*
Y402063D02*
X286187D01*
X288375Y403937*
X286187Y402063D02*
X288375Y400187D01*
X290250D02*
Y403937D01*
X293375*
X292750Y402063D02*
X290250D01*
X295250Y400187D02*
Y403937D01*
Y402063D02*
X296187D01*
X298375Y403937*
X296187Y402063D02*
X298375Y400187D01*
X300250D02*
Y403937D01*
X303375*
X302750Y402063D02*
X300250D01*
Y400187D02*
X303375D01*
X305250D02*
X306813Y403937D01*
X308375Y400187*
X305875Y401750D02*
X307750D01*
X266533Y96155D02*
X266220Y95843D01*
X265595Y95530*
X264657*
X264033Y95843*
X263720Y96155*
X263407Y96780*
Y98030*
X263720Y98655*
X264033Y98968*
X264657Y99280*
X265595*
X266220Y98968*
X266533Y98655*
X269345Y95530D02*
X269970Y95843D01*
X270595Y96468*
X270907Y97405*
Y98343*
X270595Y98968*
X269970Y99280*
X269345*
X268720Y98968*
X268407Y98343*
X268720Y97718*
X269345Y97405*
X269970*
X270595Y97718*
X270907Y98343*
X263407Y89530D02*
Y93280D01*
Y91405D02*
X264345D01*
X266533Y93280*
X264345Y91405D02*
X266533Y89530D01*
X268407D02*
Y93280D01*
X270595*
X271220Y92968*
X271533Y92343*
X271220Y91718*
X270595Y91405*
X268407*
X270595D02*
X271533Y89530D01*
X273407Y90780D02*
X275907D01*
X278407Y89843D02*
X279033Y89530D01*
X279970*
X280595Y89843*
X280907Y90468*
Y90780*
X280595Y91405*
X279970Y91718*
X278407*
Y93280*
X280907*
X283407Y89530D02*
Y93280D01*
X285595*
X286220Y92968*
X286533Y92343*
X286220Y91718*
X285595Y91405*
X283407*
X285595D02*
X286533Y89530D01*
X288407Y89843D02*
X289033Y89530D01*
X289970*
X290595Y89843*
X290907Y90468*
Y90780*
X290595Y91405*
X289970Y91718*
X288407*
Y93280*
X290907*
X296533Y90155D02*
X296220Y89843D01*
X295595Y89530*
X294657*
X294033Y89843*
X293720Y90155*
X293407Y90780*
Y92030*
X293720Y92655*
X294033Y92968*
X294657Y93280*
X295595*
X296220Y92968*
X296533Y92655*
X299033Y89530D02*
X300283D01*
X299657D02*
Y93280D01*
X299033Y92655*
X303720Y89843D02*
X304345Y89530D01*
X304970*
X305595Y89843*
X305907Y90468*
Y92343*
X305595Y92968*
X304970Y93280*
X304345*
X303720Y92968*
X303407Y92343*
Y90468*
X303720Y89843*
X305595Y92968*
X308407Y89843D02*
X309033Y89530D01*
X309970*
X310595Y89843*
X310907Y90468*
Y90780*
X310595Y91405*
X309970Y91718*
X308407*
Y93280*
X310907*
X313407Y90780D02*
X315907D01*
X318407Y89530D02*
Y93280D01*
X320595*
X321220Y92968*
X321533Y92343*
X321220Y91718*
X320595Y91405*
X318407*
X320595D02*
X321533Y89530D01*
X330069Y222281D02*
X342305D01*
Y228219*
X330069*
Y222281*
Y272281D02*
X342305D01*
Y278219*
X330069*
Y272281*
X330112Y394937D02*
Y391187D01*
X333237*
X335112D02*
Y394937D01*
X338237*
X337612Y393063D02*
X335112D01*
Y391187D02*
X338237D01*
X340112D02*
Y394937D01*
X341987*
X342612Y394625*
X342925Y394313*
X343237Y393687*
Y392437*
X342925Y391813*
X342612Y391500*
X341987Y391187*
X340112*
X347612D02*
X345112D01*
X347300Y393375*
X347612Y394000*
X347300Y394625*
X346675Y394937*
X345737*
X345112Y394625*
X330112Y385187D02*
X331675Y388937D01*
X333237Y385187*
X330737Y386750D02*
X332612D01*
X335112Y385187D02*
Y388937D01*
X337300*
X337925Y388625*
X338237Y388000*
X337925Y387375*
X337300Y387063*
X335112*
X341675Y385187D02*
Y388937D01*
X340112D02*
X343237D01*
X345737Y385187D02*
X346987D01*
X346362D02*
Y388937D01*
X345737Y388313*
X350112Y386125D02*
X350425Y386750D01*
X351050Y387063*
X351675*
X352300Y386750*
X352612Y386125*
X352300Y385500*
X351675Y385187*
X351050*
X350425Y385500*
X350112Y386125*
Y387063*
X350425Y388000*
X351050Y388625*
X351675Y388937*
X355425Y385500D02*
X356050Y385187D01*
X356675*
X357300Y385500*
X357612Y386125*
Y388000*
X357300Y388625*
X356675Y388937*
X356050*
X355425Y388625*
X355112Y388000*
Y386125*
X355425Y385500*
X357300Y388625*
X361050Y387063D02*
X361675D01*
X362300Y387375*
X362612Y388000*
X362300Y388625*
X361675Y388937*
X361050*
X360425Y388625*
X360112Y388000*
X360425Y387375*
X361050Y387063*
X360425Y386750*
X360112Y386125*
X360425Y385500*
X361050Y385187*
X361675*
X362300Y385500*
X362612Y386125*
X362300Y386750*
X361675Y387063*
X365112Y385187D02*
Y388937D01*
X368237*
X367612Y387063D02*
X365112D01*
Y385187D02*
X368237D01*
X373237Y385813D02*
X372925Y385500D01*
X372300Y385187*
X371362*
X370737Y385500*
X370425Y385813*
X370112Y386437*
Y387687*
X370425Y388313*
X370737Y388625*
X371362Y388937*
X372300*
X372925Y388625*
X373237Y388313*
X330250Y344937D02*
Y341187D01*
X333375*
X335250D02*
Y344937D01*
X338375*
X337750Y343063D02*
X335250D01*
Y341187D02*
X338375D01*
X340250D02*
Y344937D01*
X342125*
X342750Y344625*
X343063Y344313*
X343375Y343687*
Y342437*
X343063Y341813*
X342750Y341500*
X342125Y341187*
X340250*
X346813D02*
Y344937D01*
X345250Y342437*
X347750*
X330250Y335187D02*
Y338937D01*
Y337063D02*
X333375D01*
Y335187D02*
Y338937D01*
X336813Y335187D02*
Y338937D01*
X335250D02*
X338375D01*
X340250Y336437D02*
X342750D01*
X345875Y335187D02*
X347125D01*
X346500D02*
Y338937D01*
X345875Y338313*
X351187Y335187D02*
X351813Y335500D01*
X352437Y336125*
X352750Y337063*
Y338000*
X352437Y338625*
X351813Y338937*
X351187*
X350563Y338625*
X350250Y338000*
X350563Y337375*
X351187Y337063*
X351813*
X352437Y337375*
X352750Y338000*
X355563Y335500D02*
X356187Y335187D01*
X356813*
X357437Y335500*
X357750Y336125*
X357437Y336750*
X356813Y337063*
X356187*
X356813D02*
X357437Y337375D01*
X357750Y338000*
X357437Y338625*
X356813Y338937*
X356187*
X355563Y338625*
X360250Y335187D02*
Y338937D01*
X363375Y335187*
Y338937*
X367437Y337063D02*
X368063Y336750D01*
X368375Y336125*
X368063Y335500*
X367437Y335187*
X365250*
Y338937*
X367437*
X368063Y338625*
X368375Y338000*
X368063Y337375*
X367437Y337063*
X365250*
X370250Y336437D02*
X372750D01*
X375250Y335500D02*
X375875Y335187D01*
X376813*
X377437Y335500*
X377750Y336125*
Y336437*
X377437Y337063*
X376813Y337375*
X375250*
Y338937*
X377750*
X380250Y335500D02*
X380875Y335187D01*
X381813*
X382437Y335500*
X382750Y336125*
Y336437*
X382437Y337063*
X381813Y337375*
X380250*
Y338937*
X382750*
X386187Y337063D02*
X386813D01*
X387437Y337375*
X387750Y338000*
X387437Y338625*
X386813Y338937*
X386187*
X385563Y338625*
X385250Y338000*
X385563Y337375*
X386187Y337063*
X385563Y336750*
X385250Y336125*
X385563Y335500*
X386187Y335187*
X386813*
X387437Y335500*
X387750Y336125*
X387437Y336750*
X386813Y337063*
X391187Y335187D02*
X391813Y335500D01*
X392437Y336125*
X392750Y337063*
Y338000*
X392437Y338625*
X391813Y338937*
X391187*
X390563Y338625*
X390250Y338000*
X390563Y337375*
X391187Y337063*
X391813*
X392437Y337375*
X392750Y338000*
X330250Y419937D02*
Y416187D01*
X333375*
X335250D02*
Y419937D01*
X338375*
X337750Y418063D02*
X335250D01*
Y416187D02*
X338375D01*
X340250D02*
Y419937D01*
X342125*
X342750Y419625*
X343063Y419313*
X343375Y418687*
Y417437*
X343063Y416813*
X342750Y416500*
X342125Y416187*
X340250*
X345875D02*
X347125D01*
X346500D02*
Y419937D01*
X345875Y419313*
X330875Y410187D02*
X332125D01*
X331500D02*
Y413937D01*
X330875Y413313*
X335250Y410500D02*
X335875Y410187D01*
X336813*
X337437Y410500*
X337750Y411125*
Y411437*
X337437Y412063*
X336813Y412375*
X335250*
Y413937*
X337750*
X340563Y410500D02*
X341187Y410187D01*
X341813*
X342437Y410500*
X342750Y411125*
Y413000*
X342437Y413625*
X341813Y413937*
X341187*
X340563Y413625*
X340250Y413000*
Y411125*
X340563Y410500*
X342437Y413625*
X345563Y410500D02*
X346187Y410187D01*
X346813*
X347437Y410500*
X347750Y411125*
Y413000*
X347437Y413625*
X346813Y413937*
X346187*
X345563Y413625*
X345250Y413000*
Y411125*
X345563Y410500*
X347437Y413625*
X350250Y411125D02*
X350563Y411750D01*
X351187Y412063*
X351813*
X352437Y411750*
X352750Y411125*
X352437Y410500*
X351813Y410187*
X351187*
X350563Y410500*
X350250Y411125*
Y412063*
X350563Y413000*
X351187Y413625*
X351813Y413937*
X355563Y410500D02*
X356187Y410187D01*
X356813*
X357437Y410500*
X357750Y411125*
Y413000*
X357437Y413625*
X356813Y413937*
X356187*
X355563Y413625*
X355250Y413000*
Y411125*
X355563Y410500*
X357437Y413625*
X361813Y410187D02*
Y412063D01*
X360250Y413937*
X361813Y412063D02*
X363375Y413937D01*
X365250Y411125D02*
X365563Y410500D01*
X366187Y410187*
X367437*
X368063Y410500*
X368375Y411125*
X368063Y411750*
X367437Y412063*
X366187*
X365563Y412375*
X365250Y413000*
X365563Y413625*
X366187Y413937*
X367437*
X368063Y413625*
X368375Y413000*
X370250Y410187D02*
X372750Y413937D01*
X370250*
X375250Y410500D02*
X375875Y410187D01*
X376813*
X377437Y410500*
X377750Y411125*
Y411437*
X377437Y412063*
X376813Y412375*
X375250*
Y413937*
X377750*
X380563Y410500D02*
X381187Y410187D01*
X381813*
X382437Y410500*
X382750Y411125*
Y413000*
X382437Y413625*
X381813Y413937*
X381187*
X380563Y413625*
X380250Y413000*
Y411125*
X380563Y410500*
X382437Y413625*
X385563Y410500D02*
X386187Y410187D01*
X386813*
X387437Y410500*
X387750Y411125*
Y413000*
X387437Y413625*
X386813Y413937*
X386187*
X385563Y413625*
X385250Y413000*
Y411125*
X385563Y410500*
X387437Y413625*
X390563Y410500D02*
X391187Y410187D01*
X391813*
X392437Y410500*
X392750Y411125*
Y413000*
X392437Y413625*
X391813Y413937*
X391187*
X390563Y413625*
X390250Y413000*
Y411125*
X390563Y410500*
X392437Y413625*
X330687Y294750D02*
X351687D01*
Y305750*
X330687*
Y294750*
X330862Y376750D02*
X340986D01*
Y383750*
X332187*
X330862Y382425*
Y376750*
X331075Y251888D02*
X341124D01*
Y258500*
X332075*
X331075Y257500*
Y251888*
X331187Y316187D02*
Y319937D01*
X333062*
X333687Y319625*
X334000Y319313*
X334312Y318687*
Y317437*
X334000Y316813*
X333687Y316500*
X333062Y316187*
X331187*
X336812D02*
X338062D01*
X337437D02*
Y319937D01*
X336812Y319313*
X332124Y312063D02*
X332750D01*
X333374Y312375*
X333687Y313000*
X333374Y313625*
X332750Y313937*
X332124*
X331500Y313625*
X331187Y313000*
X331500Y312375*
X332124Y312063*
X331500Y311750*
X331187Y311125*
X331500Y310500*
X332124Y310187*
X332750*
X333374Y310500*
X333687Y311125*
X333374Y311750*
X332750Y312063*
X338687Y310187D02*
X336187D01*
X338374Y312375*
X338687Y313000*
X338374Y313625*
X337750Y313937*
X336812*
X336187Y313625*
X341187Y311125D02*
X341500Y311750D01*
X342124Y312063*
X342750*
X343374Y311750*
X343687Y311125*
X343374Y310500*
X342750Y310187*
X342124*
X341500Y310500*
X341187Y311125*
Y312063*
X341500Y313000*
X342124Y313625*
X342750Y313937*
X347124Y310187D02*
X347750Y310500D01*
X348374Y311125*
X348687Y312063*
Y313000*
X348374Y313625*
X347750Y313937*
X347124*
X346500Y313625*
X346187Y313000*
X346500Y312375*
X347124Y312063*
X347750*
X348374Y312375*
X348687Y313000*
X351500Y310500D02*
X352124Y310187D01*
X352750*
X353374Y310500*
X353687Y311125*
X353374Y311750*
X352750Y312063*
X352124*
X352750D02*
X353374Y312375D01*
X353687Y313000*
X353374Y313625*
X352750Y313937*
X352124*
X351500Y313625*
X356187Y311125D02*
X356500Y311750D01*
X357124Y312063*
X357750*
X358374Y311750*
X358687Y311125*
X358374Y310500*
X357750Y310187*
X357124*
X356500Y310500*
X356187Y311125*
Y312063*
X356500Y313000*
X357124Y313625*
X357750Y313937*
X361187Y311437D02*
X363687D01*
X368687Y310187D02*
X366187D01*
X368374Y312375*
X368687Y313000*
X368374Y313625*
X367750Y313937*
X366812*
X366187Y313625*
X331250Y402675D02*
X341124D01*
Y408000*
X332575*
X331250Y406675*
Y402675*
X331325Y326888D02*
X341325D01*
Y333612*
X332325*
X331325Y332612*
Y326888*
X331659Y223659D02*
X331675Y223454D01*
X331720Y223253*
X331796Y223061*
X331899Y222883*
X332027Y222722*
X332178Y222582*
X332348Y222466*
X332534Y222376*
X332731Y222316*
X332934Y222285*
X333140*
X333344Y222316*
X333541Y222376*
X333726Y222466*
X333896Y222582*
X334047Y222722*
X334176Y222883*
X334279Y223061*
X334354Y223253*
X334400Y223454*
X334415Y223659*
X334400Y223865*
X334354Y224066*
X334279Y224257*
X334176Y224436*
X334048Y224597*
X333896Y224737*
X333726Y224853*
X333541Y224943*
X333344Y225003*
X333141Y225034*
X332935*
X332731Y225003*
X332534Y224943*
X332349Y224853*
X332179Y224737*
X332028Y224597*
X331899Y224436*
X331796Y224257*
X331721Y224066*
X331675Y223865*
X331659Y223659*
G36*
X331675Y223454*
X331720Y223253*
X331796Y223061*
X331899Y222883*
X332027Y222722*
X332178Y222582*
X332348Y222466*
X332534Y222376*
X332731Y222316*
X332934Y222285*
X333140*
X333344Y222316*
X333541Y222376*
X333726Y222466*
X333896Y222582*
X334047Y222722*
X334176Y222883*
X334279Y223061*
X334354Y223253*
X334400Y223454*
X334415Y223659*
X334400Y223865*
X334354Y224066*
X334279Y224257*
X334176Y224436*
X334048Y224597*
X333896Y224737*
X333726Y224853*
X333541Y224943*
X333344Y225003*
X333141Y225034*
X332935*
X332731Y225003*
X332534Y224943*
X332349Y224853*
X332179Y224737*
X332028Y224597*
X331899Y224436*
X331796Y224257*
X331721Y224066*
X331675Y223865*
X331659Y223659*
G37*
Y273659D02*
X331675Y273454D01*
X331720Y273253*
X331796Y273061*
X331899Y272883*
X332027Y272722*
X332178Y272582*
X332348Y272466*
X332534Y272376*
X332731Y272316*
X332934Y272285*
X333140*
X333344Y272316*
X333541Y272376*
X333726Y272466*
X333896Y272582*
X334047Y272722*
X334176Y272883*
X334279Y273061*
X334354Y273253*
X334400Y273454*
X334415Y273659*
X334400Y273865*
X334354Y274066*
X334279Y274257*
X334176Y274436*
X334048Y274597*
X333896Y274737*
X333726Y274853*
X333541Y274943*
X333344Y275003*
X333141Y275034*
X332935*
X332731Y275003*
X332534Y274943*
X332349Y274853*
X332179Y274737*
X332028Y274597*
X331899Y274436*
X331796Y274257*
X331721Y274066*
X331675Y273865*
X331659Y273659*
G36*
X331675Y273454*
X331720Y273253*
X331796Y273061*
X331899Y272883*
X332027Y272722*
X332178Y272582*
X332348Y272466*
X332534Y272376*
X332731Y272316*
X332934Y272285*
X333140*
X333344Y272316*
X333541Y272376*
X333726Y272466*
X333896Y272582*
X334047Y272722*
X334176Y272883*
X334279Y273061*
X334354Y273253*
X334400Y273454*
X334415Y273659*
X334400Y273865*
X334354Y274066*
X334279Y274257*
X334176Y274436*
X334048Y274597*
X333896Y274737*
X333726Y274853*
X333541Y274943*
X333344Y275003*
X333141Y275034*
X332935*
X332731Y275003*
X332534Y274943*
X332349Y274853*
X332179Y274737*
X332028Y274597*
X331899Y274436*
X331796Y274257*
X331721Y274066*
X331675Y273865*
X331659Y273659*
G37*
X332494Y374937D02*
Y371187D01*
X335619*
X337494D02*
Y374937D01*
X340619*
X339994Y373063D02*
X337494D01*
Y371187D02*
X340619D01*
X342494D02*
Y374937D01*
X344369*
X344994Y374625*
X345307Y374313*
X345619Y373687*
Y372437*
X345307Y371813*
X344994Y371500*
X344369Y371187*
X342494*
X347807Y371500D02*
X348431Y371187D01*
X349057*
X349681Y371500*
X349994Y372125*
X349681Y372750*
X349057Y373063*
X348431*
X349057D02*
X349681Y373375D01*
X349994Y374000*
X349681Y374625*
X349057Y374937*
X348431*
X347807Y374625*
X335619Y365813D02*
X335307Y365500D01*
X334681Y365187*
X333744*
X333119Y365500*
X332807Y365813*
X332494Y366437*
Y367687*
X332807Y368313*
X333119Y368625*
X333744Y368937*
X334681*
X335307Y368625*
X335619Y368313*
X337494Y368937D02*
Y365187D01*
X340619*
X342494D02*
Y368937D01*
X344057Y367063*
X345619Y368937*
Y365187*
X347807Y365500D02*
X348431Y365187D01*
X349057*
X349681Y365500*
X349994Y366125*
X349681Y366750*
X349057Y367063*
X348431*
X349057D02*
X349681Y367375D01*
X349994Y368000*
X349681Y368625*
X349057Y368937*
X348431*
X347807Y368625*
X352494Y365187D02*
X354057Y368937D01*
X355619Y365187*
X353119Y366750D02*
X354994D01*
X357494Y366437D02*
X359994D01*
X362494Y365187D02*
Y368937D01*
X364057Y367063*
X365619Y368937*
Y365187*
X367494D02*
Y368937D01*
Y367063D02*
X368431D01*
X370619Y368937*
X368431Y367063D02*
X370619Y365187D01*
X372494Y368937D02*
X372807Y365187D01*
X374057Y367063*
X375307Y365187*
X375619Y368937*
X377494Y366437D02*
X379994D01*
X385619Y365813D02*
X385307Y365500D01*
X384681Y365187*
X383744*
X383119Y365500*
X382807Y365813*
X382494Y366437*
Y367687*
X382807Y368313*
X383119Y368625*
X383744Y368937*
X384681*
X385307Y368625*
X385619Y368313*
X387494Y368937D02*
X389057Y365187D01*
X390619Y368937*
X394681Y367063D02*
X395307Y366750D01*
X395619Y366125*
X395307Y365500*
X394681Y365187*
X392494*
Y368937*
X394681*
X395307Y368625*
X395619Y368000*
X395307Y367375*
X394681Y367063*
X392494*
X397494Y365187D02*
X400619Y368937D01*
X397494D02*
X400619Y365187D01*
X402494D02*
X404057Y368937D01*
X405619Y365187*
X403119Y366750D02*
X404994D01*
X407494Y365500D02*
X408119Y365187D01*
X409057*
X409681Y365500*
X409994Y366125*
Y366437*
X409681Y367063*
X409057Y367375*
X407494*
Y368937*
X409994*
X413119Y365187D02*
X414369D01*
X413744D02*
Y368937D01*
X413119Y368313*
X417807Y365500D02*
X418431Y365187D01*
X419057*
X419681Y365500*
X419994Y366125*
X419681Y366750*
X419057Y367063*
X418431*
X419057D02*
X419681Y367375D01*
X419994Y368000*
X419681Y368625*
X419057Y368937*
X418431*
X417807Y368625*
X333474Y238325D02*
X338900D01*
Y242175*
X333474*
Y238325*
X334598Y238614D02*
X334613Y238525D01*
X334654Y238444*
X334718Y238380*
X334798Y238339*
X334888Y238325*
X334977Y238339*
X335058Y238380*
X335122Y238444*
X335163Y238525*
X335177Y238614*
X335163Y238704*
X335122Y238784*
X335058Y238848*
X334977Y238889*
X334888Y238904*
X334798Y238889*
X334718Y238848*
X334654Y238784*
X334613Y238704*
X334598Y238614*
G36*
X334613Y238525*
X334654Y238444*
X334718Y238380*
X334798Y238339*
X334888Y238325*
X334977Y238339*
X335058Y238380*
X335122Y238444*
X335163Y238525*
X335177Y238614*
X335163Y238704*
X335122Y238784*
X335058Y238848*
X334977Y238889*
X334888Y238904*
X334798Y238889*
X334718Y238848*
X334654Y238784*
X334613Y238704*
X334598Y238614*
G37*
X337600Y46400D02*
X342900D01*
Y34100*
X337600*
Y46400*
Y71400D02*
X342900D01*
Y59100*
X337600*
Y71400*
Y91400D02*
X342900D01*
Y79100*
X337600*
Y91400*
Y111400D02*
X342900D01*
Y99100*
X337600*
Y111400*
Y151400D02*
X342900D01*
Y139100*
X337600*
Y151400*
Y171400D02*
X342900D01*
Y159100*
X337600*
Y171400*
Y191400D02*
X342900D01*
Y179100*
X337600*
Y191400*
Y211400D02*
X342900D01*
Y199100*
X337600*
Y211400*
X344797Y115860D02*
Y134640D01*
X335703*
Y115860*
X344797*
X348375Y36813D02*
X348063Y36500D01*
X347437Y36187*
X346500*
X345875Y36500*
X345563Y36813*
X345250Y37437*
Y38687*
X345563Y39313*
X345875Y39625*
X346500Y39937*
X347437*
X348063Y39625*
X348375Y39313*
X350875Y36187D02*
X352125D01*
X351500D02*
Y39937D01*
X350875Y39313*
X355563Y36500D02*
X356187Y36187D01*
X356813*
X357437Y36500*
X357750Y37125*
Y39000*
X357437Y39625*
X356813Y39937*
X356187*
X355563Y39625*
X355250Y39000*
Y37125*
X355563Y36500*
X357437Y39625*
X345250Y33937D02*
X346813Y30187D01*
X348375Y33937*
X350250Y30813D02*
X350563Y30500D01*
X351187Y30187*
X351813Y30500*
X352125Y30813*
Y33937*
X352750*
X352125D02*
X350875D01*
X355563Y30500D02*
X356187Y30187D01*
X356813*
X357437Y30500*
X357750Y31125*
Y33000*
X357437Y33625*
X356813Y33937*
X356187*
X355563Y33625*
X355250Y33000*
Y31125*
X355563Y30500*
X357437Y33625*
X360250Y31125D02*
X360563Y31750D01*
X361187Y32063*
X361813*
X362437Y31750*
X362750Y31125*
X362437Y30500*
X361813Y30187*
X361187*
X360563Y30500*
X360250Y31125*
Y32063*
X360563Y33000*
X361187Y33625*
X361813Y33937*
X365563Y30500D02*
X366187Y30187D01*
X366813*
X367437Y30500*
X367750Y31125*
Y33000*
X367437Y33625*
X366813Y33937*
X366187*
X365563Y33625*
X365250Y33000*
Y31125*
X365563Y30500*
X367437Y33625*
X370563Y30500D02*
X371187Y30187D01*
X371813*
X372437Y30500*
X372750Y31125*
X372437Y31750*
X371813Y32063*
X371187*
X371813D02*
X372437Y32375D01*
X372750Y33000*
X372437Y33625*
X371813Y33937*
X371187*
X370563Y33625*
X375250Y30187D02*
X376813Y33937D01*
X378375Y30187*
X375875Y31750D02*
X377750D01*
X380563Y30500D02*
X381187Y30187D01*
X381813*
X382437Y30500*
X382750Y31125*
X382437Y31750*
X381813Y32063*
X381187*
X381813D02*
X382437Y32375D01*
X382750Y33000*
X382437Y33625*
X381813Y33937*
X381187*
X380563Y33625*
X385563Y30500D02*
X386187Y30187D01*
X386813*
X387437Y30500*
X387750Y31125*
X387437Y31750*
X386813Y32063*
X386187*
X386813D02*
X387437Y32375D01*
X387750Y33000*
X387437Y33625*
X386813Y33937*
X386187*
X385563Y33625*
X390563Y30500D02*
X391187Y30187D01*
X391813*
X392437Y30500*
X392750Y31125*
Y33000*
X392437Y33625*
X391813Y33937*
X391187*
X390563Y33625*
X390250Y33000*
Y31125*
X390563Y30500*
X392437Y33625*
X395250Y30813D02*
X395563Y30500D01*
X396187Y30187*
X396813Y30500*
X397125Y30813*
Y33937*
X397750*
X397125D02*
X395875D01*
X400250Y30187D02*
X403375Y33937D01*
X400250D02*
X403375Y30187D01*
X405250Y31437D02*
Y32687D01*
X405563Y33313*
X405875Y33625*
X406500Y33937*
X407125*
X407750Y33625*
X408063Y33313*
X408375Y32687*
Y31437*
X408063Y30813*
X407750Y30500*
X407125Y30187*
X406500*
X405875Y30500*
X405563Y30813*
X405250Y31437*
X407437Y31125D02*
X408375Y30187D01*
X413375Y30813D02*
X413063Y30500D01*
X412437Y30187*
X411500*
X410875Y30500*
X410563Y30813*
X410250Y31437*
Y32687*
X410563Y33313*
X410875Y33625*
X411500Y33937*
X412437*
X413063Y33625*
X413375Y33313*
X415250Y33937D02*
X415563Y30187D01*
X416813Y32063*
X418063Y30187*
X418375Y33937*
X420875Y30187D02*
X422125D01*
X421500D02*
Y33937D01*
X420875Y33313*
X427437Y32063D02*
X428063Y31750D01*
X428375Y31125*
X428063Y30500*
X427437Y30187*
X425250*
Y33937*
X427437*
X428063Y33625*
X428375Y33000*
X428063Y32375*
X427437Y32063*
X425250*
X433375Y30813D02*
X433063Y30500D01*
X432437Y30187*
X431500*
X430875Y30500*
X430563Y30813*
X430250Y31437*
Y32687*
X430563Y33313*
X430875Y33625*
X431500Y33937*
X432437*
X433063Y33625*
X433375Y33313*
X348375Y61813D02*
X348063Y61500D01*
X347437Y61187*
X346500*
X345875Y61500*
X345563Y61813*
X345250Y62437*
Y63687*
X345563Y64313*
X345875Y64625*
X346500Y64937*
X347437*
X348063Y64625*
X348375Y64313*
X351187Y63063D02*
X351813D01*
X352437Y63375*
X352750Y64000*
X352437Y64625*
X351813Y64937*
X351187*
X350563Y64625*
X350250Y64000*
X350563Y63375*
X351187Y63063*
X350563Y62750*
X350250Y62125*
X350563Y61500*
X351187Y61187*
X351813*
X352437Y61500*
X352750Y62125*
X352437Y62750*
X351813Y63063*
X347437Y56750D02*
X348375D01*
Y56437*
X348063Y55813*
X347750Y55500*
X347125Y55187*
X346500*
X345875Y55500*
X345563Y55813*
X345250Y56437*
Y57687*
X345563Y58313*
X345875Y58625*
X346500Y58937*
X347125*
X347750Y58625*
X348063Y58313*
X348375Y57687*
X350250Y55187D02*
Y58937D01*
X352437*
X353063Y58625*
X353375Y58000*
X353063Y57375*
X352437Y57063*
X350250*
X352437D02*
X353375Y55187D01*
X355250D02*
Y58937D01*
X356813Y57063*
X358375Y58937*
Y55187*
X360875D02*
X362125D01*
X361500D02*
Y58937D01*
X360875Y58313*
X366187Y57063D02*
X366813D01*
X367437Y57375*
X367750Y58000*
X367437Y58625*
X366813Y58937*
X366187*
X365563Y58625*
X365250Y58000*
X365563Y57375*
X366187Y57063*
X365563Y56750*
X365250Y56125*
X365563Y55500*
X366187Y55187*
X366813*
X367437Y55500*
X367750Y56125*
X367437Y56750*
X366813Y57063*
X371187D02*
X371813D01*
X372437Y57375*
X372750Y58000*
X372437Y58625*
X371813Y58937*
X371187*
X370563Y58625*
X370250Y58000*
X370563Y57375*
X371187Y57063*
X370563Y56750*
X370250Y56125*
X370563Y55500*
X371187Y55187*
X371813*
X372437Y55500*
X372750Y56125*
X372437Y56750*
X371813Y57063*
X375250Y55187D02*
Y58937D01*
X377437*
X378063Y58625*
X378375Y58000*
X378063Y57375*
X377437Y57063*
X375250*
X377437D02*
X378375Y55187D01*
X380250D02*
X382750Y58937D01*
X380250*
X385563Y55500D02*
X386187Y55187D01*
X386813*
X387437Y55500*
X387750Y56125*
Y58000*
X387437Y58625*
X386813Y58937*
X386187*
X385563Y58625*
X385250Y58000*
Y56125*
X385563Y55500*
X387437Y58625*
X390250Y55813D02*
X390563Y55500D01*
X391187Y55187*
X391813Y55500*
X392125Y55813*
Y58937*
X392750*
X392125D02*
X390875D01*
X395875Y55187D02*
X397125D01*
X396500D02*
Y58937D01*
X395875Y58313*
X400563Y55500D02*
X401187Y55187D01*
X401813*
X402437Y55500*
X402750Y56125*
Y58000*
X402437Y58625*
X401813Y58937*
X401187*
X400563Y58625*
X400250Y58000*
Y56125*
X400563Y55500*
X402437Y58625*
X406813Y55187D02*
Y58937D01*
X405250Y56437*
X407750*
X410250Y55187D02*
Y58937D01*
Y57063D02*
X411187D01*
X413375Y58937*
X411187Y57063D02*
X413375Y55187D01*
X415250D02*
X416813Y58937D01*
X418375Y55187*
X415875Y56750D02*
X417750D01*
X420563Y55500D02*
X421187Y55187D01*
X421813*
X422437Y55500*
X422750Y56125*
Y58000*
X422437Y58625*
X421813Y58937*
X421187*
X420563Y58625*
X420250Y58000*
Y56125*
X420563Y55500*
X422437Y58625*
X425875Y55187D02*
X427125D01*
X426500D02*
Y58937D01*
X425875Y58313*
X430250Y55187D02*
Y58937D01*
X432125*
X432750Y58625*
X433063Y58313*
X433375Y57687*
Y56437*
X433063Y55813*
X432750Y55500*
X432125Y55187*
X430250*
X348375Y81813D02*
X348063Y81500D01*
X347437Y81187*
X346500*
X345875Y81500*
X345563Y81813*
X345250Y82437*
Y83687*
X345563Y84313*
X345875Y84625*
X346500Y84937*
X347437*
X348063Y84625*
X348375Y84313*
X350250Y81187D02*
X352750Y84937D01*
X350250*
X347437Y76750D02*
X348375D01*
Y76437*
X348063Y75813*
X347750Y75500*
X347125Y75187*
X346500*
X345875Y75500*
X345563Y75813*
X345250Y76437*
Y77687*
X345563Y78313*
X345875Y78625*
X346500Y78937*
X347125*
X347750Y78625*
X348063Y78313*
X348375Y77687*
X350250Y75187D02*
Y78937D01*
X352437*
X353063Y78625*
X353375Y78000*
X353063Y77375*
X352437Y77063*
X350250*
X352437D02*
X353375Y75187D01*
X355250D02*
Y78937D01*
X356813Y77063*
X358375Y78937*
Y75187*
X360875D02*
X362125D01*
X361500D02*
Y78937D01*
X360875Y78313*
X366187Y77063D02*
X366813D01*
X367437Y77375*
X367750Y78000*
X367437Y78625*
X366813Y78937*
X366187*
X365563Y78625*
X365250Y78000*
X365563Y77375*
X366187Y77063*
X365563Y76750*
X365250Y76125*
X365563Y75500*
X366187Y75187*
X366813*
X367437Y75500*
X367750Y76125*
X367437Y76750*
X366813Y77063*
X371187D02*
X371813D01*
X372437Y77375*
X372750Y78000*
X372437Y78625*
X371813Y78937*
X371187*
X370563Y78625*
X370250Y78000*
X370563Y77375*
X371187Y77063*
X370563Y76750*
X370250Y76125*
X370563Y75500*
X371187Y75187*
X371813*
X372437Y75500*
X372750Y76125*
X372437Y76750*
X371813Y77063*
X375250Y75187D02*
Y78937D01*
X377437*
X378063Y78625*
X378375Y78000*
X378063Y77375*
X377437Y77063*
X375250*
X377437D02*
X378375Y75187D01*
X380250Y76125D02*
X380563Y76750D01*
X381187Y77063*
X381813*
X382437Y76750*
X382750Y76125*
X382437Y75500*
X381813Y75187*
X381187*
X380563Y75500*
X380250Y76125*
Y77063*
X380563Y78000*
X381187Y78625*
X381813Y78937*
X385875Y75187D02*
X387125D01*
X386500D02*
Y78937D01*
X385875Y78313*
X393375Y75813D02*
X393063Y75500D01*
X392437Y75187*
X391500*
X390875Y75500*
X390563Y75813*
X390250Y76437*
Y77687*
X390563Y78313*
X390875Y78625*
X391500Y78937*
X392437*
X393063Y78625*
X393375Y78313*
X395875Y75187D02*
X397125D01*
X396500D02*
Y78937D01*
X395875Y78313*
X400563Y75500D02*
X401187Y75187D01*
X401813*
X402437Y75500*
X402750Y76125*
Y78000*
X402437Y78625*
X401813Y78937*
X401187*
X400563Y78625*
X400250Y78000*
Y76125*
X400563Y75500*
X402437Y78625*
X405250Y76125D02*
X405563Y76750D01*
X406187Y77063*
X406813*
X407437Y76750*
X407750Y76125*
X407437Y75500*
X406813Y75187*
X406187*
X405563Y75500*
X405250Y76125*
Y77063*
X405563Y78000*
X406187Y78625*
X406813Y78937*
X410250Y75187D02*
Y78937D01*
X411813Y77063*
X413375Y78937*
Y75187*
X415250D02*
X416813Y78937D01*
X418375Y75187*
X415875Y76750D02*
X417750D01*
X420250Y75187D02*
X421813Y78937D01*
X423375Y75187*
X420875Y76750D02*
X422750D01*
X425250Y78937D02*
Y75187D01*
X428375*
X430250D02*
Y78937D01*
X432125*
X432750Y78625*
X433063Y78313*
X433375Y77687*
Y76437*
X433063Y75813*
X432750Y75500*
X432125Y75187*
X430250*
X348375Y101813D02*
X348063Y101500D01*
X347437Y101187*
X346500*
X345875Y101500*
X345563Y101813*
X345250Y102437*
Y103687*
X345563Y104313*
X345875Y104625*
X346500Y104937*
X347437*
X348063Y104625*
X348375Y104313*
X350250Y102125D02*
X350563Y102750D01*
X351187Y103063*
X351813*
X352437Y102750*
X352750Y102125*
X352437Y101500*
X351813Y101187*
X351187*
X350563Y101500*
X350250Y102125*
Y103063*
X350563Y104000*
X351187Y104625*
X351813Y104937*
X347437Y96750D02*
X348375D01*
Y96437*
X348063Y95813*
X347750Y95500*
X347125Y95187*
X346500*
X345875Y95500*
X345563Y95813*
X345250Y96437*
Y97687*
X345563Y98313*
X345875Y98625*
X346500Y98937*
X347125*
X347750Y98625*
X348063Y98313*
X348375Y97687*
X350250Y95187D02*
Y98937D01*
X352437*
X353063Y98625*
X353375Y98000*
X353063Y97375*
X352437Y97063*
X350250*
X352437D02*
X353375Y95187D01*
X355250D02*
Y98937D01*
X356813Y97063*
X358375Y98937*
Y95187*
X360875D02*
X362125D01*
X361500D02*
Y98937D01*
X360875Y98313*
X366187Y97063D02*
X366813D01*
X367437Y97375*
X367750Y98000*
X367437Y98625*
X366813Y98937*
X366187*
X365563Y98625*
X365250Y98000*
X365563Y97375*
X366187Y97063*
X365563Y96750*
X365250Y96125*
X365563Y95500*
X366187Y95187*
X366813*
X367437Y95500*
X367750Y96125*
X367437Y96750*
X366813Y97063*
X371187D02*
X371813D01*
X372437Y97375*
X372750Y98000*
X372437Y98625*
X371813Y98937*
X371187*
X370563Y98625*
X370250Y98000*
X370563Y97375*
X371187Y97063*
X370563Y96750*
X370250Y96125*
X370563Y95500*
X371187Y95187*
X371813*
X372437Y95500*
X372750Y96125*
X372437Y96750*
X371813Y97063*
X375250Y95187D02*
Y98937D01*
X377437*
X378063Y98625*
X378375Y98000*
X378063Y97375*
X377437Y97063*
X375250*
X377437D02*
X378375Y95187D01*
X380250Y96125D02*
X380563Y96750D01*
X381187Y97063*
X381813*
X382437Y96750*
X382750Y96125*
X382437Y95500*
X381813Y95187*
X381187*
X380563Y95500*
X380250Y96125*
Y97063*
X380563Y98000*
X381187Y98625*
X381813Y98937*
X385563Y95500D02*
X386187Y95187D01*
X386813*
X387437Y95500*
X387750Y96125*
Y98000*
X387437Y98625*
X386813Y98937*
X386187*
X385563Y98625*
X385250Y98000*
Y96125*
X385563Y95500*
X387437Y98625*
X390250Y95813D02*
X390563Y95500D01*
X391187Y95187*
X391813Y95500*
X392125Y95813*
Y98937*
X392750*
X392125D02*
X390875D01*
X395875Y95187D02*
X397125D01*
X396500D02*
Y98937D01*
X395875Y98313*
X400563Y95500D02*
X401187Y95187D01*
X401813*
X402437Y95500*
X402750Y96125*
Y98000*
X402437Y98625*
X401813Y98937*
X401187*
X400563Y98625*
X400250Y98000*
Y96125*
X400563Y95500*
X402437Y98625*
X405250Y95500D02*
X405875Y95187D01*
X406813*
X407437Y95500*
X407750Y96125*
Y96437*
X407437Y97063*
X406813Y97375*
X405250*
Y98937*
X407750*
X410250Y95187D02*
Y98937D01*
Y97063D02*
X411187D01*
X413375Y98937*
X411187Y97063D02*
X413375Y95187D01*
X415250D02*
X416813Y98937D01*
X418375Y95187*
X415875Y96750D02*
X417750D01*
X420563Y95500D02*
X421187Y95187D01*
X421813*
X422437Y95500*
X422750Y96125*
Y98000*
X422437Y98625*
X421813Y98937*
X421187*
X420563Y98625*
X420250Y98000*
Y96125*
X420563Y95500*
X422437Y98625*
X425875Y95187D02*
X427125D01*
X426500D02*
Y98937D01*
X425875Y98313*
X430250Y95187D02*
Y98937D01*
X432125*
X432750Y98625*
X433063Y98313*
X433375Y97687*
Y96437*
X433063Y95813*
X432750Y95500*
X432125Y95187*
X430250*
X348375Y121813D02*
X348063Y121500D01*
X347437Y121187*
X346500*
X345875Y121500*
X345563Y121813*
X345250Y122437*
Y123687*
X345563Y124313*
X345875Y124625*
X346500Y124937*
X347437*
X348063Y124625*
X348375Y124313*
X350250Y121500D02*
X350875Y121187D01*
X351813*
X352437Y121500*
X352750Y122125*
Y122437*
X352437Y123063*
X351813Y123375*
X350250*
Y124937*
X352750*
X347437Y116750D02*
X348375D01*
Y116437*
X348063Y115813*
X347750Y115500*
X347125Y115187*
X346500*
X345875Y115500*
X345563Y115813*
X345250Y116437*
Y117687*
X345563Y118313*
X345875Y118625*
X346500Y118937*
X347125*
X347750Y118625*
X348063Y118313*
X348375Y117687*
X350250Y115187D02*
Y118937D01*
X352437*
X353063Y118625*
X353375Y118000*
X353063Y117375*
X352437Y117063*
X350250*
X352437D02*
X353375Y115187D01*
X355250D02*
Y118937D01*
X356813Y117063*
X358375Y118937*
Y115187*
X360563Y115500D02*
X361187Y115187D01*
X361813*
X362437Y115500*
X362750Y116125*
X362437Y116750*
X361813Y117063*
X361187*
X361813D02*
X362437Y117375D01*
X362750Y118000*
X362437Y118625*
X361813Y118937*
X361187*
X360563Y118625*
X365875Y115187D02*
X367125D01*
X366500D02*
Y118937D01*
X365875Y118313*
X373375Y115813D02*
X373063Y115500D01*
X372437Y115187*
X371500*
X370875Y115500*
X370563Y115813*
X370250Y116437*
Y117687*
X370563Y118313*
X370875Y118625*
X371500Y118937*
X372437*
X373063Y118625*
X373375Y118313*
X375250Y115187D02*
Y118937D01*
X377125*
X377750Y118625*
X378063Y118313*
X378375Y117687*
Y116437*
X378063Y115813*
X377750Y115500*
X377125Y115187*
X375250*
X381187Y117063D02*
X381813D01*
X382437Y117375*
X382750Y118000*
X382437Y118625*
X381813Y118937*
X381187*
X380563Y118625*
X380250Y118000*
X380563Y117375*
X381187Y117063*
X380563Y116750*
X380250Y116125*
X380563Y115500*
X381187Y115187*
X381813*
X382437Y115500*
X382750Y116125*
X382437Y116750*
X381813Y117063*
X385563Y115500D02*
X386187Y115187D01*
X386813*
X387437Y115500*
X387750Y116125*
Y118000*
X387437Y118625*
X386813Y118937*
X386187*
X385563Y118625*
X385250Y118000*
Y116125*
X385563Y115500*
X387437Y118625*
X390250Y115813D02*
X390563Y115500D01*
X391187Y115187*
X391813Y115500*
X392125Y115813*
Y118937*
X392750*
X392125D02*
X390875D01*
X395875Y115187D02*
X397125D01*
X396500D02*
Y118937D01*
X395875Y118313*
X400563Y115500D02*
X401187Y115187D01*
X401813*
X402437Y115500*
X402750Y116125*
Y118000*
X402437Y118625*
X401813Y118937*
X401187*
X400563Y118625*
X400250Y118000*
Y116125*
X400563Y115500*
X402437Y118625*
X405250Y115187D02*
X407750Y118937D01*
X405250*
X410250Y115187D02*
Y118937D01*
X411813Y117063*
X413375Y118937*
Y115187*
X415250D02*
Y118937D01*
X418375*
X417750Y117063D02*
X415250D01*
Y115187D02*
X418375D01*
X420563Y115500D02*
X421187Y115187D01*
X421813*
X422437Y115500*
X422750Y116125*
X422437Y116750*
X421813Y117063*
X421187*
X421813D02*
X422437Y117375D01*
X422750Y118000*
X422437Y118625*
X421813Y118937*
X421187*
X420563Y118625*
X426187Y115187D02*
X426813Y115500D01*
X427437Y116125*
X427750Y117063*
Y118000*
X427437Y118625*
X426813Y118937*
X426187*
X425563Y118625*
X425250Y118000*
X425563Y117375*
X426187Y117063*
X426813*
X427437Y117375*
X427750Y118000*
X430250Y118937D02*
Y115187D01*
X433375*
X348375Y141813D02*
X348063Y141500D01*
X347437Y141187*
X346500*
X345875Y141500*
X345563Y141813*
X345250Y142437*
Y143687*
X345563Y144313*
X345875Y144625*
X346500Y144937*
X347437*
X348063Y144625*
X348375Y144313*
X351813Y141187D02*
Y144937D01*
X350250Y142437*
X352750*
X347437Y136750D02*
X348375D01*
Y136437*
X348063Y135813*
X347750Y135500*
X347125Y135187*
X346500*
X345875Y135500*
X345563Y135813*
X345250Y136437*
Y137687*
X345563Y138313*
X345875Y138625*
X346500Y138937*
X347125*
X347750Y138625*
X348063Y138313*
X348375Y137687*
X350250Y136437D02*
Y137687D01*
X350563Y138313*
X350875Y138625*
X351500Y138937*
X352125*
X352750Y138625*
X353063Y138313*
X353375Y137687*
Y136437*
X353063Y135813*
X352750Y135500*
X352125Y135187*
X351500*
X350875Y135500*
X350563Y135813*
X350250Y136437*
X352437Y136125D02*
X353375Y135187D01*
X355250D02*
Y138937D01*
X356813Y137063*
X358375Y138937*
Y135187*
X360875D02*
X362125D01*
X361500D02*
Y138937D01*
X360875Y138313*
X366187Y137063D02*
X366813D01*
X367437Y137375*
X367750Y138000*
X367437Y138625*
X366813Y138937*
X366187*
X365563Y138625*
X365250Y138000*
X365563Y137375*
X366187Y137063*
X365563Y136750*
X365250Y136125*
X365563Y135500*
X366187Y135187*
X366813*
X367437Y135500*
X367750Y136125*
X367437Y136750*
X366813Y137063*
X371187D02*
X371813D01*
X372437Y137375*
X372750Y138000*
X372437Y138625*
X371813Y138937*
X371187*
X370563Y138625*
X370250Y138000*
X370563Y137375*
X371187Y137063*
X370563Y136750*
X370250Y136125*
X370563Y135500*
X371187Y135187*
X371813*
X372437Y135500*
X372750Y136125*
X372437Y136750*
X371813Y137063*
X375250Y135500D02*
X375875Y135187D01*
X376813*
X377437Y135500*
X377750Y136125*
Y136437*
X377437Y137063*
X376813Y137375*
X375250*
Y138937*
X377750*
X383375Y135813D02*
X383063Y135500D01*
X382437Y135187*
X381500*
X380875Y135500*
X380563Y135813*
X380250Y136437*
Y137687*
X380563Y138313*
X380875Y138625*
X381500Y138937*
X382437*
X383063Y138625*
X383375Y138313*
X385875Y135187D02*
X387125D01*
X386500D02*
Y138937D01*
X385875Y138313*
X390250Y135187D02*
Y138937D01*
Y137063D02*
X393375D01*
Y135187D02*
Y138937D01*
X396187Y135187D02*
X396813Y135500D01*
X397437Y136125*
X397750Y137063*
Y138000*
X397437Y138625*
X396813Y138937*
X396187*
X395563Y138625*
X395250Y138000*
X395563Y137375*
X396187Y137063*
X396813*
X397437Y137375*
X397750Y138000*
X400250Y135187D02*
Y138937D01*
X402437*
X403063Y138625*
X403375Y138000*
X403063Y137375*
X402437Y137063*
X400250*
X402437D02*
X403375Y135187D01*
X405563Y135500D02*
X406187Y135187D01*
X406813*
X407437Y135500*
X407750Y136125*
Y138000*
X407437Y138625*
X406813Y138937*
X406187*
X405563Y138625*
X405250Y138000*
Y136125*
X405563Y135500*
X407437Y138625*
X413375Y135813D02*
X413063Y135500D01*
X412437Y135187*
X411500*
X410875Y135500*
X410563Y135813*
X410250Y136437*
Y137687*
X410563Y138313*
X410875Y138625*
X411500Y138937*
X412437*
X413063Y138625*
X413375Y138313*
X417437Y137063D02*
X418063Y136750D01*
X418375Y136125*
X418063Y135500*
X417437Y135187*
X415250*
Y138937*
X417437*
X418063Y138625*
X418375Y138000*
X418063Y137375*
X417437Y137063*
X415250*
X420563Y135500D02*
X421187Y135187D01*
X421813*
X422437Y135500*
X422750Y136125*
Y138000*
X422437Y138625*
X421813Y138937*
X421187*
X420563Y138625*
X420250Y138000*
Y136125*
X420563Y135500*
X422437Y138625*
X425875Y135187D02*
X427125D01*
X426500D02*
Y138937D01*
X425875Y138313*
X430250Y135187D02*
Y138937D01*
X432125*
X432750Y138625*
X433063Y138313*
X433375Y137687*
Y136437*
X433063Y135813*
X432750Y135500*
X432125Y135187*
X430250*
X348375Y161813D02*
X348063Y161500D01*
X347437Y161187*
X346500*
X345875Y161500*
X345563Y161813*
X345250Y162437*
Y163687*
X345563Y164313*
X345875Y164625*
X346500Y164937*
X347437*
X348063Y164625*
X348375Y164313*
X350563Y161500D02*
X351187Y161187D01*
X351813*
X352437Y161500*
X352750Y162125*
X352437Y162750*
X351813Y163063*
X351187*
X351813D02*
X352437Y163375D01*
X352750Y164000*
X352437Y164625*
X351813Y164937*
X351187*
X350563Y164625*
X348375Y181813D02*
X348063Y181500D01*
X347437Y181187*
X346500*
X345875Y181500*
X345563Y181813*
X345250Y182437*
Y183687*
X345563Y184313*
X345875Y184625*
X346500Y184937*
X347437*
X348063Y184625*
X348375Y184313*
X352750Y181187D02*
X350250D01*
X352437Y183375*
X352750Y184000*
X352437Y184625*
X351813Y184937*
X350875*
X350250Y184625*
X346187Y177063D02*
X346813D01*
X347437Y177375*
X347750Y178000*
X347437Y178625*
X346813Y178937*
X346187*
X345563Y178625*
X345250Y178000*
X345563Y177375*
X346187Y177063*
X345563Y176750*
X345250Y176125*
X345563Y175500*
X346187Y175187*
X346813*
X347437Y175500*
X347750Y176125*
X347437Y176750*
X346813Y177063*
X351187D02*
X351813D01*
X352437Y177375*
X352750Y178000*
X352437Y178625*
X351813Y178937*
X351187*
X350563Y178625*
X350250Y178000*
X350563Y177375*
X351187Y177063*
X350563Y176750*
X350250Y176125*
X350563Y175500*
X351187Y175187*
X351813*
X352437Y175500*
X352750Y176125*
X352437Y176750*
X351813Y177063*
X355250Y175500D02*
X355875Y175187D01*
X356813*
X357437Y175500*
X357750Y176125*
Y176437*
X357437Y177063*
X356813Y177375*
X355250*
Y178937*
X357750*
X360563Y175500D02*
X361187Y175187D01*
X361813*
X362437Y175500*
X362750Y176125*
Y178000*
X362437Y178625*
X361813Y178937*
X361187*
X360563Y178625*
X360250Y178000*
Y176125*
X360563Y175500*
X362437Y178625*
X365875Y175187D02*
X367125D01*
X366500D02*
Y178937D01*
X365875Y178313*
X372750Y175187D02*
X370250D01*
X372437Y177375*
X372750Y178000*
X372437Y178625*
X371813Y178937*
X370875*
X370250Y178625*
X375875Y175187D02*
X377125D01*
X376500D02*
Y178937D01*
X375875Y178313*
X380563Y175500D02*
X381187Y175187D01*
X381813*
X382437Y175500*
X382750Y176125*
Y178000*
X382437Y178625*
X381813Y178937*
X381187*
X380563Y178625*
X380250Y178000*
Y176125*
X380563Y175500*
X382437Y178625*
X385250Y176125D02*
X385563Y176750D01*
X386187Y177063*
X386813*
X387437Y176750*
X387750Y176125*
X387437Y175500*
X386813Y175187*
X386187*
X385563Y175500*
X385250Y176125*
Y177063*
X385563Y178000*
X386187Y178625*
X386813Y178937*
X390563Y175500D02*
X391187Y175187D01*
X391813*
X392437Y175500*
X392750Y176125*
Y178000*
X392437Y178625*
X391813Y178937*
X391187*
X390563Y178625*
X390250Y178000*
Y176125*
X390563Y175500*
X392437Y178625*
X395563Y175500D02*
X396187Y175187D01*
X396813*
X397437Y175500*
X397750Y176125*
Y178000*
X397437Y178625*
X396813Y178937*
X396187*
X395563Y178625*
X395250Y178000*
Y176125*
X395563Y175500*
X397437Y178625*
X400563Y175500D02*
X401187Y175187D01*
X401813*
X402437Y175500*
X402750Y176125*
X402437Y176750*
X401813Y177063*
X401187*
X401813D02*
X402437Y177375D01*
X402750Y178000*
X402437Y178625*
X401813Y178937*
X401187*
X400563Y178625*
X348375Y201813D02*
X348063Y201500D01*
X347437Y201187*
X346500*
X345875Y201500*
X345563Y201813*
X345250Y202437*
Y203687*
X345563Y204313*
X345875Y204625*
X346500Y204937*
X347437*
X348063Y204625*
X348375Y204313*
X350875Y201187D02*
X352125D01*
X351500D02*
Y204937D01*
X350875Y204313*
X346187Y197063D02*
X346813D01*
X347437Y197375*
X347750Y198000*
X347437Y198625*
X346813Y198937*
X346187*
X345563Y198625*
X345250Y198000*
X345563Y197375*
X346187Y197063*
X345563Y196750*
X345250Y196125*
X345563Y195500*
X346187Y195187*
X346813*
X347437Y195500*
X347750Y196125*
X347437Y196750*
X346813Y197063*
X351187D02*
X351813D01*
X352437Y197375*
X352750Y198000*
X352437Y198625*
X351813Y198937*
X351187*
X350563Y198625*
X350250Y198000*
X350563Y197375*
X351187Y197063*
X350563Y196750*
X350250Y196125*
X350563Y195500*
X351187Y195187*
X351813*
X352437Y195500*
X352750Y196125*
X352437Y196750*
X351813Y197063*
X355250Y195500D02*
X355875Y195187D01*
X356813*
X357437Y195500*
X357750Y196125*
Y196437*
X357437Y197063*
X356813Y197375*
X355250*
Y198937*
X357750*
X360563Y195500D02*
X361187Y195187D01*
X361813*
X362437Y195500*
X362750Y196125*
Y198000*
X362437Y198625*
X361813Y198937*
X361187*
X360563Y198625*
X360250Y198000*
Y196125*
X360563Y195500*
X362437Y198625*
X365875Y195187D02*
X367125D01*
X366500D02*
Y198937D01*
X365875Y198313*
X372750Y195187D02*
X370250D01*
X372437Y197375*
X372750Y198000*
X372437Y198625*
X371813Y198937*
X370875*
X370250Y198625*
X375563Y195500D02*
X376187Y195187D01*
X376813*
X377437Y195500*
X377750Y196125*
Y198000*
X377437Y198625*
X376813Y198937*
X376187*
X375563Y198625*
X375250Y198000*
Y196125*
X375563Y195500*
X377437Y198625*
X380563Y195500D02*
X381187Y195187D01*
X381813*
X382437Y195500*
X382750Y196125*
Y198000*
X382437Y198625*
X381813Y198937*
X381187*
X380563Y198625*
X380250Y198000*
Y196125*
X380563Y195500*
X382437Y198625*
X385250Y196125D02*
X385563Y196750D01*
X386187Y197063*
X386813*
X387437Y196750*
X387750Y196125*
X387437Y195500*
X386813Y195187*
X386187*
X385563Y195500*
X385250Y196125*
Y197063*
X385563Y198000*
X386187Y198625*
X386813Y198937*
X390563Y195500D02*
X391187Y195187D01*
X391813*
X392437Y195500*
X392750Y196125*
Y198000*
X392437Y198625*
X391813Y198937*
X391187*
X390563Y198625*
X390250Y198000*
Y196125*
X390563Y195500*
X392437Y198625*
X395563Y195500D02*
X396187Y195187D01*
X396813*
X397437Y195500*
X397750Y196125*
Y198000*
X397437Y198625*
X396813Y198937*
X396187*
X395563Y198625*
X395250Y198000*
Y196125*
X395563Y195500*
X397437Y198625*
X402750Y195187D02*
X400250D01*
X402437Y197375*
X402750Y198000*
X402437Y198625*
X401813Y198937*
X400875*
X400250Y198625*
X347750Y226187D02*
Y229937D01*
X349625*
X350250Y229625*
X350563Y229313*
X350875Y228687*
Y227437*
X350563Y226813*
X350250Y226500*
X349625Y226187*
X347750*
X352750Y226500D02*
X353375Y226187D01*
X354313*
X354937Y226500*
X355250Y227125*
Y227437*
X354937Y228063*
X354313Y228375*
X352750*
Y229937*
X355250*
X347750Y220187D02*
Y223937D01*
Y222063D02*
X350875D01*
Y220187D02*
Y223937D01*
X354313Y220187D02*
Y223937D01*
X352750D02*
X355875D01*
X357750Y221437D02*
X360250D01*
X363375Y220187D02*
X364625D01*
X364000D02*
Y223937D01*
X363375Y223313*
X368687Y220187D02*
X369313Y220500D01*
X369937Y221125*
X370250Y222063*
Y223000*
X369937Y223625*
X369313Y223937*
X368687*
X368063Y223625*
X367750Y223000*
X368063Y222375*
X368687Y222063*
X369313*
X369937Y222375*
X370250Y223000*
X373063Y220500D02*
X373687Y220187D01*
X374313*
X374937Y220500*
X375250Y221125*
X374937Y221750*
X374313Y222063*
X373687*
X374313D02*
X374937Y222375D01*
X375250Y223000*
X374937Y223625*
X374313Y223937*
X373687*
X373063Y223625*
X377750Y223937D02*
Y221125D01*
X378063Y220500*
X378687Y220187*
X379937*
X380563Y220500*
X380875Y221125*
Y223937*
X382750Y221125D02*
X383063Y220500D01*
X383687Y220187*
X384937*
X385563Y220500*
X385875Y221125*
X385563Y221750*
X384937Y222063*
X383687*
X383063Y222375*
X382750Y223000*
X383063Y223625*
X383687Y223937*
X384937*
X385563Y223625*
X385875Y223000*
X387750Y220187D02*
Y223937D01*
X389625*
X390250Y223625*
X390563Y223313*
X390875Y222687*
Y221437*
X390563Y220813*
X390250Y220500*
X389625Y220187*
X387750*
X392750Y221437D02*
X395250D01*
X397750Y220500D02*
X398375Y220187D01*
X399313*
X399937Y220500*
X400250Y221125*
Y221437*
X399937Y222063*
X399313Y222375*
X397750*
Y223937*
X400250*
X402750Y220500D02*
X403375Y220187D01*
X404313*
X404937Y220500*
X405250Y221125*
Y221437*
X404937Y222063*
X404313Y222375*
X402750*
Y223937*
X405250*
X408687Y220187D02*
X409313Y220500D01*
X409937Y221125*
X410250Y222063*
Y223000*
X409937Y223625*
X409313Y223937*
X408687*
X408063Y223625*
X407750Y223000*
X408063Y222375*
X408687Y222063*
X409313*
X409937Y222375*
X410250Y223000*
X413063Y220500D02*
X413687Y220187D01*
X414313*
X414937Y220500*
X415250Y221125*
Y223000*
X414937Y223625*
X414313Y223937*
X413687*
X413063Y223625*
X412750Y223000*
Y221125*
X413063Y220500*
X414937Y223625*
X347750Y242437D02*
Y246187D01*
X349625*
X350250Y245875*
X350563Y245563*
X350875Y244937*
Y243687*
X350563Y243063*
X350250Y242750*
X349625Y242437*
X347750*
X354313D02*
Y246187D01*
X352750Y243687*
X355250*
X347750Y236437D02*
Y240187D01*
X349625*
X350250Y239875*
X350563Y239563*
X350875Y238937*
Y237687*
X350563Y237063*
X350250Y236750*
X349625Y236437*
X347750*
X354937Y238313D02*
X355563Y238000D01*
X355875Y237375*
X355563Y236750*
X354937Y236437*
X352750*
Y240187*
X354937*
X355563Y239875*
X355875Y239250*
X355563Y238625*
X354937Y238313*
X352750*
X360250Y236437D02*
X357750D01*
X359937Y238625*
X360250Y239250*
X359937Y239875*
X359313Y240187*
X358375*
X357750Y239875*
X364937Y238000D02*
X365875D01*
Y237687*
X365563Y237063*
X365250Y236750*
X364625Y236437*
X364000*
X363375Y236750*
X363063Y237063*
X362750Y237687*
Y238937*
X363063Y239563*
X363375Y239875*
X364000Y240187*
X364625*
X365250Y239875*
X365563Y239563*
X365875Y238937*
X368063Y236750D02*
X368687Y236437D01*
X369313*
X369937Y236750*
X370250Y237375*
X369937Y238000*
X369313Y238313*
X368687*
X369313D02*
X369937Y238625D01*
X370250Y239250*
X369937Y239875*
X369313Y240187*
X368687*
X368063Y239875*
X375250Y236437D02*
X372750D01*
X374937Y238625*
X375250Y239250*
X374937Y239875*
X374313Y240187*
X373375*
X372750Y239875*
X377750Y237375D02*
X378063Y238000D01*
X378687Y238313*
X379313*
X379937Y238000*
X380250Y237375*
X379937Y236750*
X379313Y236437*
X378687*
X378063Y236750*
X377750Y237375*
Y238313*
X378063Y239250*
X378687Y239875*
X379313Y240187*
X383063Y236750D02*
X383687Y236437D01*
X384313*
X384937Y236750*
X385250Y237375*
Y239250*
X384937Y239875*
X384313Y240187*
X383687*
X383063Y239875*
X382750Y239250*
Y237375*
X383063Y236750*
X384937Y239875*
X388063Y236750D02*
X388687Y236437D01*
X389313*
X389937Y236750*
X390250Y237375*
Y239250*
X389937Y239875*
X389313Y240187*
X388687*
X388063Y239875*
X387750Y239250*
Y237375*
X388063Y236750*
X389937Y239875*
X392750Y240187D02*
Y236437D01*
X395875*
X398375D02*
X399625D01*
X399000D02*
Y240187D01*
X398375Y239563*
X348880Y349526D02*
X332626D01*
Y359250*
X332612*
X334862Y361500*
X348880*
Y349526*
X349000Y257437D02*
Y261187D01*
X350875*
X351500Y260875*
X351813Y260563*
X352125Y259937*
Y258687*
X351813Y258063*
X351500Y257750*
X350875Y257437*
X349000*
X354313Y257750D02*
X354937Y257437D01*
X355563*
X356187Y257750*
X356500Y258375*
X356187Y259000*
X355563Y259313*
X354937*
X355563D02*
X356187Y259625D01*
X356500Y260250*
X356187Y260875*
X355563Y261187*
X354937*
X354313Y260875*
X352125Y252063D02*
X351813Y251750D01*
X351187Y251437*
X350250*
X349625Y251750*
X349313Y252063*
X349000Y252687*
Y253937*
X349313Y254563*
X349625Y254875*
X350250Y255187*
X351187*
X351813Y254875*
X352125Y254563*
X354000Y251437D02*
Y255187D01*
X355875*
X356500Y254875*
X356813Y254563*
X357125Y253937*
Y252687*
X356813Y252063*
X356500Y251750*
X355875Y251437*
X354000*
X359000Y252375D02*
X359313Y251750D01*
X359937Y251437*
X361187*
X361813Y251750*
X362125Y252375*
X361813Y253000*
X361187Y253313*
X359937*
X359313Y253625*
X359000Y254250*
X359313Y254875*
X359937Y255187*
X361187*
X361813Y254875*
X362125Y254250*
X364000Y255187D02*
Y252375D01*
X364313Y251750*
X364937Y251437*
X366187*
X366813Y251750*
X367125Y252375*
Y255187*
X370563Y251437D02*
Y255187D01*
X369000Y252687*
X371500*
X374313Y251750D02*
X374937Y251437D01*
X375563*
X376187Y251750*
X376500Y252375*
Y254250*
X376187Y254875*
X375563Y255187*
X374937*
X374313Y254875*
X374000Y254250*
Y252375*
X374313Y251750*
X376187Y254875*
X379313Y251750D02*
X379937Y251437D01*
X380563*
X381187Y251750*
X381500Y252375*
Y254250*
X381187Y254875*
X380563Y255187*
X379937*
X379313Y254875*
X379000Y254250*
Y252375*
X379313Y251750*
X381187Y254875*
X386187Y253313D02*
X386813Y253000D01*
X387125Y252375*
X386813Y251750*
X386187Y251437*
X384000*
Y255187*
X386187*
X386813Y254875*
X387125Y254250*
X386813Y253625*
X386187Y253313*
X384000*
X350250Y276187D02*
Y279937D01*
X352125*
X352750Y279625*
X353063Y279313*
X353375Y278687*
Y277437*
X353063Y276813*
X352750Y276500*
X352125Y276187*
X350250*
X357750D02*
X355250D01*
X357437Y278375*
X357750Y279000*
X357437Y279625*
X356813Y279937*
X355875*
X355250Y279625*
X350250Y270187D02*
X351813Y273937D01*
X353375Y270187*
X350875Y271750D02*
X352750D01*
X355250Y270187D02*
Y273937D01*
X357437*
X358063Y273625*
X358375Y273000*
X358063Y272375*
X357437Y272063*
X355250*
X360875Y270187D02*
X362125D01*
X361500D02*
Y273937D01*
X360875Y273313*
X365250Y271125D02*
X365563Y271750D01*
X366187Y272063*
X366813*
X367437Y271750*
X367750Y271125*
X367437Y270500*
X366813Y270187*
X366187*
X365563Y270500*
X365250Y271125*
Y272063*
X365563Y273000*
X366187Y273625*
X366813Y273937*
X370563Y270500D02*
X371187Y270187D01*
X371813*
X372437Y270500*
X372750Y271125*
Y273000*
X372437Y273625*
X371813Y273937*
X371187*
X370563Y273625*
X370250Y273000*
Y271125*
X370563Y270500*
X372437Y273625*
X376187Y272063D02*
X376813D01*
X377437Y272375*
X377750Y273000*
X377437Y273625*
X376813Y273937*
X376187*
X375563Y273625*
X375250Y273000*
X375563Y272375*
X376187Y272063*
X375563Y271750*
X375250Y271125*
X375563Y270500*
X376187Y270187*
X376813*
X377437Y270500*
X377750Y271125*
X377437Y271750*
X376813Y272063*
X380250Y271125D02*
X380563Y270500D01*
X381187Y270187*
X382437*
X383063Y270500*
X383375Y271125*
X383063Y271750*
X382437Y272063*
X381187*
X380563Y272375*
X380250Y273000*
X380563Y273625*
X381187Y273937*
X382437*
X383063Y273625*
X383375Y273000*
X387437Y271750D02*
X388375D01*
Y271437*
X388063Y270813*
X387750Y270500*
X387125Y270187*
X386500*
X385875Y270500*
X385563Y270813*
X385250Y271437*
Y272687*
X385563Y273313*
X385875Y273625*
X386500Y273937*
X387125*
X387750Y273625*
X388063Y273313*
X388375Y272687*
X393375Y270813D02*
X393063Y270500D01*
X392437Y270187*
X391500*
X390875Y270500*
X390563Y270813*
X390250Y271437*
Y272687*
X390563Y273313*
X390875Y273625*
X391500Y273937*
X392437*
X393063Y273625*
X393375Y273313*
X361537Y319937D02*
X364662D01*
X361537Y316187*
X364662*
X366537D02*
Y319937D01*
X368412*
X369037Y319625*
X369350Y319313*
X369662Y318687*
Y317437*
X369350Y316813*
X369037Y316500*
X368412Y316187*
X366537*
X372162D02*
X373412D01*
X372787D02*
Y319937D01*
X372162Y319313*
X364662Y310813D02*
X364350Y310500D01*
X363724Y310187*
X362787*
X362162Y310500*
X361850Y310813*
X361537Y311437*
Y312687*
X361850Y313313*
X362162Y313625*
X362787Y313937*
X363724*
X364350Y313625*
X364662Y313313*
X366537Y310187D02*
Y313937D01*
X368412*
X369037Y313625*
X369350Y313313*
X369662Y312687*
Y311437*
X369350Y310813*
X369037Y310500*
X368412Y310187*
X366537*
X371850Y310500D02*
X372474Y310187D01*
X373100*
X373724Y310500*
X374037Y311125*
Y313000*
X373724Y313625*
X373100Y313937*
X372474*
X371850Y313625*
X371537Y313000*
Y311125*
X371850Y310500*
X373724Y313625*
X376537Y311125D02*
X376850Y311750D01*
X377474Y312063*
X378100*
X378724Y311750*
X379037Y311125*
X378724Y310500*
X378100Y310187*
X377474*
X376850Y310500*
X376537Y311125*
Y312063*
X376850Y313000*
X377474Y313625*
X378100Y313937*
X381850Y310500D02*
X382474Y310187D01*
X383100*
X383724Y310500*
X384037Y311125*
Y313000*
X383724Y313625*
X383100Y313937*
X382474*
X381850Y313625*
X381537Y313000*
Y311125*
X381850Y310500*
X383724Y313625*
X386850Y310500D02*
X387474Y310187D01*
X388100*
X388724Y310500*
X389037Y311125*
X388724Y311750*
X388100Y312063*
X387474*
X388100D02*
X388724Y312375D01*
X389037Y313000*
X388724Y313625*
X388100Y313937*
X387474*
X386850Y313625*
X391537Y311437D02*
X394037D01*
X396537Y313937D02*
X399662D01*
X396537Y310187*
X399662*
X401537Y310500D02*
X402162Y310187D01*
X403100*
X403724Y310500*
X404037Y311125*
Y311437*
X403724Y312063*
X403100Y312375*
X401537*
Y313937*
X404037*
X406537D02*
X408100Y310187D01*
X409662Y313937*
X412162Y310187D02*
X413412D01*
X412787D02*
Y313937D01*
X412162Y313313*
X363537Y306400D02*
X368837D01*
Y294100*
X363537*
Y306400*
X425884Y192557D02*
X444616D01*
Y207943*
X425884*
Y192557*
X428411Y301490D02*
X470892D01*
Y289010*
X430911*
X428411Y291510*
Y301490*
X429010Y341490D02*
X511490D01*
Y319010*
X429010*
Y341490*
X429750Y254750D02*
X480750D01*
Y265750*
X429750*
Y254750*
Y359750D02*
X450750D01*
Y370750*
X429750*
Y359750*
Y394750D02*
X480750D01*
Y405750*
X429750*
Y394750*
X430250Y276813D02*
X430563Y276500D01*
X431187Y276187*
X431813Y276500*
X432125Y276813*
Y279937*
X432750*
X432125D02*
X430875D01*
X435250Y276500D02*
X435875Y276187D01*
X436813*
X437437Y276500*
X437750Y277125*
Y277437*
X437437Y278063*
X436813Y278375*
X435250*
Y279937*
X437750*
X430250Y271125D02*
X430563Y271750D01*
X431187Y272063*
X431813*
X432437Y271750*
X432750Y271125*
X432437Y270500*
X431813Y270187*
X431187*
X430563Y270500*
X430250Y271125*
Y272063*
X430563Y273000*
X431187Y273625*
X431813Y273937*
X435875Y270187D02*
X437125D01*
X436500D02*
Y273937D01*
X435875Y273313*
X440563Y270500D02*
X441187Y270187D01*
X441813*
X442437Y270500*
X442750Y271125*
X442437Y271750*
X441813Y272063*
X441187*
X441813D02*
X442437Y272375D01*
X442750Y273000*
X442437Y273625*
X441813Y273937*
X441187*
X440563Y273625*
X445563Y270500D02*
X446187Y270187D01*
X446813*
X447437Y270500*
X447750Y271125*
Y273000*
X447437Y273625*
X446813Y273937*
X446187*
X445563Y273625*
X445250Y273000*
Y271125*
X445563Y270500*
X447437Y273625*
X450563Y270500D02*
X451187Y270187D01*
X451813*
X452437Y270500*
X452750Y271125*
Y273000*
X452437Y273625*
X451813Y273937*
X451187*
X450563Y273625*
X450250Y273000*
Y271125*
X450563Y270500*
X452437Y273625*
X455250Y270500D02*
X455875Y270187D01*
X456813*
X457437Y270500*
X457750Y271125*
Y271437*
X457437Y272063*
X456813Y272375*
X455250*
Y273937*
X457750*
X460875Y270187D02*
X462125D01*
X461500D02*
Y273937D01*
X460875Y273313*
X465875Y270187D02*
X467125D01*
X466500D02*
Y273937D01*
X465875Y273313*
X470875Y270187D02*
X472125D01*
X471500D02*
Y273937D01*
X470875Y273313*
X477750Y270187D02*
X475250D01*
X477437Y272375*
X477750Y273000*
X477437Y273625*
X476813Y273937*
X475875*
X475250Y273625*
X480875Y270187D02*
X482125D01*
X481500D02*
Y273937D01*
X480875Y273313*
X430250Y311813D02*
X430563Y311500D01*
X431187Y311187*
X431813Y311500*
X432125Y311813*
Y314937*
X432750*
X432125D02*
X430875D01*
X436813Y311187D02*
Y314937D01*
X435250Y312437*
X437750*
X430250Y306125D02*
X430563Y306750D01*
X431187Y307063*
X431813*
X432437Y306750*
X432750Y306125*
X432437Y305500*
X431813Y305187*
X431187*
X430563Y305500*
X430250Y306125*
Y307063*
X430563Y308000*
X431187Y308625*
X431813Y308937*
X435875Y305187D02*
X437125D01*
X436500D02*
Y308937D01*
X435875Y308313*
X440563Y305500D02*
X441187Y305187D01*
X441813*
X442437Y305500*
X442750Y306125*
X442437Y306750*
X441813Y307063*
X441187*
X441813D02*
X442437Y307375D01*
X442750Y308000*
X442437Y308625*
X441813Y308937*
X441187*
X440563Y308625*
X445563Y305500D02*
X446187Y305187D01*
X446813*
X447437Y305500*
X447750Y306125*
Y308000*
X447437Y308625*
X446813Y308937*
X446187*
X445563Y308625*
X445250Y308000*
Y306125*
X445563Y305500*
X447437Y308625*
X450563Y305500D02*
X451187Y305187D01*
X451813*
X452437Y305500*
X452750Y306125*
Y308000*
X452437Y308625*
X451813Y308937*
X451187*
X450563Y308625*
X450250Y308000*
Y306125*
X450563Y305500*
X452437Y308625*
X456813Y305187D02*
Y308937D01*
X455250Y306437*
X457750*
X460875Y305187D02*
X462125D01*
X461500D02*
Y308937D01*
X460875Y308313*
X465875Y305187D02*
X467125D01*
X466500D02*
Y308937D01*
X465875Y308313*
X470875Y305187D02*
X472125D01*
X471500D02*
Y308937D01*
X470875Y308313*
X477750Y305187D02*
X475250D01*
X477437Y307375*
X477750Y308000*
X477437Y308625*
X476813Y308937*
X475875*
X475250Y308625*
X480875Y305187D02*
X482125D01*
X481500D02*
Y308937D01*
X480875Y308313*
X430250Y351813D02*
X430563Y351500D01*
X431187Y351187*
X431813Y351500*
X432125Y351813*
Y354937*
X432750*
X432125D02*
X430875D01*
X435563Y351500D02*
X436187Y351187D01*
X436813*
X437437Y351500*
X437750Y352125*
X437437Y352750*
X436813Y353063*
X436187*
X436813D02*
X437437Y353375D01*
X437750Y354000*
X437437Y354625*
X436813Y354937*
X436187*
X435563Y354625*
X431187Y345187D02*
X431813Y345500D01*
X432437Y346125*
X432750Y347063*
Y348000*
X432437Y348625*
X431813Y348937*
X431187*
X430563Y348625*
X430250Y348000*
X430563Y347375*
X431187Y347063*
X431813*
X432437Y347375*
X432750Y348000*
X435250Y346125D02*
X435563Y346750D01*
X436187Y347063*
X436813*
X437437Y346750*
X437750Y346125*
X437437Y345500*
X436813Y345187*
X436187*
X435563Y345500*
X435250Y346125*
Y347063*
X435563Y348000*
X436187Y348625*
X436813Y348937*
X440875Y345187D02*
X442125D01*
X441500D02*
Y348937D01*
X440875Y348313*
X447750Y345187D02*
X445250D01*
X447437Y347375*
X447750Y348000*
X447437Y348625*
X446813Y348937*
X445875*
X445250Y348625*
X450563Y345500D02*
X451187Y345187D01*
X451813*
X452437Y345500*
X452750Y346125*
Y348000*
X452437Y348625*
X451813Y348937*
X451187*
X450563Y348625*
X450250Y348000*
Y346125*
X450563Y345500*
X452437Y348625*
X456187Y347063D02*
X456813D01*
X457437Y347375*
X457750Y348000*
X457437Y348625*
X456813Y348937*
X456187*
X455563Y348625*
X455250Y348000*
X455563Y347375*
X456187Y347063*
X455563Y346750*
X455250Y346125*
X455563Y345500*
X456187Y345187*
X456813*
X457437Y345500*
X457750Y346125*
X457437Y346750*
X456813Y347063*
X460250Y346437D02*
X462750D01*
X465250Y346125D02*
X465563Y346750D01*
X466187Y347063*
X466813*
X467437Y346750*
X467750Y346125*
X467437Y345500*
X466813Y345187*
X466187*
X465563Y345500*
X465250Y346125*
Y347063*
X465563Y348000*
X466187Y348625*
X466813Y348937*
X471813Y345187D02*
Y348937D01*
X470250Y346437*
X472750*
X475563Y345500D02*
X476187Y345187D01*
X476813*
X477437Y345500*
X477750Y346125*
Y348000*
X477437Y348625*
X476813Y348937*
X476187*
X475563Y348625*
X475250Y348000*
Y346125*
X475563Y345500*
X477437Y348625*
X481813Y345187D02*
Y348937D01*
X480250Y346437*
X482750*
X485250D02*
X487750D01*
X490250Y345187D02*
X491813Y348937D01*
X493375Y345187*
X490875Y346750D02*
X492750D01*
X495250Y345187D02*
Y348937D01*
X497437*
X498063Y348625*
X498375Y348000*
X498063Y347375*
X497437Y347063*
X495250*
X497437D02*
X498375Y345187D01*
X430250Y381813D02*
X430563Y381500D01*
X431187Y381187*
X431813Y381500*
X432125Y381813*
Y384937*
X432750*
X432125D02*
X430875D01*
X437750Y381187D02*
X435250D01*
X437437Y383375*
X437750Y384000*
X437437Y384625*
X436813Y384937*
X435875*
X435250Y384625*
X431187Y375187D02*
X431813Y375500D01*
X432437Y376125*
X432750Y377063*
Y378000*
X432437Y378625*
X431813Y378937*
X431187*
X430563Y378625*
X430250Y378000*
X430563Y377375*
X431187Y377063*
X431813*
X432437Y377375*
X432750Y378000*
X437750Y375187D02*
X435250D01*
X437437Y377375*
X437750Y378000*
X437437Y378625*
X436813Y378937*
X435875*
X435250Y378625*
X441187Y375187D02*
X441813Y375500D01*
X442437Y376125*
X442750Y377063*
Y378000*
X442437Y378625*
X441813Y378937*
X441187*
X440563Y378625*
X440250Y378000*
X440563Y377375*
X441187Y377063*
X441813*
X442437Y377375*
X442750Y378000*
X446187Y377063D02*
X446813D01*
X447437Y377375*
X447750Y378000*
X447437Y378625*
X446813Y378937*
X446187*
X445563Y378625*
X445250Y378000*
X445563Y377375*
X446187Y377063*
X445563Y376750*
X445250Y376125*
X445563Y375500*
X446187Y375187*
X446813*
X447437Y375500*
X447750Y376125*
X447437Y376750*
X446813Y377063*
X450563Y375500D02*
X451187Y375187D01*
X451813*
X452437Y375500*
X452750Y376125*
Y378000*
X452437Y378625*
X451813Y378937*
X451187*
X450563Y378625*
X450250Y378000*
Y376125*
X450563Y375500*
X452437Y378625*
X455563Y375500D02*
X456187Y375187D01*
X456813*
X457437Y375500*
X457750Y376125*
Y378000*
X457437Y378625*
X456813Y378937*
X456187*
X455563Y378625*
X455250Y378000*
Y376125*
X455563Y375500*
X457437Y378625*
X460250Y376437D02*
X462750D01*
X465563Y375500D02*
X466187Y375187D01*
X466813*
X467437Y375500*
X467750Y376125*
Y378000*
X467437Y378625*
X466813Y378937*
X466187*
X465563Y378625*
X465250Y378000*
Y376125*
X465563Y375500*
X467437Y378625*
X470875Y375187D02*
X472125D01*
X471500D02*
Y378937D01*
X470875Y378313*
X475250Y376437D02*
X477750D01*
X480563Y375500D02*
X481187Y375187D01*
X481813*
X482437Y375500*
X482750Y376125*
Y378000*
X482437Y378625*
X481813Y378937*
X481187*
X480563Y378625*
X480250Y378000*
Y376125*
X480563Y375500*
X482437Y378625*
X487750Y375187D02*
X485250D01*
X487437Y377375*
X487750Y378000*
X487437Y378625*
X486813Y378937*
X485875*
X485250Y378625*
X432632Y321628D02*
X432647Y321345D01*
X432693Y321065*
X432769Y320792*
X432874Y320529*
X433006Y320278*
X433165Y320044*
X433349Y319828*
X433555Y319633*
X433780Y319461*
X434023Y319315*
X434280Y319196*
X434549Y319106*
X434826Y319044*
X435107Y319014*
X435391*
X435673Y319044*
X435950Y319106*
X436218Y319196*
X436475Y319315*
X436718Y319461*
X436944Y319632*
X437150Y319827*
X437333Y320043*
X437492Y320278*
X437625Y320528*
X437730Y320791*
X437806Y321064*
X437852Y321343*
X437868Y321628*
X437853Y321911*
X437807Y322191*
X437731Y322464*
X437626Y322727*
X437494Y322978*
X437335Y323212*
X437151Y323428*
X436945Y323623*
X436720Y323795*
X436477Y323941*
X436220Y324060*
X435951Y324150*
X435674Y324211*
X435393Y324242*
X435109*
X434827Y324211*
X434550Y324150*
X434282Y324060*
X434025Y323941*
X433782Y323795*
X433556Y323624*
X433350Y323429*
X433167Y323213*
X433008Y322978*
X432875Y322728*
X432770Y322465*
X432694Y322192*
X432648Y321913*
X432632Y321628*
G36*
X432647Y321345*
X432693Y321065*
X432769Y320792*
X432874Y320529*
X433006Y320278*
X433165Y320044*
X433349Y319828*
X433555Y319633*
X433780Y319461*
X434023Y319315*
X434280Y319196*
X434549Y319106*
X434826Y319044*
X435107Y319014*
X435391*
X435673Y319044*
X435950Y319106*
X436218Y319196*
X436475Y319315*
X436718Y319461*
X436944Y319632*
X437150Y319827*
X437333Y320043*
X437492Y320278*
X437625Y320528*
X437730Y320791*
X437806Y321064*
X437852Y321343*
X437868Y321628*
X437853Y321911*
X437807Y322191*
X437731Y322464*
X437626Y322727*
X437494Y322978*
X437335Y323212*
X437151Y323428*
X436945Y323623*
X436720Y323795*
X436477Y323941*
X436220Y324060*
X435951Y324150*
X435674Y324211*
X435393Y324242*
X435109*
X434827Y324211*
X434550Y324150*
X434282Y324060*
X434025Y323941*
X433782Y323795*
X433556Y323624*
X433350Y323429*
X433167Y323213*
X433008Y322978*
X432875Y322728*
X432770Y322465*
X432694Y322192*
X432648Y321913*
X432632Y321628*
G37*
X435250Y392750D02*
Y387750D01*
Y416813D02*
X435563Y416500D01*
X436187Y416187*
X436813Y416500*
X437125Y416813*
Y419937*
X437750*
X437125D02*
X435875D01*
X440875Y416187D02*
X442125D01*
X441500D02*
Y419937D01*
X440875Y419313*
X436187Y412063D02*
X436813D01*
X437437Y412375*
X437750Y413000*
X437437Y413625*
X436813Y413937*
X436187*
X435563Y413625*
X435250Y413000*
X435563Y412375*
X436187Y412063*
X435563Y411750*
X435250Y411125*
X435563Y410500*
X436187Y410187*
X436813*
X437437Y410500*
X437750Y411125*
X437437Y411750*
X436813Y412063*
X442750Y410187D02*
X440250D01*
X442437Y412375*
X442750Y413000*
X442437Y413625*
X441813Y413937*
X440875*
X440250Y413625*
X445250Y411125D02*
X445563Y411750D01*
X446187Y412063*
X446813*
X447437Y411750*
X447750Y411125*
X447437Y410500*
X446813Y410187*
X446187*
X445563Y410500*
X445250Y411125*
Y412063*
X445563Y413000*
X446187Y413625*
X446813Y413937*
X451187Y410187D02*
X451813Y410500D01*
X452437Y411125*
X452750Y412063*
Y413000*
X452437Y413625*
X451813Y413937*
X451187*
X450563Y413625*
X450250Y413000*
X450563Y412375*
X451187Y412063*
X451813*
X452437Y412375*
X452750Y413000*
X456813Y410187D02*
Y413937D01*
X455250Y411437*
X457750*
X461187Y410187D02*
X461813Y410500D01*
X462437Y411125*
X462750Y412063*
Y413000*
X462437Y413625*
X461813Y413937*
X461187*
X460563Y413625*
X460250Y413000*
X460563Y412375*
X461187Y412063*
X461813*
X462437Y412375*
X462750Y413000*
X465250Y411437D02*
X467750D01*
X470250Y410500D02*
X470875Y410187D01*
X471813*
X472437Y410500*
X472750Y411125*
Y411437*
X472437Y412063*
X471813Y412375*
X470250*
Y413937*
X472750*
X440563Y160250D02*
X444313D01*
Y163375*
Y167750D02*
Y165250D01*
X442125Y167437*
X441500Y167750*
X440875Y167437*
X440563Y166813*
Y165875*
X440875Y165250*
X450313Y161187D02*
Y162437D01*
Y161813D02*
X446563D01*
Y161187D02*
Y162437D01*
X450313Y165250D02*
X446563D01*
X448437D02*
Y168375D01*
X450313D02*
X446563D01*
Y170250D02*
X450313D01*
Y173375*
Y175250D02*
X446563D01*
Y177437*
X446875Y178063*
X447500Y178375*
X448125Y178063*
X448437Y177437*
Y175250*
X450313Y180875D02*
Y182125D01*
Y181500D02*
X446563D01*
X447187Y180875*
X450313Y187750D02*
Y185250D01*
X448125Y187437*
X447500Y187750*
X446875Y187437*
X446563Y186813*
Y185875*
X446875Y185250*
X450313Y190875D02*
Y192125D01*
Y191500D02*
X446563D01*
X447187Y190875*
X450313Y197750D02*
Y195250D01*
X448125Y197437*
X447500Y197750*
X446875Y197437*
X446563Y196813*
Y195875*
X446875Y195250*
X450313Y200250D02*
X446563Y201813D01*
X450313Y203375*
X448750Y200875D02*
Y202750D01*
X450313Y205250D02*
X446563D01*
Y208375*
X448437Y207750D02*
Y205250D01*
X450313D02*
Y208375D01*
Y210250D02*
X446563D01*
Y213375*
X448437Y212750D02*
Y210250D01*
X450313D02*
Y213375D01*
Y215250D02*
X446563D01*
Y217437*
X446875Y218063*
X447500Y218375*
X448125Y218063*
X448437Y217437*
Y215250*
Y217437D02*
X450313Y218375D01*
Y220250D02*
X446563D01*
Y222437*
X446875Y223063*
X447500Y223375*
X448125Y223063*
X448437Y222437*
Y220250*
Y222437D02*
X450313Y223375D01*
Y226813D02*
X446563D01*
X449063Y225250*
Y227750*
X450313Y230250D02*
X446563Y232750D01*
Y230250*
X450313Y235250D02*
X446563D01*
X448437Y236813*
X446563Y238375*
X450313*
Y240875D02*
Y242125D01*
Y241500D02*
X446563D01*
X447187Y240875*
X450313Y245875D02*
Y247125D01*
Y246500D02*
X446563D01*
X447187Y245875*
X445250Y392750D02*
Y387750D01*
X446195Y142437D02*
Y143687D01*
X446507Y144313*
X446820Y144625*
X447445Y144937*
X448070*
X448695Y144625*
X449007Y144313*
X449320Y143687*
Y142437*
X449007Y141813*
X448695Y141500*
X448070Y141187*
X447445*
X446820Y141500*
X446507Y141813*
X446195Y142437*
X448382Y142125D02*
X449320Y141187D01*
X451820D02*
X453070D01*
X452445D02*
Y144937D01*
X451820Y144313*
X448382Y137063D02*
X449007Y136750D01*
X449320Y136125*
X449007Y135500*
X448382Y135187*
X446195*
Y138937*
X448382*
X449007Y138625*
X449320Y138000*
X449007Y137375*
X448382Y137063*
X446195*
X451195Y136125D02*
X451507Y135500D01*
X452132Y135187*
X453382*
X454007Y135500*
X454320Y136125*
X454007Y136750*
X453382Y137063*
X452132*
X451507Y137375*
X451195Y138000*
X451507Y138625*
X452132Y138937*
X453382*
X454007Y138625*
X454320Y138000*
X456195Y136125D02*
X456507Y135500D01*
X457132Y135187*
X458382*
X459007Y135500*
X459320Y136125*
X459007Y136750*
X458382Y137063*
X457132*
X456507Y137375*
X456195Y138000*
X456507Y138625*
X457132Y138937*
X458382*
X459007Y138625*
X459320Y138000*
X461820Y135187D02*
X463070D01*
X462445D02*
Y138937D01*
X461820Y138313*
X466507Y135500D02*
X467132Y135187D01*
X467757*
X468382Y135500*
X468695Y136125*
X468382Y136750*
X467757Y137063*
X467132*
X467757D02*
X468382Y137375D01*
X468695Y138000*
X468382Y138625*
X467757Y138937*
X467132*
X466507Y138625*
X472132Y137063D02*
X472757D01*
X473382Y137375*
X473695Y138000*
X473382Y138625*
X472757Y138937*
X472132*
X471507Y138625*
X471195Y138000*
X471507Y137375*
X472132Y137063*
X471507Y136750*
X471195Y136125*
X471507Y135500*
X472132Y135187*
X472757*
X473382Y135500*
X473695Y136125*
X473382Y136750*
X472757Y137063*
X446573Y40805D02*
X463927D01*
Y49695*
X446573*
Y40805*
X448163Y132533D02*
X462337D01*
Y117967*
X448163*
Y132533*
X455250Y392750D02*
Y387750D01*
X457600Y206400D02*
X462900D01*
Y194100*
X457600*
Y206400*
X460563Y180250D02*
X464313D01*
Y183375*
Y185875D02*
Y187125D01*
Y186500D02*
X460563D01*
X461187Y185875*
X469687Y183375D02*
X470000Y183063D01*
X470313Y182437*
Y181500*
X470000Y180875*
X469687Y180563*
X469063Y180250*
X467813*
X467187Y180563*
X466875Y180875*
X466563Y181500*
Y182437*
X466875Y183063*
X467187Y183375*
X468437Y187437D02*
X468750Y188063D01*
X469375Y188375*
X470000Y188063*
X470313Y187437*
Y185250*
X466563*
Y187437*
X466875Y188063*
X467500Y188375*
X468125Y188063*
X468437Y187437*
Y185250*
X470313Y190250D02*
X466563D01*
X468437Y191813*
X466563Y193375*
X470313*
Y195250D02*
X466563D01*
Y198375*
X468437Y197750D02*
Y195250D01*
X470313Y200875D02*
Y202125D01*
Y201500D02*
X466563D01*
X467187Y200875*
X469375Y205250D02*
X468750Y205563D01*
X468437Y206187*
Y206813*
X468750Y207437*
X469375Y207750*
X470000Y207437*
X470313Y206813*
Y206187*
X470000Y205563*
X469375Y205250*
X468437*
X467500Y205563*
X466875Y206187*
X466563Y206813*
X470000Y210563D02*
X470313Y211187D01*
Y211813*
X470000Y212437*
X469375Y212750*
X467500*
X466875Y212437*
X466563Y211813*
Y211187*
X466875Y210563*
X467500Y210250*
X469375*
X470000Y210563*
X466875Y212437*
X468437Y216187D02*
Y216813D01*
X468125Y217437*
X467500Y217750*
X466875Y217437*
X466563Y216813*
Y216187*
X466875Y215563*
X467500Y215250*
X468125Y215563*
X468437Y216187*
X468750Y215563*
X469375Y215250*
X470000Y215563*
X470313Y216187*
Y216813*
X470000Y217437*
X469375Y217750*
X468750Y217437*
X468437Y216813*
X470313Y221813D02*
X466563D01*
Y220250D02*
Y223375D01*
X470313Y225875D02*
Y227125D01*
Y226500D02*
X466563D01*
X467187Y225875*
X470000Y230563D02*
X470313Y231187D01*
Y231813*
X470000Y232437*
X469375Y232750*
X467500*
X466875Y232437*
X466563Y231813*
Y231187*
X466875Y230563*
X467500Y230250*
X469375*
X470000Y230563*
X466875Y232437*
X470000Y235563D02*
X470313Y236187D01*
Y236813*
X470000Y237437*
X469375Y237750*
X467500*
X466875Y237437*
X466563Y236813*
Y236187*
X466875Y235563*
X467500Y235250*
X469375*
X470000Y235563*
X466875Y237437*
X470313Y240250D02*
X466563D01*
X468437D02*
Y241187D01*
X466563Y243375*
X468437Y241187D02*
X470313Y243375D01*
X465250Y392750D02*
Y387750D01*
X469313Y30250D02*
X465563Y33375D01*
Y30250D02*
X469313Y33375D01*
Y36813D02*
X465563D01*
Y35250D02*
Y38375D01*
X469313Y40250D02*
X465563Y41813D01*
X469313Y43375*
X467750Y40875D02*
Y42750D01*
X465563Y45250D02*
X469313D01*
Y48375*
Y50875D02*
Y52125D01*
Y51500D02*
X465563D01*
X466187Y50875*
X474375Y30250D02*
X475000Y30563D01*
X475313Y31187*
Y32437*
X475000Y33063*
X474375Y33375*
X473750Y33063*
X473437Y32437*
Y31187*
X473125Y30563*
X472500Y30250*
X471875Y30563*
X471563Y31187*
Y32437*
X471875Y33063*
X472500Y33375*
X475313Y36813D02*
X471563D01*
Y35250D02*
Y38375D01*
X475000Y40563D02*
X475313Y41187D01*
Y41813*
X475000Y42437*
X474375Y42750*
X473750Y42437*
X473437Y41813*
Y41187*
Y41813D02*
X473125Y42437D01*
X472500Y42750*
X471875Y42437*
X471563Y41813*
Y41187*
X471875Y40563*
X475313Y47750D02*
Y45250D01*
X473125Y47437*
X472500Y47750*
X471875Y47437*
X471563Y46813*
Y45875*
X471875Y45250*
X475313Y50875D02*
Y52125D01*
Y51500D02*
X471563D01*
X472187Y50875*
X475000Y55250D02*
X475313Y55875D01*
Y56813*
X475000Y57437*
X474375Y57750*
X474063*
X473437Y57437*
X473125Y56813*
Y55250*
X471563*
Y57750*
X474375Y60250D02*
X475000Y60563D01*
X475313Y61187*
Y62437*
X475000Y63063*
X474375Y63375*
X473750Y63063*
X473437Y62437*
Y61187*
X473125Y60563*
X472500Y60250*
X471875Y60563*
X471563Y61187*
Y62437*
X471875Y63063*
X472500Y63375*
X473437Y67437D02*
X473750Y68063D01*
X474375Y68375*
X475000Y68063*
X475313Y67437*
Y65250*
X471563*
Y67437*
X471875Y68063*
X472500Y68375*
X473125Y68063*
X473437Y67437*
Y65250*
X475000Y70563D02*
X475313Y71187D01*
Y71813*
X475000Y72437*
X474375Y72750*
X473750Y72437*
X473437Y71813*
Y71187*
Y71813D02*
X473125Y72437D01*
X472500Y72750*
X471875Y72437*
X471563Y71813*
Y71187*
X471875Y70563*
X475313Y77750D02*
Y75250D01*
X473125Y77437*
X472500Y77750*
X471875Y77437*
X471563Y76813*
Y75875*
X471875Y75250*
X475313Y80250D02*
X471563Y82750D01*
Y80250*
X474375Y85250D02*
X473750Y85563D01*
X473437Y86187*
Y86813*
X473750Y87437*
X474375Y87750*
X475000Y87437*
X475313Y86813*
Y86187*
X475000Y85563*
X474375Y85250*
X473437*
X472500Y85563*
X471875Y86187*
X471563Y86813*
X473437Y91187D02*
Y91813D01*
X473125Y92437*
X472500Y92750*
X471875Y92437*
X471563Y91813*
Y91187*
X471875Y90563*
X472500Y90250*
X473125Y90563*
X473437Y91187*
X473750Y90563*
X474375Y90250*
X475000Y90563*
X475313Y91187*
Y91813*
X475000Y92437*
X474375Y92750*
X473750Y92437*
X473437Y91813*
X475313Y95250D02*
X471563D01*
Y98375*
X473437Y97750D02*
Y95250D01*
X475313D02*
Y98375D01*
X475000Y100563D02*
X475313Y101187D01*
Y101813*
X475000Y102437*
X474375Y102750*
X472500*
X471875Y102437*
X471563Y101813*
Y101187*
X471875Y100563*
X472500Y100250*
X474375*
X475000Y100563*
X471875Y102437*
X475313Y105250D02*
X471563D01*
X473437D02*
Y108375D01*
X475313D02*
X471563D01*
X475313Y110250D02*
X471563D01*
Y112437*
X471875Y113063*
X472500Y113375*
X473125Y113063*
X473437Y112437*
Y110250*
X471563Y115250D02*
X475313Y115563D01*
X473437Y116813*
X475313Y118063*
X471563Y118375*
X473437Y122437D02*
X473750Y123063D01*
X474375Y123375*
X475000Y123063*
X475313Y122437*
Y120250*
X471563*
Y122437*
X471875Y123063*
X472500Y123375*
X473125Y123063*
X473437Y122437*
Y120250*
Y127437D02*
X473750Y128063D01*
X474375Y128375*
X475000Y128063*
X475313Y127437*
Y125250*
X471563*
Y127437*
X471875Y128063*
X472500Y128375*
X473125Y128063*
X473437Y127437*
Y125250*
X475250Y392750D02*
Y387750D01*
D02*
D12*
X21010Y222250D02*
X32010D01*
Y227000*
X21010*
Y222250*
X55870Y303764D02*
X58370Y306264D01*
X55870Y303764D02*
X58370Y301264D01*
X60870Y306264D02*
Y313764D01*
X58370Y311264*
X60870Y313764D02*
X63370Y311264D01*
Y303764D02*
X55870D01*
X93260Y299500D02*
X93456Y299515D01*
X93646Y299561*
X93827Y299636*
X93994Y299739*
X94144Y299866*
X94271Y300015*
X94374Y300183*
X94449Y300364*
X94494Y300555*
X94510Y300750*
X94494Y300946*
X94448Y301137*
X94373Y301318*
X94271Y301485*
X94143Y301634*
X93994Y301761*
X93827Y301864*
X93646Y301939*
X93455Y301984*
X93260Y302000*
X93064Y301985*
X92874Y301939*
X92693Y301864*
X92525Y301761*
X92376Y301634*
X92248Y301485*
X92146Y301317*
X92071Y301136*
X92025Y300945*
X92010Y300750*
X92025Y300554*
X92071Y300363*
X92146Y300182*
X92249Y300015*
X92376Y299866*
X92526Y299739*
X92693Y299636*
X92874Y299561*
X93065Y299516*
X93260Y299500*
X140250Y267750D02*
X145250Y272750D01*
X135250*
X140250Y267750*
G36*
X145250Y272750*
X135250*
X140250Y267750*
G37*
Y272750D02*
Y282750D01*
X147750Y260250D02*
X187750D01*
Y287750*
X147750*
Y260250*
G36*
X187750*
Y287750*
X147750*
Y260250*
G37*
X192750Y255250D02*
X195250D01*
X192750Y260250D02*
Y250250D01*
X237593Y75250D02*
X237608Y74100D01*
X237655Y72950*
X237733Y71802*
X237842Y70657*
X237981Y69515*
X238152Y68378*
X238354Y67245*
X238585Y66118*
X238848Y64998*
X239140Y63885*
X239463Y62781*
X239815Y61686*
X240197Y60601*
X240608Y59526*
X241048Y58463*
X241517Y57413*
X242013Y56375*
X242538Y55352*
X243091Y54343*
X243670Y53349*
X244276Y52371*
X244909Y51410*
X245567Y50466*
X246250Y49541*
X246959Y48634*
X247691Y47747*
X248448Y46880*
X249227Y46034*
X250029Y45209*
X250853Y44406*
X251699Y43626*
X252565Y42869*
X253452Y42136*
X254358Y41427*
X255283Y40743*
X256226Y40084*
X257186Y39451*
X258163Y38844*
X259157Y38264*
X260165Y37711*
X261189Y37185*
X262226Y36687*
X263276Y36218*
X264339Y35777*
X265413Y35365*
X266498Y34983*
X267593Y34630*
X268697Y34306*
X269809Y34013*
X270929Y33749*
X272056Y33517*
X273189Y33314*
X274326Y33143*
X275468Y33002*
X276613Y32892*
X277761Y32813*
X278910Y32766*
X280061Y32749*
X281211Y32764*
X282361Y32809*
X283509Y32886*
X284654Y32994*
X285796Y33133*
X286934Y33303*
X288067Y33503*
X289194Y33734*
X290314Y33996*
X291427Y34287*
X292532Y34609*
X293627Y34961*
X294713Y35342*
X295787Y35752*
X296851Y36191*
X297902Y36659*
X298940Y37155*
X299964Y37679*
X300974Y38231*
X301968Y38809*
X302946Y39415*
X303908Y40047*
X304852Y40704*
X305778Y41387*
X306685Y42094*
X307573Y42826*
X308441Y43582*
X309287Y44361*
X310113Y45162*
X310916Y45986*
X311697Y46831*
X312454Y47696*
X313188Y48583*
X313898Y49488*
X314583Y50413*
X315243Y51355*
X315876Y52315*
X316484Y53292*
X317065Y54285*
X317619Y55293*
X318145Y56316*
X318644Y57353*
X319114Y58403*
X319556Y59465*
X319969Y60539*
X320352Y61624*
X320706Y62719*
X321030Y63822*
X321325Y64935*
X321589Y66054*
X321823Y67181*
X322026Y68313*
X322198Y69450*
X322340Y70592*
X322451Y71737*
X322530Y72885*
X322579Y74035*
X322593Y75250*
X322577Y76400*
X322530Y77550*
X322452Y78698*
X322343Y79843*
X322204Y80985*
X322033Y82122*
X321831Y83255*
X321600Y84382*
X321337Y85502*
X321045Y86615*
X320722Y87719*
X320370Y88814*
X319988Y89899*
X319577Y90974*
X319137Y92037*
X318669Y93087*
X318172Y94125*
X317647Y95148*
X317094Y96157*
X316515Y97151*
X315909Y98129*
X315276Y99090*
X314618Y100034*
X313935Y100959*
X313226Y101866*
X312494Y102753*
X311737Y103620*
X310958Y104466*
X310156Y105291*
X309332Y106094*
X308486Y106874*
X307620Y107631*
X306733Y108364*
X305827Y109073*
X304902Y109757*
X303959Y110416*
X302999Y111049*
X302022Y111656*
X301028Y112236*
X300020Y112789*
X298996Y113315*
X297959Y113813*
X296909Y114282*
X295846Y114723*
X294772Y115135*
X293687Y115517*
X292592Y115870*
X291488Y116194*
X290376Y116487*
X289256Y116751*
X288129Y116983*
X286996Y117186*
X285859Y117357*
X284717Y117498*
X283572Y117608*
X282424Y117687*
X281275Y117734*
X280124Y117751*
X278974Y117736*
X277824Y117691*
X276676Y117614*
X275531Y117506*
X274389Y117367*
X273251Y117197*
X272119Y116997*
X270991Y116766*
X269871Y116504*
X268758Y116213*
X267653Y115891*
X266558Y115539*
X265472Y115158*
X264398Y114748*
X263334Y114309*
X262283Y113841*
X261245Y113345*
X260221Y112821*
X259211Y112269*
X258217Y111691*
X257239Y111085*
X256277Y110453*
X255333Y109796*
X254407Y109113*
X253500Y108406*
X252612Y107674*
X251744Y106918*
X250898Y106139*
X250072Y105338*
X249269Y104514*
X248488Y103669*
X247731Y102804*
X246997Y101917*
X246287Y101012*
X245602Y100087*
X244943Y99145*
X244309Y98185*
X243701Y97208*
X243120Y96215*
X242566Y95207*
X242040Y94184*
X241541Y93147*
X241071Y92097*
X240629Y91035*
X240217Y89961*
X239833Y88876*
X239479Y87781*
X239155Y86678*
X238860Y85565*
X238596Y84446*
X238362Y83319*
X238159Y82187*
X237987Y81050*
X237845Y79908*
X237734Y78763*
X237655Y77615*
X237606Y76465*
X237593Y75250*
X305093D02*
X315093D01*
X310093Y70250D02*
Y80250D01*
D02*
D13*
X182000Y101000D02*
X147500D01*
Y93000*
X131500*
Y180250*
X133500*
Y199250*
X131500*
Y203000*
X204250*
Y199250*
X201750*
Y180250*
X204500*
Y93250*
X182000Y101000D02*
X201500D01*
Y93250*
X204500*
X0Y0D02*
M02*
