G05
M48
INCH
FMAT,2
T1C000.01969
T2C000.03150
T3C000.03346
T4C000.03543
T5C000.05118
%
T001
X00141313Y00060250
X00149187Y00060250
T002
X00232376Y00135250
X00240250Y00135250
X00248124Y00135250
X00270407Y00075250
X00290093Y00075250
X00346187Y00300250
X00445250Y00365250
T003
X00146490Y00326530
X00164010Y00326530
T004
X00140250Y00365250
X00140250Y00405250
X00150250Y00365250
X00150250Y00405250
X00160250Y00365250
X00160250Y00405250
X00170250Y00365250
X00170250Y00405250
X00180250Y00365250
X00180250Y00405250
X00190250Y00365250
X00190250Y00405250
X00200250Y00365250
X00200250Y00405250
X00210250Y00365250
X00336187Y00300250
X00434652Y00295250
X00435250Y00260250
X00435250Y00325250
X00435250Y00335250
X00435250Y00365250
X00435250Y00400250
X00444652Y00295250
X00445250Y00260250
X00445250Y00325250
X00445250Y00335250
X00445250Y00400250
X00454652Y00295250
X00455250Y00260250
X00455250Y00325250
X00455250Y00335250
X00455250Y00400250
X00464652Y00295250
X00465250Y00260250
X00465250Y00325250
X00465250Y00335250
X00465250Y00400250
X00475250Y00260250
X00475250Y00325250
X00475250Y00335250
X00475250Y00400250
X00485250Y00325250
X00485250Y00335250
X00495250Y00325250
X00495250Y00335250
X00505250Y00325250
X00505250Y00335250
T005
X00138813Y00314719
X00171687Y00314719
M30
