%FSLAX35Y35*%
%MOIN*%
G04 EasyPC Gerber Version 18.0.9 Build 3640 *
%ADD79R,0.11024X0.11024*%
%ADD11C,0.00500*%
%ADD16C,0.01000*%
%ADD71C,0.01500*%
%ADD25C,0.03543*%
%ADD78C,0.11024*%
%ADD80C,0.11024*%
%ADD77C,0.15748*%
X0Y0D02*
D02*
D11*
X340250Y200250D02*
Y250D01*
X250*
Y200250*
X340250*
X324374Y25250D02*
G75*
G03X306126I-9124D01*
G01*
G75*
G03X324374I9124*
G01*
Y180250D02*
G75*
G03X306126I-9124D01*
G01*
G75*
G03X324374I9124*
G01*
X313272Y54201D02*
G75*
G03X317012Y60250I-3022J6049D01*
G01*
G75*
G03X305250Y64802I-6762*
G01*
G75*
G03X294201Y63272I-5000J-4552*
G01*
X208272*
Y74201*
G75*
G03Y86299I-3022J6049*
G01*
Y117307*
X212012*
Y130831*
X198488*
Y117307*
X202228*
Y86299*
G75*
G03Y74201I3022J-6049*
G01*
Y60250*
G75*
G03X205250Y57228I3022*
G01*
X294201*
G75*
G03X297228Y54201I6050J3022*
G01*
Y45250*
G75*
G03X300250Y42228I3022*
G01*
X310250*
G75*
G03X313272Y45250J3022*
G01*
Y54201*
Y111299D02*
Y120250D01*
G75*
G03X310250Y123272I-3022*
G01*
X300250*
G75*
G03X297228Y120250J-3022*
G01*
Y111299*
G75*
G03X294201Y108272I3022J-6050*
G01*
X268272*
Y117307*
X272012*
Y130831*
X258488*
Y117307*
X262228*
Y86299*
G75*
G03X265250Y73488I3022J-6049*
G01*
G75*
G03X268272Y86299J6762*
G01*
Y102228*
X294201*
G75*
G03X305250Y100698I6049J3022*
G01*
G75*
G03X317012Y105250I5000J4552*
G01*
G75*
G03X313272Y111299I-6762*
G01*
Y156299D02*
Y165250D01*
G75*
G03X310250Y168272I-3022*
G01*
X300250*
G75*
G03X297228Y165250J-3022*
G01*
Y156299*
G75*
G03X294201Y153272I3022J-6050*
G01*
X235250*
G75*
G03X232228Y150250J-3022*
G01*
Y130831*
X228488*
Y117307*
X232228*
Y86299*
G75*
G03X235250Y73488I3022J-6049*
G01*
G75*
G03X238272Y86299J6762*
G01*
Y117307*
X242012*
Y130831*
X238272*
Y147228*
X294201*
G75*
G03X305250Y145698I6049J3022*
G01*
G75*
G03X317012Y150250I5000J4552*
G01*
G75*
G03X313272Y156299I-6762*
G01*
X272012Y45831D02*
X258488D01*
Y32307*
X272012*
Y45831*
X259201Y162228D02*
G75*
G03X265250Y158488I6049J3022D01*
G01*
G75*
G03Y172012J6762*
G01*
G75*
G03X259201Y168272J-6762*
G01*
X241299*
G75*
G03X229201I-6049J-3022*
G01*
X211299*
G75*
G03X199201I-6049J-3022*
G01*
X186299*
G75*
G03X183272Y171299I-6049J-3022*
G01*
Y180250*
G75*
G03X180250Y183272I-3022*
G01*
X170250*
G75*
G03X167228Y180250J-3022*
G01*
Y171299*
G75*
G03X163488Y165250I3022J-6049*
G01*
G75*
G03X175250Y160698I6762*
G01*
G75*
G03X177228Y159201I5001J4552*
G01*
Y145420*
G75*
G03X180500Y132740I3272J-5918*
G01*
G75*
G03X183272Y145670J6762*
G01*
Y159201*
G75*
G03X186299Y162228I-3022J6049*
G01*
X199201*
G75*
G03X211299I6049J3022*
G01*
X229201*
G75*
G03X241299I6049J3022*
G01*
X259201*
X242012Y45831D02*
X228488D01*
Y32307*
X242012*
Y45831*
X212012D02*
X198488D01*
Y32307*
X212012*
Y45831*
X180250Y77512D02*
G75*
G03Y63988J-6762D01*
G01*
G75*
G03Y77512J6762*
G01*
X175250Y35698D02*
G75*
G03X187012Y40250I5000J4552D01*
G01*
G75*
G03X175250Y44802I-6762*
G01*
G75*
G03X163488Y40250I-5000J-4552*
G01*
G75*
G03X175250Y35698I6762*
G01*
X94374Y25250D02*
G75*
G03X76126I-9124D01*
G01*
G75*
G03X94374I9124*
G01*
Y180250D02*
G75*
G03X76126I-9124D01*
G01*
G75*
G03X94374I9124*
G01*
X36299Y162228D02*
X45250D01*
G75*
G03X48272Y165250J3022*
G01*
Y175250*
G75*
G03X45250Y178272I-3022*
G01*
X36299*
G75*
G03X30250Y182012I-6049J-3022*
G01*
G75*
G03X25698Y170250J-6762*
G01*
G75*
G03X26478Y159638I4552J-5000*
G01*
Y145049*
G75*
G03X29500Y132238I3022J-6049*
G01*
G75*
G03X32522Y145049J6762*
G01*
Y158881*
G75*
G03X36299Y162228I-2272J6369*
G01*
X34802Y40250D02*
G75*
G03X30250Y52012I-4552J5000D01*
G01*
G75*
G03X25698Y40250J-6762*
G01*
G75*
G03X30250Y28488I4552J-5000*
G01*
G75*
G03X34802Y40250J6762*
G01*
X29500Y77258D02*
G75*
G03Y63734J-6762D01*
G01*
G75*
G03Y77258J6762*
G01*
X340250Y25250D02*
G36*
Y250D01*
X250*
Y25250*
X76126*
G75*
G03X94374I9124*
G01*
X306126*
G75*
G03X324374I9124*
G01*
X340250*
G37*
X324374D02*
G36*
G75*
G03X306126I-9124D01*
G01*
X94374*
G75*
G03X76126I-9124*
G01*
X250*
Y39069*
X24670*
G75*
G03X30250Y28488I5580J-3819*
G01*
G75*
G03X35830Y39069J6762*
G01*
X163592*
G75*
G03X175250Y35698I6658J1181*
G01*
G75*
G03X186908Y39069I5000J4552*
G01*
X198488*
Y32307*
X212012*
Y39069*
X228488*
Y32307*
X242012*
Y39069*
X258488*
Y32307*
X272012*
Y39069*
X340250*
Y25250*
X324374*
G37*
X340250Y180250D02*
G36*
Y86530D01*
X268272*
Y102228*
X294201*
G75*
G03X305250Y100698I6049J3022*
G01*
G75*
G03X317012Y105250I5000J4552*
G01*
G75*
G03X313272Y111299I-6762*
G01*
Y120250*
G75*
G03X310250Y123272I-3022*
G01*
X300250*
G75*
G03X297228Y120250J-3022*
G01*
Y111299*
G75*
G03X294201Y108272I3022J-6050*
G01*
X268272*
Y117307*
X272012*
Y130831*
X258488*
Y117307*
X262228*
Y86530*
X238272*
Y117307*
X242012*
Y130831*
X238272*
Y147228*
X294201*
G75*
G03X305250Y145698I6049J3022*
G01*
G75*
G03X317012Y150250I5000J4552*
G01*
G75*
G03X313272Y156299I-6762*
G01*
Y165250*
G75*
G03X310250Y168272I-3022*
G01*
X300250*
G75*
G03X297228Y165250J-3022*
G01*
Y156299*
G75*
G03X294201Y153272I3022J-6050*
G01*
X235250*
G75*
G03X232228Y150250J-3022*
G01*
Y130831*
X228488*
Y117307*
X232228*
Y86530*
X208272*
Y117307*
X212012*
Y130831*
X198488*
Y117307*
X202228*
Y86530*
X250*
Y180250*
X25698*
G75*
G03Y170250I4552J-5000*
G01*
G75*
G03X26478Y159638I4552J-5000*
G01*
Y145049*
G75*
G03X29500Y132238I3022J-6049*
G01*
G75*
G03X32522Y145049J6762*
G01*
Y158881*
G75*
G03X36299Y162228I-2272J6369*
G01*
X45250*
G75*
G03X48272Y165250J3022*
G01*
Y175250*
G75*
G03X45250Y178272I-3022*
G01*
X36299*
G75*
G03X34802Y180250I-6049J-3021*
G01*
X76126*
G75*
G03X94374I9124*
G01*
X167228*
Y171299*
G75*
G03X163488Y165250I3022J-6049*
G01*
G75*
G03X175250Y160698I6762*
G01*
G75*
G03X177228Y159201I5001J4552*
G01*
Y145420*
G75*
G03X180500Y132740I3272J-5918*
G01*
G75*
G03X183272Y145670J6762*
G01*
Y159201*
G75*
G03X186299Y162228I-3022J6049*
G01*
X199201*
G75*
G03X211299I6049J3022*
G01*
X229201*
G75*
G03X241299I6049J3022*
G01*
X259201*
G75*
G03X265250Y158488I6049J3022*
G01*
G75*
G03Y172012J6762*
G01*
G75*
G03X259201Y168272J-6762*
G01*
X241299*
G75*
G03X229201I-6049J-3022*
G01*
X211299*
G75*
G03X199201I-6049J-3022*
G01*
X186299*
G75*
G03X183272Y171299I-6049J-3022*
G01*
Y180250*
X306126*
G75*
G03X324374I9124*
G01*
X340250*
G37*
X324374D02*
G36*
G75*
G03X306126I-9124D01*
G01*
X183272*
G75*
G03X180250Y183272I-3022*
G01*
X170250*
G75*
G03X167228Y180250J-3022*
G01*
X94374*
G75*
G03X76126I-9124*
G01*
X34802*
G75*
G03X30250Y182012I-4552J-5000*
G01*
G75*
G03X25698Y180250J-6762*
G01*
X250*
Y200250*
X340250*
Y180250*
X324374*
G37*
X340250Y86530D02*
G36*
Y70750D01*
X208272*
Y74201*
G75*
G03Y86299I-3022J6049*
G01*
Y86530*
X232228*
Y86299*
G75*
G03X235250Y73488I3022J-6049*
G01*
G75*
G03X238272Y86299J6762*
G01*
Y86530*
X262228*
Y86299*
G75*
G03X265250Y73488I3022J-6049*
G01*
G75*
G03X268272Y86299J6762*
G01*
Y86530*
X340250*
G37*
X202228D02*
G36*
Y86299D01*
G75*
G03Y74201I3022J-6049*
G01*
Y70750*
X187012*
G75*
G03X180250Y77512I-6762*
G01*
G75*
G03X173488Y70750J-6762*
G01*
X36257*
G75*
G03X29500Y77258I-6757J-254*
G01*
G75*
G03X22743Y70750J-6762*
G01*
X250*
Y86530*
X202228*
G37*
X272012Y39069D02*
G36*
Y45831D01*
X258488*
Y39069*
X242012*
Y45831*
X228488*
Y39069*
X212012*
Y45831*
X198488*
Y39069*
X186908*
G75*
G03X187012Y40250I-6657J1181*
G01*
G75*
G03X175250Y44802I-6762*
G01*
G75*
G03X163488Y40250I-5000J-4552*
G01*
G75*
G03X163592Y39069I6762*
G01*
X35830*
G75*
G03X34802Y40250I-5580J-3819*
G01*
G75*
G03X30250Y52012I-4552J5000*
G01*
G75*
G03X25698Y40250J-6762*
G01*
G75*
G03X24670Y39069I4552J-5000*
G01*
X250*
Y70750*
X22743*
G75*
G03X29500Y63734I6757J-254*
G01*
G75*
G03X36257Y70750J6762*
G01*
X173488*
G75*
G03X180250Y63988I6762*
G01*
G75*
G03X187012Y70750J6762*
G01*
X202228*
Y60250*
G75*
G03X205250Y57228I3022*
G01*
X294201*
G75*
G03X297228Y54201I6050J3022*
G01*
Y45250*
G75*
G03X300250Y42228I3022*
G01*
X310250*
G75*
G03X313272Y45250J3022*
G01*
Y54201*
G75*
G03X317012Y60250I-3022J6049*
G01*
G75*
G03X305250Y64802I-6762*
G01*
G75*
G03X294201Y63272I-5000J-4552*
G01*
X208272*
Y70750*
X340250*
Y39069*
X272012*
G37*
X307228Y54201D02*
Y48272D01*
X303272*
Y54201*
G75*
G03X305250Y55698I-3022J6049*
G01*
G75*
G03X307228Y54201I5001J4552*
G01*
G36*
Y48272*
X303272*
Y54201*
G75*
G03X305250Y55698I-3022J6049*
G01*
G75*
G03X307228Y54201I5001J4552*
G01*
G37*
Y111299D02*
G75*
G03X305250Y109802I3022J-6049D01*
G01*
G75*
G03X303272Y111299I-5001J-4552*
G01*
Y117228*
X307228*
Y111299*
G36*
G75*
G03X305250Y109802I3022J-6049*
G01*
G75*
G03X303272Y111299I-5001J-4552*
G01*
Y117228*
X307228*
Y111299*
G37*
Y156299D02*
G75*
G03X305250Y154802I3022J-6049D01*
G01*
G75*
G03X303272Y156299I-5001J-4552*
G01*
Y162228*
X307228*
Y156299*
G36*
G75*
G03X305250Y154802I3022J-6049*
G01*
G75*
G03X303272Y156299I-5001J-4552*
G01*
Y162228*
X307228*
Y156299*
G37*
X177228Y171299D02*
G75*
G03X175250Y169802I3022J-6049D01*
G01*
G75*
G03X173272Y171299I-5001J-4552*
G01*
Y177228*
X177228*
Y171299*
G36*
G75*
G03X175250Y169802I3022J-6049*
G01*
G75*
G03X173272Y171299I-5001J-4552*
G01*
Y177228*
X177228*
Y171299*
G37*
X36299Y168272D02*
G75*
G03X34802Y170250I-6049J-3022D01*
G01*
G75*
G03X36299Y172228I-4552J5001*
G01*
X42228*
Y168272*
X36299*
G36*
G75*
G03X34802Y170250I-6049J-3022*
G01*
G75*
G03X36299Y172228I-4552J5001*
G01*
X42228*
Y168272*
X36299*
G37*
D02*
D16*
X270262Y39069D02*
X272262D01*
X265250Y34057D02*
Y32057D01*
Y44081D02*
Y46081D01*
X260238Y39069D02*
X258238D01*
X240262D02*
X242262D01*
X235250Y34057D02*
Y32057D01*
Y44081D02*
Y46081D01*
X230238Y39069D02*
X228238D01*
X210262D02*
X212262D01*
X205250Y34057D02*
Y32057D01*
Y44081D02*
Y46081D01*
X200238Y39069D02*
X198238D01*
X185262Y70750D02*
X187262D01*
X183794Y36706D02*
X185208Y35292D01*
X183794Y43794D02*
X185208Y45208D01*
X180250Y65738D02*
Y63738D01*
Y75762D02*
Y77762D01*
X176706Y36706D02*
X175292Y35292D01*
X176706Y43794D02*
X175292Y45208D01*
X175238Y70750D02*
X173238D01*
X173794Y36706D02*
X175208Y35292D01*
X173794Y43794D02*
X175208Y45208D01*
X166706Y36706D02*
X165292Y35292D01*
X166706Y43794D02*
X165292Y45208D01*
X34512Y70496D02*
X36512D01*
X33794Y31706D02*
X35208Y30292D01*
X33794Y38794D02*
X35208Y40208D01*
X33794Y41706D02*
X35208Y40292D01*
X33794Y48794D02*
X35208Y50208D01*
X29500Y65484D02*
Y63484D01*
Y75508D02*
Y77508D01*
X26706Y31706D02*
X25292Y30292D01*
X26706Y38794D02*
X25292Y40208D01*
X26706Y41706D02*
X25292Y40292D01*
X26706Y48794D02*
X25292Y50208D01*
X24488Y70496D02*
X22488D01*
D02*
D71*
X265250Y105250D02*
Y124069D01*
D02*
D25*
X310250Y105250D02*
Y120250D01*
X300250*
Y105250*
X310250Y150250D02*
X235250D01*
Y124069*
X310250Y150250D02*
Y165250D01*
X300250*
Y150250*
Y60250D02*
X205250D01*
Y80250*
X300250Y60250D02*
Y45250D01*
X310250*
Y60250*
X300250Y105250D02*
X265250D01*
Y39069D02*
X235250D01*
X265250Y80250D02*
Y124069D01*
Y165250D02*
X235250D01*
Y39069D02*
X205250D01*
X235250Y80250D02*
Y124069D01*
Y165250D02*
X205250D01*
Y39069D02*
Y40250D01*
X180250*
X205250Y80250D02*
Y124069D01*
Y165250D02*
X180250D01*
Y40250D02*
Y70750D01*
Y40250D02*
Y25250D01*
X170250*
Y40250*
X180250Y165250D02*
Y139502D01*
X180500*
X180250Y165250D02*
Y180250D01*
X170250*
Y165250*
X30250Y45250D02*
X45250D01*
Y35250*
X30250*
Y175250D02*
X45250D01*
Y165250*
X30250*
X29500Y70496D02*
X30250D01*
Y45250*
X29500Y139000D02*
Y165250D01*
X30250*
D02*
D77*
X315250Y25250D03*
Y180250D03*
X85250Y25250D03*
Y180250D03*
D02*
D78*
X310250Y60250D03*
Y105250D03*
Y150250D03*
X300250Y60250D03*
Y105250D03*
Y150250D03*
X265250Y80250D03*
Y165250D03*
X235250Y80250D03*
Y165250D03*
X205250Y80250D03*
Y165250D03*
X180500Y139502D03*
X180250Y40250D03*
Y70750D03*
Y165250D03*
X170250Y40250D03*
Y165250D03*
X30250Y35250D03*
Y45250D03*
Y165250D03*
Y175250D03*
X29500Y139000D03*
D02*
D79*
X265250Y39069D03*
Y124069D03*
X235250Y39069D03*
Y124069D03*
X205250Y39069D03*
Y124069D03*
D02*
D80*
X29500Y70496D03*
X0Y0D02*
M02*
