%FSLAX35Y35*%
%MOIN*%
G04 EasyPC Gerber Version 18.0.9 Build 3640 *
%ADD11C,0.00500*%
%ADD20C,0.10000*%
X0Y0D02*
D02*
D11*
X302125Y31813D02*
X302437Y31500D01*
X303063Y31187*
X304000*
X304625Y31500*
X304937Y31813*
X305250Y32437*
Y33687*
X304937Y34313*
X304625Y34625*
X304000Y34937*
X303063*
X302437Y34625*
X302125Y34313*
Y186813D02*
X302437Y186500D01*
X303063Y186187*
X304000*
X304625Y186500*
X304937Y186813*
X305250Y187437*
Y188687*
X304937Y189313*
X304625Y189625*
X304000Y189937*
X303063*
X302437Y189625*
X302125Y189313*
X300250Y66187D02*
X298687Y69937D01*
X297125Y66187*
X299625Y67750D02*
X297750D01*
X300250Y111187D02*
X298687Y114937D01*
X297125Y111187*
X299625Y112750D02*
X297750D01*
X300250Y156187D02*
X298687Y159937D01*
X297125Y156187*
X299625Y157750D02*
X297750D01*
X290250Y66187D02*
X288687Y69937D01*
X287125Y66187*
X289625Y67750D02*
X287750D01*
X290250Y111187D02*
X288687Y114937D01*
X287125Y111187*
X289625Y112750D02*
X287750D01*
X290250Y156187D02*
X288687Y159937D01*
X287125Y156187*
X289625Y157750D02*
X287750D01*
X255250Y45006D02*
X253687Y48756D01*
X252125Y45006*
X254625Y46569D02*
X252750D01*
X255250Y86187D02*
X253687Y89937D01*
X252125Y86187*
X254625Y87750D02*
X252750D01*
X255250Y130006D02*
X253687Y133756D01*
X252125Y130006*
X254625Y131569D02*
X252750D01*
X255250Y171187D02*
X253687Y174937D01*
X252125Y171187*
X254625Y172750D02*
X252750D01*
X225250Y45006D02*
X223687Y48756D01*
X222125Y45006*
X224625Y46569D02*
X222750D01*
X225250Y86187D02*
X223687Y89937D01*
X222125Y86187*
X224625Y87750D02*
X222750D01*
X225250Y130006D02*
X223687Y133756D01*
X222125Y130006*
X224625Y131569D02*
X222750D01*
X225250Y171187D02*
X223687Y174937D01*
X222125Y171187*
X224625Y172750D02*
X222750D01*
X195250Y45006D02*
X193687Y48756D01*
X192125Y45006*
X194625Y46569D02*
X192750D01*
X195250Y86187D02*
X193687Y89937D01*
X192125Y86187*
X194625Y87750D02*
X192750D01*
X195250Y130006D02*
X193687Y133756D01*
X192125Y130006*
X194625Y131569D02*
X192750D01*
X195250Y171187D02*
X193687Y174937D01*
X192125Y171187*
X194625Y172750D02*
X192750D01*
X170500Y145439D02*
X168937Y149189D01*
X167375Y145439*
X169875Y147002D02*
X168000D01*
X170250Y46187D02*
X168687Y49937D01*
X167125Y46187*
X169625Y47750D02*
X167750D01*
X170250Y76687D02*
X168687Y80437D01*
X167125Y76687*
X169625Y78250D02*
X167750D01*
X170250Y171187D02*
X168687Y174937D01*
X167125Y171187*
X169625Y172750D02*
X167750D01*
X160250Y46187D02*
X158687Y49937D01*
X157125Y46187*
X159625Y47750D02*
X157750D01*
X160250Y171187D02*
X158687Y174937D01*
X157125Y171187*
X159625Y172750D02*
X157750D01*
X72125Y31813D02*
X72437Y31500D01*
X73063Y31187*
X74000*
X74625Y31500*
X74937Y31813*
X75250Y32437*
Y33687*
X74937Y34313*
X74625Y34625*
X74000Y34937*
X73063*
X72437Y34625*
X72125Y34313*
Y186813D02*
X72437Y186500D01*
X73063Y186187*
X74000*
X74625Y186500*
X74937Y186813*
X75250Y187437*
Y188687*
X74937Y189313*
X74625Y189625*
X74000Y189937*
X73063*
X72437Y189625*
X72125Y189313*
X20250Y41187D02*
X18687Y44937D01*
X17125Y41187*
X19625Y42750D02*
X17750D01*
X20250Y51187D02*
X18687Y54937D01*
X17125Y51187*
X19625Y52750D02*
X17750D01*
X20250Y171187D02*
X18687Y174937D01*
X17125Y171187*
X19625Y172750D02*
X17750D01*
X20250Y181187D02*
X18687Y184937D01*
X17125Y181187*
X19625Y182750D02*
X17750D01*
X19500Y76433D02*
X17937Y80183D01*
X16375Y76433*
X18875Y77996D02*
X17000D01*
X19500Y144937D02*
X17937Y148687D01*
X16375Y144937*
X18875Y146500D02*
X17000D01*
D02*
D20*
X315250Y25250D03*
Y180250D03*
X310250Y60250D03*
Y105250D03*
Y150250D03*
X300250Y60250D03*
Y105250D03*
Y150250D03*
X265250Y39069D03*
Y80250D03*
Y124069D03*
Y165250D03*
X235250Y39069D03*
Y80250D03*
Y124069D03*
Y165250D03*
X205250Y39069D03*
Y80250D03*
Y124069D03*
Y165250D03*
X180500Y139502D03*
X180250Y40250D03*
Y70750D03*
Y165250D03*
X170250Y40250D03*
Y165250D03*
X85250Y25250D03*
Y180250D03*
X30250Y35250D03*
Y45250D03*
Y165250D03*
Y175250D03*
X29500Y70496D03*
Y139000D03*
X0Y0D02*
M02*
